<svg width="87" height="30" viewBox="0 0 87 30" fill="none" xmlns="http://www.w3.org/2000/svg">
<path d="M29.1797 21.4206C30.4687 21.4206 31.1575 20.7319 31.1575 19.4429V1.18164H34.083V19.525C34.083 20.9025 33.6534 22.0209 32.794 22.7981C32.0168 23.6575 30.8984 24.0872 29.6094 24.0872L29.1797 21.4143V21.4206Z" fill="#06048C"/>
<path d="M0 1.52917H2.84344V4.02508C4.39154 2.12945 6.37563 1.18164 8.78308 1.18164C11.1905 1.18164 13.0862 1.95885 14.6406 3.59541C16.2771 5.23197 17.0543 7.2982 17.0543 9.62351C17.0543 11.9488 16.2771 14.015 14.6406 15.6516C13.0862 17.2882 11.1084 18.1475 8.78308 18.1475C6.45777 18.1475 4.39154 17.1997 2.83712 15.3041V24.0872H0V1.52917ZM4.48 13.756C5.59842 14.8744 6.89377 15.3925 8.52401 15.3925C10.0784 15.3925 11.4559 14.8744 12.5743 13.756C13.6928 12.6376 14.2109 11.2601 14.2109 9.62351C14.2109 8.07541 13.6928 6.69792 12.5743 5.57318C11.4559 4.45476 10.0784 3.84816 8.52401 3.84816C6.88745 3.84816 5.50996 4.44844 4.48 5.57318C3.36158 6.6916 2.84344 8.06909 2.84344 9.62351C2.84344 11.2601 3.36158 12.6376 4.48 13.756Z" fill="#06048C"/>
<path d="M19.4432 24.1818C19.6138 24.9591 19.9613 25.5593 20.4795 25.989C21.0797 26.4187 21.7748 26.5893 22.5457 26.5893C23.3166 26.5893 24.0116 26.4187 24.5298 25.989C25.0479 25.5593 25.3891 25.1297 25.3891 24.5231C25.3891 24.0049 25.1301 23.5752 24.7888 23.234C24.2707 22.8044 23.3229 22.3747 22.0339 21.8565C18.8492 20.6497 17.3011 18.931 17.3011 16.6878C17.3011 15.3988 17.8193 14.3625 18.7608 13.5031C19.7086 12.6438 20.9154 12.2141 22.2929 12.2141C23.6704 12.2141 24.8773 12.5616 25.7367 13.3325C26.6845 14.1097 27.2026 15.1397 27.3732 16.3466L24.9595 16.9469C24.871 16.2581 24.6119 15.74 24.1001 15.3988C23.6704 14.9691 23.0701 14.7985 22.3751 14.7985C21.7748 14.7985 21.2567 14.9691 20.8207 15.3166C20.3025 15.7463 20.1319 16.176 20.1319 16.7826C20.1319 17.3007 20.3025 17.8125 20.6501 18.1601C21.0797 18.5897 21.9391 19.0194 23.2344 19.5376C24.7888 20.1378 25.9894 20.8329 26.8551 21.6038C27.7144 22.381 28.2326 23.3288 28.2326 24.6178C28.2326 25.9069 27.6323 27.0316 26.596 27.891C25.4776 28.7503 24.1822 29.18 22.6342 29.18C21.1745 29.18 19.8792 28.7503 18.8429 27.9731C17.7245 27.1138 17.1179 26.0775 16.9473 24.7884L19.4432 24.1882V24.1818Z" fill="#06048C"/>
<path d="M43.1004 3.77223V9.38961H49.7035V11.9487H43.1004V17.8125H50.5312V20.3716H39.96V1.21313H50.5312V3.77223H43.1004Z" fill="#06048C"/>
<path d="M54.2906 8.66934C54.9225 7.49405 55.7881 6.58415 56.8813 5.93332C57.9744 5.28249 59.1876 4.95391 60.5272 4.95391C61.5193 4.95391 62.4923 5.16875 63.4591 5.59842C64.4196 6.0281 65.1905 6.60311 65.7591 7.31713V0H68.9248V20.3717H65.7591V18.0843C65.2473 18.8173 64.5333 19.4239 63.6234 19.8978C62.7135 20.378 61.6709 20.6118 60.5019 20.6118C59.1813 20.6118 57.9744 20.2769 56.8813 19.6071C55.7881 18.9373 54.9288 18.0022 54.2906 16.8016C53.6587 15.601 53.3428 14.2362 53.3428 12.7133C53.3428 11.1905 53.6587 9.84463 54.2906 8.66934ZM65.1083 10.0468C64.6786 9.27594 64.1099 8.6883 63.4149 8.2839C62.7198 7.8795 61.9679 7.6773 61.1591 7.6773C60.3503 7.6773 59.5983 7.87318 58.9033 8.27126C58.2082 8.66302 57.6395 9.24435 57.2099 10.0026C56.7802 10.7672 56.5653 11.6708 56.5653 12.7133C56.5653 13.7559 56.7802 14.6785 57.2099 15.4683C57.6395 16.2582 58.2082 16.8585 58.9159 17.2692C59.6236 17.6799 60.3692 17.8884 61.1591 17.8884C61.9489 17.8884 62.7198 17.6862 63.4149 17.2818C64.1099 16.8774 64.6786 16.2834 65.1083 15.5062C65.538 14.729 65.7528 13.8128 65.7528 12.7702C65.7528 11.7276 65.538 10.8177 65.1083 10.0468Z" fill="#06048C"/>
<path d="M86.7822 5.2002V20.3652H83.6418V18.577C83.149 19.2026 82.4981 19.6891 81.702 20.0493C80.9058 20.4095 80.0528 20.5864 79.1555 20.5864C77.9613 20.5864 76.8934 20.3399 75.9519 19.8408C75.0041 19.3479 74.2648 18.6149 73.7214 17.6418C73.178 16.6687 72.9062 15.4935 72.9062 14.116V5.2002H76.0151V13.6484C76.0151 15.0069 76.3563 16.0495 77.0324 16.7698C77.7085 17.4965 78.6374 17.8567 79.8127 17.8567C80.9879 17.8567 81.9168 17.4965 82.6055 16.7698C83.2943 16.0432 83.6355 15.0069 83.6355 13.6484V5.2002H86.7759H86.7822Z" fill="#06048C"/>
</svg>
