<svg width="26" height="26" viewBox="0 0 26 26" fill="none" xmlns="http://www.w3.org/2000/svg">
<circle cx="13" cy="12.6187" r="12.5" fill="#475FE9"/>
<path d="M15.66 8.65365H10.635V11.6387C10.845 11.3587 11.155 11.1237 11.565 10.9337C11.985 10.7437 12.43 10.6487 12.9 10.6487C13.74 10.6487 14.42 10.8287 14.94 11.1887C15.47 11.5487 15.845 12.0037 16.065 12.5537C16.295 13.1037 16.41 13.6837 16.41 14.2937C16.41 15.0337 16.265 15.6937 15.975 16.2737C15.695 16.8437 15.27 17.2937 14.7 17.6237C14.14 17.9537 13.45 18.1187 12.63 18.1187C11.54 18.1187 10.665 17.8487 10.005 17.3087C9.34496 16.7687 8.94996 16.0537 8.81996 15.1637H10.485C10.595 15.6337 10.84 16.0087 11.22 16.2887C11.6 16.5587 12.075 16.6937 12.645 16.6937C13.355 16.6937 13.885 16.4787 14.235 16.0487C14.595 15.6187 14.775 15.0487 14.775 14.3387C14.775 13.6187 14.595 13.0687 14.235 12.6887C13.875 12.2987 13.345 12.1037 12.645 12.1037C12.155 12.1037 11.74 12.2287 11.4 12.4787C11.07 12.7187 10.83 13.0487 10.68 13.4687H9.05996V7.15365H15.66V8.65365Z" fill="white"/>
</svg>
