<svg width="26" height="26" viewBox="0 0 26 26" fill="none" xmlns="http://www.w3.org/2000/svg">
<circle cx="13" cy="12.7456" r="12.5" fill="#475FE9"/>
<path d="M9.41688 10.0106C9.47688 9.08061 9.83188 8.35561 10.4819 7.83561C11.1419 7.3156 11.9819 7.0556 13.0019 7.0556C13.7019 7.0556 14.3069 7.1806 14.8169 7.43061C15.3269 7.6806 15.7119 8.0206 15.9719 8.4506C16.2319 8.88061 16.3619 9.36561 16.3619 9.9056C16.3619 10.5256 16.1969 11.0556 15.8669 11.4956C15.5369 11.9356 15.1419 12.2306 14.6819 12.3806V12.4406C15.2719 12.6206 15.7319 12.9506 16.0619 13.4306C16.3919 13.9006 16.5569 14.5056 16.5569 15.2456C16.5569 15.8356 16.4219 16.3606 16.1519 16.8206C15.8819 17.2806 15.4819 17.6456 14.9519 17.9156C14.4219 18.1756 13.7869 18.3056 13.0469 18.3056C11.9669 18.3056 11.0769 18.0306 10.3769 17.4806C9.68688 16.9206 9.31688 16.1206 9.26688 15.0806H10.9169C10.9569 15.6106 11.1619 16.0456 11.5319 16.3856C11.9019 16.7156 12.4019 16.8806 13.0319 16.8806C13.6419 16.8806 14.1119 16.7156 14.4419 16.3856C14.7719 16.0456 14.9369 15.6106 14.9369 15.0806C14.9369 14.3806 14.7119 13.8856 14.2619 13.5956C13.8219 13.2956 13.1419 13.1456 12.2219 13.1456H11.8319V11.7356H12.2369C13.0469 11.7256 13.6619 11.5906 14.0819 11.3306C14.5119 11.0706 14.7269 10.6606 14.7269 10.1006C14.7269 9.62061 14.5719 9.24061 14.2619 8.96061C13.9519 8.67061 13.5119 8.52561 12.9419 8.52561C12.3819 8.52561 11.9469 8.67061 11.6369 8.96061C11.3269 9.24061 11.1419 9.59061 11.0819 10.0106H9.41688Z" fill="white"/>
</svg>
