<svg width="26" height="26" viewBox="0 0 26 26" fill="none" xmlns="http://www.w3.org/2000/svg">
<circle cx="13" cy="12.7456" r="12.5" fill="#475FE9"/>
<path d="M10.5164 15.9206C11.4764 15.0906 12.2314 14.4106 12.7814 13.8806C13.3414 13.3406 13.8064 12.7806 14.1764 12.2006C14.5464 11.6206 14.7314 11.0406 14.7314 10.4606C14.7314 9.8606 14.5864 9.3906 14.2964 9.0506C14.0164 8.71061 13.5714 8.54061 12.9614 8.54061C12.3714 8.54061 11.9114 8.73061 11.5814 9.11061C11.2614 9.48061 11.0914 9.98061 11.0714 10.6106H9.42139C9.45139 9.47061 9.79139 8.60061 10.4414 8.00061C11.1014 7.39061 11.9364 7.08561 12.9464 7.08561C14.0364 7.08561 14.8864 7.38561 15.4964 7.98561C16.1164 8.58561 16.4264 9.38561 16.4264 10.3856C16.4264 11.1056 16.2414 11.8006 15.8714 12.4706C15.5114 13.1306 15.0764 13.7256 14.5664 14.2556C14.0664 14.7756 13.4264 15.3806 12.6464 16.0706L11.9714 16.6706H16.7264V18.0956H9.43639V16.8506L10.5164 15.9206Z" fill="white"/>
</svg>
