<svg width="26" height="26" viewBox="0 0 26 26" fill="none" xmlns="http://www.w3.org/2000/svg">
<circle cx="13" cy="12.6187" r="12.5" fill="#475FE9"/>
<path d="M14.468 9.71865C14.358 9.25865 14.158 8.91365 13.868 8.68365C13.578 8.45365 13.173 8.33865 12.653 8.33865C11.863 8.33865 11.273 8.64365 10.883 9.25365C10.493 9.85365 10.288 10.8537 10.268 12.2537C10.528 11.8137 10.908 11.4737 11.408 11.2337C11.908 10.9937 12.448 10.8737 13.028 10.8737C13.688 10.8737 14.268 11.0187 14.768 11.3087C15.278 11.5887 15.673 11.9987 15.953 12.5387C16.243 13.0787 16.388 13.7237 16.388 14.4737C16.388 15.1737 16.248 15.7987 15.968 16.3487C15.698 16.8987 15.293 17.3337 14.753 17.6537C14.213 17.9637 13.563 18.1187 12.803 18.1187C11.773 18.1187 10.963 17.8937 10.373 17.4437C9.79299 16.9837 9.38299 16.3387 9.14299 15.5087C8.91299 14.6787 8.79799 13.6437 8.79799 12.4037C8.79799 8.74365 10.088 6.91365 12.668 6.91365C13.668 6.91365 14.453 7.18365 15.023 7.72365C15.603 8.26365 15.943 8.92865 16.043 9.71865H14.468ZM12.653 12.3137C12.043 12.3137 11.523 12.4987 11.093 12.8687C10.673 13.2287 10.463 13.7537 10.463 14.4437C10.463 15.1337 10.658 15.6837 11.048 16.0937C11.448 16.4937 12.003 16.6937 12.713 16.6937C13.343 16.6937 13.838 16.4987 14.198 16.1087C14.568 15.7187 14.753 15.1987 14.753 14.5487C14.753 13.8687 14.573 13.3287 14.213 12.9287C13.863 12.5187 13.343 12.3137 12.653 12.3137Z" fill="white"/>
</svg>
