<svg width="321" height="90" viewBox="0 0 321 90" fill="none" xmlns="http://www.w3.org/2000/svg">
<rect x="0.5" y="0.5" width="320" height="57" rx="28.5" fill="#EEEEEE" stroke="#F0F0F0"/>
<circle cx="33.3873" cy="29.3873" r="18.3873" fill="#0012B0"/>
<circle cx="137.387" cy="29.3873" r="18.3873" fill="#0012B0"/>
<circle cx="239.387" cy="29.3873" r="18.3873" fill="#0012B0"/>
<circle cx="85.3873" cy="29.3873" r="18.3873" fill="#0012B0"/>
<circle cx="189.387" cy="29.3873" r="18.3873" fill="#0012B0"/>
<circle cx="287.387" cy="29.3873" r="18.3873" fill="#0012B0"/>
<path d="M31.6539 31.832C31.7605 32.3653 31.9899 32.7707 32.3419 33.048C32.6939 33.3253 33.1685 33.464 33.7659 33.464C34.5232 33.464 35.0779 33.1653 35.4299 32.568C35.7819 31.9707 35.9579 30.952 35.9579 29.512C35.7019 29.8747 35.3392 30.1573 34.8699 30.36C34.4112 30.552 33.9099 30.648 33.3659 30.648C32.6725 30.648 32.0432 30.5093 31.4779 30.232C30.9125 29.944 30.4645 29.5227 30.1339 28.968C29.8139 28.4027 29.6539 27.72 29.6539 26.92C29.6539 25.7467 29.9952 24.8133 30.6779 24.12C31.3712 23.416 32.3205 23.064 33.5259 23.064C34.9765 23.064 36.0059 23.5493 36.6139 24.52C37.2325 25.48 37.5419 26.9573 37.5419 28.952C37.5419 30.328 37.4245 31.4533 37.1899 32.328C36.9659 33.2027 36.5712 33.864 36.0059 34.312C35.4405 34.76 34.6565 34.984 33.6539 34.984C32.5125 34.984 31.6325 34.6853 31.0139 34.088C30.3952 33.4907 30.0485 32.7387 29.9739 31.832H31.6539ZM33.6859 29.112C34.3259 29.112 34.8272 28.9147 35.1899 28.52C35.5632 28.1147 35.7499 27.5813 35.7499 26.92C35.7499 26.184 35.5525 25.6133 35.1579 25.208C34.7739 24.792 34.2459 24.584 33.5739 24.584C32.9019 24.584 32.3685 24.7973 31.9739 25.224C31.5899 25.64 31.3979 26.1893 31.3979 26.872C31.3979 27.5227 31.5845 28.0613 31.9579 28.488C32.3419 28.904 32.9179 29.112 33.6859 29.112Z" fill="white"/>
<path d="M77.2493 32.52C78.2733 31.6347 79.0786 30.9093 79.6653 30.344C80.2626 29.768 80.7586 29.1707 81.1533 28.552C81.5479 27.9333 81.7453 27.3147 81.7453 26.696C81.7453 26.056 81.5906 25.5547 81.2813 25.192C80.9826 24.8293 80.5079 24.648 79.8573 24.648C79.2279 24.648 78.7373 24.8507 78.3853 25.256C78.0439 25.6507 77.8626 26.184 77.8413 26.856H76.0813C76.1133 25.64 76.4759 24.712 77.1693 24.072C77.8733 23.4213 78.7639 23.096 79.8413 23.096C81.0039 23.096 81.9106 23.416 82.5613 24.056C83.2226 24.696 83.5533 25.5493 83.5533 26.616C83.5533 27.384 83.3559 28.1253 82.9613 28.84C82.5773 29.544 82.1133 30.1787 81.5693 30.744C81.0359 31.2987 80.3533 31.944 79.5213 32.68L78.8013 33.32H83.8733V34.84H76.0973V33.512L77.2493 32.52ZM87.4436 28.904C86.3343 28.3493 85.7796 27.4747 85.7796 26.28C85.7796 25.704 85.9236 25.176 86.2116 24.696C86.4996 24.216 86.9316 23.8373 87.5076 23.56C88.0836 23.272 88.7876 23.128 89.6196 23.128C90.441 23.128 91.1396 23.272 91.7156 23.56C92.3023 23.8373 92.7396 24.216 93.0276 24.696C93.3156 25.176 93.4596 25.704 93.4596 26.28C93.4596 26.8773 93.305 27.4053 92.9956 27.864C92.697 28.312 92.297 28.6587 91.7956 28.904C92.4036 29.128 92.8836 29.496 93.2356 30.008C93.5876 30.5093 93.7636 31.1013 93.7636 31.784C93.7636 32.4773 93.5876 33.0907 93.2356 33.624C92.8836 34.1573 92.393 34.568 91.7636 34.856C91.1343 35.144 90.4196 35.288 89.6196 35.288C88.8196 35.288 88.105 35.144 87.4756 34.856C86.857 34.568 86.3716 34.1573 86.0196 33.624C85.6676 33.0907 85.4916 32.4773 85.4916 31.784C85.4916 31.0907 85.6676 30.4933 86.0196 29.992C86.3716 29.4907 86.8463 29.128 87.4436 28.904ZM91.7156 26.504C91.7156 25.9067 91.529 25.448 91.1556 25.128C90.7823 24.808 90.2703 24.648 89.6196 24.648C88.9796 24.648 88.473 24.808 88.0996 25.128C87.7263 25.448 87.5396 25.912 87.5396 26.52C87.5396 27.0533 87.7316 27.4907 88.1156 27.832C88.5103 28.1627 89.0116 28.328 89.6196 28.328C90.2276 28.328 90.729 28.1573 91.1236 27.816C91.5183 27.4747 91.7156 27.0373 91.7156 26.504ZM89.6196 29.704C88.9156 29.704 88.3396 29.88 87.8916 30.232C87.4543 30.5733 87.2356 31.0693 87.2356 31.72C87.2356 32.328 87.449 32.824 87.8756 33.208C88.3023 33.5813 88.8836 33.768 89.6196 33.768C90.345 33.768 90.9156 33.576 91.3316 33.192C91.7583 32.808 91.9716 32.3173 91.9716 31.72C91.9716 31.08 91.753 30.584 91.3156 30.232C90.889 29.88 90.3236 29.704 89.6196 29.704Z" fill="white"/>
<path d="M129.273 32.52C130.297 31.6347 131.102 30.9093 131.689 30.344C132.286 29.768 132.782 29.1707 133.177 28.552C133.571 27.9333 133.769 27.3147 133.769 26.696C133.769 26.056 133.614 25.5547 133.305 25.192C133.006 24.8293 132.531 24.648 131.881 24.648C131.251 24.648 130.761 24.8507 130.409 25.256C130.067 25.6507 129.886 26.184 129.865 26.856H128.105C128.137 25.64 128.499 24.712 129.193 24.072C129.897 23.4213 130.787 23.096 131.865 23.096C133.027 23.096 133.934 23.416 134.585 24.056C135.246 24.696 135.577 25.5493 135.577 26.616C135.577 27.384 135.379 28.1253 134.985 28.84C134.601 29.544 134.137 30.1787 133.593 30.744C133.059 31.2987 132.377 31.944 131.545 32.68L130.825 33.32H135.897V34.84H128.121V33.512L129.273 32.52ZM139.771 31.832C139.878 32.3653 140.107 32.7707 140.459 33.048C140.811 33.3253 141.286 33.464 141.883 33.464C142.64 33.464 143.195 33.1653 143.547 32.568C143.899 31.9707 144.075 30.952 144.075 29.512C143.819 29.8747 143.456 30.1573 142.987 30.36C142.528 30.552 142.027 30.648 141.483 30.648C140.79 30.648 140.16 30.5093 139.595 30.232C139.03 29.944 138.582 29.5227 138.251 28.968C137.931 28.4027 137.771 27.72 137.771 26.92C137.771 25.7467 138.112 24.8133 138.795 24.12C139.488 23.416 140.438 23.064 141.643 23.064C143.094 23.064 144.123 23.5493 144.731 24.52C145.35 25.48 145.659 26.9573 145.659 28.952C145.659 30.328 145.542 31.4533 145.307 32.328C145.083 33.2027 144.688 33.864 144.123 34.312C143.558 34.76 142.774 34.984 141.771 34.984C140.63 34.984 139.75 34.6853 139.131 34.088C138.512 33.4907 138.166 32.7387 138.091 31.832H139.771ZM141.803 29.112C142.443 29.112 142.944 28.9147 143.307 28.52C143.68 28.1147 143.867 27.5813 143.867 26.92C143.867 26.184 143.67 25.6133 143.275 25.208C142.891 24.792 142.363 24.584 141.691 24.584C141.019 24.584 140.486 24.7973 140.091 25.224C139.707 25.64 139.515 26.1893 139.515 26.872C139.515 27.5227 139.702 28.0613 140.075 28.488C140.459 28.904 141.035 29.112 141.803 29.112Z" fill="white"/>
<path d="M181.201 26.216C181.265 25.224 181.644 24.4507 182.337 23.896C183.041 23.3413 183.937 23.064 185.025 23.064C185.772 23.064 186.417 23.1973 186.961 23.464C187.505 23.7307 187.916 24.0933 188.193 24.552C188.471 25.0107 188.609 25.528 188.609 26.104C188.609 26.7653 188.433 27.3307 188.081 27.8C187.729 28.2693 187.308 28.584 186.817 28.744V28.808C187.447 29 187.937 29.352 188.289 29.864C188.641 30.3653 188.817 31.0107 188.817 31.8C188.817 32.4293 188.673 32.9893 188.385 33.48C188.097 33.9707 187.671 34.36 187.105 34.648C186.54 34.9253 185.863 35.064 185.073 35.064C183.921 35.064 182.972 34.7707 182.225 34.184C181.489 33.5867 181.095 32.7333 181.041 31.624H182.801C182.844 32.1893 183.063 32.6533 183.457 33.016C183.852 33.368 184.385 33.544 185.057 33.544C185.708 33.544 186.209 33.368 186.561 33.016C186.913 32.6533 187.089 32.1893 187.089 31.624C187.089 30.8773 186.849 30.3493 186.369 30.04C185.9 29.72 185.175 29.56 184.193 29.56H183.777V28.056H184.209C185.073 28.0453 185.729 27.9013 186.177 27.624C186.636 27.3467 186.865 26.9093 186.865 26.312C186.865 25.8 186.7 25.3947 186.369 25.096C186.039 24.7867 185.569 24.632 184.961 24.632C184.364 24.632 183.9 24.7867 183.569 25.096C183.239 25.3947 183.041 25.768 182.977 26.216H181.201ZM198.125 24.744L193.677 35H191.837L196.333 24.936H190.413V23.384H198.125V24.744Z" fill="white"/>
<path d="M230.076 26.216C230.14 25.224 230.519 24.4507 231.212 23.896C231.916 23.3413 232.812 23.064 233.9 23.064C234.647 23.064 235.292 23.1973 235.836 23.464C236.38 23.7307 236.791 24.0933 237.068 24.552C237.346 25.0107 237.484 25.528 237.484 26.104C237.484 26.7653 237.308 27.3307 236.956 27.8C236.604 28.2693 236.183 28.584 235.692 28.744V28.808C236.322 29 236.812 29.352 237.164 29.864C237.516 30.3653 237.692 31.0107 237.692 31.8C237.692 32.4293 237.548 32.9893 237.26 33.48C236.972 33.9707 236.546 34.36 235.98 34.648C235.415 34.9253 234.738 35.064 233.948 35.064C232.796 35.064 231.847 34.7707 231.1 34.184C230.364 33.5867 229.97 32.7333 229.916 31.624H231.676C231.719 32.1893 231.938 32.6533 232.332 33.016C232.727 33.368 233.26 33.544 233.932 33.544C234.583 33.544 235.084 33.368 235.436 33.016C235.788 32.6533 235.964 32.1893 235.964 31.624C235.964 30.8773 235.724 30.3493 235.244 30.04C234.775 29.72 234.05 29.56 233.068 29.56H232.652V28.056H233.084C233.948 28.0453 234.604 27.9013 235.052 27.624C235.511 27.3467 235.74 26.9093 235.74 26.312C235.74 25.8 235.575 25.3947 235.244 25.096C234.914 24.7867 234.444 24.632 233.836 24.632C233.239 24.632 232.775 24.7867 232.444 25.096C232.114 25.3947 231.916 25.768 231.852 26.216H230.076ZM241.576 28.904C240.467 28.3493 239.912 27.4747 239.912 26.28C239.912 25.704 240.056 25.176 240.344 24.696C240.632 24.216 241.064 23.8373 241.64 23.56C242.216 23.272 242.92 23.128 243.752 23.128C244.574 23.128 245.272 23.272 245.848 23.56C246.435 23.8373 246.872 24.216 247.16 24.696C247.448 25.176 247.592 25.704 247.592 26.28C247.592 26.8773 247.438 27.4053 247.128 27.864C246.83 28.312 246.43 28.6587 245.928 28.904C246.536 29.128 247.016 29.496 247.368 30.008C247.72 30.5093 247.896 31.1013 247.896 31.784C247.896 32.4773 247.72 33.0907 247.368 33.624C247.016 34.1573 246.526 34.568 245.896 34.856C245.267 35.144 244.552 35.288 243.752 35.288C242.952 35.288 242.238 35.144 241.608 34.856C240.99 34.568 240.504 34.1573 240.152 33.624C239.8 33.0907 239.624 32.4773 239.624 31.784C239.624 31.0907 239.8 30.4933 240.152 29.992C240.504 29.4907 240.979 29.128 241.576 28.904ZM245.848 26.504C245.848 25.9067 245.662 25.448 245.288 25.128C244.915 24.808 244.403 24.648 243.752 24.648C243.112 24.648 242.606 24.808 242.232 25.128C241.859 25.448 241.672 25.912 241.672 26.52C241.672 27.0533 241.864 27.4907 242.248 27.832C242.643 28.1627 243.144 28.328 243.752 28.328C244.36 28.328 244.862 28.1573 245.256 27.816C245.651 27.4747 245.848 27.0373 245.848 26.504ZM243.752 29.704C243.048 29.704 242.472 29.88 242.024 30.232C241.587 30.5733 241.368 31.0693 241.368 31.72C241.368 32.328 241.582 32.824 242.008 33.208C242.435 33.5813 243.016 33.768 243.752 33.768C244.478 33.768 245.048 33.576 245.464 33.192C245.891 32.808 246.104 32.3173 246.104 31.72C246.104 31.08 245.886 30.584 245.448 30.232C245.022 29.88 244.456 29.704 243.752 29.704Z" fill="white"/>
<path d="M279.759 32.568V31.192L285.135 23.48H287.343V30.984H288.831V32.568H287.343V35H285.551V32.568H279.759ZM285.631 25.336L281.855 30.984H285.631V25.336ZM290.103 25V23.336H293.431V35H291.591V25H290.103Z" fill="white"/>
<circle cx="33.5" cy="79.5" r="10.5" fill="#1AD7B5"/>
<circle cx="189.5" cy="79.5" r="10.5" fill="#1AD7B5"/>
<circle cx="85.5" cy="79.5" r="10.5" fill="#1AD7B5"/>
<circle cx="239.5" cy="79.5" r="10.5" fill="#1AD7B5"/>
<circle cx="137.5" cy="79.5" r="10.5" fill="#1AD7B5"/>
<circle cx="287.5" cy="79.5" r="10.5" fill="#1AD7B5"/>
<path d="M37.4838 75L31.791 80.648L29.6899 78.5635L28 80.2401L30.1011 82.3246L31.791 84L39.1724 76.6766L37.4838 75Z" fill="white"/>
<path d="M193.484 75L187.791 80.648L185.69 78.5635L184 80.2401L186.101 82.3246L187.791 84L195.172 76.6766L193.484 75Z" fill="white"/>
<path d="M89.4838 75L83.791 80.648L81.6899 78.5635L80 80.2401L82.1011 82.3246L83.791 84L91.1724 76.6766L89.4838 75Z" fill="white"/>
<path d="M243.484 75L237.791 80.648L235.69 78.5635L234 80.2401L236.101 82.3246L237.791 84L245.172 76.6766L243.484 75Z" fill="white"/>
<path d="M141.484 75L135.791 80.648L133.69 78.5635L132 80.2401L134.101 82.3246L135.791 84L143.172 76.6766L141.484 75Z" fill="white"/>
<path d="M291.484 75L285.791 80.648L283.69 78.5635L282 80.2401L284.101 82.3246L285.791 84L293.172 76.6766L291.484 75Z" fill="white"/>
</svg>
