<svg width="321" height="118" viewBox="0 0 321 118" fill="none" xmlns="http://www.w3.org/2000/svg">
<path d="M67.7962 106.6C68.4062 106.73 68.8962 107.035 69.2662 107.515C69.6362 107.985 69.8212 108.525 69.8212 109.135C69.8212 110.015 69.5112 110.715 68.8912 111.235C68.2812 111.745 67.4262 112 66.3262 112H61.4212V101.47H66.1612C67.2312 101.47 68.0662 101.715 68.6662 102.205C69.2762 102.695 69.5812 103.36 69.5812 104.2C69.5812 104.82 69.4162 105.335 69.0862 105.745C68.7662 106.155 68.3362 106.44 67.7962 106.6ZM63.9862 105.73H65.6662C66.0862 105.73 66.4062 105.64 66.6262 105.46C66.8562 105.27 66.9712 104.995 66.9712 104.635C66.9712 104.275 66.8562 104 66.6262 103.81C66.4062 103.62 66.0862 103.525 65.6662 103.525H63.9862V105.73ZM65.8762 109.93C66.3062 109.93 66.6362 109.835 66.8662 109.645C67.1062 109.445 67.2262 109.16 67.2262 108.79C67.2262 108.42 67.1012 108.13 66.8512 107.92C66.6112 107.71 66.2762 107.605 65.8462 107.605H63.9862V109.93H65.8762ZM75.1189 112.12C74.2989 112.12 73.5589 111.945 72.8989 111.595C72.2489 111.245 71.7339 110.745 71.3539 110.095C70.9839 109.445 70.7989 108.685 70.7989 107.815C70.7989 106.955 70.9889 106.2 71.3689 105.55C71.7489 104.89 72.2689 104.385 72.9289 104.035C73.5889 103.685 74.3289 103.51 75.1489 103.51C75.9689 103.51 76.7089 103.685 77.3689 104.035C78.0289 104.385 78.5489 104.89 78.9289 105.55C79.3089 106.2 79.4989 106.955 79.4989 107.815C79.4989 108.675 79.3039 109.435 78.9139 110.095C78.5339 110.745 78.0089 111.245 77.3389 111.595C76.6789 111.945 75.9389 112.12 75.1189 112.12ZM75.1189 109.9C75.6089 109.9 76.0239 109.72 76.3639 109.36C76.7139 109 76.8889 108.485 76.8889 107.815C76.8889 107.145 76.7189 106.63 76.3789 106.27C76.0489 105.91 75.6389 105.73 75.1489 105.73C74.6489 105.73 74.2339 105.91 73.9039 106.27C73.5739 106.62 73.4089 107.135 73.4089 107.815C73.4089 108.485 73.5689 109 73.8889 109.36C74.2189 109.72 74.6289 109.9 75.1189 109.9ZM85.9597 103.54C86.9397 103.54 87.7197 103.86 88.2997 104.5C88.8897 105.13 89.1847 106 89.1847 107.11V112H86.6347V107.455C86.6347 106.895 86.4897 106.46 86.1997 106.15C85.9097 105.84 85.5197 105.685 85.0297 105.685C84.5397 105.685 84.1497 105.84 83.8597 106.15C83.5697 106.46 83.4247 106.895 83.4247 107.455V112H80.8597V103.63H83.4247V104.74C83.6847 104.37 84.0347 104.08 84.4747 103.87C84.9147 103.65 85.4097 103.54 85.9597 103.54ZM99.2321 103.63V112H96.6671V110.86C96.4071 111.23 96.0521 111.53 95.6021 111.76C95.1621 111.98 94.6721 112.09 94.1321 112.09C93.4921 112.09 92.9271 111.95 92.4371 111.67C91.9471 111.38 91.5671 110.965 91.2971 110.425C91.0271 109.885 90.8921 109.25 90.8921 108.52V103.63H93.4421V108.175C93.4421 108.735 93.5871 109.17 93.8771 109.48C94.1671 109.79 94.5571 109.945 95.0471 109.945C95.5471 109.945 95.9421 109.79 96.2321 109.48C96.5221 109.17 96.6671 108.735 96.6671 108.175V103.63H99.2321ZM104.48 112.12C103.75 112.12 103.1 111.995 102.53 111.745C101.96 111.495 101.51 111.155 101.18 110.725C100.85 110.285 100.665 109.795 100.625 109.255H103.16C103.19 109.545 103.325 109.78 103.565 109.96C103.805 110.14 104.1 110.23 104.45 110.23C104.77 110.23 105.015 110.17 105.185 110.05C105.365 109.92 105.455 109.755 105.455 109.555C105.455 109.315 105.33 109.14 105.08 109.03C104.83 108.91 104.425 108.78 103.865 108.64C103.265 108.5 102.765 108.355 102.365 108.205C101.965 108.045 101.62 107.8 101.33 107.47C101.04 107.13 100.895 106.675 100.895 106.105C100.895 105.625 101.025 105.19 101.285 104.8C101.555 104.4 101.945 104.085 102.455 103.855C102.975 103.625 103.59 103.51 104.3 103.51C105.35 103.51 106.175 103.77 106.775 104.29C107.385 104.81 107.735 105.5 107.825 106.36H105.455C105.415 106.07 105.285 105.84 105.065 105.67C104.855 105.5 104.575 105.415 104.225 105.415C103.925 105.415 103.695 105.475 103.535 105.595C103.375 105.705 103.295 105.86 103.295 106.06C103.295 106.3 103.42 106.48 103.67 106.6C103.93 106.72 104.33 106.84 104.87 106.96C105.49 107.12 105.995 107.28 106.385 107.44C106.775 107.59 107.115 107.84 107.405 108.19C107.705 108.53 107.86 108.99 107.87 109.57C107.87 110.06 107.73 110.5 107.45 110.89C107.18 111.27 106.785 111.57 106.265 111.79C105.755 112.01 105.16 112.12 104.48 112.12Z" fill="#232323"/>
<rect x="0.5" y="0.5" width="320" height="57" rx="28.5" fill="#EEEEEE" stroke="#F0F0F0"/>
<circle cx="33.3873" cy="29.3873" r="18.3873" fill="#0012B0"/>
<circle cx="137.387" cy="29.3873" r="18.3873" fill="#0012B0"/>
<circle cx="239.387" cy="29.3873" r="18.3873" fill="#7D8890"/>
<circle cx="85.3873" cy="29.3873" r="18.3873" fill="#FF003A"/>
<circle cx="189.387" cy="29.3873" r="18.3873" fill="#0012B0"/>
<circle cx="287.387" cy="29.3873" r="18.3873" fill="#7D8890"/>
<path d="M31.6539 31.832C31.7605 32.3653 31.9899 32.7707 32.3419 33.048C32.6939 33.3253 33.1685 33.464 33.7659 33.464C34.5232 33.464 35.0779 33.1653 35.4299 32.568C35.7819 31.9707 35.9579 30.952 35.9579 29.512C35.7019 29.8747 35.3392 30.1573 34.8699 30.36C34.4112 30.552 33.9099 30.648 33.3659 30.648C32.6725 30.648 32.0432 30.5093 31.4779 30.232C30.9125 29.944 30.4645 29.5227 30.1339 28.968C29.8139 28.4027 29.6539 27.72 29.6539 26.92C29.6539 25.7467 29.9952 24.8133 30.6779 24.12C31.3712 23.416 32.3205 23.064 33.5259 23.064C34.9765 23.064 36.0059 23.5493 36.6139 24.52C37.2325 25.48 37.5419 26.9573 37.5419 28.952C37.5419 30.328 37.4245 31.4533 37.1899 32.328C36.9659 33.2027 36.5712 33.864 36.0059 34.312C35.4405 34.76 34.6565 34.984 33.6539 34.984C32.5125 34.984 31.6325 34.6853 31.0139 34.088C30.3952 33.4907 30.0485 32.7387 29.9739 31.832H31.6539ZM33.6859 29.112C34.3259 29.112 34.8272 28.9147 35.1899 28.52C35.5632 28.1147 35.7499 27.5813 35.7499 26.92C35.7499 26.184 35.5525 25.6133 35.1579 25.208C34.7739 24.792 34.2459 24.584 33.5739 24.584C32.9019 24.584 32.3685 24.7973 31.9739 25.224C31.5899 25.64 31.3979 26.1893 31.3979 26.872C31.3979 27.5227 31.5845 28.0613 31.9579 28.488C32.3419 28.904 32.9179 29.112 33.6859 29.112Z" fill="white"/>
<path d="M77.8138 25V23.336H81.1418V35H79.3018V25H77.8138ZM91.1675 24.904H85.8075V28.088C86.0315 27.7893 86.3622 27.5387 86.7995 27.336C87.2475 27.1333 87.7222 27.032 88.2235 27.032C89.1195 27.032 89.8448 27.224 90.3995 27.608C90.9648 27.992 91.3648 28.4773 91.5995 29.064C91.8448 29.6507 91.9675 30.2693 91.9675 30.92C91.9675 31.7093 91.8128 32.4133 91.5035 33.032C91.2048 33.64 90.7515 34.12 90.1435 34.472C89.5462 34.824 88.8102 35 87.9355 35C86.7728 35 85.8395 34.712 85.1355 34.136C84.4315 33.56 84.0102 32.7973 83.8715 31.848H85.6475C85.7648 32.3493 86.0262 32.7493 86.4315 33.048C86.8368 33.336 87.3435 33.48 87.9515 33.48C88.7088 33.48 89.2742 33.2507 89.6475 32.792C90.0315 32.3333 90.2235 31.7253 90.2235 30.968C90.2235 30.2 90.0315 29.6133 89.6475 29.208C89.2635 28.792 88.6982 28.584 87.9515 28.584C87.4288 28.584 86.9862 28.7173 86.6235 28.984C86.2715 29.24 86.0155 29.592 85.8555 30.04H84.1275V23.304H91.1675V24.904Z" fill="white"/>
<path d="M129.273 32.52C130.297 31.6347 131.102 30.9093 131.689 30.344C132.286 29.768 132.782 29.1707 133.177 28.552C133.571 27.9333 133.769 27.3147 133.769 26.696C133.769 26.056 133.614 25.5547 133.305 25.192C133.006 24.8293 132.531 24.648 131.881 24.648C131.251 24.648 130.761 24.8507 130.409 25.256C130.067 25.6507 129.886 26.184 129.865 26.856H128.105C128.137 25.64 128.499 24.712 129.193 24.072C129.897 23.4213 130.787 23.096 131.865 23.096C133.027 23.096 133.934 23.416 134.585 24.056C135.246 24.696 135.577 25.5493 135.577 26.616C135.577 27.384 135.379 28.1253 134.985 28.84C134.601 29.544 134.137 30.1787 133.593 30.744C133.059 31.2987 132.377 31.944 131.545 32.68L130.825 33.32H135.897V34.84H128.121V33.512L129.273 32.52ZM139.771 31.832C139.878 32.3653 140.107 32.7707 140.459 33.048C140.811 33.3253 141.286 33.464 141.883 33.464C142.64 33.464 143.195 33.1653 143.547 32.568C143.899 31.9707 144.075 30.952 144.075 29.512C143.819 29.8747 143.456 30.1573 142.987 30.36C142.528 30.552 142.027 30.648 141.483 30.648C140.79 30.648 140.16 30.5093 139.595 30.232C139.03 29.944 138.582 29.5227 138.251 28.968C137.931 28.4027 137.771 27.72 137.771 26.92C137.771 25.7467 138.112 24.8133 138.795 24.12C139.488 23.416 140.438 23.064 141.643 23.064C143.094 23.064 144.123 23.5493 144.731 24.52C145.35 25.48 145.659 26.9573 145.659 28.952C145.659 30.328 145.542 31.4533 145.307 32.328C145.083 33.2027 144.688 33.864 144.123 34.312C143.558 34.76 142.774 34.984 141.771 34.984C140.63 34.984 139.75 34.6853 139.131 34.088C138.512 33.4907 138.166 32.7387 138.091 31.832H139.771ZM141.803 29.112C142.443 29.112 142.944 28.9147 143.307 28.52C143.68 28.1147 143.867 27.5813 143.867 26.92C143.867 26.184 143.67 25.6133 143.275 25.208C142.891 24.792 142.363 24.584 141.691 24.584C141.019 24.584 140.486 24.7973 140.091 25.224C139.707 25.64 139.515 26.1893 139.515 26.872C139.515 27.5227 139.702 28.0613 140.075 28.488C140.459 28.904 141.035 29.112 141.803 29.112Z" fill="white"/>
<path d="M181.201 26.216C181.265 25.224 181.644 24.4507 182.337 23.896C183.041 23.3413 183.937 23.064 185.025 23.064C185.772 23.064 186.417 23.1973 186.961 23.464C187.505 23.7307 187.916 24.0933 188.193 24.552C188.471 25.0107 188.609 25.528 188.609 26.104C188.609 26.7653 188.433 27.3307 188.081 27.8C187.729 28.2693 187.308 28.584 186.817 28.744V28.808C187.447 29 187.937 29.352 188.289 29.864C188.641 30.3653 188.817 31.0107 188.817 31.8C188.817 32.4293 188.673 32.9893 188.385 33.48C188.097 33.9707 187.671 34.36 187.105 34.648C186.54 34.9253 185.863 35.064 185.073 35.064C183.921 35.064 182.972 34.7707 182.225 34.184C181.489 33.5867 181.095 32.7333 181.041 31.624H182.801C182.844 32.1893 183.063 32.6533 183.457 33.016C183.852 33.368 184.385 33.544 185.057 33.544C185.708 33.544 186.209 33.368 186.561 33.016C186.913 32.6533 187.089 32.1893 187.089 31.624C187.089 30.8773 186.849 30.3493 186.369 30.04C185.9 29.72 185.175 29.56 184.193 29.56H183.777V28.056H184.209C185.073 28.0453 185.729 27.9013 186.177 27.624C186.636 27.3467 186.865 26.9093 186.865 26.312C186.865 25.8 186.7 25.3947 186.369 25.096C186.039 24.7867 185.569 24.632 184.961 24.632C184.364 24.632 183.9 24.7867 183.569 25.096C183.239 25.3947 183.041 25.768 182.977 26.216H181.201ZM198.125 24.744L193.677 35H191.837L196.333 24.936H190.413V23.384H198.125V24.744Z" fill="white"/>
<path d="M230.1 26.216C230.164 25.224 230.543 24.4507 231.236 23.896C231.94 23.3413 232.836 23.064 233.924 23.064C234.671 23.064 235.316 23.1973 235.86 23.464C236.404 23.7307 236.815 24.0933 237.092 24.552C237.369 25.0107 237.508 25.528 237.508 26.104C237.508 26.7653 237.332 27.3307 236.98 27.8C236.628 28.2693 236.207 28.584 235.716 28.744V28.808C236.345 29 236.836 29.352 237.188 29.864C237.54 30.3653 237.716 31.0107 237.716 31.8C237.716 32.4293 237.572 32.9893 237.284 33.48C236.996 33.9707 236.569 34.36 236.004 34.648C235.439 34.9253 234.761 35.064 233.972 35.064C232.82 35.064 231.871 34.7707 231.124 34.184C230.388 33.5867 229.993 32.7333 229.94 31.624H231.7C231.743 32.1893 231.961 32.6533 232.356 33.016C232.751 33.368 233.284 33.544 233.956 33.544C234.607 33.544 235.108 33.368 235.46 33.016C235.812 32.6533 235.988 32.1893 235.988 31.624C235.988 30.8773 235.748 30.3493 235.268 30.04C234.799 29.72 234.073 29.56 233.092 29.56H232.676V28.056H233.108C233.972 28.0453 234.628 27.9013 235.076 27.624C235.535 27.3467 235.764 26.9093 235.764 26.312C235.764 25.8 235.599 25.3947 235.268 25.096C234.937 24.7867 234.468 24.632 233.86 24.632C233.263 24.632 232.799 24.7867 232.468 25.096C232.137 25.3947 231.94 25.768 231.876 26.216H230.1ZM241.904 31.832C242.011 32.3653 242.24 32.7707 242.592 33.048C242.944 33.3253 243.419 33.464 244.016 33.464C244.773 33.464 245.328 33.1653 245.68 32.568C246.032 31.9707 246.208 30.952 246.208 29.512C245.952 29.8747 245.589 30.1573 245.12 30.36C244.661 30.552 244.16 30.648 243.616 30.648C242.923 30.648 242.293 30.5093 241.728 30.232C241.163 29.944 240.715 29.5227 240.384 28.968C240.064 28.4027 239.904 27.72 239.904 26.92C239.904 25.7467 240.245 24.8133 240.928 24.12C241.621 23.416 242.571 23.064 243.776 23.064C245.227 23.064 246.256 23.5493 246.864 24.52C247.483 25.48 247.792 26.9573 247.792 28.952C247.792 30.328 247.675 31.4533 247.44 32.328C247.216 33.2027 246.821 33.864 246.256 34.312C245.691 34.76 244.907 34.984 243.904 34.984C242.763 34.984 241.883 34.6853 241.264 34.088C240.645 33.4907 240.299 32.7387 240.224 31.832H241.904ZM243.936 29.112C244.576 29.112 245.077 28.9147 245.44 28.52C245.813 28.1147 246 27.5813 246 26.92C246 26.184 245.803 25.6133 245.408 25.208C245.024 24.792 244.496 24.584 243.824 24.584C243.152 24.584 242.619 24.7973 242.224 25.224C241.84 25.64 241.648 26.1893 241.648 26.872C241.648 27.5227 241.835 28.0613 242.208 28.488C242.592 28.904 243.168 29.112 243.936 29.112Z" fill="white"/>
<path d="M277.931 32.568V31.192L283.307 23.48H285.515V30.984H287.003V32.568H285.515V35H283.723V32.568H277.931ZM283.803 25.336L280.027 30.984H283.803V25.336ZM288.515 29.016C288.515 27.1707 288.824 25.7307 289.443 24.696C290.072 23.6507 291.149 23.128 292.675 23.128C294.2 23.128 295.272 23.6507 295.891 24.696C296.52 25.7307 296.835 27.1707 296.835 29.016C296.835 30.8827 296.52 32.344 295.891 33.4C295.272 34.4453 294.2 34.968 292.675 34.968C291.149 34.968 290.072 34.4453 289.443 33.4C288.824 32.344 288.515 30.8827 288.515 29.016ZM295.043 29.016C295.043 28.152 294.984 27.4213 294.867 26.824C294.76 26.2267 294.536 25.7413 294.195 25.368C293.853 24.984 293.347 24.792 292.675 24.792C292.003 24.792 291.496 24.984 291.155 25.368C290.813 25.7413 290.584 26.2267 290.467 26.824C290.36 27.4213 290.307 28.152 290.307 29.016C290.307 29.912 290.36 30.664 290.467 31.272C290.573 31.88 290.797 32.3707 291.139 32.744C291.491 33.1173 292.003 33.304 292.675 33.304C293.347 33.304 293.853 33.1173 294.195 32.744C294.547 32.3707 294.776 31.88 294.883 31.272C294.989 30.664 295.043 29.912 295.043 29.016Z" fill="white"/>
<circle cx="33.5" cy="79.5" r="10.5" fill="#1AD7B5"/>
<circle cx="189.5" cy="79.5" r="10.5" fill="#1AD7B5"/>
<circle cx="85.5" cy="79.5" r="10.5" fill="#FF003A"/>
<circle cx="137.5" cy="79.5" r="10.5" fill="#1AD7B5"/>
<path d="M37.4838 75L31.791 80.648L29.6899 78.5635L28 80.2401L30.1011 82.3246L31.791 84L39.1724 76.6766L37.4838 75Z" fill="white"/>
<path d="M193.484 75L187.791 80.648L185.69 78.5635L184 80.2401L186.101 82.3246L187.791 84L195.172 76.6766L193.484 75Z" fill="white"/>
<path d="M89.4838 75L83.791 80.648L81.6899 78.5635L80 80.2401L82.1011 82.3246L83.791 84L91.1724 76.6766L89.4838 75Z" fill="white"/>
<path d="M141.484 75L135.791 80.648L133.69 78.5635L132 80.2401L134.101 82.3246L135.791 84L143.172 76.6766L141.484 75Z" fill="white"/>
</svg>
