<svg width="101" height="101" viewBox="0 0 101 101" fill="none" xmlns="http://www.w3.org/2000/svg">
<circle cx="50.3628" cy="50.7866" r="47.5" fill="#000079" stroke="url(#paint0_linear_1145_2179)" stroke-width="5"/>
<path d="M83.5332 66.3412L81.6584 63.5711L79.8542 64.3234L81.6797 67.8347L83.5332 66.3412Z" fill="#B0B0E2"/>
<path d="M84.0053 66.1278L82.1305 63.3577L80.3264 64.11L82.1519 67.6213L84.0053 66.1278Z" fill="#0000B2"/>
<path d="M67.0988 61.6915L64.2192 59.9897L62.9103 61.4415L66.0624 63.8343L67.0988 61.6915Z" fill="#B0B0E2"/>
<path d="M67.4348 61.2965L64.5552 59.5947L63.2463 61.0464L66.3984 63.4393L67.4348 61.2965Z" fill="#0000B2"/>
<path d="M84.3367 54.5087L82.8797 54.3621L82.6266 55.1795L84.3189 55.5506L84.3367 54.5087Z" fill="#B0B0E2"/>
<path d="M84.3972 54.2899L82.9402 54.1433L82.6871 54.9608L84.3795 55.3318L84.3972 54.2899Z" fill="#AFC7FA"/>
<path d="M77.3001 47.704L80.754 48.825L80.6654 50.83L76.4897 49.9591L77.3001 47.704Z" fill="#B0B0E2"/>
<path d="M77.3397 47.1747L80.7935 48.2957L80.7049 50.3007L76.5292 49.4298L77.3397 47.1747Z" fill="#0000B2"/>
<path d="M70.0922 50.5658L73.6712 51.1794L73.8713 53.1764L69.6138 52.9138L70.0922 50.5658Z" fill="#B0B0E2"/>
<path d="M70.056 50.0362L73.635 50.6499L73.8351 52.6468L69.5777 52.3843L70.056 50.0362Z" fill="#0000B2"/>
<path d="M70.376 47.3399C70.4311 47.3729 70.4896 47.4012 70.5475 47.4278C70.7034 47.5006 70.8647 47.56 71.0286 47.6097C71.2679 47.682 71.5128 47.7319 71.7595 47.7584C72.0706 47.7922 72.3843 47.7886 72.6915 47.7489C73.0619 47.7007 73.4213 47.5997 73.7606 47.4552C73.8082 47.4352 73.8546 47.4142 73.9015 47.3924C73.9055 47.3905 73.5967 46.8372 73.5715 46.7928C73.547 46.7491 73.2408 46.194 73.2295 46.1991C72.8875 46.3585 72.5242 46.4752 72.1465 46.5369C71.8336 46.588 71.5134 46.6013 71.194 46.5753C70.9386 46.5546 70.6841 46.5092 70.4357 46.4398C70.2601 46.3905 70.0871 46.3299 69.92 46.2549C69.8705 46.2326 69.821 46.2091 69.7728 46.1841C69.7581 46.1764 69.7439 46.1691 69.7295 46.161C69.724 46.1581 69.7134 46.1492 69.7075 46.1486C69.7068 46.1486 69.7055 46.147 69.7048 46.1471C69.7127 46.165 69.722 46.1826 69.7315 46.1998C69.7538 46.2414 69.776 46.2829 69.7993 46.324C69.8773 46.4653 69.9556 46.6063 70.0353 46.747C70.1145 46.8875 70.1938 47.0279 70.2745 47.1682C70.2926 47.1989 70.3105 47.23 70.3283 47.2611C70.3421 47.2874 70.3583 47.3137 70.376 47.3399Z" fill="#B0B0E2"/>
<path d="M70.4565 46.8613C70.5116 46.8943 70.5702 46.9226 70.628 46.9492C70.7839 47.022 70.9452 47.0814 71.1091 47.1312C71.3484 47.2034 71.5933 47.2533 71.8401 47.2798C72.1512 47.3136 72.4649 47.31 72.772 47.2704C73.1424 47.2221 73.5019 47.1212 73.8412 46.9767C73.8888 46.9566 73.9352 46.9356 73.9821 46.9138C73.9861 46.9119 73.6773 46.3586 73.652 46.3143C73.6276 46.2705 73.3214 45.7155 73.3101 45.7205C72.9681 45.8799 72.6047 45.9966 72.2271 46.0583C71.9141 46.1094 71.594 46.1227 71.2746 46.0968C71.0192 46.076 70.7647 46.0306 70.5163 45.9613C70.3406 45.912 70.1676 45.8513 70.0006 45.7763C69.951 45.754 69.9016 45.7306 69.8533 45.7056C69.8387 45.6979 69.8244 45.6905 69.8101 45.6824C69.8045 45.6796 69.7939 45.6706 69.7881 45.67C69.7874 45.6701 69.786 45.6685 69.7853 45.6686C69.7932 45.6864 69.8025 45.704 69.8121 45.7213C69.8343 45.7628 69.8566 45.8044 69.8798 45.8454C69.9578 45.9868 70.0361 46.1277 70.1158 46.2684C70.1951 46.4089 70.2744 46.5493 70.3551 46.6896C70.3732 46.7203 70.391 46.7514 70.4089 46.7825C70.4226 46.8088 70.4389 46.8352 70.4565 46.8613Z" fill="#F73131"/>
<rect width="3.75519" height="0.629557" transform="matrix(0.852883 0.522103 -0.565287 0.824894 68.4165 56.0587)" fill="#A7A6E5"/>
<rect width="3.75519" height="0.629557" transform="matrix(0.852883 0.522103 -0.565287 0.824894 68.6631 55.7981)" fill="#FF0009"/>
<path d="M85.4882 57.2941C85.3032 59.17 86.5251 61.028 88.2957 61.5637C88.2179 61.5402 87.981 61.5738 87.9255 61.5751C87.6272 61.5801 87.329 61.5827 87.0313 61.5839C86.7333 61.5858 86.4347 61.5875 86.1374 61.5856C86.0262 61.5848 85.8727 61.6109 85.7671 61.579C83.9955 61.0437 82.7739 59.185 82.9596 57.3093C82.9625 57.2771 84.1276 57.2892 84.2243 57.2884C84.3167 57.2884 85.4881 57.3005 85.4882 57.2941Z" fill="#B0B0E2"/>
<path d="M85.8725 56.7682C85.6875 58.6442 86.9094 60.5022 88.6799 61.0379C88.6022 61.0144 88.3653 61.048 88.3098 61.0493C88.0115 61.0543 87.7132 61.0569 87.4156 61.0581C87.1176 61.06 86.819 61.0616 86.5217 61.0597C86.4104 61.059 86.2569 61.085 86.1513 61.0532C84.3798 60.5179 83.1582 58.6592 83.3439 56.7835C83.3468 56.7513 84.5118 56.7634 84.6086 56.7626C84.701 56.7626 85.8724 56.7747 85.8725 56.7682Z" fill="#AFC7FA"/>
<path d="M75.4425 58.0848C75.7213 58.2588 76.0446 58.3767 76.3568 58.4726C77.1191 58.707 77.9308 58.7726 78.7211 58.6669C79.3319 58.5853 79.925 58.4021 80.4832 58.1422C80.4976 58.1357 80.4922 57.8233 80.4919 57.8577C80.4957 57.6288 80.4976 57.3998 80.499 57.1709C80.5004 56.9421 80.5015 56.713 80.5003 56.4845C80.4999 56.4339 80.4995 56.3833 80.4994 56.3328C80.4996 56.2883 80.4981 56.2442 80.4947 56.2002C79.5793 56.6268 78.5712 56.836 77.5615 56.7571C76.9422 56.7088 76.3246 56.5588 75.7589 56.2999C75.6555 56.2525 75.5509 56.2029 75.4542 56.1425C75.461 56.1465 75.4449 56.4657 75.4455 56.4269C75.4417 56.6559 75.4398 56.8849 75.4384 57.1137C75.437 57.3426 75.4359 57.5717 75.4371 57.8002C75.4375 57.8508 75.438 57.9014 75.4381 57.9518C75.4375 57.9962 75.4388 58.0405 75.4425 58.0848Z" fill="#A7A6E5"/>
<path d="M75.3478 57.4783C75.6265 57.6523 75.9499 57.7702 76.2621 57.8661C77.0243 58.1005 77.836 58.1661 78.6264 58.0604C79.2372 57.9788 79.8303 57.7956 80.3885 57.5357C80.4029 57.5291 80.3974 57.2168 80.3972 57.2512C80.401 57.0223 80.4029 56.7933 80.4043 56.5644C80.4057 56.3356 80.4068 56.1065 80.4056 55.878C80.4052 55.8274 80.4047 55.7767 80.4046 55.7263C80.4049 55.6817 80.4033 55.6377 80.3999 55.5937C79.4846 56.0203 78.4764 56.2295 77.4668 56.1505C76.8475 56.1022 76.2299 55.9523 75.6642 55.6934C75.5608 55.646 75.4562 55.5964 75.3595 55.536C75.3663 55.54 75.3502 55.8592 75.3508 55.8204C75.347 56.0494 75.3451 56.2783 75.3437 56.5072C75.3423 56.7361 75.3412 56.9652 75.3424 57.1936C75.3428 57.2443 75.3432 57.2949 75.3434 57.3453C75.3428 57.3897 75.3441 57.434 75.3478 57.4783Z" fill="#4B5DE2"/>
<path d="M76.0222 63.044C75.798 62.8038 75.5162 62.6062 75.2395 62.4328C74.5639 62.0091 73.7968 61.7357 73.006 61.6332C72.3949 61.5539 71.7746 61.5774 71.1682 61.684C71.1525 61.6866 71.077 61.9897 71.0861 61.9565C71.0232 62.1767 70.9621 62.3973 70.9015 62.618C70.8409 62.8388 70.7806 63.0598 70.7226 63.2807C70.7099 63.3298 70.6972 63.3788 70.6843 63.4275C70.6725 63.4705 70.6626 63.5135 70.6545 63.5569C71.649 63.3817 72.677 63.4405 73.6318 63.7781C74.2175 63.9851 74.7752 64.2897 75.2546 64.6862C75.3423 64.7588 75.4305 64.8337 75.5082 64.9171C75.5027 64.9115 75.6009 64.6074 75.5903 64.6447C75.6532 64.4245 75.7143 64.2038 75.7749 63.9831C75.8355 63.7624 75.8958 63.5414 75.9538 63.3204C75.9665 63.2714 75.9792 63.2224 75.9921 63.1736C76.0041 63.1309 76.0143 63.0877 76.0222 63.044Z" fill="#A7A6E5"/>
<path d="M76.1873 62.6272C75.9631 62.387 75.6812 62.1894 75.4045 62.016C74.7289 61.5923 73.9618 61.3189 73.1711 61.2164C72.56 61.1371 71.9397 61.1606 71.3332 61.2672C71.3176 61.2697 71.242 61.5729 71.2512 61.5397C71.1882 61.7599 71.1271 61.9805 71.0665 62.2012C71.0059 62.4219 70.9456 62.6429 70.8876 62.8639C70.8749 62.913 70.8622 62.962 70.8493 63.0107C70.8375 63.0537 70.8276 63.0966 70.8195 63.14C71.814 62.9649 72.842 63.0237 73.7968 63.3613C74.3825 63.5682 74.9402 63.8729 75.4197 64.2694C75.5073 64.342 75.5955 64.4169 75.6732 64.5003C75.6678 64.4947 75.7659 64.1905 75.7553 64.2278C75.8182 64.0076 75.8793 63.787 75.9399 63.5663C76.0005 63.3456 76.0609 63.1246 76.1188 62.9036C76.1315 62.8546 76.1442 62.8056 76.1571 62.7568C76.1692 62.7141 76.1794 62.6709 76.1873 62.6272Z" fill="#FF0009"/>
<path d="M13.2965 52.8459L16.4128 54.109L17.4979 52.4709L14.0079 50.5613L13.2965 52.8459Z" fill="#B0B0E2"/>
<path d="M13.0221 53.2886L16.1384 54.5517L17.2235 52.9136L13.7335 51.0039L13.0221 53.2886Z" fill="#0000B2"/>
<path d="M29.6208 47.5269L32.9779 47.3356L33.2579 45.3907L29.2864 45.1576L29.6208 47.5269Z" fill="#B0B0E2"/>
<path d="M29.5617 48.0446L32.9188 47.8532L33.1988 45.9083L29.2274 45.6753L29.5617 48.0446Z" fill="#0000B2"/>
<path d="M19.2502 63.1751L20.5487 62.4818L20.3024 61.6576L18.6816 62.2953L19.2502 63.1751Z" fill="#B0B0E2"/>
<path d="M19.3219 63.3917L20.6205 62.6984L20.3741 61.8742L18.7534 62.5118L19.3219 63.3917Z" fill="#AFC7FA"/>
<path d="M28.9353 64.9165L25.4239 65.9143L24.3754 64.1907L28.3493 62.58L28.9353 64.9165Z" fill="#B0B0E2"/>
<path d="M29.1984 65.3808L25.6871 66.3786L24.6386 64.655L28.6125 63.0442L29.1984 65.3808Z" fill="#0000B2"/>
<path d="M33.351 58.4921L30.0193 59.9835L28.7342 58.4282L32.4358 56.2638L33.351 58.4921Z" fill="#B0B0E2"/>
<path d="M33.6777 58.9139L30.3459 60.4053L29.0608 58.8501L32.7625 56.6856L33.6777 58.9139Z" fill="#0000B2"/>
<path d="M34.9199 61.3441C34.8554 61.3474 34.7907 61.3566 34.7275 61.3668C34.5565 61.3932 34.3886 61.434 34.2239 61.4842C33.9837 61.5578 33.7513 61.6533 33.5304 61.7693C33.2517 61.9153 32.9918 62.0939 32.7576 62.299C32.4753 62.5467 32.2317 62.8322 32.0293 63.1428C32.0008 63.1862 31.9739 63.2297 31.9469 63.2742C31.9447 63.278 32.5122 63.5671 32.5582 63.59C32.6031 63.6128 33.1695 63.9048 33.1761 63.8943C33.3724 63.5697 33.6104 63.2688 33.8912 63.0058C34.1239 62.788 34.3837 62.5976 34.6649 62.4405C34.8898 62.3148 35.1277 62.2103 35.3739 62.1291C35.5481 62.0719 35.7266 62.0257 35.908 61.9947C35.9619 61.9856 36.0163 61.9775 36.0706 61.9714C36.0871 61.9696 36.1031 61.9678 36.1197 61.9665C36.1259 61.9658 36.1397 61.9673 36.145 61.9646C36.1455 61.9641 36.1475 61.9647 36.1481 61.9642C36.1315 61.9537 36.1139 61.9442 36.0962 61.9352C36.0544 61.913 36.0125 61.8907 35.9701 61.8694C35.8259 61.7951 35.6816 61.7213 35.5363 61.6484C35.3914 61.5755 35.2466 61.5026 35.1007 61.4307C35.0684 61.4152 35.0361 61.3992 35.0038 61.3832C34.9776 61.369 34.9493 61.3561 34.9199 61.3441Z" fill="#B0B0E2"/>
<path d="M35.1206 61.789C35.0561 61.7923 34.9914 61.8015 34.9282 61.8117C34.7572 61.8381 34.5893 61.8789 34.4246 61.9291C34.1843 62.0027 33.952 62.0982 33.7311 62.2142C33.4524 62.3602 33.1925 62.5388 32.9583 62.7439C32.676 62.9916 32.4324 63.2771 32.23 63.5877C32.2015 63.6311 32.1746 63.6746 32.1476 63.7191C32.1453 63.7229 32.7129 64.012 32.7588 64.0348C32.8037 64.0577 33.3702 64.3497 33.3768 64.3392C33.573 64.0146 33.8111 63.7137 34.0919 63.4507C34.3245 63.2329 34.5844 63.0425 34.8656 62.8854C35.0905 62.7597 35.3284 62.6552 35.5746 62.5739C35.7488 62.5168 35.9273 62.4706 36.1087 62.4396C36.1626 62.4305 36.217 62.4224 36.2713 62.4163C36.2878 62.4145 36.3038 62.4127 36.3204 62.4114C36.3266 62.4107 36.3404 62.4122 36.3457 62.4095C36.3462 62.409 36.3482 62.4096 36.3488 62.4091C36.3322 62.3986 36.3146 62.3891 36.2969 62.3801C36.2551 62.3578 36.2132 62.3356 36.1708 62.3143C36.0266 62.24 35.8823 62.1662 35.737 62.0933C35.5921 62.0204 35.4473 61.9475 35.3014 61.8756C35.2691 61.8601 35.2368 61.8441 35.2045 61.8281C35.1783 61.8139 35.1499 61.801 35.1206 61.789Z" fill="#F73131"/>
<rect width="3.77496" height="0.632872" transform="matrix(-0.999144 0.0413716 0.0100833 -0.999949 31.6748 52.9675)" fill="#A7A6E5"/>
<rect width="3.77496" height="0.632872" transform="matrix(-0.999144 0.0413716 0.0100833 -0.999949 31.6147 53.3234)" fill="#FF0009"/>
<path d="M16.7291 61.4945C15.8333 59.8246 13.7729 58.9574 11.9947 59.5014C12.0727 59.4776 12.2517 59.3168 12.2973 59.2847C12.5436 59.1135 12.7911 58.9443 13.039 58.7767C13.2867 58.6083 13.5351 58.4397 13.7844 58.2749C13.8777 58.2132 13.9913 58.1055 14.0973 58.073C15.8761 57.5281 17.9367 58.396 18.8318 60.066C18.8474 60.0946 17.8679 60.7367 17.7876 60.7915C17.7104 60.8433 16.7256 61.489 16.7291 61.4945Z" fill="#B0B0E2"/>
<path d="M16.7027 62.1483C15.8069 60.4784 13.7465 59.6112 11.9683 60.1552C12.0464 60.1314 12.2254 59.9706 12.2709 59.9385C12.5172 59.7673 12.7648 59.5981 13.0126 59.4305C13.2603 59.2621 13.5088 59.0935 13.758 58.9287C13.8513 58.867 13.9649 58.7593 14.0709 58.7268C15.8497 58.1819 17.9103 59.0498 18.8054 60.7198C18.821 60.7484 17.8415 61.3905 17.7612 61.4453C17.684 61.4971 16.6992 62.1428 16.7027 62.1483Z" fill="#AFC7FA"/>
<path d="M24.6738 55.2097C24.3437 55.2205 24.0077 55.3031 23.6933 55.3978C22.9256 55.6288 22.2112 56.0286 21.6105 56.5593C21.1462 56.9694 20.7536 57.4544 20.4331 57.9839C20.4247 57.9975 20.6041 58.2552 20.585 58.2263C20.7101 58.4196 20.8367 58.6118 20.9636 58.8037C21.0906 58.9956 21.2179 59.1875 21.3469 59.3775C21.3756 59.4196 21.4043 59.4616 21.4326 59.5036C21.4573 59.541 21.4833 59.5769 21.5108 59.6118C22.0362 58.7431 22.7608 58.004 23.648 57.5046C24.1921 57.1982 24.7917 56.9777 25.4089 56.8771C25.5218 56.8588 25.6369 56.8416 25.7515 56.8379C25.7436 56.8384 25.5783 56.5628 25.5995 56.5956C25.4745 56.4023 25.3479 56.21 25.2209 56.0182C25.0939 55.8263 24.9666 55.6344 24.8377 55.4443C24.809 55.4023 24.7803 55.3603 24.752 55.3182C24.7276 55.2809 24.7016 55.2446 24.6738 55.2097Z" fill="#A7A6E5"/>
<path d="M25.0922 55.6632C24.7621 55.674 24.4261 55.7566 24.1118 55.8512C23.3441 56.0823 22.6297 56.4821 22.0289 57.0127C21.5647 57.4229 21.1721 57.9079 20.8515 58.4374C20.8431 58.451 21.0226 58.7087 21.0035 58.6798C21.1285 58.8731 21.2551 59.0653 21.3821 59.2572C21.5091 59.4491 21.6364 59.641 21.7653 59.831C21.794 59.8731 21.8227 59.9151 21.851 59.9571C21.8758 59.9945 21.9017 60.0304 21.9292 60.0653C22.4546 59.1966 23.1792 58.4575 24.0664 57.9581C24.6105 57.6517 25.2101 57.4312 25.8274 57.3306C25.9403 57.3122 26.0554 57.2951 26.1699 57.2914C26.162 57.2919 25.9968 57.0163 26.018 57.0491C25.8929 56.8558 25.7663 56.6635 25.6394 56.4717C25.5124 56.2798 25.385 56.0879 25.2561 55.8978C25.2274 55.8558 25.1987 55.8137 25.1704 55.7717C25.146 55.7344 25.1201 55.6981 25.0922 55.6632Z" fill="#4B5DE2"/>
<path d="M21.4137 51.3936C21.7354 51.4687 22.0813 51.4759 22.4094 51.4658C23.2107 51.4413 24.0043 51.24 24.7219 50.8829C25.2765 50.6069 25.7813 50.2401 26.2279 49.8115C26.2395 49.8006 26.1329 49.5052 26.1439 49.5381C26.0731 49.319 26.0006 49.1006 25.9276 48.8824C25.8546 48.6642 25.7813 48.4459 25.706 48.2289C25.6891 48.1809 25.6723 48.1328 25.6558 48.0849C25.6415 48.0424 25.6258 48.001 25.6083 47.9602C24.876 48.6633 23.9847 49.1897 22.9985 49.4424C22.3936 49.5975 21.7574 49.6554 21.1351 49.5928C21.0213 49.5813 20.9057 49.5681 20.7942 49.542C20.8019 49.5436 20.8902 49.8525 20.8782 49.8154C20.9489 50.0345 21.0215 50.2529 21.0944 50.4711C21.1674 50.6893 21.2408 50.9076 21.3161 51.1246C21.3329 51.1726 21.3498 51.2207 21.3663 51.2686C21.3802 51.311 21.3958 51.3527 21.4137 51.3936Z" fill="#A7A6E5"/>
<path d="M21.5094 51.8341C21.8311 51.9091 22.177 51.9163 22.5051 51.9062C23.3064 51.8817 24.1 51.6805 24.8176 51.3233C25.3722 51.0474 25.877 50.6805 26.3236 50.252C26.3352 50.2411 26.2286 49.9456 26.2396 49.9785C26.1688 49.7594 26.0963 49.541 26.0233 49.3228C25.9503 49.1046 25.877 48.8863 25.8017 48.6693C25.7848 48.6213 25.768 48.5733 25.7515 48.5253C25.7372 48.4828 25.7215 48.4414 25.704 48.4006C24.9717 49.1037 24.0804 49.6301 23.0942 49.8828C22.4893 50.038 21.8531 50.0958 21.2308 50.0332C21.117 50.0217 21.0014 50.0085 20.8899 49.9824C20.8976 49.984 20.9859 50.2929 20.9739 50.2558C21.0446 50.4749 21.1172 50.6934 21.1901 50.9116C21.2631 51.1298 21.3365 51.3481 21.4118 51.565C21.4286 51.6131 21.4455 51.6611 21.462 51.709C21.4759 51.7514 21.4915 51.7932 21.5094 51.8341Z" fill="#FF0009"/>
<path d="M71.1446 49.8993C71.1446 49.8533 71.1446 49.8111 71.1446 49.7651C71.1446 38.8519 61.8402 30.0049 50.3628 30.0049C38.8855 30.0049 29.5811 38.8519 29.5811 49.7651C29.5811 49.8073 29.5811 49.8494 29.5811 49.8916V51.8082C29.5811 62.7214 38.8855 71.5684 50.3628 71.5684C61.8402 71.5684 71.1446 62.7214 71.1446 51.8082V49.8993Z" fill="#B96400"/>
<path fill-rule="evenodd" clip-rule="evenodd" d="M50.3628 65.3508C48.1496 65.3508 46.0008 64.9406 43.9851 64.128C42.034 63.3422 40.2803 62.219 38.7726 60.7854C37.2648 59.3518 36.0836 57.6844 35.2572 55.8291C34.4025 53.9086 33.9712 51.8694 33.9712 49.7649C33.9712 47.6605 34.4025 45.6174 35.2572 43.7008C36.0836 41.8455 37.2648 40.1781 38.7726 38.7444C40.2803 37.3108 42.034 36.1877 43.9851 35.4019C46.0049 34.5892 48.1496 34.1791 50.3628 34.1791C52.576 34.1791 54.7248 34.5892 56.7404 35.4019C58.6916 36.1877 60.4453 37.3108 61.953 38.7444C63.4608 40.1781 64.642 41.8455 65.4684 43.7008C66.323 45.6212 66.7544 47.6605 66.7544 49.7649C66.7544 51.8694 66.323 53.9125 65.4684 55.8291C64.642 57.6844 63.4608 59.3518 61.953 60.7854C60.4453 62.219 58.6916 63.3422 56.7404 64.128C54.7248 64.9406 52.5801 65.3508 50.3628 65.3508Z" fill="url(#paint1_linear_1145_2179)"/>
<path d="M50.363 34.9499C52.4674 34.9499 54.5073 35.3409 56.4262 36.1114C58.2807 36.8588 59.9497 37.9245 61.3808 39.2891C62.812 40.6499 63.9367 42.2368 64.7228 44.0001C65.5331 45.8247 65.9443 47.7643 65.9443 49.7653C65.9443 51.7662 65.5331 53.7058 64.7228 55.5304C63.9367 57.2937 62.816 58.8807 61.3808 60.2414C59.9497 61.6022 58.2807 62.6717 56.4262 63.4192C54.5073 64.1897 52.4674 64.5806 50.363 64.5806C48.2587 64.5806 46.2188 64.1897 44.2998 63.4192C42.4454 62.6717 40.7764 61.6061 39.3453 60.2414C37.9141 58.8807 36.7894 57.2937 36.0033 55.5304C35.1929 53.7058 34.7817 51.7662 34.7817 49.7653C34.7817 47.7643 35.1929 45.8247 36.0033 44.0001C36.7894 42.2368 37.9101 40.6499 39.3453 39.2891C40.7764 37.9283 42.4454 36.8588 44.2998 36.1114C46.2188 35.3409 48.2587 34.9499 50.363 34.9499ZM50.363 33.4089C48.041 33.4089 45.7874 33.8421 43.6669 34.6931C41.619 35.5172 39.7766 36.6978 38.1963 38.2005C36.616 39.7031 35.3744 41.4549 34.5076 43.4021C33.6167 45.4146 33.1611 47.5573 33.1611 49.7653C33.1611 51.9732 33.6167 54.116 34.5116 56.1322C35.3784 58.0795 36.6201 59.8313 38.2004 61.3339C39.7807 62.8365 41.623 64.0172 43.6709 64.8413C45.7915 65.6923 48.041 66.1254 50.3671 66.1254C52.6892 66.1254 54.9427 65.6923 57.0632 64.8413C59.1111 64.0172 60.9535 62.8365 62.5338 61.3339C64.1141 59.8313 65.3558 58.0795 66.2225 56.1322C67.1175 54.116 67.573 51.977 67.573 49.7653C67.573 47.5573 67.1175 45.4146 66.2225 43.3983C65.3558 41.451 64.1141 39.6992 62.5338 38.1966C60.9535 36.694 59.1111 35.5134 57.0632 34.6892C54.9387 33.8421 52.6892 33.4089 50.363 33.4089Z" fill="url(#paint2_linear_1145_2179)"/>
<path d="M50.3628 33.4088C52.6849 33.4088 54.9384 33.8419 57.059 34.6929C59.1069 35.517 60.9492 36.6977 62.5295 38.2003C64.1098 39.7029 65.3515 41.4547 66.2183 43.402C67.1132 45.4182 67.5688 47.5572 67.5688 49.7689C67.5688 51.9769 67.1132 54.1196 66.2183 56.1359C65.3515 58.0832 64.1098 59.835 62.5295 61.3376C60.9492 62.8402 59.1069 64.0208 57.059 64.845C54.9384 65.6921 52.6889 66.1253 50.3628 66.1253C48.0408 66.1253 45.7872 65.6921 43.6667 64.8411C41.6188 64.017 39.7764 62.8364 38.1961 61.3337C36.6158 59.8311 35.3742 58.0793 34.5074 56.1321C33.6165 54.1158 33.1609 51.9769 33.1609 49.7651C33.1609 47.5572 33.6165 45.4144 34.5114 43.3981C35.3782 41.4509 36.6198 39.6991 38.2002 38.1965C39.7805 36.6938 41.6228 35.5132 43.6707 34.6891C45.7872 33.8419 48.0408 33.4088 50.3628 33.4088ZM50.3628 30.0049C38.8855 30.0049 29.5811 38.8519 29.5811 49.7651C29.5811 60.6783 38.8855 69.5253 50.3628 69.5253C61.8402 69.5253 71.1446 60.6783 71.1446 49.7651C71.1446 38.8519 61.8402 30.0049 50.3628 30.0049Z" fill="url(#paint3_linear_1145_2179)"/>
<path d="M55.67 44.2225C54.5086 44.2225 53.5625 45.1686 53.5625 46.33C53.5625 47.49 54.5086 48.4375 55.67 48.4375C56.83 48.4375 57.7775 47.4915 57.7775 46.33C57.7775 45.1686 56.8314 44.2225 55.67 44.2225Z" fill="#D57A00"/>
<path d="M55.6698 41.2133C53.4819 41.2133 51.6156 42.5858 50.8834 44.5167C50.2775 46.1174 48.1514 46.4232 47.1192 45.0579C46.733 44.5497 46.1243 44.221 45.4366 44.221C44.2709 44.221 43.3291 45.1642 43.3291 46.3285C43.3291 47.4928 44.2723 48.436 45.4366 48.436C46.1415 48.436 46.766 48.09 47.1479 47.5574C48.1255 46.1978 50.3091 46.6429 50.8891 48.156C51.6242 50.0783 53.4862 51.4436 55.6683 51.4436C58.4937 51.4436 60.7835 49.1538 60.7835 46.3285C60.7849 43.5046 58.4951 41.2133 55.6698 41.2133ZM55.6698 49.6677C53.825 49.6677 52.3305 48.1732 52.3305 46.3299C52.3305 44.4851 53.825 42.9906 55.6698 42.9906C57.5131 42.9906 59.0076 44.4851 59.0076 46.3299C59.0076 48.1732 57.5131 49.6677 55.6698 49.6677Z" fill="#D57A00"/>
<path d="M48.8207 47.9753C48.5163 47.9753 48.2479 48.1274 48.0871 48.3614C47.477 49.1568 46.518 49.6679 45.4384 49.6679C43.5936 49.6679 42.0991 48.1734 42.0991 46.33C42.0991 44.4852 43.5936 42.9908 45.4384 42.9908C46.5151 42.9908 47.4856 43.5119 48.0957 44.3044C48.1058 44.3173 48.1144 44.3302 48.1244 44.3431C48.1259 44.346 48.1273 44.3474 48.1302 44.3489C48.2924 44.547 48.5393 44.6733 48.815 44.6733C49.3031 44.6733 49.7007 44.2771 49.7007 43.7875C49.7007 43.6109 49.6491 43.4473 49.5615 43.3095C49.5543 43.2922 49.5457 43.2764 49.5342 43.2606C48.6011 42.016 47.1137 41.2106 45.4384 41.2106C42.613 41.2106 40.3218 43.5004 40.3218 46.3272C40.3218 49.1525 42.613 51.4423 45.4384 51.4423C47.0979 51.4423 48.5723 50.6527 49.5069 49.4281C49.6333 49.2745 49.7108 49.0764 49.7108 48.8625C49.7108 48.3744 49.3117 47.9753 48.8207 47.9753Z" fill="#D57A00"/>
<path d="M56.757 55.1936C56.757 54.4198 56.1296 53.7924 55.3558 53.7924C54.582 53.7924 53.9546 54.4198 53.9546 55.1936C53.9546 55.2123 53.9589 55.228 53.9604 55.2467H53.9546C53.9546 57.3284 52.2678 59.0152 50.1861 59.0152C48.1044 59.0152 46.4176 57.3284 46.4176 55.2467H46.4118C46.4118 55.2295 46.4176 55.2123 46.4176 55.1936C46.4176 54.4198 45.7902 53.7924 45.0164 53.7924C44.2426 53.7924 43.6152 54.4198 43.6152 55.1936C43.6152 55.2123 43.6195 55.228 43.621 55.2467H43.6152C43.6152 58.876 46.5568 61.8176 50.1861 61.8176C53.8154 61.8176 56.757 58.876 56.757 55.2467H56.7512C56.7527 55.228 56.757 55.2108 56.757 55.1936Z" fill="#D57A00"/>
<path d="M55.2901 42.7676C54.1287 42.7676 53.1826 43.7137 53.1826 44.8751C53.1826 46.0351 54.1287 46.9826 55.2901 46.9826C56.4501 46.9826 57.3976 46.0366 57.3976 44.8751C57.3976 43.7137 56.4515 42.7676 55.2901 42.7676Z" fill="url(#paint4_linear_1145_2179)"/>
<path d="M55.2904 39.7585C53.1025 39.7585 51.2362 41.1309 50.504 43.0619C49.8982 44.6626 47.772 44.9684 46.7398 43.6031C46.3536 43.0949 45.7449 42.7661 45.0572 42.7661C43.8915 42.7661 42.9497 43.7093 42.9497 44.8736C42.9497 46.0379 43.8929 46.9811 45.0572 46.9811C45.7621 46.9811 46.3866 46.6351 46.7685 46.1025C47.7461 44.743 49.9297 45.188 50.5097 46.7012C51.2448 48.6235 53.1068 49.9888 55.2889 49.9888C58.1143 49.9888 60.4041 47.6989 60.4041 44.8736C60.4055 42.0497 58.1157 39.7585 55.2904 39.7585ZM55.2904 48.2129C53.4456 48.2129 51.9511 46.7184 51.9511 44.8751C51.9511 43.0303 53.4456 41.5358 55.2904 41.5358C57.1337 41.5358 58.6282 43.0303 58.6282 44.8751C58.6282 46.7184 57.1337 48.2129 55.2904 48.2129Z" fill="url(#paint5_linear_1145_2179)"/>
<path d="M48.4408 46.5203C48.1365 46.5203 47.868 46.6725 47.7072 46.9065C47.0971 47.7018 46.1381 48.2129 45.0585 48.2129C43.2137 48.2129 41.7192 46.7184 41.7192 44.8751C41.7192 43.0303 43.2137 41.5358 45.0585 41.5358C46.1352 41.5358 47.1057 42.0569 47.7158 42.8494C47.7259 42.8623 47.7345 42.8752 47.7445 42.8882C47.746 42.891 47.7474 42.8925 47.7503 42.8939C47.9125 43.092 48.1594 43.2184 48.4351 43.2184C48.9232 43.2184 49.3209 42.8221 49.3209 42.3326C49.3209 42.156 49.2692 41.9923 49.1816 41.8545C49.1744 41.8373 49.1658 41.8215 49.1543 41.8057C48.2212 40.561 46.7339 39.7556 45.0585 39.7556C42.2332 39.7556 39.9419 42.0454 39.9419 44.8722C39.9419 47.6975 42.2332 49.9873 45.0585 49.9873C46.7181 49.9873 48.1925 49.1977 49.127 47.9732C49.2534 47.8195 49.3309 47.6214 49.3309 47.4075C49.3309 46.9194 48.9318 46.5203 48.4408 46.5203Z" fill="url(#paint6_linear_1145_2179)"/>
<path d="M56.3771 53.7388C56.3771 52.965 55.7497 52.3376 54.9759 52.3376C54.2021 52.3376 53.5748 52.965 53.5748 53.7388C53.5748 53.7574 53.5791 53.7732 53.5805 53.7919H53.5748C53.5748 55.8735 51.8879 57.5604 49.8062 57.5604C47.7246 57.5604 46.0377 55.8735 46.0377 53.7919H46.032C46.032 53.7746 46.0377 53.7574 46.0377 53.7388C46.0377 52.965 45.4103 52.3376 44.6365 52.3376C43.8627 52.3376 43.2354 52.965 43.2354 53.7388C43.2354 53.7574 43.2397 53.7732 43.2411 53.7919H43.2354C43.2354 57.4211 46.177 60.3628 49.8062 60.3628C53.4355 60.3628 56.3771 57.4211 56.3771 53.7919H56.3714C56.3728 53.7732 56.3771 53.756 56.3771 53.7388Z" fill="url(#paint7_linear_1145_2179)"/>
<defs>
<linearGradient id="paint0_linear_1145_2179" x1="50.3628" y1="0.786621" x2="50.3628" y2="100.787" gradientUnits="userSpaceOnUse">
<stop stop-color="#4F2DFE"/>
<stop offset="1" stop-color="#45E3AF"/>
</linearGradient>
<linearGradient id="paint1_linear_1145_2179" x1="50.3635" y1="67.0321" x2="50.3635" y2="35.858" gradientUnits="userSpaceOnUse">
<stop stop-color="#F0B100"/>
<stop offset="0.9876" stop-color="#EBA700"/>
</linearGradient>
<linearGradient id="paint2_linear_1145_2179" x1="50.3638" y1="33.809" x2="50.3638" y2="66.5244" gradientUnits="userSpaceOnUse">
<stop stop-color="#C96D00"/>
<stop offset="0.5383" stop-color="#F3AC00"/>
<stop offset="0.9876" stop-color="#FFFF00"/>
</linearGradient>
<linearGradient id="paint3_linear_1145_2179" x1="50.3636" y1="69.9272" x2="50.3636" y2="30.4055" gradientUnits="userSpaceOnUse">
<stop offset="8e-08" stop-color="#FFC100"/>
<stop offset="0.2951" stop-color="#FFD100"/>
<stop offset="0.6566" stop-color="#FFDF00"/>
<stop offset="0.9876" stop-color="#FFE300"/>
</linearGradient>
<linearGradient id="paint4_linear_1145_2179" x1="55.2893" y1="46.9823" x2="55.2893" y2="42.7665" gradientUnits="userSpaceOnUse">
<stop stop-color="#FFC100"/>
<stop offset="0.9876" stop-color="#FFE300"/>
</linearGradient>
<linearGradient id="paint5_linear_1145_2179" x1="51.6736" y1="49.988" x2="51.6736" y2="39.7558" gradientUnits="userSpaceOnUse">
<stop stop-color="#FFC100"/>
<stop offset="0.9876" stop-color="#FFE300"/>
</linearGradient>
<linearGradient id="paint6_linear_1145_2179" x1="44.6346" y1="49.9865" x2="44.6346" y2="39.753" gradientUnits="userSpaceOnUse">
<stop stop-color="#FFC100"/>
<stop offset="0.9876" stop-color="#FFE300"/>
</linearGradient>
<linearGradient id="paint7_linear_1145_2179" x1="49.8038" y1="60.3621" x2="49.8038" y2="52.3355" gradientUnits="userSpaceOnUse">
<stop stop-color="#FFC100"/>
<stop offset="0.9876" stop-color="#FFE300"/>
</linearGradient>
</defs>
</svg>
