<svg width="101" height="101" viewBox="0 0 101 101" fill="none" xmlns="http://www.w3.org/2000/svg">
<circle cx="50.9126" cy="50.7866" r="47.5" fill="#000079" stroke="url(#paint0_linear_1145_2181)" stroke-width="5"/>
<path d="M72.4848 65.168L71.8533 66.6203L50.9678 78.9869L50.9734 77.9058L72.4848 65.168Z" fill="#98ADD4"/>
<path d="M50.9733 77.9057L50.9677 78.9868L29.9457 66.6203L29.3218 65.1699L50.9733 77.9057Z" fill="#AFC4F9"/>
<path d="M72.5032 58.841L72.4845 65.168L50.9731 77.9057L50.9918 71.5787L72.5032 58.841Z" fill="#AFC4F9"/>
<path d="M50.9919 71.5787L50.9733 77.9057L29.3218 65.1699L29.3386 58.841L50.9919 71.5787Z" fill="white"/>
<path d="M50.9936 69.7571L50.9917 71.5787L29.3384 58.841L29.9717 57.3906L50.9936 69.7571Z" fill="#AFC4F9"/>
<path d="M71.8778 57.3906L72.5036 58.841L50.9922 71.5787L50.9941 69.7571L71.8778 57.3906Z" fill="#98ADD4"/>
<path d="M71.8773 57.3906L50.9936 69.7572L29.9717 57.3906L50.8572 45.024L71.8773 57.3906Z" fill="#0015CF"/>
<path d="M72.4848 53.9493L71.8533 55.4016L50.9678 67.7681L50.9734 66.687L72.4848 53.9493Z" fill="#98ADD4"/>
<path d="M50.9733 66.687L50.9677 67.7681L29.9457 55.4016L29.3218 53.9493L50.9733 66.687Z" fill="#AFC4F9"/>
<path d="M72.5032 47.6223L72.4845 53.9492L50.9731 66.687L50.9918 60.36L72.5032 47.6223Z" fill="#AFC4F9"/>
<path d="M50.9919 60.36L50.9733 66.687L29.3218 53.9492L29.3386 47.6223L50.9919 60.36Z" fill="white"/>
<path d="M50.9936 58.5384L50.9917 60.3599L29.3384 47.6222L29.9717 46.1718L50.9936 58.5384Z" fill="#AFC4F9"/>
<path d="M71.8778 46.1718L72.5036 47.6222L50.9922 60.3599L50.9941 58.5384L71.8778 46.1718Z" fill="#98ADD4"/>
<path d="M71.8773 46.1719L50.9936 58.5384L29.9717 46.1719L50.8572 33.8053L71.8773 46.1719Z" fill="#0015CF"/>
<path d="M72.4848 42.7304L71.8533 44.1827L50.9678 56.5493L50.9734 55.4681L72.4848 42.7304Z" fill="#98ADD4"/>
<path d="M50.9733 55.4681L50.9677 56.5493L29.9457 44.1827L29.3218 42.7304L50.9733 55.4681Z" fill="#AFC4F9"/>
<path d="M72.5032 36.4034L72.4845 42.7304L50.9731 55.4681L50.9918 49.1411L72.5032 36.4034Z" fill="#AFC4F9"/>
<path d="M50.9919 49.1411L50.9733 55.4681L29.3218 42.7304L29.3386 36.4034L50.9919 49.1411Z" fill="white"/>
<path d="M50.9936 47.3195L50.9917 49.1411L29.3384 36.4034L29.9717 34.9529L50.9936 47.3195Z" fill="#AFC4F9"/>
<path d="M71.8778 34.9529L72.5036 36.4034L50.9922 49.1411L50.9941 47.3195L71.8778 34.9529Z" fill="#98ADD4"/>
<path d="M71.8773 34.953L50.9936 47.3195L29.9717 34.953L50.8572 22.5864L71.8773 34.953Z" fill="white"/>
<path d="M56.3123 31.9836C59.305 33.7443 59.3218 36.6014 56.3478 38.362C53.3737 40.1227 48.5334 40.1227 45.5407 38.362C42.5461 36.6014 42.5312 33.7443 45.5052 31.9836C48.4774 30.223 53.3177 30.223 56.3123 31.9836Z" fill="#0015CF"/>
<defs>
<linearGradient id="paint0_linear_1145_2181" x1="50.9126" y1="0.786621" x2="50.9126" y2="100.787" gradientUnits="userSpaceOnUse">
<stop stop-color="#4F2DFE"/>
<stop offset="1" stop-color="#45E3AF"/>
</linearGradient>
</defs>
</svg>
