<svg width="101" height="101" viewBox="0 0 101 101" fill="none" xmlns="http://www.w3.org/2000/svg">
<circle cx="50.6377" cy="50.7866" r="47.5" fill="#000079" stroke="url(#paint0_linear_1145_2180)" stroke-width="5"/>
<path d="M50.8578 26C37.1512 26 26 37.1516 26 50.8581C26 64.5646 37.1512 75.7148 50.8578 75.7148C64.5637 75.7148 75.7148 64.5646 75.7148 50.8581C75.7148 37.1516 64.5637 26 50.8578 26ZM70.263 50.8581C70.263 55.2609 68.7701 59.3115 66.29 62.5727L39.1426 35.424C42.4026 32.9436 46.4537 31.4521 50.8578 31.4521C61.5568 31.4528 70.263 40.1578 70.263 50.8581ZM31.4525 50.8581C31.4525 46.525 32.8976 42.532 35.3074 39.2996L62.4161 66.4075C59.1835 68.8177 55.1901 70.2627 50.8578 70.2627C40.1573 70.2634 31.4525 61.5585 31.4525 50.8581Z" fill="url(#paint1_linear_1145_2180)"/>
<defs>
<linearGradient id="paint0_linear_1145_2180" x1="50.6377" y1="0.786621" x2="50.6377" y2="100.787" gradientUnits="userSpaceOnUse">
<stop stop-color="#4F2DFE"/>
<stop offset="1" stop-color="#45E3AF"/>
</linearGradient>
<linearGradient id="paint1_linear_1145_2180" x1="26" y1="50.8574" x2="75.7148" y2="50.8574" gradientUnits="userSpaceOnUse">
<stop stop-color="#B7C0EB"/>
<stop offset="0.1792" stop-color="#CCD2F3"/>
<stop offset="0.3835" stop-color="#DEE2F9"/>
<stop offset="0.5326" stop-color="#E4E7FB"/>
<stop offset="1" stop-color="#FEFEFC"/>
</linearGradient>
</defs>
</svg>
