<svg width="110" height="127" viewBox="0 0 110 127" fill="none" xmlns="http://www.w3.org/2000/svg">
<g clip-path="url(#clip0_817_2137)">
<path fill-rule="evenodd" clip-rule="evenodd" d="M83.3306 7.93625H7.95579V115.36L10.0273 117.427L22.2062 105.278C23.7573 103.73 26.2791 103.73 27.8302 105.278L40.0091 117.427L52.188 105.278C53.7391 103.73 56.2609 103.73 57.812 105.278L69.9909 117.427L82.1698 105.278C83.7209 103.73 86.2427 103.73 87.7939 105.278L99.9727 117.427L102.044 115.36V26.5939L83.3306 7.93625ZM3.97289 0H84.9818C86.0926 0 87.0933 0.449222 87.8139 1.17796L108.839 22.1516C109.62 22.9203 110 23.9385 110 24.9568V116.997C110 118.105 109.55 119.104 108.819 119.822L102.785 125.842C101.234 127.389 98.7118 127.389 97.1607 125.842L84.9818 113.693L72.8029 125.842C71.2518 127.389 68.73 127.389 67.1789 125.842L55 113.693L42.8211 125.842C41.27 127.389 38.7482 127.389 37.197 125.842L25.0182 113.693L12.8393 125.842C11.2882 127.389 8.76638 127.389 7.21525 125.842L1.17085 119.812C0.390284 119.034 0 118.016 0 116.997V3.96313C0 1.77692 1.7813 0 3.97289 0Z" fill="#E61E66"/>
<path fill-rule="evenodd" clip-rule="evenodd" d="M3.97266 3.96289H84.9816L106.027 24.9565V116.997L99.9725 123.037L84.9816 108.083L69.9907 123.037L54.9998 108.083L40.0089 123.037L25.018 108.083L10.0271 123.037L3.97266 116.997V3.96289Z" fill="white"/>
<path fill-rule="evenodd" clip-rule="evenodd" d="M81.0088 24.9568V3.96319C81.0088 2.94495 81.3991 1.9367 82.1696 1.15805C83.7208 -0.389271 86.2426 -0.389271 87.7937 1.15805L108.819 22.1317C109.55 22.8505 110 23.8487 110 24.9568C110 27.143 108.219 28.92 106.027 28.92H84.9817C82.7901 28.92 81.0088 27.143 81.0088 24.9568ZM88.9546 13.5466V20.9937H96.42L88.9546 13.5466Z" fill="#E61E66"/>
<path fill-rule="evenodd" clip-rule="evenodd" d="M84.9814 3.96289V24.9565H106.027L84.9814 3.96289Z" fill="#FCDED9"/>
<path fill-rule="evenodd" clip-rule="evenodd" d="M40.0089 115.6L25.018 100.646L10.0271 115.6L3.97266 109.56V116.997L10.0271 123.037L25.018 108.083L40.0089 123.037L54.9998 108.083L69.9907 123.037L84.9816 108.083L99.9725 123.037L106.027 116.997V109.56L99.9725 115.6L84.9816 100.646L69.9907 115.6L54.9998 100.646L40.0089 115.6Z" fill="#FCDED9"/>
<path d="M41.9561 30.1405L27.082 44.978L29.8913 47.7804L44.7653 32.9428L41.9561 30.1405Z" fill="#E61E66"/>
<path d="M29.8991 30.1425L27.0898 32.9448L41.9639 47.7824L44.7731 44.98L29.8991 30.1425Z" fill="#E61E66"/>
<path d="M80.0928 30.1385L65.2188 44.9761L68.028 47.7784L82.902 32.9409L80.0928 30.1385Z" fill="#E61E66"/>
<path d="M68.0358 30.14L65.2266 32.9424L80.1006 47.7799L82.9099 44.9776L68.0358 30.14Z" fill="#E61E66"/>
<path d="M25.1487 66.1352C24.0479 66.1352 23.1572 65.2468 23.1572 64.1487C23.1572 63.0506 24.0479 62.1621 25.1487 62.1621H84.8521C85.9529 62.1621 86.8435 63.0506 86.8435 64.1487C86.8435 65.2468 85.9529 66.1352 84.8521 66.1352H25.1487Z" fill="#E61E66"/>
<path d="M82.8607 66.1352H70.5317V72.2846C70.5317 73.9717 71.2222 75.509 72.343 76.6271C73.4639 77.7451 75.005 78.4339 76.6962 78.4339C78.3874 78.4339 79.9286 77.7451 81.0494 76.6271C82.1702 75.509 82.8607 73.9717 82.8607 72.2846V66.1352ZM68.5403 62.1621H84.8421H86.8336V64.1487V72.2846C86.8336 75.0698 85.6928 77.5954 83.8514 79.4322C82.0101 81.269 79.4782 82.407 76.6862 82.407C73.8942 82.407 71.3623 81.269 69.521 79.4322C67.6897 77.5954 66.5488 75.0698 66.5488 72.2846V64.1487V62.1621H68.5403Z" fill="#E61E66"/>
<path d="M74.7139 64.1487C74.7139 63.0506 75.6045 62.1621 76.7053 62.1621C77.8061 62.1621 78.6968 63.0506 78.6968 64.1487V69.6591C78.6968 70.7572 77.8061 71.6457 76.7053 71.6457C75.6045 71.6457 74.7139 70.7572 74.7139 69.6591V64.1487Z" fill="#E61E66"/>
<path fill-rule="evenodd" clip-rule="evenodd" d="M76.6957 71.6359C75.5949 71.6359 74.7043 70.7475 74.7043 69.6494V66.1255H70.5312V72.2748C70.5312 73.9619 71.2217 75.4993 72.3426 76.6173C73.4634 77.7354 75.0045 78.4242 76.6957 78.4242C78.387 78.4242 79.9281 77.7354 81.0489 76.6173C82.1697 75.4993 82.8602 73.9619 82.8602 72.2748V66.1255H78.6872V69.6494C78.6872 70.7575 77.7965 71.6359 76.6957 71.6359Z" fill="#FCDED9"/>
</g>
<defs>
<clipPath id="clip0_817_2137">
<rect width="110" height="127" fill="white"/>
</clipPath>
</defs>
</svg>
