<svg width="11" height="11" viewBox="0 0 11 11" fill="none" xmlns="http://www.w3.org/2000/svg">
<path d="M10.7174 9.71423C10.7021 9.73469 10.6869 9.76218 10.6652 9.78391C10.3562 10.0959 10.044 10.4053 9.7375 10.7198C9.65293 10.8068 9.6046 10.7569 9.54419 10.6962C9.13787 10.2864 8.73092 9.87789 8.32396 9.46938C7.3835 8.52388 6.44241 7.57902 5.50196 6.63352C5.35444 6.48521 5.3538 6.48521 5.20755 6.63161C3.87159 7.97474 2.53435 9.3166 1.20156 10.6636C1.08965 10.7767 1.0267 10.7863 0.914784 10.6661C0.655348 10.3874 0.380016 10.1234 0.111678 9.85295C-0.0364799 9.704 -0.0364799 9.704 0.107863 9.55888C1.43238 8.22662 2.75754 6.89499 4.0827 5.56273C4.11258 5.53268 4.14056 5.50071 4.17235 5.47259C4.23658 5.41569 4.24484 5.36071 4.17617 5.29998C4.14056 5.26866 4.10877 5.23286 4.07506 5.19897C2.75436 3.87182 1.43238 2.54403 0.111042 1.2156C-0.0364799 1.06729 -0.0364799 1.06729 0.107863 0.921529C0.383195 0.643441 0.663615 0.369188 0.932588 0.0847071C1.02988 -0.0182175 1.0871 -0.0124639 1.18439 0.0859857C2.51718 1.43232 3.85442 2.77417 5.19038 4.11795C5.35444 4.28288 5.35507 4.28288 5.51849 4.11858C6.84683 2.78312 8.1758 1.44702 9.50413 0.111557C9.65166 -0.0367567 9.65166 -0.0367567 9.79663 0.109C10.0618 0.374942 10.327 0.641523 10.5915 0.908104C10.7454 1.06281 10.7454 1.06281 10.5953 1.21368C9.27077 2.54595 7.94561 3.87757 6.62046 5.20984C6.4475 5.38373 6.4475 5.38373 6.62554 5.56209C7.95388 6.89755 9.28222 8.23301 10.6105 9.56911C10.6519 9.60939 10.7047 9.64199 10.7174 9.71423Z" fill="white"/>
</svg>
