<svg width="11" height="12" viewBox="0 0 11 12" fill="none" xmlns="http://www.w3.org/2000/svg">
<path d="M10.7769 10.1732C10.7617 10.1937 10.7464 10.2212 10.7248 10.2429C10.4158 10.5549 10.1036 10.8643 9.79707 11.1788C9.7125 11.2658 9.66417 11.2159 9.60376 11.1552C9.19744 10.7454 8.79048 10.3369 8.38353 9.92837C7.44307 8.98287 6.50198 8.03801 5.56153 7.09251C5.41401 6.94419 5.41337 6.9442 5.26712 7.09059C3.93116 8.43373 2.59392 9.77558 1.26113 11.1226C1.14922 11.2357 1.08627 11.2453 0.974354 11.1251C0.714919 10.8464 0.439586 10.5824 0.171248 10.3119C0.0230904 10.163 0.0230904 10.163 0.167433 10.0179C1.49195 8.6856 2.81711 7.35398 4.14227 6.02171C4.17215 5.99166 4.20013 5.9597 4.23192 5.93157C4.29615 5.87467 4.30441 5.8197 4.23574 5.75896C4.20013 5.72764 4.16834 5.69184 4.13463 5.65796C2.81393 4.33081 1.49195 3.00301 0.170613 1.67458C0.0230904 1.52627 0.0230904 1.52627 0.167433 1.38051C0.442766 1.10243 0.723185 0.828173 0.992159 0.543691C1.08945 0.440767 1.14668 0.44652 1.24396 0.54497C2.57675 1.8913 3.91399 3.23316 5.24995 4.57693C5.41401 4.74186 5.41464 4.74186 5.57806 4.57757C6.9064 3.24211 8.23537 1.906 9.5637 0.570541C9.71123 0.422228 9.71123 0.422228 9.85621 0.567984C10.1214 0.833926 10.3865 1.10051 10.651 1.36709C10.8049 1.52179 10.8049 1.52179 10.6549 1.67267C9.33034 3.00493 8.00518 4.33656 6.68003 5.66883C6.50707 5.84271 6.50707 5.84271 6.68511 6.02107C8.01345 7.35653 9.34179 8.692 10.6701 10.0281C10.7115 10.0684 10.7642 10.101 10.7769 10.1732Z" fill="#232323"/>
</svg>
