<svg width="42" height="42" viewBox="0 0 42 42" fill="none" xmlns="http://www.w3.org/2000/svg">
<g clip-path="url(#clip0_2389_4845)">
<path d="M21 42C32.598 42 42 32.598 42 21C42 9.40202 32.598 0 21 0C9.40202 0 0 9.40202 0 21C0 32.598 9.40202 42 21 42Z" fill="#F2F2F2"/>
<path d="M24.2652 10.8085L13.2419 26.552C11.9662 28.3745 12.4131 30.9095 14.2356 32.1852C16.0582 33.461 18.5924 33.0141 19.8681 31.1923L30.8922 15.4481C32.1679 13.6255 31.7211 11.0912 29.8993 9.81478C29.1972 9.32315 28.3893 9.0874 27.5881 9.0874C26.3101 9.0874 25.0501 9.68796 24.2652 10.8077" fill="#6150DC"/>
<mask id="mask0_2389_4845" style="mask-type:luminance" maskUnits="userSpaceOnUse" x="12" y="9" width="20" height="24">
<path d="M24.2652 10.8085L13.2419 26.552C11.9662 28.3745 12.4131 30.9095 14.2356 32.1852C16.0582 33.461 18.5924 33.0141 19.8681 31.1923L30.8922 15.4481C32.1679 13.6255 31.7211 11.0912 29.8993 9.81478C29.1972 9.32315 28.3893 9.0874 27.5881 9.0874C26.3101 9.0874 25.0501 9.68796 24.2652 10.8077" fill="white"/>
</mask>
<g mask="url(#mask0_2389_4845)">
<path d="M35.0115 29.4131L12.8604 33.3867L12.9739 34.0197L35.1251 30.046L35.0115 29.4131Z" fill="#6150DC"/>
<path fill-rule="evenodd" clip-rule="evenodd" d="M12.8659 33.434L12.8428 33.3013L34.9939 29.3271L35.0178 29.4592L12.8659 33.434Z" fill="#6150DC"/>
<path fill-rule="evenodd" clip-rule="evenodd" d="M12.8503 33.3459L12.8271 33.2131L34.9775 29.2383L35.0014 29.3711L12.8503 33.3459Z" fill="#6150DC"/>
<path fill-rule="evenodd" clip-rule="evenodd" d="M12.8344 33.2573L12.8105 33.1252L34.9617 29.1504L34.9855 29.2832L12.8344 33.2573Z" fill="#6150DC"/>
<path fill-rule="evenodd" clip-rule="evenodd" d="M12.8188 33.1689L12.7949 33.0369L34.946 29.062L34.9699 29.1941L12.8188 33.1689Z" fill="#6150DC"/>
<path fill-rule="evenodd" clip-rule="evenodd" d="M12.8022 33.0808L12.7783 32.948L34.9302 28.9731L34.9533 29.1059L12.8022 33.0808Z" fill="#6150DC"/>
<path fill-rule="evenodd" clip-rule="evenodd" d="M12.7868 32.9921L12.7637 32.8601L34.9141 28.8853L34.9379 29.018L12.7868 32.9921Z" fill="#6150DC"/>
<path fill-rule="evenodd" clip-rule="evenodd" d="M12.7709 32.9043L12.7471 32.7722L34.8982 28.7974L34.9221 28.9294L12.7709 32.9043Z" fill="#6150DC"/>
<path fill-rule="evenodd" clip-rule="evenodd" d="M12.7553 32.8164L12.7314 32.6843L34.8826 28.7095L34.9064 28.8415L12.7553 32.8164Z" fill="#6150DC"/>
<path fill-rule="evenodd" clip-rule="evenodd" d="M12.7389 32.7282L12.7158 32.5955L34.8669 28.6206L34.8901 28.7534L12.7389 32.7282Z" fill="#6150DC"/>
<path fill-rule="evenodd" clip-rule="evenodd" d="M12.7233 32.6391L12.7002 32.5071L34.8513 28.5322L34.8744 28.665L12.7233 32.6391Z" fill="#6150DC"/>
<path fill-rule="evenodd" clip-rule="evenodd" d="M12.7077 32.5512L12.6846 32.4192L34.8349 28.4443L34.8588 28.5764L12.7077 32.5512Z" fill="#6150DC"/>
<path fill-rule="evenodd" clip-rule="evenodd" d="M12.6918 32.4633L12.668 32.3305L34.8191 28.3564L34.843 28.4885L12.6918 32.4633Z" fill="#6150DC"/>
<path fill-rule="evenodd" clip-rule="evenodd" d="M12.6762 32.3752L12.6523 32.2424L34.8035 28.2676L34.8273 28.4004L12.6762 32.3752Z" fill="#6150DC"/>
<path fill-rule="evenodd" clip-rule="evenodd" d="M12.6598 32.2866L12.6367 32.1545L34.7878 28.1797L34.811 28.3125L12.6598 32.2866Z" fill="#6150DC"/>
<path fill-rule="evenodd" clip-rule="evenodd" d="M12.6442 32.1987L12.6211 32.0666L34.7715 28.0918L34.7953 28.2238L12.6442 32.1987Z" fill="#6150DC"/>
<path fill-rule="evenodd" clip-rule="evenodd" d="M12.6284 32.1103L12.6045 31.9775L34.7556 28.0034L34.7795 28.1355L12.6284 32.1103Z" fill="#6150DC"/>
<path fill-rule="evenodd" clip-rule="evenodd" d="M12.6127 32.0222L12.5889 31.8894L34.74 27.9146L34.7639 28.0473L12.6127 32.0222Z" fill="#6150DC"/>
<path fill-rule="evenodd" clip-rule="evenodd" d="M12.5964 31.9336L12.5732 31.8015L34.7244 27.8267L34.7475 27.9587L12.5964 31.9336Z" fill="#6150DC"/>
<path fill-rule="evenodd" clip-rule="evenodd" d="M12.5807 31.8457L12.5576 31.7129L34.708 27.7388L34.7326 27.8708L12.5807 31.8457Z" fill="#6150DC"/>
<path fill-rule="evenodd" clip-rule="evenodd" d="M12.5649 31.7575L12.541 31.6248L34.6921 27.6499L34.716 27.7827L12.5649 31.7575Z" fill="#6150DC"/>
<path fill-rule="evenodd" clip-rule="evenodd" d="M12.5493 31.6697L12.5254 31.5369L34.6765 27.562L34.7004 27.6948L12.5493 31.6697Z" fill="#6150DC"/>
<path fill-rule="evenodd" clip-rule="evenodd" d="M12.5336 31.5805L12.5098 31.4485L34.6609 27.4736L34.684 27.6057L12.5336 31.5805Z" fill="#6150DC"/>
<path fill-rule="evenodd" clip-rule="evenodd" d="M12.5173 31.4926L12.4941 31.3598L34.6453 27.3857L34.6684 27.5178L12.5173 31.4926Z" fill="#6150DC"/>
<path fill-rule="evenodd" clip-rule="evenodd" d="M12.5016 31.4045L12.4785 31.2717L34.6289 27.2969L34.6535 27.4297L12.5016 31.4045Z" fill="#6150DC"/>
<path fill-rule="evenodd" clip-rule="evenodd" d="M12.4858 31.3159L12.4619 31.1838L34.613 27.209L34.6369 27.3418L12.4858 31.3159Z" fill="#6150DC"/>
<path fill-rule="evenodd" clip-rule="evenodd" d="M12.4702 31.228L12.4463 31.0959L34.5974 27.1211L34.6205 27.2531L12.4702 31.228Z" fill="#6150DC"/>
<path fill-rule="evenodd" clip-rule="evenodd" d="M12.4538 31.1396L12.4307 31.0068L34.5818 27.0327L34.6049 27.1648L12.4538 31.1396Z" fill="#6150DC"/>
<path fill-rule="evenodd" clip-rule="evenodd" d="M12.4382 31.052L12.415 30.9192L34.5662 26.9443L34.5893 27.0771L12.4382 31.052Z" fill="#6150DC"/>
<path fill-rule="evenodd" clip-rule="evenodd" d="M12.4223 30.9629L12.3984 30.8308L34.5496 26.856L34.5734 26.9888L12.4223 30.9629Z" fill="#6150DC"/>
<path fill-rule="evenodd" clip-rule="evenodd" d="M12.4067 30.875L12.3828 30.7422L34.5339 26.7681L34.5578 26.9001L12.4067 30.875Z" fill="#6150DC"/>
<path fill-rule="evenodd" clip-rule="evenodd" d="M12.3911 30.7868L12.3672 30.654L34.5183 26.6792L34.5414 26.812L12.3911 30.7868Z" fill="#6150DC"/>
<path fill-rule="evenodd" clip-rule="evenodd" d="M12.3747 30.699L12.3516 30.5662L34.5027 26.5913L34.5258 26.7241L12.3747 30.699Z" fill="#6150DC"/>
<path fill-rule="evenodd" clip-rule="evenodd" d="M12.3591 30.6103L12.3359 30.4783L34.4863 26.5034L34.5109 26.6355L12.3591 30.6103Z" fill="#6150DC"/>
<path fill-rule="evenodd" clip-rule="evenodd" d="M12.3432 30.5219L12.3193 30.3891L34.4705 26.415L34.4943 26.5471L12.3432 30.5219Z" fill="#6150DC"/>
<path fill-rule="evenodd" clip-rule="evenodd" d="M12.3276 30.4343L12.3037 30.3015L34.4548 26.3267L34.478 26.4595L12.3276 30.4343Z" fill="#6150DC"/>
<path fill-rule="evenodd" clip-rule="evenodd" d="M12.3112 30.3452L12.2881 30.2131L34.4392 26.2383L34.4631 26.3711L12.3112 30.3452Z" fill="#6150DC"/>
<path fill-rule="evenodd" clip-rule="evenodd" d="M12.2956 30.2573L12.2725 30.1252L34.4236 26.1504L34.4467 26.2824L12.2956 30.2573Z" fill="#6150DC"/>
<path fill-rule="evenodd" clip-rule="evenodd" d="M12.2797 30.1694L12.2559 30.0366L34.407 26.0625L34.4309 26.1945L12.2797 30.1694Z" fill="#6150DC"/>
<path fill-rule="evenodd" clip-rule="evenodd" d="M12.2641 30.0813L12.2402 29.9485L34.3914 25.9736L34.4152 26.1064L12.2641 30.0813Z" fill="#6150DC"/>
<path fill-rule="evenodd" clip-rule="evenodd" d="M12.2485 29.9926L12.2246 29.8606L34.3757 25.8857L34.3989 26.0178L12.2485 29.9926Z" fill="#6150DC"/>
<path fill-rule="evenodd" clip-rule="evenodd" d="M12.2321 29.9043L12.209 29.7722L34.3601 25.7974L34.3832 25.9294L12.2321 29.9043Z" fill="#6150DC"/>
<path fill-rule="evenodd" clip-rule="evenodd" d="M12.2165 29.8166L12.1934 29.6838L34.3445 25.709L34.3676 25.8418L12.2165 29.8166Z" fill="#6150DC"/>
<path fill-rule="evenodd" clip-rule="evenodd" d="M12.2006 29.7282L12.1768 29.5955L34.3279 25.6206L34.3518 25.7534L12.2006 29.7282Z" fill="#6150DC"/>
<path fill-rule="evenodd" clip-rule="evenodd" d="M12.185 29.6396L12.1611 29.5076L34.3123 25.5327L34.3361 25.6648L12.185 29.6396Z" fill="#6150DC"/>
<path fill-rule="evenodd" clip-rule="evenodd" d="M12.1686 29.5515L12.1455 29.4187L34.2966 25.4438L34.3205 25.5766L12.1686 29.5515Z" fill="#6150DC"/>
<path fill-rule="evenodd" clip-rule="evenodd" d="M12.153 29.4636L12.1299 29.3308L34.281 25.356L34.3041 25.4888L12.153 29.4636Z" fill="#6150DC"/>
<path fill-rule="evenodd" clip-rule="evenodd" d="M12.1372 29.375L12.1133 29.2429L34.2644 25.2681L34.2883 25.4009L12.1372 29.375Z" fill="#6150DC"/>
<path fill-rule="evenodd" clip-rule="evenodd" d="M12.1215 29.2866L12.0977 29.1545L34.2488 25.1797L34.2727 25.3117L12.1215 29.2866Z" fill="#6150DC"/>
<path fill-rule="evenodd" clip-rule="evenodd" d="M12.1059 29.1985L12.082 29.0657L34.2332 25.0908L34.2563 25.2236L12.1059 29.1985Z" fill="#6150DC"/>
<path fill-rule="evenodd" clip-rule="evenodd" d="M12.0895 29.1106L12.0664 28.9778L34.2175 25.0029L34.2407 25.1357L12.0895 29.1106Z" fill="#6150DC"/>
<path fill-rule="evenodd" clip-rule="evenodd" d="M12.0739 29.0219L12.0508 28.8899L34.2012 24.915L34.225 25.0471L12.0739 29.0219Z" fill="#6150DC"/>
<path fill-rule="evenodd" clip-rule="evenodd" d="M12.0581 28.934L12.0342 28.802L34.1853 24.8271L34.2092 24.9592L12.0581 28.934Z" fill="#6150DC"/>
<path fill-rule="evenodd" clip-rule="evenodd" d="M12.0424 28.8459L12.0186 28.7131L34.1697 24.7383L34.1936 24.8711L12.0424 28.8459Z" fill="#6150DC"/>
<path fill-rule="evenodd" clip-rule="evenodd" d="M12.0268 28.7575L12.0029 28.6248L34.1541 24.6499L34.1772 24.7827L12.0268 28.7575Z" fill="#6150DC"/>
<path fill-rule="evenodd" clip-rule="evenodd" d="M12.0104 28.6689L11.9873 28.5369L34.1384 24.562L34.1616 24.6941L12.0104 28.6689Z" fill="#6150DC"/>
<path fill-rule="evenodd" clip-rule="evenodd" d="M11.9946 28.581L11.9707 28.4482L34.1218 24.4741L34.1457 24.6062L11.9946 28.581Z" fill="#6150DC"/>
<path fill-rule="evenodd" clip-rule="evenodd" d="M11.979 28.4929L11.9551 28.3601L34.1062 24.3853L34.1301 24.518L11.979 28.4929Z" fill="#6150DC"/>
<path fill-rule="evenodd" clip-rule="evenodd" d="M11.9633 28.4043L11.9395 28.2722L34.0906 24.2974L34.1137 24.4294L11.9633 28.4043Z" fill="#6150DC"/>
<path fill-rule="evenodd" clip-rule="evenodd" d="M11.947 28.3164L11.9238 28.1843L34.075 24.2095L34.0981 24.3415L11.947 28.3164Z" fill="#6150DC"/>
<path fill-rule="evenodd" clip-rule="evenodd" d="M11.9311 28.2282L11.9072 28.0955L34.0583 24.1206L34.0822 24.2534L11.9311 28.2282Z" fill="#6150DC"/>
<path fill-rule="evenodd" clip-rule="evenodd" d="M11.9155 28.1399L11.8916 28.0071L34.0427 24.0322L34.0666 24.165L11.9155 28.1399Z" fill="#6150DC"/>
<path fill-rule="evenodd" clip-rule="evenodd" d="M11.8998 28.0512L11.876 27.9192L34.0271 23.9443L34.0502 24.0764L11.8998 28.0512Z" fill="#6150DC"/>
<path fill-rule="evenodd" clip-rule="evenodd" d="M11.8842 27.9633L11.8604 27.8313L34.0115 23.8564L34.0346 23.9885L11.8842 27.9633Z" fill="#6150DC"/>
<path fill-rule="evenodd" clip-rule="evenodd" d="M11.8679 27.8752L11.8447 27.7424L33.9959 23.7676L34.019 23.9004L11.8679 27.8752Z" fill="#6150DC"/>
<path fill-rule="evenodd" clip-rule="evenodd" d="M11.852 27.7866L11.8281 27.6545L33.9792 23.6797L34.0031 23.8125L11.852 27.7866Z" fill="#6150DC"/>
<path fill-rule="evenodd" clip-rule="evenodd" d="M11.8364 27.6982L11.8125 27.5662L33.9636 23.5913L33.9875 23.7234L11.8364 27.6982Z" fill="#6150DC"/>
<path fill-rule="evenodd" clip-rule="evenodd" d="M11.8207 27.6103L11.7969 27.4775L33.948 23.5034L33.9711 23.6355L11.8207 27.6103Z" fill="#6150DC"/>
<path fill-rule="evenodd" clip-rule="evenodd" d="M11.8044 27.5222L11.7812 27.3894L33.9324 23.4146L33.9562 23.5473L11.8044 27.5222Z" fill="#6150DC"/>
<path fill-rule="evenodd" clip-rule="evenodd" d="M11.7885 27.4336L11.7646 27.3015L33.9158 23.3267L33.9396 23.4587L11.7885 27.4336Z" fill="#6150DC"/>
<path fill-rule="evenodd" clip-rule="evenodd" d="M11.7729 27.3457L11.749 27.2136L33.9001 23.2388L33.924 23.3708L11.7729 27.3457Z" fill="#6150DC"/>
<path fill-rule="evenodd" clip-rule="evenodd" d="M11.7573 27.2575L11.7334 27.1248L33.8845 23.1499L33.9084 23.2827L11.7573 27.2575Z" fill="#6150DC"/>
<path fill-rule="evenodd" clip-rule="evenodd" d="M11.7416 27.1697L11.7178 27.0369L33.8689 23.062L33.892 23.1948L11.7416 27.1697Z" fill="#6150DC"/>
<path fill-rule="evenodd" clip-rule="evenodd" d="M11.7253 27.0805L11.7021 26.9485L33.8525 22.9736L33.8764 23.1057L11.7253 27.0805Z" fill="#6150DC"/>
<path fill-rule="evenodd" clip-rule="evenodd" d="M11.7094 26.9926L11.6855 26.8606L33.8367 22.8857L33.8605 23.0178L11.7094 26.9926Z" fill="#6150DC"/>
<path fill-rule="evenodd" clip-rule="evenodd" d="M11.6938 26.9045L11.6699 26.7717L33.821 22.7969L33.8449 22.9297L11.6938 26.9045Z" fill="#6150DC"/>
<path fill-rule="evenodd" clip-rule="evenodd" d="M11.6782 26.8159L11.6543 26.6838L33.8054 22.709L33.8285 22.8418L11.6782 26.8159Z" fill="#6150DC"/>
<path fill-rule="evenodd" clip-rule="evenodd" d="M11.6618 26.728L11.6387 26.5959L33.7898 22.6211L33.8137 22.7531L11.6618 26.728Z" fill="#6150DC"/>
<path fill-rule="evenodd" clip-rule="evenodd" d="M11.6462 26.6399L11.623 26.5071L33.7734 22.5322L33.7973 22.665L11.6462 26.6399Z" fill="#6150DC"/>
<path fill-rule="evenodd" clip-rule="evenodd" d="M11.6303 26.552L11.6064 26.4192L33.7576 22.4443L33.7814 22.5771L11.6303 26.552Z" fill="#6150DC"/>
<path fill-rule="evenodd" clip-rule="evenodd" d="M11.6147 26.4629L11.5908 26.3308L33.7419 22.356L33.7658 22.4888L11.6147 26.4629Z" fill="#6150DC"/>
<path fill-rule="evenodd" clip-rule="evenodd" d="M11.5983 26.375L11.5752 26.2429L33.7263 22.2681L33.7494 22.4001L11.5983 26.375Z" fill="#6150DC"/>
<path fill-rule="evenodd" clip-rule="evenodd" d="M11.5827 26.2868L11.5596 26.154L33.7099 22.1792L33.7338 22.312L11.5827 26.2868Z" fill="#6150DC"/>
<path fill-rule="evenodd" clip-rule="evenodd" d="M11.5678 26.199L11.5439 26.0662L33.6951 22.0913L33.7189 22.2241L11.5678 26.199Z" fill="#6150DC"/>
<path fill-rule="evenodd" clip-rule="evenodd" d="M11.5522 26.1103L11.5283 25.9783L33.6794 22.0034L33.7033 22.1355L11.5522 26.1103Z" fill="#6150DC"/>
<path fill-rule="evenodd" clip-rule="evenodd" d="M11.5356 26.0219L11.5117 25.8891L33.6628 21.915L33.6867 22.0471L11.5356 26.0219Z" fill="#6150DC"/>
<path fill-rule="evenodd" clip-rule="evenodd" d="M11.5192 25.9338L11.4961 25.801L33.6472 21.8262L33.6703 21.959L11.5192 25.9338Z" fill="#6150DC"/>
<path fill-rule="evenodd" clip-rule="evenodd" d="M11.5036 25.8452L11.4805 25.7131L33.6308 21.7383L33.6547 21.8711L11.5036 25.8452Z" fill="#6150DC"/>
<path fill-rule="evenodd" clip-rule="evenodd" d="M11.4887 25.7573L11.4648 25.6252L33.616 21.6504L33.6398 21.7824L11.4887 25.7573Z" fill="#6150DC"/>
<path fill-rule="evenodd" clip-rule="evenodd" d="M11.4731 25.6694L11.4492 25.5366L33.6003 21.5625L33.6242 21.6945L11.4731 25.6694Z" fill="#6150DC"/>
<path fill-rule="evenodd" clip-rule="evenodd" d="M11.4557 25.5813L11.4326 25.4485L33.5837 21.4736L33.6069 21.6064L11.4557 25.5813Z" fill="#6150DC"/>
<path fill-rule="evenodd" clip-rule="evenodd" d="M11.4401 25.4926L11.417 25.3606L33.5674 21.3857L33.5912 21.5185L11.4401 25.4926Z" fill="#6150DC"/>
<path fill-rule="evenodd" clip-rule="evenodd" d="M11.4252 25.4043L11.4014 25.2722L33.5525 21.2974L33.5764 21.4294L11.4252 25.4043Z" fill="#6150DC"/>
<path fill-rule="evenodd" clip-rule="evenodd" d="M11.4096 25.3161L11.3857 25.1833L33.5369 21.2085L33.5607 21.3413L11.4096 25.3161Z" fill="#6150DC"/>
<path fill-rule="evenodd" clip-rule="evenodd" d="M11.394 25.2282L11.3701 25.0955L33.5212 21.1206L33.5444 21.2534L11.394 25.2282Z" fill="#6150DC"/>
<path fill-rule="evenodd" clip-rule="evenodd" d="M11.3776 25.1396L11.3545 25.0076L33.5056 21.0327L33.5287 21.1648L11.3776 25.1396Z" fill="#6150DC"/>
<path fill-rule="evenodd" clip-rule="evenodd" d="M11.361 25.0517L11.3379 24.9189L33.4883 20.9448L33.5121 21.0769L11.361 25.0517Z" fill="#6150DC"/>
<path fill-rule="evenodd" clip-rule="evenodd" d="M11.3461 24.9636L11.3223 24.8308L33.4734 20.856L33.4973 20.9888L11.3461 24.9636Z" fill="#6150DC"/>
<path fill-rule="evenodd" clip-rule="evenodd" d="M11.3305 24.8745L11.3066 24.7424L33.4578 20.7676L33.4816 20.9004L11.3305 24.8745Z" fill="#6150DC"/>
<path fill-rule="evenodd" clip-rule="evenodd" d="M11.3141 24.7866L11.291 24.6545L33.4421 20.6797L33.4653 20.8117L11.3141 24.7866Z" fill="#6150DC"/>
<path fill-rule="evenodd" clip-rule="evenodd" d="M11.2985 24.6987L11.2754 24.5659L33.4258 20.5918L33.4504 20.7238L11.2985 24.6987Z" fill="#6150DC"/>
<path fill-rule="evenodd" clip-rule="evenodd" d="M11.2829 24.6106L11.2598 24.4778L33.4101 20.5029L33.434 20.6357L11.2829 24.6106Z" fill="#6150DC"/>
<path fill-rule="evenodd" clip-rule="evenodd" d="M11.267 24.5219L11.2432 24.3899L33.3943 20.415L33.4182 20.5471L11.267 24.5219Z" fill="#6150DC"/>
<path fill-rule="evenodd" clip-rule="evenodd" d="M11.2507 24.4336L11.2275 24.3015L33.3787 20.3267L33.4025 20.4587L11.2507 24.4336Z" fill="#6150DC"/>
<path fill-rule="evenodd" clip-rule="evenodd" d="M11.235 24.3459L11.2119 24.2131L33.363 20.2383L33.3862 20.3711L11.235 24.3459Z" fill="#6150DC"/>
<path fill-rule="evenodd" clip-rule="evenodd" d="M11.2194 24.2575L11.1963 24.1248L33.3467 20.1499L33.3705 20.2827L11.2194 24.2575Z" fill="#6150DC"/>
<path fill-rule="evenodd" clip-rule="evenodd" d="M11.2036 24.1689L11.1797 24.0369L33.3308 20.062L33.3547 20.1941L11.2036 24.1689Z" fill="#6150DC"/>
<path fill-rule="evenodd" clip-rule="evenodd" d="M11.1879 24.081L11.1641 23.9482L33.3152 19.9741L33.3391 20.1062L11.1879 24.081Z" fill="#6150DC"/>
<path fill-rule="evenodd" clip-rule="evenodd" d="M11.1716 23.9929L11.1484 23.8601L33.2996 19.8853L33.3234 20.018L11.1716 23.9929Z" fill="#6150DC"/>
<path fill-rule="evenodd" clip-rule="evenodd" d="M11.1559 23.9043L11.1328 23.7722L33.2832 19.7974L33.3078 19.9302L11.1559 23.9043Z" fill="#6150DC"/>
<path fill-rule="evenodd" clip-rule="evenodd" d="M11.1401 23.8159L11.1162 23.6838L33.2673 19.709L33.2912 19.841L11.1401 23.8159Z" fill="#6150DC"/>
<path fill-rule="evenodd" clip-rule="evenodd" d="M11.1245 23.728L11.1006 23.5952L33.2517 19.6211L33.2756 19.7531L11.1245 23.728Z" fill="#6150DC"/>
<path fill-rule="evenodd" clip-rule="evenodd" d="M11.1081 23.6399L11.085 23.5071L33.2361 19.5322L33.26 19.665L11.1081 23.6399Z" fill="#6150DC"/>
<path fill-rule="evenodd" clip-rule="evenodd" d="M11.0925 23.5512L11.0693 23.4192L33.2205 19.4443L33.2436 19.5771L11.0925 23.5512Z" fill="#6150DC"/>
<path fill-rule="evenodd" clip-rule="evenodd" d="M11.0768 23.4633L11.0537 23.3313L33.2041 19.3564L33.228 19.4885L11.0768 23.4633Z" fill="#6150DC"/>
<path fill-rule="evenodd" clip-rule="evenodd" d="M11.061 23.375L11.0371 23.2422L33.1882 19.2681L33.2121 19.4001L11.061 23.375Z" fill="#6150DC"/>
<path fill-rule="evenodd" clip-rule="evenodd" d="M11.0454 23.2873L11.0215 23.1545L33.1726 19.1797L33.1965 19.3125L11.0454 23.2873Z" fill="#6150DC"/>
<path fill-rule="evenodd" clip-rule="evenodd" d="M11.029 23.1982L11.0059 23.0662L33.157 19.0913L33.1809 19.2234L11.029 23.1982Z" fill="#6150DC"/>
<path fill-rule="evenodd" clip-rule="evenodd" d="M11.0134 23.1103L10.9902 22.9783L33.1414 19.0034L33.1645 19.1355L11.0134 23.1103Z" fill="#6150DC"/>
<path fill-rule="evenodd" clip-rule="evenodd" d="M10.9975 23.0222L10.9736 22.8894L33.1248 18.9146L33.1486 19.0473L10.9975 23.0222Z" fill="#6150DC"/>
<path fill-rule="evenodd" clip-rule="evenodd" d="M10.9819 22.9336L10.958 22.8015L33.1091 18.8267L33.133 18.9595L10.9819 22.9336Z" fill="#6150DC"/>
<path fill-rule="evenodd" clip-rule="evenodd" d="M10.966 22.8457L10.9414 22.7136L33.0933 18.7388L33.1164 18.8708L10.966 22.8457Z" fill="#6150DC"/>
<path fill-rule="evenodd" clip-rule="evenodd" d="M10.9499 22.7573L10.9268 22.6245L33.0779 18.6504L33.101 18.7824L10.9499 22.7573Z" fill="#6150DC"/>
<path fill-rule="evenodd" clip-rule="evenodd" d="M10.9343 22.6697L10.9111 22.5369L33.0615 18.562L33.0854 18.6948L10.9343 22.6697Z" fill="#6150DC"/>
<path fill-rule="evenodd" clip-rule="evenodd" d="M10.9184 22.5805L10.8945 22.4485L33.0457 18.4736L33.0695 18.6064L10.9184 22.5805Z" fill="#6150DC"/>
<path fill-rule="evenodd" clip-rule="evenodd" d="M10.9028 22.4926L10.8789 22.3606L33.03 18.3857L33.0532 18.5178L10.9028 22.4926Z" fill="#6150DC"/>
<path fill-rule="evenodd" clip-rule="evenodd" d="M10.8864 22.4045L10.8633 22.2717L33.0144 18.2969L33.0375 18.4297L10.8864 22.4045Z" fill="#6150DC"/>
<path fill-rule="evenodd" clip-rule="evenodd" d="M10.8708 22.3166L10.8477 22.1838L32.9988 18.209L33.0219 18.3418L10.8708 22.3166Z" fill="#6150DC"/>
<path fill-rule="evenodd" clip-rule="evenodd" d="M10.8549 22.228L10.8311 22.0959L32.9822 18.1211L33.0061 18.2531L10.8549 22.228Z" fill="#6150DC"/>
<path fill-rule="evenodd" clip-rule="evenodd" d="M10.8393 22.1396L10.8154 22.0076L32.9666 18.0327L32.9904 18.1648L10.8393 22.1396Z" fill="#6150DC"/>
<path fill-rule="evenodd" clip-rule="evenodd" d="M10.8237 22.0515L10.7998 21.9187L32.9509 17.9438L32.9741 18.0766L10.8237 22.0515Z" fill="#6150DC"/>
<path fill-rule="evenodd" clip-rule="evenodd" d="M10.8073 21.9636L10.7842 21.8308L32.9353 17.856L32.9584 17.9888L10.8073 21.9636Z" fill="#6150DC"/>
<path fill-rule="evenodd" clip-rule="evenodd" d="M10.7915 21.875L10.7676 21.7429L32.9187 17.7681L32.9426 17.9001L10.7915 21.875Z" fill="#6150DC"/>
<path fill-rule="evenodd" clip-rule="evenodd" d="M10.7758 21.7871L10.752 21.6543L32.9031 17.6802L32.927 17.8122L10.7758 21.7871Z" fill="#6150DC"/>
<path fill-rule="evenodd" clip-rule="evenodd" d="M10.7602 21.6989L10.7363 21.5662L32.8875 17.5913L32.9106 17.7241L10.7602 21.6989Z" fill="#6150DC"/>
<path fill-rule="evenodd" clip-rule="evenodd" d="M10.7438 21.6098L10.7207 21.4778L32.8718 17.5029L32.8957 17.6357L10.7438 21.6098Z" fill="#6150DC"/>
<path fill-rule="evenodd" clip-rule="evenodd" d="M10.7282 21.5219L10.7051 21.3899L32.8555 17.415L32.8793 17.5471L10.7282 21.5219Z" fill="#6150DC"/>
<path fill-rule="evenodd" clip-rule="evenodd" d="M10.7123 21.4338L10.6885 21.301L32.8396 17.3262L32.8635 17.459L10.7123 21.4338Z" fill="#6150DC"/>
<path fill-rule="evenodd" clip-rule="evenodd" d="M10.6967 21.3459L10.6729 21.2131L32.824 17.2383L32.8478 17.3711L10.6967 21.3459Z" fill="#6150DC"/>
<path fill-rule="evenodd" clip-rule="evenodd" d="M10.6811 21.2573L10.6572 21.1252L32.8084 17.1504L32.8315 17.2824L10.6811 21.2573Z" fill="#6150DC"/>
<path fill-rule="evenodd" clip-rule="evenodd" d="M10.6647 21.1694L10.6416 21.0373L32.7927 17.0625L32.8159 17.1945L10.6647 21.1694Z" fill="#6150DC"/>
<path fill-rule="evenodd" clip-rule="evenodd" d="M10.6489 21.0813L10.625 20.9485L32.7761 16.9736L32.8 17.1064L10.6489 21.0813Z" fill="#6150DC"/>
<path fill-rule="evenodd" clip-rule="evenodd" d="M10.6332 20.9929L10.6094 20.8601L32.7605 16.8853L32.7844 17.018L10.6332 20.9929Z" fill="#6150DC"/>
<path fill-rule="evenodd" clip-rule="evenodd" d="M10.6176 20.9043L10.5938 20.7722L32.7449 16.7974L32.768 16.9294L10.6176 20.9043Z" fill="#6150DC"/>
<path fill-rule="evenodd" clip-rule="evenodd" d="M10.6013 20.8164L10.5781 20.6836L32.7292 16.7095L32.7531 16.8415L10.6013 20.8164Z" fill="#6150DC"/>
<path fill-rule="evenodd" clip-rule="evenodd" d="M10.5856 20.7282L10.5625 20.5955L32.7129 16.6206L32.7368 16.7534L10.5856 20.7282Z" fill="#6150DC"/>
<path fill-rule="evenodd" clip-rule="evenodd" d="M10.5698 20.6396L10.5459 20.5076L32.697 16.5327L32.7209 16.6648L10.5698 20.6396Z" fill="#6150DC"/>
<path fill-rule="evenodd" clip-rule="evenodd" d="M10.5541 20.5512L10.5303 20.4192L32.6814 16.4443L32.7053 16.5764L10.5541 20.5512Z" fill="#6150DC"/>
<path fill-rule="evenodd" clip-rule="evenodd" d="M10.5385 20.4636L10.5146 20.3308L32.6658 16.356L32.6889 16.4888L10.5385 20.4636Z" fill="#6150DC"/>
<path fill-rule="evenodd" clip-rule="evenodd" d="M10.5222 20.3752L10.499 20.2424L32.6494 16.2676L32.674 16.4004L10.5222 20.3752Z" fill="#6150DC"/>
<path fill-rule="evenodd" clip-rule="evenodd" d="M10.5065 20.2866L10.4834 20.1545L32.6338 16.1797L32.6576 16.3117L10.5065 20.2866Z" fill="#6150DC"/>
<path fill-rule="evenodd" clip-rule="evenodd" d="M10.4907 20.1987L10.4668 20.0666L32.6179 16.0918L32.6418 16.2238L10.4907 20.1987Z" fill="#6150DC"/>
<path fill-rule="evenodd" clip-rule="evenodd" d="M10.475 20.1106L10.4512 19.9778L32.6023 16.0029L32.6254 16.1357L10.475 20.1106Z" fill="#6150DC"/>
<path fill-rule="evenodd" clip-rule="evenodd" d="M10.4592 20.0219L10.4346 19.8899L32.5864 15.915L32.6096 16.0478L10.4592 20.0219Z" fill="#6150DC"/>
<path fill-rule="evenodd" clip-rule="evenodd" d="M10.443 19.9336L10.4199 19.8015L32.5703 15.8267L32.5942 15.9587L10.443 19.9336Z" fill="#6150DC"/>
<path fill-rule="evenodd" clip-rule="evenodd" d="M10.4272 19.8457L10.4033 19.7129L32.5544 15.7388L32.5783 15.8708L10.4272 19.8457Z" fill="#6150DC"/>
<path fill-rule="evenodd" clip-rule="evenodd" d="M10.4116 19.7575L10.3877 19.6248L32.5388 15.6499L32.5627 15.7827L10.4116 19.7575Z" fill="#6150DC"/>
<path fill-rule="evenodd" clip-rule="evenodd" d="M10.3959 19.6689L10.3721 19.5369L32.5232 15.562L32.5463 15.6948L10.3959 19.6689Z" fill="#6150DC"/>
<path fill-rule="evenodd" clip-rule="evenodd" d="M10.3796 19.581L10.3564 19.449L32.5076 15.4741L32.5307 15.6062L10.3796 19.581Z" fill="#6150DC"/>
<path fill-rule="evenodd" clip-rule="evenodd" d="M10.3639 19.4929L10.3408 19.3601L32.4912 15.3853L32.5151 15.518L10.3639 19.4929Z" fill="#6150DC"/>
<path fill-rule="evenodd" clip-rule="evenodd" d="M10.3481 19.405L10.3242 19.2722L32.4753 15.2974L32.4992 15.4302L10.3481 19.405Z" fill="#6150DC"/>
<path fill-rule="evenodd" clip-rule="evenodd" d="M10.3325 19.3159L10.3086 19.1838L32.4597 15.209L32.4836 15.341L10.3325 19.3159Z" fill="#6150DC"/>
<path fill-rule="evenodd" clip-rule="evenodd" d="M10.3168 19.228L10.293 19.0959L32.4441 15.1211L32.4672 15.2531L10.3168 19.228Z" fill="#6150DC"/>
<path fill-rule="evenodd" clip-rule="evenodd" d="M10.3005 19.1399L10.2773 19.0071L32.4277 15.0322L32.4516 15.165L10.3005 19.1399Z" fill="#6150DC"/>
<path fill-rule="evenodd" clip-rule="evenodd" d="M10.2846 19.0512L10.2607 18.9192L32.4119 14.9443L32.4357 15.0771L10.2846 19.0512Z" fill="#6150DC"/>
<path fill-rule="evenodd" clip-rule="evenodd" d="M10.269 18.9633L10.2451 18.8313L32.3962 14.8564L32.4201 14.9885L10.269 18.9633Z" fill="#6150DC"/>
<path fill-rule="evenodd" clip-rule="evenodd" d="M10.2534 18.875L10.2295 18.7422L32.3806 14.7681L32.4037 14.9001L10.2534 18.875Z" fill="#6150DC"/>
<path fill-rule="evenodd" clip-rule="evenodd" d="M10.237 18.7868L10.2139 18.654L32.365 14.6792L32.3889 14.812L10.237 18.7868Z" fill="#6150DC"/>
<path fill-rule="evenodd" clip-rule="evenodd" d="M10.2214 18.6982L10.1982 18.5662L32.3486 14.5913L32.3725 14.7241L10.2214 18.6982Z" fill="#6150DC"/>
<path fill-rule="evenodd" clip-rule="evenodd" d="M10.2055 18.6103L10.1816 18.4783L32.3328 14.5034L32.3566 14.6355L10.2055 18.6103Z" fill="#6150DC"/>
<path fill-rule="evenodd" clip-rule="evenodd" d="M10.1899 18.5222L10.166 18.3894L32.3171 14.4146L32.341 14.5473L10.1899 18.5222Z" fill="#6150DC"/>
<path fill-rule="evenodd" clip-rule="evenodd" d="M10.1735 18.4343L10.1504 18.3015L32.3015 14.3267L32.3246 14.4595L10.1735 18.4343Z" fill="#6150DC"/>
<path fill-rule="evenodd" clip-rule="evenodd" d="M10.1579 18.3457L10.1348 18.2136L32.2851 14.2388L32.3098 14.3708L10.1579 18.3457Z" fill="#6150DC"/>
<path fill-rule="evenodd" clip-rule="evenodd" d="M10.142 18.2573L10.1182 18.1245L32.2693 14.1504L32.2932 14.2824L10.142 18.2573Z" fill="#6150DC"/>
<path fill-rule="evenodd" clip-rule="evenodd" d="M10.1264 18.1692L10.1025 18.0364L32.2537 14.0615L32.2775 14.1943L10.1264 18.1692Z" fill="#6150DC"/>
<path fill-rule="evenodd" clip-rule="evenodd" d="M10.1108 18.0805L10.0869 17.9485L32.238 13.9736L32.2612 14.1064L10.1108 18.0805Z" fill="#6150DC"/>
<path fill-rule="evenodd" clip-rule="evenodd" d="M10.0944 17.9926L10.0713 17.8606L32.2224 13.8857L32.2463 14.0178L10.0944 17.9926Z" fill="#6150DC"/>
<path fill-rule="evenodd" clip-rule="evenodd" d="M10.0788 17.9047L10.0557 17.772L32.206 13.7979L32.2299 13.9299L10.0788 17.9047Z" fill="#6150DC"/>
<path fill-rule="evenodd" clip-rule="evenodd" d="M10.0629 17.8166L10.0391 17.6838L32.1902 13.709L32.2141 13.8418L10.0629 17.8166Z" fill="#6150DC"/>
<path fill-rule="evenodd" clip-rule="evenodd" d="M10.0473 17.7275L10.0234 17.5955L32.1746 13.6206L32.1984 13.7527L10.0473 17.7275Z" fill="#6150DC"/>
<path fill-rule="evenodd" clip-rule="evenodd" d="M10.0309 17.6396L10.0078 17.5076L32.1589 13.5327L32.1821 13.6648L10.0309 17.6396Z" fill="#6150DC"/>
<path fill-rule="evenodd" clip-rule="evenodd" d="M10.0153 17.5515L9.99219 17.4187L32.1426 13.4438L32.1672 13.5766L10.0153 17.5515Z" fill="#6150DC"/>
<path fill-rule="evenodd" clip-rule="evenodd" d="M10.0004 17.4636L9.97656 17.3308L32.1277 13.356L32.1516 13.4888L10.0004 17.4636Z" fill="#6150DC"/>
<path fill-rule="evenodd" clip-rule="evenodd" d="M9.98383 17.375L9.95996 17.2429L32.1111 13.2681L32.135 13.4001L9.98383 17.375Z" fill="#6150DC"/>
<path fill-rule="evenodd" clip-rule="evenodd" d="M9.96746 17.2866L9.94434 17.1538L32.0955 13.1797L32.1193 13.3117L9.96746 17.2866Z" fill="#6150DC"/>
<path fill-rule="evenodd" clip-rule="evenodd" d="M9.95258 17.199L9.92871 17.0662L32.0806 13.0913L32.1037 13.2241L9.95258 17.199Z" fill="#6150DC"/>
<path fill-rule="evenodd" clip-rule="evenodd" d="M9.93621 17.1106L9.91309 16.9778L32.0635 13.0029L32.0873 13.1357L9.93621 17.1106Z" fill="#6150DC"/>
<path fill-rule="evenodd" clip-rule="evenodd" d="M9.92133 17.0219L9.89746 16.8899L32.0486 12.915L32.0725 13.0471L9.92133 17.0219Z" fill="#6150DC"/>
<path fill-rule="evenodd" clip-rule="evenodd" d="M9.90571 16.934L9.88184 16.8013L32.033 12.8271L32.0568 12.9592L9.90571 16.934Z" fill="#6150DC"/>
<path fill-rule="evenodd" clip-rule="evenodd" d="M9.88836 16.8459L9.86523 16.7131L32.0164 12.7383L32.0395 12.8711L9.88836 16.8459Z" fill="#6150DC"/>
<path fill-rule="evenodd" clip-rule="evenodd" d="M9.87274 16.7573L9.84961 16.6252L32 12.6504L32.0239 12.7824L9.87274 16.7573Z" fill="#6150DC"/>
<path fill-rule="evenodd" clip-rule="evenodd" d="M9.85786 16.6689L9.83398 16.5369L31.9851 12.562L32.009 12.6941L9.85786 16.6689Z" fill="#6150DC"/>
<path fill-rule="evenodd" clip-rule="evenodd" d="M9.84223 16.5813L9.81836 16.4485L31.9695 12.4736L31.9934 12.6064L9.84223 16.5813Z" fill="#6150DC"/>
<path fill-rule="evenodd" clip-rule="evenodd" d="M9.82586 16.4929L9.80273 16.3601L31.9539 12.3853L31.9777 12.518L9.82586 16.4929Z" fill="#6150DC"/>
<path fill-rule="evenodd" clip-rule="evenodd" d="M9.80926 16.4043L9.78613 16.2722L31.9373 12.2974L31.9604 12.4294L9.80926 16.4043Z" fill="#6150DC"/>
<path fill-rule="evenodd" clip-rule="evenodd" d="M9.79438 16.3164L9.77051 16.1836L31.9216 12.2095L31.9455 12.3415L9.79438 16.3164Z" fill="#6150DC"/>
<path fill-rule="evenodd" clip-rule="evenodd" d="M9.77876 16.2282L9.75488 16.0955L31.906 12.1206L31.9299 12.2534L9.77876 16.2282Z" fill="#6150DC"/>
<path fill-rule="evenodd" clip-rule="evenodd" d="M9.76313 16.1396L9.73926 16.0076L31.8904 12.0327L31.9135 12.1655L9.76313 16.1396Z" fill="#6150DC"/>
<path fill-rule="evenodd" clip-rule="evenodd" d="M9.74676 16.0512L9.72363 15.9192L31.8748 11.9443L31.8979 12.0764L9.74676 16.0512Z" fill="#6150DC"/>
<path fill-rule="evenodd" clip-rule="evenodd" d="M9.73113 15.9633L9.70801 15.8305L31.8584 11.8564L31.883 11.9885L9.73113 15.9633Z" fill="#6150DC"/>
<path fill-rule="evenodd" clip-rule="evenodd" d="M9.71528 15.8752L9.69141 15.7424L31.8425 11.7676L31.8664 11.9004L9.71528 15.8752Z" fill="#6150DC"/>
<path fill-rule="evenodd" clip-rule="evenodd" d="M9.69965 15.7866L9.67578 15.6545L31.8269 11.6797L31.85 11.8117L9.69965 15.7866Z" fill="#6150DC"/>
<path fill-rule="evenodd" clip-rule="evenodd" d="M9.68403 15.6987L9.66016 15.5666L31.8113 11.5918L31.8344 11.7238L9.68403 15.6987Z" fill="#6150DC"/>
<path fill-rule="evenodd" clip-rule="evenodd" d="M9.66766 15.6106L9.64453 15.4778L31.7957 11.5029L31.8188 11.6357L9.66766 15.6106Z" fill="#6150DC"/>
<path fill-rule="evenodd" clip-rule="evenodd" d="M9.6518 15.5227L9.62793 15.3899L31.7791 11.415L31.8029 11.5478L9.6518 15.5227Z" fill="#6150DC"/>
<path fill-rule="evenodd" clip-rule="evenodd" d="M9.63618 15.4336L9.6123 15.3015L31.7634 11.3267L31.7873 11.4587L9.63618 15.4336Z" fill="#6150DC"/>
<path fill-rule="evenodd" clip-rule="evenodd" d="M9.62055 15.3457L9.59668 15.2129L31.7478 11.2388L31.7709 11.3708L9.62055 15.3457Z" fill="#6150DC"/>
<path fill-rule="evenodd" clip-rule="evenodd" d="M9.60418 15.2575L9.58105 15.1248L31.7322 11.1499L31.7553 11.2827L9.60418 15.2575Z" fill="#6150DC"/>
<path fill-rule="evenodd" clip-rule="evenodd" d="M9.58856 15.1689L9.56543 15.0369L31.7158 11.062L31.7404 11.1948L9.58856 15.1689Z" fill="#6150DC"/>
<path fill-rule="evenodd" clip-rule="evenodd" d="M9.5727 15.081L9.54883 14.949L31.7 10.9741L31.7238 11.1062L9.5727 15.081Z" fill="#6150DC"/>
<path fill-rule="evenodd" clip-rule="evenodd" d="M9.55708 14.9926L9.5332 14.8598L31.6843 10.8857L31.7075 11.0178L9.55708 14.9926Z" fill="#6150DC"/>
<path fill-rule="evenodd" clip-rule="evenodd" d="M9.5407 14.9045L9.51758 14.7717L31.6687 10.7969L31.6926 10.9297L9.5407 14.9045Z" fill="#6150DC"/>
<path fill-rule="evenodd" clip-rule="evenodd" d="M9.52508 14.8159L9.50195 14.6838L31.6531 10.709L31.6762 10.8418L9.52508 14.8159Z" fill="#6150DC"/>
<path fill-rule="evenodd" clip-rule="evenodd" d="M9.50922 14.728L9.48535 14.5959L31.6365 10.6211L31.6603 10.7531L9.50922 14.728Z" fill="#6150DC"/>
<path fill-rule="evenodd" clip-rule="evenodd" d="M9.4936 14.6399L9.46973 14.5071L31.6209 10.5322L31.6447 10.665L9.4936 14.6399Z" fill="#6150DC"/>
<path fill-rule="evenodd" clip-rule="evenodd" d="M9.47797 14.5512L9.4541 14.4192L31.6052 10.4443L31.6284 10.5771L9.47797 14.5512Z" fill="#6150DC"/>
<path fill-rule="evenodd" clip-rule="evenodd" d="M9.4616 14.4629L9.43848 14.3308L31.5896 10.356L31.6127 10.488L9.4616 14.4629Z" fill="#6150DC"/>
<path fill-rule="evenodd" clip-rule="evenodd" d="M9.44598 14.375L9.42285 14.2422L31.5732 10.2681L31.5971 10.4001L9.44598 14.375Z" fill="#6150DC"/>
<path fill-rule="evenodd" clip-rule="evenodd" d="M9.43012 14.2868L9.40625 14.154L31.5574 10.1792L31.5812 10.312L9.43012 14.2868Z" fill="#6150DC"/>
<path fill-rule="evenodd" clip-rule="evenodd" d="M9.4145 14.1982L9.39062 14.0662L31.5417 10.0913L31.5649 10.2241L9.4145 14.1982Z" fill="#6150DC"/>
<path fill-rule="evenodd" clip-rule="evenodd" d="M9.39813 14.1103L9.375 13.9783L31.5261 10.0034L31.55 10.1355L9.39813 14.1103Z" fill="#6150DC"/>
<path fill-rule="evenodd" clip-rule="evenodd" d="M9.3825 14.0224L9.35938 13.8896L31.5105 9.91553L31.5336 10.0476L9.3825 14.0224Z" fill="#6150DC"/>
<path fill-rule="evenodd" clip-rule="evenodd" d="M9.36665 13.9343L9.34277 13.8015L31.4939 9.82666L31.5178 9.95945L9.36665 13.9343Z" fill="#6150DC"/>
<path fill-rule="evenodd" clip-rule="evenodd" d="M9.35102 13.8452L9.32715 13.7131L31.4783 9.73828L31.5021 9.87108L9.35102 13.8452Z" fill="#6150DC"/>
<path fill-rule="evenodd" clip-rule="evenodd" d="M9.3354 13.7573L9.31152 13.6252L31.4626 9.65039L31.4858 9.78244L9.3354 13.7573Z" fill="#6150DC"/>
<path fill-rule="evenodd" clip-rule="evenodd" d="M9.31903 13.6692L9.2959 13.5364L31.447 9.56152L31.4709 9.69432L9.31903 13.6692Z" fill="#6150DC"/>
<path fill-rule="evenodd" clip-rule="evenodd" d="M9.3034 13.5813L9.28027 13.4485L31.4307 9.47363L31.4545 9.60643L9.3034 13.5813Z" fill="#6150DC"/>
<path fill-rule="evenodd" clip-rule="evenodd" d="M9.28754 13.4926L9.26367 13.3606L31.4148 9.38574L31.4387 9.51779L9.28754 13.4926Z" fill="#6150DC"/>
<path fill-rule="evenodd" clip-rule="evenodd" d="M9.27192 13.4043L9.24805 13.2722L31.3992 9.29736L31.423 9.42941L9.27192 13.4043Z" fill="#6150DC"/>
<path fill-rule="evenodd" clip-rule="evenodd" d="M9.25629 13.3166L9.23242 13.1838L31.3835 9.20898L31.4067 9.34178L9.25629 13.3166Z" fill="#6150DC"/>
<path fill-rule="evenodd" clip-rule="evenodd" d="M9.23992 13.2275L9.2168 13.0955L31.3679 9.12061L31.391 9.2534L9.23992 13.2275Z" fill="#6150DC"/>
<path fill-rule="evenodd" clip-rule="evenodd" d="M9.22407 13.1396L9.2002 13.0076L31.3513 9.03271L31.3752 9.16476L9.22407 13.1396Z" fill="#6150DC"/>
<path fill-rule="evenodd" clip-rule="evenodd" d="M9.20844 13.0515L9.18457 12.9187L31.3357 8.94385L31.3596 9.07664L9.20844 13.0515Z" fill="#6150DC"/>
<path fill-rule="evenodd" clip-rule="evenodd" d="M9.19282 12.9636L9.16895 12.8308L31.3201 8.85596L31.3432 8.98875L9.19282 12.9636Z" fill="#6150DC"/>
<path fill-rule="evenodd" clip-rule="evenodd" d="M9.17645 12.875L9.15332 12.7429L31.3044 8.76807L31.3283 8.90086L9.17645 12.875Z" fill="#6150DC"/>
<path fill-rule="evenodd" clip-rule="evenodd" d="M9.16082 12.7866L9.1377 12.6545L31.2881 8.67969L31.3119 8.81174L9.16082 12.7866Z" fill="#6150DC"/>
<path fill-rule="evenodd" clip-rule="evenodd" d="M9.14497 12.699L9.12109 12.5662L31.2722 8.59131L31.2961 8.7241L9.14497 12.699Z" fill="#6150DC"/>
<path fill-rule="evenodd" clip-rule="evenodd" d="M9.12934 12.6106L9.10547 12.4778L31.2566 8.50293L31.2805 8.63572L9.12934 12.6106Z" fill="#6150DC"/>
<path fill-rule="evenodd" clip-rule="evenodd" d="M9.11372 12.5219L9.08984 12.3899L31.241 8.41504L31.2641 8.54709L9.11372 12.5219Z" fill="#6150DC"/>
<path fill-rule="evenodd" clip-rule="evenodd" d="M9.09735 12.434L9.07422 12.3013L31.2253 8.32715L31.2485 8.4592L9.09735 12.434Z" fill="#6150DC"/>
<path fill-rule="evenodd" clip-rule="evenodd" d="M9.08149 12.3459L9.05762 12.2131L31.2087 8.23828L31.2326 8.37107L9.08149 12.3459Z" fill="#6150DC"/>
<path fill-rule="evenodd" clip-rule="evenodd" d="M9.06587 12.2573L9.04199 12.1252L31.1931 8.15039L31.217 8.28318L9.06587 12.2573Z" fill="#6150DC"/>
<path fill-rule="evenodd" clip-rule="evenodd" d="M9.05024 12.1689L9.02637 12.0369L31.1775 8.06201L31.2006 8.19406L9.05024 12.1689Z" fill="#6150DC"/>
<path fill-rule="evenodd" clip-rule="evenodd" d="M9.03387 12.081L9.01074 11.9482L31.1619 7.97412L31.1857 8.10617L9.03387 12.081Z" fill="#6150DC"/>
<path fill-rule="evenodd" clip-rule="evenodd" d="M9.0182 11.9929L9.01074 11.9519L31.1626 7.97705L31.1693 8.01808L9.0182 11.9929Z" fill="#6150DC"/>
</g>
<path d="M10.3809 13.1324C10.3809 15.357 12.2012 17.1774 14.4258 17.1774C16.6505 17.1774 18.4708 15.3578 18.4708 13.1324C18.4708 10.907 16.6505 9.0874 14.4258 9.0874C12.2012 9.0874 10.3809 10.9077 10.3809 13.1324Z" fill="#6150DC"/>
<mask id="mask1_2389_4845" style="mask-type:luminance" maskUnits="userSpaceOnUse" x="10" y="9" width="9" height="9">
<path d="M10.3809 13.1324C10.3809 15.357 12.2012 17.1774 14.4258 17.1774C16.6505 17.1774 18.4708 15.3578 18.4708 13.1324C18.4708 10.907 16.6505 9.0874 14.4258 9.0874C12.2012 9.0874 10.3809 10.9077 10.3809 13.1324Z" fill="white"/>
</mask>
<g mask="url(#mask1_2389_4845)">
<path fill-rule="evenodd" clip-rule="evenodd" d="M10.8926 18.2106L10.8971 18.2367L19.5077 16.6916L19.5033 16.6655L10.8926 18.2106Z" fill="#6150DC"/>
<path fill-rule="evenodd" clip-rule="evenodd" d="M10.9057 18.2808L10.8818 18.1481L19.4925 16.603L19.5164 16.7358L10.9057 18.2808Z" fill="#6150DC"/>
<path fill-rule="evenodd" clip-rule="evenodd" d="M10.8893 18.193L10.8662 18.0602L19.4761 16.5151L19.5 16.6479L10.8893 18.193Z" fill="#6150DC"/>
<path fill-rule="evenodd" clip-rule="evenodd" d="M10.8737 18.1038L10.8506 17.9718L19.4605 16.4268L19.4844 16.5588L10.8737 18.1038Z" fill="#6150DC"/>
<path fill-rule="evenodd" clip-rule="evenodd" d="M10.8579 18.0159L10.834 17.8832L19.4447 16.3389L19.4678 16.4709L10.8579 18.0159Z" fill="#6150DC"/>
<path fill-rule="evenodd" clip-rule="evenodd" d="M10.8422 17.9278L10.8184 17.795L19.429 16.25L19.4529 16.3828L10.8422 17.9278Z" fill="#6150DC"/>
<path fill-rule="evenodd" clip-rule="evenodd" d="M10.8266 17.8392L10.8027 17.7071L19.4134 16.1621L19.4365 16.2942L10.8266 17.8392Z" fill="#6150DC"/>
<path fill-rule="evenodd" clip-rule="evenodd" d="M10.8102 17.7513L10.7871 17.6192L19.397 16.0742L19.4209 16.2063L10.8102 17.7513Z" fill="#6150DC"/>
<path fill-rule="evenodd" clip-rule="evenodd" d="M10.7946 17.6629L10.7715 17.5301L19.3814 15.9858L19.4053 16.1179L10.7946 17.6629Z" fill="#6150DC"/>
<path fill-rule="evenodd" clip-rule="evenodd" d="M10.7788 17.5753L10.7549 17.4425L19.3656 15.8975L19.3887 16.0303L10.7788 17.5753Z" fill="#6150DC"/>
<path fill-rule="evenodd" clip-rule="evenodd" d="M10.7631 17.4862L10.7393 17.3541L19.3499 15.8091L19.3738 15.9419L10.7631 17.4862Z" fill="#6150DC"/>
<path fill-rule="evenodd" clip-rule="evenodd" d="M10.7475 17.3983L10.7236 17.2662L19.3343 15.7212L19.3574 15.8532L10.7475 17.3983Z" fill="#6150DC"/>
<path fill-rule="evenodd" clip-rule="evenodd" d="M10.7311 17.3104L10.708 17.1776L19.3179 15.6333L19.3418 15.7653L10.7311 17.3104Z" fill="#6150DC"/>
<path fill-rule="evenodd" clip-rule="evenodd" d="M10.7153 17.2215L10.6914 17.0895L19.3021 15.5444L19.326 15.6772L10.7153 17.2215Z" fill="#6150DC"/>
<path fill-rule="evenodd" clip-rule="evenodd" d="M10.6997 17.1336L10.6758 17.0016L19.2865 15.4565L19.3096 15.5886L10.6997 17.1336Z" fill="#6150DC"/>
<path fill-rule="evenodd" clip-rule="evenodd" d="M10.684 17.0452L10.6602 16.9124L19.2708 15.3682L19.294 15.5002L10.684 17.0452Z" fill="#6150DC"/>
<path fill-rule="evenodd" clip-rule="evenodd" d="M10.6677 16.9576L10.6445 16.8248L19.2545 15.2798L19.2783 15.4126L10.6677 16.9576Z" fill="#6150DC"/>
<path fill-rule="evenodd" clip-rule="evenodd" d="M10.652 16.8685L10.6289 16.7364L19.2388 15.1914L19.2627 15.3235L10.652 16.8685Z" fill="#6150DC"/>
<path fill-rule="evenodd" clip-rule="evenodd" d="M10.6362 16.7806L10.6123 16.6485L19.223 15.1035L19.2461 15.2356L10.6362 16.7806Z" fill="#6150DC"/>
<path fill-rule="evenodd" clip-rule="evenodd" d="M10.6206 16.6927L10.5967 16.5599L19.2074 15.0156L19.2305 15.1477L10.6206 16.6927Z" fill="#6150DC"/>
<path fill-rule="evenodd" clip-rule="evenodd" d="M10.6049 16.6046L10.5811 16.4718L19.1917 14.9268L19.2149 15.0596L10.6049 16.6046Z" fill="#6150DC"/>
<path fill-rule="evenodd" clip-rule="evenodd" d="M10.5886 16.5159L10.5654 16.3839L19.1754 14.8389L19.1992 14.9717L10.5886 16.5159Z" fill="#6150DC"/>
<path fill-rule="evenodd" clip-rule="evenodd" d="M10.5727 16.4276L10.5488 16.2955L19.1595 14.7505L19.1834 14.8825L10.5727 16.4276Z" fill="#6150DC"/>
<path fill-rule="evenodd" clip-rule="evenodd" d="M10.5571 16.3394L10.5332 16.2067L19.1439 14.6616L19.167 14.7944L10.5571 16.3394Z" fill="#6150DC"/>
<path fill-rule="evenodd" clip-rule="evenodd" d="M10.5415 16.2508L10.5176 16.1188L19.1283 14.5737L19.1514 14.7065L10.5415 16.2508Z" fill="#6150DC"/>
<path fill-rule="evenodd" clip-rule="evenodd" d="M10.5251 16.1629L10.502 16.0309L19.1119 14.4858L19.1358 14.6179L10.5251 16.1629Z" fill="#6150DC"/>
<path fill-rule="evenodd" clip-rule="evenodd" d="M10.5095 16.075L10.4863 15.9422L19.0963 14.3979L19.1201 14.53L10.5095 16.075Z" fill="#6150DC"/>
<path fill-rule="evenodd" clip-rule="evenodd" d="M10.4936 15.9869L10.4697 15.8541L19.0804 14.3091L19.1035 14.4419L10.4936 15.9869Z" fill="#6150DC"/>
<path fill-rule="evenodd" clip-rule="evenodd" d="M10.478 15.8983L10.4541 15.7662L19.0648 14.2212L19.0879 14.354L10.478 15.8983Z" fill="#6150DC"/>
<path fill-rule="evenodd" clip-rule="evenodd" d="M10.4624 15.8099L10.4385 15.6778L19.0484 14.1328L19.0723 14.2649L10.4624 15.8099Z" fill="#6150DC"/>
<path fill-rule="evenodd" clip-rule="evenodd" d="M10.446 15.722L10.4229 15.5892L19.0328 14.0449L19.0567 14.177L10.446 15.722Z" fill="#6150DC"/>
<path fill-rule="evenodd" clip-rule="evenodd" d="M10.4304 15.6339L10.4072 15.5011L19.0172 13.9561L19.041 14.0888L10.4304 15.6339Z" fill="#6150DC"/>
<path fill-rule="evenodd" clip-rule="evenodd" d="M10.4145 15.5452L10.3906 15.4132L19.0013 13.8682L19.0244 14.001L10.4145 15.5452Z" fill="#6150DC"/>
<path fill-rule="evenodd" clip-rule="evenodd" d="M10.3989 15.4573L10.375 15.3253L18.9849 13.7803L19.0096 13.9123L10.3989 15.4573Z" fill="#6150DC"/>
<path fill-rule="evenodd" clip-rule="evenodd" d="M10.3825 15.3692L10.3594 15.2364L18.9693 13.6914L18.9932 13.8242L10.3825 15.3692Z" fill="#6150DC"/>
<path fill-rule="evenodd" clip-rule="evenodd" d="M10.3669 15.2801L10.3438 15.1481L18.9537 13.603L18.9776 13.7358L10.3669 15.2801Z" fill="#6150DC"/>
<path fill-rule="evenodd" clip-rule="evenodd" d="M10.351 15.1922L10.3271 15.0602L18.9378 13.5151L18.9617 13.6472L10.351 15.1922Z" fill="#6150DC"/>
<path fill-rule="evenodd" clip-rule="evenodd" d="M10.3354 15.1043L10.3115 14.9715L18.9222 13.4272L18.9461 13.5593L10.3354 15.1043Z" fill="#6150DC"/>
<path fill-rule="evenodd" clip-rule="evenodd" d="M10.319 15.0162L10.2959 14.8834L18.9058 13.3384L18.9297 13.4712L10.319 15.0162Z" fill="#6150DC"/>
<path fill-rule="evenodd" clip-rule="evenodd" d="M10.3034 14.9276L10.2803 14.7955L18.8902 13.2505L18.9141 13.3833L10.3034 14.9276Z" fill="#6150DC"/>
<path fill-rule="evenodd" clip-rule="evenodd" d="M10.2878 14.8392L10.2646 14.7071L18.8746 13.1621L18.8985 13.2942L10.2878 14.8392Z" fill="#6150DC"/>
<path fill-rule="evenodd" clip-rule="evenodd" d="M10.2719 14.7513L10.248 14.6185L18.8587 13.0742L18.8819 13.2063L10.2719 14.7513Z" fill="#6150DC"/>
<path fill-rule="evenodd" clip-rule="evenodd" d="M10.2563 14.6632L10.2324 14.5304L18.8424 12.9854L18.867 13.1181L10.2563 14.6632Z" fill="#6150DC"/>
<path fill-rule="evenodd" clip-rule="evenodd" d="M10.2399 14.5745L10.2168 14.4425L18.8267 12.8975L18.8506 13.0303L10.2399 14.5745Z" fill="#6150DC"/>
<path fill-rule="evenodd" clip-rule="evenodd" d="M10.2243 14.4866L10.2012 14.3546L18.8111 12.8096L18.835 12.9416L10.2243 14.4866Z" fill="#6150DC"/>
<path fill-rule="evenodd" clip-rule="evenodd" d="M10.2084 14.3985L10.1846 14.2657L18.7952 12.7207L18.8191 12.8535L10.2084 14.3985Z" fill="#6150DC"/>
<path fill-rule="evenodd" clip-rule="evenodd" d="M10.1928 14.3106L10.1689 14.1778L18.7796 12.6328L18.8028 12.7656L10.1928 14.3106Z" fill="#6150DC"/>
<path fill-rule="evenodd" clip-rule="evenodd" d="M10.1764 14.2215L10.1533 14.0895L18.7633 12.5444L18.7871 12.6765L10.1764 14.2215Z" fill="#6150DC"/>
<path fill-rule="evenodd" clip-rule="evenodd" d="M10.1608 14.1336L10.1377 14.0008L18.7476 12.4565L18.7715 12.5886L10.1608 14.1336Z" fill="#6150DC"/>
<path fill-rule="evenodd" clip-rule="evenodd" d="M10.1452 14.0455L10.1221 13.9127L18.732 12.3677L18.7559 12.4997L10.1452 14.0455Z" fill="#6150DC"/>
<path fill-rule="evenodd" clip-rule="evenodd" d="M10.1293 13.9569L10.1055 13.8248L18.7161 12.2798L18.7393 12.4126L10.1293 13.9569Z" fill="#6150DC"/>
<path fill-rule="evenodd" clip-rule="evenodd" d="M10.1137 13.869L10.0898 13.7369L18.6998 12.1919L18.7244 12.3239L10.1137 13.869Z" fill="#6150DC"/>
<path fill-rule="evenodd" clip-rule="evenodd" d="M10.0973 13.7806L10.0742 13.6478L18.6842 12.1035L18.708 12.2348L10.0973 13.7806Z" fill="#6150DC"/>
<path fill-rule="evenodd" clip-rule="evenodd" d="M10.0817 13.693L10.0586 13.5602L18.6685 12.0151L18.6924 12.1479L10.0817 13.693Z" fill="#6150DC"/>
<path fill-rule="evenodd" clip-rule="evenodd" d="M10.0668 13.6038L10.043 13.4718L18.6536 11.9268L18.6775 12.0596L10.0668 13.6038Z" fill="#6150DC"/>
<path fill-rule="evenodd" clip-rule="evenodd" d="M10.0502 13.5159L10.0264 13.3839L18.637 11.8389L18.6602 11.9709L10.0502 13.5159Z" fill="#6150DC"/>
<path fill-rule="evenodd" clip-rule="evenodd" d="M10.0339 13.4278L10.0107 13.295L18.6207 11.75L18.6445 11.8828L10.0339 13.4278Z" fill="#6150DC"/>
<path fill-rule="evenodd" clip-rule="evenodd" d="M10.0182 13.3399L9.99512 13.2071L18.6051 11.6621L18.6289 11.7949L10.0182 13.3399Z" fill="#6150DC"/>
<path fill-rule="evenodd" clip-rule="evenodd" d="M10.0034 13.2513L9.97949 13.1192L18.5902 11.5742L18.614 11.7063L10.0034 13.2513Z" fill="#6150DC"/>
<path fill-rule="evenodd" clip-rule="evenodd" d="M9.98774 13.1629L9.96387 13.0301L18.5745 11.4858L18.5977 11.6179L9.98774 13.1629Z" fill="#6150DC"/>
<path fill-rule="evenodd" clip-rule="evenodd" d="M9.97114 13.0753L9.94727 12.9425L18.5579 11.3975L18.5811 11.5303L9.97114 13.0753Z" fill="#6150DC"/>
<path fill-rule="evenodd" clip-rule="evenodd" d="M9.95477 12.9862L9.93164 12.8541L18.5416 11.3091L18.5654 11.4419L9.95477 12.9862Z" fill="#6150DC"/>
<path fill-rule="evenodd" clip-rule="evenodd" d="M9.93914 12.8983L9.91602 12.7662L18.5259 11.2212L18.5498 11.3532L9.93914 12.8983Z" fill="#6150DC"/>
<path fill-rule="evenodd" clip-rule="evenodd" d="M9.92426 12.8104L9.90039 12.6776L18.5111 11.1333L18.5342 11.2653L9.92426 12.8104Z" fill="#6150DC"/>
<path fill-rule="evenodd" clip-rule="evenodd" d="M9.90864 12.7223L9.88477 12.5895L18.4954 11.0444L18.5186 11.1772L9.90864 12.7223Z" fill="#6150DC"/>
<path fill-rule="evenodd" clip-rule="evenodd" d="M9.89227 12.6336L9.86914 12.5016L18.4791 10.9565L18.5037 11.0893L9.89227 12.6336Z" fill="#6150DC"/>
<path fill-rule="evenodd" clip-rule="evenodd" d="M9.87567 12.5452L9.85254 12.4132L18.4625 10.8682L18.4863 11.0002L9.87567 12.5452Z" fill="#6150DC"/>
<path fill-rule="evenodd" clip-rule="evenodd" d="M9.86079 12.4573L9.83691 12.3246L18.4476 10.7803L18.4715 10.9123L9.86079 12.4573Z" fill="#6150DC"/>
<path fill-rule="evenodd" clip-rule="evenodd" d="M9.84516 12.3685L9.82129 12.2364L18.432 10.6914L18.4551 10.8242L9.84516 12.3685Z" fill="#6150DC"/>
<path fill-rule="evenodd" clip-rule="evenodd" d="M9.82879 12.2806L9.80566 12.1485L18.4156 10.6035L18.4402 10.7356L9.82879 12.2806Z" fill="#6150DC"/>
<path fill-rule="evenodd" clip-rule="evenodd" d="M9.81317 12.1927L9.79004 12.0599L18.4 10.5156L18.4238 10.6477L9.81317 12.1927Z" fill="#6150DC"/>
<path fill-rule="evenodd" clip-rule="evenodd" d="M9.79656 12.1046L9.77344 11.9718L18.3834 10.4268L18.4072 10.5596L9.79656 12.1046Z" fill="#6150DC"/>
<path fill-rule="evenodd" clip-rule="evenodd" d="M9.78168 12.0155L9.75781 11.8834L18.3685 10.3384L18.3916 10.4712L9.78168 12.0155Z" fill="#6150DC"/>
<path fill-rule="evenodd" clip-rule="evenodd" d="M9.76606 11.9276L9.74219 11.7955L18.3529 10.2505L18.376 10.3825L9.76606 11.9276Z" fill="#6150DC"/>
<path fill-rule="evenodd" clip-rule="evenodd" d="M9.74969 11.8397L9.72656 11.7069L18.3365 10.1626L18.3604 10.2946L9.74969 11.8397Z" fill="#6150DC"/>
<path fill-rule="evenodd" clip-rule="evenodd" d="M9.73406 11.7516L9.71094 11.6188L18.3209 10.0737L18.3447 10.2058L9.73406 11.7516Z" fill="#6150DC"/>
<path fill-rule="evenodd" clip-rule="evenodd" d="M9.71821 11.6629L9.69434 11.5309L18.305 9.98584L18.3289 10.1179L9.71821 11.6629Z" fill="#6150DC"/>
<path fill-rule="evenodd" clip-rule="evenodd" d="M9.70258 11.575L9.67871 11.443L18.2894 9.89795L18.3133 10.03L9.70258 11.575Z" fill="#6150DC"/>
<path fill-rule="evenodd" clip-rule="evenodd" d="M9.68696 11.4866L9.66309 11.3539L18.2738 9.80957L18.2969 9.94087L9.68696 11.4866Z" fill="#6150DC"/>
<path fill-rule="evenodd" clip-rule="evenodd" d="M9.67059 11.3978L9.64746 11.2657L18.2574 9.7207L18.2813 9.8535L9.67059 11.3978Z" fill="#6150DC"/>
<path fill-rule="evenodd" clip-rule="evenodd" d="M9.65473 11.3099L9.63086 11.1778L18.2415 9.63281L18.2654 9.76486L9.65473 11.3099Z" fill="#6150DC"/>
<path fill-rule="evenodd" clip-rule="evenodd" d="M9.63911 11.222L9.61523 11.0892L18.2259 9.54492L18.249 9.67697L9.63911 11.222Z" fill="#6150DC"/>
<path fill-rule="evenodd" clip-rule="evenodd" d="M9.62348 11.1339L9.59961 11.0011L18.2103 9.45605L18.2334 9.58885L9.62348 11.1339Z" fill="#6150DC"/>
<path fill-rule="evenodd" clip-rule="evenodd" d="M9.60786 11.0452L9.58398 10.9132L18.1947 9.36816L18.2178 9.50096L9.60786 11.0452Z" fill="#6150DC"/>
<path fill-rule="evenodd" clip-rule="evenodd" d="M9.59149 10.9569L9.56836 10.8248L18.1783 9.27979L18.2022 9.41183L9.59149 10.9569Z" fill="#6150DC"/>
<path fill-rule="evenodd" clip-rule="evenodd" d="M9.57563 10.869L9.55176 10.7362L18.1624 9.19189L18.1856 9.3232L9.57563 10.869Z" fill="#6150DC"/>
<path fill-rule="evenodd" clip-rule="evenodd" d="M9.56001 10.7808L9.53613 10.6481L18.1468 9.10303L18.1699 9.23582L9.56001 10.7808Z" fill="#6150DC"/>
<path fill-rule="evenodd" clip-rule="evenodd" d="M9.54438 10.6922L9.52051 10.5602L18.1312 9.01514L18.1543 9.14718L9.54438 10.6922Z" fill="#6150DC"/>
<path fill-rule="evenodd" clip-rule="evenodd" d="M9.52801 10.6043L9.50488 10.4723L18.1148 8.92725L18.1387 9.05929L9.52801 10.6043Z" fill="#6150DC"/>
<path fill-rule="evenodd" clip-rule="evenodd" d="M9.51239 10.5162L9.48926 10.3834L18.0992 8.83838L18.1231 8.97117L9.51239 10.5162Z" fill="#6150DC"/>
<path fill-rule="evenodd" clip-rule="evenodd" d="M9.49653 10.4283L9.47266 10.2955L18.0833 8.75049L18.1065 8.88328L9.49653 10.4283Z" fill="#6150DC"/>
<path fill-rule="evenodd" clip-rule="evenodd" d="M9.4809 10.3392L9.45703 10.2071L18.0677 8.66211L18.0908 8.79416L9.4809 10.3392Z" fill="#6150DC"/>
<path fill-rule="evenodd" clip-rule="evenodd" d="M9.46528 10.2513L9.44141 10.1185L18.0513 8.57422L18.0752 8.70627L9.46528 10.2513Z" fill="#6150DC"/>
<path d="M17.9582 8.0545L9.34766 9.59912L9.44869 10.1623L18.0592 8.61772L17.9582 8.0545Z" fill="#6150DC"/>
</g>
</g>
<defs>
<clipPath id="clip0_2389_4845">
<rect width="42" height="42" fill="white"/>
</clipPath>
</defs>
</svg>
