<svg width="42" height="42" viewBox="0 0 42 42" fill="none" xmlns="http://www.w3.org/2000/svg">
<path d="M21 42C32.598 42 42 32.598 42 21C42 9.40202 32.598 0 21 0C9.40202 0 0 9.40202 0 21C0 32.598 9.40202 42 21 42Z" fill="#EBF4F4"/>
<mask id="mask0_2329_4135" style="mask-type:luminance" maskUnits="userSpaceOnUse" x="12" y="9" width="20" height="24">
<path d="M24.2652 10.808L13.2419 26.5515C11.9662 28.374 12.4131 30.909 14.2356 32.1848C16.0582 33.4605 18.5924 33.0136 19.8681 31.1918L30.8922 15.4476C32.1679 13.625 31.7211 11.0908 29.8993 9.81429C29.1972 9.32266 28.3893 9.08691 27.5881 9.08691C26.3101 9.08691 25.0501 9.68747 24.2652 10.8073" fill="white"/>
</mask>
<g mask="url(#mask0_2329_4135)">
<path d="M35.0105 29.4131L12.8594 33.3867L12.9729 34.0197L35.1241 30.046L35.0105 29.4131Z" fill="#F26608"/>
<path fill-rule="evenodd" clip-rule="evenodd" d="M12.8649 33.434L12.8418 33.3013L34.9929 29.3271L35.0168 29.4592L12.8649 33.434Z" fill="#F26608"/>
<path fill-rule="evenodd" clip-rule="evenodd" d="M12.8493 33.3459L12.8262 33.2131L34.9766 29.2383L35.0004 29.3711L12.8493 33.3459Z" fill="#F26608"/>
<path fill-rule="evenodd" clip-rule="evenodd" d="M12.8344 33.2573L12.8105 33.1252L34.9617 29.1504L34.9855 29.2832L12.8344 33.2573Z" fill="#F26608"/>
<path fill-rule="evenodd" clip-rule="evenodd" d="M12.8188 33.1689L12.7949 33.0369L34.946 29.062L34.9699 29.1941L12.8188 33.1689Z" fill="#F26608"/>
<path fill-rule="evenodd" clip-rule="evenodd" d="M12.8022 33.0813L12.7783 32.9485L34.9302 28.9736L34.9533 29.1064L12.8022 33.0813Z" fill="#F26608"/>
<path fill-rule="evenodd" clip-rule="evenodd" d="M12.7858 32.9921L12.7627 32.8601L34.9131 28.8853L34.9369 29.018L12.7858 32.9921Z" fill="#F26608"/>
<path fill-rule="evenodd" clip-rule="evenodd" d="M12.77 32.9043L12.7461 32.7722L34.8972 28.7974L34.9211 28.9294L12.77 32.9043Z" fill="#F26608"/>
<path fill-rule="evenodd" clip-rule="evenodd" d="M12.7543 32.8164L12.7305 32.6843L34.8816 28.7095L34.9055 28.8415L12.7543 32.8164Z" fill="#F26608"/>
<path fill-rule="evenodd" clip-rule="evenodd" d="M12.738 32.7282L12.7148 32.5955L34.866 28.6206L34.8891 28.7534L12.738 32.7282Z" fill="#F26608"/>
<path fill-rule="evenodd" clip-rule="evenodd" d="M12.7223 32.6391L12.6992 32.5071L34.8503 28.5322L34.8735 28.665L12.7223 32.6391Z" fill="#F26608"/>
<path fill-rule="evenodd" clip-rule="evenodd" d="M12.7067 32.5512L12.6836 32.4192L34.834 28.4443L34.8578 28.5764L12.7067 32.5512Z" fill="#F26608"/>
<path fill-rule="evenodd" clip-rule="evenodd" d="M12.6918 32.4633L12.668 32.3305L34.8191 28.3564L34.843 28.4885L12.6918 32.4633Z" fill="#F26608"/>
<path fill-rule="evenodd" clip-rule="evenodd" d="M12.6762 32.3752L12.6523 32.2424L34.8035 28.2676L34.8273 28.4004L12.6762 32.3752Z" fill="#F26608"/>
<path fill-rule="evenodd" clip-rule="evenodd" d="M12.6598 32.2866L12.6367 32.1545L34.7878 28.1797L34.811 28.3125L12.6598 32.2866Z" fill="#F26608"/>
<path fill-rule="evenodd" clip-rule="evenodd" d="M12.6442 32.1987L12.6211 32.0666L34.7715 28.0918L34.7953 28.2238L12.6442 32.1987Z" fill="#F26608"/>
<path fill-rule="evenodd" clip-rule="evenodd" d="M12.6284 32.1103L12.6045 31.9775L34.7556 28.0034L34.7795 28.1355L12.6284 32.1103Z" fill="#F26608"/>
<path fill-rule="evenodd" clip-rule="evenodd" d="M12.6127 32.0227L12.5889 31.8899L34.74 27.915L34.7639 28.0478L12.6127 32.0227Z" fill="#F26608"/>
<path fill-rule="evenodd" clip-rule="evenodd" d="M12.5954 31.9336L12.5723 31.8015L34.7234 27.8267L34.7465 27.9587L12.5954 31.9336Z" fill="#F26608"/>
<path fill-rule="evenodd" clip-rule="evenodd" d="M12.5798 31.8457L12.5566 31.7129L34.707 27.7388L34.7316 27.8708L12.5798 31.8457Z" fill="#F26608"/>
<path fill-rule="evenodd" clip-rule="evenodd" d="M12.5649 31.7575L12.541 31.6248L34.6921 27.6499L34.716 27.7827L12.5649 31.7575Z" fill="#F26608"/>
<path fill-rule="evenodd" clip-rule="evenodd" d="M12.5493 31.6697L12.5254 31.5369L34.6765 27.562L34.7004 27.6948L12.5493 31.6697Z" fill="#F26608"/>
<path fill-rule="evenodd" clip-rule="evenodd" d="M12.5336 31.5805L12.5098 31.4485L34.6609 27.4736L34.684 27.6057L12.5336 31.5805Z" fill="#F26608"/>
<path fill-rule="evenodd" clip-rule="evenodd" d="M12.5173 31.4926L12.4941 31.3598L34.6453 27.3857L34.6684 27.5178L12.5173 31.4926Z" fill="#F26608"/>
<path fill-rule="evenodd" clip-rule="evenodd" d="M12.5016 31.4045L12.4785 31.2717L34.6289 27.2969L34.6535 27.4297L12.5016 31.4045Z" fill="#F26608"/>
<path fill-rule="evenodd" clip-rule="evenodd" d="M12.4858 31.3159L12.4619 31.1838L34.613 27.209L34.6369 27.3418L12.4858 31.3159Z" fill="#F26608"/>
<path fill-rule="evenodd" clip-rule="evenodd" d="M12.4702 31.228L12.4463 31.0959L34.5974 27.1211L34.6205 27.2531L12.4702 31.228Z" fill="#F26608"/>
<path fill-rule="evenodd" clip-rule="evenodd" d="M12.4538 31.1401L12.4307 31.0073L34.5818 27.0332L34.6049 27.1653L12.4538 31.1401Z" fill="#F26608"/>
<path fill-rule="evenodd" clip-rule="evenodd" d="M12.4382 31.052L12.415 30.9192L34.5662 26.9443L34.5893 27.0771L12.4382 31.052Z" fill="#F26608"/>
<path fill-rule="evenodd" clip-rule="evenodd" d="M12.4223 30.9629L12.3984 30.8308L34.5496 26.856L34.5734 26.9888L12.4223 30.9629Z" fill="#F26608"/>
<path fill-rule="evenodd" clip-rule="evenodd" d="M12.4067 30.875L12.3828 30.7422L34.5339 26.7681L34.5578 26.9001L12.4067 30.875Z" fill="#F26608"/>
<path fill-rule="evenodd" clip-rule="evenodd" d="M12.3911 30.7868L12.3672 30.654L34.5183 26.6792L34.5414 26.812L12.3911 30.7868Z" fill="#F26608"/>
<path fill-rule="evenodd" clip-rule="evenodd" d="M12.3747 30.6989L12.3516 30.5662L34.5027 26.5913L34.5258 26.7241L12.3747 30.6989Z" fill="#F26608"/>
<path fill-rule="evenodd" clip-rule="evenodd" d="M12.3591 30.6103L12.3359 30.4783L34.4863 26.5034L34.5109 26.6355L12.3591 30.6103Z" fill="#F26608"/>
<path fill-rule="evenodd" clip-rule="evenodd" d="M12.3432 30.5219L12.3193 30.3891L34.4705 26.415L34.4943 26.5471L12.3432 30.5219Z" fill="#F26608"/>
<path fill-rule="evenodd" clip-rule="evenodd" d="M12.3276 30.4343L12.3037 30.3015L34.4548 26.3267L34.478 26.4595L12.3276 30.4343Z" fill="#F26608"/>
<path fill-rule="evenodd" clip-rule="evenodd" d="M12.3112 30.3452L12.2881 30.2131L34.4392 26.2383L34.4631 26.3711L12.3112 30.3452Z" fill="#F26608"/>
<path fill-rule="evenodd" clip-rule="evenodd" d="M12.2956 30.2573L12.2725 30.1252L34.4236 26.1504L34.4467 26.2824L12.2956 30.2573Z" fill="#F26608"/>
<path fill-rule="evenodd" clip-rule="evenodd" d="M12.2797 30.1694L12.2559 30.0366L34.407 26.0625L34.4309 26.1945L12.2797 30.1694Z" fill="#F26608"/>
<path fill-rule="evenodd" clip-rule="evenodd" d="M12.2641 30.0813L12.2402 29.9485L34.3914 25.9736L34.4152 26.1064L12.2641 30.0813Z" fill="#F26608"/>
<path fill-rule="evenodd" clip-rule="evenodd" d="M12.2485 29.9926L12.2246 29.8606L34.3757 25.8857L34.3989 26.0178L12.2485 29.9926Z" fill="#F26608"/>
<path fill-rule="evenodd" clip-rule="evenodd" d="M12.2321 29.9043L12.209 29.7722L34.3601 25.7974L34.3832 25.9294L12.2321 29.9043Z" fill="#F26608"/>
<path fill-rule="evenodd" clip-rule="evenodd" d="M12.2165 29.8166L12.1934 29.6838L34.3445 25.709L34.3676 25.8418L12.2165 29.8166Z" fill="#F26608"/>
<path fill-rule="evenodd" clip-rule="evenodd" d="M12.2006 29.7282L12.1768 29.5955L34.3279 25.6206L34.3518 25.7534L12.2006 29.7282Z" fill="#F26608"/>
<path fill-rule="evenodd" clip-rule="evenodd" d="M12.185 29.6396L12.1611 29.5076L34.3123 25.5327L34.3361 25.6648L12.185 29.6396Z" fill="#F26608"/>
<path fill-rule="evenodd" clip-rule="evenodd" d="M12.1686 29.5515L12.1455 29.4187L34.2966 25.4438L34.3205 25.5766L12.1686 29.5515Z" fill="#F26608"/>
<path fill-rule="evenodd" clip-rule="evenodd" d="M12.153 29.4636L12.1299 29.3308L34.281 25.356L34.3041 25.4888L12.153 29.4636Z" fill="#F26608"/>
<path fill-rule="evenodd" clip-rule="evenodd" d="M12.1372 29.3745L12.1133 29.2424L34.2644 25.2676L34.2883 25.4004L12.1372 29.3745Z" fill="#F26608"/>
<path fill-rule="evenodd" clip-rule="evenodd" d="M12.1215 29.2866L12.0977 29.1545L34.2488 25.1797L34.2727 25.3117L12.1215 29.2866Z" fill="#F26608"/>
<path fill-rule="evenodd" clip-rule="evenodd" d="M12.1059 29.1985L12.082 29.0657L34.2332 25.0908L34.2563 25.2236L12.1059 29.1985Z" fill="#F26608"/>
<path fill-rule="evenodd" clip-rule="evenodd" d="M12.0895 29.1106L12.0664 28.9778L34.2175 25.0029L34.2407 25.1357L12.0895 29.1106Z" fill="#F26608"/>
<path fill-rule="evenodd" clip-rule="evenodd" d="M12.0739 29.0219L12.0508 28.8899L34.2012 24.915L34.225 25.0471L12.0739 29.0219Z" fill="#F26608"/>
<path fill-rule="evenodd" clip-rule="evenodd" d="M12.0581 28.934L12.0342 28.802L34.1853 24.8271L34.2092 24.9592L12.0581 28.934Z" fill="#F26608"/>
<path fill-rule="evenodd" clip-rule="evenodd" d="M12.0424 28.8459L12.0186 28.7131L34.1697 24.7383L34.1936 24.8711L12.0424 28.8459Z" fill="#F26608"/>
<path fill-rule="evenodd" clip-rule="evenodd" d="M12.0268 28.758L12.0029 28.6252L34.1541 24.6504L34.1772 24.7832L12.0268 28.758Z" fill="#F26608"/>
<path fill-rule="evenodd" clip-rule="evenodd" d="M12.0104 28.6689L11.9873 28.5369L34.1384 24.562L34.1616 24.6941L12.0104 28.6689Z" fill="#F26608"/>
<path fill-rule="evenodd" clip-rule="evenodd" d="M11.9946 28.581L11.9707 28.4482L34.1218 24.4741L34.1457 24.6062L11.9946 28.581Z" fill="#F26608"/>
<path fill-rule="evenodd" clip-rule="evenodd" d="M11.979 28.4929L11.9551 28.3601L34.1062 24.3853L34.1301 24.518L11.979 28.4929Z" fill="#F26608"/>
<path fill-rule="evenodd" clip-rule="evenodd" d="M11.9633 28.4043L11.9395 28.2722L34.0906 24.2974L34.1137 24.4294L11.9633 28.4043Z" fill="#F26608"/>
<path fill-rule="evenodd" clip-rule="evenodd" d="M11.947 28.3159L11.9238 28.1838L34.075 24.209L34.0981 24.341L11.947 28.3159Z" fill="#F26608"/>
<path fill-rule="evenodd" clip-rule="evenodd" d="M11.9311 28.2282L11.9072 28.0955L34.0583 24.1206L34.0822 24.2534L11.9311 28.2282Z" fill="#F26608"/>
<path fill-rule="evenodd" clip-rule="evenodd" d="M11.9155 28.1399L11.8916 28.0071L34.0427 24.0322L34.0666 24.165L11.9155 28.1399Z" fill="#F26608"/>
<path fill-rule="evenodd" clip-rule="evenodd" d="M11.8998 28.0512L11.876 27.9192L34.0271 23.9443L34.0502 24.0764L11.8998 28.0512Z" fill="#F26608"/>
<path fill-rule="evenodd" clip-rule="evenodd" d="M11.8842 27.9633L11.8604 27.8313L34.0115 23.8564L34.0346 23.9885L11.8842 27.9633Z" fill="#F26608"/>
<path fill-rule="evenodd" clip-rule="evenodd" d="M11.8679 27.8752L11.8447 27.7424L33.9959 23.7676L34.019 23.9004L11.8679 27.8752Z" fill="#F26608"/>
<path fill-rule="evenodd" clip-rule="evenodd" d="M11.852 27.7866L11.8281 27.6545L33.9792 23.6797L34.0031 23.8125L11.852 27.7866Z" fill="#F26608"/>
<path fill-rule="evenodd" clip-rule="evenodd" d="M11.8364 27.6987L11.8125 27.5666L33.9636 23.5918L33.9875 23.7238L11.8364 27.6987Z" fill="#F26608"/>
<path fill-rule="evenodd" clip-rule="evenodd" d="M11.8207 27.6103L11.7969 27.4775L33.948 23.5034L33.9711 23.6355L11.8207 27.6103Z" fill="#F26608"/>
<path fill-rule="evenodd" clip-rule="evenodd" d="M11.8044 27.5222L11.7812 27.3894L33.9324 23.4146L33.9562 23.5473L11.8044 27.5222Z" fill="#F26608"/>
<path fill-rule="evenodd" clip-rule="evenodd" d="M11.7885 27.4336L11.7646 27.3015L33.9158 23.3267L33.9396 23.4587L11.7885 27.4336Z" fill="#F26608"/>
<path fill-rule="evenodd" clip-rule="evenodd" d="M11.7729 27.3457L11.749 27.2136L33.9001 23.2388L33.924 23.3708L11.7729 27.3457Z" fill="#F26608"/>
<path fill-rule="evenodd" clip-rule="evenodd" d="M11.7573 27.2575L11.7334 27.1248L33.8845 23.1499L33.9084 23.2827L11.7573 27.2575Z" fill="#F26608"/>
<path fill-rule="evenodd" clip-rule="evenodd" d="M11.7416 27.1692L11.7178 27.0364L33.8689 23.0615L33.892 23.1943L11.7416 27.1692Z" fill="#F26608"/>
<path fill-rule="evenodd" clip-rule="evenodd" d="M11.7253 27.0805L11.7021 26.9485L33.8525 22.9736L33.8764 23.1057L11.7253 27.0805Z" fill="#F26608"/>
<path fill-rule="evenodd" clip-rule="evenodd" d="M11.7094 26.9926L11.6855 26.8606L33.8367 22.8857L33.8605 23.0178L11.7094 26.9926Z" fill="#F26608"/>
<path fill-rule="evenodd" clip-rule="evenodd" d="M11.6938 26.9045L11.6699 26.7717L33.821 22.7969L33.8449 22.9297L11.6938 26.9045Z" fill="#F26608"/>
<path fill-rule="evenodd" clip-rule="evenodd" d="M11.6782 26.8159L11.6543 26.6838L33.8054 22.709L33.8285 22.8418L11.6782 26.8159Z" fill="#F26608"/>
<path fill-rule="evenodd" clip-rule="evenodd" d="M11.6618 26.728L11.6387 26.5959L33.7898 22.6211L33.8137 22.7531L11.6618 26.728Z" fill="#F26608"/>
<path fill-rule="evenodd" clip-rule="evenodd" d="M11.6462 26.6399L11.623 26.5071L33.7734 22.5322L33.7973 22.665L11.6462 26.6399Z" fill="#F26608"/>
<path fill-rule="evenodd" clip-rule="evenodd" d="M11.6303 26.552L11.6064 26.4192L33.7576 22.4443L33.7814 22.5771L11.6303 26.552Z" fill="#F26608"/>
<path fill-rule="evenodd" clip-rule="evenodd" d="M11.6147 26.4629L11.5908 26.3308L33.7419 22.356L33.7658 22.4888L11.6147 26.4629Z" fill="#F26608"/>
<path fill-rule="evenodd" clip-rule="evenodd" d="M11.5983 26.375L11.5752 26.2429L33.7263 22.2681L33.7494 22.4001L11.5983 26.375Z" fill="#F26608"/>
<path fill-rule="evenodd" clip-rule="evenodd" d="M11.5827 26.2868L11.5596 26.154L33.7099 22.1792L33.7338 22.312L11.5827 26.2868Z" fill="#F26608"/>
<path fill-rule="evenodd" clip-rule="evenodd" d="M11.5668 26.1989L11.543 26.0662L33.6941 22.0913L33.718 22.2241L11.5668 26.1989Z" fill="#F26608"/>
<path fill-rule="evenodd" clip-rule="evenodd" d="M11.5512 26.1098L11.5273 25.9778L33.6785 22.0029L33.7023 22.135L11.5512 26.1098Z" fill="#F26608"/>
<path fill-rule="evenodd" clip-rule="evenodd" d="M11.5356 26.0219L11.5117 25.8891L33.6628 21.915L33.6867 22.0471L11.5356 26.0219Z" fill="#F26608"/>
<path fill-rule="evenodd" clip-rule="evenodd" d="M11.5192 25.9338L11.4961 25.801L33.6472 21.8262L33.6703 21.959L11.5192 25.9338Z" fill="#F26608"/>
<path fill-rule="evenodd" clip-rule="evenodd" d="M11.5036 25.8452L11.4805 25.7131L33.6308 21.7383L33.6547 21.8711L11.5036 25.8452Z" fill="#F26608"/>
<path fill-rule="evenodd" clip-rule="evenodd" d="M11.4877 25.7573L11.4639 25.6252L33.615 21.6504L33.6389 21.7824L11.4877 25.7573Z" fill="#F26608"/>
<path fill-rule="evenodd" clip-rule="evenodd" d="M11.4721 25.6694L11.4482 25.5366L33.5994 21.5625L33.6232 21.6945L11.4721 25.6694Z" fill="#F26608"/>
<path fill-rule="evenodd" clip-rule="evenodd" d="M11.4557 25.5813L11.4326 25.4485L33.5837 21.4736L33.6069 21.6064L11.4557 25.5813Z" fill="#F26608"/>
<path fill-rule="evenodd" clip-rule="evenodd" d="M11.4401 25.4926L11.417 25.3606L33.5674 21.3857L33.5912 21.5185L11.4401 25.4926Z" fill="#F26608"/>
<path fill-rule="evenodd" clip-rule="evenodd" d="M11.4243 25.4043L11.4004 25.2722L33.5515 21.2974L33.5754 21.4294L11.4243 25.4043Z" fill="#F26608"/>
<path fill-rule="evenodd" clip-rule="evenodd" d="M11.4086 25.3161L11.3848 25.1833L33.5359 21.2085L33.5598 21.3413L11.4086 25.3161Z" fill="#F26608"/>
<path fill-rule="evenodd" clip-rule="evenodd" d="M11.393 25.2282L11.3691 25.0955L33.5203 21.1206L33.5434 21.2534L11.393 25.2282Z" fill="#F26608"/>
<path fill-rule="evenodd" clip-rule="evenodd" d="M11.3766 25.1396L11.3535 25.0076L33.5046 21.0327L33.5278 21.1648L11.3766 25.1396Z" fill="#F26608"/>
<path fill-rule="evenodd" clip-rule="evenodd" d="M11.361 25.0512L11.3379 24.9184L33.4883 20.9443L33.5121 21.0764L11.361 25.0512Z" fill="#F26608"/>
<path fill-rule="evenodd" clip-rule="evenodd" d="M11.3461 24.9636L11.3223 24.8308L33.4734 20.856L33.4973 20.9888L11.3461 24.9636Z" fill="#F26608"/>
<path fill-rule="evenodd" clip-rule="evenodd" d="M11.3295 24.8745L11.3057 24.7424L33.4568 20.7676L33.4807 20.9004L11.3295 24.8745Z" fill="#F26608"/>
<path fill-rule="evenodd" clip-rule="evenodd" d="M11.3132 24.7866L11.29 24.6545L33.4412 20.6797L33.4643 20.8117L11.3132 24.7866Z" fill="#F26608"/>
<path fill-rule="evenodd" clip-rule="evenodd" d="M11.2975 24.6987L11.2744 24.5659L33.4248 20.5918L33.4494 20.7238L11.2975 24.6987Z" fill="#F26608"/>
<path fill-rule="evenodd" clip-rule="evenodd" d="M11.2819 24.6106L11.2588 24.4778L33.4092 20.5029L33.433 20.6357L11.2819 24.6106Z" fill="#F26608"/>
<path fill-rule="evenodd" clip-rule="evenodd" d="M11.2661 24.5219L11.2422 24.3899L33.3933 20.415L33.4172 20.5471L11.2661 24.5219Z" fill="#F26608"/>
<path fill-rule="evenodd" clip-rule="evenodd" d="M11.2497 24.434L11.2266 24.302L33.3777 20.3271L33.4016 20.4592L11.2497 24.434Z" fill="#F26608"/>
<path fill-rule="evenodd" clip-rule="evenodd" d="M11.2341 24.3459L11.2109 24.2131L33.3621 20.2383L33.3852 20.3711L11.2341 24.3459Z" fill="#F26608"/>
<path fill-rule="evenodd" clip-rule="evenodd" d="M11.2184 24.2575L11.1953 24.1248L33.3457 20.1499L33.3696 20.2827L11.2184 24.2575Z" fill="#F26608"/>
<path fill-rule="evenodd" clip-rule="evenodd" d="M11.2036 24.1689L11.1797 24.0369L33.3308 20.062L33.3547 20.1941L11.2036 24.1689Z" fill="#F26608"/>
<path fill-rule="evenodd" clip-rule="evenodd" d="M11.1879 24.081L11.1641 23.9482L33.3152 19.9741L33.3391 20.1062L11.1879 24.081Z" fill="#F26608"/>
<path fill-rule="evenodd" clip-rule="evenodd" d="M11.1716 23.9929L11.1484 23.8601L33.2996 19.8853L33.3234 20.018L11.1716 23.9929Z" fill="#F26608"/>
<path fill-rule="evenodd" clip-rule="evenodd" d="M11.155 23.9043L11.1318 23.7722L33.2822 19.7974L33.3068 19.9302L11.155 23.9043Z" fill="#F26608"/>
<path fill-rule="evenodd" clip-rule="evenodd" d="M11.1401 23.8159L11.1162 23.6838L33.2673 19.709L33.2912 19.841L11.1401 23.8159Z" fill="#F26608"/>
<path fill-rule="evenodd" clip-rule="evenodd" d="M11.1235 23.728L11.0996 23.5952L33.2507 19.6211L33.2746 19.7531L11.1235 23.728Z" fill="#F26608"/>
<path fill-rule="evenodd" clip-rule="evenodd" d="M11.1071 23.6399L11.084 23.5071L33.2351 19.5322L33.259 19.665L11.1071 23.6399Z" fill="#F26608"/>
<path fill-rule="evenodd" clip-rule="evenodd" d="M11.0915 23.5512L11.0684 23.4192L33.2195 19.4443L33.2426 19.5771L11.0915 23.5512Z" fill="#F26608"/>
<path fill-rule="evenodd" clip-rule="evenodd" d="M11.0759 23.4633L11.0527 23.3313L33.2031 19.3564L33.227 19.4885L11.0759 23.4633Z" fill="#F26608"/>
<path fill-rule="evenodd" clip-rule="evenodd" d="M11.061 23.375L11.0371 23.2422L33.1882 19.2681L33.2121 19.4001L11.061 23.375Z" fill="#F26608"/>
<path fill-rule="evenodd" clip-rule="evenodd" d="M11.0454 23.2873L11.0215 23.1545L33.1726 19.1797L33.1965 19.3125L11.0454 23.2873Z" fill="#F26608"/>
<path fill-rule="evenodd" clip-rule="evenodd" d="M11.029 23.1982L11.0059 23.0662L33.157 19.0913L33.1809 19.2234L11.029 23.1982Z" fill="#F26608"/>
<path fill-rule="evenodd" clip-rule="evenodd" d="M11.0134 23.1103L10.9902 22.9783L33.1414 19.0034L33.1645 19.1355L11.0134 23.1103Z" fill="#F26608"/>
<path fill-rule="evenodd" clip-rule="evenodd" d="M10.9975 23.0222L10.9736 22.8894L33.1248 18.9146L33.1486 19.0473L10.9975 23.0222Z" fill="#F26608"/>
<path fill-rule="evenodd" clip-rule="evenodd" d="M10.9819 22.9336L10.958 22.8015L33.1091 18.8267L33.133 18.9595L10.9819 22.9336Z" fill="#F26608"/>
<path fill-rule="evenodd" clip-rule="evenodd" d="M10.966 22.8457L10.9414 22.7136L33.0933 18.7388L33.1164 18.8708L10.966 22.8457Z" fill="#F26608"/>
<path fill-rule="evenodd" clip-rule="evenodd" d="M10.9489 22.7573L10.9258 22.6245L33.0769 18.6504L33.1 18.7824L10.9489 22.7573Z" fill="#F26608"/>
<path fill-rule="evenodd" clip-rule="evenodd" d="M10.9333 22.6692L10.9102 22.5364L33.0605 18.5615L33.0844 18.6943L10.9333 22.6692Z" fill="#F26608"/>
<path fill-rule="evenodd" clip-rule="evenodd" d="M10.9184 22.5805L10.8945 22.4485L33.0457 18.4736L33.0695 18.6064L10.9184 22.5805Z" fill="#F26608"/>
<path fill-rule="evenodd" clip-rule="evenodd" d="M10.9028 22.4926L10.8789 22.3606L33.03 18.3857L33.0532 18.5178L10.9028 22.4926Z" fill="#F26608"/>
<path fill-rule="evenodd" clip-rule="evenodd" d="M10.8864 22.4045L10.8633 22.2717L33.0144 18.2969L33.0375 18.4297L10.8864 22.4045Z" fill="#F26608"/>
<path fill-rule="evenodd" clip-rule="evenodd" d="M10.8708 22.3166L10.8477 22.1838L32.9988 18.209L33.0219 18.3418L10.8708 22.3166Z" fill="#F26608"/>
<path fill-rule="evenodd" clip-rule="evenodd" d="M10.8549 22.228L10.8311 22.0959L32.9822 18.1211L33.0061 18.2531L10.8549 22.228Z" fill="#F26608"/>
<path fill-rule="evenodd" clip-rule="evenodd" d="M10.8393 22.1396L10.8154 22.0076L32.9666 18.0327L32.9904 18.1648L10.8393 22.1396Z" fill="#F26608"/>
<path fill-rule="evenodd" clip-rule="evenodd" d="M10.8237 22.052L10.7998 21.9192L32.9509 17.9443L32.9741 18.0771L10.8237 22.052Z" fill="#F26608"/>
<path fill-rule="evenodd" clip-rule="evenodd" d="M10.8073 21.9636L10.7842 21.8308L32.9353 17.856L32.9584 17.9888L10.8073 21.9636Z" fill="#F26608"/>
<path fill-rule="evenodd" clip-rule="evenodd" d="M10.7915 21.875L10.7676 21.7429L32.9187 17.7681L32.9426 17.9001L10.7915 21.875Z" fill="#F26608"/>
<path fill-rule="evenodd" clip-rule="evenodd" d="M10.7758 21.7871L10.752 21.6543L32.9031 17.6802L32.927 17.8122L10.7758 21.7871Z" fill="#F26608"/>
<path fill-rule="evenodd" clip-rule="evenodd" d="M10.7602 21.6989L10.7363 21.5662L32.8875 17.5913L32.9106 17.7241L10.7602 21.6989Z" fill="#F26608"/>
<path fill-rule="evenodd" clip-rule="evenodd" d="M10.7438 21.6098L10.7207 21.4778L32.8718 17.5029L32.8957 17.6357L10.7438 21.6098Z" fill="#F26608"/>
<path fill-rule="evenodd" clip-rule="evenodd" d="M10.7282 21.5219L10.7051 21.3899L32.8555 17.415L32.8793 17.5471L10.7282 21.5219Z" fill="#F26608"/>
<path fill-rule="evenodd" clip-rule="evenodd" d="M10.7123 21.4338L10.6885 21.301L32.8396 17.3262L32.8635 17.459L10.7123 21.4338Z" fill="#F26608"/>
<path fill-rule="evenodd" clip-rule="evenodd" d="M10.6967 21.3459L10.6729 21.2131L32.824 17.2383L32.8478 17.3711L10.6967 21.3459Z" fill="#F26608"/>
<path fill-rule="evenodd" clip-rule="evenodd" d="M10.6811 21.2573L10.6572 21.1252L32.8084 17.1504L32.8315 17.2824L10.6811 21.2573Z" fill="#F26608"/>
<path fill-rule="evenodd" clip-rule="evenodd" d="M10.6647 21.1694L10.6416 21.0373L32.7927 17.0625L32.8159 17.1945L10.6647 21.1694Z" fill="#F26608"/>
<path fill-rule="evenodd" clip-rule="evenodd" d="M10.6489 21.0813L10.625 20.9485L32.7761 16.9736L32.8 17.1064L10.6489 21.0813Z" fill="#F26608"/>
<path fill-rule="evenodd" clip-rule="evenodd" d="M10.6332 20.9929L10.6094 20.8601L32.7605 16.8853L32.7844 17.018L10.6332 20.9929Z" fill="#F26608"/>
<path fill-rule="evenodd" clip-rule="evenodd" d="M10.6176 20.9043L10.5938 20.7722L32.7449 16.7974L32.768 16.9294L10.6176 20.9043Z" fill="#F26608"/>
<path fill-rule="evenodd" clip-rule="evenodd" d="M10.6013 20.8164L10.5781 20.6836L32.7292 16.7095L32.7531 16.8415L10.6013 20.8164Z" fill="#F26608"/>
<path fill-rule="evenodd" clip-rule="evenodd" d="M10.5856 20.7282L10.5625 20.5955L32.7129 16.6206L32.7368 16.7534L10.5856 20.7282Z" fill="#F26608"/>
<path fill-rule="evenodd" clip-rule="evenodd" d="M10.5698 20.6396L10.5459 20.5076L32.697 16.5327L32.7209 16.6648L10.5698 20.6396Z" fill="#F26608"/>
<path fill-rule="evenodd" clip-rule="evenodd" d="M10.5541 20.5512L10.5303 20.4192L32.6814 16.4443L32.7053 16.5764L10.5541 20.5512Z" fill="#F26608"/>
<path fill-rule="evenodd" clip-rule="evenodd" d="M10.5385 20.4636L10.5146 20.3308L32.6658 16.356L32.6889 16.4888L10.5385 20.4636Z" fill="#F26608"/>
<path fill-rule="evenodd" clip-rule="evenodd" d="M10.5222 20.3752L10.499 20.2424L32.6494 16.2676L32.674 16.4004L10.5222 20.3752Z" fill="#F26608"/>
<path fill-rule="evenodd" clip-rule="evenodd" d="M10.5065 20.2866L10.4834 20.1545L32.6338 16.1797L32.6576 16.3117L10.5065 20.2866Z" fill="#F26608"/>
<path fill-rule="evenodd" clip-rule="evenodd" d="M10.4907 20.1987L10.4668 20.0666L32.6179 16.0918L32.6418 16.2238L10.4907 20.1987Z" fill="#F26608"/>
<path fill-rule="evenodd" clip-rule="evenodd" d="M10.475 20.1106L10.4512 19.9778L32.6023 16.0029L32.6254 16.1357L10.475 20.1106Z" fill="#F26608"/>
<path fill-rule="evenodd" clip-rule="evenodd" d="M10.4592 20.0219L10.4346 19.8899L32.5864 15.915L32.6096 16.0478L10.4592 20.0219Z" fill="#F26608"/>
<path fill-rule="evenodd" clip-rule="evenodd" d="M10.443 19.9336L10.4199 19.8015L32.5703 15.8267L32.5942 15.9587L10.443 19.9336Z" fill="#F26608"/>
<path fill-rule="evenodd" clip-rule="evenodd" d="M10.4272 19.8457L10.4033 19.7129L32.5544 15.7388L32.5783 15.8708L10.4272 19.8457Z" fill="#F26608"/>
<path fill-rule="evenodd" clip-rule="evenodd" d="M10.4116 19.7575L10.3877 19.6248L32.5388 15.6499L32.5627 15.7827L10.4116 19.7575Z" fill="#F26608"/>
<path fill-rule="evenodd" clip-rule="evenodd" d="M10.3959 19.6689L10.3721 19.5369L32.5232 15.562L32.5463 15.6948L10.3959 19.6689Z" fill="#F26608"/>
<path fill-rule="evenodd" clip-rule="evenodd" d="M10.3796 19.581L10.3564 19.449L32.5076 15.4741L32.5307 15.6062L10.3796 19.581Z" fill="#F26608"/>
<path fill-rule="evenodd" clip-rule="evenodd" d="M10.3639 19.4929L10.3408 19.3601L32.4912 15.3853L32.5151 15.518L10.3639 19.4929Z" fill="#F26608"/>
<path fill-rule="evenodd" clip-rule="evenodd" d="M10.3481 19.405L10.3242 19.2722L32.4753 15.2974L32.4992 15.4302L10.3481 19.405Z" fill="#F26608"/>
<path fill-rule="evenodd" clip-rule="evenodd" d="M10.3325 19.3159L10.3086 19.1838L32.4597 15.209L32.4836 15.341L10.3325 19.3159Z" fill="#F26608"/>
<path fill-rule="evenodd" clip-rule="evenodd" d="M10.3168 19.228L10.293 19.0959L32.4441 15.1211L32.4672 15.2531L10.3168 19.228Z" fill="#F26608"/>
<path fill-rule="evenodd" clip-rule="evenodd" d="M10.3005 19.1399L10.2773 19.0071L32.4277 15.0322L32.4516 15.165L10.3005 19.1399Z" fill="#F26608"/>
<path fill-rule="evenodd" clip-rule="evenodd" d="M10.2846 19.0512L10.2607 18.9192L32.4119 14.9443L32.4357 15.0771L10.2846 19.0512Z" fill="#F26608"/>
<path fill-rule="evenodd" clip-rule="evenodd" d="M10.269 18.9633L10.2451 18.8313L32.3962 14.8564L32.4201 14.9885L10.269 18.9633Z" fill="#F26608"/>
<path fill-rule="evenodd" clip-rule="evenodd" d="M10.2534 18.875L10.2295 18.7422L32.3806 14.7681L32.4037 14.9001L10.2534 18.875Z" fill="#F26608"/>
<path fill-rule="evenodd" clip-rule="evenodd" d="M10.237 18.7873L10.2139 18.6545L32.365 14.6797L32.3889 14.8125L10.237 18.7873Z" fill="#F26608"/>
<path fill-rule="evenodd" clip-rule="evenodd" d="M10.2214 18.6982L10.1982 18.5662L32.3486 14.5913L32.3725 14.7241L10.2214 18.6982Z" fill="#F26608"/>
<path fill-rule="evenodd" clip-rule="evenodd" d="M10.2055 18.6103L10.1816 18.4783L32.3328 14.5034L32.3566 14.6355L10.2055 18.6103Z" fill="#F26608"/>
<path fill-rule="evenodd" clip-rule="evenodd" d="M10.1899 18.5222L10.166 18.3894L32.3171 14.4146L32.341 14.5473L10.1899 18.5222Z" fill="#F26608"/>
<path fill-rule="evenodd" clip-rule="evenodd" d="M10.1735 18.4343L10.1504 18.3015L32.3015 14.3267L32.3246 14.4595L10.1735 18.4343Z" fill="#F26608"/>
<path fill-rule="evenodd" clip-rule="evenodd" d="M10.1579 18.3452L10.1348 18.2131L32.2851 14.2383L32.3098 14.3703L10.1579 18.3452Z" fill="#F26608"/>
<path fill-rule="evenodd" clip-rule="evenodd" d="M10.142 18.2573L10.1182 18.1245L32.2693 14.1504L32.2932 14.2824L10.142 18.2573Z" fill="#F26608"/>
<path fill-rule="evenodd" clip-rule="evenodd" d="M10.1264 18.1692L10.1025 18.0364L32.2537 14.0615L32.2775 14.1943L10.1264 18.1692Z" fill="#F26608"/>
<path fill-rule="evenodd" clip-rule="evenodd" d="M10.1108 18.0805L10.0869 17.9485L32.238 13.9736L32.2612 14.1064L10.1108 18.0805Z" fill="#F26608"/>
<path fill-rule="evenodd" clip-rule="evenodd" d="M10.0944 17.9926L10.0713 17.8606L32.2224 13.8857L32.2463 14.0178L10.0944 17.9926Z" fill="#F26608"/>
<path fill-rule="evenodd" clip-rule="evenodd" d="M10.0788 17.9047L10.0557 17.772L32.206 13.7979L32.2299 13.9299L10.0788 17.9047Z" fill="#F26608"/>
<path fill-rule="evenodd" clip-rule="evenodd" d="M10.0629 17.8166L10.0391 17.6838L32.1902 13.709L32.2141 13.8418L10.0629 17.8166Z" fill="#F26608"/>
<path fill-rule="evenodd" clip-rule="evenodd" d="M10.0473 17.728L10.0234 17.5959L32.1746 13.6211L32.1984 13.7531L10.0473 17.728Z" fill="#F26608"/>
<path fill-rule="evenodd" clip-rule="evenodd" d="M10.0309 17.6396L10.0078 17.5076L32.1589 13.5327L32.1821 13.6648L10.0309 17.6396Z" fill="#F26608"/>
<path fill-rule="evenodd" clip-rule="evenodd" d="M10.0153 17.5515L9.99219 17.4187L32.1426 13.4438L32.1672 13.5766L10.0153 17.5515Z" fill="#F26608"/>
<path fill-rule="evenodd" clip-rule="evenodd" d="M9.99946 17.4636L9.97559 17.3308L32.1267 13.356L32.1506 13.4888L9.99946 17.4636Z" fill="#F26608"/>
<path fill-rule="evenodd" clip-rule="evenodd" d="M9.98383 17.375L9.95996 17.2429L32.1111 13.2681L32.135 13.4001L9.98383 17.375Z" fill="#F26608"/>
<path fill-rule="evenodd" clip-rule="evenodd" d="M9.96746 17.2866L9.94434 17.1538L32.0955 13.1797L32.1193 13.3117L9.96746 17.2866Z" fill="#F26608"/>
<path fill-rule="evenodd" clip-rule="evenodd" d="M9.95161 17.1989L9.92773 17.0662L32.0796 13.0913L32.1027 13.2241L9.95161 17.1989Z" fill="#F26608"/>
<path fill-rule="evenodd" clip-rule="evenodd" d="M9.93621 17.1106L9.91309 16.9778L32.0635 13.0029L32.0873 13.1357L9.93621 17.1106Z" fill="#F26608"/>
<path fill-rule="evenodd" clip-rule="evenodd" d="M9.92036 17.0219L9.89648 16.8899L32.0476 12.915L32.0715 13.0471L9.92036 17.0219Z" fill="#F26608"/>
<path fill-rule="evenodd" clip-rule="evenodd" d="M9.90473 16.934L9.88086 16.8013L32.032 12.8271L32.0559 12.9592L9.90473 16.934Z" fill="#F26608"/>
<path fill-rule="evenodd" clip-rule="evenodd" d="M9.88836 16.8459L9.86523 16.7131L32.0164 12.7383L32.0395 12.8711L9.88836 16.8459Z" fill="#F26608"/>
<path fill-rule="evenodd" clip-rule="evenodd" d="M9.87274 16.7573L9.84961 16.6252L32 12.6504L32.0239 12.7824L9.87274 16.7573Z" fill="#F26608"/>
<path fill-rule="evenodd" clip-rule="evenodd" d="M9.85688 16.6689L9.83301 16.5369L31.9841 12.562L32.008 12.6941L9.85688 16.6689Z" fill="#F26608"/>
<path fill-rule="evenodd" clip-rule="evenodd" d="M9.84126 16.5813L9.81738 16.4485L31.9685 12.4736L31.9924 12.6064L9.84126 16.5813Z" fill="#F26608"/>
<path fill-rule="evenodd" clip-rule="evenodd" d="M9.82488 16.4929L9.80176 16.3601L31.9529 12.3853L31.9768 12.518L9.82488 16.4929Z" fill="#F26608"/>
<path fill-rule="evenodd" clip-rule="evenodd" d="M9.80926 16.4043L9.78613 16.2722L31.9373 12.2974L31.9604 12.4294L9.80926 16.4043Z" fill="#F26608"/>
<path fill-rule="evenodd" clip-rule="evenodd" d="M9.7934 16.3164L9.76953 16.1836L31.9207 12.2095L31.9445 12.3415L9.7934 16.3164Z" fill="#F26608"/>
<path fill-rule="evenodd" clip-rule="evenodd" d="M9.77778 16.2282L9.75391 16.0955L31.905 12.1206L31.9289 12.2534L9.77778 16.2282Z" fill="#F26608"/>
<path fill-rule="evenodd" clip-rule="evenodd" d="M9.76215 16.1391L9.73828 16.0071L31.8894 12.0322L31.9125 12.165L9.76215 16.1391Z" fill="#F26608"/>
<path fill-rule="evenodd" clip-rule="evenodd" d="M9.74578 16.0512L9.72266 15.9192L31.8738 11.9443L31.8969 12.0764L9.74578 16.0512Z" fill="#F26608"/>
<path fill-rule="evenodd" clip-rule="evenodd" d="M9.73016 15.9633L9.70703 15.8305L31.8574 11.8564L31.882 11.9885L9.73016 15.9633Z" fill="#F26608"/>
<path fill-rule="evenodd" clip-rule="evenodd" d="M9.71528 15.8752L9.69141 15.7424L31.8425 11.7676L31.8664 11.9004L9.71528 15.8752Z" fill="#F26608"/>
<path fill-rule="evenodd" clip-rule="evenodd" d="M9.69965 15.7866L9.67578 15.6545L31.8269 11.6797L31.85 11.8117L9.69965 15.7866Z" fill="#F26608"/>
<path fill-rule="evenodd" clip-rule="evenodd" d="M9.68305 15.6987L9.65918 15.5666L31.8103 11.5918L31.8334 11.7238L9.68305 15.6987Z" fill="#F26608"/>
<path fill-rule="evenodd" clip-rule="evenodd" d="M9.66668 15.6106L9.64355 15.4778L31.7947 11.5029L31.8178 11.6357L9.66668 15.6106Z" fill="#F26608"/>
<path fill-rule="evenodd" clip-rule="evenodd" d="M9.65083 15.5227L9.62695 15.3899L31.7781 11.415L31.802 11.5478L9.65083 15.5227Z" fill="#F26608"/>
<path fill-rule="evenodd" clip-rule="evenodd" d="M9.6352 15.4336L9.61133 15.3015L31.7625 11.3267L31.7863 11.4587L9.6352 15.4336Z" fill="#F26608"/>
<path fill-rule="evenodd" clip-rule="evenodd" d="M9.61958 15.3457L9.5957 15.2129L31.7468 11.2388L31.77 11.3708L9.61958 15.3457Z" fill="#F26608"/>
<path fill-rule="evenodd" clip-rule="evenodd" d="M9.6032 15.2575L9.58008 15.1248L31.7312 11.1499L31.7543 11.2827L9.6032 15.2575Z" fill="#F26608"/>
<path fill-rule="evenodd" clip-rule="evenodd" d="M9.58758 15.1689L9.56445 15.0369L31.7148 11.062L31.7395 11.1948L9.58758 15.1689Z" fill="#F26608"/>
<path fill-rule="evenodd" clip-rule="evenodd" d="M9.5727 15.0805L9.54883 14.9485L31.7 10.9736L31.7238 11.1057L9.5727 15.0805Z" fill="#F26608"/>
<path fill-rule="evenodd" clip-rule="evenodd" d="M9.55708 14.9926L9.5332 14.8598L31.6843 10.8857L31.7075 11.0178L9.55708 14.9926Z" fill="#F26608"/>
<path fill-rule="evenodd" clip-rule="evenodd" d="M9.5407 14.9045L9.51758 14.7717L31.6687 10.7969L31.6926 10.9297L9.5407 14.9045Z" fill="#F26608"/>
<path fill-rule="evenodd" clip-rule="evenodd" d="M9.52508 14.8159L9.50195 14.6838L31.6531 10.709L31.6762 10.8418L9.52508 14.8159Z" fill="#F26608"/>
<path fill-rule="evenodd" clip-rule="evenodd" d="M9.50922 14.728L9.48535 14.5959L31.6365 10.6211L31.6603 10.7531L9.50922 14.728Z" fill="#F26608"/>
<path fill-rule="evenodd" clip-rule="evenodd" d="M9.4936 14.6399L9.46973 14.5071L31.6209 10.5322L31.6447 10.665L9.4936 14.6399Z" fill="#F26608"/>
<path fill-rule="evenodd" clip-rule="evenodd" d="M9.477 14.5512L9.45312 14.4192L31.6042 10.4443L31.6274 10.5771L9.477 14.5512Z" fill="#F26608"/>
<path fill-rule="evenodd" clip-rule="evenodd" d="M9.46063 14.4633L9.4375 14.3313L31.5886 10.3564L31.6118 10.4885L9.46063 14.4633Z" fill="#F26608"/>
<path fill-rule="evenodd" clip-rule="evenodd" d="M9.445 14.375L9.42188 14.2422L31.5723 10.2681L31.5961 10.4001L9.445 14.375Z" fill="#F26608"/>
<path fill-rule="evenodd" clip-rule="evenodd" d="M9.43012 14.2868L9.40625 14.154L31.5574 10.1792L31.5812 10.312L9.43012 14.2868Z" fill="#F26608"/>
<path fill-rule="evenodd" clip-rule="evenodd" d="M9.4145 14.1982L9.39062 14.0662L31.5417 10.0913L31.5649 10.2241L9.4145 14.1982Z" fill="#F26608"/>
<path fill-rule="evenodd" clip-rule="evenodd" d="M9.39813 14.1103L9.375 13.9783L31.5261 10.0034L31.55 10.1355L9.39813 14.1103Z" fill="#F26608"/>
<path fill-rule="evenodd" clip-rule="evenodd" d="M9.3825 14.0219L9.35938 13.8891L31.5105 9.91504L31.5336 10.0471L9.3825 14.0219Z" fill="#F26608"/>
<path fill-rule="evenodd" clip-rule="evenodd" d="M9.36665 13.9343L9.34277 13.8015L31.4939 9.82666L31.5178 9.95945L9.36665 13.9343Z" fill="#F26608"/>
<path fill-rule="evenodd" clip-rule="evenodd" d="M9.35102 13.8452L9.32715 13.7131L31.4783 9.73828L31.5021 9.87108L9.35102 13.8452Z" fill="#F26608"/>
<path fill-rule="evenodd" clip-rule="evenodd" d="M9.3354 13.7573L9.31152 13.6252L31.4626 9.65039L31.4858 9.78244L9.3354 13.7573Z" fill="#F26608"/>
<path fill-rule="evenodd" clip-rule="evenodd" d="M9.31903 13.6692L9.2959 13.5364L31.447 9.56152L31.4709 9.69432L9.31903 13.6692Z" fill="#F26608"/>
<path fill-rule="evenodd" clip-rule="evenodd" d="M9.30242 13.5813L9.2793 13.4485L31.4297 9.47363L31.4535 9.60643L9.30242 13.5813Z" fill="#F26608"/>
<path fill-rule="evenodd" clip-rule="evenodd" d="M9.28754 13.4926L9.26367 13.3606L31.4148 9.38574L31.4387 9.51779L9.28754 13.4926Z" fill="#F26608"/>
<path fill-rule="evenodd" clip-rule="evenodd" d="M9.27192 13.4047L9.24805 13.2727L31.3992 9.29785L31.423 9.4299L9.27192 13.4047Z" fill="#F26608"/>
<path fill-rule="evenodd" clip-rule="evenodd" d="M9.25629 13.3166L9.23242 13.1838L31.3835 9.20898L31.4067 9.34178L9.25629 13.3166Z" fill="#F26608"/>
<path fill-rule="evenodd" clip-rule="evenodd" d="M9.23992 13.2275L9.2168 13.0955L31.3679 9.12061L31.391 9.2534L9.23992 13.2275Z" fill="#F26608"/>
<path fill-rule="evenodd" clip-rule="evenodd" d="M9.22407 13.1396L9.2002 13.0076L31.3513 9.03271L31.3752 9.16476L9.22407 13.1396Z" fill="#F26608"/>
<path fill-rule="evenodd" clip-rule="evenodd" d="M9.20844 13.0515L9.18457 12.9187L31.3357 8.94385L31.3596 9.07664L9.20844 13.0515Z" fill="#F26608"/>
<path fill-rule="evenodd" clip-rule="evenodd" d="M9.19282 12.9636L9.16895 12.8308L31.3201 8.85596L31.3432 8.98875L9.19282 12.9636Z" fill="#F26608"/>
<path fill-rule="evenodd" clip-rule="evenodd" d="M9.17645 12.875L9.15332 12.7429L31.3044 8.76807L31.3283 8.90086L9.17645 12.875Z" fill="#F26608"/>
<path fill-rule="evenodd" clip-rule="evenodd" d="M9.16082 12.7866L9.1377 12.6545L31.2881 8.67969L31.3119 8.81174L9.16082 12.7866Z" fill="#F26608"/>
<path fill-rule="evenodd" clip-rule="evenodd" d="M9.14497 12.6985L9.12109 12.5657L31.2722 8.59082L31.2961 8.72361L9.14497 12.6985Z" fill="#F26608"/>
<path fill-rule="evenodd" clip-rule="evenodd" d="M9.12934 12.6106L9.10547 12.4778L31.2566 8.50293L31.2805 8.63572L9.12934 12.6106Z" fill="#F26608"/>
<path fill-rule="evenodd" clip-rule="evenodd" d="M9.11372 12.5219L9.08984 12.3899L31.241 8.41504L31.2641 8.54709L9.11372 12.5219Z" fill="#F26608"/>
<path fill-rule="evenodd" clip-rule="evenodd" d="M9.09735 12.434L9.07422 12.3013L31.2253 8.32715L31.2485 8.4592L9.09735 12.434Z" fill="#F26608"/>
<path fill-rule="evenodd" clip-rule="evenodd" d="M9.08149 12.3459L9.05762 12.2131L31.2087 8.23828L31.2326 8.37107L9.08149 12.3459Z" fill="#F26608"/>
<path fill-rule="evenodd" clip-rule="evenodd" d="M9.06587 12.2573L9.04199 12.1252L31.1931 8.15039L31.217 8.28318L9.06587 12.2573Z" fill="#F26608"/>
<path fill-rule="evenodd" clip-rule="evenodd" d="M9.05024 12.1689L9.02637 12.0369L31.1775 8.06201L31.2006 8.19406L9.05024 12.1689Z" fill="#F26608"/>
<path fill-rule="evenodd" clip-rule="evenodd" d="M9.03387 12.081L9.01074 11.9482L31.1619 7.97412L31.1857 8.10617L9.03387 12.081Z" fill="#F26608"/>
<path fill-rule="evenodd" clip-rule="evenodd" d="M9.0182 11.9929L9.01074 11.9519L31.1626 7.97705L31.1693 8.01808L9.0182 11.9929Z" fill="#F26608"/>
</g>
<mask id="mask1_2329_4135" style="mask-type:luminance" maskUnits="userSpaceOnUse" x="10" y="9" width="9" height="9">
<path d="M10.3818 13.1319C10.3818 15.3566 12.2021 17.1769 14.4268 17.1769C16.6515 17.1769 18.4718 15.3573 18.4718 13.1319C18.4718 10.9065 16.6515 9.08691 14.4268 9.08691C12.2021 9.08691 10.3818 10.9072 10.3818 13.1319Z" fill="white"/>
</mask>
<g mask="url(#mask1_2329_4135)">
<path fill-rule="evenodd" clip-rule="evenodd" d="M10.8945 18.2101L10.899 18.2362L19.5097 16.6912L19.5052 16.665L10.8945 18.2101Z" fill="#F26608"/>
<path fill-rule="evenodd" clip-rule="evenodd" d="M10.9067 18.2804L10.8828 18.1476L19.4935 16.6025L19.5174 16.7353L10.9067 18.2804Z" fill="#F26608"/>
<path fill-rule="evenodd" clip-rule="evenodd" d="M10.8903 18.1925L10.8672 18.0597L19.4771 16.5146L19.501 16.6474L10.8903 18.1925Z" fill="#F26608"/>
<path fill-rule="evenodd" clip-rule="evenodd" d="M10.8747 18.1038L10.8516 17.9718L19.4615 16.4268L19.4854 16.5588L10.8747 18.1038Z" fill="#F26608"/>
<path fill-rule="evenodd" clip-rule="evenodd" d="M10.8588 18.0155L10.835 17.8827L19.4456 16.3384L19.4688 16.4704L10.8588 18.0155Z" fill="#F26608"/>
<path fill-rule="evenodd" clip-rule="evenodd" d="M10.8432 17.9278L10.8193 17.795L19.43 16.25L19.4539 16.3828L10.8432 17.9278Z" fill="#F26608"/>
<path fill-rule="evenodd" clip-rule="evenodd" d="M10.8276 17.8387L10.8037 17.7067L19.4144 16.1616L19.4375 16.2937L10.8276 17.8387Z" fill="#F26608"/>
<path fill-rule="evenodd" clip-rule="evenodd" d="M10.8112 17.7508L10.7881 17.6188L19.398 16.0737L19.4219 16.2058L10.8112 17.7508Z" fill="#F26608"/>
<path fill-rule="evenodd" clip-rule="evenodd" d="M10.7956 17.6629L10.7725 17.5301L19.3824 15.9858L19.4063 16.1179L10.7956 17.6629Z" fill="#F26608"/>
<path fill-rule="evenodd" clip-rule="evenodd" d="M10.7797 17.5748L10.7559 17.442L19.3665 15.897L19.3897 16.0298L10.7797 17.5748Z" fill="#F26608"/>
<path fill-rule="evenodd" clip-rule="evenodd" d="M10.7641 17.4857L10.7402 17.3536L19.3509 15.8086L19.3748 15.9414L10.7641 17.4857Z" fill="#F26608"/>
<path fill-rule="evenodd" clip-rule="evenodd" d="M10.7485 17.3978L10.7246 17.2657L19.3353 15.7207L19.3584 15.8528L10.7485 17.3978Z" fill="#F26608"/>
<path fill-rule="evenodd" clip-rule="evenodd" d="M10.7321 17.3099L10.709 17.1771L19.3189 15.6328L19.3428 15.7649L10.7321 17.3099Z" fill="#F26608"/>
<path fill-rule="evenodd" clip-rule="evenodd" d="M10.7163 17.221L10.6924 17.089L19.3031 15.5439L19.3269 15.6767L10.7163 17.221Z" fill="#F26608"/>
<path fill-rule="evenodd" clip-rule="evenodd" d="M10.7006 17.1331L10.6768 17.0011L19.2874 15.4561L19.3106 15.5881L10.7006 17.1331Z" fill="#F26608"/>
<path fill-rule="evenodd" clip-rule="evenodd" d="M10.685 17.0452L10.6611 16.9124L19.2718 15.3682L19.2949 15.5002L10.685 17.0452Z" fill="#F26608"/>
<path fill-rule="evenodd" clip-rule="evenodd" d="M10.6686 16.9571L10.6455 16.8243L19.2554 15.2793L19.2793 15.4121L10.6686 16.9571Z" fill="#F26608"/>
<path fill-rule="evenodd" clip-rule="evenodd" d="M10.653 16.8685L10.6299 16.7364L19.2398 15.1914L19.2637 15.3235L10.653 16.8685Z" fill="#F26608"/>
<path fill-rule="evenodd" clip-rule="evenodd" d="M10.6372 16.7801L10.6133 16.6481L19.224 15.103L19.2471 15.2351L10.6372 16.7801Z" fill="#F26608"/>
<path fill-rule="evenodd" clip-rule="evenodd" d="M10.6215 16.6922L10.5977 16.5594L19.2083 15.0151L19.2315 15.1472L10.6215 16.6922Z" fill="#F26608"/>
<path fill-rule="evenodd" clip-rule="evenodd" d="M10.6059 16.6041L10.582 16.4713L19.1927 14.9263L19.2158 15.0591L10.6059 16.6041Z" fill="#F26608"/>
<path fill-rule="evenodd" clip-rule="evenodd" d="M10.5895 16.5155L10.5664 16.3834L19.1763 14.8384L19.2002 14.9712L10.5895 16.5155Z" fill="#F26608"/>
<path fill-rule="evenodd" clip-rule="evenodd" d="M10.5747 16.4271L10.5508 16.295L19.1615 14.75L19.1853 14.882L10.5747 16.4271Z" fill="#F26608"/>
<path fill-rule="evenodd" clip-rule="evenodd" d="M10.5581 16.3394L10.5342 16.2066L19.1449 14.6616L19.168 14.7944L10.5581 16.3394Z" fill="#F26608"/>
<path fill-rule="evenodd" clip-rule="evenodd" d="M10.5424 16.2503L10.5186 16.1183L19.1292 14.5732L19.1524 14.706L10.5424 16.2503Z" fill="#F26608"/>
<path fill-rule="evenodd" clip-rule="evenodd" d="M10.5261 16.1624L10.5029 16.0304L19.1129 14.4854L19.1367 14.6174L10.5261 16.1624Z" fill="#F26608"/>
<path fill-rule="evenodd" clip-rule="evenodd" d="M10.5104 16.0745L10.4873 15.9417L19.0972 14.3975L19.1211 14.5295L10.5104 16.0745Z" fill="#F26608"/>
<path fill-rule="evenodd" clip-rule="evenodd" d="M10.4946 15.9864L10.4707 15.8536L19.0814 14.3086L19.1045 14.4414L10.4946 15.9864Z" fill="#F26608"/>
<path fill-rule="evenodd" clip-rule="evenodd" d="M10.479 15.8978L10.4551 15.7657L19.0658 14.2207L19.0889 14.3535L10.479 15.8978Z" fill="#F26608"/>
<path fill-rule="evenodd" clip-rule="evenodd" d="M10.4633 15.8099L10.4395 15.6778L19.0494 14.1328L19.0733 14.2649L10.4633 15.8099Z" fill="#F26608"/>
<path fill-rule="evenodd" clip-rule="evenodd" d="M10.447 15.7215L10.4238 15.5887L19.0338 14.0444L19.0576 14.1765L10.447 15.7215Z" fill="#F26608"/>
<path fill-rule="evenodd" clip-rule="evenodd" d="M10.4313 15.6334L10.4082 15.5006L19.0181 13.9556L19.042 14.0884L10.4313 15.6334Z" fill="#F26608"/>
<path fill-rule="evenodd" clip-rule="evenodd" d="M10.4165 15.5448L10.3926 15.4127L19.0033 13.8677L19.0264 14.0005L10.4165 15.5448Z" fill="#F26608"/>
<path fill-rule="evenodd" clip-rule="evenodd" d="M10.4008 15.4569L10.377 15.3248L18.9869 13.7798L19.0115 13.9118L10.4008 15.4569Z" fill="#F26608"/>
<path fill-rule="evenodd" clip-rule="evenodd" d="M10.3835 15.3687L10.3604 15.2359L18.9703 13.6909L18.9942 13.8237L10.3835 15.3687Z" fill="#F26608"/>
<path fill-rule="evenodd" clip-rule="evenodd" d="M10.3679 15.2801L10.3447 15.1481L18.9547 13.603L18.9785 13.7358L10.3679 15.2801Z" fill="#F26608"/>
<path fill-rule="evenodd" clip-rule="evenodd" d="M10.352 15.1917L10.3281 15.0597L18.9388 13.5146L18.9627 13.6467L10.352 15.1917Z" fill="#F26608"/>
<path fill-rule="evenodd" clip-rule="evenodd" d="M10.3364 15.1038L10.3125 14.971L18.9232 13.4268L18.9471 13.5588L10.3364 15.1038Z" fill="#F26608"/>
<path fill-rule="evenodd" clip-rule="evenodd" d="M10.32 15.0157L10.2969 14.8829L18.9068 13.3379L18.9307 13.4707L10.32 15.0157Z" fill="#F26608"/>
<path fill-rule="evenodd" clip-rule="evenodd" d="M10.3044 14.9271L10.2812 14.795L18.8912 13.25L18.9151 13.3828L10.3044 14.9271Z" fill="#F26608"/>
<path fill-rule="evenodd" clip-rule="evenodd" d="M10.2888 14.8392L10.2656 14.7071L18.8756 13.1621L18.8994 13.2942L10.2888 14.8392Z" fill="#F26608"/>
<path fill-rule="evenodd" clip-rule="evenodd" d="M10.2739 14.7508L10.25 14.618L18.8607 13.0737L18.8838 13.2058L10.2739 14.7508Z" fill="#F26608"/>
<path fill-rule="evenodd" clip-rule="evenodd" d="M10.2582 14.6632L10.2344 14.5304L18.8443 12.9854L18.8689 13.1181L10.2582 14.6632Z" fill="#F26608"/>
<path fill-rule="evenodd" clip-rule="evenodd" d="M10.2419 14.574L10.2188 14.442L18.8287 12.897L18.8526 13.0298L10.2419 14.574Z" fill="#F26608"/>
<path fill-rule="evenodd" clip-rule="evenodd" d="M10.2263 14.4862L10.2031 14.3541L18.8131 12.8091L18.8369 12.9411L10.2263 14.4862Z" fill="#F26608"/>
<path fill-rule="evenodd" clip-rule="evenodd" d="M10.2094 14.398L10.1855 14.2652L18.7962 12.7202L18.8201 12.853L10.2094 14.398Z" fill="#F26608"/>
<path fill-rule="evenodd" clip-rule="evenodd" d="M10.1938 14.3101L10.1699 14.1774L18.7806 12.6323L18.8037 12.7651L10.1938 14.3101Z" fill="#F26608"/>
<path fill-rule="evenodd" clip-rule="evenodd" d="M10.1774 14.221L10.1543 14.089L18.7642 12.5439L18.7881 12.676L10.1774 14.221Z" fill="#F26608"/>
<path fill-rule="evenodd" clip-rule="evenodd" d="M10.1618 14.1331L10.1387 14.0003L18.7486 12.4561L18.7725 12.5881L10.1618 14.1331Z" fill="#F26608"/>
<path fill-rule="evenodd" clip-rule="evenodd" d="M10.1462 14.045L10.123 13.9122L18.733 12.3672L18.7569 12.4992L10.1462 14.045Z" fill="#F26608"/>
<path fill-rule="evenodd" clip-rule="evenodd" d="M10.1313 13.9564L10.1074 13.8243L18.7181 12.2793L18.7412 12.4121L10.1313 13.9564Z" fill="#F26608"/>
<path fill-rule="evenodd" clip-rule="evenodd" d="M10.1157 13.8685L10.0918 13.7364L18.7017 12.1914L18.7264 12.3235L10.1157 13.8685Z" fill="#F26608"/>
<path fill-rule="evenodd" clip-rule="evenodd" d="M10.0993 13.7806L10.0762 13.6478L18.6861 12.1035L18.71 12.2348L10.0993 13.7806Z" fill="#F26608"/>
<path fill-rule="evenodd" clip-rule="evenodd" d="M10.0837 13.6925L10.0605 13.5597L18.6705 12.0146L18.6944 12.1474L10.0837 13.6925Z" fill="#F26608"/>
<path fill-rule="evenodd" clip-rule="evenodd" d="M10.0678 13.6038L10.0439 13.4718L18.6546 11.9268L18.6785 12.0596L10.0678 13.6038Z" fill="#F26608"/>
<path fill-rule="evenodd" clip-rule="evenodd" d="M10.0522 13.5155L10.0283 13.3834L18.639 11.8384L18.6621 11.9704L10.0522 13.5155Z" fill="#F26608"/>
<path fill-rule="evenodd" clip-rule="evenodd" d="M10.0348 13.4273L10.0117 13.2945L18.6217 11.7495L18.6455 11.8823L10.0348 13.4273Z" fill="#F26608"/>
<path fill-rule="evenodd" clip-rule="evenodd" d="M10.0192 13.3394L9.99609 13.2066L18.606 11.6616L18.6299 11.7944L10.0192 13.3394Z" fill="#F26608"/>
<path fill-rule="evenodd" clip-rule="evenodd" d="M10.0043 13.2508L9.98047 13.1188L18.5911 11.5737L18.615 11.7058L10.0043 13.2508Z" fill="#F26608"/>
<path fill-rule="evenodd" clip-rule="evenodd" d="M9.98872 13.1624L9.96484 13.0296L18.5755 11.4854L18.5986 11.6174L9.98872 13.1624Z" fill="#F26608"/>
<path fill-rule="evenodd" clip-rule="evenodd" d="M9.97309 13.0748L9.94922 12.942L18.5599 11.397L18.583 11.5298L9.97309 13.0748Z" fill="#F26608"/>
<path fill-rule="evenodd" clip-rule="evenodd" d="M9.95672 12.9857L9.93359 12.8536L18.5435 11.3086L18.5674 11.4414L9.95672 12.9857Z" fill="#F26608"/>
<path fill-rule="evenodd" clip-rule="evenodd" d="M9.9411 12.8978L9.91797 12.7657L18.5279 11.2207L18.5518 11.3527L9.9411 12.8978Z" fill="#F26608"/>
<path fill-rule="evenodd" clip-rule="evenodd" d="M9.92524 12.8099L9.90137 12.6771L18.512 11.1328L18.5352 11.2649L9.92524 12.8099Z" fill="#F26608"/>
<path fill-rule="evenodd" clip-rule="evenodd" d="M9.90962 12.7218L9.88574 12.589L18.4964 11.0439L18.5195 11.1767L9.90962 12.7218Z" fill="#F26608"/>
<path fill-rule="evenodd" clip-rule="evenodd" d="M9.89325 12.6331L9.87012 12.5011L18.4801 10.9561L18.5047 11.0888L9.89325 12.6331Z" fill="#F26608"/>
<path fill-rule="evenodd" clip-rule="evenodd" d="M9.87762 12.5452L9.85449 12.4132L18.4644 10.8682L18.4883 11.0002L9.87762 12.5452Z" fill="#F26608"/>
<path fill-rule="evenodd" clip-rule="evenodd" d="M9.86176 12.4569L9.83789 12.3241L18.4486 10.7798L18.4724 10.9118L9.86176 12.4569Z" fill="#F26608"/>
<path fill-rule="evenodd" clip-rule="evenodd" d="M9.84614 12.368L9.82227 12.2359L18.4329 10.6909L18.4561 10.8237L9.84614 12.368Z" fill="#F26608"/>
<path fill-rule="evenodd" clip-rule="evenodd" d="M9.82977 12.2801L9.80664 12.1481L18.4166 10.603L18.4412 10.7351L9.82977 12.2801Z" fill="#F26608"/>
<path fill-rule="evenodd" clip-rule="evenodd" d="M9.81414 12.1922L9.79102 12.0594L18.4009 10.5151L18.4248 10.6472L9.81414 12.1922Z" fill="#F26608"/>
<path fill-rule="evenodd" clip-rule="evenodd" d="M9.79852 12.1041L9.77539 11.9713L18.3853 10.4263L18.4092 10.5591L9.79852 12.1041Z" fill="#F26608"/>
<path fill-rule="evenodd" clip-rule="evenodd" d="M9.78266 12.0155L9.75879 11.8834L18.3695 10.3384L18.3926 10.4712L9.78266 12.0155Z" fill="#F26608"/>
<path fill-rule="evenodd" clip-rule="evenodd" d="M9.76704 11.9271L9.74316 11.795L18.3538 10.25L18.377 10.382L9.76704 11.9271Z" fill="#F26608"/>
<path fill-rule="evenodd" clip-rule="evenodd" d="M9.75067 11.8392L9.72754 11.7064L18.3375 10.1621L18.3613 10.2942L9.75067 11.8392Z" fill="#F26608"/>
<path fill-rule="evenodd" clip-rule="evenodd" d="M9.73504 11.7511L9.71191 11.6183L18.3218 10.0732L18.3457 10.2053L9.73504 11.7511Z" fill="#F26608"/>
<path fill-rule="evenodd" clip-rule="evenodd" d="M9.71919 11.6624L9.69531 11.5304L18.306 9.98535L18.3299 10.1174L9.71919 11.6624Z" fill="#F26608"/>
<path fill-rule="evenodd" clip-rule="evenodd" d="M9.70356 11.5745L9.67969 11.4425L18.2904 9.89746L18.3142 10.0295L9.70356 11.5745Z" fill="#F26608"/>
<path fill-rule="evenodd" clip-rule="evenodd" d="M9.68794 11.4866L9.66406 11.3539L18.2747 9.80957L18.2979 9.94087L9.68794 11.4866Z" fill="#F26608"/>
<path fill-rule="evenodd" clip-rule="evenodd" d="M9.67156 11.3978L9.64844 11.2657L18.2584 9.7207L18.2822 9.8535L9.67156 11.3978Z" fill="#F26608"/>
<path fill-rule="evenodd" clip-rule="evenodd" d="M9.65571 11.3094L9.63184 11.1774L18.2425 9.63232L18.2664 9.76437L9.65571 11.3094Z" fill="#F26608"/>
<path fill-rule="evenodd" clip-rule="evenodd" d="M9.64008 11.2215L9.61621 11.0887L18.2269 9.54443L18.25 9.67648L9.64008 11.2215Z" fill="#F26608"/>
<path fill-rule="evenodd" clip-rule="evenodd" d="M9.62446 11.1334L9.60059 11.0006L18.2113 9.45557L18.2344 9.58836L9.62446 11.1334Z" fill="#F26608"/>
<path fill-rule="evenodd" clip-rule="evenodd" d="M9.60883 11.0448L9.58496 10.9127L18.1956 9.36768L18.2188 9.50047L9.60883 11.0448Z" fill="#F26608"/>
<path fill-rule="evenodd" clip-rule="evenodd" d="M9.59246 10.9564L9.56934 10.8243L18.1793 9.2793L18.2031 9.41134L9.59246 10.9564Z" fill="#F26608"/>
<path fill-rule="evenodd" clip-rule="evenodd" d="M9.57661 10.8685L9.55273 10.7357L18.1634 9.19141L18.1865 9.32271L9.57661 10.8685Z" fill="#F26608"/>
<path fill-rule="evenodd" clip-rule="evenodd" d="M9.56098 10.7804L9.53711 10.6476L18.1478 9.10254L18.1709 9.23533L9.56098 10.7804Z" fill="#F26608"/>
<path fill-rule="evenodd" clip-rule="evenodd" d="M9.54536 10.6917L9.52148 10.5597L18.1322 9.01465L18.1553 9.1467L9.54536 10.6917Z" fill="#F26608"/>
<path fill-rule="evenodd" clip-rule="evenodd" d="M9.52899 10.6038L9.50586 10.4718L18.1158 8.92676L18.1397 9.0588L9.52899 10.6038Z" fill="#F26608"/>
<path fill-rule="evenodd" clip-rule="evenodd" d="M9.51336 10.5157L9.49023 10.3829L18.1002 8.83789L18.124 8.97068L9.51336 10.5157Z" fill="#F26608"/>
<path fill-rule="evenodd" clip-rule="evenodd" d="M9.49751 10.4278L9.47363 10.295L18.0843 8.75L18.1074 8.88279L9.49751 10.4278Z" fill="#F26608"/>
<path fill-rule="evenodd" clip-rule="evenodd" d="M9.48188 10.3392L9.45801 10.2071L18.0687 8.66211L18.0918 8.79416L9.48188 10.3392Z" fill="#F26608"/>
<path fill-rule="evenodd" clip-rule="evenodd" d="M9.46626 10.2508L9.44238 10.118L18.0523 8.57373L18.0762 8.70578L9.46626 10.2508Z" fill="#F26608"/>
<path d="M17.9591 8.05401L9.34863 9.59863L9.44967 10.1618L18.0602 8.61723L17.9591 8.05401Z" fill="#F26608"/>
</g>
</svg>
