<svg width="143" height="143" viewBox="0 0 143 143" fill="none" xmlns="http://www.w3.org/2000/svg">
<rect width="143" height="143" fill="#F5F5F5"/>
<g id="Group 38371">
<path id="Union" fill-rule="evenodd" clip-rule="evenodd" d="M-117 -424.048L115.971 -383.088L483 -474V-273V45V475C483 480.523 478.523 485 473 485H-107C-112.523 485 -117 480.523 -117 475V45V-273V-424.048Z" fill="#EBEDF6"/>
<g id="Group 38363">
<circle id="Ellipse 1160" cx="71.5" cy="71.5" r="71.5" fill="white"/>
<g id="Group 814">
<path id="Vector" d="M111.787 69.8096C111.787 69.7222 111.787 69.642 111.787 69.5546C111.787 48.814 93.7024 32 71.3937 32C49.0851 32 31 48.814 31 69.5546C31 69.6348 31 69.7149 31 69.795V73.4376C31 94.1782 49.0851 110.992 71.3937 110.992C93.7024 110.992 111.787 94.1782 111.787 73.4376V69.8096Z" fill="#B96400"/>
<path id="Vector_2" fill-rule="evenodd" clip-rule="evenodd" d="M71.3937 99.174C67.0918 99.174 62.9153 98.3945 58.9974 96.85C55.2049 95.3566 51.7963 93.222 48.8657 90.4974C45.9351 87.7728 43.6392 84.6038 42.0328 81.0778C40.3716 77.428 39.5332 73.5523 39.5332 69.5528C39.5332 65.5533 40.3716 61.6703 42.0328 58.0278C43.6392 54.5018 45.9351 51.3328 48.8657 48.6082C51.7963 45.8836 55.2049 43.749 58.9974 42.2556C62.9232 40.7111 67.0918 39.9316 71.3937 39.9316C75.6956 39.9316 79.8721 40.7111 83.79 42.2556C87.5825 43.749 90.9911 45.8836 93.9217 48.6082C96.8523 51.3328 99.1482 54.5018 100.755 58.0278C102.416 61.6776 103.254 65.5533 103.254 69.5528C103.254 73.5523 102.416 77.4353 100.755 81.0778C99.1482 84.6038 96.8523 87.7728 93.9217 90.4974C90.9911 93.222 87.5825 95.3566 83.79 96.85C79.8721 98.3945 75.7034 99.174 71.3937 99.174Z" fill="url(#paint0_linear_0_1)"/>
<path id="Vector_3" d="M71.3935 41.3974C75.4838 41.3974 79.4488 42.1404 83.1786 43.6047C86.7831 45.0253 90.0271 47.0506 92.8089 49.6441C95.5906 52.2303 97.7768 55.2463 99.3048 58.5974C100.88 62.0651 101.679 65.7514 101.679 69.5542C101.679 73.357 100.88 77.0433 99.3048 80.511C97.7768 83.8621 95.5984 86.8781 92.8089 89.4644C90.0271 92.0506 86.7831 94.0831 83.1786 95.5037C79.4488 96.968 75.4838 97.7111 71.3935 97.7111C67.3032 97.7111 63.3383 96.968 59.6084 95.5037C56.0039 94.0831 52.7599 92.0578 49.9782 89.4644C47.1965 86.8781 45.0103 83.8621 43.4823 80.511C41.9073 77.0433 41.108 73.357 41.108 69.5542C41.108 65.7514 41.9073 62.0651 43.4823 58.5974C45.0103 55.2463 47.1886 52.2303 49.9782 49.6441C52.7599 47.0579 56.0039 45.0253 59.6084 43.6047C63.3383 42.1404 67.3032 41.3974 71.3935 41.3974ZM71.3935 38.4688C66.8801 38.4688 62.4998 39.292 58.3782 40.9093C54.3976 42.4755 50.8166 44.7194 47.745 47.5751C44.6733 50.4309 42.2599 53.7601 40.5752 57.461C38.8435 61.2856 37.958 65.358 37.958 69.5542C37.958 73.7504 38.8435 77.8228 40.583 81.6547C42.2677 85.3556 44.6812 88.6848 47.7528 91.5406C50.8245 94.3964 54.4054 96.6402 58.386 98.2065C62.5077 99.8237 66.8801 100.647 71.4014 100.647C75.9148 100.647 80.295 99.8237 84.4167 98.2065C88.3973 96.6402 91.9783 94.3964 95.0499 91.5406C98.1216 88.6848 100.535 85.3556 102.22 81.6547C103.959 77.8228 104.845 73.7577 104.845 69.5542C104.845 65.358 103.959 61.2856 102.22 57.4537C100.535 53.7529 98.1216 50.4236 95.0499 47.5678C91.9783 44.7121 88.3973 42.4683 84.4167 40.902C80.2872 39.292 75.9148 38.4688 71.3935 38.4688Z" fill="url(#paint1_linear_0_1)"/>
<path id="Vector_4" d="M71.3937 38.4692C75.9072 38.4692 80.2874 39.2924 84.4091 40.9097C88.3897 42.476 91.9706 44.7198 95.0423 47.5755C98.1139 50.4313 100.527 53.7605 102.212 57.4614C103.952 61.2933 104.837 65.3584 104.837 69.5619C104.837 73.7581 103.952 77.8305 102.212 81.6624C100.527 85.3633 98.1139 88.6925 95.0423 91.5483C91.9706 94.404 88.3897 96.6479 84.4091 98.2141C80.2874 99.8241 75.915 100.647 71.3937 100.647C66.8803 100.647 62.5001 99.8241 58.3784 98.2069C54.3978 96.6406 50.8168 94.3968 47.7452 91.541C44.6735 88.6852 42.2601 85.356 40.5754 81.6551C38.8437 77.8232 37.9582 73.7581 37.9582 69.5546C37.9582 65.3584 38.8437 61.286 40.5832 57.4541C42.2679 53.7533 44.6814 50.424 47.753 47.5682C50.8247 44.7125 54.4056 42.4687 58.3862 40.9024C62.5001 39.2924 66.8803 38.4692 71.3937 38.4692ZM71.3937 32C49.0851 32 31 48.814 31 69.5546C31 90.2953 49.0851 107.109 71.3937 107.109C93.7024 107.109 111.787 90.2953 111.787 69.5546C111.787 48.814 93.7024 32 71.3937 32Z" fill="url(#paint2_linear_0_1)"/>
<g id="Group 807">
<g id="Group 806">
<g id="Group 804">
<path id="Vector_5" d="M81.7091 59.0195C79.4514 59.0195 77.6123 60.8177 77.6123 63.0253C77.6123 65.2301 79.4514 67.031 81.7091 67.031C83.964 67.031 85.8059 65.2328 85.8059 63.0253C85.8059 60.8177 83.9668 59.0195 81.7091 59.0195Z" fill="#D57A00"/>
<path id="Vector_6" d="M81.7083 53.3008C77.4557 53.3008 73.8281 55.9092 72.405 59.5789C71.2274 62.6211 67.0948 63.2023 65.0885 60.6075C64.3378 59.6417 63.1547 59.0169 61.8181 59.0169C59.5522 59.0169 57.7217 60.8094 57.7217 63.0222C57.7217 65.235 59.555 67.0275 61.8181 67.0275C63.1882 67.0275 64.402 66.37 65.1443 65.3577C67.0446 62.7739 71.2888 63.6197 72.4162 66.4955C73.8449 70.1489 77.4641 72.7436 81.7056 72.7436C87.1972 72.7436 91.6479 68.3918 91.6479 63.0222C91.6507 57.6554 87.1999 53.3008 81.7083 53.3008ZM81.7083 69.3685C78.1226 69.3685 75.2178 66.5282 75.2178 63.0249C75.2178 59.5189 78.1226 56.6786 81.7083 56.6786C85.2913 56.6786 88.1961 59.5189 88.1961 63.0249C88.1961 66.5282 85.2913 69.3685 81.7083 69.3685Z" fill="#D57A00"/>
<path id="Vector_7" d="M68.3964 66.1533C67.8048 66.1533 67.283 66.4425 66.9705 66.8872C65.7845 68.3988 63.9205 69.3701 61.8221 69.3701C58.2364 69.3701 55.3315 66.5298 55.3315 63.0265C55.3315 59.5204 58.2364 56.6801 61.8221 56.6801C63.9149 56.6801 65.8013 57.6706 66.9872 59.1767C67.0067 59.2012 67.0235 59.2258 67.043 59.2503C67.0458 59.2558 67.0486 59.2585 67.0542 59.2612C67.3695 59.6378 67.8495 59.8779 68.3852 59.8779C69.334 59.8779 70.1069 59.1248 70.1069 58.1944C70.1069 57.8588 70.0065 57.5478 69.8363 57.2858C69.8223 57.2531 69.8056 57.2231 69.7832 57.1931C67.9695 54.8275 65.0786 53.2969 61.8221 53.2969C56.3305 53.2969 51.877 57.6487 51.877 63.021C51.877 68.3906 56.3305 72.7424 61.8221 72.7424C65.0479 72.7424 67.9136 71.2418 69.7302 68.9144C69.9758 68.6225 70.1265 68.246 70.1265 67.8394C70.1265 66.9118 69.3507 66.1533 68.3964 66.1533Z" fill="#D57A00"/>
<path id="Vector_8" d="M83.8221 79.87C83.8221 78.3994 82.6026 77.207 81.0986 77.207C79.5945 77.207 78.3751 78.3994 78.3751 79.87C78.3751 79.9055 78.3835 79.9355 78.3863 79.9709H78.3751C78.3751 83.9272 75.0963 87.1331 71.0502 87.1331C67.004 87.1331 63.7253 83.9272 63.7253 79.9709H63.7141C63.7141 79.9382 63.7253 79.9055 63.7253 79.87C63.7253 78.3994 62.5058 77.207 61.0018 77.207C59.4977 77.207 58.2783 78.3994 58.2783 79.87C58.2783 79.9055 58.2867 79.9355 58.2895 79.9709H58.2783C58.2783 86.8684 63.9959 92.459 71.0502 92.459C78.1044 92.459 83.8221 86.8684 83.8221 79.9709H83.8109C83.8137 79.9355 83.8221 79.9027 83.8221 79.87Z" fill="#D57A00"/>
</g>
</g>
<g id="Group 805">
<g id="Group 804_2">
<path id="Vector_9" d="M80.9708 56.2578C78.7131 56.2578 76.874 58.056 76.874 60.2635C76.874 62.4683 78.7131 64.2693 80.9708 64.2693C83.2257 64.2693 85.0676 62.4711 85.0676 60.2635C85.0676 58.056 83.2285 56.2578 80.9708 56.2578Z" fill="#FFFF00"/>
<path id="Vector_10" d="M80.973 50.5391C76.7204 50.5391 73.0928 53.1474 71.6696 56.8172C70.4921 59.8594 66.3594 60.4406 64.3531 57.8458C63.6025 56.8799 62.4193 56.2551 61.0827 56.2551C58.8169 56.2551 56.9863 58.0477 56.9863 60.2605C56.9863 62.4732 58.8196 64.2658 61.0827 64.2658C62.4528 64.2658 63.6667 63.6083 64.4089 62.596C66.3092 60.0122 70.5535 60.858 71.6808 63.7338C73.1095 67.3871 76.7287 69.9819 80.9702 69.9819C86.4618 69.9819 90.9126 65.63 90.9126 60.2605C90.9154 54.8936 86.4646 50.5391 80.973 50.5391ZM80.973 66.6068C77.3873 66.6068 74.4824 63.7665 74.4824 60.2632C74.4824 56.7572 77.3873 53.9169 80.973 53.9169C84.5559 53.9169 87.4608 56.7572 87.4608 60.2632C87.4608 63.7665 84.5559 66.6068 80.973 66.6068Z" fill="#FFFF00"/>
<path id="Vector_11" d="M67.6581 63.3876C67.0665 63.3876 66.5447 63.6769 66.2322 64.1216C65.0463 65.6331 63.1822 66.6045 61.0838 66.6045C57.4981 66.6045 54.5932 63.7642 54.5932 60.2609C54.5932 56.7548 57.4981 53.9145 61.0838 53.9145C63.1767 53.9145 65.063 54.9049 66.2489 56.411C66.2685 56.4356 66.2852 56.4601 66.3047 56.4847C66.3075 56.4902 66.3103 56.4929 66.3159 56.4956C66.6312 56.8721 67.1112 57.1122 67.6469 57.1122C68.5957 57.1122 69.3687 56.3592 69.3687 55.4288C69.3687 55.0932 69.2682 54.7822 69.098 54.5202C69.084 54.4875 69.0673 54.4575 69.045 54.4275C67.2312 52.0619 64.3403 50.5312 61.0838 50.5312C55.5922 50.5312 51.1387 54.8831 51.1387 60.2554C51.1387 65.625 55.5922 69.9768 61.0838 69.9768C64.3096 69.9768 67.1754 68.4762 68.9919 66.1488C69.2375 65.8569 69.3882 65.4803 69.3882 65.0738C69.3882 64.1461 68.6124 63.3876 67.6581 63.3876Z" fill="#FFFF00"/>
<path id="Vector_12" d="M83.0857 77.1083C83.0857 75.6376 81.8663 74.4453 80.3623 74.4453C78.8582 74.4453 77.6388 75.6376 77.6388 77.1083C77.6388 77.1437 77.6472 77.1737 77.6499 77.2092H77.6388C77.6388 81.1654 74.36 84.3714 70.3139 84.3714C66.2677 84.3714 62.9889 81.1654 62.9889 77.2092H62.9778C62.9778 77.1765 62.9889 77.1437 62.9889 77.1083C62.9889 75.6376 61.7695 74.4453 60.2655 74.4453C58.7614 74.4453 57.542 75.6376 57.542 77.1083C57.542 77.1437 57.5504 77.1737 57.5532 77.2092H57.542C57.542 84.1067 63.2596 89.6973 70.3139 89.6973C77.3681 89.6973 83.0857 84.1067 83.0857 77.2092H83.0746C83.0774 77.1737 83.0857 77.141 83.0857 77.1083Z" fill="#FFFF00"/>
</g>
</g>
</g>
</g>
</g>
<circle id="Ellipse 1165" cx="12.5" cy="22.5" r="27.5" fill="#0E42E5"/>
<path id="50 People" d="M-2.56055 17.541C-1.0306 18.3809 0.704427 18.8008 2.64453 18.8008C3.20443 18.8008 3.64714 18.6738 3.97266 18.4199C4.29818 18.166 4.46094 17.8861 4.46094 17.5801C4.46094 17.2676 4.41862 17.0299 4.33398 16.8672C4.24935 16.7044 4.13867 16.571 4.00195 16.4668C3.75456 16.278 3.45833 16.1608 3.11328 16.1152C2.76823 16.0632 2.31901 16.0371 1.76562 16.0371C1.21875 16.0371 0.343099 16.1576 -0.861328 16.3984L-3.70312 15.2168L-2.0625 7.38477H10.877L10.0566 11.3203H2.38086L2.09766 12.9023C2.71615 12.8177 3.30859 12.7754 3.875 12.7754C4.44792 12.7754 5.02083 12.8112 5.59375 12.8828C6.17318 12.9544 6.72982 13.0716 7.26367 13.2344C8.44206 13.5924 9.38281 14.1426 10.0859 14.8848C10.7891 15.627 11.1406 16.6458 11.1406 17.9414C11.1406 19.2305 10.7174 20.3177 9.87109 21.2031C8.50391 22.6354 6.24154 23.3548 3.08398 23.3613C0.857422 23.3613 -1.13802 23.026 -2.90234 22.3555C-3.60547 22.0885 -4.26302 21.7435 -4.875 21.3203L-2.56055 17.541ZM20.7988 23.3613C19.6139 23.3613 18.5299 23.1562 17.5469 22.7461C16.5703 22.3294 15.7305 21.7533 15.0273 21.0176C13.543 19.4616 12.8008 17.4792 12.8008 15.0703C12.8008 12.6549 13.5267 10.7018 14.9785 9.21094C16.4368 7.71354 18.377 6.96484 20.7988 6.96484C23.2207 6.96484 25.1576 7.71354 26.6094 9.21094C28.0677 10.7018 28.7969 12.6712 28.7969 15.1191C28.7969 16.304 28.6016 17.401 28.2109 18.4102C27.8203 19.4128 27.2734 20.2819 26.5703 21.0176C25.8672 21.7533 25.0241 22.3294 24.041 22.7461C23.0645 23.1562 21.9837 23.3613 20.7988 23.3613ZM19.0605 15.4219C19.0605 17.5117 19.64 18.5566 20.7988 18.5566C21.9577 18.5566 22.5371 17.5117 22.5371 15.4219C22.5371 14.4062 22.4785 13.6934 22.3613 13.2832C22.2507 12.873 22.1302 12.5671 22 12.3652C21.7201 11.9225 21.3197 11.7012 20.7988 11.7012C19.6921 11.7077 19.1159 12.7005 19.0703 14.6797C19.0638 14.9531 19.0605 15.2005 19.0605 15.4219ZM0.502422 30.02C0.502422 30.62 0.305755 31.1033 -0.0875779 31.47C-0.480911 31.8367 -1.07091 32.02 -1.85758 32.02H-3.26758V35H-3.96758V28.01H-1.85758C-1.07758 28.01 -0.490911 28.1933 -0.097578 28.56C0.302422 28.9267 0.502422 29.4133 0.502422 30.02ZM-1.85758 31.42C-0.764245 31.42 -0.217578 30.9533 -0.217578 30.02C-0.217578 29.5533 -0.347578 29.2 -0.607578 28.96C-0.867578 28.72 -1.28424 28.6 -1.85758 28.6H-3.26758V31.42H-1.85758ZM6.61695 31.99C6.61695 32.23 6.61029 32.4133 6.59695 32.54H2.06695C2.08695 32.9533 2.18695 33.3067 2.36695 33.6C2.54695 33.8933 2.78362 34.1167 3.07695 34.27C3.37029 34.4167 3.69029 34.49 4.03695 34.49C4.49029 34.49 4.87029 34.38 5.17695 34.16C5.49029 33.94 5.69695 33.6433 5.79695 33.27H6.53695C6.40362 33.8033 6.11695 34.24 5.67695 34.58C5.24362 34.9133 4.69695 35.08 4.03695 35.08C3.52362 35.08 3.06362 34.9667 2.65695 34.74C2.25029 34.5067 1.93029 34.18 1.69695 33.76C1.47029 33.3333 1.35695 32.8367 1.35695 32.27C1.35695 31.7033 1.47029 31.2067 1.69695 30.78C1.92362 30.3533 2.24029 30.0267 2.64695 29.8C3.05362 29.5733 3.51695 29.46 4.03695 29.46C4.55695 29.46 5.01029 29.5733 5.39695 29.8C5.79029 30.0267 6.09029 30.3333 6.29695 30.72C6.51029 31.1 6.61695 31.5233 6.61695 31.99ZM5.90695 31.97C5.91362 31.5633 5.83029 31.2167 5.65695 30.93C5.49029 30.6433 5.26029 30.4267 4.96695 30.28C4.67362 30.1333 4.35362 30.06 4.00695 30.06C3.48695 30.06 3.04362 30.2267 2.67695 30.56C2.31029 30.8933 2.10695 31.3633 2.06695 31.97H5.90695ZM10.2877 35.08C9.77432 35.08 9.31099 34.9667 8.89766 34.74C8.49099 34.5067 8.16766 34.18 7.92766 33.76C7.69432 33.3333 7.57766 32.8367 7.57766 32.27C7.57766 31.7033 7.69766 31.21 7.93766 30.79C8.17766 30.3633 8.50432 30.0367 8.91766 29.81C9.33099 29.5767 9.79432 29.46 10.3077 29.46C10.821 29.46 11.2843 29.5767 11.6977 29.81C12.1177 30.0367 12.4443 30.3633 12.6777 30.79C12.9177 31.21 13.0377 31.7033 13.0377 32.27C13.0377 32.83 12.9177 33.3233 12.6777 33.75C12.4377 34.1767 12.1077 34.5067 11.6877 34.74C11.2677 34.9667 10.801 35.08 10.2877 35.08ZM10.2877 34.47C10.6477 34.47 10.981 34.39 11.2877 34.23C11.5943 34.0633 11.841 33.8167 12.0277 33.49C12.221 33.1567 12.3177 32.75 12.3177 32.27C12.3177 31.79 12.2243 31.3867 12.0377 31.06C11.851 30.7267 11.6043 30.48 11.2977 30.32C10.991 30.1533 10.6577 30.07 10.2977 30.07C9.93766 30.07 9.60432 30.1533 9.29766 30.32C8.99099 30.48 8.74432 30.7267 8.55766 31.06C8.37766 31.3867 8.28766 31.79 8.28766 32.27C8.28766 32.75 8.37766 33.1567 8.55766 33.49C8.74432 33.8167 8.98766 34.0633 9.28766 34.23C9.59432 34.39 9.92766 34.47 10.2877 34.47ZM15.0037 30.74C15.177 30.3733 15.4503 30.07 15.8237 29.83C16.2037 29.5833 16.6537 29.46 17.1737 29.46C17.667 29.46 18.1103 29.5767 18.5037 29.81C18.9037 30.0367 19.2137 30.3633 19.4337 30.79C19.6603 31.21 19.7737 31.7 19.7737 32.26C19.7737 32.82 19.6603 33.3133 19.4337 33.74C19.2137 34.1667 18.9037 34.4967 18.5037 34.73C18.1103 34.9633 17.667 35.08 17.1737 35.08C16.6603 35.08 16.2137 34.96 15.8337 34.72C15.4537 34.4733 15.177 34.1667 15.0037 33.8V37.58H14.3137V29.54H15.0037V30.74ZM19.0637 32.26C19.0637 31.8067 18.9737 31.4167 18.7937 31.09C18.6203 30.7567 18.3803 30.5033 18.0737 30.33C17.767 30.1567 17.4203 30.07 17.0337 30.07C16.6603 30.07 16.317 30.16 16.0037 30.34C15.697 30.52 15.4537 30.7767 15.2737 31.11C15.0937 31.4433 15.0037 31.83 15.0037 32.27C15.0037 32.71 15.0937 33.0967 15.2737 33.43C15.4537 33.7633 15.697 34.02 16.0037 34.2C16.317 34.38 16.6603 34.47 17.0337 34.47C17.4203 34.47 17.767 34.3833 18.0737 34.21C18.3803 34.03 18.6203 33.7733 18.7937 33.44C18.9737 33.1 19.0637 32.7067 19.0637 32.26ZM21.7617 27.6V35H21.0617V27.6H21.7617ZM28.2869 31.99C28.2869 32.23 28.2802 32.4133 28.2669 32.54H23.7369C23.7569 32.9533 23.8569 33.3067 24.0369 33.6C24.2169 33.8933 24.4535 34.1167 24.7469 34.27C25.0402 34.4167 25.3602 34.49 25.7069 34.49C26.1602 34.49 26.5402 34.38 26.8469 34.16C27.1602 33.94 27.3669 33.6433 27.4669 33.27H28.2069C28.0735 33.8033 27.7869 34.24 27.3469 34.58C26.9135 34.9133 26.3669 35.08 25.7069 35.08C25.1935 35.08 24.7335 34.9667 24.3269 34.74C23.9202 34.5067 23.6002 34.18 23.3669 33.76C23.1402 33.3333 23.0269 32.8367 23.0269 32.27C23.0269 31.7033 23.1402 31.2067 23.3669 30.78C23.5935 30.3533 23.9102 30.0267 24.3169 29.8C24.7235 29.5733 25.1869 29.46 25.7069 29.46C26.2269 29.46 26.6802 29.5733 27.0669 29.8C27.4602 30.0267 27.7602 30.3333 27.9669 30.72C28.1802 31.1 28.2869 31.5233 28.2869 31.99ZM27.5769 31.97C27.5835 31.5633 27.5002 31.2167 27.3269 30.93C27.1602 30.6433 26.9302 30.4267 26.6369 30.28C26.3435 30.1333 26.0235 30.06 25.6769 30.06C25.1569 30.06 24.7135 30.2267 24.3469 30.56C23.9802 30.8933 23.7769 31.3633 23.7369 31.97H27.5769Z" fill="white"/>
</g>
<defs>
<linearGradient id="paint0_linear_0_1" x1="71.3952" y1="102.369" x2="71.3952" y2="43.1225" gradientUnits="userSpaceOnUse">
<stop stop-color="#F0B100"/>
<stop offset="0.9876" stop-color="#EBA700"/>
</linearGradient>
<linearGradient id="paint1_linear_0_1" x1="71.395" y1="39.2292" x2="71.395" y2="101.405" gradientUnits="userSpaceOnUse">
<stop stop-color="#C96D00"/>
<stop offset="0.5383" stop-color="#F3AC00"/>
<stop offset="0.9876" stop-color="#FFFF00"/>
</linearGradient>
<linearGradient id="paint2_linear_0_1" x1="71.3952" y1="107.873" x2="71.3952" y2="32.7613" gradientUnits="userSpaceOnUse">
<stop offset="8e-08" stop-color="#FFC100"/>
<stop offset="0.2951" stop-color="#FFD100"/>
<stop offset="0.6566" stop-color="#FFDF00"/>
<stop offset="0.9876" stop-color="#FFE300"/>
</linearGradient>
</defs>
</svg>
