<svg width="380" height="156" viewBox="0 0 380 156" fill="none" xmlns="http://www.w3.org/2000/svg">
<g filter="url(#filter0_d_2160_3997)">
<path d="M14.002 60.7084C14.002 47.7801 24.2845 35.9291 37.348 34.0922C50.4114 32.2553 60.694 41.2189 60.694 54.1473C60.694 67.0756 50.4114 78.9266 37.348 80.7635C24.2845 82.6004 14.002 73.6367 14.002 60.7084ZM57.2611 54.6321C57.2611 43.5137 48.5306 35.8214 37.3426 37.3943C26.1546 38.9673 17.4241 49.1106 17.4241 60.229C17.4241 71.3473 26.1546 79.0397 37.3426 77.4668C48.5306 75.8938 57.2611 65.7505 57.2611 54.6321Z" fill="white"/>
<path d="M64.5586 60.0738C64.5586 50.5068 71.8017 42.1842 81.5669 40.8159C87.9046 39.9271 93.3369 42.3943 95.6651 47.1077L93.0136 49.0308C91.1381 45.2223 86.7405 43.1915 81.5669 43.9187C73.7418 45.0176 67.8568 51.9181 67.8568 59.6105C67.8568 67.3029 73.7418 72.555 81.5669 71.4507C86.8052 70.7127 91.0735 67.3998 93.2076 63.0904L95.9237 64.324C93.3369 69.6623 87.9046 73.6593 81.5669 74.5481C71.8017 75.9217 64.5586 69.6353 64.5586 60.0684V60.0738Z" fill="white"/>
<path d="M131.6 50.7824C131.6 51.2995 131.536 51.8274 131.536 52.3445L102.24 56.4601C103.016 63.6568 108.578 67.6592 115.95 66.6196C121.253 65.8762 125.262 62.8542 127.138 59.1642L129.983 60.4463C127.332 65.2136 122.288 68.8335 115.885 69.7331C105.926 71.1337 98.877 65.0089 98.877 55.2534C98.877 45.4979 105.732 37.4177 115.627 36.0279C125.456 34.6489 131.6 41.9265 131.6 50.7824ZM102.24 53.2926L128.237 49.6404C127.526 41.8564 121.964 38.2419 115.627 39.1307C108.254 40.165 102.887 46.0258 102.24 53.2926Z" fill="white"/>
<path d="M170.246 29.0684V61.3892L166.948 61.8525V54.5479C164.232 59.7785 159.252 63.6463 153.044 64.5189C143.86 65.8064 136.294 59.5684 136.294 50.0015C136.294 40.4345 143.86 32.0688 153.044 30.776C159.252 29.9033 164.232 32.3705 166.948 36.8361V29.5316L170.246 29.0684ZM166.948 45.692C166.948 37.9997 160.998 32.7583 153.302 33.8411C145.606 34.9238 139.592 41.8405 139.592 49.5328C139.592 57.2252 145.606 62.4558 153.302 61.373C160.998 60.2903 166.948 53.379 166.948 45.6866V45.692Z" fill="white"/>
<path d="M204.322 36.4964V56.6L201.024 57.0633V36.9597C201.024 31.0127 197.597 27.6136 191.518 28.4701C185.18 29.3589 180.2 34.1963 180.2 42.9229V59.9883L176.967 60.4408V28.12L180.2 27.6675V33.8084C182.658 28.6802 186.797 26.0299 191.776 25.3296C199.472 24.2468 204.322 28.6748 204.322 36.4964Z" fill="white"/>
<path d="M250.35 26.701C250.35 39.1769 241.49 50.57 229.008 52.3207L212 54.7124V9.46325L229.008 7.07151C241.49 5.3208 250.35 14.2198 250.35 26.6956V26.701ZM246.987 27.1751C246.987 16.4446 239.679 8.81145 229.008 10.309L215.428 12.2159V51.0009L229.008 49.094C239.679 47.5964 246.987 37.9056 246.987 27.1751Z" fill="white"/>
<path d="M271.73 13.5488V16.6516C266.168 17.4327 260.93 21.5967 260.93 29.8708V47.8412L257.696 48.2937V15.9729L260.93 15.5204V21.8553C263.129 16.4415 267.332 14.1683 271.73 13.5488Z" fill="white"/>
<path d="M276.618 2.90725C276.618 1.54977 277.782 0.224619 279.205 0.0253076C280.628 -0.174004 281.792 0.827941 281.792 2.18542C281.792 3.54289 280.628 4.93269 279.205 5.132C277.782 5.33131 276.618 4.32936 276.618 2.90725ZM277.588 13.1799L280.822 12.7274V45.0482L277.588 45.5007V13.1799Z" fill="white"/>
<path d="M318.55 7.42383L304.905 41.6624L300.96 42.2172L287.25 11.8248L290.742 11.3346L302.9 38.5865L315.123 7.91403L318.55 7.4346V7.42383Z" fill="white"/>
<path d="M351.721 19.0519C351.721 19.569 351.657 20.0969 351.657 20.6141L322.361 24.7296C323.137 31.9264 328.699 35.9287 336.071 34.8891C341.374 34.1457 345.384 31.1237 347.259 27.4338L350.104 28.7158C347.453 33.4831 342.409 37.1031 336.006 38.0027C326.047 39.4032 318.998 33.2784 318.998 23.5229C318.998 13.7674 325.853 5.68723 335.748 4.29743C345.578 2.91841 351.721 10.196 351.721 19.0519ZM322.361 21.5621L348.358 17.9099C347.647 10.126 342.085 6.51141 335.748 7.40023C328.375 8.4345 323.008 14.2953 322.361 21.5621Z" fill="white"/>
<path d="M19.2622 130.989L14.3473 131.678V146.546L4 148V102.751L22.1077 100.208C30.7089 99.0017 37.6286 104.943 37.6286 113.541C37.6286 119.1 34.2658 124.616 29.2861 127.832L38.922 143.093L27.7987 144.655L19.2622 130.989ZM14.3473 122.628L22.1077 121.54C24.9532 121.141 27.2813 118.292 27.2813 114.995C27.2813 111.698 24.9532 109.506 22.1077 109.905L14.3473 110.993V122.628Z" fill="#F7D51B"/>
<path d="M56.6368 132.848C59.2883 132.476 61.5517 131.124 62.8452 129.519L70.6056 132.891C67.4367 137.734 62.6511 140.664 56.5075 141.532C45.4488 143.083 38.5938 136.613 38.5938 126.982C38.5938 117.35 45.5782 108.936 55.7961 107.503C65.238 106.178 72.2224 112.502 72.2224 122.263C72.2224 123.62 72.093 124.929 71.8343 126.195L48.8763 129.422C50.1051 132.611 53.0799 133.354 56.6368 132.859V132.848ZM62.5865 120.248C61.5517 116.645 58.6416 115.696 55.7314 116.106C52.0452 116.623 49.5877 118.778 48.6823 122.204L62.5865 120.248Z" fill="#F7D51B"/>
<path d="M105.845 101.373L93.8808 135.375L82.8869 136.921L70.9229 106.28L81.6581 104.772L88.3839 124.315L95.1096 102.881L105.845 101.373Z" fill="#F7D51B"/>
<path d="M107.759 92.4406C107.759 89.2732 110.41 86.2512 113.579 85.8041C116.748 85.357 119.399 87.6356 119.399 90.8031C119.399 93.9705 116.748 96.9925 113.579 97.4396C110.41 97.8867 107.759 95.6081 107.759 92.4406ZM108.729 100.968L118.429 99.6051V131.926L108.729 133.289V100.968Z" fill="#F7D51B"/>
<path d="M140.014 121.135C142.665 120.763 144.929 119.411 146.222 117.806L153.983 121.178C150.814 126.021 146.028 128.951 139.884 129.819C128.826 131.37 121.971 124.901 121.971 115.269C121.971 105.637 128.955 97.2231 139.173 95.7903C148.615 94.4651 155.599 100.789 155.599 110.55C155.599 111.908 155.47 113.217 155.211 114.482L132.253 117.709C133.482 120.898 136.457 121.642 140.014 121.146V121.135ZM145.963 108.535C144.929 104.932 142.019 103.984 139.108 104.393C135.422 104.91 132.965 107.065 132.059 110.491L145.963 108.535Z" fill="#F7D51B"/>
<path d="M203.772 87.6172L193.424 121.392L184.37 122.664L179.197 106.132L174.023 124.118L164.969 125.389L154.622 94.5231L164.969 93.0686L169.626 109.735L174.67 91.7058L183.724 90.4345L188.768 107.047L193.424 89.0716L203.772 87.6172Z" fill="#F7D51B"/>
<path d="M246.126 104.033V113.987L217.671 117.984V72.7352L245.803 68.7812V78.7361L228.018 81.2355V88.734L244.186 86.4607V96.2863L228.018 98.5595V106.575L246.126 104.033Z" fill="white"/>
<path d="M284.875 76.2285L272.911 110.23L261.917 111.776L249.953 81.1359L260.688 79.6276L267.414 99.1709L274.14 77.7368L284.875 76.2285Z" fill="white"/>
<path d="M302.901 98.2524C305.553 97.8807 307.816 96.5286 309.11 94.9233L316.87 98.2954C313.701 103.138 308.916 106.069 302.772 106.936C291.713 108.487 284.858 102.018 284.858 92.3861C284.858 82.7545 291.843 74.3403 302.061 72.9074C311.503 71.5823 318.487 77.9064 318.487 87.6673C318.487 89.0248 318.358 90.3337 318.099 91.5996L295.141 94.8263C296.37 98.0153 299.345 98.7587 302.901 98.2631V98.2524ZM308.851 85.6526C307.816 82.0488 304.906 81.1008 301.996 81.5102C298.31 82.0273 295.852 84.182 294.947 87.608L308.851 85.6526Z" fill="white"/>
<path d="M351.786 79.304V99.149L342.085 100.512V82.089C342.085 78.0812 339.563 76.5621 336.459 76.9985C332.902 77.4994 330.445 79.9127 330.445 84.5023V102.149L320.744 103.512V71.1915L330.445 69.8286V72.8668C332.191 70.2272 335.424 68.2234 339.693 67.6254C346.224 66.7097 351.786 70.5828 351.786 79.3094V79.304Z" fill="white"/>
<path d="M368.778 73.7489V85.1904C368.778 87.97 371.171 87.8946 375.44 87.0327V95.824C362.764 98.8945 359.078 95.6031 359.078 86.5533V75.1117L353.904 75.8389V66.5305L359.078 65.8033V59.6624L368.778 55.3906V64.4405L375.44 63.5032V72.8115L368.778 73.7489Z" fill="white"/>
</g>
<defs>
<filter id="filter0_d_2160_3997" x="0" y="0" width="379.439" height="156" filterUnits="userSpaceOnUse" color-interpolation-filters="sRGB">
<feFlood flood-opacity="0" result="BackgroundImageFix"/>
<feColorMatrix in="SourceAlpha" type="matrix" values="0 0 0 0 0 0 0 0 0 0 0 0 0 0 0 0 0 0 127 0" result="hardAlpha"/>
<feOffset dy="4"/>
<feGaussianBlur stdDeviation="2"/>
<feComposite in2="hardAlpha" operator="out"/>
<feColorMatrix type="matrix" values="0 0 0 0 0 0 0 0 0 0 0 0 0 0 0 0 0 0 0.25 0"/>
<feBlend mode="normal" in2="BackgroundImageFix" result="effect1_dropShadow_2160_3997"/>
<feBlend mode="normal" in="SourceGraphic" in2="effect1_dropShadow_2160_3997" result="shape"/>
</filter>
</defs>
</svg>
