<svg width="362" height="146" viewBox="0 0 362 146" fill="none" xmlns="http://www.w3.org/2000/svg">
<path d="M22.807 54.55H0.837012V45.645L21.052 17.5H31.647V47.01H37.172V54.55H31.647V63H22.807V54.55ZM23.197 47.27V27.38H22.937L9.48201 46.36V47.27H23.197ZM41.4036 55.46V25.04L48.9436 17.5H69.0936L76.6336 25.04V55.46L69.0936 63H48.9436L41.4036 55.46ZM64.9336 55.46L67.7936 52.6V27.9L64.9336 25.04H53.1036L50.2436 27.9V52.6L53.1036 55.46H64.9336ZM85.9738 63H84.5438L81.7488 60.205V56.045L84.5438 53.25H89.4188L92.1488 56.11V63L88.4438 71.71H83.3738L85.9738 63ZM97.3899 55.46V25.04L104.93 17.5H125.08L132.62 25.04V55.46L125.08 63H104.93L97.3899 55.46ZM120.92 55.46L123.78 52.6V27.9L120.92 25.04H109.09L106.23 27.9V52.6L109.09 55.46H120.92ZM139.792 55.46V25.04L147.332 17.5H167.482L175.022 25.04V55.46L167.482 63H147.332L139.792 55.46ZM163.322 55.46L166.182 52.6V27.9L163.322 25.04H151.492L148.632 27.9V52.6L151.492 55.46H163.322ZM182.195 55.46V25.04L189.735 17.5H209.885L217.425 25.04V55.46L209.885 63H189.735L182.195 55.46ZM205.725 55.46L208.585 52.6V27.9L205.725 25.04H193.895L191.035 27.9V52.6L193.895 55.46H205.725ZM226.765 63H225.335L222.54 60.205V56.045L225.335 53.25H230.21L232.94 56.11V63L229.235 71.71H224.165L226.765 63ZM238.181 55.46V25.04L245.721 17.5H265.871L273.411 25.04V55.46L265.871 63H245.721L238.181 55.46ZM261.711 55.46L264.571 52.6V27.9L261.711 25.04H249.881L247.021 27.9V52.6L249.881 55.46H261.711ZM280.583 55.46V25.04L288.123 17.5H308.273L315.813 25.04V55.46L308.273 63H288.123L280.583 55.46ZM304.113 55.46L306.973 52.6V27.9L304.113 25.04H292.283L289.423 27.9V52.6L292.283 55.46H304.113ZM322.986 55.46V25.04L330.526 17.5H350.676L358.216 25.04V55.46L350.676 63H330.526L322.986 55.46ZM346.516 55.46L349.376 52.6V27.9L346.516 25.04H334.686L331.826 27.9V52.6L334.686 55.46H346.516ZM77.5853 125.525V94.975L85.0603 87.5H107.29L114.635 94.845V101.8H105.795V98.095L102.74 95.04H89.7403L86.4253 98.355V122.145L89.7403 125.46H102.74L105.795 122.405V118.7H114.635V125.655L107.29 133H85.0603L77.5853 125.525ZM131.518 114.41L115.333 87.5H125.018L135.873 106.155H136.003L146.858 87.5H156.543L140.358 114.41V133H131.518V114.41ZM158.137 125.525V94.975L165.612 87.5H187.842L195.187 94.845V101.8H186.347V98.095L183.292 95.04H170.292L166.977 98.355V122.145L170.292 125.46H183.292L186.347 122.405V118.7H195.187V125.655L187.842 133H165.612L158.137 125.525ZM200.73 125.525V94.975L208.205 87.5H231.605L239.08 94.975V125.525L231.605 133H208.205L200.73 125.525ZM226.925 125.46L230.24 122.145V98.355L226.925 95.04H212.885L209.57 98.355V122.145L212.885 125.46H226.925ZM246.892 87.5H254.822L275.102 118.375H275.232V87.5H283.747V133H275.817L255.537 102.19H255.407V133H246.892V87.5Z" fill="url(#paint0_linear_2291_4135)"/>
<path d="M22.807 48.55H0.837012V39.645L21.052 11.5H31.647V41.01H37.172V48.55H31.647V57H22.807V48.55ZM23.197 41.27V21.38H22.937L9.48201 40.36V41.27H23.197ZM41.4036 49.46V19.04L48.9436 11.5H69.0936L76.6336 19.04V49.46L69.0936 57H48.9436L41.4036 49.46ZM64.9336 49.46L67.7936 46.6V21.9L64.9336 19.04H53.1036L50.2436 21.9V46.6L53.1036 49.46H64.9336ZM85.9738 57H84.5438L81.7488 54.205V50.045L84.5438 47.25H89.4188L92.1488 50.11V57L88.4438 65.71H83.3738L85.9738 57ZM97.3899 49.46V19.04L104.93 11.5H125.08L132.62 19.04V49.46L125.08 57H104.93L97.3899 49.46ZM120.92 49.46L123.78 46.6V21.9L120.92 19.04H109.09L106.23 21.9V46.6L109.09 49.46H120.92ZM139.792 49.46V19.04L147.332 11.5H167.482L175.022 19.04V49.46L167.482 57H147.332L139.792 49.46ZM163.322 49.46L166.182 46.6V21.9L163.322 19.04H151.492L148.632 21.9V46.6L151.492 49.46H163.322ZM182.195 49.46V19.04L189.735 11.5H209.885L217.425 19.04V49.46L209.885 57H189.735L182.195 49.46ZM205.725 49.46L208.585 46.6V21.9L205.725 19.04H193.895L191.035 21.9V46.6L193.895 49.46H205.725ZM226.765 57H225.335L222.54 54.205V50.045L225.335 47.25H230.21L232.94 50.11V57L229.235 65.71H224.165L226.765 57ZM238.181 49.46V19.04L245.721 11.5H265.871L273.411 19.04V49.46L265.871 57H245.721L238.181 49.46ZM261.711 49.46L264.571 46.6V21.9L261.711 19.04H249.881L247.021 21.9V46.6L249.881 49.46H261.711ZM280.583 49.46V19.04L288.123 11.5H308.273L315.813 19.04V49.46L308.273 57H288.123L280.583 49.46ZM304.113 49.46L306.973 46.6V21.9L304.113 19.04H292.283L289.423 21.9V46.6L292.283 49.46H304.113ZM322.986 49.46V19.04L330.526 11.5H350.676L358.216 19.04V49.46L350.676 57H330.526L322.986 49.46ZM346.516 49.46L349.376 46.6V21.9L346.516 19.04H334.686L331.826 21.9V46.6L334.686 49.46H346.516ZM77.5853 119.525V88.975L85.0603 81.5H107.29L114.635 88.845V95.8H105.795V92.095L102.74 89.04H89.7403L86.4253 92.355V116.145L89.7403 119.46H102.74L105.795 116.405V112.7H114.635V119.655L107.29 127H85.0603L77.5853 119.525ZM131.518 108.41L115.333 81.5H125.018L135.873 100.155H136.003L146.858 81.5H156.543L140.358 108.41V127H131.518V108.41ZM158.137 119.525V88.975L165.612 81.5H187.842L195.187 88.845V95.8H186.347V92.095L183.292 89.04H170.292L166.977 92.355V116.145L170.292 119.46H183.292L186.347 116.405V112.7H195.187V119.655L187.842 127H165.612L158.137 119.525ZM200.73 119.525V88.975L208.205 81.5H231.605L239.08 88.975V119.525L231.605 127H208.205L200.73 119.525ZM226.925 119.46L230.24 116.145V92.355L226.925 89.04H212.885L209.57 92.355V116.145L212.885 119.46H226.925ZM246.892 81.5H254.822L275.102 112.375H275.232V81.5H283.747V127H275.817L255.537 96.19H255.407V127H246.892V81.5Z" fill="white"/>
<defs>
<linearGradient id="paint0_linear_2291_4135" x1="20.5" y1="35.5" x2="216.5" y2="146" gradientUnits="userSpaceOnUse">
<stop stop-color="#0015CF"/>
<stop offset="1" stop-color="#FF31D2"/>
</linearGradient>
</defs>
</svg>
