<svg xmlns="http://www.w3.org/2000/svg" viewBox="0 0 314.4 321.2">
  <defs>
    <style>
      .cls-1 {
        fill: #f5faff;
      }

      .cls-2 {
        fill: #c1d7e5;
      }

      .cls-3 {
        fill: #d9e6ed;
      }

      .cls-4 {
        fill: #64a0ff;
      }

      .cls-5 {
        fill: #efe9a0;
      }

      .cls-6 {
        fill: #f4e92f;
      }
    </style>
  </defs>
  <g id="Back_Super_Computer" data-name="Back Super Computer">
    <polygon class="cls-1" points="129.6 55.3 221.1 2.5 312.7 55.3 221.1 108.1 129.6 55.3"/>
    <polygon class="cls-2" points="129.6 55.3 129.6 234.9 221.1 287.7 221.1 108.1 129.6 55.3"/>
    <polygon class="cls-3" points="312.7 55.3 312.7 234.9 221.1 287.7 221.1 108.1 312.7 55.3"/>
    <polygon class="cls-4" points="157 55.3 221.1 18.3 285.2 55.3 221.1 92.3 157 55.3"/>
    <g>
      <polygon class="cls-5" points="236.5 248.9 236.5 242.5 303.5 203.8 303.5 210.3 236.5 248.9"/>
      <polygon class="cls-5" points="236.5 264.2 236.5 257.7 303.5 219.1 303.5 225.5 236.5 264.2"/>
      <polygon class="cls-5" points="236.5 233.2 236.5 226.7 303.5 188.1 303.5 194.5 236.5 233.2"/>
      <polygon class="cls-5" points="236.5 204.6 236.5 198.2 303.5 159.5 303.5 166 236.5 204.6"/>
      <polygon class="cls-5" points="236.5 191.4 236.5 184.9 303.5 146.3 303.5 152.7 236.5 191.4"/>
      <polygon class="cls-5" points="236.5 174.9 236.5 168.4 303.5 129.8 303.5 136.2 236.5 174.9"/>
      <polygon class="cls-5" points="236.5 143.7 236.5 137.2 303.5 98.6 303.5 105 236.5 143.7"/>
      <polygon class="cls-5" points="236.5 129.3 236.5 122.8 303.5 84.2 303.5 90.6 236.5 129.3"/>
    </g>
    <g>
      <g>
        <path class="cls-6" d="M142.3,92.2a6.4,6.4,0,0,1-2.9-2.5,7.7,7.7,0,0,1-.9-4,2.8,2.8,0,0,1,1.4-2,2.6,2.6,0,0,1,2.4-.2,6.2,6.2,0,0,1,3,2.7,5.8,5.8,0,0,1,.8,3.8,2.9,2.9,0,0,1-1.3,2.1A3,3,0,0,1,142.3,92.2Z"/>
        <path class="cls-6" d="M187.2,118.2a7,7,0,0,1-2.9-2.6,6,6,0,0,1-.9-4,3.2,3.2,0,0,1,1.4-2,3,3,0,0,1,2.4-.2,6.7,6.7,0,0,1,2.9,2.7,7.1,7.1,0,0,1,.9,3.9,2.9,2.9,0,0,1-1.4,2A2.9,2.9,0,0,1,187.2,118.2Z"/>
        <path class="cls-6" d="M202.6,127.1a6.2,6.2,0,0,1-2.9-2.6,6.5,6.5,0,0,1-.9-4,3.2,3.2,0,0,1,1.4-2,3.5,3.5,0,0,1,2.4-.2,6.7,6.7,0,0,1,2.9,2.7,7.1,7.1,0,0,1,.9,3.9,2.7,2.7,0,0,1-1.4,2A2.9,2.9,0,0,1,202.6,127.1Z"/>
      </g>
      <g>
        <path class="cls-6" d="M142.3,108.8a6.2,6.2,0,0,1-2.9-2.6,7.4,7.4,0,0,1-.9-4,3.2,3.2,0,0,1,1.4-2,3.5,3.5,0,0,1,2.4-.2,6.8,6.8,0,0,1,3,2.7,6,6,0,0,1,.8,3.9,2.8,2.8,0,0,1-1.3,2A3.2,3.2,0,0,1,142.3,108.8Z"/>
        <path class="cls-6" d="M187.2,134.7a5.8,5.8,0,0,1-2.9-2.6,5.9,5.9,0,0,1-.9-4,3.2,3.2,0,0,1,1.4-2,2.8,2.8,0,0,1,2.4-.1,5.8,5.8,0,0,1,2.9,2.6,7.2,7.2,0,0,1,.9,3.9,2.8,2.8,0,0,1-1.4,2.1A2.8,2.8,0,0,1,187.2,134.7Z"/>
        <path class="cls-6" d="M202.6,143.6a6.4,6.4,0,0,1-2.9-2.5,6.7,6.7,0,0,1-.9-4,2.8,2.8,0,0,1,1.4-2,2.6,2.6,0,0,1,2.4-.2,6.1,6.1,0,0,1,2.9,2.7,6.9,6.9,0,0,1,.9,3.8,2.8,2.8,0,0,1-1.4,2.1A2.8,2.8,0,0,1,202.6,143.6Z"/>
      </g>
      <g>
        <path class="cls-6" d="M142.3,139.8a6.4,6.4,0,0,1-2.9-2.5,7.7,7.7,0,0,1-.9-4,2.8,2.8,0,0,1,1.4-2,2.6,2.6,0,0,1,2.4-.2,6.2,6.2,0,0,1,3,2.7,5.8,5.8,0,0,1,.8,3.8,2.9,2.9,0,0,1-1.3,2.1A3,3,0,0,1,142.3,139.8Z"/>
        <path class="cls-6" d="M187.2,165.8a7,7,0,0,1-2.9-2.6,6,6,0,0,1-.9-4,3.2,3.2,0,0,1,1.4-2,3,3,0,0,1,2.4-.2,6.1,6.1,0,0,1,2.9,2.7,7.1,7.1,0,0,1,.9,3.9,2.9,2.9,0,0,1-1.4,2A2.9,2.9,0,0,1,187.2,165.8Z"/>
        <path class="cls-6" d="M202.6,174.7a6.2,6.2,0,0,1-2.9-2.6,6.5,6.5,0,0,1-.9-4,3.2,3.2,0,0,1,1.4-2,3.5,3.5,0,0,1,2.4-.2,6.7,6.7,0,0,1,2.9,2.7,7.1,7.1,0,0,1,.9,3.9,2.7,2.7,0,0,1-1.4,2A2.9,2.9,0,0,1,202.6,174.7Z"/>
      </g>
      <g>
        <path class="cls-6" d="M142.3,154.3a6.4,6.4,0,0,1-2.9-2.5,7.7,7.7,0,0,1-.9-4,2.8,2.8,0,0,1,1.4-2,3,3,0,0,1,2.4-.2,6.2,6.2,0,0,1,3,2.7,6,6,0,0,1,.8,3.9,2.9,2.9,0,0,1-1.3,2A2.7,2.7,0,0,1,142.3,154.3Z"/>
        <path class="cls-6" d="M187.2,180.3a5.8,5.8,0,0,1-2.9-2.6,5.9,5.9,0,0,1-.9-4,3.2,3.2,0,0,1,1.4-2,3.5,3.5,0,0,1,2.4-.2,6.7,6.7,0,0,1,2.9,2.7,7.1,7.1,0,0,1,.9,3.9,2.7,2.7,0,0,1-1.4,2A2.9,2.9,0,0,1,187.2,180.3Z"/>
        <path class="cls-6" d="M202.6,189.2a6.2,6.2,0,0,1-2.9-2.6,6.5,6.5,0,0,1-.9-4,3.2,3.2,0,0,1,1.4-2,3.5,3.5,0,0,1,2.4-.2,6.7,6.7,0,0,1,2.9,2.7,7.1,7.1,0,0,1,.9,3.9,2.7,2.7,0,0,1-1.4,2A2.9,2.9,0,0,1,202.6,189.2Z"/>
      </g>
      <g>
        <path class="cls-6" d="M142.3,169.8a6.2,6.2,0,0,1-2.9-2.6,7.2,7.2,0,0,1-.9-3.9,2.8,2.8,0,0,1,1.4-2,2.6,2.6,0,0,1,2.4-.2,5.9,5.9,0,0,1,3,2.6,6.1,6.1,0,0,1,.8,3.9,2.9,2.9,0,0,1-1.3,2.1A3,3,0,0,1,142.3,169.8Z"/>
        <path class="cls-6" d="M187.2,195.7a5.9,5.9,0,0,1-2.9-2.5,6,6,0,0,1-.9-4,2.8,2.8,0,0,1,1.4-2,3,3,0,0,1,2.4-.2,6.1,6.1,0,0,1,2.9,2.7,7.1,7.1,0,0,1,.9,3.9,2.9,2.9,0,0,1-1.4,2A2.4,2.4,0,0,1,187.2,195.7Z"/>
        <path class="cls-6" d="M202.6,204.7a7.7,7.7,0,0,1-2.9-2.6,6.7,6.7,0,0,1-.9-4,3.2,3.2,0,0,1,1.4-2,3,3,0,0,1,2.4-.2,6.1,6.1,0,0,1,2.9,2.7,7.1,7.1,0,0,1,.9,3.9,2.9,2.9,0,0,1-1.4,2A2.9,2.9,0,0,1,202.6,204.7Z"/>
      </g>
      <g>
        <path class="cls-6" d="M142.3,213.9a6.6,6.6,0,0,1-3.8-6.6,3.2,3.2,0,0,1,1.4-2,3,3,0,0,1,2.4-.2,6.2,6.2,0,0,1,3,2.7,6,6,0,0,1,.8,3.9,2.9,2.9,0,0,1-1.3,2A3.2,3.2,0,0,1,142.3,213.9Z"/>
        <path class="cls-6" d="M187.2,239.8a5.8,5.8,0,0,1-2.9-2.6,5.9,5.9,0,0,1-.9-4,3.2,3.2,0,0,1,1.4-2,3.5,3.5,0,0,1,2.4-.2,6.7,6.7,0,0,1,2.9,2.7,7.1,7.1,0,0,1,.9,3.9,2.7,2.7,0,0,1-1.4,2A2.9,2.9,0,0,1,187.2,239.8Z"/>
        <path class="cls-6" d="M202.6,248.7a6.2,6.2,0,0,1-2.9-2.6,6.5,6.5,0,0,1-.9-4,3.2,3.2,0,0,1,1.4-2,2.8,2.8,0,0,1,2.4-.1,5.8,5.8,0,0,1,2.9,2.6,7.2,7.2,0,0,1,.9,3.9,2.8,2.8,0,0,1-1.4,2.1A2.8,2.8,0,0,1,202.6,248.7Z"/>
      </g>
      <g>
        <path class="cls-6" d="M142.3,198.1a6.2,6.2,0,0,1-2.9-2.6,7.4,7.4,0,0,1-.9-4,3.2,3.2,0,0,1,1.4-2,2.8,2.8,0,0,1,2.4-.1,5.9,5.9,0,0,1,3,2.6,6.1,6.1,0,0,1,.8,3.9,2.6,2.6,0,0,1-1.3,2A2.8,2.8,0,0,1,142.3,198.1Z"/>
        <path class="cls-6" d="M187.2,224a5.9,5.9,0,0,1-2.9-2.5,6,6,0,0,1-.9-4,2.8,2.8,0,0,1,1.4-2,2.6,2.6,0,0,1,2.4-.2,6.1,6.1,0,0,1,2.9,2.7,6.9,6.9,0,0,1,.9,3.8,2.8,2.8,0,0,1-1.4,2.1A2.8,2.8,0,0,1,187.2,224Z"/>
        <path class="cls-6" d="M202.6,232.9a6.4,6.4,0,0,1-2.9-2.5,6.7,6.7,0,0,1-.9-4,2.8,2.8,0,0,1,1.4-2,3,3,0,0,1,2.4-.2,6.1,6.1,0,0,1,2.9,2.7,7.1,7.1,0,0,1,.9,3.9,2.9,2.9,0,0,1-1.4,2A2.4,2.4,0,0,1,202.6,232.9Z"/>
      </g>
      <g>
        <path class="cls-6" d="M142.3,229.3a6.4,6.4,0,0,1-2.9-2.5,7.7,7.7,0,0,1-.9-4,2.8,2.8,0,0,1,1.4-2,2.6,2.6,0,0,1,2.4-.2,6.2,6.2,0,0,1,3,2.7,5.8,5.8,0,0,1,.8,3.8,2.9,2.9,0,0,1-1.3,2.1A3,3,0,0,1,142.3,229.3Z"/>
        <path class="cls-6" d="M187.2,255.3a7,7,0,0,1-2.9-2.6,6,6,0,0,1-.9-4,3.2,3.2,0,0,1,1.4-2,3,3,0,0,1,2.4-.2,6.7,6.7,0,0,1,2.9,2.7,7.1,7.1,0,0,1,.9,3.9,2.9,2.9,0,0,1-1.4,2A2.9,2.9,0,0,1,187.2,255.3Z"/>
        <path class="cls-6" d="M202.6,264.2a6.2,6.2,0,0,1-2.9-2.6,6.5,6.5,0,0,1-.9-4,3.2,3.2,0,0,1,1.4-2,3.5,3.5,0,0,1,2.4-.2,6.7,6.7,0,0,1,2.9,2.7,7.1,7.1,0,0,1,.9,3.9,2.7,2.7,0,0,1-1.4,2A2.9,2.9,0,0,1,202.6,264.2Z"/>
      </g>
    </g>
  </g>
  <g id="Front_Super_Computer" data-name="Front Super Computer">
    <polygon class="cls-1" points="1.4 87 93 34.2 184.5 87 93 139.8 1.4 87"/>
    <polygon class="cls-2" points="1.4 87 1.4 266.6 93 319.4 93 139.8 1.4 87"/>
    <polygon class="cls-3" points="184.5 87 184.5 266.6 93 319.4 93 139.8 184.5 87"/>
    <polygon class="cls-4" points="28.9 87 93 50 157 87 93 124 28.9 87"/>
    <g>
      <polygon class="cls-5" points="108.4 280.6 108.4 274.2 175.4 235.5 175.4 242 108.4 280.6"/>
      <polygon class="cls-5" points="108.4 295.9 108.4 289.4 175.4 250.8 175.4 257.2 108.4 295.9"/>
      <polygon class="cls-5" points="108.4 264.8 108.4 258.4 175.4 219.8 175.4 226.2 108.4 264.8"/>
      <polygon class="cls-5" points="108.4 236.3 108.4 229.9 175.4 191.2 175.4 197.7 108.4 236.3"/>
      <polygon class="cls-5" points="108.4 223.1 108.4 216.6 175.4 178 175.4 184.4 108.4 223.1"/>
      <polygon class="cls-5" points="108.4 206.6 108.4 200.1 175.4 161.5 175.4 167.9 108.4 206.6"/>
      <polygon class="cls-5" points="108.4 175.4 108.4 168.9 175.4 130.3 175.4 136.7 108.4 175.4"/>
      <polygon class="cls-5" points="108.4 161 108.4 154.5 175.4 115.9 175.4 122.3 108.4 161"/>
    </g>
    <g>
      <g>
        <path class="cls-6" d="M15.4,123.9a6.5,6.5,0,0,1-3-2.5,6.4,6.4,0,0,1-.8-4,2.5,2.5,0,0,1,1.4-2,2.6,2.6,0,0,1,2.4-.2,6.6,6.6,0,0,1,2.9,2.7,6.9,6.9,0,0,1,.9,3.8,2.8,2.8,0,0,1-1.4,2.1A2.8,2.8,0,0,1,15.4,123.9Z"/>
        <path class="cls-6" d="M60.2,149.9a6.6,6.6,0,0,1-3.8-6.6,3.2,3.2,0,0,1,1.4-2,3,3,0,0,1,2.4-.2,6.7,6.7,0,0,1,3,2.7,6,6,0,0,1,.8,3.9,2.9,2.9,0,0,1-1.3,2A3.2,3.2,0,0,1,60.2,149.9Z"/>
        <path class="cls-6" d="M75.6,158.8a6.2,6.2,0,0,1-2.9-2.6,6.2,6.2,0,0,1-.8-4,2.6,2.6,0,0,1,1.3-2,3.5,3.5,0,0,1,2.4-.2,6.8,6.8,0,0,1,3,2.7,6,6,0,0,1,.8,3.9,2.8,2.8,0,0,1-1.3,2A3.2,3.2,0,0,1,75.6,158.8Z"/>
      </g>
      <g>
        <path class="cls-6" d="M15.4,140.5a6.3,6.3,0,0,1-3-2.6,6.3,6.3,0,0,1-.8-4,2.8,2.8,0,0,1,1.4-2,3.5,3.5,0,0,1,2.4-.2,7.3,7.3,0,0,1,2.9,2.7,7.1,7.1,0,0,1,.9,3.9,2.7,2.7,0,0,1-1.4,2A2.9,2.9,0,0,1,15.4,140.5Z"/>
        <path class="cls-6" d="M60.2,166.4a6.2,6.2,0,0,1-2.9-2.6,7.4,7.4,0,0,1-.9-4,3.2,3.2,0,0,1,1.4-2,2.8,2.8,0,0,1,2.4-.1,6.3,6.3,0,0,1,3,2.6,6.1,6.1,0,0,1,.8,3.9,2.9,2.9,0,0,1-1.3,2.1A3,3,0,0,1,60.2,166.4Z"/>
        <path class="cls-6" d="M75.6,175.3a6.2,6.2,0,0,1-2.9-2.6,6.1,6.1,0,0,1-.8-3.9,2.4,2.4,0,0,1,1.3-2,2.6,2.6,0,0,1,2.4-.2,5.9,5.9,0,0,1,3,2.6,6.1,6.1,0,0,1,.8,3.9,2.9,2.9,0,0,1-1.3,2.1A3,3,0,0,1,75.6,175.3Z"/>
      </g>
      <g>
        <path class="cls-6" d="M15.4,171.5a6.5,6.5,0,0,1-3-2.5,6.4,6.4,0,0,1-.8-4,2.5,2.5,0,0,1,1.4-2,2.6,2.6,0,0,1,2.4-.2,6.6,6.6,0,0,1,2.9,2.7,6.9,6.9,0,0,1,.9,3.8,2.8,2.8,0,0,1-1.4,2.1A2.8,2.8,0,0,1,15.4,171.5Z"/>
        <path class="cls-6" d="M60.2,197.5a6.6,6.6,0,0,1-3.8-6.6,2.9,2.9,0,0,1,3.8-2.2,6.7,6.7,0,0,1,3,2.7,6,6,0,0,1,.8,3.9,2.9,2.9,0,0,1-1.3,2A3.2,3.2,0,0,1,60.2,197.5Z"/>
        <path class="cls-6" d="M75.6,206.4a6.2,6.2,0,0,1-2.9-2.6,6.3,6.3,0,0,1-.8-4,2.6,2.6,0,0,1,1.3-2,3.5,3.5,0,0,1,2.4-.2,6.8,6.8,0,0,1,3,2.7,6,6,0,0,1,.8,3.9,2.8,2.8,0,0,1-1.3,2A3.2,3.2,0,0,1,75.6,206.4Z"/>
      </g>
      <g>
        <path class="cls-6" d="M15.4,186a6.5,6.5,0,0,1-3-2.5,6.4,6.4,0,0,1-.8-4,2.5,2.5,0,0,1,1.4-2,2.6,2.6,0,0,1,2.4-.2,6.6,6.6,0,0,1,2.9,2.7,7.1,7.1,0,0,1,.9,3.9,2.9,2.9,0,0,1-1.4,2A2.4,2.4,0,0,1,15.4,186Z"/>
        <path class="cls-6" d="M60.2,212a6.6,6.6,0,0,1-3.8-6.6,3.2,3.2,0,0,1,1.4-2,3.5,3.5,0,0,1,2.4-.2,7.4,7.4,0,0,1,3,2.7,6,6,0,0,1,.8,3.9,2.9,2.9,0,0,1-1.3,2A3.2,3.2,0,0,1,60.2,212Z"/>
        <path class="cls-6" d="M75.6,220.9a6.2,6.2,0,0,1-2.9-2.6,6.2,6.2,0,0,1-.8-4,2.6,2.6,0,0,1,1.3-2,3.5,3.5,0,0,1,2.4-.2,6.8,6.8,0,0,1,3,2.7,6,6,0,0,1,.8,3.9,2.8,2.8,0,0,1-1.3,2A3.2,3.2,0,0,1,75.6,220.9Z"/>
      </g>
      <g>
        <path class="cls-6" d="M15.4,201.5a6.3,6.3,0,0,1-3-2.6,6.1,6.1,0,0,1-.8-3.9,2.8,2.8,0,0,1,1.4-2.1,2.8,2.8,0,0,1,2.4-.1,6.2,6.2,0,0,1,2.9,2.6,7.2,7.2,0,0,1,.9,3.9,2.8,2.8,0,0,1-1.4,2.1A2.8,2.8,0,0,1,15.4,201.5Z"/>
        <path class="cls-6" d="M60.2,227.4a6.4,6.4,0,0,1-2.9-2.5,7.7,7.7,0,0,1-.9-4,2.8,2.8,0,0,1,1.4-2,3,3,0,0,1,2.4-.2,6.7,6.7,0,0,1,3,2.7,6,6,0,0,1,.8,3.9,2.9,2.9,0,0,1-1.3,2A2.7,2.7,0,0,1,60.2,227.4Z"/>
        <path class="cls-6" d="M75.6,236.4a7.7,7.7,0,0,1-2.9-2.6,6.4,6.4,0,0,1-.8-4,2.6,2.6,0,0,1,1.3-2,3,3,0,0,1,2.4-.2,6.2,6.2,0,0,1,3,2.7,6,6,0,0,1,.8,3.9,2.9,2.9,0,0,1-1.3,2A3.2,3.2,0,0,1,75.6,236.4Z"/>
      </g>
      <g>
        <path class="cls-6" d="M15.4,245.6a7.7,7.7,0,0,1-3-2.6,6.4,6.4,0,0,1-.8-4,2.7,2.7,0,0,1,1.4-2,3,3,0,0,1,2.4-.2,6.6,6.6,0,0,1,2.9,2.7,7.1,7.1,0,0,1,.9,3.9,2.9,2.9,0,0,1-1.4,2A2.9,2.9,0,0,1,15.4,245.6Z"/>
        <path class="cls-6" d="M60.2,271.5a6.2,6.2,0,0,1-2.9-2.6,7.4,7.4,0,0,1-.9-4,3.2,3.2,0,0,1,1.4-2,3.5,3.5,0,0,1,2.4-.2,7.4,7.4,0,0,1,3,2.7,6,6,0,0,1,.8,3.9,2.8,2.8,0,0,1-1.3,2A3.2,3.2,0,0,1,60.2,271.5Z"/>
        <path class="cls-6" d="M75.6,280.4a6.2,6.2,0,0,1-2.9-2.6,6.2,6.2,0,0,1-.8-4,2.6,2.6,0,0,1,1.3-2,2.8,2.8,0,0,1,2.4-.1,5.9,5.9,0,0,1,3,2.6,6.1,6.1,0,0,1,.8,3.9,2.6,2.6,0,0,1-1.3,2A2.8,2.8,0,0,1,75.6,280.4Z"/>
      </g>
      <g>
        <path class="cls-6" d="M15.4,229.8a6.2,6.2,0,0,1-3.8-6.6,2.8,2.8,0,0,1,1.4-2,3.5,3.5,0,0,1,2.4-.2,7.3,7.3,0,0,1,2.9,2.7,7.1,7.1,0,0,1,.9,3.9,2.5,2.5,0,0,1-1.4,2A2.6,2.6,0,0,1,15.4,229.8Z"/>
        <path class="cls-6" d="M60.2,255.7a6.4,6.4,0,0,1-2.9-2.5,7.7,7.7,0,0,1-.9-4,2.8,2.8,0,0,1,1.4-2,2.6,2.6,0,0,1,2.4-.2,6.7,6.7,0,0,1,3,2.7,5.8,5.8,0,0,1,.8,3.8,2.9,2.9,0,0,1-1.3,2.1A3,3,0,0,1,60.2,255.7Z"/>
        <path class="cls-6" d="M75.6,264.6a6.1,6.1,0,0,1-3.7-6.5,2.4,2.4,0,0,1,1.3-2,3,3,0,0,1,2.4-.2,6.2,6.2,0,0,1,3,2.7,6,6,0,0,1,.8,3.9,2.9,2.9,0,0,1-1.3,2A2.7,2.7,0,0,1,75.6,264.6Z"/>
      </g>
      <g>
        <path class="cls-6" d="M15.4,261a6.5,6.5,0,0,1-3-2.5,6.4,6.4,0,0,1-.8-4,2.5,2.5,0,0,1,1.4-2,2.6,2.6,0,0,1,2.4-.2,6.6,6.6,0,0,1,2.9,2.7,6.9,6.9,0,0,1,.9,3.8,2.8,2.8,0,0,1-1.4,2.1A2.8,2.8,0,0,1,15.4,261Z"/>
        <path class="cls-6" d="M60.2,287a6.6,6.6,0,0,1-3.8-6.6,3.2,3.2,0,0,1,1.4-2,3,3,0,0,1,2.4-.2,6.7,6.7,0,0,1,3,2.7,6,6,0,0,1,.8,3.9,2.9,2.9,0,0,1-1.3,2A3.2,3.2,0,0,1,60.2,287Z"/>
        <path class="cls-6" d="M75.6,295.9a6.2,6.2,0,0,1-2.9-2.6,6.2,6.2,0,0,1-.8-4,2.6,2.6,0,0,1,1.3-2,3.5,3.5,0,0,1,2.4-.2,6.8,6.8,0,0,1,3,2.7,6,6,0,0,1,.8,3.9,2.8,2.8,0,0,1-1.3,2A3.2,3.2,0,0,1,75.6,295.9Z"/>
      </g>
    </g>
  </g>
</svg>
