<svg xmlns="http://www.w3.org/2000/svg" viewBox="0 0 314.4 321.2"><defs><style>.cls-1{fill:#f5faff}.cls-2{fill:#c1d7e5}.cls-3{fill:#d9e6ed}.cls-4{fill:#64a0ff}.cls-5{fill:#efe9a0}.cls-6{fill:#f4e92f}</style></defs><g id="Back_Super_Computer" data-name="Back Super Computer"><path class="cls-1" d="M129.6 55.3l91.5-52.8 91.6 52.8-91.6 52.8-91.5-52.8z"/><path class="cls-2" d="M129.6 55.3v179.6l91.5 52.8V108.1l-91.5-52.8z"/><path class="cls-3" d="M312.7 55.3v179.6l-91.6 52.8V108.1l91.6-52.8z"/><path class="cls-4" d="M157 55.3l64.1-37 64.1 37-64.1 37-64.1-37z"/><path class="cls-5" d="M236.5 248.9v-6.4l67-38.7v6.5l-67 38.6zM236.5 264.2v-6.5l67-38.6v6.4l-67 38.7zM236.5 233.2v-6.5l67-38.6v6.4l-67 38.7zM236.5 204.6v-6.4l67-38.7v6.5l-67 38.6zM236.5 191.4v-6.5l67-38.6v6.4l-67 38.7zM236.5 174.9v-6.5l67-38.6v6.4l-67 38.7zM236.5 143.7v-6.5l67-38.6v6.4l-67 38.7zM236.5 129.3v-6.5l67-38.6v6.4l-67 38.7z"/><g><path class="cls-6" d="M142.3 92.2a6.4 6.4 0 01-2.9-2.5 7.7 7.7 0 01-.9-4 2.8 2.8 0 011.4-2 2.6 2.6 0 012.4-.2 6.2 6.2 0 013 2.7 5.8 5.8 0 01.8 3.8 2.9 2.9 0 01-1.3 2.1 3 3 0 01-2.5.1zM187.2 118.2a7 7 0 01-2.9-2.6 6 6 0 01-.9-4 3.2 3.2 0 011.4-2 3 3 0 012.4-.2 6.7 6.7 0 012.9 2.7 7.1 7.1 0 01.9 3.9 2.9 2.9 0 01-1.4 2 2.9 2.9 0 01-2.4.2zM202.6 127.1a6.2 6.2 0 01-2.9-2.6 6.5 6.5 0 01-.9-4 3.2 3.2 0 011.4-2 3.5 3.5 0 012.4-.2 6.7 6.7 0 012.9 2.7 7.1 7.1 0 01.9 3.9 2.7 2.7 0 01-1.4 2 2.9 2.9 0 01-2.4.2zM142.3 108.8a6.2 6.2 0 01-2.9-2.6 7.4 7.4 0 01-.9-4 3.2 3.2 0 011.4-2 3.5 3.5 0 012.4-.2 6.8 6.8 0 013 2.7 6 6 0 01.8 3.9 2.8 2.8 0 01-1.3 2 3.2 3.2 0 01-2.5.2zM187.2 134.7a5.8 5.8 0 01-2.9-2.6 5.9 5.9 0 01-.9-4 3.2 3.2 0 011.4-2 2.8 2.8 0 012.4-.1 5.8 5.8 0 012.9 2.6 7.2 7.2 0 01.9 3.9 2.8 2.8 0 01-1.4 2.1 2.8 2.8 0 01-2.4.1zM202.6 143.6a6.4 6.4 0 01-2.9-2.5 6.7 6.7 0 01-.9-4 2.8 2.8 0 011.4-2 2.6 2.6 0 012.4-.2 6.1 6.1 0 012.9 2.7 6.9 6.9 0 01.9 3.8 2.8 2.8 0 01-1.4 2.1 2.8 2.8 0 01-2.4.1zM142.3 139.8a6.4 6.4 0 01-2.9-2.5 7.7 7.7 0 01-.9-4 2.8 2.8 0 011.4-2 2.6 2.6 0 012.4-.2 6.2 6.2 0 013 2.7 5.8 5.8 0 01.8 3.8 2.9 2.9 0 01-1.3 2.1 3 3 0 01-2.5.1zM187.2 165.8a7 7 0 01-2.9-2.6 6 6 0 01-.9-4 3.2 3.2 0 011.4-2 3 3 0 012.4-.2 6.1 6.1 0 012.9 2.7 7.1 7.1 0 01.9 3.9 2.9 2.9 0 01-1.4 2 2.9 2.9 0 01-2.4.2zM202.6 174.7a6.2 6.2 0 01-2.9-2.6 6.5 6.5 0 01-.9-4 3.2 3.2 0 011.4-2 3.5 3.5 0 012.4-.2 6.7 6.7 0 012.9 2.7 7.1 7.1 0 01.9 3.9 2.7 2.7 0 01-1.4 2 2.9 2.9 0 01-2.4.2z"/><g><path class="cls-6" d="M142.3 154.3a6.4 6.4 0 01-2.9-2.5 7.7 7.7 0 01-.9-4 2.8 2.8 0 011.4-2 3 3 0 012.4-.2 6.2 6.2 0 013 2.7 6 6 0 01.8 3.9 2.9 2.9 0 01-1.3 2 2.7 2.7 0 01-2.5.1zM187.2 180.3a5.8 5.8 0 01-2.9-2.6 5.9 5.9 0 01-.9-4 3.2 3.2 0 011.4-2 3.5 3.5 0 012.4-.2 6.7 6.7 0 012.9 2.7 7.1 7.1 0 01.9 3.9 2.7 2.7 0 01-1.4 2 2.9 2.9 0 01-2.4.2zM202.6 189.2a6.2 6.2 0 01-2.9-2.6 6.5 6.5 0 01-.9-4 3.2 3.2 0 011.4-2 3.5 3.5 0 012.4-.2 6.7 6.7 0 012.9 2.7 7.1 7.1 0 01.9 3.9 2.7 2.7 0 01-1.4 2 2.9 2.9 0 01-2.4.2z"/></g><g><path class="cls-6" d="M142.3 169.8a6.2 6.2 0 01-2.9-2.6 7.2 7.2 0 01-.9-3.9 2.8 2.8 0 011.4-2 2.6 2.6 0 012.4-.2 5.9 5.9 0 013 2.6 6.1 6.1 0 01.8 3.9 2.9 2.9 0 01-1.3 2.1 3 3 0 01-2.5.1zM187.2 195.7a5.9 5.9 0 01-2.9-2.5 6 6 0 01-.9-4 2.8 2.8 0 011.4-2 3 3 0 012.4-.2 6.1 6.1 0 012.9 2.7 7.1 7.1 0 01.9 3.9 2.9 2.9 0 01-1.4 2 2.4 2.4 0 01-2.4.1zM202.6 204.7a7.7 7.7 0 01-2.9-2.6 6.7 6.7 0 01-.9-4 3.2 3.2 0 011.4-2 3 3 0 012.4-.2 6.1 6.1 0 012.9 2.7 7.1 7.1 0 01.9 3.9 2.9 2.9 0 01-1.4 2 2.9 2.9 0 01-2.4.2z"/></g><g><path class="cls-6" d="M142.3 213.9a6.6 6.6 0 01-3.8-6.6 3.2 3.2 0 011.4-2 3 3 0 012.4-.2 6.2 6.2 0 013 2.7 6 6 0 01.8 3.9 2.9 2.9 0 01-1.3 2 3.2 3.2 0 01-2.5.2zM187.2 239.8a5.8 5.8 0 01-2.9-2.6 5.9 5.9 0 01-.9-4 3.2 3.2 0 011.4-2 3.5 3.5 0 012.4-.2 6.7 6.7 0 012.9 2.7 7.1 7.1 0 01.9 3.9 2.7 2.7 0 01-1.4 2 2.9 2.9 0 01-2.4.2zM202.6 248.7a6.2 6.2 0 01-2.9-2.6 6.5 6.5 0 01-.9-4 3.2 3.2 0 011.4-2 2.8 2.8 0 012.4-.1 5.8 5.8 0 012.9 2.6 7.2 7.2 0 01.9 3.9 2.8 2.8 0 01-1.4 2.1 2.8 2.8 0 01-2.4.1z"/></g><g><path class="cls-6" d="M142.3 198.1a6.2 6.2 0 01-2.9-2.6 7.4 7.4 0 01-.9-4 3.2 3.2 0 011.4-2 2.8 2.8 0 012.4-.1 5.9 5.9 0 013 2.6 6.1 6.1 0 01.8 3.9 2.6 2.6 0 01-1.3 2 2.8 2.8 0 01-2.5.2zM187.2 224a5.9 5.9 0 01-2.9-2.5 6 6 0 01-.9-4 2.8 2.8 0 011.4-2 2.6 2.6 0 012.4-.2 6.1 6.1 0 012.9 2.7 6.9 6.9 0 01.9 3.8 2.8 2.8 0 01-1.4 2.1 2.8 2.8 0 01-2.4.1zM202.6 232.9a6.4 6.4 0 01-2.9-2.5 6.7 6.7 0 01-.9-4 2.8 2.8 0 011.4-2 3 3 0 012.4-.2 6.1 6.1 0 012.9 2.7 7.1 7.1 0 01.9 3.9 2.9 2.9 0 01-1.4 2 2.4 2.4 0 01-2.4.1z"/></g><g><path class="cls-6" d="M142.3 229.3a6.4 6.4 0 01-2.9-2.5 7.7 7.7 0 01-.9-4 2.8 2.8 0 011.4-2 2.6 2.6 0 012.4-.2 6.2 6.2 0 013 2.7 5.8 5.8 0 01.8 3.8 2.9 2.9 0 01-1.3 2.1 3 3 0 01-2.5.1zM187.2 255.3a7 7 0 01-2.9-2.6 6 6 0 01-.9-4 3.2 3.2 0 011.4-2 3 3 0 012.4-.2 6.7 6.7 0 012.9 2.7 7.1 7.1 0 01.9 3.9 2.9 2.9 0 01-1.4 2 2.9 2.9 0 01-2.4.2zM202.6 264.2a6.2 6.2 0 01-2.9-2.6 6.5 6.5 0 01-.9-4 3.2 3.2 0 011.4-2 3.5 3.5 0 012.4-.2 6.7 6.7 0 012.9 2.7 7.1 7.1 0 01.9 3.9 2.7 2.7 0 01-1.4 2 2.9 2.9 0 01-2.4.2z"/></g></g></g><g id="Front_Super_Computer" data-name="Front Super Computer"><path class="cls-1" d="M1.4 87L93 34.2 184.5 87 93 139.8 1.4 87z"/><path class="cls-2" d="M1.4 87v179.6L93 319.4V139.8L1.4 87z"/><path class="cls-3" d="M184.5 87v179.6L93 319.4V139.8L184.5 87z"/><path class="cls-4" d="M28.9 87L93 50l64 37-64 37-64.1-37z"/><path class="cls-5" d="M108.4 280.6v-6.4l67-38.7v6.5l-67 38.6zM108.4 295.9v-6.5l67-38.6v6.4l-67 38.7zM108.4 264.8v-6.4l67-38.6v6.4l-67 38.6zM108.4 236.3v-6.4l67-38.7v6.5l-67 38.6zM108.4 223.1v-6.5l67-38.6v6.4l-67 38.7zM108.4 206.6v-6.5l67-38.6v6.4l-67 38.7zM108.4 175.4v-6.5l67-38.6v6.4l-67 38.7zM108.4 161v-6.5l67-38.6v6.4l-67 38.7z"/><g><path class="cls-6" d="M15.4 123.9a6.5 6.5 0 01-3-2.5 6.4 6.4 0 01-.8-4 2.5 2.5 0 011.4-2 2.6 2.6 0 012.4-.2 6.6 6.6 0 012.9 2.7 6.9 6.9 0 01.9 3.8 2.8 2.8 0 01-1.4 2.1 2.8 2.8 0 01-2.4.1zM60.2 149.9a6.6 6.6 0 01-3.8-6.6 3.2 3.2 0 011.4-2 3 3 0 012.4-.2 6.7 6.7 0 013 2.7 6 6 0 01.8 3.9 2.9 2.9 0 01-1.3 2 3.2 3.2 0 01-2.5.2zM75.6 158.8a6.2 6.2 0 01-2.9-2.6 6.2 6.2 0 01-.8-4 2.6 2.6 0 011.3-2 3.5 3.5 0 012.4-.2 6.8 6.8 0 013 2.7 6 6 0 01.8 3.9 2.8 2.8 0 01-1.3 2 3.2 3.2 0 01-2.5.2zM15.4 140.5a6.3 6.3 0 01-3-2.6 6.3 6.3 0 01-.8-4 2.8 2.8 0 011.4-2 3.5 3.5 0 012.4-.2 7.3 7.3 0 012.9 2.7 7.1 7.1 0 01.9 3.9 2.7 2.7 0 01-1.4 2 2.9 2.9 0 01-2.4.2zM60.2 166.4a6.2 6.2 0 01-2.9-2.6 7.4 7.4 0 01-.9-4 3.2 3.2 0 011.4-2 2.8 2.8 0 012.4-.1 6.3 6.3 0 013 2.6 6.1 6.1 0 01.8 3.9 2.9 2.9 0 01-1.3 2.1 3 3 0 01-2.5.1zM75.6 175.3a6.2 6.2 0 01-2.9-2.6 6.1 6.1 0 01-.8-3.9 2.4 2.4 0 011.3-2 2.6 2.6 0 012.4-.2 5.9 5.9 0 013 2.6 6.1 6.1 0 01.8 3.9 2.9 2.9 0 01-1.3 2.1 3 3 0 01-2.5.1zM15.4 171.5a6.5 6.5 0 01-3-2.5 6.4 6.4 0 01-.8-4 2.5 2.5 0 011.4-2 2.6 2.6 0 012.4-.2 6.6 6.6 0 012.9 2.7 6.9 6.9 0 01.9 3.8 2.8 2.8 0 01-1.4 2.1 2.8 2.8 0 01-2.4.1zM60.2 197.5a6.6 6.6 0 01-3.8-6.6 2.9 2.9 0 013.8-2.2 6.7 6.7 0 013 2.7 6 6 0 01.8 3.9 2.9 2.9 0 01-1.3 2 3.2 3.2 0 01-2.5.2zM75.6 206.4a6.2 6.2 0 01-2.9-2.6 6.3 6.3 0 01-.8-4 2.6 2.6 0 011.3-2 3.5 3.5 0 012.4-.2 6.8 6.8 0 013 2.7 6 6 0 01.8 3.9 2.8 2.8 0 01-1.3 2 3.2 3.2 0 01-2.5.2z"/><g><path class="cls-6" d="M15.4 186a6.5 6.5 0 01-3-2.5 6.4 6.4 0 01-.8-4 2.5 2.5 0 011.4-2 2.6 2.6 0 012.4-.2 6.6 6.6 0 012.9 2.7 7.1 7.1 0 01.9 3.9 2.9 2.9 0 01-1.4 2 2.4 2.4 0 01-2.4.1zM60.2 212a6.6 6.6 0 01-3.8-6.6 3.2 3.2 0 011.4-2 3.5 3.5 0 012.4-.2 7.4 7.4 0 013 2.7 6 6 0 01.8 3.9 2.9 2.9 0 01-1.3 2 3.2 3.2 0 01-2.5.2zM75.6 220.9a6.2 6.2 0 01-2.9-2.6 6.2 6.2 0 01-.8-4 2.6 2.6 0 011.3-2 3.5 3.5 0 012.4-.2 6.8 6.8 0 013 2.7 6 6 0 01.8 3.9 2.8 2.8 0 01-1.3 2 3.2 3.2 0 01-2.5.2z"/></g><g><path class="cls-6" d="M15.4 201.5a6.3 6.3 0 01-3-2.6 6.1 6.1 0 01-.8-3.9 2.8 2.8 0 011.4-2.1 2.8 2.8 0 012.4-.1 6.2 6.2 0 012.9 2.6 7.2 7.2 0 01.9 3.9 2.8 2.8 0 01-1.4 2.1 2.8 2.8 0 01-2.4.1zM60.2 227.4a6.4 6.4 0 01-2.9-2.5 7.7 7.7 0 01-.9-4 2.8 2.8 0 011.4-2 3 3 0 012.4-.2 6.7 6.7 0 013 2.7 6 6 0 01.8 3.9 2.9 2.9 0 01-1.3 2 2.7 2.7 0 01-2.5.1zM75.6 236.4a7.7 7.7 0 01-2.9-2.6 6.4 6.4 0 01-.8-4 2.6 2.6 0 011.3-2 3 3 0 012.4-.2 6.2 6.2 0 013 2.7 6 6 0 01.8 3.9 2.9 2.9 0 01-1.3 2 3.2 3.2 0 01-2.5.2z"/></g><g><path class="cls-6" d="M15.4 245.6a7.7 7.7 0 01-3-2.6 6.4 6.4 0 01-.8-4 2.7 2.7 0 011.4-2 3 3 0 012.4-.2 6.6 6.6 0 012.9 2.7 7.1 7.1 0 01.9 3.9 2.9 2.9 0 01-1.4 2 2.9 2.9 0 01-2.4.2zM60.2 271.5a6.2 6.2 0 01-2.9-2.6 7.4 7.4 0 01-.9-4 3.2 3.2 0 011.4-2 3.5 3.5 0 012.4-.2 7.4 7.4 0 013 2.7 6 6 0 01.8 3.9 2.8 2.8 0 01-1.3 2 3.2 3.2 0 01-2.5.2zM75.6 280.4a6.2 6.2 0 01-2.9-2.6 6.2 6.2 0 01-.8-4 2.6 2.6 0 011.3-2 2.8 2.8 0 012.4-.1 5.9 5.9 0 013 2.6 6.1 6.1 0 01.8 3.9 2.6 2.6 0 01-1.3 2 2.8 2.8 0 01-2.5.2z"/></g><g><path class="cls-6" d="M15.4 229.8a6.2 6.2 0 01-3.8-6.6 2.8 2.8 0 011.4-2 3.5 3.5 0 012.4-.2 7.3 7.3 0 012.9 2.7 7.1 7.1 0 01.9 3.9 2.5 2.5 0 01-1.4 2 2.6 2.6 0 01-2.4.2zM60.2 255.7a6.4 6.4 0 01-2.9-2.5 7.7 7.7 0 01-.9-4 2.8 2.8 0 011.4-2 2.6 2.6 0 012.4-.2 6.7 6.7 0 013 2.7 5.8 5.8 0 01.8 3.8 2.9 2.9 0 01-1.3 2.1 3 3 0 01-2.5.1zM75.6 264.6a6.1 6.1 0 01-3.7-6.5 2.4 2.4 0 011.3-2 3 3 0 012.4-.2 6.2 6.2 0 013 2.7 6 6 0 01.8 3.9 2.9 2.9 0 01-1.3 2 2.7 2.7 0 01-2.5.1z"/></g><g><path class="cls-6" d="M15.4 261a6.5 6.5 0 01-3-2.5 6.4 6.4 0 01-.8-4 2.5 2.5 0 011.4-2 2.6 2.6 0 012.4-.2 6.6 6.6 0 012.9 2.7 6.9 6.9 0 01.9 3.8 2.8 2.8 0 01-1.4 2.1 2.8 2.8 0 01-2.4.1zM60.2 287a6.6 6.6 0 01-3.8-6.6 3.2 3.2 0 011.4-2 3 3 0 012.4-.2 6.7 6.7 0 013 2.7 6 6 0 01.8 3.9 2.9 2.9 0 01-1.3 2 3.2 3.2 0 01-2.5.2zM75.6 295.9a6.2 6.2 0 01-2.9-2.6 6.2 6.2 0 01-.8-4 2.6 2.6 0 011.3-2 3.5 3.5 0 012.4-.2 6.8 6.8 0 013 2.7 6 6 0 01.8 3.9 2.8 2.8 0 01-1.3 2 3.2 3.2 0 01-2.5.2z"/></g></g></g></svg>