<svg xmlns="http://www.w3.org/2000/svg" viewBox="0 0 301.3 365.8">
  <defs>
    <style>
      .cls-1 {
        fill: #c1d7e5;
      }

      .cls-2 {
        fill: #f5faff;
      }

      .cls-3 {
        fill: #f5fbfc;
      }

      .cls-4 {
        fill: #f4dc71;
      }

      .cls-5 {
        fill: #efe9a0;
      }

      .cls-6 {
        fill: #f0da88;
      }

      .cls-7 {
        fill: #ededed;
        opacity: 0.3;
        isolation: isolate;
      }
    </style>
  </defs>
  <g id="Machine">
    <path class="cls-1" d="M67.1,343.1c30.6,19.6,69.6,21.1,83.9,21.1,5.7,0,50.5-.4,83.9-21.1,9.4-5.8,15.9-12,20.7-20a48.3,48.3,0,0,0-2.9-55.2,100.5,100.5,0,0,0-17.8-21.6c-27.2-24.3-73.7-23.7-83.9-23.7a161.3,161.3,0,0,0-83.9,23.7c-7.6,4.7-27.6,23.3-28.3,48.6a54.5,54.5,0,0,0,5.1,23.9C46.6,324.5,52.3,333.6,67.1,343.1Z"/>
    <path class="cls-2" d="M76.4,323.6a157.4,157.4,0,0,0,149.2,0c8.7-4.6,24.9-20.5,24.9-43.1,0-25.6-22.4-41.3-24.9-43a142.4,142.4,0,0,0-149.2,0c-2.4,1.6-25.3,17.4-25.2,43.2C51.2,303.1,67.4,318.8,76.4,323.6Z"/>
    <path class="cls-3" d="M87.9,316.3a133.7,133.7,0,0,0,126.1,0c7.3-3.9,21-17.3,21-36.3,0-21.7-18.9-35-21-36.4a120.6,120.6,0,0,0-126.1,0c-1.9,1.3-21.3,14.7-21.2,36.5C66.7,299,80.4,312.3,87.9,316.3Z"/>
    <path class="cls-1" d="M225.7,295l7.8-4.5.6-2-9.9,5.7-17.1-9.9,16.8-9.7L235,281v-1.7l-9.6-5.5,8-4.6c-.2-.5-.3-1-.5-1.5l-9,5.2-16.6-9.6,16.8-9.7,1.3.8a36.3,36.3,0,0,0-3-3.5l-15-8.7,2.1-1.2-1.5-.9-2.1,1.3-15.5-9-6.6-2.1,2.1,1.3-16.8,9.7-16.7-9.6,9.4-5.4-2.6-.3-8.3,4.8-8.2-4.8-2.6.3,9.3,5.4-16.8,9.6-17.1-9.9,1.1-.6-7.1,2.3-13.9,8.1-1.7-1-1.5.8,1.7,1-13.8,8a41,41,0,0,0-3.3,3.7l.4-.3,17.2,9.9L77.7,273l-9-5.1c-.1.5-.3.9-.4,1.4l7.9,4.6-9.5,5.5v1.7l11-6.3,16.7,9.6-16.8,9.7-10-5.8a11.7,11.7,0,0,0,.5,2l8,4.7L71,297.9a9.1,9.1,0,0,0,.7,1.4l5.9-3.5,16.9,9.8-12,6.9,1.3,1.1L96,306.5l16.7,9.6-11.2,6.5,1.7.7,11-6.3,16.7,9.6-5.4,3.1,2.3.4,4.6-2.6,7.3,4.2,3.4.2-9.2-5.3,16.8-9.7,17.1,9.8-9,5.2,3.4-.2,7.1-4.1,4.4,2.6,2.3-.4-5.2-3.1,16.8-9.7,11,6.3,1.8-.7-11.3-6.4,16.8-9.7,12.2,7.1,1.2-1.1-11.9-6.9,16.8-9.7,5.8,3.4a9.1,9.1,0,0,0,.7-1.4Zm-3.3-21.2-16.8,9.7L189,273.8l16.8-9.6Zm-36.4,0-16.9,9.8-16.7-9.7,16.9-9.7Zm-15.2-10.4,16.8-9.7,16.7,9.6L187.5,273Zm-19.9,9.7L134,263.3l16.8-9.7,17,9.8Zm-1.5.8-16.7,9.7-16.9-9.8,16.7-9.6Zm-35.1-.9-16.7-9.7,16.7-9.6,16.7,9.6Zm16.9,11.5-16.9,9.7-16.9-9.8,16.9-9.7Zm1.5.8,16.7,9.6-16.9,9.8-16.7-9.6Zm1.5-.8,16.7-9.7,16.7,9.6-16.7,9.7Zm34.9.8,16.7,9.6-16.7,9.7-16.7-9.7Zm1.5-.9,16.9-9.7,16.6,9.6-16.8,9.8Zm52-31.7-16.8,9.7-16.7-9.6,16.8-9.7Zm-35.2-20.2,17,9.7-16.8,9.7-17-9.7Zm-1.3,20.3-16.8,9.7-17-9.8,16.8-9.7Zm-35.2-20.3,16.7,9.7-16.8,9.6-16.7-9.6Zm-1.6,20.2-16.8,9.7-16.7-9.6,16.8-9.7ZM114,232.3l17.1,9.9-16.8,9.7L97.1,242ZM78.9,252.5l16.7-9.6,17.2,9.9-16.7,9.6Zm.3,21.4,16.9-9.7,16.7,9.6-16.9,9.7ZM79.1,295l16.8-9.7,16.9,9.8L96,304.7Zm18.4,10.6,16.8-9.7,16.7,9.6-16.8,9.7Zm34.9,20.1-16.7-9.6,16.8-9.7,16.7,9.6Zm1.6-20.2,16.9-9.7,16.7,9.6-16.9,9.8Zm35.3,20.4L152.2,316l16.9-9.7,17,9.9Zm18.3-10.6-17-9.9,16.7-9.6,17.1,9.8Zm18.3-10.5-17.1-9.9,16.8-9.7,17.1,9.8Z"/>
  </g>
  <g id="Coins">
    <g>
      <path class="cls-4" d="M160.5,65.7l-1-1.4-1.5-2-.4.3c-5.9-4.9-13.6-4.9-14.6-4.9A55.5,55.5,0,0,0,95.7,91.2c-.3.8-3.1,8.4-.3,15.6l-.4.3,1.4,2.1a14.7,14.7,0,0,0,1,1.3h0l.9,1h.1a20.3,20.3,0,0,0,16.6,6.9A61.1,61.1,0,0,0,162.3,85a19.9,19.9,0,0,0-1.5-18.7h0l-.2-.3v-.2Z"/>
      <path class="cls-5" d="M112.2,114.4A60.2,60.2,0,0,0,140,103.7,61.8,61.8,0,0,0,159.5,81c1.7-3.4,3.3-12.1-1.8-19.2s-16.4-8.1-17.5-8.1A55.1,55.1,0,0,0,92.9,87.1c-.4,1.1-4.1,11.2,1.7,19.4S108.3,114.9,112.2,114.4Z"/>
      <path class="cls-6" d="M113.5,111.4a55.3,55.3,0,0,0,25.1-9.7,56.8,56.8,0,0,0,17.5-20.4c1.5-3.1,2.9-10.9-1.6-17.3s-14.7-7.3-15.8-7.3A50,50,0,0,0,96.2,86.8c-.4.9-3.7,10.1,1.5,17.4S110,111.8,113.5,111.4Z"/>
    </g>
    <g>
      <path class="cls-4" d="M167.4,246.1a9.1,9.1,0,0,0-.7-1.4,16.2,16.2,0,0,0-1-1.8l-.4.3c-4.4-4.8-10.9-5.7-11.7-5.8a47.6,47.6,0,0,0-24.9,5.3,46.7,46.7,0,0,0-18.5,17.6c-.4.7-3.5,6.7-2,13.1l-.3.2a10.7,10.7,0,0,0,.9,1.9,7.5,7.5,0,0,0,.7,1.2h0l.6,1h.1a16.8,16.8,0,0,0,13.2,7.6,52,52,0,0,0,24.6-5.9,53.9,53.9,0,0,0,18.8-16.9,16.9,16.9,0,0,0,.8-15.9h0v-.3c0-.1,0-.1-.1-.1Z"/>
      <path class="cls-5" d="M121.4,281.6a51.7,51.7,0,0,0,24.6-5.9,53.1,53.1,0,0,0,18.9-16.9c1.8-2.7,4.1-9.8.6-16.3s-12.8-8.6-13.8-8.8a46.6,46.6,0,0,0-43.4,22.9c-.5.8-4.7,8.9-.8,16.4A17,17,0,0,0,121.4,281.6Z"/>
      <path class="cls-6" d="M122.9,279.2A47.2,47.2,0,0,0,162,258.7a15.4,15.4,0,0,0,.6-14.7c-3.6-6.7-11.6-7.8-12.5-7.9a42.2,42.2,0,0,0-39,20.6c-.4.7-4.2,8-.7,14.8A15.3,15.3,0,0,0,122.9,279.2Z"/>
    </g>
    <g>
      <path class="cls-4" d="M220.6,202.8l1.4-.8,1.7-1.3-.2-.4c4.5-5.2,4.6-12.1,4.6-12.9a49.5,49.5,0,0,0-8.5-25.6A48.4,48.4,0,0,0,199,144.4c-.7-.3-7.4-2.9-14-.5l-.2-.4-1.9,1.2-1.2.9h0l-.9.8h-.1a18.1,18.1,0,0,0-6.4,14.8,55.8,55.8,0,0,0,9.1,25.1,54.2,54.2,0,0,0,19.9,17.8,17.8,17.8,0,0,0,16.8-1h.5Z"/>
      <path class="cls-5" d="M177.9,158.7a54.3,54.3,0,0,0,9.2,25.1A53.3,53.3,0,0,0,207,201.6a17.9,17.9,0,0,0,17.2-1.2c7.4-5,7.5-14.5,7.5-15.5a49.1,49.1,0,0,0-8.4-25.6A50.5,50.5,0,0,0,202.7,142c-.9-.4-9.9-3.9-17.3,1.1S177.6,155.2,177.9,158.7Z"/>
      <path class="cls-6" d="M180.7,160a48.4,48.4,0,0,0,8.2,22.6,49.1,49.1,0,0,0,17.9,16,16.2,16.2,0,0,0,15.5-1.1c6.6-4.5,6.8-13,6.8-14a45.2,45.2,0,0,0-7.6-23,46.2,46.2,0,0,0-18.6-15.6c-.8-.3-8.9-3.5-15.6,1.1A16,16,0,0,0,180.7,160Z"/>
    </g>
  </g>
  <g id="Light">
    <path class="cls-7" d="M39.4,161.9A236.7,236.7,0,0,0,151.1,190a236.3,236.3,0,0,0,111.6-28.1c13-6.9,37.2-30.6,37.2-64.4,0-38.4-33.5-61.9-37.2-64.4a213,213,0,0,0-223.3,0c-3.5,2.3-37.8,26-37.7,64.7C1.8,131.3,26.1,154.8,39.4,161.9Z"/>
    <path class="cls-7" d="M296.5,119c.1-.1.1-.1.1-.2h0a69.4,69.4,0,0,0,3.3-21.3c0-38.4-33.5-61.9-37.2-64.4a213,213,0,0,0-223.3,0c-3.5,2.3-37.8,26-37.7,64.7a71.1,71.1,0,0,0,6.7,29.5q30.3,83.1,60.5,166a.4.4,0,0,1,.1.3l.3.8h0c4.4,11.3,13.2,19.2,18.6,22.1a133,133,0,0,0,126.1,0c5.9-3.1,15.9-12.4,19.6-25.9q30.3-82.8,60.8-165.8A57.1,57.1,0,0,0,296.5,119Z"/>
  </g>
</svg>
