<svg version="1.1" id="Layer_1" xmlns="http://www.w3.org/2000/svg" x="0" y="0" viewBox="0 0 572.14 672.58" xml:space="preserve"><style>.st0{fill:#f4dc71}.st1{fill:#efe9a0}.st2{fill:#f0da88}.st3{fill:#d9e6ed}.st5{fill:#cad7ea}.st8{fill:#9ab5db}.st9{fill:#84baa5}.st10{fill:#c2dbf2}.st13{fill:#c1d7e5}.st14{fill:#a5d0bc}</style><path class="st0" d="M436.14 11.79l-1.73-1.25-2.57-1.76-.44.52c-9.21-3.36-19.29-.05-20.6.38-13.15 5.2-24.93 13.62-34.06 24.31-9.13 10.69-15.24 23.25-17.65 36.28-.15 1.09-1.5 11.43 4.35 18.89l-.43.53 2.47 1.92c.54.41 1.11.79 1.7 1.13l1.48.82.13-.04c3.4 1.94 7.31 3.06 11.44 3.26 4.13.2 8.37-.51 12.37-2.09 12.76-5.78 24.16-14.32 33.19-24.88s15.41-22.78 18.56-35.59c.8-4.17.52-8.34-.82-12.15a21.58 21.58 0 00-6.83-9.69l-.35-.27-.06-.24-.15-.08z"/><path class="st1" d="M387.61 90.72c12.75-5.72 24.14-14.25 33.13-24.81 9.03-10.59 15.43-22.84 18.62-35.67 1.19-4.82.64-15.97-8.19-22.32s-23.93-2.7-25.36-2.22c-13.17 5.14-24.98 13.52-34.12 24.2-9.14 10.68-15.24 23.24-17.63 36.28-.19 1.49-1.96 15.23 8.12 22.6 10.08 7.37 20.48 4.21 25.43 1.94z"/><path class="st2" d="M388.4 86.55c11.49-5.22 21.76-12.93 29.9-22.44 8.05-9.55 13.78-20.54 16.7-32.05 1.02-4.37.48-14.35-7.35-20.12-7.84-5.76-21.46-2.47-22.9-1.99-11.8 4.69-22.39 12.26-30.59 21.86-8.2 9.61-13.7 20.88-15.89 32.59-.25 1.25-1.77 13.74 7.25 20.28 9.04 6.54 18.42 3.85 22.88 1.87z"/><path class="st0" d="M513.37 236.43c-.4-.5-.85-.96-1.34-1.38-.57-.62-1.19-1.2-1.85-1.73l-.43.53c-7.18-3.87-15.92-2.17-16.99-1.95-11.4 3.05-22.05 8.93-30.83 16.99-8.78 8.12-15.28 18.16-18.77 29-.31 1.01-2.53 9.53 1.36 16.56l-.33.37c.51.69 1.09 1.33 1.75 1.89.38.42.81.8 1.27 1.14l1.08.94.13-.04c2.55 2.04 5.65 3.42 9.04 4.02 3.39.6 6.97.42 10.45-.55 11.18-3.55 21.57-9.59 30.25-17.58 8.56-8.08 15.2-17.78 19.37-28.29 1.14-3.46 1.39-7.05.74-10.43-.66-3.38-2.2-6.46-4.51-8.97l-.09-.36c-.03-.12-.03-.12-.16-.08l-.14-.08z"/><path class="st1" d="M464.02 298.31c11.18-3.54 21.58-9.58 30.25-17.58 8.64-8.06 15.33-17.78 19.5-28.33 1.53-4.01 2.37-13.5-4.15-19.79-6.52-6.3-19.27-4.84-20.63-4.65-11.44 2.98-22.15 8.86-30.91 16.99-8.76 8.12-15.23 18.17-18.68 29.01-.41 1.17-3.43 12.67 3.92 20 2.58 2.38 5.84 4.02 9.46 4.79 3.61.74 7.48.6 11.24-.44z"/><path class="st2" d="M465.25 294.79c10.03-3.25 19.35-8.72 27.14-15.91 7.79-7.19 13.83-15.9 17.58-25.37 1.05-3.21 1.26-6.52.62-9.65a16.7 16.7 0 00-4.29-8.23c-6.72-6.49-17.47-4.39-18.67-4.13-10.27 2.72-19.86 8.03-27.73 15.33-7.86 7.3-13.69 16.31-16.83 26.03-.31 1.01-3.05 11.38 3.57 18.04 2.33 2.13 5.25 3.6 8.51 4.28 3.25.68 6.72.55 10.1-.39z"/><path class="st0" d="M558.87 159.72l1.61-1.58 1.86-2.32-.39-.4c4.37-8.26 2.38-16.68 2.13-17.65-3.36-10.93-10-20.4-19.18-27.37-9.1-7.06-20.45-11.28-32.72-12.17-1.02-.06-10.72-.3-18.75 5.47l-.39-.4-2.15 2.28-1.32 1.61-.95 1.36-.13.04c-2.28 3.12-3.83 6.61-4.51 10.21-.68 3.6-.49 7.2.57 10.53 4.04 10.48 10.84 19.57 19.82 26.5 9.01 6.91 19.98 11.36 31.91 12.96 3.92.34 7.98-.26 11.82-1.75s7.34-3.81 10.18-6.76l.66-.22-.07-.34z"/><path class="st1" d="M488.06 124.84c4.01 10.52 10.86 19.61 19.95 26.46 8.98 6.95 19.96 11.41 31.91 12.95 4.02.35 8.19-.29 12.12-1.85 3.93-1.56 7.49-3.99 10.35-7.07 8.29-9.28 5.49-20.85 5.18-22.06-3.29-10.95-9.89-20.44-19.04-27.41-9.19-6.88-20.49-11.04-32.69-12.04-1.32-.09-14.35-.43-22.63 8.85-8.28 9.27-6.62 18.05-5.15 22.17z"/><path class="st2" d="M492.17 125.21c3.55 9.49 9.69 17.69 17.85 23.86 8.12 6.19 17.98 10.19 28.7 11.64 3.63.3 7.38-.28 10.92-1.69s6.74-3.6 9.33-6.37c7.38-8.32 5.02-18.72 4.71-19.94-3.05-9.8-8.99-18.3-17.18-24.6-8.33-6.17-18.51-9.91-29.51-10.85-1.15-.02-12.9-.38-20.38 8.11-2.43 2.88-4.11 6.2-4.89 9.68-.77 3.45-.62 6.95.45 10.16z"/><path class="st3" d="M15.3 341.93v212.99l246.08-141.94V200L15.3 341.93z"/><path d="M249.8 395.85V217.8L31.43 343.78V522L249.8 395.85z" fill="#64a0ff"/><path class="st5" d="M5.9 336.56v212.99l9.41 5.38v-213l-9.41-5.37z"/><path d="M5.9 336.56l9.41 5.38L261.39 200l-9.07-5.21L5.9 336.56z" fill="#e7ebf2"/><path d="M15.3 546.02l184.6 106.5 246.08-141.94-184.6-106.5L15.3 546.02z" fill="#eff1f4"/><path class="st5" d="M15.3 546.02v17.8l184.6 106.5v-17.81L15.3 546.02z"/><path class="st3" d="M199.91 652.52v17.8l246.08-141.94v-17.81L199.91 652.52zM234.01 413.83L49.24 520.49l15.45 8.9L249.46 422.9l-15.45-9.07z"/><path class="st8" d="M201.76 475.14l-8.73-5.04-15.29 8.9 8.57 5.04 15.45-8.9zM223.76 462.37l-8.57-5.04-15.29 8.9 8.57 4.87 15.29-8.73zM247.78 448.43l-8.57-4.87-15.45 8.74 8.73 5.04 15.29-8.91zM269.95 435.66l-8.57-4.87-15.45 8.73 8.57 5.04 15.45-8.9zM155.56 501.68l-8.57-4.87-15.45 8.9 8.57 4.87 15.45-8.9zM85.35 542.16l-8.57-4.87-15.29 8.73 8.57 5.04 15.29-8.9zM177.74 488.91l-8.57-4.87-15.45 8.73 8.57 5.04 15.45-8.9zM109.37 528.39l-8.57-5.04-15.45 8.9 8.73 4.87 15.29-8.73zM131.54 515.45l-8.57-4.87-15.45 8.9 8.73 4.87 15.29-8.9z"/><path class="st9" d="M76.78 554.93l15.45 8.9 24.52-14.28-15.29-8.73-24.68 14.11zM107.52 537.29l15.45 8.73 15.45-8.73-15.45-8.9-15.45 8.9zM130.37 524.02l15.45 8.9 15.28-8.9-15.28-8.9-15.45 8.9zM153.72 510.58l15.45 8.9 15.29-8.9-15.29-8.9-15.45 8.9zM177.07 497.14l15.28 8.9 15.45-8.9-15.45-8.9-15.28 8.9zM199.91 484.04l15.29 8.74 15.45-8.74-15.45-8.9-15.29 8.9zM223.09 470.44l15.45 8.9 15.45-8.9-15.45-8.74-15.45 8.74zM245.93 457.33l30.91-17.81 15.29 8.9-30.74 17.8-15.46-8.89zM100.13 568.36l15.45 8.9 30.74-17.8-15.45-8.73-30.74 17.63zM161.61 532.92l-22.51 13.1 15.29 8.9 22.68-13.1-15.46-8.9zM167.49 581.13l-22.68 13.1 15.45 8.9 22.68-13.1-15.45-8.9zM170.18 528.05l15.45 8.73 15.45-8.73-15.45-8.9-15.45 8.9zM192.35 515.12l15.45 8.9 15.45-8.9-15.45-8.9-15.45 8.9zM215.7 501.68l15.45 8.9 15.29-8.9-15.29-8.9-15.45 8.9zM238.54 488.58l15.45 8.9 15.29-8.9-15.29-8.9-15.45 8.9zM261.89 475.14l15.29 8.9 15.45-8.9-15.29-8.9-15.45 8.9zM169.17 554.93l15.29 8.74 15.45-8.74-15.45-8.9-15.29 8.9zM175.72 576.43l15.29 8.9 15.45-8.9-15.45-8.9-15.29 8.9zM197.73 563.66l15.45 8.9 15.45-8.9-15.45-8.9-15.45 8.9zM191.85 541.82l15.45 8.9 15.29-8.9-15.29-8.9-15.45 8.9zM215.19 528.39l15.45 8.9 15.29-8.9-15.29-8.9-15.45 8.9zM238.04 515.12l15.28 8.9 15.45-8.9-15.45-8.9-15.28 8.9zM261.39 501.68l15.29 8.9 15.45-8.9-15.45-8.9-15.29 8.9zM307.58 475.14l15.29 8.9 15.45-8.9-15.45-8.9-15.29 8.9zM284.23 488.58l15.28 8.9 15.45-8.9-15.45-8.9-15.28 8.9zM284.74 461.87l15.29 8.9 15.45-8.9-15.45-8.9-15.29 8.9zM122.98 581.63l38.8-22.51 15.45 8.9-38.97 22.34-15.28-8.73zM221.75 549.89l15.45 8.9 84.32-48.71-15.45-8.9-84.32 48.71zM314.13 496.64l15.29 8.74 30.74-17.64-15.29-8.9-30.74 17.8zM353.94 545.86l-38.47-22.17-92.22 53.25 38.47 22.17 92.22-53.25z"/><path class="st10" d="M175.39 415.34l-8.57-5.04V197.98l8.57 4.03v213.33zM184.62 138.01l-6.89-4.03-42.16 111.2 8.4 4.87c13.61-37.46 27.05-74.75 40.65-112.04z"/><path class="st8" d="M107.52 172.95l-30.57 17.64 8.23 4.7 30.57-17.64-8.23-4.7zM137.25 336.39l6.89 4.03-92.05 53.41-6.38-3.53 91.54-53.91z"/><path class="st8" d="M85.18 408.62l-8.73-4.03.5-214 8.23 4.7v213.33z"/><path d="M45.71 390.31l56.1 55.1 5.54 3.7-55.26-55.26-6.38-3.54z" fill="#718fc3"/><path class="st10" d="M85.18 195.29v213.33l30.74-17.8V177.49l-30.74 17.8z"/><path class="st10" d="M107.35 449.1l36.79-108.68-92.05 53.42 55.26 55.26z"/><path class="st8" d="M175.38 202.01v213.33l30.74-17.64V184.38l-30.74 17.63z"/><path class="st8" d="M184.62 138.01c-13.61 37.29-27.04 74.58-40.65 112.04l92.39-53.25-51.74-58.79z"/><path d="M475.2 301.52l-18.38-10.78 18.52-10.18 18.17 10.58-18.31 10.38z" fill="#afbed3"/><path class="st13" d="M493.52 291.1l-1.01.79-18.37-10.78 1.21-.59 18.17 10.58z"/><path class="st9" d="M482.15 365.14l.9-126.9-103.07-60.56-.9 126.9 103.07 60.56z"/><path class="st14" d="M478.52 240.48l-7.24 4.13-.91 127.03 7.24-4.13.91-127.03zM489.99 234.16l-7.24 3.93-.91 127.03 7.24-3.93.91-127.03z"/><path class="st9" d="M380.29 177.69l-4.42 2.56-.92 127.04 4.38 2.45.96-132.05z"/><path d="M478.62 240.45l-102.66-60.21 4.23-2.55 102.86 60.41 7.05-3.92-109.85-64.48-18.32 10.39 109.65 64.48 7.04-4.12z" fill="#c7e5d3"/><path d="M361.72 180.13l-.9 126.89 109.86 64.63.9-126.89-109.86-64.63z" fill="#62a58e"/><path class="st3" d="M452.76 293.15a14.332 14.332 0 00-3.45 5.76c-2.46 7.57 2.51 14.42 3.3 15.42l18.18 10.79 22.56-12.75.15-21.18-22.56 12.75-18.18-10.79z"/><path class="st13" d="M491.5 291.12l-20.74 11.76 1 .61 20.94-11.76-1.2-.61z"/><path class="st13" d="M472.17 303.33l-1.21.59-18.17-10.78 1.01-.59 18.37 10.78zM457.86 312.62a6.878 6.878 0 01-3.39-3.04 7.972 7.972 0 01-.97-4.61c.08-.47.27-.91.55-1.29a3 3 0 011.07-.9 2.831 2.831 0 012.81-.17c1.44.6 2.64 1.67 3.39 3.04.79 1.4 1.13 3.01.97 4.61-.08.47-.27.91-.55 1.29a3 3 0 01-1.07.9c-.41.27-.89.43-1.38.46-.5.03-.99-.07-1.43-.29z"/></svg>