<?xml version="1.0" encoding="utf-8"?>
<!-- Generator: Adobe Illustrator 25.3.1, SVG Export Plug-In . SVG Version: 6.00 Build 0)  -->
<svg version="1.1" id="Layer_1" xmlns="http://www.w3.org/2000/svg" xmlns:xlink="http://www.w3.org/1999/xlink" x="0px" y="0px"
	 viewBox="0 0 572.14 672.58" style="enable-background:new 0 0 572.14 672.58;" xml:space="preserve">
<style type="text/css">
	.st0{fill:#F4DC71;}
	.st1{fill:#EFE9A0;}
	.st2{fill:#F0DA88;}
	.st3{fill:#D9E6ED;}
	.st4{fill:#64A0FF;}
	.st5{fill:#CAD7EA;}
	.st6{fill:#E7EBF2;}
	.st7{fill:#EFF1F4;}
	.st8{fill:#9AB5DB;}
	.st9{fill:#84BAA5;}
	.st10{fill:#C2DBF2;}
	.st11{fill:#718FC3;}
	.st12{fill:#AFBED3;}
	.st13{fill:#C1D7E5;}
	.st14{fill:#A5D0BC;}
	.st15{fill:#C7E5D3;}
	.st16{fill:#62A58E;}
</style>
<path class="st0" d="M436.14,11.79l-1.73-1.25l-2.57-1.76L431.4,9.3c-9.21-3.36-19.29-0.05-20.6,0.38
	c-13.15,5.2-24.93,13.62-34.06,24.31c-9.13,10.69-15.24,23.25-17.65,36.28c-0.15,1.09-1.5,11.43,4.35,18.89l-0.43,0.53l2.47,1.92
	c0.54,0.41,1.11,0.79,1.7,1.13l1.48,0.82l0.13-0.04c3.4,1.94,7.31,3.06,11.44,3.26c4.13,0.2,8.37-0.51,12.37-2.09
	c12.76-5.78,24.16-14.32,33.19-24.88s15.41-22.78,18.56-35.59c0.8-4.17,0.52-8.34-0.82-12.15c-1.33-3.81-3.68-7.14-6.83-9.69
	l-0.35-0.27l-0.06-0.24L436.14,11.79z"/>
<path class="st1" d="M387.61,90.72c12.75-5.72,24.14-14.25,33.13-24.81c9.03-10.59,15.43-22.84,18.62-35.67
	c1.19-4.82,0.64-15.97-8.19-22.32c-8.83-6.35-23.93-2.7-25.36-2.22c-13.17,5.14-24.98,13.52-34.12,24.2
	c-9.14,10.68-15.24,23.24-17.63,36.28c-0.19,1.49-1.96,15.23,8.12,22.6C372.26,96.15,382.66,92.99,387.61,90.72z"/>
<path class="st2" d="M388.4,86.55c11.49-5.22,21.76-12.93,29.9-22.44c8.05-9.55,13.78-20.54,16.7-32.05
	c1.02-4.37,0.48-14.35-7.35-20.12c-7.84-5.76-21.46-2.47-22.9-1.99c-11.8,4.69-22.39,12.26-30.59,21.86
	c-8.2,9.61-13.7,20.88-15.89,32.59c-0.25,1.25-1.77,13.74,7.25,20.28C374.56,91.22,383.94,88.53,388.4,86.55z"/>
<path class="st0" d="M513.37,236.43c-0.4-0.5-0.85-0.96-1.34-1.38c-0.57-0.62-1.19-1.2-1.85-1.73l-0.43,0.53
	c-7.18-3.87-15.92-2.17-16.99-1.95c-11.4,3.05-22.05,8.93-30.83,16.99c-8.78,8.12-15.28,18.16-18.77,29
	c-0.31,1.01-2.53,9.53,1.36,16.56l-0.33,0.37c0.51,0.69,1.09,1.33,1.75,1.89c0.38,0.42,0.81,0.8,1.27,1.14l1.08,0.94l0.13-0.04
	c2.55,2.04,5.65,3.42,9.04,4.02c3.39,0.6,6.97,0.42,10.45-0.55c11.18-3.55,21.57-9.59,30.25-17.58c8.56-8.08,15.2-17.78,19.37-28.29
	c1.14-3.46,1.39-7.05,0.74-10.43c-0.66-3.38-2.2-6.46-4.51-8.97l-0.09-0.36c-0.03-0.12-0.03-0.12-0.16-0.08L513.37,236.43z"/>
<path class="st1" d="M464.02,298.31c11.18-3.54,21.58-9.58,30.25-17.58c8.64-8.06,15.33-17.78,19.5-28.33
	c1.53-4.01,2.37-13.5-4.15-19.79c-6.52-6.3-19.27-4.84-20.63-4.65c-11.44,2.98-22.15,8.86-30.91,16.99
	c-8.76,8.12-15.23,18.17-18.68,29.01c-0.41,1.17-3.43,12.67,3.92,20c2.58,2.38,5.84,4.02,9.46,4.79
	C456.39,299.49,460.26,299.35,464.02,298.31z"/>
<path class="st2" d="M465.25,294.79c10.03-3.25,19.35-8.72,27.14-15.91c7.79-7.19,13.83-15.9,17.58-25.37
	c1.05-3.21,1.26-6.52,0.62-9.65c-0.64-3.12-2.11-5.95-4.29-8.23c-6.72-6.49-17.47-4.39-18.67-4.13
	c-10.27,2.72-19.86,8.03-27.73,15.33c-7.86,7.3-13.69,16.31-16.83,26.03c-0.31,1.01-3.05,11.38,3.57,18.04
	c2.33,2.13,5.25,3.6,8.51,4.28C458.4,295.86,461.87,295.73,465.25,294.79z"/>
<path class="st0" d="M558.87,159.72l1.61-1.58l1.86-2.32l-0.39-0.4c4.37-8.26,2.38-16.68,2.13-17.65
	c-3.36-10.93-10-20.4-19.18-27.37c-9.1-7.06-20.45-11.28-32.72-12.17c-1.02-0.06-10.72-0.3-18.75,5.47l-0.39-0.4l-2.15,2.28
	l-1.32,1.61l-0.95,1.36l-0.13,0.04c-2.28,3.12-3.83,6.61-4.51,10.21c-0.68,3.6-0.49,7.2,0.57,10.53
	c4.04,10.48,10.84,19.57,19.82,26.5c9.01,6.91,19.98,11.36,31.91,12.96c3.92,0.34,7.98-0.26,11.82-1.75
	c3.84-1.49,7.34-3.81,10.18-6.76l0.66-0.22L558.87,159.72z"/>
<path class="st1" d="M488.06,124.84c4.01,10.52,10.86,19.61,19.95,26.46c8.98,6.95,19.96,11.41,31.91,12.95
	c4.02,0.35,8.19-0.29,12.12-1.85c3.93-1.56,7.49-3.99,10.35-7.07c8.29-9.28,5.49-20.85,5.18-22.06
	c-3.29-10.95-9.89-20.44-19.04-27.41c-9.19-6.88-20.49-11.04-32.69-12.04c-1.32-0.09-14.35-0.43-22.63,8.85
	C484.93,111.94,486.59,120.72,488.06,124.84z"/>
<path class="st2" d="M492.17,125.21c3.55,9.49,9.69,17.69,17.85,23.86c8.12,6.19,17.98,10.19,28.7,11.64
	c3.63,0.3,7.38-0.28,10.92-1.69c3.54-1.41,6.74-3.6,9.33-6.37c7.38-8.32,5.02-18.72,4.71-19.94c-3.05-9.8-8.99-18.3-17.18-24.6
	c-8.33-6.17-18.51-9.91-29.51-10.85c-1.15-0.02-12.9-0.38-20.38,8.11c-2.43,2.88-4.11,6.2-4.89,9.68
	C490.95,118.5,491.1,122,492.17,125.21z"/>
<path class="st3" d="M15.3,341.93v212.99l246.08-141.94V200L15.3,341.93z"/>
<path class="st4" d="M249.8,395.85V217.8L31.43,343.78V522L249.8,395.85z"/>
<path class="st5" d="M5.9,336.56v212.99l9.41,5.38V341.93L5.9,336.56z"/>
<path class="st6" d="M5.9,336.56l9.41,5.38L261.39,200l-9.07-5.21L5.9,336.56z"/>
<path class="st7" d="M15.3,546.02l184.6,106.5l246.08-141.94l-184.6-106.5L15.3,546.02z"/>
<path class="st5" d="M15.3,546.02v17.8l184.6,106.5v-17.81L15.3,546.02z"/>
<path class="st3" d="M199.91,652.52v17.8l246.08-141.94v-17.81L199.91,652.52z"/>
<path class="st3" d="M234.01,413.83L49.24,520.49l15.45,8.9L249.46,422.9L234.01,413.83z"/>
<path class="st8" d="M201.76,475.14l-8.73-5.04l-15.29,8.9l8.57,5.04L201.76,475.14z"/>
<path class="st8" d="M223.76,462.37l-8.57-5.04l-15.29,8.9l8.57,4.87L223.76,462.37z"/>
<path class="st8" d="M247.78,448.43l-8.57-4.87l-15.45,8.74l8.73,5.04L247.78,448.43z"/>
<path class="st8" d="M269.95,435.66l-8.57-4.87l-15.45,8.73l8.57,5.04L269.95,435.66z"/>
<path class="st8" d="M155.56,501.68l-8.57-4.87l-15.45,8.9l8.57,4.87L155.56,501.68z"/>
<path class="st8" d="M85.35,542.16l-8.57-4.87l-15.29,8.73l8.57,5.04L85.35,542.16z"/>
<path class="st8" d="M177.74,488.91l-8.57-4.87l-15.45,8.73l8.57,5.04L177.74,488.91z"/>
<path class="st8" d="M109.37,528.39l-8.57-5.04l-15.45,8.9l8.73,4.87L109.37,528.39z"/>
<path class="st8" d="M131.54,515.45l-8.57-4.87l-15.45,8.9l8.73,4.87L131.54,515.45z"/>
<path class="st9" d="M76.78,554.93l15.45,8.9l24.52-14.28l-15.29-8.73L76.78,554.93z"/>
<path class="st9" d="M107.52,537.29l15.45,8.73l15.45-8.73l-15.45-8.9L107.52,537.29z"/>
<path class="st9" d="M130.37,524.02l15.45,8.9l15.28-8.9l-15.28-8.9L130.37,524.02z"/>
<path class="st9" d="M153.72,510.58l15.45,8.9l15.29-8.9l-15.29-8.9L153.72,510.58z"/>
<path class="st9" d="M177.07,497.14l15.28,8.9l15.45-8.9l-15.45-8.9L177.07,497.14z"/>
<path class="st9" d="M199.91,484.04l15.29,8.74l15.45-8.74l-15.45-8.9L199.91,484.04z"/>
<path class="st9" d="M223.09,470.44l15.45,8.9l15.45-8.9l-15.45-8.74L223.09,470.44z"/>
<path class="st9" d="M245.93,457.33l30.91-17.81l15.29,8.9l-30.74,17.8L245.93,457.33z"/>
<path class="st9" d="M100.13,568.36l15.45,8.9l30.74-17.8l-15.45-8.73L100.13,568.36z"/>
<path class="st9" d="M161.61,532.92l-22.51,13.1l15.29,8.9l22.68-13.1L161.61,532.92z"/>
<path class="st9" d="M167.49,581.13l-22.68,13.1l15.45,8.9l22.68-13.1L167.49,581.13z"/>
<path class="st9" d="M170.18,528.05l15.45,8.73l15.45-8.73l-15.45-8.9L170.18,528.05z"/>
<path class="st9" d="M192.35,515.12l15.45,8.9l15.45-8.9l-15.45-8.9L192.35,515.12z"/>
<path class="st9" d="M215.7,501.68l15.45,8.9l15.29-8.9l-15.29-8.9L215.7,501.68z"/>
<path class="st9" d="M238.54,488.58l15.45,8.9l15.29-8.9l-15.29-8.9L238.54,488.58z"/>
<path class="st9" d="M261.89,475.14l15.29,8.9l15.45-8.9l-15.29-8.9L261.89,475.14z"/>
<path class="st9" d="M169.17,554.93l15.29,8.74l15.45-8.74l-15.45-8.9L169.17,554.93z"/>
<path class="st9" d="M175.72,576.43l15.29,8.9l15.45-8.9l-15.45-8.9L175.72,576.43z"/>
<path class="st9" d="M197.73,563.66l15.45,8.9l15.45-8.9l-15.45-8.9L197.73,563.66z"/>
<path class="st9" d="M191.85,541.82l15.45,8.9l15.29-8.9l-15.29-8.9L191.85,541.82z"/>
<path class="st9" d="M215.19,528.39l15.45,8.9l15.29-8.9l-15.29-8.9L215.19,528.39z"/>
<path class="st9" d="M238.04,515.12l15.28,8.9l15.45-8.9l-15.45-8.9L238.04,515.12z"/>
<path class="st9" d="M261.39,501.68l15.29,8.9l15.45-8.9l-15.45-8.9L261.39,501.68z"/>
<path class="st9" d="M307.58,475.14l15.29,8.9l15.45-8.9l-15.45-8.9L307.58,475.14z"/>
<path class="st9" d="M284.23,488.58l15.28,8.9l15.45-8.9l-15.45-8.9L284.23,488.58z"/>
<path class="st9" d="M284.74,461.87l15.29,8.9l15.45-8.9l-15.45-8.9L284.74,461.87z"/>
<path class="st9" d="M122.98,581.63l38.8-22.51l15.45,8.9l-38.97,22.34L122.98,581.63z"/>
<path class="st9" d="M221.75,549.89l15.45,8.9l84.32-48.71l-15.45-8.9L221.75,549.89z"/>
<path class="st9" d="M314.13,496.64l15.29,8.74l30.74-17.64l-15.29-8.9L314.13,496.64z"/>
<path class="st9" d="M353.94,545.86l-38.47-22.17l-92.22,53.25l38.47,22.17L353.94,545.86z"/>
<path class="st10" d="M175.39,415.34l-8.57-5.04V197.98l8.57,4.03V415.34z"/>
<path class="st10" d="M184.62,138.01l-6.89-4.03l-42.16,111.2l8.4,4.87C157.58,212.59,171.02,175.3,184.62,138.01z"/>
<path class="st8" d="M107.52,172.95l-30.57,17.64l8.23,4.7l30.57-17.64L107.52,172.95z"/>
<path class="st8" d="M137.25,336.39l6.89,4.03l-92.05,53.41l-6.38-3.53L137.25,336.39z"/>
<path class="st8" d="M85.18,408.62l-8.73-4.03l0.5-214l8.23,4.7V408.62z"/>
<path class="st11" d="M45.71,390.31l56.1,55.1l5.54,3.7l-55.26-55.26L45.71,390.31z"/>
<path class="st10" d="M85.18,195.29v213.33l30.74-17.8V177.49L85.18,195.29z"/>
<path class="st10" d="M107.35,449.1l36.79-108.68l-92.05,53.42L107.35,449.1z"/>
<path class="st8" d="M175.38,202.01v213.33l30.74-17.64V184.38L175.38,202.01z"/>
<path class="st8" d="M184.62,138.01c-13.61,37.29-27.04,74.58-40.65,112.04l92.39-53.25L184.62,138.01z"/>
<path class="st12" d="M475.2,301.52l-18.38-10.78l18.52-10.18l18.17,10.58L475.2,301.52z"/>
<path class="st13" d="M493.52,291.1l-1.01,0.79l-18.37-10.78l1.21-0.59L493.52,291.1z"/>
<path class="st9" d="M482.15,365.14l0.9-126.9l-103.07-60.56l-0.9,126.9L482.15,365.14z"/>
<path class="st14" d="M478.52,240.48l-7.24,4.13l-0.91,127.03l7.24-4.13L478.52,240.48z"/>
<path class="st14" d="M489.99,234.16l-7.24,3.93l-0.91,127.03l7.24-3.93L489.99,234.16z"/>
<path class="st9" d="M380.29,177.69l-4.42,2.56l-0.92,127.04l4.38,2.45L380.29,177.69z"/>
<path class="st15" d="M478.62,240.45l-102.66-60.21l4.23-2.55l102.86,60.41l7.05-3.92L380.25,169.7l-18.32,10.39l109.65,64.48
	L478.62,240.45z"/>
<path class="st16" d="M361.72,180.13l-0.9,126.89l109.86,64.63l0.9-126.89L361.72,180.13z"/>
<path class="st3" d="M452.76,293.15c-1.59,1.62-2.77,3.59-3.45,5.76c-2.46,7.57,2.51,14.42,3.3,15.42l18.18,10.79l22.56-12.75
	l0.15-21.18l-22.56,12.75L452.76,293.15z"/>
<path class="st13" d="M491.5,291.12l-20.74,11.76l1,0.61l20.94-11.76L491.5,291.12z"/>
<path class="st13" d="M472.17,303.33l-1.21,0.59l-18.17-10.78l1.01-0.59L472.17,303.33z"/>
<path class="st13" d="M457.86,312.62c-1.44-0.6-2.64-1.67-3.39-3.04c-0.78-1.41-1.12-3.01-0.97-4.61c0.08-0.47,0.27-0.91,0.55-1.29
	c0.28-0.38,0.65-0.69,1.07-0.9c0.41-0.27,0.89-0.43,1.38-0.46c0.49-0.03,0.99,0.07,1.43,0.29c1.44,0.6,2.64,1.67,3.39,3.04
	c0.79,1.4,1.13,3.01,0.97,4.61c-0.08,0.47-0.27,0.91-0.55,1.29c-0.28,0.38-0.65,0.69-1.07,0.9c-0.41,0.27-0.89,0.43-1.38,0.46
	C458.79,312.94,458.3,312.84,457.86,312.62z"/>
</svg>
