<svg id="Layer_1" data-name="Layer 1" xmlns="http://www.w3.org/2000/svg" viewBox="0 0 411.02 70.87"><defs><style>.cls-1,.cls-2{}.cls-1{fill-rule:evenodd;}</style></defs><path class="cls-1" d="M101.43,49.29A13.86,13.86,0,1,0,87.57,35.44a13.87,13.87,0,0,0,13.86,13.85Z"/><path class="cls-1" d="M34.17,57.38a21.95,21.95,0,1,1,19-32.92L63.3,18.61a33.63,33.63,0,1,0,0,33.64L53.17,46.41a21.92,21.92,0,0,1-19,11Z"/><path class="cls-1" d="M45.42,43.51c6.43-8.93,20.79-6,24.59,3.94a33.63,33.63,0,1,0,0-23.93,14.27,14.27,0,0,1-24.74,3.56,13.87,13.87,0,1,0,.19,16.43Zm56,13.87a21.95,21.95,0,1,1,21.94-21.94,22,22,0,0,1-21.94,21.94Z"/><path class="cls-2" d="M202.21,35.46q0-10.39,5.79-16.18t16.12-5.79q10.6,0,16.33,5.69t5.73,15.93c0,5-.83,9-2.5,12.21a17.94,17.94,0,0,1-7.24,7.41,24,24,0,0,1-11.8,2.65,27.19,27.19,0,0,1-11.88-2.29,17.86,17.86,0,0,1-7.63-7.24A24,24,0,0,1,202.21,35.46Zm13.11.06q0,6.42,2.39,9.24a9,9,0,0,0,13,.05q2.31-2.75,2.32-9.87,0-6-2.42-8.76a8.27,8.27,0,0,0-6.56-2.76,8,8,0,0,0-6.37,2.81Q215.32,29,215.32,35.52Z"/><path class="cls-2" d="M259.26,14.21h12.25l16,23.48V14.21h12.36V56.65H287.49l-15.9-23.3v23.3H259.26Z"/><path class="cls-2" d="M342.11,14.21H355.2V39.5A21.07,21.07,0,0,1,354,46.6a15.32,15.32,0,0,1-3.67,5.85A14.66,14.66,0,0,1,345.09,56a26.49,26.49,0,0,1-9.17,1.42,57.59,57.59,0,0,1-6.76-.44A17.65,17.65,0,0,1,323,55.22a15.38,15.38,0,0,1-4.5-3.66,13.39,13.39,0,0,1-2.79-4.89,25.37,25.37,0,0,1-1.22-7.17V14.21h13.09V40.1a7.4,7.4,0,0,0,1.92,5.42,8.28,8.28,0,0,0,10.66,0,7.38,7.38,0,0,0,1.92-5.45Z"/><path class="cls-2" d="M369.9,14.21h12.24l16,23.48V14.21h12.37V56.65H398.12l-15.89-23.3v23.3H369.9Z"/><path class="cls-2" d="M180.06,39.28a13.09,13.09,0,0,1-2.79,6.14,8.44,8.44,0,0,1-11.71-.5q-2.15-2.62-2.14-9.67a23.27,23.27,0,0,1,.48-5.07H150.66a33.46,33.46,0,0,0-.39,5.15q0,7.91,3.19,13A17.91,17.91,0,0,0,161,55.37a27.27,27.27,0,0,0,11.31,2,23.1,23.1,0,0,0,9.39-1.65,15.78,15.78,0,0,0,6.18-4.9,21.14,21.14,0,0,0,3.65-8.07Z"/><path class="cls-2" d="M172,23.3a7.75,7.75,0,0,1,3.57.81,7.65,7.65,0,0,1,2.69,2.32,9.85,9.85,0,0,1,1.27,2.84l11.58-2.58q-2.22-6.72-6.82-10c-3.05-2.16-7.26-3.24-12.6-3.24-.63,0-1.23,0-1.83.06v10A9.16,9.16,0,0,1,172,23.3Z"/></svg>