<svg version="1.1" id="Layer_1" xmlns="http://www.w3.org/2000/svg" x="0" y="0" viewBox="0 0 512 512" xml:space="preserve"><style>.st0{fill:#fff}</style><path class="st0" d="M310.4 241c-17.1 0-30.8 13.9-31 31.3-.2 17.7 13.1 31.8 30.1 32 16.9.3 30.8-13.7 31.1-31.2.4-17.2-13.6-32.1-30.2-32.1zM200.9 241c-17.2-.2-31.3 14-31.4 31.6-.1 17.3 13.7 31.7 30.6 31.8 17 0 30.6-13.9 30.7-31.5 0-17.5-13.3-31.7-29.9-31.9z"/><path class="st0" d="M256 0C114.6 0 0 114.6 0 256s114.6 256 256 256 256-114.6 256-256S397.4 0 256 0zm171.6 336.4c-23.2 24-51.9 35.6-84.8 37.6-3.5.2-5.9-.6-8.1-3.4-5-6.6-10.4-12.9-16.1-20 20.1-6.5 37.8-15.3 51.1-31.4-76.1 44-152.3 40.1-228.8 1.1 12.8 16.3 30 25.4 49.4 31.8-6.1 7.6-12 15-18 22.2-.8.9-2.6 1.5-3.9 1.4-30.1-1.3-57-10.4-79-32-6.2-6-8.9-12.5-8.5-21.6 2.6-53.6 16.9-103.9 41.3-151.6 1.3-2.5 3.4-4.9 5.7-6.5 22.4-15.5 46.9-25.2 74.1-27.6 2.8-.2 5.7.5 8.5.8-.1.8-.1 1.6-.2 2.4-26.3 6.8-51.3 16.4-72.7 33.8 78.1-34 155.7-33.3 233.3 2.1-7.8-9.1-31.1-20.5-70.1-35.7 2.3-1 4.7-3 7-2.9 29 1.5 54.7 12.1 78.2 28.8 1.3.9 2.2 2.5 3 3.9 25.6 49.6 40.6 102 42.1 158.1.1 3.6-1 6.1-3.5 8.7z"/></svg>