<svg width="302" height="363" fill="none" xmlns="http://www.w3.org/2000/svg"><path d="M151.125 101.758L.789 188.725l150.336 86.76 150.335-86.76-150.335-86.967z" fill="#F9F9F9"/><path d="M.79 188.725v86.76l150.335 86.966v-86.966L.789 188.725z" fill="#C1D7E5"/><path d="M301.46 188.725v86.76l-150.335 86.966v-86.966l150.335-86.76z" fill="#D9E6ED"/><path d="M20.916 217.508l-2.875-1.645v43.38l2.875 1.85v-43.585zM28.72 222.03l-3.08-1.644v43.38l3.08 1.85V222.03zM40.427 228.61l-4.107-2.467v43.586l4.107 2.261v-43.38z" fill="#2D2D2D"/><path d="M174.127 302.007a8.219 8.219 0 00-4.313 3.495 10.696 10.696 0 00-1.232 5.757 4.73 4.73 0 002.053 2.878 4.105 4.105 0 003.492.206 9.254 9.254 0 005.34-9.252 4.12 4.12 0 00-2.054-2.878 3.085 3.085 0 00-1.613-.58 3.085 3.085 0 00-1.673.374zM174.127 318.455a9.052 9.052 0 00-5.545 9.457 4.728 4.728 0 002.054 2.878 5.338 5.338 0 003.491.206 10.882 10.882 0 004.107-3.907 9.672 9.672 0 001.233-5.551 3.91 3.91 0 00-3.601-3.364 3.905 3.905 0 00-1.739.281z" fill="#44914F"/><path d="M275.583 263.972l-79.686 46.053v9.046l79.686-46.053v-9.046z" fill="#303030"/><path d="M150.335 0L0 86.966l150.335 86.761 150.336-86.76L150.335 0z" fill="#F9F9F9"/><path d="M0 86.966v86.761l150.335 86.966v-86.966L0 86.967z" fill="#C1D7E5"/><path d="M300.671 86.966v86.761l-150.336 86.966v-86.966l150.336-86.76z" fill="#D9E6ED"/><path d="M20.127 115.749l-2.875-1.645v43.381l2.875 1.85v-43.586zM27.931 120.272l-3.08-1.645v43.381l3.08 1.85v-43.586zM39.638 126.851l-4.108-2.467v43.586l4.108 2.262v-43.381z" fill="#2D2D2D"/><path d="M173.338 200.249a8.21 8.21 0 00-4.313 3.495 10.702 10.702 0 00-1.233 5.756 4.73 4.73 0 002.054 2.879 4.1 4.1 0 003.492.205 9.254 9.254 0 005.339-9.251 4.115 4.115 0 00-2.053-2.879 3.075 3.075 0 00-3.286-.205zM173.338 216.696a9.037 9.037 0 00-4.368 3.792 9.064 9.064 0 00-1.178 5.666 4.73 4.73 0 002.054 2.878 5.334 5.334 0 003.492.205 10.893 10.893 0 004.107-3.906 9.667 9.667 0 001.232-5.551 3.904 3.904 0 00-5.339-3.084z" fill="#44914F"/><path d="M274.793 162.214l-79.686 46.053v9.046l79.686-46.053v-9.046z" fill="#303030"/></svg>