<svg xmlns="http://www.w3.org/2000/svg" xmlns:xlink="http://www.w3.org/1999/xlink" viewBox="0 0 186 275.3">
  <defs>
    <style>
      .cls-1 {
        isolation: isolate;
      }

      .cls-2 {
        fill: #f5faff;
      }

      .cls-3 {
        fill: #edcce6;
      }

      .cls-4 {
        fill: #c1d7e5;
      }

      .cls-5 {
        fill: #d9e6ed;
      }

      .cls-6 {
        fill: #f5fbfc;
      }

      .cls-7 {
        fill: #cfdfe8;
      }

      .cls-8 {
        fill: #2d2d2d;
      }

      .cls-9 {
        fill: #44914f;
      }

      .cls-10 {
        fill: url(#linear-gradient);
      }

      .cls-11 {
        fill: #303030;
      }

      .cls-12 {
        fill: url(#linear-gradient-2);
      }

      .cls-13 {
        fill: #edeeed;
      }

      .cls-14 {
        fill: #cdd1cd;
      }

      .cls-15 {
        fill: #ededed;
        opacity: 0.5;
        mix-blend-mode: multiply;
      }
    </style>
    <linearGradient id="linear-gradient" x1="93" y1="126.91" x2="93" y2="174.48" gradientUnits="userSpaceOnUse">
      <stop offset="0" stop-color="#c1d7e5"/>
      <stop offset="0.36" stop-color="#d4e3ed"/>
      <stop offset="1" stop-color="#fff"/>
    </linearGradient>
    <linearGradient id="linear-gradient-2" x1="128.02" y1="133.2" x2="55.69" y2="7.94" gradientUnits="userSpaceOnUse">
      <stop offset="0" stop-color="#fff"/>
      <stop offset="1" stop-color="#e6e7e8"/>
    </linearGradient>
  </defs>
  <g class="cls-1">
    <g id="Light">
      <g>
        <polygon class="cls-2" points="93 263.3 184.6 210.4 93 157.6 1.4 210.4 93 263.3"/>
        <polygon class="cls-3" points="93 125.9 19.8 168.2 93 210.4 166.2 168.2 93 125.9"/>
        <polygon class="cls-4" points="19.8 168.2 19.8 210.4 93 252.7 93 210.4 19.8 168.2"/>
        <polygon class="cls-5" points="166.2 168.2 166.2 210.4 93 252.7 93 210.4 166.2 168.2"/>
        <polygon class="cls-4" points="1.4 210.4 1.4 221 93 273.8 93 263.3 1.4 210.4"/>
        <polygon class="cls-5" points="184.6 210.4 184.6 221 93 273.8 93 263.3 184.6 210.4"/>
        <polygon class="cls-2" points="93 199.9 184.6 147 93 94.2 1.4 147 93 199.9"/>
        <polygon class="cls-4" points="1.4 147 1.4 157.6 93 210.4 93 199.9 1.4 147"/>
        <polygon class="cls-5" points="184.6 147 184.6 157.6 93 210.4 93 199.9 184.6 147"/>
        <polygon class="cls-6" points="93 104.8 19.8 147 93 189.3 166.2 147 93 104.8"/>
        <polygon class="cls-7" points="93 104.8 93 115.3 28.9 152.3 19.8 147 93 104.8"/>
        <polygon class="cls-4" points="93 104.8 93 115.3 157.1 152.3 166.2 147 93 104.8"/>
        <g>
          <polygon class="cls-8" points="29.6 182.2 28.2 181.4 28.2 202.5 29.6 203.4 29.6 182.2"/>
          <polygon class="cls-8" points="33.4 184.4 31.9 183.6 31.9 204.7 33.4 205.6 33.4 184.4"/>
          <polygon class="cls-8" points="39.1 187.6 37.1 186.4 37.1 207.6 39.1 208.7 39.1 187.6"/>
        </g>
        <path class="cls-9" d="M104.2,223.3a4,4,0,0,0-2.1,1.7,5.2,5.2,0,0,0-.6,2.8,2.3,2.3,0,0,0,1,1.4,2,2,0,0,0,1.7.1,4.5,4.5,0,0,0,2.6-4.5,2,2,0,0,0-1-1.4A1.5,1.5,0,0,0,104.2,223.3Z"/>
        <path class="cls-9" d="M104.2,231.3a4.4,4.4,0,0,0-2.7,4.6,2.3,2.3,0,0,0,1,1.4,2.6,2.6,0,0,0,1.7.1,5.3,5.3,0,0,0,2-1.9,4.7,4.7,0,0,0,.6-2.7,1.9,1.9,0,0,0-2.6-1.5Z"/>
        <path class="cls-10" d="M64.9,167.4a60,60,0,0,0,28.2,7.1,59.1,59.1,0,0,0,28.1-7.1,19.6,19.6,0,0,0,9.4-16.3c0-9.7-8.4-15.6-9.4-16.2a53.5,53.5,0,0,0-56.3,0c-.9.6-9.6,6.6-9.5,16.3S61.5,165.6,64.9,167.4Z"/>
        <polygon class="cls-11" points="153.6 204.8 114.8 227.2 114.8 231.6 153.6 209.2 153.6 204.8"/>
        <g>
          <path class="cls-12" d="M66.3,1.8C63.5,36.2,60.6,70.6,57.8,105l59.6,34.3,8.5-103.1Z"/>
          <polygon class="cls-13" points="66.3 1.8 66.8 1.5 126.4 35.9 125.9 36.2 66.3 1.8"/>
          <polygon class="cls-13" points="126.4 35.9 125.9 36.2 117.4 139.3 117.9 139.1 126.4 35.9"/>
          <g>
            <path class="cls-14" d="M119.4,45.3,70.2,16.9a2.8,2.8,0,0,1-.1.9l49.3,28.4Z"/>
            <path class="cls-14" d="M118.6,55.2,69.4,26.8c0,.3-.1.6-.1.9l49.2,28.4A2.8,2.8,0,0,0,118.6,55.2Z"/>
            <path class="cls-14" d="M117.8,65.1,68.6,36.7c0,.3-.1.6-.1.9L117.7,66C117.7,65.7,117.8,65.4,117.8,65.1Z"/>
            <path class="cls-14" d="M116.8,75,67.6,46.6c0,.3-.1.6-.1.9l49.2,28.4A2.8,2.8,0,0,0,116.8,75Z"/>
            <path class="cls-14" d="M116.2,85,66.9,56.6v.9l49.2,28.4A2.8,2.8,0,0,1,116.2,85Z"/>
            <path class="cls-14" d="M115.4,94.8,66.1,66.4v.9l49.2,28.4A2.8,2.8,0,0,1,115.4,94.8Z"/>
            <path class="cls-14" d="M114.5,104.7,65.3,76.3a2.8,2.8,0,0,1-.1.9l49.3,28.4Z"/>
            <path class="cls-14" d="M113.7,114.6,64.5,86.2c0,.3-.1.6-.1.9l49.2,28.4A2.8,2.8,0,0,0,113.7,114.6Z"/>
          </g>
          <path class="cls-14" d="M105.2,126.4h-.3c-7.2-4.6-7.7-6.4-7.4-7.5s3.5-1.9,5.3-1.9a1.6,1.6,0,0,0-.8-1,3.1,3.1,0,0,0-2.5-.2,12.4,12.4,0,0,1-4.9-.3,4.2,4.2,0,0,1-2.5-1.7s-1.2-1.7-.5-2.8,2.2-1.3,4-.3a.5.5,0,0,1,.2.6.7.7,0,0,1-.7.2c-1.3-.7-2.4-.5-2.7,0s.2,1.4.5,1.8a3.2,3.2,0,0,0,2,1.3,8.8,8.8,0,0,0,4.5.2,4.8,4.8,0,0,1,3.1.4,2.6,2.6,0,0,1,1.3,1.8h.2c3.7.1,7.6,1.1,8.3,3.1a2.8,2.8,0,0,1-1,2.7c-1.5,1.2-4.4.4-6.2-1.2a5.6,5.6,0,0,1-1.9-3.5c0-.1-.1-.1-.1-.2-2.8,0-4.5.7-4.7,1.3s.2,2.1,7,6.4a.6.6,0,0,1,.2.7Zm-1.1-8.6a4.7,4.7,0,0,0,1.6,3c1.5,1.3,3.9,2.1,5,1.2a2.1,2.1,0,0,0,.7-1.8C111,119,107.9,117.9,104.1,117.8Z"/>
        </g>
        <path class="cls-15" d="M159.1,78.4h0a29.1,29.1,0,0,0,1.5-9.5c0-17.2-15-27.7-16.6-28.8a95.3,95.3,0,0,0-99.8,0c-1.6,1.1-16.9,11.7-16.9,28.9a31.3,31.3,0,0,0,3,13.3l27,74.1v.5h0a19.9,19.9,0,0,0,8.4,9.9,59.4,59.4,0,0,0,56.3,0,20.1,20.1,0,0,0,8.8-11.5Q144.5,118,158.2,81Z"/>
      </g>
    </g>
  </g>
</svg>
