<svg xmlns="http://www.w3.org/2000/svg" viewBox="0 0 186 275.3"><defs><linearGradient id="linear-gradient" x1="93" y1="126.91" x2="93" y2="174.48" gradientUnits="userSpaceOnUse"><stop offset="0" stop-color="#c1d7e5"/><stop offset=".36" stop-color="#d4e3ed"/><stop offset="1" stop-color="#fff"/></linearGradient><linearGradient id="linear-gradient-2" x1="128.02" y1="133.2" x2="55.69" y2="7.94" gradientUnits="userSpaceOnUse"><stop offset="0" stop-color="#fff"/><stop offset="1" stop-color="#e6e7e8"/></linearGradient><style>.cls-2{fill:#f5faff}.cls-4{fill:#c1d7e5}.cls-5{fill:#d9e6ed}.cls-8{fill:#2d2d2d}.cls-9{fill:#44914f}.cls-13{fill:#edeeed}.cls-14{fill:#cdd1cd}</style></defs><g style="isolation:isolate"><g id="Light"><path class="cls-2" d="M93 263.3l91.6-52.9L93 157.6 1.4 210.4 93 263.3z"/><path fill="#edcce6" d="M93 125.9l-73.2 42.3L93 210.4l73.2-42.2L93 125.9z"/><path class="cls-4" d="M19.8 168.2v42.2L93 252.7v-42.3l-73.2-42.2z"/><path class="cls-5" d="M166.2 168.2v42.2L93 252.7v-42.3l73.2-42.2z"/><path class="cls-4" d="M1.4 210.4V221L93 273.8v-10.5L1.4 210.4z"/><path class="cls-5" d="M184.6 210.4V221L93 273.8v-10.5l91.6-52.9z"/><path class="cls-2" d="M93 199.9l91.6-52.9L93 94.2 1.4 147 93 199.9z"/><path class="cls-4" d="M1.4 147v10.6L93 210.4v-10.5L1.4 147z"/><path class="cls-5" d="M184.6 147v10.6L93 210.4v-10.5l91.6-52.9z"/><path fill="#f5fbfc" d="M93 104.8L19.8 147 93 189.3l73.2-42.3L93 104.8z"/><path fill="#cfdfe8" d="M93 104.8v10.5l-64.1 37-9.1-5.3L93 104.8z"/><path class="cls-4" d="M93 104.8v10.5l64.1 37 9.1-5.3L93 104.8z"/><path class="cls-8" d="M29.6 182.2l-1.4-.8v21.1l1.4.9v-21.2zM33.4 184.4l-1.5-.8v21.1l1.5.9v-21.2zM39.1 187.6l-2-1.2v21.2l2 1.1v-21.1z"/><path class="cls-9" d="M104.2 223.3a4 4 0 00-2.1 1.7 5.2 5.2 0 00-.6 2.8 2.3 2.3 0 001 1.4 2 2 0 001.7.1 4.5 4.5 0 002.6-4.5 2 2 0 00-1-1.4 1.5 1.5 0 00-1.6-.1zM104.2 231.3a4.4 4.4 0 00-2.7 4.6 2.3 2.3 0 001 1.4 2.6 2.6 0 001.7.1 5.3 5.3 0 002-1.9 4.7 4.7 0 00.6-2.7 1.9 1.9 0 00-2.6-1.5z"/><path d="M64.9 167.4a60 60 0 0028.2 7.1 59.1 59.1 0 0028.1-7.1 19.6 19.6 0 009.4-16.3c0-9.7-8.4-15.6-9.4-16.2a53.5 53.5 0 00-56.3 0c-.9.6-9.6 6.6-9.5 16.3s6.1 14.4 9.5 16.2z" fill="url(#linear-gradient)"/><path fill="#303030" d="M153.6 204.8l-38.8 22.4v4.4l38.8-22.4v-4.4z"/><g><path d="M66.3 1.8c-2.8 34.4-5.7 68.8-8.5 103.2l59.6 34.3 8.5-103.1z" fill="url(#linear-gradient-2)"/><path class="cls-13" d="M66.3 1.8l.5-.3 59.6 34.4-.5.3L66.3 1.8z"/><path class="cls-13" d="M126.4 35.9l-.5.3-8.5 103.1.5-.2 8.5-103.2z"/><path class="cls-14" d="M119.4 45.3L70.2 16.9a2.8 2.8 0 01-.1.9l49.3 28.4zM118.6 55.2L69.4 26.8c0 .3-.1.6-.1.9l49.2 28.4a2.8 2.8 0 00.1-.9zM117.8 65.1L68.6 36.7c0 .3-.1.6-.1.9L117.7 66c0-.3.1-.6.1-.9zM116.8 75L67.6 46.6c0 .3-.1.6-.1.9l49.2 28.4a2.8 2.8 0 00.1-.9zM116.2 85L66.9 56.6v.9l49.2 28.4a2.8 2.8 0 01.1-.9zM115.4 94.8L66.1 66.4v.9l49.2 28.4a2.8 2.8 0 01.1-.9zM114.5 104.7L65.3 76.3a2.8 2.8 0 01-.1.9l49.3 28.4zM113.7 114.6L64.5 86.2c0 .3-.1.6-.1.9l49.2 28.4a2.8 2.8 0 00.1-.9zM105.2 126.4h-.3c-7.2-4.6-7.7-6.4-7.4-7.5s3.5-1.9 5.3-1.9a1.6 1.6 0 00-.8-1 3.1 3.1 0 00-2.5-.2 12.4 12.4 0 01-4.9-.3 4.2 4.2 0 01-2.5-1.7s-1.2-1.7-.5-2.8 2.2-1.3 4-.3a.5.5 0 01.2.6.7.7 0 01-.7.2c-1.3-.7-2.4-.5-2.7 0s.2 1.4.5 1.8a3.2 3.2 0 002 1.3 8.8 8.8 0 004.5.2 4.8 4.8 0 013.1.4 2.6 2.6 0 011.3 1.8h.2c3.7.1 7.6 1.1 8.3 3.1a2.8 2.8 0 01-1 2.7c-1.5 1.2-4.4.4-6.2-1.2a5.6 5.6 0 01-1.9-3.5c0-.1-.1-.1-.1-.2-2.8 0-4.5.7-4.7 1.3s.2 2.1 7 6.4a.6.6 0 01.2.7zm-1.1-8.6a4.7 4.7 0 001.6 3c1.5 1.3 3.9 2.1 5 1.2a2.1 2.1 0 00.7-1.8c-.4-1.2-3.5-2.3-7.3-2.4z"/></g><path d="M159.1 78.4a29.1 29.1 0 001.5-9.5c0-17.2-15-27.7-16.6-28.8a95.3 95.3 0 00-99.8 0C42.6 41.2 27.3 51.8 27.3 69a31.3 31.3 0 003 13.3l27 74.1v.5a19.9 19.9 0 008.4 9.9 59.4 59.4 0 0056.3 0 20.1 20.1 0 008.8-11.5Q144.5 118 158.2 81z" style="mix-blend-mode:multiply" fill="#ededed" opacity=".5"/></g></g></svg>