<svg id="Layer_1" data-name="Layer 1" xmlns="http://www.w3.org/2000/svg" viewBox="0 0 393.8 233.5"><defs><linearGradient id="linear-gradient" x1="176.73" y1="206.11" x2="176.73" y2="-9.96" gradientTransform="matrix(1 0 0 -1 0 222.51)" gradientUnits="userSpaceOnUse"><stop offset="0" stop-color="#ededed" stop-opacity="0"/><stop offset="1" stop-color="#4969ac"/></linearGradient><style>.cls-1{fill:#f4dc71}.cls-2{fill:#efe9a0}.cls-3{fill:#f0da88}.cls-4{fill:#718fc3}.cls-5{fill:#d9e6ed}.cls-6{fill:#4969ac}</style></defs><path class="cls-1" d="M254.1 35.9l.9-.8 1-1.3-.2-.2a14.2 14.2 0 001.3-9.4 28.7 28.7 0 00-10.2-14.5 32.3 32.3 0 00-17.6-6.3 17.8 17.8 0 00-10.2 3.1l-.2-.2-1.2 1.2-.7.9-.5.7h-.1a15.1 15.1 0 00-2.5 5.5 10.6 10.6 0 00.3 5.6 31 31 0 0010.5 14 34.6 34.6 0 0017.2 6.7 14.3 14.3 0 006.4-1 14.6 14.6 0 005.5-3.6l.4-.2z"/><path class="cls-2" d="M216.1 17.8a30.5 30.5 0 0010.6 14 35.8 35.8 0 0017.2 6.7 14.9 14.9 0 006.5-1.1 15.5 15.5 0 005.6-3.8c4.6-5 3.1-11.2 3-11.8a28.3 28.3 0 00-10.2-14.5A34 34 0 00231.2 1c-.7 0-7.7-.1-12.2 4.9s-3.7 9.7-2.9 11.9z"/><path class="cls-3" d="M218.3 17.9a27.1 27.1 0 009.5 12.7 32.2 32.2 0 0015.4 6 13.4 13.4 0 005.9-1 13.5 13.5 0 005.1-3.4c4-4.5 2.8-10.1 2.7-10.7a25.6 25.6 0 00-9.2-13 29.9 29.9 0 00-15.9-5.6c-.6 0-6.9-.2-11 4.4a13 13 0 00-2.7 5.2 9.9 9.9 0 00.2 5.4z"/><path class="cls-1" d="M43.8 195.6l.9-.9 1-1.3-.2-.2a14.7 14.7 0 001.3-9.8 29 29 0 00-10.6-15.1 33.7 33.7 0 00-18.3-6.5 18.7 18.7 0 00-10.5 3.1l-.3-.2-1.2 1.3-.7.9-.6.8a14 14 0 00-2.6 5.7 12.6 12.6 0 00.2 5.8 33 33 0 0011 14.6 37.6 37.6 0 0017.8 6.9 15.6 15.6 0 006.7-1 18.4 18.4 0 005.7-3.8h.4z"/><path class="cls-2" d="M4.2 176.7a32.2 32.2 0 0011 14.5 36.7 36.7 0 0017.9 7 14.8 14.8 0 006.8-1.1 16.7 16.7 0 005.8-4 13.8 13.8 0 003-12.3 28.4 28.4 0 00-10.5-15 34.5 34.5 0 00-18.3-6.5c-.7 0-8-.1-12.7 5.1s-3.8 10-3 12.3z"/><path class="cls-3" d="M6.5 176.9a28.3 28.3 0 009.9 13.1 32.6 32.6 0 0016 6.2 13.1 13.1 0 006.1-1 14.7 14.7 0 005.3-3.6c4.2-4.6 2.9-10.4 2.8-11a27.3 27.3 0 00-9.5-13.6 33.4 33.4 0 00-16.5-5.8c-.7 0-7.3-.1-11.5 4.6a13.3 13.3 0 00-2.8 5.4 10 10 0 00.2 5.7z"/><path class="cls-1" d="M96.3 70.6l.7 1.1 1.1 1.3.2-.2a14.6 14.6 0 009.3 3.3 29.2 29.2 0 0017-7.2 34.2 34.2 0 0010.2-16.6 19 19 0 00-.9-10.9l.2-.2-1-1.5-.7-.9-.6-.7a13.9 13.9 0 00-5.1-3.7 10.3 10.3 0 00-5.7-1 33.9 33.9 0 00-16.6 7.7 37 37 0 00-10.5 16 15.1 15.1 0 00-.3 6.7 14.8 14.8 0 002.5 6.4v.4z"/><path class="cls-2" d="M123 35.8a32.5 32.5 0 00-16.5 7.8 36.2 36.2 0 00-10.5 16 16 16 0 00-.4 6.9 18.7 18.7 0 002.7 6.5 13.6 13.6 0 0011.4 5.5 28.2 28.2 0 0016.9-7.1 34.8 34.8 0 0010.2-16.5c.2-.8 1.8-7.9-2.3-13.6s-9.1-5.8-11.5-5.5z"/><path class="cls-3" d="M122.4 38a28.3 28.3 0 00-14.9 7A33.7 33.7 0 0098 59.4a16 16 0 00-.3 6.2 16.2 16.2 0 002.5 5.9 12.9 12.9 0 0010.2 5 26.7 26.7 0 0015.2-6.5 32.2 32.2 0 009.2-14.9c.1-.7 1.6-7.1-2.2-12.2a13.5 13.5 0 00-4.7-3.9 10.8 10.8 0 00-5.5-1z"/><path class="cls-1" d="M356.1 126.5l.8.9 1.1 1.1h.2a14.3 14.3 0 009.1 2 28.4 28.4 0 0014.9-8.7 31.1 31.1 0 007.6-16.6 16.9 16.9 0 00-2.1-10.2l.2-.2-1-1.2-.8-.8-.7-.6a12.5 12.5 0 00-5.1-2.9 11.4 11.4 0 00-5.5-.2 31.5 31.5 0 00-14.5 9 35 35 0 00-8 16.1 15 15 0 00.5 6.3 14.5 14.5 0 003.1 5.7v.3z"/><path class="cls-2" d="M377 91.1a30.4 30.4 0 00-14.5 9.1 35 35 0 00-8 16.1 16.1 16.1 0 00.5 6.5 16.8 16.8 0 003.3 5.8c4.4 4.8 10.5 3.9 11.2 3.8a27.2 27.2 0 0014.9-8.6 33 33 0 007.6-16.6c.1-.7.8-7.5-3.7-12.3s-9.1-4.4-11.3-3.8z"/><path class="cls-3" d="M376.7 93.2a26.7 26.7 0 00-13.1 8.2 31.5 31.5 0 00-7.2 14.5 12.8 12.8 0 00.5 5.8 14.8 14.8 0 002.9 5.2 11.9 11.9 0 0010.1 3.5 24.5 24.5 0 0013.4-7.8 29.2 29.2 0 006.8-14.9c.1-.6.7-6.8-3.4-11.1a10.8 10.8 0 00-4.8-3.1 9.2 9.2 0 00-5.2-.3z"/><path class="cls-4" d="M121.5 103.9l-4.9-4-2.2 13a23.8 23.8 0 015.1 2.4zM110 110.7l-5-4.3-2.3 13 5.2 2.4zM92.6 112.8l-5.1-4.3-2.2 13.1 5.2 2.7z"/><path class="cls-5" d="M116.6 99.9l-5.5 2-2.4 12.7 5.7-1.7zM105 106.4l-5.5 2-2.3 13 5.5-2z"/><path class="cls-5" d="M212.2 75.6l-132.4 48-2.5 13.5 133.5-48.4a30.6 30.6 0 011.4-13.1z"/><path class="cls-6" d="M217.6 92.7l-7.2-3.9-133.1 48.3 5 4.2c45-16.3 90.1-32.2 135.3-48.6z"/><path class="cls-5" d="M87.5 108.5l-5.5 2-2.2 13.1 5.5-2z"/><path class="cls-4" d="M217.5 85.9A46.7 46.7 0 01232 56.2 60.2 60.2 0 01249.7 44a32.2 32.2 0 0116.6-4.4 23 23 0 0111.5 2.7l-3.9-4.3a35.3 35.3 0 00-15.5-4.3c-15.7-.5-26.4 10.7-32.1 16.5-12.5 12.6-17 28-16.1 36l2.7 9.4a11.8 11.8 0 005.1 6.5l3.7 1.7a39.9 39.9 0 01-4.2-17.9z"/><path class="cls-6" d="M283.1 96.4c11.8-14.5 14.2-31.4 13.3-38a47.1 47.1 0 00-5.2-15.6l-3.1-4.3a60.7 60.7 0 00-8.8-7.1l2.2 3-5.8-2.1-4.9-.8c-2-.1-8-.6-8.3.7s12.8 3.3 19.2 11.3-1.9 34.3-2.4 36c-10.7 19.9-36.8 37.8-54.9 29.8a27.9 27.9 0 01-14.3-17 24.7 24.7 0 002.1 12.3l.9 2.3-4.9-3.9a38.6 38.6 0 008.7 10.2 36.4 36.4 0 0023.3 6.4 53 53 0 0012.5-3l6.5-2.4 4.2-2.2a78.4 78.4 0 0019.7-15.6z"/><path class="cls-5" d="M273.8 94.5a60.4 60.4 0 0016-24.5 35.7 35.7 0 003-16.4 26.9 26.9 0 00-2.3-10.8 28.1 28.1 0 00-6.4-8.9 32.8 32.8 0 00-23.8-6.7 35.6 35.6 0 00-15 3.6 64.2 64.2 0 00-25.6 18.4A65.8 65.8 0 00203.6 86a25.2 25.2 0 002 12.4 26.7 26.7 0 007.6 10 33 33 0 0023.3 5.3 13.1 13.1 0 012.2-.4 75.8 75.8 0 0014.8-4.2 60.2 60.2 0 0020.3-14.6zm-35.5 9a23.7 23.7 0 01-18.7-3.1 22.5 22.5 0 01-5.8-7.9 21.2 21.2 0 01-1.7-9.7A49.7 49.7 0 01225 54.1a60.1 60.1 0 0129.6-17.9 22.4 22.4 0 0110.3 0 21.8 21.8 0 019.2 4.4 23.3 23.3 0 017.1 15.3 28.8 28.8 0 01-1.5 10.9 21.5 21.5 0 01-2.6 5.8 50.6 50.6 0 01-9.1 13.3c-4.8 5.1-14.4 15.9-29.7 17.6z"/><path d="M319.7 103a26.4 26.4 0 003.3-12.9c0-23.3-32.9-37.5-36.4-39-33-12.5-70.9-19.2-109.5-19.2s-76.6 6.7-109.5 19.2c-3.5 1.5-37.1 15.8-37.1 39.2 0 6.2 2.2 12.3 6.6 18l59.2 100.4v.7c3.6 5.6 10 10.4 18.4 13.4a195.6 195.6 0 0061.8 9.7 195.1 195.1 0 0061.8-9.7c9.3-3.5 16.2-9 19.3-15.5 20-33.8 40.1-67.3 60.1-100.8z" fill="url(#linear-gradient)" opacity=".5"/></svg>