<svg id="Layer_1" data-name="Layer 1" xmlns="http://www.w3.org/2000/svg" viewBox="0 0 454.4 325.4">
  <defs>
    <style>
      .cls-1 {
        fill: #f4dc71;
      }

      .cls-2 {
        fill: #efe9a0;
      }

      .cls-3 {
        fill: #f0da88;
      }

      .cls-4 {
        fill: #d9e6ed;
      }

      .cls-5 {
        fill: #64a0ff;
      }

      .cls-6 {
        fill: #cad7ea;
      }

      .cls-7 {
        fill: #e7ebf2;
      }

      .cls-8 {
        fill: #eff1f4;
      }

      .cls-9 {
        fill: #9ab5db;
      }

      .cls-10 {
        fill: #84baa5;
      }

      .cls-11 {
        fill: #c2dbf2;
      }

      .cls-12 {
        fill: #718fc3;
      }

      .cls-13 {
        fill: #afbed3;
      }

      .cls-14 {
        fill: #c1d7e5;
      }

      .cls-15 {
        fill: #a5d0bc;
      }

      .cls-16 {
        fill: #c7e5d3;
      }

      .cls-17 {
        fill: #62a58e;
      }
    </style>
  </defs>
  <g id="Coins">
    <g>
      <path class="cls-1" d="M368.8,64.3l-1.1-1L366,61.8l-.3.3c-6.1-3.3-12.9-1.9-13.8-1.7a50.1,50.1,0,0,0-36,38c-.1.8-1.2,8,2.5,13.9l-.3.4,1.6,1.6a5.2,5.2,0,0,1,1.1,1h0l1,.7h.1a18.4,18.4,0,0,0,15.9,3.1,55,55,0,0,0,36-38,17.8,17.8,0,0,0-4.6-16.3h0l-.2-.2v-.2Z"/>
      <path class="cls-2" d="M334.7,116.1a55.1,55.1,0,0,0,22.7-14.4,55.9,55.9,0,0,0,13.2-23.6,17.8,17.8,0,0,0-5-16.7c-5.7-5.4-15.9-4.3-16.9-4.1a49.8,49.8,0,0,0-36,38c-.2,1.1-1.6,10.7,5,16.9A16.5,16.5,0,0,0,334.7,116.1Z"/>
      <path class="cls-3" d="M335.3,113.2a50.1,50.1,0,0,0,20.5-13.1A51,51,0,0,0,367.7,79a16.7,16.7,0,0,0-4.5-15.1c-5.1-4.9-14.3-3.9-15.3-3.7a45.3,45.3,0,0,0-32.3,34.3c-.2.8-1.5,9.6,4.4,15.1A14.8,14.8,0,0,0,335.3,113.2Z"/>
    </g>
    <g>
      <path class="cls-1" d="M407,223l-.9-1.1-1.2-1.4-.3.3a17.7,17.7,0,0,0-11.4-3,42,42,0,0,0-34.4,28,17.7,17.7,0,0,0,.5,11.9l-.2.3,1.1,1.5.9.9h0l.7.8h.1a15.3,15.3,0,0,0,13,4.4,46.3,46.3,0,0,0,34.4-27.9,15.3,15.3,0,0,0-2.1-14.3h0v-.2H407Z"/>
      <path class="cls-2" d="M372.5,262.6a45.8,45.8,0,0,0,20.7-9.6A47.8,47.8,0,0,0,407,234.7c1.1-2.7,1.9-9.4-2.4-14.5s-12.8-5.4-13.8-5.4a42.4,42.4,0,0,0-34.4,28c-.3.8-2.6,8.7,2.2,14.7A15.3,15.3,0,0,0,372.5,262.6Z"/>
      <path class="cls-3" d="M373.4,260.3a42.9,42.9,0,0,0,31-25.2,13.7,13.7,0,0,0-2.1-13.1c-4.4-5.3-11.6-4.8-12.5-4.8a38.3,38.3,0,0,0-30.9,25.2c-.2.7-2.3,7.8,2,13.2A14.1,14.1,0,0,0,373.4,260.3Z"/>
    </g>
    <g>
      <path class="cls-1" d="M446.4,175.2l1.1-1,1.3-1.4-.3-.3a18.6,18.6,0,0,0,1.8-12.3,45,45,0,0,0-12-21.2,44.3,44.3,0,0,0-21.4-11.7c-.7-.2-7.1-1.3-12.5,2l-.2-.3-1.5,1.4-.9,1h0l-.7.9H401a16.5,16.5,0,0,0-3,14.2,49.1,49.1,0,0,0,33.3,32.9,15.8,15.8,0,0,0,14.7-3.9h.5Z"/>
      <path class="cls-2" d="M400.7,143.7a49.6,49.6,0,0,0,12.7,20.6,46.7,46.7,0,0,0,20.8,12.2,16,16,0,0,0,15-4.1c5.7-5.7,4.1-14.2,3.9-15a44.5,44.5,0,0,0-12-21.2,45.3,45.3,0,0,0-21.3-11.7c-.9-.2-9.5-1.7-15.2,4A15.4,15.4,0,0,0,400.7,143.7Z"/>
      <path class="cls-3" d="M403.5,144.3a43.3,43.3,0,0,0,11.2,18.6,44,44,0,0,0,18.7,11,14.5,14.5,0,0,0,13.6-3.7c5-5.2,3.7-12.7,3.5-13.6a41,41,0,0,0-10.8-19.1A42.2,42.2,0,0,0,420.5,127c-.8-.1-8.6-1.5-13.7,3.8A14.2,14.2,0,0,0,403.5,144.3Z"/>
    </g>
  </g>
  <g id="Computer">
    <polygon class="cls-4" points="8.1 126.3 8.1 253.1 154.6 168.6 154.6 41.8 8.1 126.3"/>
    <polygon class="cls-5" points="147.7 158.4 147.7 52.3 17.7 127.4 17.7 233.4 147.7 158.4"/>
    <polygon class="cls-6" points="2.5 123.1 2.5 249.9 8.1 253.1 8.1 126.3 2.5 123.1"/>
    <path class="cls-7" d="M2.5,123.1l5.6,3.2L154.6,41.8l-5.5-3.2Z"/>
    <polygon class="cls-8" points="8.1 247.8 117.9 311.2 264.4 226.7 154.6 163.3 8.1 247.8"/>
    <polygon class="cls-6" points="8.1 247.8 8.1 258.4 117.9 321.8 117.9 311.2 8.1 247.8"/>
    <polygon class="cls-4" points="117.9 311.2 117.9 321.8 264.4 237.2 264.4 226.7 117.9 311.2"/>
    <polygon class="cls-4" points="138.2 169.1 28.3 232.5 37.4 237.8 147.5 174.4 138.2 169.1"/>
    <g>
      <polygon class="cls-9" points="119 205.5 113.9 202.6 104.7 207.9 109.9 210.8 119 205.5"/>
      <polygon class="cls-9" points="132.2 197.9 127.1 195 117.9 200.3 123.1 203.2 132.2 197.9"/>
      <polygon class="cls-9" points="146.5 189.7 141.4 186.7 132.2 192 137.3 195 146.5 189.7"/>
      <polygon class="cls-9" points="159.7 182.1 154.6 179.1 145.4 184.4 150.5 187.4 159.7 182.1"/>
      <polygon class="cls-9" points="91.6 221.4 86.5 218.4 77.3 223.7 82.4 226.7 91.6 221.4"/>
      <polygon class="cls-9" points="49.8 245.5 44.7 242.5 35.5 247.8 40.6 250.8 49.8 245.5"/>
      <polygon class="cls-9" points="104.7 213.8 99.6 210.8 90.5 216.1 95.6 219.1 104.7 213.8"/>
      <polygon class="cls-9" points="64.1 237.2 59 234.3 49.8 239.6 54.9 242.5 64.1 237.2"/>
      <polygon class="cls-9" points="77.3 229.6 72.2 226.7 63 231.9 68.1 234.9 77.3 229.6"/>
    </g>
    <g>
      <path class="cls-10" d="M44.7,253.1l9.1,5.3,14.7-8.5-9.2-5.3Z"/>
      <polygon class="cls-10" points="63 242.5 72.2 247.8 81.3 242.5 72.2 237.2 63 242.5"/>
      <polygon class="cls-10" points="76.6 234.7 85.7 240 94.9 234.7 85.7 229.4 76.6 234.7"/>
      <polygon class="cls-10" points="90.5 226.7 99.6 232 108.8 226.7 99.6 221.4 90.5 226.7"/>
      <polygon class="cls-10" points="104.3 218.7 113.5 223.9 122.7 218.7 113.5 213.4 104.3 218.7"/>
      <polygon class="cls-10" points="117.9 210.8 127.1 216.1 136.2 210.8 127.1 205.5 117.9 210.8"/>
      <polygon class="cls-10" points="131.8 202.8 141 208.1 150.1 202.8 141 197.5 131.8 202.8"/>
      <polygon class="cls-10" points="145.4 195 163.7 184.4 172.9 189.7 154.6 200.3 145.4 195"/>
      <polygon class="cls-10" points="58.6 261.1 67.7 266.4 86 255.8 76.9 250.5 58.6 261.1"/>
      <path class="cls-10" d="M95.2,240l-13.5,7.7,9.2,5.3,13.5-7.8Z"/>
      <path class="cls-10" d="M98.7,268.7l-13.5,7.8,9.2,5.2,13.4-7.7Z"/>
      <polygon class="cls-10" points="100.3 237 109.5 242.3 118.6 237 109.5 231.7 100.3 237"/>
      <polygon class="cls-10" points="113.5 229.4 122.6 234.7 131.8 229.4 122.6 224.1 113.5 229.4"/>
      <polygon class="cls-10" points="127.4 221.4 136.5 226.7 145.7 221.4 136.5 216.1 127.4 221.4"/>
      <polygon class="cls-10" points="141 213.6 150.1 218.8 159.3 213.6 150.1 208.3 141 213.6"/>
      <polygon class="cls-10" points="154.9 205.5 164 210.8 173.2 205.5 164 200.3 154.9 205.5"/>
      <polygon class="cls-10" points="99.6 253 108.8 258.3 117.9 253 108.8 247.7 99.6 253"/>
      <polygon class="cls-10" points="103.5 265.9 112.7 271.2 121.8 265.9 112.7 260.6 103.5 265.9"/>
      <polygon class="cls-10" points="116.7 258.3 125.9 263.5 135 258.3 125.9 253 116.7 258.3"/>
      <polygon class="cls-10" points="113.2 245.2 122.3 250.5 131.5 245.2 122.3 240 113.2 245.2"/>
      <polygon class="cls-10" points="127.1 237.2 136.2 242.5 145.4 237.2 136.2 232 127.1 237.2"/>
      <polygon class="cls-10" points="140.7 229.4 149.8 234.7 159 229.4 149.8 224.1 140.7 229.4"/>
      <polygon class="cls-10" points="154.6 221.4 163.7 226.7 172.9 221.4 163.7 216.1 154.6 221.4"/>
      <polygon class="cls-10" points="182 205.5 191.2 210.8 200.3 205.5 191.2 200.3 182 205.5"/>
      <polygon class="cls-10" points="168.1 213.6 177.3 218.8 186.4 213.6 177.3 208.3 168.1 213.6"/>
      <polygon class="cls-10" points="168.4 197.7 177.6 203 186.8 197.7 177.6 192.4 168.4 197.7"/>
      <polygon class="cls-10" points="72.2 268.9 95.3 255.6 104.4 260.9 81.3 274.2 72.2 268.9"/>
      <polygon class="cls-10" points="131 250 140.1 255.3 190.3 226.3 181.2 221.1 131 250"/>
      <polygon class="cls-10" points="185.9 218.3 195.1 223.6 213.4 213.1 204.2 207.8 185.9 218.3"/>
      <polygon class="cls-10" points="209.7 247.7 186.8 234.5 131.8 266.2 154.7 279.4 209.7 247.7"/>
    </g>
  </g>
  <g id="Download_Upload" data-name="Download Upload">
    <g>
      <path class="cls-11" d="M103.4,170l-5.2-3V40.6l5.2,2.4Z"/>
      <path class="cls-11" d="M108.8,4.8l-4.1-2.3c-8.3,22-16.7,44.1-25,66.2l5,2.8C92.7,49.3,100.8,27.1,108.8,4.8Z"/>
    </g>
    <g>
      <path class="cls-9" d="M63,25.6,44.7,36.2,49.6,39,67.9,28.4Z"/>
      <path class="cls-9" d="M80.6,123l4.2,2.4L29.9,157.1l-3.7-2Z"/>
      <path class="cls-9" d="M49.6,165.9l-5.1-2.3.2-127.4L49.6,39Z"/>
      <path class="cls-12" d="M26.2,155.1l33.4,32.7,3.2,2.3-32.9-33Z"/>
    </g>
    <g>
      <polygon class="cls-11" points="49.6 39 49.6 165.9 67.9 155.4 67.9 28.4 49.6 39"/>
      <path class="cls-11" d="M62.8,190.1c7.3-21.6,14.7-43.1,22-64.7L29.9,157.1Z"/>
    </g>
    <g>
      <polygon class="cls-9" points="103.4 43 103.4 170 121.7 159.4 121.7 32.5 103.4 43"/>
      <path class="cls-9" d="M108.8,4.8c-8,22.3-16.1,44.5-24.1,66.7l54.9-31.6Z"/>
    </g>
  </g>
  <g>
    <polygon class="cls-13" points="383.9 266.1 369.3 257.7 383.9 249.5 398.3 257.7 383.9 266.1"/>
    <polygon class="cls-14" points="398.3 257.7 397.5 258.4 382.9 250 383.9 249.5 398.3 257.7"/>
    <polygon class="cls-10" points="389.6 316.3 389.6 215.9 308 168.8 308 269.3 389.6 316.3"/>
    <polygon class="cls-15" points="386.1 217.8 380.6 221.1 380.6 321.6 386.1 318.3 386.1 217.8"/>
    <polygon class="cls-15" points="395.1 212.7 389.6 215.9 389.6 316.3 395.1 313.2 395.1 212.7"/>
    <polygon class="cls-10" points="308 168.8 304.7 170.9 304.7 271.3 308 273.2 308 168.8"/>
    <polygon class="cls-16" points="386.1 217.8 304.7 170.9 308 168.8 389.6 215.9 395.1 212.7 308 162.5 293.6 170.9 380.6 221.1 386.1 217.8"/>
    <polygon class="cls-17" points="293.6 170.9 293.6 271.3 380.6 321.6 380.6 221.1 293.6 170.9"/>
    <path class="cls-4" d="M366.1,259.6a13.3,13.3,0,0,0-2.7,4.6c-1.9,6,2.1,11.4,2.7,12.2l14.5,8.4,17.7-10.3V257.7L380.6,268Z"/>
    <polygon class="cls-14" points="396.7 257.7 380.4 267.2 381.2 267.7 397.7 258.2 396.7 257.7"/>
    <path class="cls-14" d="M381.5,267.5l-.9.5-14.5-8.4.8-.5Z"/>
    <path class="cls-14" d="M370.3,275a5.3,5.3,0,0,1-2.7-2.4,5.8,5.8,0,0,1-.8-3.6,2.6,2.6,0,0,1,1.2-1.8,2.3,2.3,0,0,1,2.3-.1,5.5,5.5,0,0,1,2.7,2.3,5.9,5.9,0,0,1,.7,3.7,2.1,2.1,0,0,1-1.2,1.7A2.2,2.2,0,0,1,370.3,275Z"/>
  </g>
</svg>
