<svg id="Layer_1" data-name="Layer 1" xmlns="http://www.w3.org/2000/svg" viewBox="0 0 1314.3 840.4"><defs><style>.cls-1{fill:#84baa5}.cls-11,.cls-2{fill:#4969ac}.cls-12,.cls-3{fill:#718fc3}.cls-4{fill:#c2dbf2}.cls-5{fill:#645da8}.cls-6{fill:#f5faff}.cls-7{fill:#c1d7e5}.cls-8{fill:#d9e6ed}.cls-9{fill:#64a0ff}.cls-11,.cls-12{isolation:isolate}.cls-15{fill:#2d2d2d}.cls-16{fill:#44914f}.cls-17{fill:#303030}</style></defs><path class="cls-1" d="M195.9 96L43.5 183.7l152.4 87.9L348 183.7z"/><path class="cls-2" d="M5.4 183.7v22l190.5 109.7v-22z"/><path class="cls-3" d="M386.1 183.7v22L195.9 315.4v-22z"/><path class="cls-4" d="M195.9 74L5.4 183.7l190.5 109.7 190.2-109.7zM43.5 183.7L195.9 96 348 183.7l-152.1 87.9z"/><path class="cls-3" d="M195.9 96v21.8L62.6 194.7l-19.1-11z"/><path class="cls-2" d="M195.9 96v21.8l133.2 76.9 18.9-11z"/><path class="cls-4" d="M386.1 315.4l-114.2-65.8 19-11.1 114.3 65.9z"/><path class="cls-2" d="M271.9 249.6v22l114.2 65.9v-22.1z"/><path class="cls-1" d="M804.8 96l-152.2 87.7 152.2 87.9 152.3-87.9z"/><path class="cls-2" d="M614.5 183.7v22l190.3 109.7v-22z"/><path class="cls-3" d="M995.2 183.7v22L804.8 315.4v-22z"/><path class="cls-4" d="M804.8 74L614.5 183.7l190.3 109.7 190.4-109.7zM652.6 183.7L804.8 96l152.3 87.7-152.3 87.9z"/><path class="cls-3" d="M804.8 96v21.8l-133.1 76.9-19.1-11z"/><path class="cls-2" d="M804.8 96v21.8L938 194.7l19.1-11z"/><path class="cls-3" d="M728.7 249.6v22l-114.2 65.9v-22.1z"/><path class="cls-1" d="M500.4 271.6L348 359.3l152.4 87.9 152.2-87.9z"/><path class="cls-2" d="M310 359.3v22L500.4 491v-21.8z"/><path class="cls-3" d="M690.6 359.3v22L500.4 491v-21.8z"/><path class="cls-4" d="M500.4 249.6L310 359.3l190.4 109.9 190.2-109.9zM348 359.3l152.4-87.7 152.2 87.7-152.2 87.9z"/><path class="cls-3" d="M500.4 271.6v21.8l-133.2 76.9-19.2-11z"/><path class="cls-2" d="M500.4 271.6v21.8l133.1 76.9 19.1-11z"/><path class="cls-4" d="M614.5 315.4l114.2-65.8-18.9-11.1-114.4 65.9z"/><path class="cls-3" d="M405.2 414.3v21.9L291.1 502v-22z"/><path class="cls-4" d="M291.1 480l114.1-65.7-18.9-11-114.4 65.9z"/><path class="cls-1" d="M195.9 447.2L43.5 535.1l152.4 87.7L348 535.1z"/><path class="cls-2" d="M5.4 535.1v21.8l190.5 109.9v-22z"/><path class="cls-3" d="M386.1 535.1v21.8L195.9 666.8v-22z"/><path class="cls-4" d="M195.9 425.2L5.4 535.1l190.5 109.7 190.2-109.7zM43.5 535.1l152.4-87.9L348 535.1l-152.1 87.7z"/><path class="cls-3" d="M195.9 447.2v22L62.6 545.9l-19.1-10.8z"/><path class="cls-2" d="M195.9 447.2v22l133.2 76.7 18.9-10.8z"/><path class="cls-1" d="M805 447.2l-152.4 87.9L805 622.8l152.1-87.7z"/><path class="cls-2" d="M614.5 535.1v21.8l190.3 109.9v-22zM585.4 420v21.8l114.4 65.9v-21.8z"/><path class="cls-3" d="M995.2 535.1v21.8L804.8 666.8v-22z"/><path class="cls-4" d="M699.8 485.9L585.4 420l19.2-11 114.1 65.8z"/><path class="cls-4" d="M804.8 424.9l-190.2 110 190.2 109.7 190.4-109.7zm-152.2 110L804.8 447l152.4 87.9-152.4 87.7z"/><path class="cls-3" d="M804.8 447.2v22l-133.1 76.7-19.1-10.8z"/><path class="cls-2" d="M894.4 593v21.8l114.4 65.9v-21.8z"/><path class="cls-4" d="M1008.8 658.9L894.4 593l19.2-11 114.1 65.8z"/><path class="cls-2" d="M804.4 447v22.1L938.2 546l19.2-10.9z"/><path class="cls-5" d="M805.6 138.6l-95 54.8 95 54.9 95.2-54.9z"/><path class="cls-6" d="M805.6 50.9l-95 54.9 95 54.8 95.2-54.8z"/><path class="cls-7" d="M710.6 105.8v87.6l95 54.9v-87.7z"/><path class="cls-8" d="M900.8 105.8v87.6l-95.2 54.9v-87.7z"/><path class="cls-9" d="M804.8 58.2l-81.7 46.9 81.7 47.2 81.7-47.2z"/><path class="cls-6" d="M805.6 28.9l-95 54.8 95 54.9 95.2-54.9z"/><path class="cls-6" d="M805.6 6.8l-95 54.9 95 54.9 95.2-54.9z"/><path class="cls-7" d="M710.6 61.7v22l95 54.9v-22z"/><path class="cls-8" d="M900.8 61.7v22l-95.2 54.9v-22z"/><path class="cls-1" d="M805.6 205.7l95.2-54.9v-2.4l-95.2 54.8-95-54.8v2.4l94.6 54.5z"/><path class="cls-9" d="M805.6 184.3l95.2-54.9v-3.7l-95.2 55.1-95-55.1v3.7l94.4 54.5z"/><path class="cls-9" d="M900.8 164.1v-4.7l-95.2 54.8-95-54.8v4.7l95 54.9z"/><path class="cls-1" d="M900.8 171.2l-95.2 54.9-95-54.9v2.3l94.6 54.6.4.5 95.2-55.1z"/><path class="cls-5" d="M805.6 491.6l-95 54.9 95 54.9 95.2-54.9z"/><path class="cls-6" d="M805.6 403.7l-95 55.1 95 54.9 95.2-54.9z"/><path class="cls-7" d="M710.6 458.8v87.7l95 54.9v-87.7z"/><path class="cls-8" d="M900.8 458.8v87.7l-95.2 54.9v-87.7z"/><path class="cls-9" d="M804.8 411.2l-81.7 47 81.7 47.2 81.7-47.2z"/><path class="cls-6" d="M805.6 381.9l-95 54.9 95 54.8 95.2-54.8z"/><path class="cls-6" d="M805.6 359.9l-95 54.9 95 54.8 95.2-54.8z"/><path class="cls-7" d="M710.6 414.8v22l95 54.8v-22z"/><path class="cls-8" d="M900.8 414.8v22l-95.2 54.8v-22z"/><path class="cls-1" d="M805.6 558.8l95.2-54.9v-2.5l-95.2 54.9-95-54.9v2.5l94.6 54.4z"/><path class="cls-9" d="M805.6 537.4l95.2-54.9v-3.7l-95.2 55-95-55v3.7l94.4 54.4z"/><path class="cls-9" d="M900.8 517.2v-4.8l-95.2 54.9-95-54.9v4.8l95 54.9z"/><path class="cls-1" d="M900.8 524.3l-95.2 54.8-95-54.8v2.2l94.6 54.7.4.4 95.2-55.1z"/><path class="cls-5" d="M195.7 490l-95.1 55 95.1 54.9 95.2-54.9z"/><path class="cls-6" d="M195.7 402.3l-95.1 54.8 95.1 54.9 95.2-54.9z"/><path class="cls-7" d="M100.6 457.1V545l95.1 54.9V512z"/><path class="cls-8" d="M290.9 457.1V545l-95.2 54.9V512z"/><path class="cls-9" d="M194.8 409.6l-81.7 47.1 81.7 47 81.7-47z"/><path class="cls-6" d="M195.7 380.3l-95.1 54.8 95.1 54.9 95.2-54.9z"/><path class="cls-6" d="M195.7 358.4l-95.1 54.9 95.1 54.9 95.2-54.9z"/><path class="cls-7" d="M100.6 413.3v21.8l95.1 54.9v-21.8z"/><path class="cls-8" d="M290.9 413.3v21.8L195.7 490v-21.8z"/><path class="cls-1" d="M195.7 557.1l95.2-54.9V500l-95.2 54.8-95.1-54.8v2.2l94.6 54.7z"/><path class="cls-9" d="M195.7 535.7l95.2-54.9v-3.5l-95.2 54.9-95.1-54.9v3.5l94.4 54.5z"/><path class="cls-9" d="M290.9 515.5v-4.7l-95.2 54.8-95.1-54.8v4.7l95.1 54.9z"/><path class="cls-1" d="M290.9 522.6l-95.2 54.9-95.1-54.9v2.5l94.6 54.6.5.3 95.2-54.9z"/><path class="cls-5" d="M195.7 136.7l-95.3 54.9 95.3 54.8 95.2-54.8z"/><path class="cls-6" d="M195.7 49l-95.3 54.9 95.3 54.8 95.2-54.8z"/><path class="cls-7" d="M100.4 103.9v87.7l95.3 54.8v-87.7z"/><path class="cls-8" d="M290.9 103.9v87.7l-95.2 54.8v-87.7z"/><path class="cls-9" d="M194.8 56.3l-81.7 47.2 81.7 46.9 81.5-46.9z"/><path class="cls-6" d="M195.7 27l-95.3 54.9 95.3 54.8 95.2-54.8z"/><path class="cls-6" d="M195.7 5l-95.1 54.8 95.1 55.1 95.2-55.1z"/><path class="cls-7" d="M100.6 59.8l-.2 22.1 95.3 54.8v-21.8z"/><path class="cls-8" d="M290.9 59.8v22.1l-95.2 54.8v-21.8z"/><path class="cls-1" d="M195.7 203.8l95.2-54.8v-2.5l-95.2 55.1-95.3-55.1v2.5l94.8 54.6z"/><path class="cls-9" d="M195.7 182.4l95.2-54.8V124l-95.2 54.9-95.3-54.9v3.6l94.4 54.4z"/><path class="cls-9" d="M290.9 162.3v-4.8l-95.2 54.9-95.3-54.9v4.8l95.3 54.8z"/><path class="cls-1" d="M290.9 169.3l-95.2 54.9-95.3-54.9v2.5l94.8 54.5.5.4 95.2-54.9z"/><path class="cls-5" d="M501.2 314.2L406 369l95.2 54.9 95-54.9z"/><path class="cls-6" d="M501.2 226.5L406 281.3l95.2 54.9 95-54.9z"/><path class="cls-7" d="M406 281.3V369l95.2 54.9v-87.7z"/><path class="cls-8" d="M596.2 281.3V369l-95 54.9v-87.7z"/><path class="cls-9" d="M500.2 233.8l-81.5 46.9 81.5 47.2 81.7-47.2z"/><path class="cls-6" d="M501.2 204.5L406 259.3l95.2 54.9 95-54.9z"/><path class="cls-6" d="M501.2 182.4L406 237.3l95.2 54.9 95-54.9z"/><path class="cls-7" d="M406 237.3v22l95.2 54.9v-22z"/><path class="cls-8" d="M596.2 237.3v22l-95 54.9-.2-22z"/><path class="cls-1" d="M501.2 381.3l95-54.9v-2.5l-95 54.9-95.2-54.9v2.5l94.6 54.5z"/><path class="cls-9" d="M501.2 359.9l95-54.9v-3.5l-95 54.9-95.2-54.9v3.5l94.4 54.5z"/><path class="cls-9" d="M596.2 339.7V335l-95 54.8L406 335v4.7l95.2 54.9z"/><path class="cls-1" d="M596.2 346.8l-95 54.9-95.2-54.9v2.5l94.6 54.4.6.5 95-54.9z"/><path d="M1118.9 614.2l-152.4 87.9 152.4 87.7 152.1-87.7z" style="isolation:isolate" fill="#84baa5"/><path class="cls-11" d="M928.4 702.1v21.8l190.3 109.9v-22z"/><path class="cls-12" d="M1309.1 702.1v21.8l-190.4 109.9v-22zM1118.7 614.2v22l-133.1 76.7-19.1-10.8z"/><path class="cls-11" d="M1118.3 614v22.1l133.8 76.9 19.2-10.9z"/><path d="M1118.7 592L928.4 701.9l190.3 109.7 190.4-109.7zM966.5 701.9l152.2-87.9 152.3 87.9-152.3 87.7z" style="isolation:isolate" fill="#c2dbf2"/><g><path d="M1119.2 592.2L1014 653.1l105.2 60.7 105.2-60.7z" fill="#e8f0f9"/><path class="cls-7" d="M1014 653.1v60.7l105.2 60.9v-60.9z"/><path class="cls-8" d="M1224.4 653.1v60.7l-105.2 60.9v-60.9z"/><path class="cls-15" d="M1028.1 673.2l-2-1.1v30.3l2 1.3zM1033.5 676.4l-2.1-1.2v30.4l2.1 1.3zM1041.7 681l-2.8-1.7v30.5l2.8 1.5z"/><path class="cls-16" d="M1135.3 732.4a5.9 5.9 0 00-3 2.4 7 7 0 00-.9 4 3.1 3.1 0 001.5 2 2.5 2.5 0 001.2.4l1.2-.2a6.9 6.9 0 002.9-2.7 6.3 6.3 0 00.9-3.8 6.1 6.1 0 00-.5-1.2 3.9 3.9 0 00-1-.8 2.1 2.1 0 00-1.1-.4 2.7 2.7 0 00-1.2.3zM1135.3 743.9a5.9 5.9 0 00-3 2.6 7 7 0 00-.9 4 3.7 3.7 0 001.5 2 3.3 3.3 0 002.4.1 6.9 6.9 0 002.9-2.7 6.6 6.6 0 00.9-3.9 2.2 2.2 0 00-.5-1.1 2 2 0 00-.9-.9 2.1 2.1 0 00-1.2-.3 1.7 1.7 0 00-1.2.2z"/><path class="cls-17" d="M1206.3 705.7l-55.7 32.3v6.3l55.7-32.2z"/></g><g><path class="cls-6" d="M1118.7 521l-105.3 60.8 105.3 60.8 105.2-60.8z"/><path class="cls-7" d="M1013.4 581.8v60.8l105.3 60.8v-60.8z"/><path class="cls-8" d="M1223.9 581.8v60.8l-105.2 60.8v-60.8z"/><path class="cls-15" d="M1027.5 602l-2-1.2v30.4l2 1.3zM1033 605.2l-2.2-1.2v30.4l2.2 1.3zM1041.2 609.8l-2.9-1.8v30.5l2.9 1.6z"/><path class="cls-16" d="M1134.8 661.1a5.9 5.9 0 00-3.1 2.5 7.8 7.8 0 00-.8 4 3.2 3.2 0 001.4 2l1.2.4 1.3-.2a6.9 6.9 0 002.9-2.7 7.1 7.1 0 00.8-3.8 3.1 3.1 0 00-.5-1.2 3.4 3.4 0 00-.9-.8 1.9 1.9 0 00-1.2-.4 1.4 1.4 0 00-1.1.2zM1134.8 672.6a6.8 6.8 0 00-3.1 2.7 6.2 6.2 0 00-.8 4 3.5 3.5 0 001.4 2 4.3 4.3 0 002.5.1 7.3 7.3 0 002.8-2.7 6.6 6.6 0 00.9-3.9 5.6 5.6 0 00-.4-1.2l-.9-.8-1.2-.4z"/><path class="cls-17" d="M1205.8 634.5l-55.8 32.2v6.4l55.8-32.3z"/></g></svg>