<svg id="Layer_1" data-name="Layer 1" xmlns="http://www.w3.org/2000/svg" viewBox="0 0 1314.3 840.4">
  <defs>
    <style>
      .cls-1, .cls-10 {
        fill: #84baa5;
      }

      .cls-11, .cls-2 {
        fill: #4969ac;
      }

      .cls-12, .cls-3 {
        fill: #718fc3;
      }

      .cls-13, .cls-4 {
        fill: #c2dbf2;
      }

      .cls-5 {
        fill: #645da8;
      }

      .cls-6 {
        fill: #f5faff;
      }

      .cls-7 {
        fill: #c1d7e5;
      }

      .cls-8 {
        fill: #d9e6ed;
      }

      .cls-9 {
        fill: #64a0ff;
      }

      .cls-10, .cls-11, .cls-12, .cls-13 {
        isolation: isolate;
      }

      .cls-14 {
        fill: #e8f0f9;
      }

      .cls-15 {
        fill: #2d2d2d;
      }

      .cls-16 {
        fill: #44914f;
      }

      .cls-17 {
        fill: #303030;
      }
    </style>
  </defs>
  <g>
    <path class="cls-1" d="M195.9,96,43.5,183.7l152.4,87.9L348,183.7Z"/>
    <path class="cls-2" d="M5.4,183.7v22L195.9,315.4v-22Z"/>
    <path class="cls-3" d="M386.1,183.7v22L195.9,315.4v-22Z"/>
    <path class="cls-4" d="M195.9,74,5.4,183.7,195.9,293.4,386.1,183.7ZM43.5,183.7,195.9,96,348,183.7,195.9,271.6Z"/>
    <path class="cls-3" d="M195.9,96v21.8L62.6,194.7l-19.1-11Z"/>
    <path class="cls-2" d="M195.9,96v21.8l133.2,76.9,18.9-11Z"/>
    <path class="cls-4" d="M386.1,315.4,271.9,249.6l19-11.1,114.3,65.9Z"/>
    <path class="cls-2" d="M271.9,249.6v22l114.2,65.9V315.4Z"/>
    <path class="cls-1" d="M804.8,96,652.6,183.7l152.2,87.9,152.3-87.9Z"/>
    <path class="cls-2" d="M614.5,183.7v22L804.8,315.4v-22Z"/>
    <path class="cls-3" d="M995.2,183.7v22L804.8,315.4v-22Z"/>
    <path class="cls-4" d="M804.8,74,614.5,183.7,804.8,293.4,995.2,183.7ZM652.6,183.7,804.8,96l152.3,87.7L804.8,271.6Z"/>
    <path class="cls-3" d="M804.8,96v21.8L671.7,194.7l-19.1-11Z"/>
    <path class="cls-2" d="M804.8,96v21.8L938,194.7l19.1-11Z"/>
    <path class="cls-3" d="M728.7,249.6v22L614.5,337.5V315.4Z"/>
    <path class="cls-1" d="M500.4,271.6,348,359.3l152.4,87.9,152.2-87.9Z"/>
    <path class="cls-2" d="M310,359.3v22L500.4,491V469.2Z"/>
    <path class="cls-3" d="M690.6,359.3v22L500.4,491V469.2Z"/>
    <path class="cls-4" d="M500.4,249.6,310,359.3,500.4,469.2,690.6,359.3ZM348,359.3l152.4-87.7,152.2,87.7L500.4,447.2Z"/>
    <path class="cls-3" d="M500.4,271.6v21.8L367.2,370.3l-19.2-11Z"/>
    <path class="cls-2" d="M500.4,271.6v21.8l133.1,76.9,19.1-11Z"/>
    <path class="cls-4" d="M614.5,315.4l114.2-65.8-18.9-11.1L595.4,304.4Z"/>
    <path class="cls-3" d="M405.2,414.3v21.9L291.1,502V480Z"/>
    <path class="cls-4" d="M291.1,480l114.1-65.7-18.9-11L271.9,469.2Z"/>
    <path class="cls-1" d="M195.9,447.2,43.5,535.1l152.4,87.7L348,535.1Z"/>
    <path class="cls-2" d="M5.4,535.1v21.8L195.9,666.8v-22Z"/>
    <path class="cls-3" d="M386.1,535.1v21.8L195.9,666.8v-22Z"/>
    <path class="cls-4" d="M195.9,425.2,5.4,535.1,195.9,644.8,386.1,535.1ZM43.5,535.1l152.4-87.9L348,535.1,195.9,622.8Z"/>
    <path class="cls-3" d="M195.9,447.2v22L62.6,545.9,43.5,535.1Z"/>
    <path class="cls-2" d="M195.9,447.2v22l133.2,76.7L348,535.1Z"/>
    <path class="cls-1" d="M805,447.2,652.6,535.1,805,622.8l152.1-87.7Z"/>
    <path class="cls-2" d="M614.5,535.1v21.8L804.8,666.8v-22Z"/>
    <path class="cls-2" d="M585.4,420v21.8l114.4,65.9V485.9Z"/>
    <path class="cls-3" d="M995.2,535.1v21.8L804.8,666.8v-22Z"/>
    <path class="cls-4" d="M699.8,485.9,585.4,420l19.2-11,114.1,65.8Z"/>
    <path class="cls-4" d="M804.8,424.9l-190.2,110L804.8,644.6,995.2,534.9Zm-152.2,110L804.8,447l152.4,87.9L804.8,622.6Z"/>
    <path class="cls-3" d="M804.8,447.2v22L671.7,545.9l-19.1-10.8Z"/>
    <path class="cls-2" d="M894.4,593v21.8l114.4,65.9V658.9Z"/>
    <path class="cls-4" d="M1008.8,658.9,894.4,593l19.2-11,114.1,65.8Z"/>
    <path class="cls-2" d="M804.4,447v22.1L938.2,546l19.2-10.9Z"/>
    <path class="cls-5" d="M805.6,138.6l-95,54.8,95,54.9,95.2-54.9Z"/>
    <path class="cls-6" d="M805.6,50.9l-95,54.9,95,54.8,95.2-54.8Z"/>
    <path class="cls-7" d="M710.6,105.8v87.6l95,54.9V160.6Z"/>
    <path class="cls-8" d="M900.8,105.8v87.6l-95.2,54.9V160.6Z"/>
    <path class="cls-9" d="M804.8,58.2l-81.7,46.9,81.7,47.2,81.7-47.2Z"/>
    <path class="cls-6" d="M805.6,28.9l-95,54.8,95,54.9,95.2-54.9Z"/>
    <path class="cls-6" d="M805.6,6.8l-95,54.9,95,54.9,95.2-54.9Z"/>
    <path class="cls-7" d="M710.6,61.7v22l95,54.9v-22Z"/>
    <path class="cls-8" d="M900.8,61.7v22l-95.2,54.9v-22Z"/>
    <path class="cls-1" d="M805.6,205.7l95.2-54.9v-2.4l-95.2,54.8-95-54.8v2.4l94.6,54.5Z"/>
    <path class="cls-9" d="M805.6,184.3l95.2-54.9v-3.7l-95.2,55.1-95-55.1v3.7L805,183.9Z"/>
    <path class="cls-9" d="M900.8,164.1v-4.7l-95.2,54.8-95-54.8v4.7l95,54.9Z"/>
    <path class="cls-1" d="M900.8,171.2l-95.2,54.9-95-54.9v2.3l94.6,54.6.4.5,95.2-55.1Z"/>
    <path class="cls-5" d="M805.6,491.6l-95,54.9,95,54.9,95.2-54.9Z"/>
    <path class="cls-6" d="M805.6,403.7l-95,55.1,95,54.9,95.2-54.9Z"/>
    <path class="cls-7" d="M710.6,458.8v87.7l95,54.9V513.7Z"/>
    <path class="cls-8" d="M900.8,458.8v87.7l-95.2,54.9V513.7Z"/>
    <path class="cls-9" d="M804.8,411.2l-81.7,47,81.7,47.2,81.7-47.2Z"/>
    <path class="cls-6" d="M805.6,381.9l-95,54.9,95,54.8,95.2-54.8Z"/>
    <path class="cls-6" d="M805.6,359.9l-95,54.9,95,54.8,95.2-54.8Z"/>
    <path class="cls-7" d="M710.6,414.8v22l95,54.8v-22Z"/>
    <path class="cls-8" d="M900.8,414.8v22l-95.2,54.8v-22Z"/>
    <path class="cls-1" d="M805.6,558.8l95.2-54.9v-2.5l-95.2,54.9-95-54.9v2.5l94.6,54.4Z"/>
    <path class="cls-9" d="M805.6,537.4l95.2-54.9v-3.7l-95.2,55-95-55v3.7L805,536.9Z"/>
    <path class="cls-9" d="M900.8,517.2v-4.8l-95.2,54.9-95-54.9v4.8l95,54.9Z"/>
    <path class="cls-1" d="M900.8,524.3l-95.2,54.8-95-54.8v2.2l94.6,54.7.4.4,95.2-55.1Z"/>
    <path class="cls-5" d="M195.7,490l-95.1,55,95.1,54.9L290.9,545Z"/>
    <path class="cls-6" d="M195.7,402.3l-95.1,54.8L195.7,512l95.2-54.9Z"/>
    <path class="cls-7" d="M100.6,457.1V545l95.1,54.9V512Z"/>
    <path class="cls-8" d="M290.9,457.1V545l-95.2,54.9V512Z"/>
    <path class="cls-9" d="M194.8,409.6l-81.7,47.1,81.7,47,81.7-47Z"/>
    <path class="cls-6" d="M195.7,380.3l-95.1,54.8L195.7,490l95.2-54.9Z"/>
    <path class="cls-6" d="M195.7,358.4l-95.1,54.9,95.1,54.9,95.2-54.9Z"/>
    <path class="cls-7" d="M100.6,413.3v21.8L195.7,490V468.2Z"/>
    <path class="cls-8" d="M290.9,413.3v21.8L195.7,490V468.2Z"/>
    <path class="cls-1" d="M195.7,557.1l95.2-54.9V500l-95.2,54.8L100.6,500v2.2l94.6,54.7Z"/>
    <path class="cls-9" d="M195.7,535.7l95.2-54.9v-3.5l-95.2,54.9-95.1-54.9v3.5L195,535.3Z"/>
    <path class="cls-9" d="M290.9,515.5v-4.7l-95.2,54.8-95.1-54.8v4.7l95.1,54.9Z"/>
    <path class="cls-1" d="M290.9,522.6l-95.2,54.9-95.1-54.9v2.5l94.6,54.6.5.3,95.2-54.9Z"/>
    <path class="cls-5" d="M195.7,136.7l-95.3,54.9,95.3,54.8,95.2-54.8Z"/>
    <path class="cls-6" d="M195.7,49l-95.3,54.9,95.3,54.8,95.2-54.8Z"/>
    <path class="cls-7" d="M100.4,103.9v87.7l95.3,54.8V158.7Z"/>
    <path class="cls-8" d="M290.9,103.9v87.7l-95.2,54.8V158.7Z"/>
    <path class="cls-9" d="M194.8,56.3l-81.7,47.2,81.7,46.9,81.5-46.9Z"/>
    <path class="cls-6" d="M195.7,27,100.4,81.9l95.3,54.8,95.2-54.8Z"/>
    <path class="cls-6" d="M195.7,5,100.6,59.8l95.1,55.1,95.2-55.1Z"/>
    <path class="cls-7" d="M100.6,59.8l-.2,22.1,95.3,54.8V114.9Z"/>
    <path class="cls-8" d="M290.9,59.8V81.9l-95.2,54.8V114.9Z"/>
    <path class="cls-1" d="M195.7,203.8,290.9,149v-2.5l-95.2,55.1-95.3-55.1V149l94.8,54.6Z"/>
    <path class="cls-9" d="M195.7,182.4l95.2-54.8V124l-95.2,54.9L100.4,124v3.6L194.8,182Z"/>
    <path class="cls-9" d="M290.9,162.3v-4.8l-95.2,54.9-95.3-54.9v4.8l95.3,54.8Z"/>
    <path class="cls-1" d="M290.9,169.3l-95.2,54.9-95.3-54.9v2.5l94.8,54.5.5.4,95.2-54.9Z"/>
    <path class="cls-5" d="M501.2,314.2,406,369l95.2,54.9,95-54.9Z"/>
    <path class="cls-6" d="M501.2,226.5,406,281.3l95.2,54.9,95-54.9Z"/>
    <path class="cls-7" d="M406,281.3V369l95.2,54.9V336.2Z"/>
    <path class="cls-8" d="M596.2,281.3V369l-95,54.9V336.2Z"/>
    <path class="cls-9" d="M500.2,233.8l-81.5,46.9,81.5,47.2,81.7-47.2Z"/>
    <path class="cls-6" d="M501.2,204.5,406,259.3l95.2,54.9,95-54.9Z"/>
    <path class="cls-6" d="M501.2,182.4,406,237.3l95.2,54.9,95-54.9Z"/>
    <path class="cls-7" d="M406,237.3v22l95.2,54.9v-22Z"/>
    <path class="cls-8" d="M596.2,237.3v22l-95,54.9-.2-22Z"/>
    <path class="cls-1" d="M501.2,381.3l95-54.9v-2.5l-95,54.9L406,323.9v2.5l94.6,54.5Z"/>
    <path class="cls-9" d="M501.2,359.9l95-54.9v-3.5l-95,54.9L406,301.5V305l94.4,54.5Z"/>
    <path class="cls-9" d="M596.2,339.7V335l-95,54.8L406,335v4.7l95.2,54.9Z"/>
    <path class="cls-1" d="M596.2,346.8l-95,54.9L406,346.8v2.5l94.6,54.4.6.5,95-54.9Z"/>
  </g>
  <path class="cls-10" d="M1118.9,614.2,966.5,702.1l152.4,87.7L1271,702.1Z"/>
  <path class="cls-11" d="M928.4,702.1v21.8l190.3,109.9v-22Z"/>
  <path class="cls-12" d="M1309.1,702.1v21.8L1118.7,833.8v-22Z"/>
  <path class="cls-12" d="M1118.7,614.2v22L985.6,712.9l-19.1-10.8Z"/>
  <path class="cls-11" d="M1118.3,614v22.1L1252.1,713l19.2-10.9Z"/>
  <path class="cls-13" d="M1118.7,592,928.4,701.9l190.3,109.7,190.4-109.7ZM966.5,701.9,1118.7,614,1271,701.9l-152.3,87.7Z"/>
  <g>
    <path class="cls-14" d="M1119.2,592.2,1014,653.1l105.2,60.7,105.2-60.7Z"/>
    <path class="cls-7" d="M1014,653.1v60.7l105.2,60.9V713.8Z"/>
    <path class="cls-8" d="M1224.4,653.1v60.7l-105.2,60.9V713.8Z"/>
    <path class="cls-15" d="M1028.1,673.2l-2-1.1v30.3l2,1.3Z"/>
    <path class="cls-15" d="M1033.5,676.4l-2.1-1.2v30.4l2.1,1.3Z"/>
    <path class="cls-15" d="M1041.7,681l-2.8-1.7v30.5l2.8,1.5Z"/>
    <path class="cls-16" d="M1135.3,732.4a5.9,5.9,0,0,0-3,2.4,7,7,0,0,0-.9,4,3.1,3.1,0,0,0,1.5,2,2.5,2.5,0,0,0,1.2.4l1.2-.2a6.9,6.9,0,0,0,2.9-2.7,6.3,6.3,0,0,0,.9-3.8,6.1,6.1,0,0,0-.5-1.2,3.9,3.9,0,0,0-1-.8,2.1,2.1,0,0,0-1.1-.4A2.7,2.7,0,0,0,1135.3,732.4Z"/>
    <path class="cls-16" d="M1135.3,743.9a5.9,5.9,0,0,0-3,2.6,7,7,0,0,0-.9,4,3.7,3.7,0,0,0,1.5,2,3.3,3.3,0,0,0,2.4.1,6.9,6.9,0,0,0,2.9-2.7,6.6,6.6,0,0,0,.9-3.9,2.2,2.2,0,0,0-.5-1.1,2,2,0,0,0-.9-.9,2.1,2.1,0,0,0-1.2-.3A1.7,1.7,0,0,0,1135.3,743.9Z"/>
    <path class="cls-17" d="M1206.3,705.7,1150.6,738v6.3l55.7-32.2Z"/>
  </g>
  <g>
    <path class="cls-6" d="M1118.7,521l-105.3,60.8,105.3,60.8,105.2-60.8Z"/>
    <path class="cls-7" d="M1013.4,581.8v60.8l105.3,60.8V642.6Z"/>
    <path class="cls-8" d="M1223.9,581.8v60.8l-105.2,60.8V642.6Z"/>
    <path class="cls-15" d="M1027.5,602l-2-1.2v30.4l2,1.3Z"/>
    <path class="cls-15" d="M1033,605.2l-2.2-1.2v30.4l2.2,1.3Z"/>
    <path class="cls-15" d="M1041.2,609.8l-2.9-1.8v30.5l2.9,1.6Z"/>
    <path class="cls-16" d="M1134.8,661.1a5.9,5.9,0,0,0-3.1,2.5,7.8,7.8,0,0,0-.8,4,3.2,3.2,0,0,0,1.4,2l1.2.4,1.3-.2a6.9,6.9,0,0,0,2.9-2.7,7.1,7.1,0,0,0,.8-3.8,3.1,3.1,0,0,0-.5-1.2,3.4,3.4,0,0,0-.9-.8,1.9,1.9,0,0,0-1.2-.4A1.4,1.4,0,0,0,1134.8,661.1Z"/>
    <path class="cls-16" d="M1134.8,672.6a6.8,6.8,0,0,0-3.1,2.7,6.2,6.2,0,0,0-.8,4,3.5,3.5,0,0,0,1.4,2,4.3,4.3,0,0,0,2.5.1,7.3,7.3,0,0,0,2.8-2.7,6.6,6.6,0,0,0,.9-3.9,5.6,5.6,0,0,0-.4-1.2l-.9-.8-1.2-.4Z"/>
    <path class="cls-17" d="M1205.8,634.5,1150,666.7v6.4l55.8-32.3Z"/>
  </g>
</svg>
