<svg xmlns="http://www.w3.org/2000/svg" viewBox="0 0 267.8 325.4"><defs><style>.cls-1{fill:#d9e6ed}.cls-3{fill:#cad7ea}.cls-6{fill:#9ab5db}.cls-7{fill:#84baa5}.cls-8{fill:#c2dbf2}</style></defs><g id="Computer"><path class="cls-1" d="M8.1 126.3v126.8l146.5-84.5V41.8L8.1 126.3z"/><path fill="#64a0ff" d="M147.7 158.4V52.3l-130 75.1v106l130-75z"/><path class="cls-3" d="M2.5 123.1v126.8l5.6 3.2V126.3l-5.6-3.2z"/><path d="M2.5 123.1l5.6 3.2 146.5-84.5-5.5-3.2z" fill="#e7ebf2"/><path fill="#eff1f4" d="M8.1 247.8l109.8 63.4 146.5-84.5-109.8-63.4L8.1 247.8z"/><path class="cls-3" d="M8.1 247.8v10.6l109.8 63.4v-10.6L8.1 247.8z"/><path class="cls-1" d="M117.9 311.2v10.6l146.5-84.6v-10.5l-146.5 84.5zM138.2 169.1L28.3 232.5l9.1 5.3 110.1-63.4-9.3-5.3z"/><path class="cls-6" d="M119 205.5l-5.1-2.9-9.2 5.3 5.2 2.9 9.1-5.3zM132.2 197.9l-5.1-2.9-9.2 5.3 5.2 2.9 9.1-5.3zM146.5 189.7l-5.1-3-9.2 5.3 5.1 3 9.2-5.3zM159.7 182.1l-5.1-3-9.2 5.3 5.1 3 9.2-5.3zM91.6 221.4l-5.1-3-9.2 5.3 5.1 3 9.2-5.3zM49.8 245.5l-5.1-3-9.2 5.3 5.1 3 9.2-5.3zM104.7 213.8l-5.1-3-9.1 5.3 5.1 3 9.1-5.3zM64.1 237.2l-5.1-2.9-9.2 5.3 5.1 2.9 9.2-5.3zM77.3 229.6l-5.1-2.9-9.2 5.2 5.1 3 9.2-5.3z"/><g><path class="cls-7" d="M44.7 253.1l9.1 5.3 14.7-8.5-9.2-5.3zM63 242.5l9.2 5.3 9.1-5.3-9.1-5.3-9.2 5.3zM76.6 234.7l9.1 5.3 9.2-5.3-9.2-5.3-9.1 5.3zM90.5 226.7l9.1 5.3 9.2-5.3-9.2-5.3-9.1 5.3zM104.3 218.7l9.2 5.2 9.2-5.2-9.2-5.3-9.2 5.3zM117.9 210.8l9.2 5.3 9.1-5.3-9.1-5.3-9.2 5.3zM131.8 202.8l9.2 5.3 9.1-5.3-9.1-5.3-9.2 5.3zM145.4 195l18.3-10.6 9.2 5.3-18.3 10.6-9.2-5.3zM58.6 261.1l9.1 5.3L86 255.8l-9.1-5.3-18.3 10.6zM95.2 240l-13.5 7.7 9.2 5.3 13.5-7.8zM98.7 268.7l-13.5 7.8 9.2 5.2 13.4-7.7zM100.3 237l9.2 5.3 9.1-5.3-9.1-5.3-9.2 5.3zM113.5 229.4l9.1 5.3 9.2-5.3-9.2-5.3-9.1 5.3zM127.4 221.4l9.1 5.3 9.2-5.3-9.2-5.3-9.1 5.3zM141 213.6l9.1 5.2 9.2-5.2-9.2-5.3-9.1 5.3zM154.9 205.5l9.1 5.3 9.2-5.3-9.2-5.2-9.1 5.2zM99.6 253l9.2 5.3 9.1-5.3-9.1-5.3-9.2 5.3zM103.5 265.9l9.2 5.3 9.1-5.3-9.1-5.3-9.2 5.3zM116.7 258.3l9.2 5.2 9.1-5.2-9.1-5.3-9.2 5.3zM113.2 245.2l9.1 5.3 9.2-5.3-9.2-5.2-9.1 5.2zM127.1 237.2l9.1 5.3 9.2-5.3-9.2-5.2-9.1 5.2zM140.7 229.4l9.1 5.3 9.2-5.3-9.2-5.3-9.1 5.3zM154.6 221.4l9.1 5.3 9.2-5.3-9.2-5.3-9.1 5.3zM182 205.5l9.2 5.3 9.1-5.3-9.1-5.2-9.2 5.2zM168.1 213.6l9.2 5.2 9.1-5.2-9.1-5.3-9.2 5.3zM168.4 197.7l9.2 5.3 9.2-5.3-9.2-5.3-9.2 5.3zM72.2 268.9l23.1-13.3 9.1 5.3-23.1 13.3-9.1-5.3zM131 250l9.1 5.3 50.2-29-9.1-5.2L131 250zM185.9 218.3l9.2 5.3 18.3-10.5-9.2-5.3-18.3 10.5zM209.7 247.7l-22.9-13.2-55 31.7 22.9 13.2 55-31.7z"/></g></g><g id="Download_Upload" data-name="Download Upload"><path class="cls-8" d="M103.4 170l-5.2-3V40.6l5.2 2.4zM108.8 4.8l-4.1-2.3c-8.3 22-16.7 44.1-25 66.2l5 2.8c8-22.2 16.1-44.4 24.1-66.7z"/><path class="cls-6" d="M63 25.6L44.7 36.2l4.9 2.8 18.3-10.6zM80.6 123l4.2 2.4-54.9 31.7-3.7-2z"/><path class="cls-6" d="M49.6 165.9l-5.1-2.3.2-127.4 4.9 2.8z"/><path d="M26.2 155.1l33.4 32.7 3.2 2.3-32.9-33z" fill="#718fc3"/><g><path class="cls-8" d="M49.6 39v126.9l18.3-10.5v-127L49.6 39z"/><path class="cls-8" d="M62.8 190.1c7.3-21.6 14.7-43.1 22-64.7l-54.9 31.7z"/></g><g><path class="cls-6" d="M103.4 43v127l18.3-10.6V32.5L103.4 43z"/><path class="cls-6" d="M108.8 4.8c-8 22.3-16.1 44.5-24.1 66.7l54.9-31.6z"/></g></g></svg>