<svg xmlns="http://www.w3.org/2000/svg" viewBox="0 0 267.8 325.4">
  <defs>
    <style>
      .cls-1 {
        fill: #d9e6ed;
      }

      .cls-2 {
        fill: #64a0ff;
      }

      .cls-3 {
        fill: #cad7ea;
      }

      .cls-4 {
        fill: #e7ebf2;
      }

      .cls-5 {
        fill: #eff1f4;
      }

      .cls-6 {
        fill: #9ab5db;
      }

      .cls-7 {
        fill: #84baa5;
      }

      .cls-8 {
        fill: #c2dbf2;
      }

      .cls-9 {
        fill: #718fc3;
      }
    </style>
  </defs>
  <g id="Computer">
    <polygon class="cls-1" points="8.1 126.3 8.1 253.1 154.6 168.6 154.6 41.8 8.1 126.3"/>
    <polygon class="cls-2" points="147.7 158.4 147.7 52.3 17.7 127.4 17.7 233.4 147.7 158.4"/>
    <polygon class="cls-3" points="2.5 123.1 2.5 249.9 8.1 253.1 8.1 126.3 2.5 123.1"/>
    <path class="cls-4" d="M2.5,123.1l5.6,3.2L154.6,41.8l-5.5-3.2Z"/>
    <polygon class="cls-5" points="8.1 247.8 117.9 311.2 264.4 226.7 154.6 163.3 8.1 247.8"/>
    <polygon class="cls-3" points="8.1 247.8 8.1 258.4 117.9 321.8 117.9 311.2 8.1 247.8"/>
    <polygon class="cls-1" points="117.9 311.2 117.9 321.8 264.4 237.2 264.4 226.7 117.9 311.2"/>
    <polygon class="cls-1" points="138.2 169.1 28.3 232.5 37.4 237.8 147.5 174.4 138.2 169.1"/>
    <g>
      <polygon class="cls-6" points="119 205.5 113.9 202.6 104.7 207.9 109.9 210.8 119 205.5"/>
      <polygon class="cls-6" points="132.2 197.9 127.1 195 117.9 200.3 123.1 203.2 132.2 197.9"/>
      <polygon class="cls-6" points="146.5 189.7 141.4 186.7 132.2 192 137.3 195 146.5 189.7"/>
      <polygon class="cls-6" points="159.7 182.1 154.6 179.1 145.4 184.4 150.5 187.4 159.7 182.1"/>
      <polygon class="cls-6" points="91.6 221.4 86.5 218.4 77.3 223.7 82.4 226.7 91.6 221.4"/>
      <polygon class="cls-6" points="49.8 245.5 44.7 242.5 35.5 247.8 40.6 250.8 49.8 245.5"/>
      <polygon class="cls-6" points="104.7 213.8 99.6 210.8 90.5 216.1 95.6 219.1 104.7 213.8"/>
      <polygon class="cls-6" points="64.1 237.2 59 234.3 49.8 239.6 54.9 242.5 64.1 237.2"/>
      <polygon class="cls-6" points="77.3 229.6 72.2 226.7 63 231.9 68.1 234.9 77.3 229.6"/>
    </g>
    <g>
      <path class="cls-7" d="M44.7,253.1l9.1,5.3,14.7-8.5-9.2-5.3Z"/>
      <polygon class="cls-7" points="63 242.5 72.2 247.8 81.3 242.5 72.2 237.2 63 242.5"/>
      <polygon class="cls-7" points="76.6 234.7 85.7 240 94.9 234.7 85.7 229.4 76.6 234.7"/>
      <polygon class="cls-7" points="90.5 226.7 99.6 232 108.8 226.7 99.6 221.4 90.5 226.7"/>
      <polygon class="cls-7" points="104.3 218.7 113.5 223.9 122.7 218.7 113.5 213.4 104.3 218.7"/>
      <polygon class="cls-7" points="117.9 210.8 127.1 216.1 136.2 210.8 127.1 205.5 117.9 210.8"/>
      <polygon class="cls-7" points="131.8 202.8 141 208.1 150.1 202.8 141 197.5 131.8 202.8"/>
      <polygon class="cls-7" points="145.4 195 163.7 184.4 172.9 189.7 154.6 200.3 145.4 195"/>
      <polygon class="cls-7" points="58.6 261.1 67.7 266.4 86 255.8 76.9 250.5 58.6 261.1"/>
      <path class="cls-7" d="M95.2,240l-13.5,7.7,9.2,5.3,13.5-7.8Z"/>
      <path class="cls-7" d="M98.7,268.7l-13.5,7.8,9.2,5.2,13.4-7.7Z"/>
      <polygon class="cls-7" points="100.3 237 109.5 242.3 118.6 237 109.5 231.7 100.3 237"/>
      <polygon class="cls-7" points="113.5 229.4 122.6 234.7 131.8 229.4 122.6 224.1 113.5 229.4"/>
      <polygon class="cls-7" points="127.4 221.4 136.5 226.7 145.7 221.4 136.5 216.1 127.4 221.4"/>
      <polygon class="cls-7" points="141 213.6 150.1 218.8 159.3 213.6 150.1 208.3 141 213.6"/>
      <polygon class="cls-7" points="154.9 205.5 164 210.8 173.2 205.5 164 200.3 154.9 205.5"/>
      <polygon class="cls-7" points="99.6 253 108.8 258.3 117.9 253 108.8 247.7 99.6 253"/>
      <polygon class="cls-7" points="103.5 265.9 112.7 271.2 121.8 265.9 112.7 260.6 103.5 265.9"/>
      <polygon class="cls-7" points="116.7 258.3 125.9 263.5 135 258.3 125.9 253 116.7 258.3"/>
      <polygon class="cls-7" points="113.2 245.2 122.3 250.5 131.5 245.2 122.3 240 113.2 245.2"/>
      <polygon class="cls-7" points="127.1 237.2 136.2 242.5 145.4 237.2 136.2 232 127.1 237.2"/>
      <polygon class="cls-7" points="140.7 229.4 149.8 234.7 159 229.4 149.8 224.1 140.7 229.4"/>
      <polygon class="cls-7" points="154.6 221.4 163.7 226.7 172.9 221.4 163.7 216.1 154.6 221.4"/>
      <polygon class="cls-7" points="182 205.5 191.2 210.8 200.3 205.5 191.2 200.3 182 205.5"/>
      <polygon class="cls-7" points="168.1 213.6 177.3 218.8 186.4 213.6 177.3 208.3 168.1 213.6"/>
      <polygon class="cls-7" points="168.4 197.7 177.6 203 186.8 197.7 177.6 192.4 168.4 197.7"/>
      <polygon class="cls-7" points="72.2 268.9 95.3 255.6 104.4 260.9 81.3 274.2 72.2 268.9"/>
      <polygon class="cls-7" points="131 250 140.1 255.3 190.3 226.3 181.2 221.1 131 250"/>
      <polygon class="cls-7" points="185.9 218.3 195.1 223.6 213.4 213.1 204.2 207.8 185.9 218.3"/>
      <polygon class="cls-7" points="209.7 247.7 186.8 234.5 131.8 266.2 154.7 279.4 209.7 247.7"/>
    </g>
  </g>
  <g id="Download_Upload" data-name="Download Upload">
    <g>
      <path class="cls-8" d="M103.4,170l-5.2-3V40.6l5.2,2.4Z"/>
      <path class="cls-8" d="M108.8,4.8l-4.1-2.3c-8.3,22-16.7,44.1-25,66.2l5,2.8C92.7,49.3,100.8,27.1,108.8,4.8Z"/>
    </g>
    <g>
      <path class="cls-6" d="M63,25.6,44.7,36.2,49.6,39,67.9,28.4Z"/>
      <path class="cls-6" d="M80.6,123l4.2,2.4L29.9,157.1l-3.7-2Z"/>
      <path class="cls-6" d="M49.6,165.9l-5.1-2.3.2-127.4L49.6,39Z"/>
      <path class="cls-9" d="M26.2,155.1l33.4,32.7,3.2,2.3-32.9-33Z"/>
    </g>
    <g>
      <polygon class="cls-8" points="49.6 39 49.6 165.9 67.9 155.4 67.9 28.4 49.6 39"/>
      <path class="cls-8" d="M62.8,190.1c7.3-21.6,14.7-43.1,22-64.7L29.9,157.1Z"/>
    </g>
    <g>
      <polygon class="cls-6" points="103.4 43 103.4 170 121.7 159.4 121.7 32.5 103.4 43"/>
      <path class="cls-6" d="M108.8,4.8c-8,22.3-16.1,44.5-24.1,66.7l54.9-31.6Z"/>
    </g>
  </g>
</svg>
