<svg id="Wallets" xmlns="http://www.w3.org/2000/svg" viewBox="0 0 67.7 102.1"><defs><style>.cls-1{fill:#c1d7e5}.cls-2{fill:#84baa5}.cls-3{fill:#a5d0bc}.cls-4{fill:#c7e5d3}</style></defs><path class="cls-1" d="M57.8 66.3L48.6 61l9.2-5.2 9.1 5.2-9.1 5.3z"/><path class="cls-1" d="M66.9 61l-.5.4-9.2-5.3.6-.3 9.1 5.2z"/><path class="cls-2" d="M61.4 98V34.6L9.9 4.9v63.4L61.4 98z"/><path class="cls-3" d="M59.2 35.8l-3.5 2.1v63.4l3.5-2.1V35.8zM64.9 32.6l-3.5 2V98l3.5-2V32.6z"/><path class="cls-2" d="M9.9 4.9L7.8 6.2v63.4l2.1 1.2V4.9z"/><path class="cls-4" d="M59.2 35.8L7.8 6.2l2.1-1.3 51.5 29.7 3.5-2L9.9.9.8 6.2l54.9 31.7 3.5-2.1z"/><path fill="#62a58e" d="M.8 6.2v63.4l54.9 31.7V37.9L.8 6.2z"/><path d="M46.6 62.2a7.2 7.2 0 00-1.7 2.9c-1.2 3.8 1.3 7.2 1.7 7.7l9.1 5.3 11.2-6.5V61l-11.2 6.5z" fill="#d9e6ed"/><path class="cls-1" d="M65.9 61l-10.3 6 .5.3 10.4-6-.6-.3z"/><path class="cls-1" d="M56.2 67.2l-.5.3-9.1-5.3.5-.3zM49.2 71.9a3.4 3.4 0 01-1.7-1.5 4 4 0 01-.5-2.3 1.5 1.5 0 01.8-1.1 1.4 1.4 0 011.4-.1 3.4 3.4 0 011.7 1.5 3.9 3.9 0 01.5 2.3 1.5 1.5 0 01-.8 1.1 1.4 1.4 0 01-1.4.1z"/><path class="cls-4" d="M27.3 68.7a20.7 20.7 0 01-9.6-8.3 21.1 21.1 0 01-2.8-13 9.6 9.6 0 014.5-6.6 10.2 10.2 0 017.9-.6 22 22 0 019.6 8.8 20.9 20.9 0 012.7 12.6 8.8 8.8 0 01-4.4 6.6 9 9 0 01-7.9.5z"/><path d="M28.1 59.5l-.5-.7V47.7l-2.3-1.3v2.1l-.8-.5v3.6l.8.5v1.1l-.8-.5v3.6l.8.5V58H25a2.3 2.3 0 00-.8 1.1 4 4 0 00.5 2.3 5 5 0 001.7 1.6 1.7 1.7 0 001.4-.1 2.6 2.6 0 00.8-1.2 4.8 4.8 0 00-.5-2.2z" fill="#64a0ff"/></svg>