<svg id="Wallets" xmlns="http://www.w3.org/2000/svg" viewBox="0 0 67.7 102.1">
  <defs>
    <style>
      .cls-1 {
        fill: #c1d7e5;
      }

      .cls-2 {
        fill: #84baa5;
      }

      .cls-3 {
        fill: #a5d0bc;
      }

      .cls-4 {
        fill: #c7e5d3;
      }

      .cls-5 {
        fill: #62a58e;
      }

      .cls-6 {
        fill: #d9e6ed;
      }

      .cls-7 {
        fill: #64a0ff;
      }
    </style>
  </defs>
  <g>
    <polygon class="cls-1" points="57.8 66.3 48.6 61 57.8 55.8 66.9 61 57.8 66.3"/>
    <polygon class="cls-1" points="66.9 61 66.4 61.4 57.2 56.1 57.8 55.8 66.9 61"/>
    <polygon class="cls-2" points="61.4 98 61.4 34.6 9.9 4.9 9.9 68.3 61.4 98"/>
    <polygon class="cls-3" points="59.2 35.8 55.7 37.9 55.7 101.3 59.2 99.2 59.2 35.8"/>
    <polygon class="cls-3" points="64.9 32.6 61.4 34.6 61.4 98 64.9 96 64.9 32.6"/>
    <polygon class="cls-2" points="9.9 4.9 7.8 6.2 7.8 69.6 9.9 70.8 9.9 4.9"/>
    <polygon class="cls-4" points="59.2 35.8 7.8 6.2 9.9 4.9 61.4 34.6 64.9 32.6 9.9 0.9 0.8 6.2 55.7 37.9 59.2 35.8"/>
    <polygon class="cls-5" points="0.8 6.2 0.8 69.6 55.7 101.3 55.7 37.9 0.8 6.2"/>
    <path class="cls-6" d="M46.6,62.2a7.2,7.2,0,0,0-1.7,2.9c-1.2,3.8,1.3,7.2,1.7,7.7l9.1,5.3,11.2-6.5V61L55.7,67.5Z"/>
    <polygon class="cls-1" points="65.9 61 55.6 67 56.1 67.3 66.5 61.3 65.9 61"/>
    <path class="cls-1" d="M56.2,67.2l-.5.3-9.1-5.3.5-.3Z"/>
    <path class="cls-1" d="M49.2,71.9a3.4,3.4,0,0,1-1.7-1.5,4,4,0,0,1-.5-2.3,1.5,1.5,0,0,1,.8-1.1,1.4,1.4,0,0,1,1.4-.1,3.4,3.4,0,0,1,1.7,1.5,3.9,3.9,0,0,1,.5,2.3,1.5,1.5,0,0,1-.8,1.1A1.4,1.4,0,0,1,49.2,71.9Z"/>
    <path class="cls-4" d="M27.3,68.7a20.7,20.7,0,0,1-9.6-8.3,21.1,21.1,0,0,1-2.8-13,9.6,9.6,0,0,1,4.5-6.6,10.2,10.2,0,0,1,7.9-.6A22,22,0,0,1,36.9,49a20.9,20.9,0,0,1,2.7,12.6,8.8,8.8,0,0,1-4.4,6.6A9,9,0,0,1,27.3,68.7Z"/>
    <path class="cls-7" d="M28.1,59.5l-.5-.7V47.7l-2.3-1.3v2.1l-.8-.5v3.6l.8.5v1.1l-.8-.5v3.6l.8.5V58H25a2.3,2.3,0,0,0-.8,1.1,4,4,0,0,0,.5,2.3A5,5,0,0,0,26.4,63a1.7,1.7,0,0,0,1.4-.1,2.6,2.6,0,0,0,.8-1.2A4.8,4.8,0,0,0,28.1,59.5Z"/>
  </g>
</svg>
