<svg id="Layer_1" data-name="Layer 1" xmlns="http://www.w3.org/2000/svg" xmlns:xlink="http://www.w3.org/1999/xlink" viewBox="0 0 309.6 466.1">
  <defs>
    <style>
      .cls-1 {
        opacity: 0.9;
      }

      .cls-2 {
        fill: url(#linear-gradient);
      }

      .cls-3 {
        fill: #bdbdbd;
      }

      .cls-4 {
        fill: #afafaf;
      }

      .cls-5 {
        fill: url(#linear-gradient-2);
      }

      .cls-6 {
        fill: #edeeed;
      }

      .cls-7 {
        fill: #cdd1cd;
      }
    </style>
    <linearGradient id="linear-gradient" x1="289.84" y1="131.99" x2="126.53" y2="461.73" gradientTransform="matrix(1, 0, 0, -1, 0, 468.14)" gradientUnits="userSpaceOnUse">
      <stop offset="0" stop-color="#ececec"/>
      <stop offset="1" stop-color="#e6e7e8"/>
    </linearGradient>
    <linearGradient id="linear-gradient-2" x1="226.99" y1="8.75" x2="22.23" y2="422.2" gradientTransform="matrix(1, 0, 0, -1, 0, 468.14)" gradientUnits="userSpaceOnUse">
      <stop offset="0" stop-color="#fff"/>
      <stop offset="1" stop-color="#e6e7e8"/>
    </linearGradient>
  </defs>
  <g class="cls-1">
    <path class="cls-2" d="M135,2.2c-8,84.6-16.4,169.2-24.4,253.8l170.9,84.3L305.8,86.8Z"/>
    <path class="cls-3" d="M135,2.2l1.4-.7L307.3,86.1l-1.5.7Z"/>
    <path class="cls-3" d="M307.3,86.1l-1.5.7L281.5,340.3l1.4-.5Z"/>
    <path class="cls-4" d="M287.2,109.2l-141-69.8a8.9,8.9,0,0,1-.3,2.2l141.3,69.8Z"/>
    <path class="cls-4" d="M284.9,133.5l-141-69.8c0,.7-.3,1.5-.3,2.2l141,69.8A4.1,4.1,0,0,0,284.9,133.5Z"/>
    <path class="cls-4" d="M282.6,157.9,141.6,88c0,.8-.3,1.5-.3,2.2l141,69.9C282.3,159.3,282.6,158.6,282.6,157.9Z"/>
    <path class="cls-4" d="M279.8,182.2,138.7,112.4c0,.7-.3,1.4-.3,2.2l141.1,69.8A8.3,8.3,0,0,0,279.8,182.2Z"/>
    <path class="cls-4" d="M278,206.8,136.7,137v2.2L277.8,209A5.5,5.5,0,0,1,278,206.8Z"/>
    <path class="cls-4" d="M275.7,230.9,134.4,161.1v2.2l141.1,69.8A5.3,5.3,0,0,1,275.7,230.9Z"/>
    <path class="cls-4" d="M273.2,255.2,132.1,185.4a4.2,4.2,0,0,1-.3,2.2l141.4,69.8Z"/>
    <path class="cls-4" d="M270.9,279.6,129.8,209.7c0,.8-.3,1.5-.3,2.2l141.1,69.9A8.3,8.3,0,0,0,270.9,279.6Z"/>
    <path class="cls-5" d="M32.8,40.7c-10,106-20.5,212.1-30.5,318.1L216.5,464.6l30.6-317.9Z"/>
    <path class="cls-6" d="M32.8,40.7l1.8-.9,214.3,106-1.8.9Z"/>
    <path class="cls-6" d="M248.9,145.8l-1.8.9L216.5,464.6l1.8-.6Z"/>
    <path class="cls-7" d="M223.7,174.8,46.8,87.2a6.5,6.5,0,0,1-.3,2.8l177.2,87.6Z"/>
    <path class="cls-7" d="M220.8,205.3,44,117.8c0,.9-.4,1.8-.4,2.7l176.9,87.6A6.5,6.5,0,0,0,220.8,205.3Z"/>
    <path class="cls-7" d="M217.9,235.8,41.1,148.3c0,.9-.4,1.8-.4,2.8l176.9,87.5C217.6,237.7,217.9,236.8,217.9,235.8Z"/>
    <path class="cls-7" d="M214.3,266.4,37.5,178.8c0,.9-.4,1.9-.4,2.8L214,269.1A6.3,6.3,0,0,0,214.3,266.4Z"/>
    <path class="cls-7" d="M212.2,297.2,35,209.6v2.8L211.8,300A8.6,8.6,0,0,1,212.2,297.2Z"/>
    <path class="cls-7" d="M209.3,327.4,32.1,239.8v2.8L209,330.2A6.5,6.5,0,0,1,209.3,327.4Z"/>
    <path class="cls-7" d="M206.1,357.9,29.2,270.4a6.3,6.3,0,0,1-.3,2.7l177.2,87.6Z"/>
    <path class="cls-7" d="M203.2,388.4,26.4,300.9c0,.9-.4,1.8-.4,2.8l176.8,87.5A6.6,6.6,0,0,0,203.2,388.4Z"/>
  </g>
</svg>
