<svg id="Layer_1" data-name="Layer 1" xmlns="http://www.w3.org/2000/svg" viewBox="0 0 309.6 466.1"><defs><linearGradient id="linear-gradient" x1="289.84" y1="131.99" x2="126.53" y2="461.73" gradientTransform="matrix(1 0 0 -1 0 468.14)" gradientUnits="userSpaceOnUse"><stop offset="0" stop-color="#ececec"/><stop offset="1" stop-color="#e6e7e8"/></linearGradient><linearGradient id="linear-gradient-2" x1="226.99" y1="8.75" x2="22.23" y2="422.2" gradientTransform="matrix(1 0 0 -1 0 468.14)" gradientUnits="userSpaceOnUse"><stop offset="0" stop-color="#fff"/><stop offset="1" stop-color="#e6e7e8"/></linearGradient><style>.cls-3{fill:#bdbdbd}.cls-4{fill:#afafaf}.cls-6{fill:#edeeed}.cls-7{fill:#cdd1cd}</style></defs><g opacity=".9"><path d="M135 2.2c-8 84.6-16.4 169.2-24.4 253.8l170.9 84.3 24.3-253.5z" fill="url(#linear-gradient)"/><path class="cls-3" d="M135 2.2l1.4-.7 170.9 84.6-1.5.7z"/><path class="cls-3" d="M307.3 86.1l-1.5.7-24.3 253.5 1.4-.5z"/><path class="cls-4" d="M287.2 109.2l-141-69.8a8.9 8.9 0 01-.3 2.2l141.3 69.8zM284.9 133.5l-141-69.8c0 .7-.3 1.5-.3 2.2l141 69.8a4.1 4.1 0 00.3-2.2zM282.6 157.9L141.6 88c0 .8-.3 1.5-.3 2.2l141 69.9c0-.8.3-1.5.3-2.2zM279.8 182.2l-141.1-69.8c0 .7-.3 1.4-.3 2.2l141.1 69.8a8.3 8.3 0 00.3-2.2zM278 206.8L136.7 137v2.2L277.8 209a5.5 5.5 0 01.2-2.2zM275.7 230.9l-141.3-69.8v2.2l141.1 69.8a5.3 5.3 0 01.2-2.2zM273.2 255.2l-141.1-69.8a4.2 4.2 0 01-.3 2.2l141.4 69.8zM270.9 279.6l-141.1-69.9c0 .8-.3 1.5-.3 2.2l141.1 69.9a8.3 8.3 0 00.3-2.2z"/><path d="M32.8 40.7c-10 106-20.5 212.1-30.5 318.1l214.2 105.8 30.6-317.9z" fill="url(#linear-gradient-2)"/><path class="cls-6" d="M32.8 40.7l1.8-.9 214.3 106-1.8.9z"/><path class="cls-6" d="M248.9 145.8l-1.8.9-30.6 317.9 1.8-.6z"/><path class="cls-7" d="M223.7 174.8L46.8 87.2a6.5 6.5 0 01-.3 2.8l177.2 87.6zM220.8 205.3L44 117.8c0 .9-.4 1.8-.4 2.7l176.9 87.6a6.5 6.5 0 00.3-2.8zM217.9 235.8L41.1 148.3c0 .9-.4 1.8-.4 2.8l176.9 87.5c0-.9.3-1.8.3-2.8zM214.3 266.4L37.5 178.8c0 .9-.4 1.9-.4 2.8L214 269.1a6.3 6.3 0 00.3-2.7zM212.2 297.2L35 209.6v2.8L211.8 300a8.6 8.6 0 01.4-2.8zM209.3 327.4L32.1 239.8v2.8L209 330.2a6.5 6.5 0 01.3-2.8zM206.1 357.9L29.2 270.4a6.3 6.3 0 01-.3 2.7l177.2 87.6zM203.2 388.4L26.4 300.9c0 .9-.4 1.8-.4 2.8l176.8 87.5a6.6 6.6 0 00.4-2.8z"/></g></svg>