<svg id="Layer_1" data-name="Layer 1" xmlns="http://www.w3.org/2000/svg" viewBox="0 0 20 20"><defs><style>.cls-1{fill:#1d428a}.cls-2{fill:none;stroke:#1d428a;stroke-miterlimit:10;stroke-width:1.01px}</style></defs><path class="cls-1" d="M10 1a9.1 9.1 0 019 9 9.1 9.1 0 01-9 9 9.1 9.1 0 01-9-9 9.1 9.1 0 019-9m0-1a10 10 0 1010 10A10 10 0 0010 0z"/><path class="cls-2" d="M.4 10h19.3M2.2 4.4A21.8 21.8 0 0010 5.9a21.8 21.8 0 007.8-1.5M2.2 15.8a19.8 19.8 0 017.8-1.5 19.8 19.8 0 017.8 1.5"/><path class="cls-1" d="M10 1c1.7 0 3.7 3.9 3.7 9s-2 8.9-3.7 8.9-3.7-3.8-3.7-8.9 2-9 3.7-9m0-1C7.4 0 5.3 4.5 5.3 10s2.1 9.9 4.7 9.9 4.7-4.4 4.7-9.9S12.6 0 10 0z"/></svg>