<svg version="1.1" id="Layer_1" xmlns="http://www.w3.org/2000/svg" x="0" y="0" viewBox="0 0 512.1 512.1" xml:space="preserve"><style>.st0{fill:#fff}</style><path class="st0" d="M224.3 303.9c27.7-16 54.9-31.6 83.1-47.9-28.2-16.2-55.4-31.9-83.1-47.9v95.8z"/><path class="st0" d="M256 0C114.7 0 0 114.7 0 256s114.6 256 256 256 256-114.6 256-256S397.4 0 256 0zm155.9 320.9c-3.9 28.5-17.3 41.2-46.6 43-36.1 2.2-72.2 3.5-108.4 5.3-36-1.7-71.9-3.3-107.8-5.2-5.1-.3-10.3-1-15.3-2.2-17.1-3.9-28.1-14.4-31.6-31.5-5.9-28.2-6.8-56.9-5.7-85.6.7-20.6 2.5-41.3 5.7-61.6 3.1-20 17-32.5 37.1-33.9 34.7-2.4 69.5-4.6 104.3-4.9 36.6-.3 73.3 1.6 109.9 2.8 8 .3 15.9 1.4 23.8 2.9 17.6 3.3 29.5 13.9 32.6 31.5 3.1 18 4.8 36.3 5.8 54.5 1.4 28.5 0 56.8-3.8 84.9z"/></svg>