<svg width="169" height="50" viewBox="0 0 169 50" fill="none" xmlns="http://www.w3.org/2000/svg">
<g id="Group 38239">
<g id="Group">
<g id="Vector">
<mask id="path-1-inside-1_1997_6763" fill="white">
<path d="M162.75 1C165.644 1 168.001 3.35423 168.001 6.24966V43.7522C168.001 46.6463 165.644 49.0033 162.75 49.0033H6.49966C3.60558 49.0033 1.25 46.6463 1.25 43.7522V6.24966C1.25 3.35423 3.60423 1 6.49966 1H162.751"/>
</mask>
<path d="M162.75 1C165.644 1 168.001 3.35423 168.001 6.24966V43.7522C168.001 46.6463 165.644 49.0033 162.75 49.0033H6.49966C3.60558 49.0033 1.25 46.6463 1.25 43.7522V6.24966C1.25 3.35423 3.60423 1 6.49966 1H162.751" fill="white"/>
<path d="M162.75 2C165.092 2 167.001 3.90701 167.001 6.24966H169.001C169.001 2.80144 166.196 0 162.75 0V2ZM167.001 6.24966V43.7522H169.001V6.24966H167.001ZM167.001 43.7522C167.001 46.094 165.092 48.0033 162.75 48.0033V50.0033C166.196 50.0033 169.001 47.1986 169.001 43.7522H167.001ZM162.75 48.0033H6.49966V50.0033H162.75V48.0033ZM6.49966 48.0033C4.1582 48.0033 2.25 46.0944 2.25 43.7522H0.25C0.25 47.1983 3.05296 50.0033 6.49966 50.0033V48.0033ZM2.25 43.7522V6.24966H0.25V43.7522H2.25ZM2.25 6.24966C2.25 3.90651 4.15651 2 6.49966 2V0C3.05194 0 0.25 2.80194 0.25 6.24966H2.25ZM6.49966 2H162.751V0H6.49966V2Z" fill="#EDEDED" mask="url(#path-1-inside-1_1997_6763)"/>
</g>
<path id="Vector_2" d="M162.75 1C165.644 1 168.001 3.35423 168.001 6.24966V43.7522C168.001 46.6463 165.644 49.0033 162.75 49.0033H6.49966C3.60558 49.0033 1.25 46.6463 1.25 43.7522V6.24966C1.25 3.35423 3.60423 1 6.49966 1H162.751" stroke="#EDEDED" stroke-miterlimit="10"/>
</g>
<g id="Group 38238">
<g id="Group 38234">
<path id="Vector_3" d="M41.582 23.8597C41.5486 20.3 44.4979 18.5679 44.6329 18.4866C42.9641 16.0509 40.3743 15.7177 39.4665 15.6914C37.2912 15.462 35.184 16.9934 34.0778 16.9934C32.9717 16.9934 31.2408 15.7153 29.4047 15.7499C27.0395 15.7869 24.8272 17.1559 23.6123 19.2834C21.1085 23.6184 22.978 29.989 25.3755 33.4938C26.5748 35.2092 27.9784 37.1288 29.8121 37.0584C31.6087 36.9855 32.2788 35.914 34.4469 35.914C36.6151 35.914 37.2243 37.0584 39.0973 37.0166C41.0242 36.9855 42.2366 35.2928 43.3953 33.5607C44.7822 31.5945 45.3389 29.6569 45.3616 29.5578C45.315 29.5422 41.619 28.1291 41.582 23.8597Z" fill="black"/>
<path id="Vector_4" d="M38.0449 13.3842C39.0101 12.1765 39.6719 10.534 39.4891 8.86523C38.0915 8.92855 36.3415 9.83282 35.3369 11.0142C34.4445 12.0547 33.6478 13.7629 33.8556 15.3648C35.4252 15.4819 37.0367 14.574 38.0461 13.383" fill="black"/>
<path id="Vector_5" d="M63.1276 32.8868H57.2337L55.8181 37.0654H53.3203L58.9037 21.6055H61.4982L67.0792 37.0654H64.5396L63.1264 32.8868H63.1276ZM57.8441 30.9576H62.5148L60.2141 24.1773H60.1484L57.8453 30.9576H57.8441Z" fill="black"/>
<path id="Vector_6" d="M79.1348 31.4299C79.1348 34.9324 77.2617 37.1829 74.4306 37.1829C72.8239 37.1829 71.5482 36.4638 70.8816 35.2107H70.8314V40.7941H68.5176V25.7928H70.7574V27.6683H70.7992C71.443 26.4582 72.8132 25.6758 74.3876 25.6758C77.251 25.6758 79.1348 27.9371 79.1348 31.4311M76.7564 31.4311C76.7564 29.1472 75.5774 27.6468 73.776 27.6468C71.9746 27.6468 70.8207 29.1806 70.8207 31.4311C70.8207 33.6817 72.0105 35.2227 73.776 35.2227C75.5416 35.2227 76.7564 33.733 76.7564 31.4311Z" fill="black"/>
<path id="Vector_7" d="M91.543 31.4299C91.543 34.9324 89.6699 37.1829 86.8388 37.1829C85.2321 37.1829 83.9564 36.4638 83.2898 35.2107H83.2396V40.7941H80.9258V25.7928H83.1656V27.6683H83.2074C83.8512 26.4582 85.2214 25.6758 86.7958 25.6758C89.6592 25.6758 91.543 27.9371 91.543 31.4311M89.1646 31.4311C89.1646 29.1472 87.9856 27.6468 86.1842 27.6468C84.3828 27.6468 83.2289 29.1806 83.2289 31.4311C83.2289 33.6817 84.4175 35.2227 86.1842 35.2227C87.9509 35.2227 89.1646 33.733 89.1646 31.4311Z" fill="black"/>
<path id="Vector_8" d="M99.7411 32.7561C99.9131 34.2899 101.4 35.2957 103.437 35.2957C105.474 35.2957 106.791 34.2911 106.791 32.9066C106.791 31.7073 105.943 30.9893 103.939 30.4972L101.938 30.0146C99.0972 29.3265 97.7784 28.0018 97.7784 25.8468C97.7784 23.1782 100.104 21.3457 103.404 21.3457C106.703 21.3457 108.912 23.177 108.987 25.8468H106.653C106.512 24.3034 105.237 23.3717 103.373 23.3717C101.508 23.3717 100.234 24.3154 100.234 25.6855C100.234 26.7785 101.048 27.4224 103.04 27.9158L104.744 28.3327C107.915 29.0816 109.234 30.3562 109.234 32.6199C109.234 35.5119 106.931 37.3241 103.265 37.3241C99.8355 37.3241 97.5204 35.5561 97.3711 32.7573H99.7411V32.7561Z" fill="black"/>
<path id="Vector_9" d="M114.232 23.125V25.7948H116.376V27.6261H114.232V33.8402C114.232 34.8077 114.662 35.2569 115.606 35.2569C115.839 35.2569 116.216 35.2211 116.367 35.2019V37.0248C116.111 37.0881 115.595 37.1311 115.081 37.1311C112.797 37.1311 111.907 36.2735 111.907 34.0898V27.6273H110.27V25.796H111.907V23.1262H114.233L114.232 23.125Z" fill="black"/>
<path id="Vector_10" d="M117.615 31.4312C117.615 27.8845 119.705 25.6543 122.962 25.6543C126.22 25.6543 128.309 27.8845 128.309 31.4312C128.309 34.9778 126.239 37.2056 122.962 37.2056C119.685 37.2056 117.615 34.9862 117.615 31.4312ZM125.951 31.4312C125.951 28.9979 124.835 27.5608 122.962 27.5608C121.089 27.5608 119.971 29.0062 119.971 31.4312C119.971 33.8561 121.087 35.2967 122.962 35.2967C124.838 35.2967 125.951 33.8704 125.951 31.4312Z" fill="black"/>
<path id="Vector_11" d="M130.218 25.7933H132.424V27.7105H132.477C132.832 26.436 133.861 25.6738 135.19 25.6738C135.521 25.6738 135.8 25.718 135.981 25.7598V27.9268C135.8 27.8515 135.392 27.7858 134.942 27.7858C133.453 27.7858 132.531 28.7928 132.531 30.3804V37.0651H130.217V25.7933H130.218Z" fill="black"/>
<path id="Vector_12" d="M146.65 33.7546C146.337 35.7996 144.345 37.2068 141.797 37.2068C138.517 37.2068 136.482 35.0089 136.482 31.4825C136.482 27.9562 138.528 25.6543 141.698 25.6543C144.868 25.6543 146.778 27.7961 146.778 31.2149V32.0057H138.817V32.1467C138.817 34.0759 140.027 35.3385 141.85 35.3385C143.135 35.3385 144.142 34.7305 144.452 33.7534H146.65V33.7546ZM138.829 30.3907H144.464C144.412 28.6646 143.307 27.5274 141.698 27.5274C140.089 27.5274 138.947 28.6873 138.829 30.3907Z" fill="black"/>
<path id="Vector_13" d="M57.556 9.96484C59.7576 9.96484 61.0513 11.3207 61.0513 13.6572C61.0513 15.9938 59.7683 17.3974 57.556 17.3974H54.873V9.96484H57.556ZM56.027 16.3438H57.427C58.9811 16.3438 59.8782 15.3786 59.8782 13.6727C59.8782 11.9669 58.9656 11.0172 57.427 11.0172H56.027V16.345V16.3438Z" fill="black"/>
<path id="Vector_14" d="M62.3535 14.5892C62.3535 12.7818 63.3629 11.6816 64.9983 11.6816C66.6336 11.6816 67.6406 12.7818 67.6406 14.5892C67.6406 16.3965 66.6372 17.5027 64.9983 17.5027C63.3593 17.5027 62.3535 16.4049 62.3535 14.5892ZM66.5046 14.5892C66.5046 13.3719 65.9575 12.6624 64.9995 12.6624C64.0414 12.6624 63.4991 13.3719 63.4991 14.5892C63.4991 15.8064 64.039 16.5196 64.9995 16.5196C65.9599 16.5196 66.5046 15.81 66.5046 14.5892Z" fill="black"/>
<path id="Vector_15" d="M74.6718 17.3963H73.5238L72.3663 13.2655H72.2779L71.1251 17.3963H69.9879L68.4434 11.7891H69.565L70.5697 16.0656H70.6509L71.8036 11.7891H72.8668L74.0195 16.0656H74.1055L75.1066 11.7891H76.2127L74.6718 17.3963Z" fill="black"/>
<path id="Vector_16" d="M77.5117 11.7903H78.5761V12.6803H78.6597C78.9332 12.0567 79.4887 11.6816 80.3321 11.6816C81.584 11.6816 82.272 12.433 82.272 13.7649V17.3976H81.1659V14.0433C81.1659 13.1438 80.7752 12.697 79.9558 12.697C79.1363 12.697 78.6179 13.2417 78.6179 14.1185V17.3988H77.5117V11.7915V11.7903Z" fill="black"/>
<path id="Vector_17" d="M85.1394 9.59961H84.0332V17.3953H85.1394V9.59961Z" fill="black"/>
<path id="Vector_18" d="M86.6797 14.5892C86.6797 12.7818 87.6891 11.6816 89.3244 11.6816C90.9598 11.6816 91.9692 12.7818 91.9692 14.5892C91.9692 16.3965 90.9646 17.5027 89.3244 17.5027C87.6843 17.5027 86.6797 16.4049 86.6797 14.5892ZM90.8308 14.5892C90.8308 13.3719 90.2837 12.6624 89.3256 12.6624C88.3676 12.6624 87.8253 13.3719 87.8253 14.5892C87.8253 15.8064 88.3652 16.5196 89.3256 16.5196C90.286 16.5196 90.8308 15.81 90.8308 14.5892Z" fill="black"/>
<path id="Vector_19" d="M93.134 15.81C93.134 14.8006 93.8854 14.2189 95.2185 14.1353L96.7368 14.0492V13.5643C96.7368 12.9741 96.3438 12.6361 95.5888 12.6361C94.9712 12.6361 94.5424 12.8654 94.4205 13.262H93.349C93.4613 12.2992 94.368 11.6816 95.639 11.6816C97.045 11.6816 97.8394 12.3805 97.8394 13.5643V17.3952H96.7726V16.6056H96.6866C96.3509 17.1682 95.7393 17.4872 94.9999 17.4872C93.92 17.4872 93.1328 16.8349 93.1328 15.81M96.7368 15.3298V14.8627L95.3654 14.9487C94.5938 15.0013 94.2461 15.2641 94.2461 15.7575C94.2461 16.2508 94.6821 16.5578 95.2842 16.5578C96.1192 16.5578 96.7368 16.0238 96.7368 15.3298Z" fill="black"/>
<path id="Vector_20" d="M99.2895 14.5905C99.2895 12.8189 100.202 11.6984 101.619 11.6984C102.383 11.6984 103.034 12.0616 103.335 12.6816H103.419V9.59961H104.525V17.3953H103.464V16.5089H103.376C103.043 17.1217 102.388 17.4849 101.616 17.4849C100.188 17.4849 99.2871 16.3656 99.2871 14.5881M100.431 14.5881C100.431 15.7778 100.992 16.4922 101.931 16.4922C102.87 16.4922 103.438 15.7671 103.438 14.5917C103.438 13.4162 102.856 12.6875 101.931 12.6875C101.005 12.6875 100.431 13.4078 100.431 14.5881Z" fill="black"/>
<path id="Vector_21" d="M109.105 14.5892C109.105 12.7818 110.115 11.6816 111.753 11.6816C113.39 11.6816 114.395 12.7818 114.395 14.5892C114.395 16.3965 113.39 17.5027 111.753 17.5027C110.115 17.5027 109.105 16.4049 109.105 14.5892ZM113.257 14.5892C113.257 13.3719 112.709 12.6624 111.754 12.6624C110.798 12.6624 110.251 13.3719 110.251 14.5892C110.251 15.8064 110.791 16.5196 111.754 16.5196C112.717 16.5196 113.257 15.81 113.257 14.5892Z" fill="black"/>
<path id="Vector_22" d="M115.879 11.7903H116.943V12.6803H117.027C117.3 12.0567 117.856 11.6816 118.699 11.6816C119.951 11.6816 120.639 12.433 120.639 13.7649V17.3976H119.533V14.0433C119.533 13.1438 119.141 12.697 118.323 12.697C117.505 12.697 116.985 13.2417 116.985 14.1185V17.3988H115.879V11.7915V11.7903Z" fill="black"/>
<path id="Vector_23" d="M126.892 10.3926V11.8165H128.107V12.747H126.892V15.6295C126.892 16.2184 127.134 16.4741 127.685 16.4741C127.855 16.4741 127.951 16.4657 128.105 16.4478V17.3712C127.928 17.4022 127.72 17.4261 127.503 17.4261C126.273 17.4261 125.784 16.9937 125.784 15.9138V12.747H124.895V11.8165H125.784V10.3926H126.891H126.892Z" fill="black"/>
<path id="Vector_24" d="M129.619 9.59961H130.717V12.6875H130.805C131.076 12.0592 131.669 11.6841 132.514 11.6841C133.706 11.6841 134.444 12.4403 134.444 13.7758V17.3953H133.338V14.0493C133.338 13.1522 132.918 12.6983 132.138 12.6983C131.231 12.6983 130.725 13.2717 130.725 14.1198V17.3953H129.619V9.59961Z" fill="black"/>
<path id="Vector_25" d="M140.895 15.8805C140.644 16.8851 139.747 17.5051 138.467 17.5051C136.86 17.5051 135.877 16.4025 135.877 14.6083C135.877 12.8141 136.88 11.6816 138.462 11.6816C140.044 11.6816 140.961 12.746 140.961 14.508V14.8938H137.002V14.9559C137.039 15.9414 137.61 16.5626 138.497 16.5626C139.164 16.5626 139.623 16.3225 139.83 15.8817H140.894L140.895 15.8805ZM137.002 14.0755H139.835C139.808 13.1963 139.274 12.6229 138.455 12.6229C137.635 12.6229 137.064 13.1999 137.002 14.0755Z" fill="black"/>
</g>
</g>
</g>
</svg>
