<svg width="61" height="89" viewBox="0 0 61 89" fill="none" xmlns="http://www.w3.org/2000/svg">
<g id="Group 38233">
<g id="Group">
<g id="Group_2">
<path id="Vector" d="M36.1652 21.791C34.8552 21.791 33.7852 22.861 33.7852 24.171C33.7852 25.481 34.8552 26.551 36.1652 26.551C37.4752 26.551 38.5452 25.481 38.5452 24.171C38.5452 22.861 37.4752 21.791 36.1652 21.791Z" fill="#EE6E31"/>
<path id="Vector_2" d="M36.1648 18.3909C33.6948 18.3909 31.5748 19.9409 30.7548 22.1309C30.0648 23.9409 27.6648 24.2909 26.4948 22.7409C26.0548 22.1709 25.3648 21.7909 24.5948 21.7909C23.2748 21.7909 22.2148 22.8609 22.2148 24.1709C22.2148 25.4809 23.2848 26.5509 24.5948 26.5509C25.3948 26.5509 26.0948 26.1609 26.5348 25.5609C27.6448 24.0209 30.1148 24.5309 30.7648 26.2409C31.5948 28.4209 33.7048 29.9609 36.1748 29.9609C39.3748 29.9609 41.9648 27.3709 41.9648 24.1709C41.9648 20.9709 39.3748 18.3809 36.1748 18.3809L36.1648 18.3909ZM36.1648 27.9509C34.0748 27.9509 32.3848 26.2609 32.3848 24.1709C32.3848 22.0809 34.0748 20.3909 36.1648 20.3909C38.2548 20.3909 39.9448 22.0809 39.9448 24.1709C39.9448 26.2609 38.2548 27.9509 36.1648 27.9509Z" fill="#EE6E31"/>
<path id="Vector_3" d="M28.4149 26.0406C28.0749 26.0406 27.7649 26.2106 27.5849 26.4806C26.8949 27.3806 25.8049 27.9606 24.5849 27.9606C22.4949 27.9606 20.8049 26.2706 20.8049 24.1806C20.8049 22.0906 22.4949 20.4006 24.5849 20.4006C25.8049 20.4006 26.9049 20.9906 27.5949 21.8906C27.6049 21.9006 27.6149 21.9206 27.6249 21.9306C27.8049 22.1506 28.0849 22.3006 28.4049 22.3006C28.9549 22.3006 29.4049 21.8506 29.4049 21.3006C29.4049 21.1006 29.3449 20.9206 29.2449 20.7606C29.2449 20.7406 29.2249 20.7206 29.2149 20.7106C28.1549 19.3006 26.4749 18.3906 24.5849 18.3906C21.3849 18.3906 18.7949 20.9806 18.7949 24.1806C18.7949 27.3806 21.3849 29.9706 24.5849 29.9706C26.4649 29.9706 28.1349 29.0806 29.1849 27.6906C29.3249 27.5206 29.4149 27.2906 29.4149 27.0506C29.4149 26.4906 28.9649 26.0406 28.4049 26.0406H28.4149Z" fill="#EE6E31"/>
</g>
<path id="Vector_4" d="M30.3741 0C14.0141 0 0.744141 13.26 0.744141 29.63C0.744141 46 14.0041 59.26 30.3741 59.26C46.7441 59.26 60.0041 46 60.0041 29.63C60.0041 13.26 46.7341 0 30.3741 0ZM30.3741 45.73C21.4841 45.73 14.2741 38.52 14.2741 29.63C14.2741 20.74 21.4841 13.53 30.3741 13.53C39.2641 13.53 46.4741 20.74 46.4741 29.63C46.4741 38.52 39.2641 45.73 30.3741 45.73Z" fill="#EE6E31"/>
<path id="Vector_5" d="M37.3947 34.1991C37.3947 33.3191 36.6847 32.6191 35.8147 32.6191C34.9447 32.6191 34.2347 33.3291 34.2347 34.1991C34.2347 34.2191 34.2347 34.2391 34.2347 34.2591C34.2347 36.6091 32.3247 38.5191 29.9747 38.5191C27.6247 38.5191 25.7147 36.6091 25.7147 34.2591C25.7147 34.2591 25.7147 34.2191 25.7147 34.1991C25.7147 33.3191 25.0047 32.6191 24.1347 32.6191C23.2647 32.6191 22.5547 33.3291 22.5547 34.1991C22.5547 34.2191 22.5547 34.2391 22.5547 34.2591C22.5547 38.3591 25.8847 41.6891 29.9847 41.6891C34.0847 41.6891 37.4147 38.3591 37.4147 34.2591C37.4147 34.2591 37.4147 34.2191 37.4147 34.1991H37.3947Z" fill="#EE6E31"/>
</g>
<g id="Group_3">
<g id="Group_4">
<path id="Vector_6" d="M41.413 82.6309C37.543 82.6309 34.543 79.6309 34.543 75.7709C34.543 71.9309 37.583 68.8909 41.423 68.8809C45.253 68.8809 48.333 71.9609 48.333 75.8009C48.333 79.8009 44.883 82.8009 41.413 82.6309ZM37.843 75.7709C37.843 77.8009 39.383 79.3209 41.433 79.3209C43.433 79.3209 45.013 77.7709 45.013 75.7909C45.013 73.8109 43.453 72.2509 41.453 72.2509C39.373 72.2509 37.853 73.7309 37.853 75.7809L37.843 75.7709Z" fill="#2D2D2D"/>
<path id="Vector_7" d="M13.1128 69.5215C15.1128 69.5215 15.1228 69.5215 15.8728 71.3915C16.5028 72.9615 17.1228 74.5415 17.7528 76.1115C17.8028 76.2315 17.8028 76.4315 17.9728 76.4315C18.1328 76.4315 18.1428 76.2315 18.1928 76.1115C18.9628 74.2615 19.7328 72.4115 20.4828 70.5515C20.7628 69.8515 21.2528 69.5315 21.9828 69.5215C22.6028 69.5215 23.2328 69.5215 23.8528 69.5215C24.3428 69.5215 24.3828 69.5715 24.1928 70.0315C23.0428 72.8815 21.8828 75.7315 20.7328 78.5915C19.8428 80.7915 18.9428 83.0015 18.0628 85.2015C17.3628 86.9715 16.0928 87.9415 14.1628 88.0215C13.5528 88.0415 13.5228 88.0115 13.7428 87.4515C14.5228 85.4915 15.3028 83.5215 16.1028 81.5715C16.2328 81.2615 16.2328 80.9915 16.1028 80.6815C14.6528 77.1615 13.2128 73.6315 11.7728 70.1115C11.5428 69.5515 11.5528 69.5215 12.1728 69.5215C12.4828 69.5215 12.7928 69.5215 13.1028 69.5215H13.1128Z" fill="#2D2D2D"/>
<path id="Vector_8" d="M10.2134 80.3309C10.2134 80.7209 10.2034 81.1109 10.2134 81.5009C10.2234 81.8109 10.1034 81.9809 9.81339 82.1009C6.36339 83.4709 2.26339 82.3509 0.623394 78.7009C-1.29661 74.4309 1.39339 69.5409 6.29339 69.0509C7.47339 68.9309 8.58339 69.1009 9.66339 69.5609C10.0534 69.7309 10.2834 69.9509 10.2134 70.4009C10.1834 70.5809 10.1934 70.7709 10.1534 70.9509C9.91339 71.9709 9.30339 72.3909 8.28339 72.2309C7.52339 72.1209 6.79339 72.2009 6.08339 72.4809C4.50339 73.1209 3.63339 74.5609 3.77339 76.3009C3.89339 77.8109 5.02339 79.0409 6.65339 79.3909C7.77339 79.6309 8.88339 79.6609 9.86339 78.9009C10.1134 78.7109 10.2134 78.7809 10.2134 79.0809C10.2134 79.5009 10.2134 79.9209 10.2134 80.3409V80.3309Z" fill="#2D2D2D"/>
<path id="Vector_9" d="M34.2134 80.3309C34.2134 80.7209 34.2034 81.1109 34.2134 81.5009C34.2234 81.8109 34.1034 81.9809 33.8134 82.1009C30.3634 83.4709 26.2634 82.3509 24.6234 78.7009C22.7034 74.4309 25.3934 69.5409 30.2934 69.0509C31.4734 68.9309 32.5834 69.1009 33.6634 69.5609C34.0534 69.7309 34.2834 69.9509 34.2134 70.4009C34.1834 70.5809 34.1934 70.7709 34.1534 70.9509C33.9134 71.9709 33.3034 72.3909 32.2834 72.2309C31.5234 72.1209 30.7934 72.2009 30.0834 72.4809C28.5034 73.1209 27.6334 74.5609 27.7734 76.3009C27.8934 77.8109 29.0234 79.0409 30.6534 79.3909C31.7734 79.6309 32.8834 79.6609 33.8634 78.9009C34.1134 78.7109 34.2134 78.7809 34.2134 79.0809C34.2134 79.5009 34.2134 79.9209 34.2134 80.3409V80.3309Z" fill="#2D2D2D"/>
</g>
<path id="Vector_10" d="M49.4727 82.6415C49.4727 82.6415 51.9827 82.4315 52.4527 80.7415V74.8115L57.7927 82.6415C57.7927 82.6415 60.0027 83.1715 60.6127 79.9215L60.7427 69.6515C60.7427 69.6515 58.7127 69.3715 57.7127 71.5615L57.8427 76.5215L52.4527 69.6415C52.4527 69.6415 50.1727 68.6115 49.4727 70.7415V82.6415Z" fill="#2D2D2D"/>
</g>
</g>
</svg>
