<svg width="50" height="50" viewBox="0 0 50 50" fill="none" xmlns="http://www.w3.org/2000/svg">
<path d="M25.3754 18.7989C24.6829 19.1988 24.4438 20.0911 24.8436 20.7836C25.2435 21.4762 26.1358 21.7153 26.8283 21.3154C27.5209 20.9156 27.76 20.0233 27.3601 19.3307C26.9603 18.6382 26.068 18.3991 25.3754 18.7989Z" fill="#FF7E41"/>
<path d="M24.337 17.0032C23.0312 17.7571 22.3835 19.2236 22.6185 20.6317C22.8061 21.7992 21.6442 22.7168 20.5525 22.2545C20.1459 22.0874 19.6651 22.0972 19.2581 22.3322C18.5602 22.7351 18.3264 23.6243 18.7263 24.3169C19.1261 25.0094 20.0184 25.2485 20.7109 24.8487C21.1339 24.6045 21.3849 24.1846 21.4344 23.7331C21.5512 22.5802 23.0127 22.0959 23.8782 22.8015C24.9824 23.7007 26.568 23.8708 27.8738 23.1169C29.5656 22.1402 30.1443 19.9803 29.1675 18.2886C28.1908 16.5968 26.031 16.0181 24.3392 16.9949L24.337 17.0032ZM27.255 22.0573C26.1501 22.6952 24.7408 22.3176 24.1029 21.2127C23.4649 20.1078 23.8425 18.6985 24.9475 18.0605C26.0524 17.4226 27.4617 17.8002 28.0996 18.9052C28.7376 20.0101 28.3599 21.4194 27.255 22.0573Z" fill="#FF7E41"/>
<path d="M22.5771 23.4088C22.3973 23.5126 22.2853 23.6971 22.2726 23.8948C22.1825 24.5812 21.7833 25.2205 21.1383 25.5929C20.0334 26.2308 18.6241 25.8532 17.9862 24.7483C17.3482 23.6434 17.7258 22.2341 18.8308 21.5961C19.4758 21.2238 20.2374 21.1999 20.8769 21.4651C20.8852 21.4674 20.8966 21.4749 20.9049 21.4771C21.0673 21.5385 21.2611 21.5323 21.4302 21.4346C21.721 21.2668 21.8216 20.8915 21.6537 20.6007C21.5926 20.495 21.506 20.4182 21.4043 20.3641C21.3982 20.3535 21.3815 20.349 21.3731 20.3468C20.3824 19.9249 19.2165 19.9566 18.2173 20.5335C16.5255 21.5102 15.9468 23.67 16.9235 25.3618C17.9003 27.0535 20.0601 27.6323 21.7518 26.6555C22.7457 26.0817 23.357 25.1014 23.4878 24.0461C23.5099 23.9135 23.4873 23.7644 23.414 23.6376C23.2431 23.3415 22.8679 23.2409 22.5718 23.4119L22.5771 23.4088Z" fill="#FF7E41"/>
<path d="M15.6646 9.04395C7.01019 14.0406 4.04734 25.0981 9.04394 33.7525C14.0405 42.4068 25.0981 45.3697 33.7524 40.3731C42.4068 35.3765 45.3697 24.3189 40.3731 15.6646C35.3765 7.01021 24.3136 4.0504 15.6646 9.04395ZM29.6227 33.2201C24.9228 35.9336 18.9104 34.3226 16.1969 29.6227C13.4834 24.9228 15.0944 18.9104 19.7943 16.1969C24.4942 13.4834 30.5066 15.0944 33.2201 19.7943C35.9336 24.4942 34.3226 30.5067 29.6227 33.2201Z" fill="#FF7E41"/>
<path d="M29.8102 24.9834C29.5416 24.5182 28.9526 24.3648 28.4926 24.6304C28.0327 24.8959 27.874 25.488 28.1396 25.948C28.1457 25.9585 28.1518 25.9691 28.1579 25.9797C28.8752 27.2221 28.4484 28.8148 27.206 29.5321C25.9636 30.2494 24.3709 29.8226 23.6536 28.5802C23.6536 28.5802 23.6414 28.5591 23.6353 28.5485C23.3667 28.0833 22.7777 27.9299 22.3177 28.1955C21.8578 28.461 21.6991 29.0531 21.9647 29.513C21.9708 29.5236 21.9769 29.5342 21.983 29.5448C23.2344 31.7123 26.0113 32.4564 28.1789 31.2049C30.3464 29.9535 31.0905 27.1766 29.8391 25.0091C29.8391 25.0091 29.8269 24.9879 29.8208 24.9773L29.8102 24.9834Z" fill="#FF7E41"/>
</svg>
