<svg width="24" height="24" viewBox="0 0 24 24" fill="none" xmlns="http://www.w3.org/2000/svg">
<path d="M12.0043 0C6.993 0 5.5274 0.00516967 5.24252 0.0288024C4.21412 0.114287 3.57419 0.276208 2.87703 0.623314C2.33975 0.890106 1.91602 1.19936 1.49783 1.63288C0.73623 2.42347 0.274653 3.3961 0.107562 4.55226C0.0263241 5.11354 0.0026913 5.22801 -0.00210911 8.09496C-0.00395542 9.05061 -0.00210911 10.3083 -0.00210911 11.9953C-0.00210911 17.0025 0.00342983 18.4666 0.0274319 18.7509C0.110516 19.7516 0.267452 20.3812 0.599788 21.0699C1.23492 22.3882 2.44794 23.3778 3.87699 23.7471C4.3718 23.8745 4.91831 23.9446 5.6199 23.9778C5.91716 23.9908 8.94695 24 11.9786 24C15.0102 24 18.0419 23.9963 18.3317 23.9815C19.1441 23.9433 19.6159 23.88 20.1374 23.7452C20.846 23.5635 21.5064 23.2293 22.0724 22.7659C22.6385 22.3026 23.0965 21.7212 23.4146 21.0625C23.7405 20.3905 23.9058 19.7369 23.9805 18.7884C23.9968 18.5816 24.0036 15.2847 24.0036 11.9922C24.0036 8.69908 23.9962 5.40821 23.98 5.20143C23.9043 4.23765 23.739 3.5896 23.4026 2.90462C23.1266 2.34389 22.8201 1.92515 22.3752 1.49699C21.5813 0.738524 20.6101 0.276947 19.4526 0.11004C18.8919 0.0289871 18.7802 0.00498504 15.9111 0H12.0043Z" fill="url(#paint0_radial_2431_11418)"/>
<path d="M12.0043 0C6.993 0 5.5274 0.00516967 5.24252 0.0288024C4.21412 0.114287 3.57419 0.276208 2.87703 0.623314C2.33975 0.890106 1.91602 1.19936 1.49783 1.63288C0.73623 2.42347 0.274653 3.3961 0.107562 4.55226C0.0263241 5.11354 0.0026913 5.22801 -0.00210911 8.09496C-0.00395542 9.05061 -0.00210911 10.3083 -0.00210911 11.9953C-0.00210911 17.0025 0.00342983 18.4666 0.0274319 18.7509C0.110516 19.7516 0.267452 20.3812 0.599788 21.0699C1.23492 22.3882 2.44794 23.3778 3.87699 23.7471C4.3718 23.8745 4.91831 23.9446 5.6199 23.9778C5.91716 23.9908 8.94695 24 11.9786 24C15.0102 24 18.0419 23.9963 18.3317 23.9815C19.1441 23.9433 19.6159 23.88 20.1374 23.7452C20.846 23.5635 21.5064 23.2293 22.0724 22.7659C22.6385 22.3026 23.0965 21.7212 23.4146 21.0625C23.7405 20.3905 23.9058 19.7369 23.9805 18.7884C23.9968 18.5816 24.0036 15.2847 24.0036 11.9922C24.0036 8.69908 23.9962 5.40821 23.98 5.20143C23.9043 4.23765 23.739 3.5896 23.4026 2.90462C23.1266 2.34389 22.8201 1.92515 22.3752 1.49699C21.5813 0.738524 20.6101 0.276947 19.4526 0.11004C18.8919 0.0289871 18.7802 0.00498504 15.9111 0H12.0043Z" fill="url(#paint1_radial_2431_11418)"/>
<path d="M11.9986 3.13867C9.59173 3.13867 9.28968 3.1492 8.34437 3.19222C7.4009 3.23542 6.75691 3.38479 6.19342 3.60394C5.61054 3.8303 5.11609 4.13309 4.6235 4.62587C4.13053 5.11847 3.82774 5.61291 3.60064 6.19561C3.38093 6.75929 3.23138 7.40346 3.18892 8.34656C3.14682 9.29187 3.13574 9.59411 3.13574 12.001C3.13574 14.4078 3.14645 14.7089 3.18929 15.6543C3.23267 16.5977 3.38204 17.2417 3.60101 17.8052C3.82755 18.3881 4.13035 18.8825 4.62313 19.3751C5.11554 19.8681 5.60998 20.1716 6.19249 20.398C6.75636 20.6171 7.40053 20.7665 8.34381 20.8097C9.28912 20.8527 9.591 20.8633 11.9977 20.8633C14.4047 20.8633 14.7058 20.8527 15.6511 20.8097C16.5946 20.7665 17.2393 20.6171 17.8032 20.398C18.3859 20.1716 18.8796 19.8681 19.372 19.3751C19.865 18.8825 20.1678 18.3881 20.3949 17.8054C20.6127 17.2417 20.7623 16.5975 20.8066 15.6544C20.8491 14.7091 20.8601 14.4078 20.8601 12.001C20.8601 9.59411 20.8491 9.29206 20.8066 8.34674C20.7623 7.40328 20.6127 6.75929 20.3949 6.19579C20.1678 5.61291 19.865 5.11847 19.372 4.62587C18.879 4.13291 18.3861 3.83012 17.8026 3.60394C17.2377 3.38479 16.5933 3.23542 15.6498 3.19222C14.7045 3.1492 14.4036 3.13867 11.996 3.13867H11.9986ZM11.2036 4.73573C11.4395 4.73536 11.7028 4.73573 11.9986 4.73573C14.3648 4.73573 14.6453 4.74422 15.5797 4.78669C16.4438 4.8262 16.9127 4.97058 17.2251 5.09188C17.6387 5.25251 17.9335 5.44453 18.2435 5.75471C18.5537 6.06489 18.7457 6.3603 18.9067 6.77387C19.028 7.0859 19.1726 7.55486 19.2119 8.41893C19.2544 9.35317 19.2636 9.63381 19.2636 11.9989C19.2636 14.3641 19.2544 14.6447 19.2119 15.5789C19.1724 16.443 19.028 16.912 18.9067 17.224C18.7461 17.6376 18.5537 17.932 18.2435 18.242C17.9334 18.5522 17.6389 18.7442 17.2251 18.9049C16.9131 19.0267 16.4438 19.1707 15.5797 19.2102C14.6455 19.2527 14.3648 19.2619 11.9986 19.2619C9.63217 19.2619 9.35171 19.2527 8.41748 19.2102C7.55341 19.1704 7.08445 19.026 6.77187 18.9047C6.35829 18.7441 6.06288 18.552 5.7527 18.2419C5.44252 17.9317 5.25051 17.637 5.08951 17.2233C4.96821 16.9112 4.82364 16.4423 4.78431 15.5782C4.74185 14.644 4.73335 14.3633 4.73335 11.9967C4.73335 9.63011 4.74185 9.35095 4.78431 8.41672C4.82382 7.55265 4.96821 7.08368 5.08951 6.77129C5.25014 6.35771 5.44252 6.0623 5.7527 5.75212C6.06288 5.44194 6.35829 5.24993 6.77187 5.08893C7.08426 4.96707 7.55341 4.82306 8.41748 4.78337C9.23503 4.74644 9.55185 4.73536 11.2036 4.73351V4.73573ZM16.7292 6.20724C16.5188 6.20724 16.3132 6.26962 16.1383 6.38649C15.9634 6.50337 15.8271 6.66948 15.7466 6.86383C15.6662 7.05817 15.6451 7.27202 15.6862 7.47832C15.7273 7.68463 15.8286 7.87412 15.9773 8.02284C16.1261 8.17155 16.3156 8.27281 16.522 8.3138C16.7283 8.35479 16.9421 8.33368 17.1364 8.25313C17.3307 8.17258 17.4968 8.03622 17.6136 7.86128C17.7304 7.68634 17.7927 7.4807 17.7927 7.27034C17.7927 6.68322 17.3163 6.20687 16.7292 6.20687V6.20724ZM11.9986 7.44981C9.4852 7.44981 7.44743 9.48758 7.44743 12.001C7.44743 14.5143 9.4852 16.5512 11.9986 16.5512C14.512 16.5512 16.5492 14.5143 16.5492 12.001C16.5492 9.48758 14.512 7.44981 11.9986 7.44981ZM11.9986 9.04686C13.63 9.04686 14.9527 10.3694 14.9527 12.001C14.9527 13.6324 13.63 14.9551 11.9986 14.9551C10.367 14.9551 9.04449 13.6324 9.04449 12.001C9.04449 10.3694 10.367 9.04686 11.9986 9.04686Z" fill="white"/>
<defs>
<radialGradient id="paint0_radial_2431_11418" cx="0" cy="0" r="1" gradientUnits="userSpaceOnUse" gradientTransform="translate(6.37384 25.8485) rotate(-90) scale(23.7858 22.1287)">
<stop stop-color="#FFDD55"/>
<stop offset="0.1" stop-color="#FFDD55"/>
<stop offset="0.5" stop-color="#FF543E"/>
<stop offset="1" stop-color="#C837AB"/>
</radialGradient>
<radialGradient id="paint1_radial_2431_11418" cx="0" cy="0" r="1" gradientUnits="userSpaceOnUse" gradientTransform="translate(-4.02415 1.72892) rotate(78.6776) scale(10.6325 43.8384)">
<stop stop-color="#3771C8"/>
<stop offset="0.128" stop-color="#3771C8"/>
<stop offset="1" stop-color="#6600FF" stop-opacity="0"/>
</radialGradient>
</defs>
</svg>
