<svg width="63" height="19" viewBox="0 0 63 19" fill="none" xmlns="http://www.w3.org/2000/svg">
<path d="M8.86724 15.301C9.15747 15.4496 9.37876 15.6599 9.53476 15.9318C9.69075 16.2073 9.77056 16.5264 9.77056 16.8925C9.77056 17.2587 9.69075 17.5778 9.53476 17.846C9.37876 18.1143 9.15384 18.321 8.86724 18.466C8.58065 18.611 8.24326 18.6799 7.85872 18.6799H6.67969V15.0762H7.85872C8.24326 15.0762 8.58065 15.1487 8.86724 15.2973V15.301ZM8.82734 17.8605C9.05226 17.6321 9.16472 17.3095 9.16472 16.8962C9.16472 16.4829 9.05226 16.1529 8.82734 15.9173C8.60242 15.6816 8.27954 15.5656 7.85872 15.5656H7.27102V18.205H7.85872C8.27954 18.205 8.60242 18.0926 8.82734 17.8642V17.8605Z" fill="white"/>
<path d="M21.4657 18.6838L20.6349 17.2409H20.1851V18.6838H19.5938V15.0801H20.8381C21.1138 15.0801 21.3496 15.1272 21.5419 15.2251C21.7341 15.323 21.8756 15.4499 21.9736 15.613C22.0679 15.7762 22.1151 15.9574 22.1151 16.1568C22.1151 16.3925 22.0461 16.6064 21.9083 16.7986C21.7704 16.9907 21.56 17.1212 21.277 17.1901L22.1695 18.6838H21.4657ZM20.1851 16.7696H20.8381C21.0594 16.7696 21.2263 16.7152 21.3387 16.6028C21.4512 16.494 21.5056 16.3417 21.5056 16.1568C21.5056 15.9719 21.4512 15.8233 21.3387 15.7182C21.2263 15.613 21.0594 15.5586 20.8345 15.5586H20.1815V16.7659L20.1851 16.7696Z" fill="white"/>
<path d="M32.6939 15.084V18.6877H32.1025V15.084H32.6939Z" fill="white"/>
<path d="M45.8153 15.084L44.4621 18.6877H43.7764L42.416 15.084H43.0509L44.1211 18.0823L45.1949 15.084H45.8189H45.8153Z" fill="white"/>
<path d="M56.1333 15.5586V16.6173H57.3777V17.0995H56.1333V18.2053H57.5336V18.6874H55.542V15.0801H57.5336V15.5623H56.1333V15.5586Z" fill="white"/>
<path d="M12.5882 5.6633C12.5882 4.93095 12.4576 4.24211 12.2001 3.60039C12.1892 3.57139 12.1783 3.54601 12.1674 3.51701C12.1602 3.50251 12.1565 3.49163 12.1493 3.47713C11.8699 2.82454 11.46 2.22633 10.9086 1.67888C10.3644 1.13506 9.77308 0.729005 9.12733 0.449842C9.10557 0.438965 9.0838 0.431714 9.06566 0.420838C9.04389 0.413587 9.02213 0.40271 9.00036 0.395459C8.35461 0.134424 7.65808 0.00390625 6.92164 0.00390625C6.91075 0.00390625 6.89987 0.00390625 6.88899 0.00390625C6.8781 0.00390625 6.86722 0.00390625 6.85634 0.00390625C5.53582 0.00390625 4.41484 0.380957 3.44622 1.15319L3.4317 1.18219C3.23943 1.33446 3.05079 1.49761 2.8694 1.68251C1.75567 2.79553 1.19336 4.13697 1.19336 5.66692C1.19336 5.68868 1.19336 5.7068 1.19336 5.72856C1.19336 6.46453 1.32396 7.15338 1.58153 7.79509C1.59242 7.82409 1.6033 7.84947 1.61418 7.87847C1.62144 7.89298 1.62507 7.90385 1.63232 7.91835C1.91166 8.57094 2.3216 9.16552 2.87303 9.7166C3.41719 10.2604 4.00852 10.6665 4.65064 10.9456C4.67241 10.9565 4.69418 10.9638 4.71594 10.9746C4.73771 10.9819 4.75948 10.9891 4.77761 11C5.42336 11.2611 6.1199 11.3952 6.85996 11.3952C6.87085 11.3952 6.88173 11.3952 6.89261 11.3952C6.9035 11.3952 6.91438 11.3952 6.92527 11.3952C8.24578 11.3952 9.36677 11.0181 10.3354 10.2459L10.3499 10.2169C10.5422 10.0646 10.7308 9.9015 10.9122 9.7166C12.0259 8.60357 12.5882 7.26214 12.5882 5.73218C12.5882 5.71043 12.5882 5.6923 12.5882 5.67055V5.6633ZM10.3281 5.92433C10.2773 6.75095 9.97261 7.43616 9.35951 8.11051C9.35225 8.11776 9.34863 8.12501 9.34137 8.13226C8.58679 8.8211 7.82858 9.12927 6.88536 9.13652C6.86722 9.13652 6.84908 9.13652 6.82731 9.13652C6.73299 9.13652 6.63867 9.13289 6.54798 9.12564C6.53346 9.12564 6.51895 9.12564 6.50444 9.12202C5.75712 9.04588 5.09323 8.73046 4.45474 8.14676C3.83076 7.46517 3.51877 6.77995 3.46073 5.96059C3.4571 5.89896 3.45347 5.8337 3.45347 5.76844C3.45347 5.74668 3.45347 5.72493 3.45347 5.70318C3.45347 5.67055 3.45347 5.63792 3.45347 5.60529C3.45347 5.55816 3.4571 5.51103 3.46073 5.46752C3.51152 4.64091 3.81625 3.95932 4.42935 3.28135C4.4366 3.2741 4.44023 3.26685 4.44749 3.2596C5.20207 2.57075 5.96027 2.26259 6.9035 2.25534C6.92164 2.25534 6.93978 2.25534 6.96154 2.25534C7.05587 2.25534 7.15019 2.25896 7.24088 2.26621C7.25539 2.26621 7.26991 2.26621 7.28442 2.26984C8.03174 2.34597 8.69563 2.66139 9.33412 3.2451C9.95447 3.92669 10.2701 4.60828 10.3281 5.43127C10.3318 5.49653 10.3354 5.55816 10.3354 5.62342C10.3354 5.64517 10.3354 5.66692 10.3354 5.68505C10.3354 5.71768 10.3354 5.75031 10.3354 5.78657C10.3354 5.8337 10.3318 5.88083 10.3281 5.92433Z" fill="white"/>
<path d="M9.50488 9.26364C11.0648 9.47754 12.3055 7.44727 12.3055 7.44727C12.4289 9.11137 11.4276 9.97786 11.4276 9.97786C11.395 10.0069 11.3659 10.0322 11.3333 10.054C10.9379 10.1954 10.5715 10.1809 9.50488 9.26364Z" fill="url(#paint0_linear_2160_3715)"/>
<path d="M11.4239 9.97856C11.4239 9.97856 9.1384 12.0741 5.40178 9.16644C1.66515 6.25518 0.134228 6.91501 0 7.79601C0 7.79601 0.170506 5.03338 2.88046 4.87749C4.15382 4.80498 5.63758 5.34518 6.93633 6.70111C10.3283 10.2468 10.7636 10.2396 11.4275 9.97856H11.4239Z" fill="url(#paint1_linear_2160_3715)"/>
<path opacity="0.2" d="M0.736328 6.21978C1.10999 5.61432 1.76662 5.03787 2.92026 4.97261C3.95055 4.9146 5.12958 5.28803 6.21429 6.21978H0.736328Z" fill="url(#paint2_linear_2160_3715)"/>
<g style="mix-blend-mode:multiply">
<path d="M5.32617 9.10352C7.81846 10.7459 9.63236 10.2492 10.3978 9.883C10.8803 10.1549 11.1306 10.0896 11.4281 9.97363C11.4281 9.97363 9.14261 12.0692 5.40598 9.16152C5.38059 9.13977 5.35519 9.12164 5.32617 9.10352Z" fill="#F4F4F4"/>
</g>
<path d="M19.4416 2.25896C19.9821 2.25896 20.5082 2.3786 20.958 2.60338C21.4913 2.90067 21.9121 3.2596 22.206 3.66928L22.3257 3.83605L24.8107 3.74179L24.5495 3.21972C24.0743 2.27346 23.3923 1.49761 22.449 0.84502C21.5566 0.293946 20.5154 0.00390625 19.4416 0.00390625C17.8417 0.00390625 16.514 0.551356 15.3857 1.68251C14.272 2.79553 13.7061 4.13697 13.7061 5.67417C13.7061 7.21138 14.2539 8.59995 15.3857 9.72747C16.5176 10.855 17.8417 11.4061 19.4416 11.4061C20.5553 11.4061 21.5965 11.0907 22.449 10.4997C23.356 9.945 24.0598 9.16915 24.5495 8.19389L24.6511 7.99086L22.1806 7.72258L22.1262 7.79871C21.9919 7.99449 21.8105 8.17939 21.6074 8.32803C21.2482 8.58907 20.9108 8.8356 20.4973 8.97337C20.149 9.08939 19.7935 9.15102 19.4416 9.15102C18.4839 9.15102 17.7184 8.84285 16.9747 8.16126C16.2745 7.39628 15.9625 6.6313 15.9625 5.67055C15.9625 4.70979 16.3072 3.91219 16.9638 3.25597C17.6567 2.5635 18.4186 2.25534 19.4416 2.25534V2.25896Z" fill="white"/>
<path d="M34.4095 7.85672C34.2789 8.03074 34.1156 8.19027 33.9306 8.32803C33.5751 8.58907 33.2377 8.8356 32.8241 8.97337C32.4759 9.08939 32.1204 9.15102 31.7685 9.15102C30.8071 9.15102 30.0453 8.84285 29.3016 8.16126C28.8989 7.72258 28.634 7.29477 28.4744 6.83071H37.348L37.4024 6.51891C37.4314 6.35577 37.6564 4.88019 36.8836 3.22697L36.8764 3.21609C36.4011 2.26984 35.7191 1.49398 34.7759 0.841395C33.8798 0.293946 32.8387 0.00390625 31.7648 0.00390625C30.165 0.00390625 28.8408 0.551356 27.709 1.68251C26.5952 2.79553 26.0293 4.13697 26.0293 5.67417C26.0293 7.21138 26.5771 8.59995 27.709 9.72747C28.8408 10.855 30.165 11.4061 31.7648 11.4061C32.8786 11.4061 33.9197 11.0907 34.7723 10.4997C35.6792 9.945 36.383 9.16915 36.8728 8.19389L36.8836 8.17214M28.4599 4.57928C28.6232 4.08983 28.8989 3.64752 29.2871 3.26322C29.98 2.57075 30.7418 2.26259 31.7648 2.26259C32.3054 2.26259 32.8314 2.38223 33.2812 2.60701C33.8145 2.9043 34.239 3.26685 34.5473 3.69466C34.5619 3.70916 34.8376 4.04995 34.9863 4.57928H28.4563H28.4599Z" fill="white"/>
<path d="M44.4006 0.00362549C42.8007 0.00362549 41.4729 0.551075 40.3447 1.68223C39.231 2.79525 38.665 4.13669 38.665 5.67389C38.665 7.2111 39.2128 8.59966 40.3447 9.72719C41.4766 10.8547 42.8007 11.4058 44.4006 11.4058C45.7247 11.4058 46.8457 11.0287 47.8143 10.2565V11.4058H50.0708V5.67027C50.0708 4.13669 49.5049 2.79525 48.3911 1.6786C47.2774 0.565577 45.9351 0 44.4006 0V0.00362549ZM46.8203 8.14285C46.0585 8.83895 45.293 9.15074 44.3353 9.15074C43.4356 9.15074 42.6665 8.8317 41.9264 8.15735C41.2299 7.396 40.9215 6.63102 40.9215 5.67389C40.9215 4.71676 41.2662 3.91553 41.9228 3.25932C42.6157 2.56685 43.3594 2.25868 44.3353 2.25868C45.3728 2.25868 46.1129 2.55597 46.8167 3.25932C47.4697 3.9119 47.8179 4.74939 47.8179 5.67389C47.8179 6.59839 47.5096 7.39238 46.8239 8.14285H46.8203Z" fill="white"/>
<path d="M61.3168 1.68251C60.2176 0.583985 58.8136 0.00390625 57.2609 0.00390625C55.7082 0.00390625 54.3333 0.551356 53.2051 1.68251C52.0913 2.79553 51.5254 4.13697 51.5254 5.67417V11.4061H53.7819V5.67055C53.7819 4.74605 54.1265 3.91219 54.7831 3.25597C55.4543 2.58163 56.2669 2.25534 57.2609 2.25534C58.2549 2.25534 59.0567 2.58163 59.6879 3.26685C60.3881 3.90856 60.7436 4.71704 60.7436 5.66692V11.3988H63.0001V5.67055C63.0001 4.13697 62.4341 2.79553 61.3204 1.67888L61.3168 1.68251Z" fill="white"/>
<defs>
<linearGradient id="paint0_linear_2160_3715" x1="10.1651" y1="9.91985" x2="12.471" y2="7.61258" gradientUnits="userSpaceOnUse">
<stop offset="0.29" stop-color="#0D007A"/>
<stop offset="0.71" stop-color="#0052F5"/>
<stop offset="1" stop-color="#2A77FF"/>
</linearGradient>
<linearGradient id="paint1_linear_2160_3715" x1="0" y1="7.78876" x2="11.4239" y2="7.78876" gradientUnits="userSpaceOnUse">
<stop offset="0.18" stop-color="#09C9C9"/>
<stop offset="0.71" stop-color="#0067F5"/>
<stop offset="1" stop-color="#2A77FF"/>
</linearGradient>
<linearGradient id="paint2_linear_2160_3715" x1="-0.228083" y1="6.21978" x2="-0.228083" y2="4.96898" gradientUnits="userSpaceOnUse">
<stop offset="0.45" stop-color="white"/>
<stop offset="1" stop-color="white"/>
</linearGradient>
</defs>
</svg>
