<svg width="169" height="50" viewBox="0 0 169 50" fill="none" xmlns="http://www.w3.org/2000/svg">
<g id="Group 38237">
<g id="Group">
<g id="Vector">
<mask id="path-1-inside-1_1997_6761" fill="white">
<path d="M162.5 1C165.394 1 167.751 3.35423 167.751 6.24966V43.7522C167.751 46.6463 165.394 49.0033 162.5 49.0033H6.24966C3.35558 49.0033 1 46.6463 1 43.7522V6.24966C1 3.35423 3.35423 1 6.24966 1H162.501"/>
</mask>
<path d="M162.5 1C165.394 1 167.751 3.35423 167.751 6.24966V43.7522C167.751 46.6463 165.394 49.0033 162.5 49.0033H6.24966C3.35558 49.0033 1 46.6463 1 43.7522V6.24966C1 3.35423 3.35423 1 6.24966 1H162.501" fill="white"/>
<path d="M162.5 2C164.842 2 166.751 3.90701 166.751 6.24966H168.751C168.751 2.80144 165.946 0 162.5 0V2ZM166.751 6.24966V43.7522H168.751V6.24966H166.751ZM166.751 43.7522C166.751 46.094 164.842 48.0033 162.5 48.0033V50.0033C165.946 50.0033 168.751 47.1986 168.751 43.7522H166.751ZM162.5 48.0033H6.24966V50.0033H162.5V48.0033ZM6.24966 48.0033C3.9082 48.0033 2 46.0944 2 43.7522H0C0 47.1983 2.80296 50.0033 6.24966 50.0033V48.0033ZM2 43.7522V6.24966H0V43.7522H2ZM2 6.24966C2 3.90651 3.90651 2 6.24966 2V0C2.80194 0 0 2.80194 0 6.24966H2ZM6.24966 2H162.501V0H6.24966V2Z" fill="#EDEDED" mask="url(#path-1-inside-1_1997_6761)"/>
</g>
<g id="Vector_2">
<path d="M162.5 1C165.394 1 167.751 3.35423 167.751 6.24966V43.7522C167.751 46.6463 165.394 49.0033 162.5 49.0033H6.24966C3.35558 49.0033 1 46.6463 1 43.7522V6.24966C1 3.35423 3.35423 1 6.24966 1H162.501" fill="white"/>
<path d="M162.5 1C165.394 1 167.751 3.35423 167.751 6.24966V43.7522C167.751 46.6463 165.394 49.0033 162.5 49.0033H6.24966C3.35558 49.0033 1 46.6463 1 43.7522V6.24966C1 3.35423 3.35423 1 6.24966 1H162.501" stroke="#EDEDED" stroke-miterlimit="10"/>
</g>
</g>
<g id="Group 38236">
<g id="Group 38235">
<path id="Vector_3" d="M61.7811 13.8117C61.7811 14.7396 61.5069 15.4783 60.9561 16.0267C60.3312 16.6828 59.5182 17.0096 58.5185 17.0096C57.5187 17.0096 56.7465 16.6768 56.0748 16.0123C55.4055 15.349 55.0703 14.5241 55.0703 13.5411C55.0703 12.5581 55.4055 11.7356 56.0748 11.0723C56.7465 10.409 57.5607 10.0762 58.5185 10.0762C58.9938 10.0762 59.4488 10.1708 59.8798 10.3539C60.312 10.5395 60.6592 10.7862 60.919 11.0939L60.3359 11.6793C59.8953 11.1549 59.2919 10.8915 58.5185 10.8915C57.8193 10.8915 57.2146 11.1358 56.7046 11.6278C56.1958 12.1199 55.9407 12.7581 55.9407 13.5411C55.9407 14.3241 56.1958 14.9647 56.7046 15.4567C57.2134 15.9488 57.8193 16.1931 58.5185 16.1931C59.2584 16.1931 59.8774 15.9464 60.3707 15.4532C60.6915 15.1323 60.8783 14.6821 60.9262 14.1074H58.5173V13.31H61.7332C61.7643 13.4848 61.7799 13.6512 61.7799 13.8117" fill="black"/>
<path id="Vector_4" d="M66.8783 11.0388H63.8576V13.1436H66.5814V13.941H63.8576V16.0458H66.8783V16.8611H63.0039V10.2246H66.8783V11.0388Z" fill="black"/>
<path id="Vector_5" d="M70.4754 16.8592H69.6217V11.038H67.7695V10.2227H72.33V11.038H70.4754V16.8592Z" fill="black"/>
<path id="Vector_6" d="M76.4782 10.2246H75.627V16.8611H76.4782V10.2246Z" fill="black"/>
<path id="Vector_7" d="M80.2625 16.8592H79.4088V11.038H77.5566V10.2227H82.1147V11.038H80.2625V16.8592Z" fill="black"/>
<path id="Vector_8" d="M90.7514 16.0019C90.0977 16.6736 89.2871 17.0089 88.3173 17.0089C87.3475 17.0089 86.5358 16.6736 85.8832 16.0019C85.2307 15.3303 84.9062 14.5101 84.9062 13.5403C84.9062 12.5705 85.2319 11.7504 85.8832 11.0811C86.5358 10.4119 87.3463 10.0742 88.3173 10.0742C89.2883 10.0742 90.0917 10.4107 90.7454 11.0847C91.4015 11.7588 91.7284 12.5765 91.7284 13.5403C91.7284 14.5042 91.4015 15.3303 90.7514 16.0019ZM86.5142 15.4452C87.0051 15.9421 87.6073 16.1911 88.3173 16.1911C89.0273 16.1911 89.6295 15.9421 90.1192 15.4452C90.6113 14.9483 90.8579 14.3138 90.8579 13.5403C90.8579 12.7669 90.6113 12.1347 90.1192 11.6367C89.6295 11.1398 89.0285 10.8908 88.3173 10.8908C87.6061 10.8908 87.0051 11.1398 86.5142 11.6367C86.0245 12.1335 85.7779 12.7681 85.7779 13.5403C85.7779 14.3126 86.0245 14.9483 86.5142 15.4452Z" fill="black"/>
<path id="Vector_9" d="M92.9238 16.8592V10.2227H93.9619L97.1873 15.3865H97.2245L97.1873 14.1078V10.2227H98.041V16.8592H97.1514L93.7763 11.4475H93.7404L93.7763 12.7274V16.8592H92.9238Z" fill="black"/>
<path id="Vector_10" d="M84.6969 26.5425C82.094 26.5425 79.9736 28.5204 79.9736 31.2466C79.9736 33.9728 82.094 35.9519 84.6969 35.9519C87.2998 35.9519 89.4201 33.9548 89.4201 31.2466C89.4201 28.5383 87.2998 26.5425 84.6969 26.5425ZM84.6969 34.0973C83.2709 34.0973 82.0413 32.9228 82.0413 31.2466C82.0413 29.5704 83.2709 28.3959 84.6969 28.3959C86.1228 28.3959 87.3524 29.5548 87.3524 31.2466C87.3524 32.9383 86.1228 34.0973 84.6969 34.0973ZM74.3943 26.5425C71.7914 26.5425 69.671 28.5204 69.671 31.2466C69.671 33.9728 71.7914 35.9519 74.3943 35.9519C76.9972 35.9519 79.1151 33.9548 79.1151 31.2466C79.1151 28.5383 76.996 26.5425 74.3943 26.5425ZM74.3943 34.0973C72.9683 34.0973 71.7387 32.9228 71.7387 31.2466C71.7387 29.5704 72.9683 28.3959 74.3943 28.3959C75.8202 28.3959 77.0498 29.5548 77.0498 31.2466C77.0498 32.9383 75.8202 34.0973 74.3943 34.0973ZM62.1401 27.9852V29.9811H66.9161C66.7736 31.1029 66.3988 31.923 65.8289 32.4929C65.1333 33.1898 64.0474 33.9536 62.1401 33.9536C59.1984 33.9536 56.8996 31.5842 56.8996 28.6425C56.8996 25.7008 59.1984 23.3314 62.1401 23.3314C63.7265 23.3314 64.8831 23.9563 65.7391 24.7585L67.1471 23.3505C65.9523 22.2083 64.3683 21.3379 62.1401 21.3379C58.1125 21.3379 54.7266 24.616 54.7266 28.6425C54.7266 32.6689 58.1125 35.9507 62.1401 35.9507C64.3132 35.9507 65.9523 35.2359 67.2357 33.9009C68.5551 32.5827 68.9646 30.7305 68.9646 29.2328C68.9646 28.7706 68.9299 28.342 68.8593 27.9852H62.1401ZM112.257 29.5345C111.866 28.4833 110.673 26.5425 108.231 26.5425C105.788 26.5425 103.791 28.4497 103.791 31.2466C103.791 33.8842 105.788 35.9519 108.462 35.9519C110.618 35.9519 111.866 34.6325 112.382 33.8662L110.778 32.7971C110.243 33.5825 109.513 34.0973 108.462 34.0973C107.41 34.0973 106.662 33.616 106.181 32.6713L112.473 30.0708L112.257 29.5345ZM105.842 31.1029C105.789 29.2854 107.25 28.3599 108.301 28.3599C109.121 28.3599 109.817 28.7706 110.048 29.3585L105.842 31.1029ZM100.73 35.6657H102.797V21.8372H100.73V35.6657ZM97.3425 27.5925H97.2719C96.8074 27.0417 95.9166 26.5425 94.7947 26.5425C92.4433 26.5425 90.2846 28.6102 90.2846 31.2633C90.2846 33.9165 92.4421 35.9519 94.7947 35.9519C95.9166 35.9519 96.8074 35.4526 97.2719 34.8827H97.3425V35.5604C97.3425 37.3575 96.3811 38.3213 94.8306 38.3213C93.5651 38.3213 92.7809 37.4126 92.4612 36.6451L90.6593 37.3946C91.1777 38.6422 92.5486 40.1747 94.8306 40.1747C97.2551 40.1747 99.3037 38.7475 99.3037 35.273V26.8274H97.3437V27.5913L97.3425 27.5925ZM94.9731 34.0973C93.5472 34.0973 92.3535 32.9024 92.3535 31.2633C92.3535 29.6243 93.5484 28.3947 94.9731 28.3947C96.3979 28.3947 97.485 29.6063 97.485 31.2633C97.485 32.9204 96.3799 34.0973 94.9731 34.0973ZM121.942 21.8384H116.997V35.6657H119.059V30.4252H121.942C124.229 30.4252 126.48 28.7706 126.48 26.1306C126.48 23.4906 124.23 21.8384 121.942 21.8384ZM121.995 28.5024H119.059V23.7612H121.995C123.538 23.7612 124.415 25.0375 124.415 26.1306C124.415 27.2237 123.538 28.5024 121.995 28.5024ZM134.753 26.5149C133.256 26.5149 131.709 27.1746 131.069 28.6317L132.902 29.398C133.291 28.6317 134.022 28.3839 134.787 28.3839C135.854 28.3839 136.939 29.0256 136.957 30.1642V30.3067C136.583 30.0936 135.782 29.7715 134.803 29.7715C132.829 29.7715 130.82 30.8563 130.82 32.8857C130.82 34.7366 132.437 35.9291 134.252 35.9291C135.641 35.9291 136.404 35.3066 136.884 34.5774H136.956V35.643H138.949V30.3426C138.949 27.8894 137.116 26.5161 134.75 26.5161M134.5 34.0949C133.825 34.0949 132.88 33.7597 132.88 32.9216C132.88 31.8548 134.055 31.4453 135.07 31.4453C135.976 31.4453 136.404 31.6429 136.956 31.9075C136.795 33.1898 135.693 34.0949 134.5 34.0949ZM146.206 26.8226L143.84 32.8162H143.768L141.315 26.8226H139.09L142.773 35.2L140.672 39.8622H142.826L148.501 26.8226H146.206ZM127.615 35.6681H129.679V21.8395H127.615V35.6681Z" fill="black"/>
<g id="Group_2">
<path id="Vector_11" d="M45.055 26.0312L39.5021 29.2375L34.8027 24.5945L39.4506 19.9395L45.055 23.1757C46.1541 23.8091 46.1541 25.3955 45.055 26.03V26.0312Z" fill="#FED400"/>
<path id="Vector_12" d="M39.5028 29.2368L22.8319 38.8605C22.1351 39.2628 21.3269 39.0916 20.8301 38.5876L34.8035 24.5938L39.5028 29.2368Z" fill="#F83345"/>
<path id="Vector_13" d="M34.8046 24.5931L20.8311 38.5869C20.5438 38.2971 20.3594 37.8961 20.3594 37.4327V11.7702C20.3594 11.3524 20.509 10.9872 20.7473 10.707L34.8046 24.5943V24.5931Z" fill="#00D7FE"/>
<path id="Vector_14" d="M39.45 19.9387L34.8022 24.5937L20.7461 10.7076C21.2322 10.1365 22.093 9.91864 22.8306 10.3437L39.45 19.9399V19.9387Z" fill="#00EF77"/>
</g>
</g>
</g>
</g>
</svg>
