<svg width="26" height="23" viewBox="0 0 26 23" fill="none" xmlns="http://www.w3.org/2000/svg">
<path d="M13.0974 0C16.4349 0.0570077 19.5853 0.899814 22.2927 2.98578C24.1036 4.38117 25.3887 6.12897 25.8345 8.35745C26.3624 11.0012 25.6099 13.3378 23.8306 15.3694C21.9235 17.5467 19.4273 18.7821 16.5848 19.4137C14.6797 19.8367 12.7525 19.9106 10.8151 19.6456C10.6194 19.6191 10.4964 19.6987 10.3592 19.7888C8.84077 20.7819 7.32235 21.775 5.80394 22.7681C5.74812 22.8044 5.69298 22.8406 5.63582 22.8756C5.48048 22.9708 5.30833 23.0602 5.1382 22.9443C4.9674 22.8277 4.99497 22.6398 5.04137 22.4688C5.38903 21.1874 5.72997 19.9041 6.0978 18.6279C6.17177 18.372 6.11058 18.2807 5.87925 18.1634C3.65005 17.0356 1.81423 15.4951 0.792765 13.2368C-0.679923 9.98152 -0.0565523 6.98797 2.29504 4.32675C4.17793 2.19609 6.65998 1.01059 9.45472 0.38545C10.6261 0.123085 11.8164 0.0194344 13.0974 0ZM19.3661 9.24172L19.2901 9.20739C19.2901 8.70144 19.2915 8.1955 19.2901 7.68956C19.2881 7.20823 19.0285 6.907 18.6076 6.89404C18.1738 6.88044 17.8793 7.18944 17.878 7.68178C17.8739 9.26763 17.8739 10.8528 17.878 12.4387C17.8793 12.9401 18.157 13.2342 18.6029 13.2271C19.0306 13.2199 19.2881 12.9278 19.2901 12.4419C19.2921 12.0319 19.3009 11.6218 19.2874 11.2124C19.2787 10.9481 19.4697 10.8036 19.6506 10.7123C19.7824 10.6455 19.8536 10.8671 19.935 10.9681C20.4703 11.6322 20.9962 12.3033 21.5267 12.9712C21.7305 13.2271 22.0042 13.2938 22.3034 13.1765C22.5637 13.0742 22.6934 12.8636 22.684 12.5844C22.678 12.3998 22.5697 12.2618 22.4614 12.1238C21.8993 11.4119 21.3431 10.6948 20.7689 9.99189C20.629 9.82087 20.6243 9.72758 20.7917 9.57275C21.3257 9.08041 21.8428 8.57188 22.3619 8.06529C22.5751 7.85799 22.6168 7.61117 22.4749 7.35334C22.3391 7.10717 22.1111 7.01842 21.8266 7.04628C21.6195 7.06701 21.4871 7.19787 21.3519 7.32808C20.6902 7.96617 20.0292 8.60427 19.3675 9.24301L19.3661 9.24172ZM10.4311 6.89274C10.0169 6.89339 9.6652 7.10005 9.52869 7.45051C8.89053 9.09207 8.2564 10.7356 7.62765 12.3804C7.49585 12.7257 7.65119 13.0638 7.9706 13.1863C8.3102 13.3158 8.67198 13.1629 8.8179 12.8151C8.90532 12.6058 8.97997 12.3901 9.04587 12.1737C9.09698 12.0046 9.18843 11.9347 9.38075 11.9399C9.86156 11.9528 10.343 11.9444 10.8239 11.9444C11.4035 11.9444 11.7933 12.2037 11.9933 12.7224C12.1614 13.1584 12.4868 13.3307 12.8715 13.1863C13.2097 13.0593 13.3442 12.7134 13.1949 12.3195C12.5918 10.7226 11.9865 9.12641 11.3786 7.53084C11.2199 7.1143 10.881 6.8921 10.4311 6.89339V6.89274ZM6.6277 10.5827C6.6277 9.89277 6.63712 9.2022 6.62232 8.51228C6.61761 8.28166 6.69427 8.21169 6.92627 8.2253C7.22754 8.24279 7.53082 8.23696 7.83275 8.22724C8.18579 8.21558 8.43595 7.9584 8.43998 7.62218C8.44402 7.28662 8.19857 6.99769 7.8536 6.99445C6.54364 6.98344 5.23369 6.98279 3.92441 6.99445C3.5828 6.99769 3.32727 7.30152 3.33466 7.62672C3.34273 7.95322 3.60634 8.21493 3.95467 8.22724C4.21155 8.23631 4.46978 8.22724 4.72733 8.22983C5.28682 8.23696 5.21285 8.15404 5.21486 8.6833C5.2189 9.95561 5.21419 11.2286 5.21688 12.5009C5.21823 13.0003 5.44753 13.2199 5.94784 13.2161C6.4152 13.2128 6.62568 12.9906 6.62703 12.4918C6.62905 11.8557 6.62703 11.2195 6.62703 10.5827H6.6277ZM13.743 10.0917C13.743 10.9008 13.7417 11.7105 13.743 12.5197C13.7437 12.9841 13.9528 13.1901 14.439 13.1927C15.2345 13.1973 16.0294 13.1973 16.8249 13.1927C17.2364 13.1901 17.4967 12.9679 17.5061 12.6278C17.5155 12.2787 17.2452 12.0442 16.8161 12.0403C16.3569 12.0357 15.8969 12.0247 15.4383 12.0448C15.1922 12.0558 15.1471 11.971 15.1491 11.7533C15.1592 10.3935 15.1558 9.03377 15.1532 7.67401C15.1525 7.19527 14.8795 6.89728 14.4504 6.89469C14.0221 6.89145 13.7437 7.19204 13.743 7.66364C13.7417 8.47276 13.743 9.28253 13.743 10.0917Z" fill="#391C1B"/>
<path d="M19.3663 9.24195C20.028 8.60385 20.689 7.96575 21.3507 7.32701C21.4859 7.1968 21.6184 7.06594 21.8255 7.04521C22.1099 7.01735 22.3386 7.1061 22.4737 7.35227C22.6156 7.60945 22.5739 7.85627 22.3608 8.06422C21.841 8.57016 21.3238 9.07934 20.7906 9.57168C20.6231 9.72651 20.6278 9.8198 20.7677 9.99082C21.342 10.6937 21.8981 11.4108 22.4603 12.1228C22.5692 12.2608 22.6768 12.3987 22.6829 12.5834C22.6923 12.8626 22.5625 13.0731 22.3023 13.1755C22.0037 13.2927 21.7293 13.226 21.5256 12.9701C20.995 12.3029 20.4691 11.6317 19.9339 10.9671C19.8525 10.866 19.7819 10.6445 19.6494 10.7112C19.4692 10.8025 19.2775 10.947 19.2863 11.2113C19.3004 11.6207 19.2917 12.0308 19.289 12.4409C19.2863 12.9274 19.0294 13.2189 18.6017 13.226C18.1559 13.2331 17.8781 12.9397 17.8768 12.4376C17.8734 10.8518 17.8728 9.26656 17.8768 7.68071C17.8781 7.18902 18.1727 6.88001 18.6064 6.89297C19.0267 6.90593 19.287 7.20651 19.289 7.68849C19.291 8.19443 19.289 8.70037 19.289 9.20632L19.365 9.24065L19.3663 9.24195Z" fill="#F9E200"/>
<path d="M10.4305 6.89274C10.8804 6.89209 11.2193 7.11364 11.378 7.53019C11.9859 9.12575 12.5912 10.722 13.1944 12.3188C13.343 12.7127 13.2092 13.0586 12.8709 13.1856C12.4863 13.3301 12.1608 13.1584 11.9927 12.7218C11.7927 12.2031 11.4029 11.9437 10.8233 11.9437C10.3418 11.9437 9.86098 11.9528 9.38017 11.9392C9.18784 11.934 9.09706 12.0033 9.04528 12.1731C8.97938 12.3901 8.90541 12.6052 8.81732 12.8144C8.67207 13.1623 8.30961 13.3158 7.97002 13.1856C7.6506 13.0638 7.49526 12.725 7.62706 12.3797C8.25581 10.7349 8.89062 9.09142 9.52811 7.44986C9.66394 7.09939 10.0163 6.89274 10.4305 6.89209V6.89274ZM10.4205 8.41381C10.1326 9.20284 9.87442 9.91868 9.60947 10.6313C9.5577 10.7712 9.61015 10.7997 9.74195 10.7991C10.1885 10.7958 10.6356 10.7965 11.0822 10.7991C11.1985 10.7991 11.2873 10.7861 11.2335 10.639C10.9705 9.92192 10.7096 9.20479 10.4205 8.41445V8.41381Z" fill="#F9E200"/>
<path d="M6.62751 10.5826C6.62751 11.2187 6.62886 11.8549 6.62751 12.4917C6.62617 12.9912 6.41569 13.2127 5.94833 13.216C5.44802 13.2198 5.21871 13.0002 5.21736 12.5008C5.21467 11.2285 5.21938 9.9555 5.21535 8.6832C5.214 8.15393 5.2873 8.23685 4.72781 8.22973C4.47026 8.22649 4.21271 8.2362 3.95516 8.22713C3.60682 8.21483 3.34322 7.95376 3.33515 7.62661C3.32708 7.30141 3.58261 6.99694 3.92489 6.99434C5.23485 6.98268 6.5448 6.98333 7.85408 6.99434C8.19972 6.99694 8.4445 7.28586 8.44046 7.62208C8.43643 7.95829 8.1856 8.21612 7.83323 8.22713C7.5313 8.23685 7.22802 8.24268 6.92676 8.22519C6.69409 8.21159 6.61742 8.28155 6.6228 8.51217C6.6376 9.2021 6.62818 9.89267 6.62818 10.5826H6.62751Z" fill="#F9E200"/>
<path d="M13.7431 10.0925C13.7431 9.28337 13.7417 8.4736 13.7431 7.66448C13.7438 7.19287 14.0222 6.89293 14.4505 6.89552C14.8795 6.89876 15.1526 7.19611 15.1532 7.67485C15.1553 9.03461 15.1593 10.3944 15.1492 11.7541C15.1479 11.9718 15.1922 12.0567 15.4384 12.0456C15.897 12.0256 16.3569 12.0366 16.8162 12.0411C17.2453 12.045 17.5156 12.2795 17.5062 12.6287C17.4968 12.9688 17.2372 13.191 16.825 13.1936C16.0294 13.1981 15.2346 13.1981 14.4391 13.1936C13.9529 13.191 13.7444 12.985 13.7431 12.5205C13.7411 11.7114 13.7431 10.9016 13.7431 10.0925Z" fill="#F9E200"/>
<path d="M10.4214 8.41471C10.7099 9.20504 10.9715 9.92217 11.2344 10.6393C11.2882 10.7864 11.2001 10.8 11.0831 10.7993C10.6366 10.7974 10.1894 10.7967 9.74289 10.7993C9.61176 10.8 9.55863 10.7715 9.61041 10.6315C9.87536 9.91829 10.1336 9.2031 10.4214 8.41406V8.41471Z" fill="#391C1B"/>
</svg>
