<svg width="47" height="47" viewBox="0 0 47 47" fill="none" xmlns="http://www.w3.org/2000/svg">
<rect width="46.8401" height="46.8401" rx="7" fill="#F6F6FB"/>
<path d="M23.0974 12C26.4349 12.057 29.5853 12.8998 32.2927 14.9858C34.1036 16.3812 35.3887 18.129 35.8345 20.3575C36.3624 23.0012 35.6099 25.3378 33.8306 27.3694C31.9235 29.5467 29.4273 30.7821 26.5848 31.4137C24.6797 31.8367 22.7525 31.9106 20.8151 31.6456C20.6194 31.6191 20.4964 31.6987 20.3592 31.7888C18.8408 32.7819 17.3224 33.775 15.8039 34.7681C15.7481 34.8044 15.693 34.8406 15.6358 34.8756C15.4805 34.9708 15.3083 35.0602 15.1382 34.9443C14.9674 34.8277 14.995 34.6398 15.0414 34.4688C15.389 33.1874 15.73 31.9041 16.0978 30.6279C16.1718 30.372 16.1106 30.2807 15.8793 30.1634C13.65 29.0356 11.8142 27.4951 10.7928 25.2368C9.32008 21.9815 9.94345 18.988 12.295 16.3268C14.1779 14.1961 16.66 13.0106 19.4547 12.3854C20.6261 12.1231 21.8164 12.0194 23.0974 12ZM29.3661 21.2417L29.2901 21.2074C29.2901 20.7014 29.2915 20.1955 29.2901 19.6896C29.2881 19.2082 29.0285 18.907 28.6076 18.894C28.1738 18.8804 27.8793 19.1894 27.878 19.6818C27.8739 21.2676 27.8739 22.8528 27.878 24.4387C27.8793 24.9401 28.157 25.2342 28.6029 25.2271C29.0306 25.2199 29.2881 24.9278 29.2901 24.4419C29.2921 24.0319 29.3009 23.6218 29.2874 23.2124C29.2787 22.9481 29.4697 22.8036 29.6506 22.7123C29.7824 22.6455 29.8536 22.8671 29.935 22.9681C30.4703 23.6322 30.9962 24.3033 31.5267 24.9712C31.7305 25.2271 32.0042 25.2938 32.3034 25.1765C32.5637 25.0742 32.6934 24.8636 32.684 24.5844C32.678 24.3998 32.5697 24.2618 32.4614 24.1238C31.8993 23.4119 31.3431 22.6948 30.7689 21.9919C30.629 21.8209 30.6243 21.7276 30.7917 21.5728C31.3257 21.0804 31.8428 20.5719 32.3619 20.0653C32.5751 19.858 32.6168 19.6112 32.4749 19.3533C32.3391 19.1072 32.1111 19.0184 31.8266 19.0463C31.6195 19.067 31.487 19.1979 31.3519 19.3281C30.6902 19.9662 30.0292 20.6043 29.3675 21.243L29.3661 21.2417ZM20.4311 18.8927C20.0169 18.8934 19.6652 19.1 19.5287 19.4505C18.8905 21.0921 18.2564 22.7356 17.6276 24.3804C17.4958 24.7257 17.6512 25.0638 17.9706 25.1863C18.3102 25.3158 18.672 25.1629 18.8179 24.8151C18.9053 24.6058 18.98 24.3901 19.0459 24.1737C19.097 24.0046 19.1884 23.9347 19.3808 23.9399C19.8616 23.9528 20.343 23.9444 20.8239 23.9444C21.4035 23.9444 21.7933 24.2037 21.9933 24.7224C22.1614 25.1584 22.4868 25.3307 22.8715 25.1863C23.2097 25.0593 23.3442 24.7134 23.1949 24.3195C22.5918 22.7226 21.9865 21.1264 21.3786 19.5308C21.2199 19.1143 20.881 18.8914 20.4311 18.8927ZM16.6277 22.5827C16.6277 21.8928 16.6371 21.2022 16.6223 20.5123C16.6176 20.2817 16.6943 20.2117 16.9263 20.2253C17.2275 20.2428 17.5308 20.237 17.8327 20.2272C18.1858 20.2156 18.4359 19.9584 18.44 19.6222C18.444 19.2866 18.1986 18.9977 17.8536 18.9945C16.5436 18.9834 15.2337 18.9828 13.9244 18.9945C13.5828 18.9977 13.3273 19.3015 13.3347 19.6267C13.3427 19.9532 13.6063 20.2149 13.9547 20.2272C14.2116 20.2363 14.4698 20.2272 14.7273 20.2298C15.2868 20.237 15.2128 20.154 15.2149 20.6833C15.2189 21.9556 15.2142 23.2286 15.2169 24.5009C15.2182 25.0003 15.4475 25.2199 15.9478 25.2161C16.4152 25.2128 16.6257 24.9906 16.627 24.4918C16.629 23.8556 16.6277 23.2195 16.6277 22.5827ZM23.743 22.0917C23.743 22.9008 23.7417 23.7105 23.743 24.5197C23.7437 24.9841 23.9528 25.1901 24.439 25.1927C25.2345 25.1973 26.0294 25.1973 26.8249 25.1927C27.2364 25.1901 27.4967 24.9679 27.5061 24.6278C27.5155 24.2787 27.2452 24.0442 26.8161 24.0403C26.3569 24.0357 25.8969 24.0247 25.4383 24.0448C25.1922 24.0558 25.1471 23.971 25.1491 23.7533C25.1592 22.3935 25.1558 21.0338 25.1531 19.674C25.1525 19.1953 24.8795 18.8973 24.4504 18.8947C24.0221 18.8914 23.7437 19.192 23.743 19.6636C23.7417 20.4728 23.743 21.2825 23.743 22.0917Z" fill="#232323"/>
<path d="M29.3663 21.2419C30.028 20.6038 30.689 19.9658 31.3507 19.327C31.4859 19.1968 31.6184 19.0659 31.8255 19.0452C32.1099 19.0174 32.3386 19.1061 32.4737 19.3523C32.6156 19.6095 32.5739 19.8563 32.3608 20.0642C31.841 20.5702 31.3238 21.0793 30.7906 21.5717C30.6231 21.7265 30.6278 21.8198 30.7677 21.9908C31.342 22.6937 31.8981 23.4108 32.4603 24.1228C32.5692 24.2608 32.6768 24.3987 32.6829 24.5834C32.6923 24.8626 32.5625 25.0731 32.3023 25.1755C32.0037 25.2927 31.7293 25.226 31.5256 24.9701C30.995 24.3029 30.4691 23.6317 29.9339 22.9671C29.8525 22.866 29.7819 22.6445 29.6494 22.7112C29.4692 22.8025 29.2775 22.947 29.2863 23.2113C29.3004 23.6207 29.2917 24.0308 29.289 24.4409C29.2863 24.9274 29.0294 25.2189 28.6017 25.226C28.1559 25.2331 27.8781 24.9397 27.8768 24.4376C27.8734 22.8518 27.8728 21.2666 27.8768 19.6807C27.8781 19.189 28.1727 18.88 28.6064 18.893C29.0267 18.9059 29.287 19.2065 29.289 19.6885C29.291 20.1944 29.289 20.7004 29.289 21.2063L29.365 21.2406L29.3663 21.2419Z" fill="white"/>
<path d="M20.4305 18.8932C20.8804 18.8926 21.2193 19.1141 21.378 19.5307C21.9859 21.1262 22.5912 22.7225 23.1944 24.3193C23.343 24.7132 23.2092 25.0591 22.8709 25.1861C22.4863 25.3306 22.1608 25.1589 21.9927 24.7223C21.7927 24.2036 21.4029 23.9442 20.8233 23.9442C20.3418 23.9442 19.861 23.9533 19.3802 23.9397C19.1878 23.9345 19.0971 24.0038 19.0453 24.1736C18.9794 24.3906 18.9054 24.6057 18.8173 24.8149C18.6721 25.1628 18.3096 25.3163 17.97 25.1861C17.6506 25.0643 17.4953 24.7255 17.6271 24.3802C18.2558 22.7354 18.8906 21.0919 19.5281 19.4503C19.6639 19.0999 20.0163 18.8932 20.4305 18.8926V18.8932ZM20.4205 20.4143C20.1326 21.2033 19.8744 21.9192 19.6095 22.6318C19.5577 22.7717 19.6101 22.8002 19.7419 22.7995C20.1885 22.7963 20.6356 22.797 21.0822 22.7995C21.1985 22.7995 21.2873 22.7866 21.2335 22.6395C20.9705 21.9224 20.7096 21.2053 20.4205 20.4149V20.4143Z" fill="white"/>
<path d="M16.6275 22.5831C16.6275 23.2192 16.6289 23.8554 16.6275 24.4922C16.6262 24.9917 16.4157 25.2132 15.9483 25.2164C15.448 25.2203 15.2187 25.0007 15.2174 24.5013C15.2147 23.2289 15.2194 21.956 15.2153 20.6837C15.214 20.1544 15.2873 20.2373 14.7278 20.2302C14.4703 20.227 14.2127 20.2367 13.9552 20.2276C13.6068 20.2153 13.3432 19.9542 13.3351 19.6271C13.3271 19.3019 13.5826 18.9974 13.9249 18.9948C15.2348 18.9832 16.5448 18.9838 17.8541 18.9948C18.1997 18.9974 18.4445 19.2863 18.4405 19.6226C18.4364 19.9588 18.1856 20.2166 17.8332 20.2276C17.5313 20.2373 17.228 20.2432 16.9268 20.2257C16.6941 20.2121 16.6174 20.282 16.6228 20.5127C16.6376 21.2026 16.6282 21.8932 16.6282 22.5831H16.6275Z" fill="white"/>
<path d="M23.7431 22.0915C23.7431 21.2824 23.7417 20.4726 23.7431 19.6635C23.7438 19.1919 24.0222 18.892 24.4505 18.8945C24.8795 18.8978 25.1526 19.1951 25.1532 19.6739C25.1553 21.0336 25.1593 22.3934 25.1492 23.7532C25.1479 23.9708 25.1922 24.0557 25.4384 24.0447C25.897 24.0246 26.3569 24.0356 26.8162 24.0401C27.2453 24.044 27.5156 24.2785 27.5062 24.6277C27.4968 24.9678 27.2372 25.19 26.825 25.1926C26.0294 25.1971 25.2346 25.1971 24.4391 25.1926C23.9529 25.19 23.7444 24.984 23.7431 24.5195C23.7411 23.7104 23.7431 22.9006 23.7431 22.0915Z" fill="white"/>
<path d="M20.4214 20.4147C20.7099 21.205 20.9715 21.9222 21.2344 22.6393C21.2882 22.7864 21.2001 22.8 21.0831 22.7993C20.6366 22.7974 20.1894 22.7967 19.7429 22.7993C19.6118 22.8 19.5586 22.7715 19.6104 22.6315C19.8754 21.9183 20.1336 21.2031 20.4214 20.4141V20.4147Z" fill="#232323"/>
</svg>
