<svg width="26" height="25" viewBox="0 0 26 25" fill="none" xmlns="http://www.w3.org/2000/svg">
<path d="M25.5023 11.7979C25.484 11.6458 25.4915 11.4925 25.4815 11.34C25.4679 11.1303 25.4687 10.9193 25.4394 10.7113C25.3239 9.89455 25.1242 9.09868 24.8501 8.32032C24.5014 7.32976 24.0306 6.40048 23.4482 5.52811C22.7694 4.51107 21.9532 3.61556 21.0132 2.83616C19.7595 1.79681 18.3536 1.03242 16.8002 0.537763C15.6514 0.17193 14.4773 -0.0154684 13.2711 0.000999343C12.9729 0.00516838 12.6744 0.00266696 12.3759 0.0118389C12.0854 0.0208023 11.7934 0.0189262 11.5047 0.0489433C11.0251 0.0989718 10.5505 0.18673 10.0814 0.300753C9.05484 0.550062 8.07461 0.920065 7.14043 1.41493C6.09996 1.96608 5.15891 2.65314 4.30894 3.46506C3.78621 3.9643 3.31495 4.51023 2.88642 5.09307C2.16172 6.07842 1.59563 7.1482 1.18378 8.29906C0.718567 9.60063 0.476374 10.9401 0.504095 12.3259C0.512015 12.7235 0.509722 13.121 0.527439 13.5185C0.53786 13.7524 0.542029 13.9867 0.574127 14.2189C0.725653 15.3108 1.01099 16.3659 1.44056 17.3817C1.53519 17.6054 1.63252 17.828 1.74695 18.0425C1.75883 18.0648 1.76925 18.0919 1.78759 18.1065C1.78426 18.1311 1.80489 18.1572 1.81552 18.1807C1.95454 18.484 2.12504 18.7706 2.29824 19.055C3.03045 20.2571 3.95045 21.2985 5.02906 22.1995C5.75877 22.809 6.55517 23.3205 7.40493 23.7466C8.1857 24.1381 9.00044 24.443 9.84624 24.6621C10.5316 24.8397 11.2233 24.9746 11.9355 24.9834C12.0568 24.9848 12.1806 24.9742 12.3013 25.0004H13.8005C13.9187 24.9831 14.0381 24.9871 14.1569 24.9796C14.375 24.9661 14.594 24.9671 14.8108 24.9369C15.3264 24.8647 15.835 24.7597 16.3375 24.6221C17.343 24.347 18.298 23.9501 19.2034 23.4354C19.8831 23.0491 20.5246 22.6085 21.1145 22.0921C21.5663 21.6965 21.998 21.2812 22.3988 20.8343C22.8767 20.3013 23.3021 19.7281 23.6786 19.1194C23.8591 18.8273 24.0341 18.532 24.1823 18.2218C24.1971 18.1909 24.2278 18.158 24.2146 18.1224C24.2709 18.1134 24.2786 18.049 24.299 18.0083C24.6432 17.3255 24.9079 16.6117 25.1121 15.8757C25.3205 15.1246 25.4729 14.364 25.4879 13.5804C25.4902 13.4655 25.4796 13.3494 25.5025 13.235V11.7981L25.5023 11.7979ZM17.1568 18.0971C17.0987 18.2193 17.0414 18.3414 16.957 18.4494C16.8173 18.6274 16.6395 18.7237 16.4109 18.7219C16.1622 18.7198 15.9336 18.6443 15.7131 18.5366C15.4498 18.4077 15.2172 18.2312 14.9763 18.0673C14.9511 18.05 14.9271 18.0321 14.9004 18.0313C14.8979 17.991 14.8533 17.9675 14.8162 17.9418C14.3295 17.6087 13.8333 17.29 13.3472 16.9561C12.807 16.5846 12.2607 16.2219 11.7181 15.8536C11.5543 15.7423 11.3961 15.6243 11.2834 15.4554C11.1593 15.2697 11.1475 15.0817 11.2579 14.887C11.3129 14.7898 11.3809 14.7023 11.4582 14.6218C11.8811 14.1814 12.327 13.7643 12.7757 13.3507C13.2984 12.8692 13.8147 12.3806 14.3304 11.8915C14.6601 11.5788 14.9759 11.2516 15.2954 10.9281C15.3733 10.8491 15.4461 10.7646 15.504 10.6694C15.564 10.5708 15.5438 10.4751 15.4825 10.3863C15.4225 10.2994 15.3339 10.2783 15.2343 10.2952C15.1401 10.3112 15.0578 10.3556 14.9773 10.4044C14.4018 10.754 13.8456 11.1328 13.2851 11.5055C12.5052 12.0241 11.7296 12.5496 10.9524 13.0722C10.5207 13.3626 10.0951 13.6623 9.65428 13.9394C9.17406 14.2412 8.66633 14.3696 8.09649 14.2447C7.3151 14.0734 6.55663 13.8289 5.80004 13.5752C5.67498 13.5333 5.55534 13.4758 5.45154 13.3915C5.26333 13.2392 5.25062 13.0591 5.41298 12.8802C5.5297 12.7516 5.67665 12.6665 5.83109 12.594C6.6475 12.2105 7.48226 11.868 8.30867 11.5073C9.31329 11.069 10.3194 10.6333 11.3263 10.2001C12.7794 9.575 14.2349 8.95548 15.7035 8.36764C16.2735 8.1396 16.8413 7.90467 17.4282 7.72227C17.6567 7.6514 17.887 7.5799 18.1298 7.5824C18.5085 7.58657 18.69 7.75187 18.738 8.12563C18.7428 8.16357 18.743 8.20171 18.7451 8.23986C18.7617 8.54337 18.7101 8.84208 18.6734 9.14079C18.5193 10.3938 18.3261 11.6414 18.1231 12.8873C17.9714 13.8185 17.8226 14.7502 17.6512 15.6781C17.5091 16.4485 17.4122 17.2281 17.1973 17.9842C17.1908 18.0069 17.1902 18.0261 17.196 18.0421C17.1771 18.0504 17.1673 18.0738 17.1562 18.0965L17.1568 18.0971Z" fill="#28A8E9"/>
<path d="M17.2399 18.0449C17.1703 18.1879 17.109 18.3345 17.0146 18.465C16.8105 18.747 16.5306 18.8125 16.2067 18.7587C15.8028 18.6916 15.4683 18.4777 15.1415 18.2488C15.0456 18.1817 14.951 18.1131 14.8557 18.0454C14.7586 17.9551 14.6437 17.8894 14.5347 17.8159C13.5908 17.1803 12.6457 16.5462 11.7018 15.9106C11.5344 15.7978 11.3768 15.6732 11.2541 15.5098C11.0923 15.2942 11.079 15.0716 11.2188 14.8406C11.3168 14.6787 11.4477 14.5446 11.5815 14.4131C12.4998 13.5107 13.463 12.6558 14.387 11.7595C14.6858 11.4695 14.9847 11.1796 15.269 10.875C15.314 10.8269 15.3576 10.7773 15.3993 10.7262C15.4975 10.6061 15.5093 10.5069 15.4395 10.4158C15.3803 10.3389 15.2588 10.3166 15.1331 10.3818C14.9856 10.4581 14.844 10.5469 14.7044 10.6374C13.1124 11.6707 11.5452 12.7415 9.97037 13.8004C9.9243 13.8315 9.87699 13.8605 9.83176 13.8928C9.23045 14.322 8.58182 14.4475 7.85837 14.254C7.17076 14.0702 6.49004 13.8672 5.81578 13.6408C5.68092 13.5955 5.55045 13.5368 5.43435 13.4523C5.19195 13.2758 5.17278 13.0358 5.38537 12.8257C5.5642 12.6492 5.78701 12.5416 6.01316 12.4434C8.05012 11.56 10.0865 10.6751 12.1259 9.79754C13.6522 9.14071 15.1838 8.49555 16.737 7.90375C17.129 7.7545 17.5225 7.60608 17.9402 7.54C18.0753 7.51874 18.2097 7.52187 18.3433 7.55272C18.5895 7.60942 18.7337 7.75867 18.7789 8.01027C18.8277 8.28147 18.799 8.54975 18.7673 8.81865C18.5138 10.9695 18.1514 13.1036 17.7864 15.2373C17.652 16.0238 17.5057 16.8082 17.3598 17.5926C17.3314 17.7454 17.2801 17.8942 17.2395 18.0447L17.2399 18.0449Z" fill="#FEFEFE"/>
</svg>
