<svg width="47" height="47" viewBox="0 0 47 47" fill="none" xmlns="http://www.w3.org/2000/svg">
<g id="Group 38191">
<rect id="Rectangle 1868" width="46.8401" height="46.8401" rx="7" fill="#F6F6FB"/>
<g id="Group 37903">
<path id="Vector" d="M36.0003 22.7979C35.982 22.6458 35.9895 22.4925 35.9795 22.34C35.966 22.1303 35.9668 21.9193 35.9374 21.7113C35.8219 20.8946 35.6223 20.0987 35.3482 19.3203C34.9995 18.3298 34.5286 17.4005 33.9463 16.5281C33.2674 15.5111 32.4512 14.6156 31.5112 13.8362C30.2575 12.7968 28.8517 12.0324 27.2983 11.5378C26.1494 11.1719 24.9753 10.9845 23.7692 11.001C23.4709 11.0052 23.1724 11.0027 22.874 11.0118C22.5834 11.0208 22.2914 11.0189 22.0028 11.0489C21.5232 11.099 21.0486 11.1867 20.5794 11.3008C19.5529 11.5501 18.5727 11.9201 17.6385 12.4149C16.598 12.9661 15.657 13.6531 14.807 14.4651C14.2843 14.9643 13.813 15.5102 13.3845 16.0931C12.6598 17.0784 12.0937 18.1482 11.6818 19.2991C11.2166 20.6006 10.9744 21.9401 11.0021 23.3259C11.0101 23.7235 11.0078 24.121 11.0255 24.5185C11.0359 24.7524 11.0401 24.9867 11.0722 25.2189C11.2237 26.3108 11.509 27.3659 11.9386 28.3817C12.0332 28.6054 12.1306 28.828 12.245 29.0425C12.2569 29.0648 12.2673 29.0919 12.2856 29.1065C12.2823 29.1311 12.3029 29.1572 12.3136 29.1807C12.4526 29.484 12.6231 29.7706 12.7963 30.055C13.5285 31.2571 14.4485 32.2985 15.5271 33.1995C16.2568 33.809 17.0532 34.3205 17.903 34.7466C18.6837 35.1381 19.4985 35.443 20.3443 35.6621C21.0296 35.8397 21.7214 35.9746 22.4336 35.9834C22.5549 35.9848 22.6787 35.9742 22.7994 36.0004H24.2986C24.4168 35.9831 24.5362 35.9871 24.655 35.9796C24.873 35.9661 25.0921 35.9671 25.3088 35.9369C25.8245 35.8647 26.333 35.7597 26.8356 35.6221C27.841 35.347 28.796 34.9501 29.7014 34.4354C30.3811 34.0491 31.0227 33.6085 31.6125 33.0921C32.0644 32.6965 32.496 32.2812 32.8969 31.8343C33.3748 31.3013 33.8002 30.7281 34.1766 30.1194C34.3571 29.8273 34.5322 29.532 34.6804 29.2218C34.6952 29.1909 34.7258 29.158 34.7127 29.1224C34.7689 29.1134 34.7767 29.049 34.7971 29.0083C35.1412 28.3255 35.4059 27.6117 35.6102 26.8757C35.8186 26.1246 35.971 25.364 35.986 24.5804C35.9883 24.4655 35.9776 24.3494 36.0006 24.235V22.7981L36.0003 22.7979ZM27.6549 29.0971C27.5967 29.2193 27.5394 29.3414 27.455 29.4494C27.3154 29.6274 27.1376 29.7237 26.9089 29.7219C26.6603 29.7198 26.4316 29.6443 26.2111 29.5366C25.9479 29.4077 25.7153 29.2312 25.4743 29.0673C25.4491 29.05 25.4251 29.0321 25.3985 29.0313C25.396 28.991 25.3514 28.9675 25.3143 28.9418C24.8276 28.6087 24.3313 28.29 23.8453 27.9561C23.305 27.5846 22.7587 27.2219 22.2162 26.8536C22.0524 26.7423 21.8942 26.6243 21.7814 26.4554C21.6574 26.2697 21.6455 26.0817 21.756 25.887C21.811 25.7898 21.8789 25.7023 21.9563 25.6218C22.3792 25.1814 22.825 24.7643 23.2737 24.3507C23.7965 23.8692 24.3128 23.3806 24.8284 22.8915C25.1581 22.5788 25.4739 22.2516 25.7934 21.9281C25.8714 21.8491 25.9441 21.7646 26.0021 21.6694C26.0621 21.5708 26.0419 21.4751 25.9806 21.3863C25.9206 21.2994 25.832 21.2783 25.7324 21.2952C25.6381 21.3112 25.5558 21.3556 25.4754 21.4044C24.8999 21.754 24.3436 22.1328 23.7831 22.5055C23.0032 23.0241 22.2276 23.5496 21.4504 24.0722C21.0188 24.3626 20.5932 24.6623 20.1523 24.9394C19.6721 25.2412 19.1644 25.3696 18.5945 25.2447C17.8131 25.0734 17.0547 24.8289 16.2981 24.5752C16.173 24.5333 16.0534 24.4758 15.9496 24.3915C15.7614 24.2392 15.7487 24.0591 15.911 23.8802C16.0278 23.7516 16.1747 23.6665 16.3291 23.594C17.1455 23.2105 17.9803 22.868 18.8067 22.5073C19.8113 22.069 20.8174 21.6333 21.8243 21.2001C23.2775 20.575 24.7329 19.9555 26.2015 19.3676C26.7716 19.1396 27.3393 18.9047 27.9263 18.7223C28.1547 18.6514 28.385 18.5799 28.6278 18.5824C29.0065 18.5866 29.1881 18.7519 29.236 19.1256C29.2408 19.1636 29.241 19.2017 29.2431 19.2399C29.2598 19.5434 29.2081 19.8421 29.1714 20.1408C29.0174 21.3938 28.8242 22.6414 28.6212 23.8873C28.4694 24.8185 28.3206 25.7502 28.1493 26.6781C28.0071 27.4485 27.9102 28.2281 27.6953 28.9842C27.6889 29.0069 27.6882 29.0261 27.6941 29.0421C27.6751 29.0504 27.6653 29.0738 27.6543 29.0965L27.6549 29.0971Z" fill="#0012B0"/>
<path id="Vector_2" d="M27.738 29.0459C27.6683 29.1889 27.6071 29.3355 27.5126 29.466C27.3086 29.748 27.0287 29.8134 26.7048 29.7597C26.3008 29.6925 25.9663 29.4787 25.6395 29.2498C25.5436 29.1827 25.449 29.1141 25.3538 29.0463C25.2566 28.9561 25.1418 28.8904 25.0328 28.8168C24.0888 28.1813 23.1438 27.5472 22.1998 26.9116C22.0325 26.7988 21.8749 26.6742 21.7521 26.5107C21.5904 26.2952 21.577 26.0726 21.7169 25.8416C21.8149 25.6796 21.9457 25.5456 22.0796 25.4141C22.9979 24.5117 23.961 23.6568 24.885 22.7605C25.1839 22.4705 25.4828 22.1806 25.7671 21.876C25.8121 21.8279 25.8556 21.7782 25.8973 21.7272C25.9955 21.6071 26.0074 21.5079 25.9376 21.4168C25.8784 21.3399 25.7569 21.3176 25.6312 21.3828C25.4836 21.4591 25.3421 21.5479 25.2024 21.6384C23.6105 22.6717 22.0433 23.7425 20.4684 24.8014C20.4224 24.8325 20.375 24.8615 20.3298 24.8938C19.7285 25.323 19.0799 25.4485 18.3564 25.255C17.6688 25.0712 16.9881 24.8681 16.3138 24.6417C16.179 24.5965 16.0485 24.5377 15.9324 24.4533C15.69 24.2767 15.6708 24.0368 15.8834 23.8267C16.0622 23.6501 16.2851 23.5426 16.5112 23.4444C18.5482 22.561 20.5845 21.6761 22.624 20.7985C24.1503 20.1417 25.6818 19.4965 27.235 18.9047C27.6271 18.7555 28.0206 18.6071 28.4383 18.541C28.5733 18.5197 28.7078 18.5228 28.8414 18.5537C29.0875 18.6104 29.2318 18.7596 29.277 19.0112C29.3258 19.2824 29.297 19.5507 29.2653 19.8196C29.0119 21.9704 28.6494 24.1046 28.2845 26.2383C28.15 27.0248 28.0037 27.8092 27.8578 28.5936C27.8295 28.7464 27.7782 28.8952 27.7375 29.0457L27.738 29.0459Z" fill="#FEFEFE"/>
</g>
</g>
</svg>
