<svg width="26" height="21" viewBox="0 0 26 21" fill="none" xmlns="http://www.w3.org/2000/svg">
<g clip-path="url(#clip0_651_3363)">
<path d="M5.14803 12.6672C5.1172 12.6214 5.05555 12.6214 4.99391 12.6061C2.88247 12.0567 1.31044 10.3169 1.01762 8.16498C0.986792 7.98184 0.97138 7.78344 0.955968 7.6003C0.940556 7.41716 0.986792 7.38664 1.14091 7.46295C1.75739 7.76818 2.40469 7.96658 3.09823 8.01237C3.14447 8.01237 3.1907 8.01237 3.25235 8.01237C3.26776 7.9208 3.1907 7.9208 3.15988 7.89027C2.01939 7.02036 1.31044 5.90626 1.07926 4.50219C0.894321 3.34231 1.07926 2.22821 1.61868 1.19042C1.72657 0.976757 1.75739 0.976757 1.91151 1.1599C3.08282 2.51818 4.45449 3.6628 6.02651 4.54798C7.67559 5.47894 9.43256 6.07414 11.3128 6.36411C11.7444 6.42516 12.1605 6.47094 12.592 6.50147C12.7615 6.50147 12.7924 6.45568 12.7615 6.30306C12.5149 4.94478 12.7461 3.67806 13.4859 2.51818C14.3952 1.06833 15.7206 0.228937 17.4314 0.0457977C19.1113 -0.152603 20.56 0.366292 21.793 1.51091C21.9317 1.63301 22.055 1.66353 22.2245 1.61775C23.2725 1.37356 24.2589 1.00728 25.199 0.473123C25.2298 0.457862 25.2761 0.4426 25.3377 0.4426C25.1682 1.02254 24.8754 1.5567 24.5055 2.02981C24.1202 2.51818 23.6732 2.91498 23.1492 3.266C23.6424 3.23548 24.1202 3.12865 24.5979 2.99129C25.0757 2.8692 25.5381 2.68606 26.0158 2.50292C26.0158 2.65554 25.9388 2.71658 25.8771 2.80815C25.2298 3.67806 24.4901 4.45641 23.6116 5.0974C23.4883 5.18897 23.4266 5.2958 23.442 5.44841C23.5191 7.21876 23.2417 8.92806 22.6869 10.5916C22.0704 12.4535 21.1302 14.1475 19.8819 15.6737C18.7876 17.0015 17.493 18.1003 15.9981 18.9702C14.3952 19.9012 12.6537 20.5116 10.8196 20.7863C10.0644 20.9084 9.30926 20.9542 8.53866 20.9847C5.85698 21.0458 3.34482 20.4506 0.986792 19.2144C0.709377 19.077 0.447373 18.9092 0.169958 18.7413C0.123722 18.7108 0.046662 18.6955 0.03125 18.6039C0.555257 18.665 1.06385 18.6802 1.58786 18.665C3.34482 18.6039 4.99391 18.1613 6.51969 17.3067C6.9204 17.0778 7.3057 16.8336 7.67559 16.5589C7.72183 16.5284 7.79889 16.5131 7.76806 16.4368C7.75265 16.3757 7.67559 16.391 7.61394 16.391C6.5351 16.33 5.56415 15.9637 4.71649 15.3074C3.88424 14.6817 3.28318 13.8728 2.9287 12.8961C2.86705 12.7435 2.88247 12.7129 3.06741 12.7435C3.73012 12.8503 4.37743 12.8198 5.04014 12.6977C5.05555 12.6977 5.1172 12.6977 5.14803 12.6672Z" fill="#1498CB"/>
</g>
<defs>
<clipPath id="clip0_651_3363">
<rect width="26" height="21" fill="white"/>
</clipPath>
</defs>
</svg>
