<svg width="29" height="18" viewBox="0 0 29 18" fill="none" xmlns="http://www.w3.org/2000/svg">
<path d="M9.38552 18C9.27962 17.8385 9.10776 17.9206 8.96842 17.9145C7.33348 17.8385 5.69669 17.7918 4.0729 17.5741C2.40916 17.3504 1.28235 16.4027 0.950721 14.8789C0.518762 12.8911 0.456523 10.874 0.461168 8.85595C0.465813 6.98134 0.527123 5.10674 0.92471 3.26065C1.30186 1.50698 2.40173 0.598191 4.33021 0.386542C7.1895 0.0729564 10.0636 0.041857 12.9369 0.00989374C16.151 -0.025525 19.3642 0.0314905 22.5728 0.224134C23.2045 0.262145 23.8361 0.321752 24.4613 0.409003C26.3749 0.675939 27.4302 1.66075 27.7433 3.51117C28.1929 6.16585 28.2235 8.83867 28.0703 11.5158C28.0052 12.6449 27.9123 13.7705 27.6597 14.8797C27.3141 16.3976 26.1966 17.3513 24.5328 17.5724C22.8468 17.797 21.1487 17.848 19.4515 17.9171C19.3131 17.9232 19.1413 17.8376 19.0344 17.9992H9.38552V18ZM18.7353 8.99849C16.3219 7.70527 13.9568 6.43797 11.5481 5.14734V12.8488C13.9503 11.5625 16.3089 10.2986 18.7353 8.99849Z" fill="#FE0101"/>
</svg>
