<svg width="138" height="139" viewBox="0 0 138 139" fill="none" xmlns="http://www.w3.org/2000/svg">
<g filter="url(#filter0_d_1879_3927)">
<circle cx="69" cy="65.7461" r="50" fill="white"/>
</g>
<g clip-path="url(#clip0_1879_3927)">
<path d="M69 95C85.5685 95 99 81.5685 99 65C99 48.4315 85.5685 35 69 35C52.4315 35 39 48.4315 39 65C39 81.5685 52.4315 95 69 95Z" fill="#EBF4F4"/>
<mask id="mask0_1879_3927" style="mask-type:luminance" maskUnits="userSpaceOnUse" x="56" y="47" width="31" height="38">
<path d="M75.0842 49.688L57.8682 74.2757C55.8759 77.1221 56.5738 81.0812 59.4202 83.0736C62.2666 85.0659 66.2245 84.368 68.2169 81.5228L85.434 56.9339C87.4264 54.0875 86.7285 50.1295 83.8832 48.136C82.7868 47.3682 81.525 47 80.2737 47C78.2778 47 76.3099 47.9379 75.0842 49.6868" fill="white"/>
</mask>
<g mask="url(#mask0_1879_3927)">
<path d="M91.8665 78.7472L57.2715 84.9531L57.4488 85.9417L92.0439 79.7358L91.8665 78.7472Z" fill="#F26608"/>
<path fill-rule="evenodd" clip-rule="evenodd" d="M57.2793 85.0254L57.2432 84.818L91.8382 78.6113L91.8754 78.8176L57.2793 85.0254Z" fill="#F26608"/>
<path fill-rule="evenodd" clip-rule="evenodd" d="M57.2549 84.8879L57.2188 84.6805L91.8126 78.4727L91.8499 78.68L57.2549 84.8879Z" fill="#F26608"/>
<path fill-rule="evenodd" clip-rule="evenodd" d="M57.2306 84.748L57.1934 84.5418L91.7884 78.334L91.8256 78.5414L57.2306 84.748Z" fill="#F26608"/>
<path fill-rule="evenodd" clip-rule="evenodd" d="M57.2062 84.6133L57.1689 84.407L91.7639 78.1992L91.8012 78.4054L57.2062 84.6133Z" fill="#F26608"/>
<path fill-rule="evenodd" clip-rule="evenodd" d="M57.1808 84.4757L57.1436 84.2684L91.7397 78.0605L91.7758 78.2679L57.1808 84.4757Z" fill="#F26608"/>
<path fill-rule="evenodd" clip-rule="evenodd" d="M57.1562 84.3359L57.1201 84.1297L91.714 77.9219L91.7512 78.1293L57.1562 84.3359Z" fill="#F26608"/>
<path fill-rule="evenodd" clip-rule="evenodd" d="M57.132 84.1972L57.0947 83.991L91.6897 77.7832L91.727 77.9894L57.132 84.1972Z" fill="#F26608"/>
<path fill-rule="evenodd" clip-rule="evenodd" d="M57.1066 84.0625L57.0693 83.8562L91.6643 77.6484L91.7016 77.8547L57.1066 84.0625Z" fill="#F26608"/>
<path fill-rule="evenodd" clip-rule="evenodd" d="M57.081 83.923L57.0449 83.7156L91.6399 77.5078L91.676 77.7152L57.081 83.923Z" fill="#F26608"/>
<path fill-rule="evenodd" clip-rule="evenodd" d="M57.0566 83.7851L57.0205 83.5789L91.6155 77.3711L91.6516 77.5785L57.0566 83.7851Z" fill="#F26608"/>
<path fill-rule="evenodd" clip-rule="evenodd" d="M57.0322 83.6465L56.9961 83.4402L91.5899 77.2324L91.6272 77.4386L57.0322 83.6465Z" fill="#F26608"/>
<path fill-rule="evenodd" clip-rule="evenodd" d="M57.008 83.5078L56.9707 83.3004L91.5657 77.0938L91.603 77.3L57.008 83.5078Z" fill="#F26608"/>
<path fill-rule="evenodd" clip-rule="evenodd" d="M56.9836 83.3703L56.9463 83.1629L91.5413 76.9551L91.5786 77.1625L56.9836 83.3703Z" fill="#F26608"/>
<path fill-rule="evenodd" clip-rule="evenodd" d="M56.958 83.2343L56.9219 83.0281L91.5169 76.8203L91.553 77.0277L56.958 83.2343Z" fill="#F26608"/>
<path fill-rule="evenodd" clip-rule="evenodd" d="M56.9336 83.0957L56.8975 82.8894L91.4913 76.6816L91.5286 76.8879L56.9336 83.0957Z" fill="#F26608"/>
<path fill-rule="evenodd" clip-rule="evenodd" d="M56.9094 82.957L56.8721 82.7496L91.4671 76.543L91.5044 76.7492L56.9094 82.957Z" fill="#F26608"/>
<path fill-rule="evenodd" clip-rule="evenodd" d="M56.8849 82.8195L56.8477 82.6121L91.4427 76.4043L91.4799 76.6117L56.8849 82.8195Z" fill="#F26608"/>
<path fill-rule="evenodd" clip-rule="evenodd" d="M56.8594 82.6836L56.8232 82.4773L91.4183 76.2695L91.4544 76.4758L56.8594 82.6836Z" fill="#F26608"/>
<path fill-rule="evenodd" clip-rule="evenodd" d="M56.8349 82.5449L56.7988 82.3375L91.3927 76.1309L91.4311 76.3371L56.8349 82.5449Z" fill="#F26608"/>
<path fill-rule="evenodd" clip-rule="evenodd" d="M56.8088 82.4074L56.7715 82.2L91.3665 75.9922L91.4038 76.1996L56.8088 82.4074Z" fill="#F26608"/>
<path fill-rule="evenodd" clip-rule="evenodd" d="M56.7844 82.2687L56.7471 82.0613L91.3421 75.8535L91.3794 76.0609L56.7844 82.2687Z" fill="#F26608"/>
<path fill-rule="evenodd" clip-rule="evenodd" d="M56.7599 82.1328L56.7227 81.9266L91.3177 75.7188L91.3538 75.925L56.7599 82.1328Z" fill="#F26608"/>
<path fill-rule="evenodd" clip-rule="evenodd" d="M56.7353 81.9941L56.6992 81.7867L91.2942 75.5801L91.3303 75.7863L56.7353 81.9941Z" fill="#F26608"/>
<path fill-rule="evenodd" clip-rule="evenodd" d="M56.7109 81.8566L56.6748 81.6492L91.2686 75.4414L91.3071 75.6488L56.7109 81.8566Z" fill="#F26608"/>
<path fill-rule="evenodd" clip-rule="evenodd" d="M56.6857 81.7168L56.6484 81.5105L91.2434 75.3027L91.2807 75.5101L56.6857 81.7168Z" fill="#F26608"/>
<path fill-rule="evenodd" clip-rule="evenodd" d="M56.6613 81.5781L56.624 81.3719L91.219 75.1641L91.2551 75.3703L56.6613 81.5781Z" fill="#F26608"/>
<path fill-rule="evenodd" clip-rule="evenodd" d="M56.6357 81.4433L56.5996 81.2359L91.1946 75.0293L91.2307 75.2355L56.6357 81.4433Z" fill="#F26608"/>
<path fill-rule="evenodd" clip-rule="evenodd" d="M56.6123 81.3058L56.5762 81.0984L91.1712 74.8906L91.2073 75.098L56.6123 81.3058Z" fill="#F26608"/>
<path fill-rule="evenodd" clip-rule="evenodd" d="M56.5871 81.166L56.5498 80.9598L91.1448 74.752L91.1821 74.9593L56.5871 81.166Z" fill="#F26608"/>
<path fill-rule="evenodd" clip-rule="evenodd" d="M56.5627 81.0273L56.5254 80.8199L91.1204 74.6133L91.1577 74.8195L56.5627 81.0273Z" fill="#F26608"/>
<path fill-rule="evenodd" clip-rule="evenodd" d="M56.5383 80.8918L56.501 80.6844L91.096 74.4766L91.1321 74.684L56.5383 80.8918Z" fill="#F26608"/>
<path fill-rule="evenodd" clip-rule="evenodd" d="M56.5117 80.755L56.4756 80.5476L91.0706 74.3398L91.1067 74.5472L56.5117 80.755Z" fill="#F26608"/>
<path fill-rule="evenodd" clip-rule="evenodd" d="M56.4873 80.6152L56.4512 80.409L91.045 74.2012L91.0835 74.4074L56.4873 80.6152Z" fill="#F26608"/>
<path fill-rule="evenodd" clip-rule="evenodd" d="M56.4631 80.4765L56.4258 80.2691L91.0208 74.0625L91.0581 74.2687L56.4631 80.4765Z" fill="#F26608"/>
<path fill-rule="evenodd" clip-rule="evenodd" d="M56.4387 80.341L56.4014 80.1336L90.9964 73.9258L91.0325 74.1332L56.4387 80.341Z" fill="#F26608"/>
<path fill-rule="evenodd" clip-rule="evenodd" d="M56.4131 80.2031L56.377 79.9969L90.972 73.7891L91.0092 73.9965L56.4131 80.2031Z" fill="#F26608"/>
<path fill-rule="evenodd" clip-rule="evenodd" d="M56.3887 80.0644L56.3525 79.8582L90.9475 73.6504L90.9837 73.8566L56.3887 80.0644Z" fill="#F26608"/>
<path fill-rule="evenodd" clip-rule="evenodd" d="M56.3644 79.9258L56.3271 79.7184L90.9222 73.5117L90.9594 73.7179L56.3644 79.9258Z" fill="#F26608"/>
<path fill-rule="evenodd" clip-rule="evenodd" d="M56.34 79.7882L56.3027 79.5809L90.8977 73.373L90.935 73.5804L56.34 79.7882Z" fill="#F26608"/>
<path fill-rule="evenodd" clip-rule="evenodd" d="M56.3156 79.6504L56.2783 79.4441L90.8733 73.2363L90.9094 73.4426L56.3156 79.6504Z" fill="#F26608"/>
<path fill-rule="evenodd" clip-rule="evenodd" d="M56.29 79.5136L56.2539 79.3074L90.8489 73.0996L90.885 73.3058L56.29 79.5136Z" fill="#F26608"/>
<path fill-rule="evenodd" clip-rule="evenodd" d="M56.2656 79.3761L56.2295 79.1687L90.8245 72.9609L90.8606 73.1683L56.2656 79.3761Z" fill="#F26608"/>
<path fill-rule="evenodd" clip-rule="evenodd" d="M56.2414 79.2375L56.2041 79.0301L90.7991 72.8223L90.8364 73.0297L56.2414 79.2375Z" fill="#F26608"/>
<path fill-rule="evenodd" clip-rule="evenodd" d="M56.217 79.0996L56.1797 78.8934L90.7747 72.6855L90.812 72.8918L56.217 79.0996Z" fill="#F26608"/>
<path fill-rule="evenodd" clip-rule="evenodd" d="M56.1904 78.9621L56.1543 78.7547L90.7493 72.5469L90.7866 72.7543L56.1904 78.9621Z" fill="#F26608"/>
<path fill-rule="evenodd" clip-rule="evenodd" d="M56.166 78.8254L56.1299 78.618L90.7249 72.4102L90.761 72.6175L56.166 78.8254Z" fill="#F26608"/>
<path fill-rule="evenodd" clip-rule="evenodd" d="M56.1418 78.6855L56.1045 78.4793L90.6995 72.2715L90.7368 72.4789L56.1418 78.6855Z" fill="#F26608"/>
<path fill-rule="evenodd" clip-rule="evenodd" d="M56.1174 78.5468L56.0801 78.3406L90.6751 72.1328L90.7124 72.339L56.1174 78.5468Z" fill="#F26608"/>
<path fill-rule="evenodd" clip-rule="evenodd" d="M56.0929 78.4113L56.0557 78.2039L90.6507 71.9961L90.6868 72.2035L56.0929 78.4113Z" fill="#F26608"/>
<path fill-rule="evenodd" clip-rule="evenodd" d="M56.0674 78.2746L56.0312 78.0672L90.6263 71.8594L90.6624 72.0668L56.0674 78.2746Z" fill="#F26608"/>
<path fill-rule="evenodd" clip-rule="evenodd" d="M56.043 78.1347L56.0068 77.9285L90.6007 71.7207L90.638 71.9269L56.043 78.1347Z" fill="#F26608"/>
<path fill-rule="evenodd" clip-rule="evenodd" d="M56.0187 77.9961L55.9814 77.7898L90.5764 71.582L90.6137 71.7883L56.0187 77.9961Z" fill="#F26608"/>
<path fill-rule="evenodd" clip-rule="evenodd" d="M55.9943 77.8605L55.957 77.6531L90.552 71.4453L90.5893 71.6527L55.9943 77.8605Z" fill="#F26608"/>
<path fill-rule="evenodd" clip-rule="evenodd" d="M55.9699 77.7218L55.9326 77.5144L90.5276 71.3066L90.5637 71.514L55.9699 77.7218Z" fill="#F26608"/>
<path fill-rule="evenodd" clip-rule="evenodd" d="M55.9443 77.584L55.9082 77.3777L90.5032 71.1699L90.5393 71.3762L55.9443 77.584Z" fill="#F26608"/>
<path fill-rule="evenodd" clip-rule="evenodd" d="M55.9201 77.4453L55.8828 77.2379L90.4778 71.0312L90.5151 71.2375L55.9201 77.4453Z" fill="#F26608"/>
<path fill-rule="evenodd" clip-rule="evenodd" d="M55.8957 77.3097L55.8584 77.1023L90.4534 70.8945L90.4907 71.1019L55.8957 77.3097Z" fill="#F26608"/>
<path fill-rule="evenodd" clip-rule="evenodd" d="M55.8703 77.1699L55.833 76.9637L90.428 70.7559L90.4641 70.9621L55.8703 77.1699Z" fill="#F26608"/>
<path fill-rule="evenodd" clip-rule="evenodd" d="M55.8447 77.0332L55.8086 76.8269L90.4036 70.6191L90.4397 70.8254L55.8447 77.0332Z" fill="#F26608"/>
<path fill-rule="evenodd" clip-rule="evenodd" d="M55.8205 76.8957L55.7832 76.6883L90.3782 70.4805L90.4155 70.6879L55.8205 76.8957Z" fill="#F26608"/>
<path fill-rule="evenodd" clip-rule="evenodd" d="M55.7961 76.757L55.7588 76.5496L90.3538 70.3418L90.3911 70.5492L55.7961 76.757Z" fill="#F26608"/>
<path fill-rule="evenodd" clip-rule="evenodd" d="M55.7717 76.6191L55.7344 76.4129L90.3294 70.2051L90.3655 70.4113L55.7717 76.6191Z" fill="#F26608"/>
<path fill-rule="evenodd" clip-rule="evenodd" d="M55.7472 76.4824L55.71 76.2762L90.305 70.0684L90.3411 70.2746L55.7472 76.4824Z" fill="#F26608"/>
<path fill-rule="evenodd" clip-rule="evenodd" d="M55.7217 76.3429L55.6855 76.1355L90.2805 69.9277L90.3167 70.1351L55.7217 76.3429Z" fill="#F26608"/>
<path fill-rule="evenodd" clip-rule="evenodd" d="M55.6974 76.205L55.6602 75.9988L90.2552 69.791L90.2924 69.9984L55.6974 76.205Z" fill="#F26608"/>
<path fill-rule="evenodd" clip-rule="evenodd" d="M55.673 76.0683L55.6357 75.8621L90.2307 69.6543L90.268 69.8605L55.673 76.0683Z" fill="#F26608"/>
<path fill-rule="evenodd" clip-rule="evenodd" d="M55.6486 75.9316L55.6113 75.7242L90.2063 69.5176L90.2424 69.7238L55.6486 75.9316Z" fill="#F26608"/>
<path fill-rule="evenodd" clip-rule="evenodd" d="M55.623 75.7922L55.5869 75.5848L90.1819 69.377L90.2192 69.5843L55.623 75.7922Z" fill="#F26608"/>
<path fill-rule="evenodd" clip-rule="evenodd" d="M55.5988 75.6543L55.5615 75.448L90.1565 69.2402L90.1938 69.4465L55.5988 75.6543Z" fill="#F26608"/>
<path fill-rule="evenodd" clip-rule="evenodd" d="M55.5744 75.5175L55.5371 75.3113L90.1321 69.1035L90.1694 69.3097L55.5744 75.5175Z" fill="#F26608"/>
<path fill-rule="evenodd" clip-rule="evenodd" d="M55.548 75.38L55.5107 75.1726L90.1057 68.9648L90.143 69.1722L55.548 75.38Z" fill="#F26608"/>
<path fill-rule="evenodd" clip-rule="evenodd" d="M55.5236 75.2414L55.4863 75.034L90.0813 68.8262L90.1174 69.0336L55.5236 75.2414Z" fill="#F26608"/>
<path fill-rule="evenodd" clip-rule="evenodd" d="M55.499 75.1035L55.4629 74.8973L90.0567 68.6895L90.094 68.8957L55.499 75.1035Z" fill="#F26608"/>
<path fill-rule="evenodd" clip-rule="evenodd" d="M55.4738 74.9648L55.4365 74.7586L90.0315 68.5508L90.0688 68.757L55.4738 74.9648Z" fill="#F26608"/>
<path fill-rule="evenodd" clip-rule="evenodd" d="M55.4494 74.8293L55.4121 74.6219L90.0071 68.4141L90.0444 68.6215L55.4494 74.8293Z" fill="#F26608"/>
<path fill-rule="evenodd" clip-rule="evenodd" d="M55.425 74.6894L55.3877 74.4832L89.9827 68.2754L90.0188 68.4828L55.425 74.6894Z" fill="#F26608"/>
<path fill-rule="evenodd" clip-rule="evenodd" d="M55.4004 74.5527L55.3643 74.3465L89.9593 68.1387L89.9965 68.3449L55.4004 74.5527Z" fill="#F26608"/>
<path fill-rule="evenodd" clip-rule="evenodd" d="M55.376 74.4132L55.3398 74.2059L89.9337 67.998L89.971 68.2054L55.376 74.4132Z" fill="#F26608"/>
<path fill-rule="evenodd" clip-rule="evenodd" d="M55.3508 74.2785L55.3135 74.0711L89.9085 67.8633L89.9458 68.0707L55.3508 74.2785Z" fill="#F26608"/>
<path fill-rule="evenodd" clip-rule="evenodd" d="M55.3263 74.1386L55.2891 73.9324L89.8841 67.7246L89.9213 67.932L55.3263 74.1386Z" fill="#F26608"/>
<path fill-rule="evenodd" clip-rule="evenodd" d="M55.3017 74L55.2656 73.7937L89.8606 67.5859L89.8968 67.7922L55.3017 74Z" fill="#F26608"/>
<path fill-rule="evenodd" clip-rule="evenodd" d="M55.2773 73.8625L55.2412 73.6551L89.835 67.4473L89.8723 67.6547L55.2773 73.8625Z" fill="#F26608"/>
<path fill-rule="evenodd" clip-rule="evenodd" d="M55.2521 73.7277L55.2148 73.5203L89.8098 67.3125L89.8471 67.5199L55.2521 73.7277Z" fill="#F26608"/>
<path fill-rule="evenodd" clip-rule="evenodd" d="M55.2267 73.5879L55.1895 73.3816L89.7845 67.1738L89.8217 67.3801L55.2267 73.5879Z" fill="#F26608"/>
<path fill-rule="evenodd" clip-rule="evenodd" d="M55.2023 73.4492L55.165 73.2418L89.76 67.0352L89.7973 67.2414L55.2023 73.4492Z" fill="#F26608"/>
<path fill-rule="evenodd" clip-rule="evenodd" d="M55.1767 73.3117L55.1406 73.1043L89.7356 66.8965L89.7717 67.1039L55.1767 73.3117Z" fill="#F26608"/>
<path fill-rule="evenodd" clip-rule="evenodd" d="M55.1523 73.1738L55.1162 72.9676L89.71 66.7598L89.7473 66.9672L55.1523 73.1738Z" fill="#F26608"/>
<path fill-rule="evenodd" clip-rule="evenodd" d="M55.1281 73.0371L55.0908 72.8309L89.6858 66.623L89.7231 66.8293L55.1281 73.0371Z" fill="#F26608"/>
<path fill-rule="evenodd" clip-rule="evenodd" d="M55.1037 72.8984L55.0664 72.691L89.6614 66.4844L89.6987 66.6906L55.1037 72.8984Z" fill="#F26608"/>
<path fill-rule="evenodd" clip-rule="evenodd" d="M55.0781 72.7609L55.042 72.5535L89.637 66.3457L89.6731 66.5531L55.0781 72.7609Z" fill="#F26608"/>
<path fill-rule="evenodd" clip-rule="evenodd" d="M55.0537 72.623L55.0176 72.4168L89.6114 66.209L89.6487 66.4164L55.0537 72.623Z" fill="#F26608"/>
<path fill-rule="evenodd" clip-rule="evenodd" d="M55.0295 72.4863L54.9922 72.2801L89.5872 66.0723L89.6245 66.2785L55.0295 72.4863Z" fill="#F26608"/>
<path fill-rule="evenodd" clip-rule="evenodd" d="M55.0051 72.3488L54.9678 72.1414L89.5628 65.9336L89.6001 66.141L55.0051 72.3488Z" fill="#F26608"/>
<path fill-rule="evenodd" clip-rule="evenodd" d="M54.9806 72.2101L54.9434 72.0027L89.5384 65.7949L89.5745 66.0023L54.9806 72.2101Z" fill="#F26608"/>
<path fill-rule="evenodd" clip-rule="evenodd" d="M54.9551 72.0703L54.9189 71.8641L89.5139 65.6562L89.5501 65.8625L54.9551 72.0703Z" fill="#F26608"/>
<path fill-rule="evenodd" clip-rule="evenodd" d="M54.9297 71.9355L54.8936 71.7281L89.4874 65.5215L89.5247 65.7277L54.9297 71.9355Z" fill="#F26608"/>
<path fill-rule="evenodd" clip-rule="evenodd" d="M54.9054 71.798L54.8682 71.5906L89.4632 65.3828L89.5004 65.5902L54.9054 71.798Z" fill="#F26608"/>
<path fill-rule="evenodd" clip-rule="evenodd" d="M54.881 71.6582L54.8438 71.4519L89.4388 65.2441L89.476 65.4515L54.881 71.6582Z" fill="#F26608"/>
<path fill-rule="evenodd" clip-rule="evenodd" d="M54.8555 71.5195L54.8193 71.3133L89.4143 65.1055L89.4505 65.3117L54.8555 71.5195Z" fill="#F26608"/>
<path fill-rule="evenodd" clip-rule="evenodd" d="M54.831 71.3828L54.7949 71.1754L89.3888 64.9688L89.4272 65.175L54.831 71.3828Z" fill="#F26608"/>
<path fill-rule="evenodd" clip-rule="evenodd" d="M54.8066 71.2472L54.7705 71.0398L89.3643 64.832L89.4016 65.0394L54.8066 71.2472Z" fill="#F26608"/>
<path fill-rule="evenodd" clip-rule="evenodd" d="M54.7824 71.1074L54.7451 70.9012L89.3401 64.6934L89.3774 64.8996L54.7824 71.1074Z" fill="#F26608"/>
<path fill-rule="evenodd" clip-rule="evenodd" d="M54.7568 70.9687L54.7207 70.7625L89.3157 64.5547L89.353 64.7609L54.7568 70.9687Z" fill="#F26608"/>
<path fill-rule="evenodd" clip-rule="evenodd" d="M54.7324 70.8312L54.6963 70.6238L89.2913 64.416L89.3274 64.6234L54.7324 70.8312Z" fill="#F26608"/>
<path fill-rule="evenodd" clip-rule="evenodd" d="M54.708 70.6964L54.6719 70.4891L89.2657 64.2812L89.303 64.4886L54.708 70.6964Z" fill="#F26608"/>
<path fill-rule="evenodd" clip-rule="evenodd" d="M54.6838 70.5566L54.6465 70.3504L89.2415 64.1426L89.2788 64.3488L54.6838 70.5566Z" fill="#F26608"/>
<path fill-rule="evenodd" clip-rule="evenodd" d="M54.6594 70.4179L54.6221 70.2106L89.2171 64.0039L89.2544 64.2101L54.6594 70.4179Z" fill="#F26608"/>
<path fill-rule="evenodd" clip-rule="evenodd" d="M54.6338 70.2804L54.5977 70.073L89.1927 63.8652L89.2299 64.0726L54.6338 70.2804Z" fill="#F26608"/>
<path fill-rule="evenodd" clip-rule="evenodd" d="M54.6084 70.1406L54.5723 69.9344L89.1661 63.7266L89.2046 63.934L54.6084 70.1406Z" fill="#F26608"/>
<path fill-rule="evenodd" clip-rule="evenodd" d="M54.5842 70.0058L54.5469 69.7996L89.1419 63.5918L89.1792 63.798L54.5842 70.0058Z" fill="#F26608"/>
<path fill-rule="evenodd" clip-rule="evenodd" d="M54.5597 69.8672L54.5225 69.6598L89.1175 63.4531L89.1547 63.6594L54.5597 69.8672Z" fill="#F26608"/>
<path fill-rule="evenodd" clip-rule="evenodd" d="M54.5342 69.7297L54.498 69.5223L89.093 63.3145L89.1303 63.5218L54.5342 69.7297Z" fill="#F26608"/>
<path fill-rule="evenodd" clip-rule="evenodd" d="M54.5098 69.5898L54.4736 69.3836L89.0686 63.1758L89.1048 63.3832L54.5098 69.5898Z" fill="#F26608"/>
<path fill-rule="evenodd" clip-rule="evenodd" d="M54.4853 69.4551L54.4492 69.2488L89.0431 63.041L89.0803 63.2472L54.4853 69.4551Z" fill="#F26608"/>
<path fill-rule="evenodd" clip-rule="evenodd" d="M54.4611 69.3164L54.4238 69.109L89.0188 62.9023L89.0561 63.1086L54.4611 69.3164Z" fill="#F26608"/>
<path fill-rule="evenodd" clip-rule="evenodd" d="M54.4367 69.1789L54.3994 68.9715L88.9944 62.7637L89.0317 62.9711L54.4367 69.1789Z" fill="#F26608"/>
<path fill-rule="evenodd" clip-rule="evenodd" d="M54.4111 69.039L54.375 68.8328L88.97 62.625L89.0073 62.8312L54.4111 69.039Z" fill="#F26608"/>
<path fill-rule="evenodd" clip-rule="evenodd" d="M54.3867 68.9043L54.3506 68.698L88.9456 62.4902L88.9817 62.6965L54.3867 68.9043Z" fill="#F26608"/>
<path fill-rule="evenodd" clip-rule="evenodd" d="M54.3625 68.7668L54.3252 68.5594L88.9202 62.3516L88.9575 62.559L54.3625 68.7668Z" fill="#F26608"/>
<path fill-rule="evenodd" clip-rule="evenodd" d="M54.3381 68.6269L54.3008 68.4207L88.8958 62.2129L88.9331 62.4203L54.3381 68.6269Z" fill="#F26608"/>
<path fill-rule="evenodd" clip-rule="evenodd" d="M54.3129 68.4883L54.2744 68.282L88.8706 62.0742L88.9067 62.2804L54.3129 68.4883Z" fill="#F26608"/>
<path fill-rule="evenodd" clip-rule="evenodd" d="M54.2861 68.3515L54.25 68.1441L88.845 61.9375L88.8811 62.1437L54.2861 68.3515Z" fill="#F26608"/>
<path fill-rule="evenodd" clip-rule="evenodd" d="M54.2627 68.2121L54.2266 68.0047L88.8204 61.7969L88.8577 62.0043L54.2627 68.2121Z" fill="#F26608"/>
<path fill-rule="evenodd" clip-rule="evenodd" d="M54.2375 68.0761L54.2002 67.8699L88.7952 61.6621L88.8325 61.8695L54.2375 68.0761Z" fill="#F26608"/>
<path fill-rule="evenodd" clip-rule="evenodd" d="M54.2131 67.9375L54.1758 67.7312L88.7708 61.5234L88.8069 61.7297L54.2131 67.9375Z" fill="#F26608"/>
<path fill-rule="evenodd" clip-rule="evenodd" d="M54.1875 67.8L54.1514 67.5926L88.7464 61.3848L88.7825 61.5922L54.1875 67.8Z" fill="#F26608"/>
<path fill-rule="evenodd" clip-rule="evenodd" d="M54.1641 67.6613L54.1279 67.4539L88.7229 61.2461L88.7591 61.4535L54.1641 67.6613Z" fill="#F26608"/>
<path fill-rule="evenodd" clip-rule="evenodd" d="M54.1388 67.5254L54.1016 67.3191L88.6966 61.1113L88.7339 61.3176L54.1388 67.5254Z" fill="#F26608"/>
<path fill-rule="evenodd" clip-rule="evenodd" d="M54.1144 67.3867L54.0771 67.1805L88.6722 60.9727L88.7094 61.1789L54.1144 67.3867Z" fill="#F26608"/>
<path fill-rule="evenodd" clip-rule="evenodd" d="M54.09 67.2492L54.0527 67.0418L88.6477 60.834L88.6839 61.0414L54.09 67.2492Z" fill="#F26608"/>
<path fill-rule="evenodd" clip-rule="evenodd" d="M54.0654 67.1105L54.0293 66.9031L88.6243 60.6953L88.6604 60.9027L54.0654 67.1105Z" fill="#F26608"/>
<path fill-rule="evenodd" clip-rule="evenodd" d="M54.0402 66.9746L54.0029 66.7684L88.5979 60.5605L88.6352 60.7668L54.0402 66.9746Z" fill="#F26608"/>
<path fill-rule="evenodd" clip-rule="evenodd" d="M54.0158 66.8359L53.9785 66.6285L88.5735 60.4219L88.6108 60.6281L54.0158 66.8359Z" fill="#F26608"/>
<path fill-rule="evenodd" clip-rule="evenodd" d="M53.9914 66.6984L53.9541 66.491L88.5491 60.2832L88.5852 60.4906L53.9914 66.6984Z" fill="#F26608"/>
<path fill-rule="evenodd" clip-rule="evenodd" d="M53.9648 66.5586L53.9287 66.3523L88.5237 60.1445L88.561 60.3519L53.9648 66.5586Z" fill="#F26608"/>
<path fill-rule="evenodd" clip-rule="evenodd" d="M53.9404 66.4238L53.9043 66.2176L88.4981 60.0098L88.5354 60.216L53.9404 66.4238Z" fill="#F26608"/>
<path fill-rule="evenodd" clip-rule="evenodd" d="M53.9162 66.2824L53.8789 66.075L88.4739 59.8672L88.5112 60.0746L53.9162 66.2824Z" fill="#F26608"/>
<path fill-rule="evenodd" clip-rule="evenodd" d="M53.8918 66.1476L53.8545 65.9402L88.4495 59.7324L88.4868 59.9398L53.8918 66.1476Z" fill="#F26608"/>
<path fill-rule="evenodd" clip-rule="evenodd" d="M53.8674 66.0078L53.8301 65.8016L88.4251 59.5938L88.4612 59.8L53.8674 66.0078Z" fill="#F26608"/>
<path fill-rule="evenodd" clip-rule="evenodd" d="M53.8418 65.8691L53.8057 65.6629L88.4007 59.4551L88.4368 59.6613L53.8418 65.8691Z" fill="#F26608"/>
<path fill-rule="evenodd" clip-rule="evenodd" d="M53.8176 65.7316L53.7803 65.5242L88.3753 59.3164L88.4126 59.5238L53.8176 65.7316Z" fill="#F26608"/>
<path fill-rule="evenodd" clip-rule="evenodd" d="M53.7931 65.5968L53.7559 65.3894L88.3509 59.1816L88.3881 59.389L53.7931 65.5968Z" fill="#F26608"/>
<path fill-rule="evenodd" clip-rule="evenodd" d="M53.7687 65.457L53.7314 65.2508L88.3265 59.043L88.3626 59.2492L53.7687 65.457Z" fill="#F26608"/>
<path fill-rule="evenodd" clip-rule="evenodd" d="M53.7432 65.3183L53.707 65.1109L88.302 58.9043L88.3393 59.1105L53.7432 65.3183Z" fill="#F26608"/>
<path fill-rule="evenodd" clip-rule="evenodd" d="M53.7187 65.1808L53.6826 64.9734L88.2765 58.7656L88.3137 58.973L53.7187 65.1808Z" fill="#F26608"/>
<path fill-rule="evenodd" clip-rule="evenodd" d="M53.6945 65.0449L53.6572 64.8387L88.2522 58.6309L88.2895 58.8371L53.6945 65.0449Z" fill="#F26608"/>
<path fill-rule="evenodd" clip-rule="evenodd" d="M53.6701 64.9062L53.6328 64.7L88.2278 58.4922L88.2651 58.6984L53.6701 64.9062Z" fill="#F26608"/>
<path fill-rule="evenodd" clip-rule="evenodd" d="M53.6447 64.7687L53.6074 64.5613L88.2024 58.3535L88.2385 58.5609L53.6447 64.7687Z" fill="#F26608"/>
<path fill-rule="evenodd" clip-rule="evenodd" d="M53.6191 64.63L53.583 64.4226L88.1768 58.2148L88.2153 58.4222L53.6191 64.63Z" fill="#F26608"/>
<path fill-rule="evenodd" clip-rule="evenodd" d="M53.5947 64.4902L53.5586 64.284L88.1524 58.0762L88.1897 58.2824L53.5947 64.4902Z" fill="#F26608"/>
<path fill-rule="evenodd" clip-rule="evenodd" d="M53.5705 64.3554L53.5332 64.1492L88.1282 57.9414L88.1655 58.1476L53.5705 64.3554Z" fill="#F26608"/>
<path fill-rule="evenodd" clip-rule="evenodd" d="M53.5461 64.2179L53.5088 64.0105L88.1038 57.8027L88.1399 58.0101L53.5461 64.2179Z" fill="#F26608"/>
<path fill-rule="evenodd" clip-rule="evenodd" d="M53.5218 64.0781L53.4834 63.8719L88.0796 57.6641L88.1157 57.8715L53.5218 64.0781Z" fill="#F26608"/>
<path fill-rule="evenodd" clip-rule="evenodd" d="M53.4961 63.9394L53.46 63.7332L88.0538 57.5254L88.0911 57.7316L53.4961 63.9394Z" fill="#F26608"/>
<path fill-rule="evenodd" clip-rule="evenodd" d="M53.4719 63.8047L53.4346 63.5973L88.0296 57.3906L88.0669 57.5969L53.4719 63.8047Z" fill="#F26608"/>
<path fill-rule="evenodd" clip-rule="evenodd" d="M53.4474 63.6672L53.4102 63.4598L88.0052 57.252L88.0424 57.4593L53.4474 63.6672Z" fill="#F26608"/>
<path fill-rule="evenodd" clip-rule="evenodd" d="M53.423 63.5273L53.3857 63.3211L87.9808 57.1133L88.0169 57.3207L53.423 63.5273Z" fill="#F26608"/>
<path fill-rule="evenodd" clip-rule="evenodd" d="M53.3974 63.3886L53.3613 63.1824L87.9563 56.9746L87.9924 57.1808L53.3974 63.3886Z" fill="#F26608"/>
<path fill-rule="evenodd" clip-rule="evenodd" d="M53.373 63.2531L53.3369 63.0457L87.9307 56.8379L87.968 57.0453L53.373 63.2531Z" fill="#F26608"/>
<path fill-rule="evenodd" clip-rule="evenodd" d="M53.3488 63.1164L53.3115 62.909L87.9065 56.7012L87.9438 56.9086L53.3488 63.1164Z" fill="#F26608"/>
<path fill-rule="evenodd" clip-rule="evenodd" d="M53.3234 62.9765L53.2861 62.7703L87.8811 56.5625L87.9184 56.7687L53.3234 62.9765Z" fill="#F26608"/>
<path fill-rule="evenodd" clip-rule="evenodd" d="M53.299 62.8379L53.2617 62.6316L87.8567 56.4238L87.8928 56.6301L53.299 62.8379Z" fill="#F26608"/>
<path fill-rule="evenodd" clip-rule="evenodd" d="M53.2734 62.7004L53.2373 62.493L87.8311 56.2852L87.8684 56.4925L53.2734 62.7004Z" fill="#F26608"/>
<path fill-rule="evenodd" clip-rule="evenodd" d="M53.2492 62.5625L53.2119 62.3562L87.8069 56.1484L87.8442 56.3558L53.2492 62.5625Z" fill="#F26608"/>
<path fill-rule="evenodd" clip-rule="evenodd" d="M53.2248 62.4258L53.1875 62.2195L87.7825 56.0117L87.8198 56.2179L53.2248 62.4258Z" fill="#F26608"/>
<path fill-rule="evenodd" clip-rule="evenodd" d="M53.2004 62.2871L53.1631 62.0797L87.7581 55.873L87.7942 56.0793L53.2004 62.2871Z" fill="#F26608"/>
<path fill-rule="evenodd" clip-rule="evenodd" d="M53.1748 62.1496L53.1387 61.9422L87.7337 55.7344L87.771 55.9418L53.1748 62.1496Z" fill="#F26608"/>
<path fill-rule="evenodd" clip-rule="evenodd" d="M53.1504 62.0117L53.1143 61.8055L87.7081 55.5977L87.7454 55.805L53.1504 62.0117Z" fill="#F26608"/>
<path fill-rule="evenodd" clip-rule="evenodd" d="M53.1262 61.875L53.0889 61.6687L87.6839 55.4609L87.7212 55.6672L53.1262 61.875Z" fill="#F26608"/>
<path fill-rule="evenodd" clip-rule="evenodd" d="M53.1017 61.7375L53.0645 61.5301L87.6595 55.3223L87.6967 55.5297L53.1017 61.7375Z" fill="#F26608"/>
<path fill-rule="evenodd" clip-rule="evenodd" d="M53.0762 61.5988L53.04 61.3914L87.635 55.1836L87.6712 55.391L53.0762 61.5988Z" fill="#F26608"/>
<path fill-rule="evenodd" clip-rule="evenodd" d="M53.0517 61.4609L53.0156 61.2547L87.6095 55.0469L87.6479 55.2531L53.0517 61.4609Z" fill="#F26608"/>
<path fill-rule="evenodd" clip-rule="evenodd" d="M53.0275 61.3242L52.9902 61.1168L87.5852 54.9102L87.6225 55.1164L53.0275 61.3242Z" fill="#F26608"/>
<path fill-rule="evenodd" clip-rule="evenodd" d="M53.0012 61.1867L52.9639 60.9793L87.5589 54.7715L87.5962 54.9789L53.0012 61.1867Z" fill="#F26608"/>
<path fill-rule="evenodd" clip-rule="evenodd" d="M52.9767 61.0468L52.9395 60.8406L87.5345 54.6328L87.5706 54.8402L52.9767 61.0468Z" fill="#F26608"/>
<path fill-rule="evenodd" clip-rule="evenodd" d="M52.9521 60.9082L52.916 60.7019L87.511 54.4941L87.5483 54.7004L52.9521 60.9082Z" fill="#F26608"/>
<path fill-rule="evenodd" clip-rule="evenodd" d="M52.9277 60.7734L52.8916 60.566L87.4854 54.3594L87.5227 54.5656L52.9277 60.7734Z" fill="#F26608"/>
<path fill-rule="evenodd" clip-rule="evenodd" d="M52.9025 60.634L52.8652 60.4266L87.4602 54.2188L87.4975 54.4261L52.9025 60.634Z" fill="#F26608"/>
<path fill-rule="evenodd" clip-rule="evenodd" d="M52.8781 60.4961L52.8408 60.2898L87.4358 54.082L87.4731 54.2883L52.8781 60.4961Z" fill="#F26608"/>
<path fill-rule="evenodd" clip-rule="evenodd" d="M52.8525 60.3574L52.8164 60.1512L87.4114 53.9434L87.4475 54.1496L52.8525 60.3574Z" fill="#F26608"/>
<path fill-rule="evenodd" clip-rule="evenodd" d="M52.8291 60.2218L52.793 60.0144L87.3868 53.8066L87.4253 54.014L52.8291 60.2218Z" fill="#F26608"/>
<path fill-rule="evenodd" clip-rule="evenodd" d="M52.8039 60.0832L52.7666 59.8758L87.3616 53.668L87.3989 53.8754L52.8039 60.0832Z" fill="#F26608"/>
<path fill-rule="evenodd" clip-rule="evenodd" d="M52.7795 59.9453L52.7422 59.7391L87.3372 53.5312L87.3745 53.7375L52.7795 59.9453Z" fill="#F26608"/>
<path fill-rule="evenodd" clip-rule="evenodd" d="M52.7539 59.8066L52.7178 59.5992L87.3128 53.3926L87.3501 53.5988L52.7539 59.8066Z" fill="#F26608"/>
<path fill-rule="evenodd" clip-rule="evenodd" d="M52.7297 59.6691L52.6924 59.4617L87.2885 53.2539L87.3247 53.4613L52.7297 59.6691Z" fill="#F26608"/>
<path fill-rule="evenodd" clip-rule="evenodd" d="M52.7041 59.5324L52.668 59.325L87.2618 53.1172L87.2991 53.3246L52.7041 59.5324Z" fill="#F26608"/>
<path fill-rule="evenodd" clip-rule="evenodd" d="M52.6799 59.3945L52.6426 59.1883L87.2376 52.9805L87.2749 53.1867L52.6799 59.3945Z" fill="#F26608"/>
<path fill-rule="evenodd" clip-rule="evenodd" d="M52.6554 59.2558L52.6182 59.0484L87.2132 52.8418L87.2504 53.048L52.6554 59.2558Z" fill="#F26608"/>
<path fill-rule="evenodd" clip-rule="evenodd" d="M52.6299 59.1183L52.5938 58.9109L87.1888 52.7031L87.2249 52.9105L52.6299 59.1183Z" fill="#F26608"/>
<path fill-rule="evenodd" clip-rule="evenodd" d="M52.6055 58.9804L52.5693 58.7742L87.1632 52.5664L87.2005 52.7726L52.6055 58.9804Z" fill="#F26608"/>
<path fill-rule="evenodd" clip-rule="evenodd" d="M52.5812 58.8437L52.5439 58.6375L87.1389 52.4297L87.1762 52.6359L52.5812 58.8437Z" fill="#F26608"/>
<path fill-rule="evenodd" clip-rule="evenodd" d="M52.5568 58.7043L52.5195 58.4969L87.1145 52.2891L87.1518 52.4965L52.5568 58.7043Z" fill="#F26608"/>
<path fill-rule="evenodd" clip-rule="evenodd" d="M52.5312 58.5675L52.4951 58.3601L87.0901 52.1523L87.1274 52.3597L52.5312 58.5675Z" fill="#F26608"/>
<path fill-rule="evenodd" clip-rule="evenodd" d="M52.5068 58.4297L52.4707 58.2234L87.0657 52.0156L87.1018 52.2219L52.5068 58.4297Z" fill="#F26608"/>
<path fill-rule="evenodd" clip-rule="evenodd" d="M52.4826 58.291L52.4453 58.0836L87.0403 51.877L87.0776 52.0832L52.4826 58.291Z" fill="#F26608"/>
<path fill-rule="evenodd" clip-rule="evenodd" d="M52.4582 58.1535L52.4209 57.9461L87.0159 51.7383L87.0532 51.9457L52.4582 58.1535Z" fill="#F26608"/>
<path fill-rule="evenodd" clip-rule="evenodd" d="M52.4338 58.0156L52.3965 57.8094L86.9915 51.6016L87.0276 51.809L52.4338 58.0156Z" fill="#F26608"/>
<path fill-rule="evenodd" clip-rule="evenodd" d="M52.4082 57.8769L52.3721 57.6707L86.9671 51.4629L87.0032 51.6691L52.4082 57.8769Z" fill="#F26608"/>
<path fill-rule="evenodd" clip-rule="evenodd" d="M52.3828 57.7402L52.3467 57.5328L86.9405 51.3262L86.979 51.5324L52.3828 57.7402Z" fill="#F26608"/>
<path fill-rule="evenodd" clip-rule="evenodd" d="M52.3586 57.6027L52.3213 57.3953L86.9163 51.1875L86.9536 51.3949L52.3586 57.6027Z" fill="#F26608"/>
<path fill-rule="evenodd" clip-rule="evenodd" d="M52.3342 57.4648L52.2969 57.2586L86.8919 51.0508L86.928 51.257L52.3342 57.4648Z" fill="#F26608"/>
<path fill-rule="evenodd" clip-rule="evenodd" d="M52.3097 57.3261L52.2725 57.1199L86.8675 50.9121L86.9036 51.1183L52.3097 57.3261Z" fill="#F26608"/>
<path fill-rule="evenodd" clip-rule="evenodd" d="M52.2842 57.1906L52.248 56.9832L86.843 50.7754L86.8792 50.9828L52.2842 57.1906Z" fill="#F26608"/>
<path fill-rule="evenodd" clip-rule="evenodd" d="M52.2599 57.0519L52.2227 56.8445L86.8177 50.6367L86.8549 50.8441L52.2599 57.0519Z" fill="#F26608"/>
<path fill-rule="evenodd" clip-rule="evenodd" d="M52.2355 56.914L52.1982 56.7078L86.7932 50.5L86.8305 50.7062L52.2355 56.914Z" fill="#F26608"/>
<path fill-rule="evenodd" clip-rule="evenodd" d="M52.2111 56.7754L52.1738 56.568L86.7688 50.3613L86.8049 50.5676L52.2111 56.7754Z" fill="#F26608"/>
<path fill-rule="evenodd" clip-rule="evenodd" d="M52.1855 56.6398L52.1494 56.4324L86.7444 50.2246L86.7805 50.432L52.1855 56.6398Z" fill="#F26608"/>
<path fill-rule="evenodd" clip-rule="evenodd" d="M52.1611 56.5L52.125 56.2937L86.7188 50.0859L86.7573 50.2933L52.1611 56.5Z" fill="#F26608"/>
<path fill-rule="evenodd" clip-rule="evenodd" d="M52.1369 56.3613L52.0996 56.1551L86.6946 49.9473L86.7319 50.1535L52.1369 56.3613Z" fill="#F26608"/>
<path fill-rule="evenodd" clip-rule="evenodd" d="M52.1125 56.2246L52.0752 56.0172L86.6702 49.8105L86.7063 50.0168L52.1125 56.2246Z" fill="#F26608"/>
<path fill-rule="evenodd" clip-rule="evenodd" d="M52.0869 56.0871L52.0508 55.8797L86.6458 49.6719L86.6831 49.8793L52.0869 56.0871Z" fill="#F26608"/>
<path fill-rule="evenodd" clip-rule="evenodd" d="M52.0615 55.9492L52.0254 55.743L86.6204 49.5352L86.6565 49.7425L52.0615 55.9492Z" fill="#F26608"/>
<path fill-rule="evenodd" clip-rule="evenodd" d="M52.0373 55.8105L52 55.6043L86.595 49.3965L86.6323 49.6027L52.0373 55.8105Z" fill="#F26608"/>
<path fill-rule="evenodd" clip-rule="evenodd" d="M52.0129 55.673L51.9756 55.4656L86.5706 49.2578L86.6079 49.4652L52.0129 55.673Z" fill="#F26608"/>
<path fill-rule="evenodd" clip-rule="evenodd" d="M51.9885 55.5351L51.9512 55.3289L86.5462 49.1211L86.5823 49.3285L51.9885 55.5351Z" fill="#F26608"/>
<path fill-rule="evenodd" clip-rule="evenodd" d="M51.9629 55.3984L51.9268 55.1922L86.5218 48.9844L86.5579 49.1906L51.9629 55.3984Z" fill="#F26608"/>
<path fill-rule="evenodd" clip-rule="evenodd" d="M51.9385 55.2597L51.9023 55.0523L86.4962 48.8457L86.5335 49.0519L51.9385 55.2597Z" fill="#F26608"/>
<path fill-rule="evenodd" clip-rule="evenodd" d="M51.9142 55.1222L51.877 54.9148L86.472 48.707L86.5092 48.9144L51.9142 55.1222Z" fill="#F26608"/>
<path fill-rule="evenodd" clip-rule="evenodd" d="M51.8898 54.9843L51.8525 54.7781L86.4475 48.5703L86.4837 48.7777L51.8898 54.9843Z" fill="#F26608"/>
<path fill-rule="evenodd" clip-rule="evenodd" d="M51.8642 54.8476L51.8281 54.6414L86.4231 48.4336L86.4604 48.6398L51.8642 54.8476Z" fill="#F26608"/>
<path fill-rule="evenodd" clip-rule="evenodd" d="M51.8398 54.709L51.8037 54.5016L86.3987 48.2949L86.4348 48.5011L51.8398 54.709Z" fill="#F26608"/>
<path fill-rule="evenodd" clip-rule="evenodd" d="M51.8156 54.5714L51.7783 54.3641L86.3733 48.1562L86.4106 48.3636L51.8156 54.5714Z" fill="#F26608"/>
<path fill-rule="evenodd" clip-rule="evenodd" d="M51.7912 54.4316L51.7539 54.2254L86.3489 48.0176L86.3862 48.225L51.7912 54.4316Z" fill="#F26608"/>
<path fill-rule="evenodd" clip-rule="evenodd" d="M51.7668 54.2949L51.7295 54.0887L86.3245 47.8809L86.3606 48.0871L51.7668 54.2949Z" fill="#F26608"/>
<path fill-rule="evenodd" clip-rule="evenodd" d="M51.7392 54.1593L51.7031 53.9519L86.2981 47.7441L86.3354 47.9515L51.7392 54.1593Z" fill="#F26608"/>
<path fill-rule="evenodd" clip-rule="evenodd" d="M51.7158 54.0207L51.6797 53.8133L86.2735 47.6055L86.3108 47.8129L51.7158 54.0207Z" fill="#F26608"/>
<path fill-rule="evenodd" clip-rule="evenodd" d="M51.6906 53.8808L51.6533 53.6746L86.2483 47.4668L86.2856 47.673L51.6906 53.8808Z" fill="#F26608"/>
<path fill-rule="evenodd" clip-rule="evenodd" d="M51.6662 53.7441L51.6289 53.5379L86.2239 47.3301L86.2612 47.5363L51.6662 53.7441Z" fill="#F26608"/>
<path fill-rule="evenodd" clip-rule="evenodd" d="M51.6418 53.6086L51.6045 53.4012L86.1995 47.1934L86.2356 47.4008L51.6418 53.6086Z" fill="#F26608"/>
<path fill-rule="evenodd" clip-rule="evenodd" d="M51.6172 53.4687L51.5811 53.2625L86.1761 47.0547L86.2122 47.2621L51.6172 53.4687Z" fill="#F26608"/>
<path fill-rule="evenodd" clip-rule="evenodd" d="M51.592 53.3301L51.5547 53.1238L86.1497 46.916L86.187 47.1222L51.592 53.3301Z" fill="#F26608"/>
<path fill-rule="evenodd" clip-rule="evenodd" d="M51.5676 53.1925L51.5303 52.9851L86.1253 46.7773L86.1626 46.9847L51.5676 53.1925Z" fill="#F26608"/>
<path fill-rule="evenodd" clip-rule="evenodd" d="M51.5431 53.0539L51.5059 52.8465L86.1009 46.6387L86.137 46.8461L51.5431 53.0539Z" fill="#F26608"/>
<path fill-rule="evenodd" clip-rule="evenodd" d="M51.5185 52.9179L51.4824 52.7117L86.0774 46.5039L86.1147 46.7113L51.5185 52.9179Z" fill="#F26608"/>
<path fill-rule="evenodd" clip-rule="evenodd" d="M51.4941 52.7793L51.458 52.573L86.0518 46.3652L86.0891 46.5715L51.4941 52.7793Z" fill="#F26608"/>
<path fill-rule="evenodd" clip-rule="evenodd" d="M51.4689 52.6418L51.4316 52.4344L86.0266 46.2266L86.0639 46.434L51.4689 52.6418Z" fill="#F26608"/>
<path fill-rule="evenodd" clip-rule="evenodd" d="M51.4435 52.5031L51.4062 52.2957L86.0013 46.0879L86.0385 46.2953L51.4435 52.5031Z" fill="#F26608"/>
<path fill-rule="evenodd" clip-rule="evenodd" d="M51.4191 52.3672L51.3818 52.1609L85.9768 45.9531L86.013 46.1594L51.4191 52.3672Z" fill="#F26608"/>
<path fill-rule="evenodd" clip-rule="evenodd" d="M51.3935 52.2285L51.3574 52.0211L85.9524 45.8145L85.9885 46.0207L51.3935 52.2285Z" fill="#F26608"/>
<path fill-rule="evenodd" clip-rule="evenodd" d="M51.3693 52.091L51.332 51.8836L85.927 45.6758L85.9643 45.8832L51.3693 52.091Z" fill="#F26608"/>
<path fill-rule="evenodd" clip-rule="evenodd" d="M51.3449 51.9511L51.3076 51.7449L85.9026 45.5371L85.9399 45.7445L51.3449 51.9511Z" fill="#F26608"/>
<path fill-rule="evenodd" clip-rule="evenodd" d="M51.3205 51.8164L51.2832 51.6102L85.8782 45.4023L85.9143 45.6086L51.3205 51.8164Z" fill="#F26608"/>
<path fill-rule="evenodd" clip-rule="evenodd" d="M51.2949 51.6777L51.2588 51.4703L85.8538 45.2637L85.8911 45.4699L51.2949 51.6777Z" fill="#F26608"/>
<path fill-rule="evenodd" clip-rule="evenodd" d="M51.2704 51.5395L51.2588 51.4754L85.855 45.2676L85.8654 45.3317L51.2704 51.5395Z" fill="#F26608"/>
</g>
<mask id="mask1_1879_3927" style="mask-type:luminance" maskUnits="userSpaceOnUse" x="53" y="47" width="14" height="13">
<path d="M53.4004 53.3173C53.4004 56.7917 56.2433 59.6347 59.7177 59.6347C63.1921 59.6347 66.035 56.7929 66.035 53.3173C66.035 49.8417 63.1921 47 59.7177 47C56.2433 47 53.4004 49.8429 53.4004 53.3173Z" fill="white"/>
</mask>
<g mask="url(#mask1_1879_3927)">
<path fill-rule="evenodd" clip-rule="evenodd" d="M54.2012 61.2489L54.2082 61.2897L67.6561 58.8767L67.6491 58.8359L54.2012 61.2489Z" fill="#F26608"/>
<path fill-rule="evenodd" clip-rule="evenodd" d="M54.2199 61.3567L54.1826 61.1493L67.6305 58.7363L67.6678 58.9437L54.2199 61.3567Z" fill="#F26608"/>
<path fill-rule="evenodd" clip-rule="evenodd" d="M54.1943 61.22L54.1582 61.0126L67.605 58.5996L67.6422 58.807L54.1943 61.22Z" fill="#F26608"/>
<path fill-rule="evenodd" clip-rule="evenodd" d="M54.1699 61.0801L54.1338 60.8739L67.5805 58.4609L67.6178 58.6672L54.1699 61.0801Z" fill="#F26608"/>
<path fill-rule="evenodd" clip-rule="evenodd" d="M54.1457 60.9415L54.1084 60.7341L67.5563 58.3223L67.5924 58.5285L54.1457 60.9415Z" fill="#F26608"/>
<path fill-rule="evenodd" clip-rule="evenodd" d="M54.1213 60.8059L54.084 60.5985L67.5319 58.1855L67.5692 58.3929L54.1213 60.8059Z" fill="#F26608"/>
<path fill-rule="evenodd" clip-rule="evenodd" d="M54.0969 60.668L54.0596 60.4618L67.5075 58.0488L67.5436 58.2551L54.0969 60.668Z" fill="#F26608"/>
<path fill-rule="evenodd" clip-rule="evenodd" d="M54.0713 60.5294L54.0352 60.3231L67.4819 57.9102L67.5192 58.1164L54.0713 60.5294Z" fill="#F26608"/>
<path fill-rule="evenodd" clip-rule="evenodd" d="M54.0469 60.3907L54.0107 60.1833L67.4575 57.7715L67.4948 57.9777L54.0469 60.3907Z" fill="#F26608"/>
<path fill-rule="evenodd" clip-rule="evenodd" d="M54.0226 60.2532L53.9854 60.0458L67.4333 57.6328L67.4694 57.8402L54.0226 60.2532Z" fill="#F26608"/>
<path fill-rule="evenodd" clip-rule="evenodd" d="M53.9972 60.1173L53.96 59.911L67.4079 57.498L67.4452 57.7054L53.9972 60.1173Z" fill="#F26608"/>
<path fill-rule="evenodd" clip-rule="evenodd" d="M53.9728 59.9786L53.9355 59.7724L67.3835 57.3594L67.4196 57.5656L53.9728 59.9786Z" fill="#F26608"/>
<path fill-rule="evenodd" clip-rule="evenodd" d="M53.9473 59.8399L53.9111 59.6325L67.3579 57.2207L67.3952 57.4269L53.9473 59.8399Z" fill="#F26608"/>
<path fill-rule="evenodd" clip-rule="evenodd" d="M53.923 59.7012L53.8857 59.495L67.3337 57.082L67.3709 57.2894L53.923 59.7012Z" fill="#F26608"/>
<path fill-rule="evenodd" clip-rule="evenodd" d="M53.8986 59.5665L53.8613 59.3602L67.3092 56.9473L67.3454 57.1535L53.8986 59.5665Z" fill="#F26608"/>
<path fill-rule="evenodd" clip-rule="evenodd" d="M53.8742 59.4278L53.8369 59.2204L67.2848 56.8086L67.321 57.0148L53.8742 59.4278Z" fill="#F26608"/>
<path fill-rule="evenodd" clip-rule="evenodd" d="M53.8486 59.2903L53.8125 59.0829L67.2593 56.6699L67.2965 56.8773L53.8486 59.2903Z" fill="#F26608"/>
<path fill-rule="evenodd" clip-rule="evenodd" d="M53.8242 59.1505L53.7881 58.9442L67.2348 56.5312L67.2721 56.7375L53.8242 59.1505Z" fill="#F26608"/>
<path fill-rule="evenodd" clip-rule="evenodd" d="M53.8 59.0137L53.7627 58.8075L67.2106 56.3945L67.2467 56.6008L53.8 59.0137Z" fill="#F26608"/>
<path fill-rule="evenodd" clip-rule="evenodd" d="M53.7756 58.877L53.7383 58.6696L67.1862 56.2578L67.2223 56.464L53.7756 58.877Z" fill="#F26608"/>
<path fill-rule="evenodd" clip-rule="evenodd" d="M53.7512 58.7395L53.7139 58.5321L67.1618 56.1191L67.1979 56.3265L53.7512 58.7395Z" fill="#F26608"/>
<path fill-rule="evenodd" clip-rule="evenodd" d="M53.7256 58.5997L53.6895 58.3935L67.1362 55.9805L67.1735 56.1879L53.7256 58.5997Z" fill="#F26608"/>
<path fill-rule="evenodd" clip-rule="evenodd" d="M53.7013 58.461L53.6641 58.2548L67.112 55.8418L67.1493 56.048L53.7013 58.461Z" fill="#F26608"/>
<path fill-rule="evenodd" clip-rule="evenodd" d="M53.676 58.3255L53.6387 58.1181L67.0866 55.7051L67.1227 55.9125L53.676 58.3255Z" fill="#F26608"/>
<path fill-rule="evenodd" clip-rule="evenodd" d="M53.6515 58.1876L53.6143 57.9813L67.0622 55.5684L67.0983 55.7758L53.6515 58.1876Z" fill="#F26608"/>
<path fill-rule="evenodd" clip-rule="evenodd" d="M53.626 58.0489L53.5898 57.8427L67.0366 55.4297L67.0739 55.6359L53.626 58.0489Z" fill="#F26608"/>
<path fill-rule="evenodd" clip-rule="evenodd" d="M53.6015 57.9102L53.5654 57.7028L67.0122 55.291L67.0495 55.4972L53.6015 57.9102Z" fill="#F26608"/>
<path fill-rule="evenodd" clip-rule="evenodd" d="M53.5773 57.7747L53.54 57.5673L66.988 55.1543L67.0241 55.3617L53.5773 57.7747Z" fill="#F26608"/>
<path fill-rule="evenodd" clip-rule="evenodd" d="M53.5529 57.6348L53.5156 57.4286L66.9635 55.0156L66.9997 55.223L53.5529 57.6348Z" fill="#F26608"/>
<path fill-rule="evenodd" clip-rule="evenodd" d="M53.5285 57.4981L53.4912 57.2919L66.938 54.8789L66.9752 55.0851L53.5285 57.4981Z" fill="#F26608"/>
<path fill-rule="evenodd" clip-rule="evenodd" d="M53.5029 57.3594L53.4668 57.1521L66.9135 54.7402L66.9508 54.9465L53.5029 57.3594Z" fill="#F26608"/>
<path fill-rule="evenodd" clip-rule="evenodd" d="M53.4785 57.2219L53.4424 57.0145L66.8891 54.6016L66.9264 54.809L53.4785 57.2219Z" fill="#F26608"/>
<path fill-rule="evenodd" clip-rule="evenodd" d="M53.4543 57.0841L53.417 56.8778L66.8649 54.4648L66.901 54.6722L53.4543 57.0841Z" fill="#F26608"/>
<path fill-rule="evenodd" clip-rule="evenodd" d="M53.4299 56.9473L53.3926 56.7411L66.8393 54.3281L66.8778 54.5344L53.4299 56.9473Z" fill="#F26608"/>
<path fill-rule="evenodd" clip-rule="evenodd" d="M53.4043 56.8098L53.3682 56.6024L66.8149 54.1895L66.8522 54.3968L53.4043 56.8098Z" fill="#F26608"/>
<path fill-rule="evenodd" clip-rule="evenodd" d="M53.3789 56.67L53.3428 56.4638L66.7895 54.0508L66.8268 54.2582L53.3789 56.67Z" fill="#F26608"/>
<path fill-rule="evenodd" clip-rule="evenodd" d="M53.3537 56.5333L53.3164 56.327L66.7643 53.9141L66.8016 54.1203L53.3537 56.5333Z" fill="#F26608"/>
<path fill-rule="evenodd" clip-rule="evenodd" d="M53.3293 56.3966L53.292 56.1892L66.7399 53.7773L66.7772 53.9836L53.3293 56.3966Z" fill="#F26608"/>
<path fill-rule="evenodd" clip-rule="evenodd" d="M53.3047 56.259L53.2686 56.0517L66.7153 53.6387L66.7526 53.8461L53.3047 56.259Z" fill="#F26608"/>
<path fill-rule="evenodd" clip-rule="evenodd" d="M53.2803 56.1192L53.2441 55.913L66.6909 53.5L66.7282 53.7074L53.2803 56.1192Z" fill="#F26608"/>
<path fill-rule="evenodd" clip-rule="evenodd" d="M53.2558 55.9825L53.2197 55.7763L66.6665 53.3633L66.7038 53.5695L53.2558 55.9825Z" fill="#F26608"/>
<path fill-rule="evenodd" clip-rule="evenodd" d="M53.2306 55.8458L53.1934 55.6384L66.6413 53.2266L66.6774 53.4328L53.2306 55.8458Z" fill="#F26608"/>
<path fill-rule="evenodd" clip-rule="evenodd" d="M53.2072 55.7063L53.1699 55.4989L66.6167 53.0859L66.6551 53.2933L53.2072 55.7063Z" fill="#F26608"/>
<path fill-rule="evenodd" clip-rule="evenodd" d="M53.1816 55.5684L53.1455 55.3622L66.5923 52.9492L66.6295 53.1566L53.1816 55.5684Z" fill="#F26608"/>
<path fill-rule="evenodd" clip-rule="evenodd" d="M53.1572 55.4298L53.1211 55.2235L66.5678 52.8105L66.6051 53.0168L53.1572 55.4298Z" fill="#F26608"/>
<path fill-rule="evenodd" clip-rule="evenodd" d="M53.132 55.2942L53.0947 55.0868L66.5426 52.6738L66.5799 52.8812L53.132 55.2942Z" fill="#F26608"/>
<path fill-rule="evenodd" clip-rule="evenodd" d="M53.1086 55.1555L53.0713 54.9481L66.5192 52.5352L66.5553 52.7425L53.1086 55.1555Z" fill="#F26608"/>
<path fill-rule="evenodd" clip-rule="evenodd" d="M53.083 55.0176L53.0469 54.8114L66.4936 52.3984L66.5309 52.6047L53.083 55.0176Z" fill="#F26608"/>
<path fill-rule="evenodd" clip-rule="evenodd" d="M53.0566 54.879L53.0205 54.6716L66.4673 52.2598L66.5045 52.466L53.0566 54.879Z" fill="#F26608"/>
<path fill-rule="evenodd" clip-rule="evenodd" d="M53.0322 54.7434L52.9961 54.536L66.4428 52.123L66.4801 52.3293L53.0322 54.7434Z" fill="#F26608"/>
<path fill-rule="evenodd" clip-rule="evenodd" d="M53.008 54.6036L52.9707 54.3974L66.4186 51.9844L66.4547 52.1918L53.008 54.6036Z" fill="#F26608"/>
<path fill-rule="evenodd" clip-rule="evenodd" d="M52.9836 54.4669L52.9463 54.2606L66.393 51.8477L66.4315 52.0539L52.9836 54.4669Z" fill="#F26608"/>
<path fill-rule="evenodd" clip-rule="evenodd" d="M52.958 54.3282L52.9219 54.1208L66.3686 51.709L66.4059 51.914L52.958 54.3282Z" fill="#F26608"/>
<path fill-rule="evenodd" clip-rule="evenodd" d="M52.9336 54.1926L52.8975 53.9852L66.3442 51.5723L66.3815 51.7797L52.9336 54.1926Z" fill="#F26608"/>
<path fill-rule="evenodd" clip-rule="evenodd" d="M52.9094 54.0528L52.8721 53.8466L66.32 51.4336L66.3573 51.641L52.9094 54.0528Z" fill="#F26608"/>
<path fill-rule="evenodd" clip-rule="evenodd" d="M52.8849 53.9161L52.8477 53.7099L66.2956 51.2969L66.3317 51.5031L52.8849 53.9161Z" fill="#F26608"/>
<path fill-rule="evenodd" clip-rule="evenodd" d="M52.8594 53.7766L52.8232 53.5692L66.27 51.1562L66.3073 51.3636L52.8594 53.7766Z" fill="#F26608"/>
<path fill-rule="evenodd" clip-rule="evenodd" d="M52.8349 53.6399L52.7988 53.4325L66.2456 51.0195L66.2829 51.2269L52.8349 53.6399Z" fill="#F26608"/>
<path fill-rule="evenodd" clip-rule="evenodd" d="M52.8107 53.502L52.7734 53.2958L66.2214 50.8828L66.2586 51.089L52.8107 53.502Z" fill="#F26608"/>
<path fill-rule="evenodd" clip-rule="evenodd" d="M52.7863 53.3633L52.749 53.156L66.1969 50.7441L66.2331 50.9504L52.7863 53.3633Z" fill="#F26608"/>
<path fill-rule="evenodd" clip-rule="evenodd" d="M52.7619 53.2258L52.7246 53.0184L66.1725 50.6055L66.2086 50.8129L52.7619 53.2258Z" fill="#F26608"/>
<path fill-rule="evenodd" clip-rule="evenodd" d="M52.7353 53.088L52.6992 52.8817L66.146 50.4688L66.1833 50.6761L52.7353 53.088Z" fill="#F26608"/>
<path fill-rule="evenodd" clip-rule="evenodd" d="M52.7109 52.9512L52.6748 52.745L66.1216 50.332L66.1588 50.5383L52.7109 52.9512Z" fill="#F26608"/>
<path fill-rule="evenodd" clip-rule="evenodd" d="M52.6867 52.8126L52.6494 52.6052L66.0973 50.1934L66.1334 50.3996L52.6867 52.8126Z" fill="#F26608"/>
<path fill-rule="evenodd" clip-rule="evenodd" d="M52.6623 52.6751L52.625 52.4677L66.0729 50.0547L66.109 50.2621L52.6623 52.6751Z" fill="#F26608"/>
<path fill-rule="evenodd" clip-rule="evenodd" d="M52.6367 52.5372L52.6006 52.331L66.0473 49.918L66.0858 50.1254L52.6367 52.5372Z" fill="#F26608"/>
<path fill-rule="evenodd" clip-rule="evenodd" d="M52.6123 52.4005L52.5762 52.1942L66.0229 49.7812L66.0602 49.9875L52.6123 52.4005Z" fill="#F26608"/>
<path fill-rule="evenodd" clip-rule="evenodd" d="M52.5881 52.2618L52.5508 52.0544L65.9987 49.6426L66.036 49.8488L52.5881 52.2618Z" fill="#F26608"/>
<path fill-rule="evenodd" clip-rule="evenodd" d="M52.5637 52.1231L52.5264 51.9169L65.9743 49.5039L66.0104 49.7113L52.5637 52.1231Z" fill="#F26608"/>
<path fill-rule="evenodd" clip-rule="evenodd" d="M52.5381 51.9864L52.502 51.7802L65.9487 49.3672L65.9872 49.5734L52.5381 51.9864Z" fill="#F26608"/>
<path fill-rule="evenodd" clip-rule="evenodd" d="M52.5137 51.8477L52.4775 51.6403L65.9243 49.2285L65.9616 49.4347L52.5137 51.8477Z" fill="#F26608"/>
<path fill-rule="evenodd" clip-rule="evenodd" d="M52.4892 51.7122L52.4531 51.5048L65.8999 49.0918L65.9372 49.2992L52.4892 51.7122Z" fill="#F26608"/>
<path fill-rule="evenodd" clip-rule="evenodd" d="M52.465 51.5723L52.4277 51.3661L65.8756 48.9531L65.9118 49.1605L52.465 51.5723Z" fill="#F26608"/>
<path fill-rule="evenodd" clip-rule="evenodd" d="M52.4406 51.4337L52.4033 51.2274L65.8512 48.8145L65.8874 49.0207L52.4406 51.4337Z" fill="#F26608"/>
<path fill-rule="evenodd" clip-rule="evenodd" d="M52.414 51.2969L52.3779 51.0896L65.8247 48.6777L65.862 48.884L52.414 51.2969Z" fill="#F26608"/>
<path fill-rule="evenodd" clip-rule="evenodd" d="M52.3896 51.1614L52.3535 50.954L65.8003 48.541L65.8375 48.7472L52.3896 51.1614Z" fill="#F26608"/>
<path fill-rule="evenodd" clip-rule="evenodd" d="M52.3654 51.0216L52.3281 50.8153L65.776 48.4023L65.8133 48.6086L52.3654 51.0216Z" fill="#F26608"/>
<path fill-rule="evenodd" clip-rule="evenodd" d="M52.341 50.8829L52.3037 50.6767L65.7516 48.2637L65.7889 48.4699L52.341 50.8829Z" fill="#F26608"/>
<path fill-rule="evenodd" clip-rule="evenodd" d="M52.3166 50.7462L52.2793 50.5388L65.7272 48.127L65.7633 48.332L52.3166 50.7462Z" fill="#F26608"/>
<path fill-rule="evenodd" clip-rule="evenodd" d="M52.291 50.6094L52.2549 50.4032L65.7016 47.9902L65.7389 48.1976L52.291 50.6094Z" fill="#F26608"/>
<path fill-rule="evenodd" clip-rule="evenodd" d="M52.2668 50.4708L52.2295 50.2645L65.6774 47.8516L65.7147 48.0578L52.2668 50.4708Z" fill="#F26608"/>
<path fill-rule="evenodd" clip-rule="evenodd" d="M52.2424 50.3321L52.2051 50.1247L65.653 47.7129L65.6891 47.9191L52.2424 50.3321Z" fill="#F26608"/>
<path fill-rule="evenodd" clip-rule="evenodd" d="M52.2179 50.1946L52.1807 49.9872L65.6286 47.5742L65.6647 47.7816L52.2179 50.1946Z" fill="#F26608"/>
<path fill-rule="evenodd" clip-rule="evenodd" d="M52.1935 50.0567L52.1562 49.8505L65.6042 47.4375L65.6403 47.6449L52.1935 50.0567Z" fill="#F26608"/>
<path fill-rule="evenodd" clip-rule="evenodd" d="M52.168 49.92L52.1318 49.7138L65.5786 47.3008L65.6159 47.507L52.168 49.92Z" fill="#F26608"/>
<path fill-rule="evenodd" clip-rule="evenodd" d="M52.1437 49.7813L52.1064 49.5739L65.5544 47.1621L65.5905 47.3672L52.1437 49.7813Z" fill="#F26608"/>
<path fill-rule="evenodd" clip-rule="evenodd" d="M52.1193 49.6438L52.082 49.4364L65.5299 47.0234L65.5661 47.2308L52.1193 49.6438Z" fill="#F26608"/>
<path fill-rule="evenodd" clip-rule="evenodd" d="M52.0929 49.504L52.0557 49.2977L65.5036 46.8848L65.5397 47.091L52.0929 49.504Z" fill="#F26608"/>
<path fill-rule="evenodd" clip-rule="evenodd" d="M52.0683 49.3692L52.0322 49.163L65.479 46.75L65.5163 46.9562L52.0683 49.3692Z" fill="#F26608"/>
<path fill-rule="evenodd" clip-rule="evenodd" d="M52.0439 49.2317L52.0078 49.0243L65.4546 46.6113L65.4918 46.8187L52.0439 49.2317Z" fill="#F26608"/>
<path fill-rule="evenodd" clip-rule="evenodd" d="M52.0187 49.093L51.9814 48.8856L65.4294 46.4727L65.4655 46.68L52.0187 49.093Z" fill="#F26608"/>
<path fill-rule="evenodd" clip-rule="evenodd" d="M51.9943 48.9532L51.957 48.747L65.4049 46.334L65.4411 46.5402L51.9943 48.9532Z" fill="#F26608"/>
<path fill-rule="evenodd" clip-rule="evenodd" d="M51.9709 48.8184L51.9336 48.611L65.3803 46.1992L65.4176 46.4054L51.9709 48.8184Z" fill="#F26608"/>
<path d="M65.2348 45.3845L51.7871 47.7969L51.9449 48.6765L65.3925 46.2641L65.2348 45.3845Z" fill="#F26608"/>
</g>
</g>
<defs>
<filter id="filter0_d_1879_3927" x="0" y="0.746094" width="138" height="138" filterUnits="userSpaceOnUse" color-interpolation-filters="sRGB">
<feFlood flood-opacity="0" result="BackgroundImageFix"/>
<feColorMatrix in="SourceAlpha" type="matrix" values="0 0 0 0 0 0 0 0 0 0 0 0 0 0 0 0 0 0 127 0" result="hardAlpha"/>
<feOffset dy="4"/>
<feGaussianBlur stdDeviation="9.5"/>
<feComposite in2="hardAlpha" operator="out"/>
<feColorMatrix type="matrix" values="0 0 0 0 0 0 0 0 0 0.0812501 0 0 0 0 0.8125 0 0 0 0.2 0"/>
<feBlend mode="normal" in2="BackgroundImageFix" result="effect1_dropShadow_1879_3927"/>
<feBlend mode="normal" in="SourceGraphic" in2="effect1_dropShadow_1879_3927" result="shape"/>
</filter>
<clipPath id="clip0_1879_3927">
<rect width="60" height="60" fill="white" transform="translate(39 35)"/>
</clipPath>
</defs>
</svg>
