<svg width="138" height="139" viewBox="0 0 138 139" fill="none" xmlns="http://www.w3.org/2000/svg">
<g filter="url(#filter0_d_1879_3927)">
<circle cx="69" cy="65.7461" r="50" fill="white"/>
</g>
<g clip-path="url(#clip0_1879_3927)">
<path d="M69 95C85.5685 95 99 81.5685 99 65C99 48.4315 85.5685 35 69 35C52.4315 35 39 48.4315 39 65C39 81.5685 52.4315 95 69 95Z" fill="#F2F2F2"/>
<path d="M73.6645 50.4411L57.9169 72.9318C56.0944 75.5354 56.7328 79.1569 59.3365 80.9793C61.9401 82.8018 65.5605 82.1634 67.3829 79.5608L83.1316 57.0691C84.9541 54.4654 84.3157 50.845 81.7131 49.0215C80.7102 48.3192 79.556 47.9824 78.4114 47.9824C76.5857 47.9824 74.7857 48.8404 73.6645 50.4401" fill="#6150DC"/>
<mask id="mask0_1879_3927" style="mask-type:luminance" maskUnits="userSpaceOnUse" x="56" y="47" width="29" height="36">
<path d="M73.6645 50.4411L57.9169 72.9318C56.0944 75.5354 56.7328 79.1569 59.3365 80.9793C61.9401 82.8018 65.5605 82.1634 67.3829 79.5608L83.1316 57.0691C84.9541 54.4654 84.3157 50.845 81.7131 49.0215C80.7102 48.3192 79.556 47.9824 78.4114 47.9824C76.5857 47.9824 74.7857 48.8404 73.6645 50.4401" fill="white"/>
</mask>
<g mask="url(#mask0_1879_3927)">
<path d="M89.0156 77.0206L57.3711 82.6973L57.5333 83.6015L89.1778 77.9249L89.0156 77.0206Z" fill="#6150DC"/>
<path fill-rule="evenodd" clip-rule="evenodd" d="M57.3787 82.7635L57.3457 82.5738L88.9902 76.8965L89.0243 77.0851L57.3787 82.7635Z" fill="#6150DC"/>
<path fill-rule="evenodd" clip-rule="evenodd" d="M57.3563 82.6376L57.3232 82.4479L88.9666 76.7695L89.0007 76.9592L57.3563 82.6376Z" fill="#6150DC"/>
<path fill-rule="evenodd" clip-rule="evenodd" d="M57.3339 82.5115L57.2998 82.3229L88.9443 76.6445L88.9784 76.8342L57.3339 82.5115Z" fill="#6150DC"/>
<path fill-rule="evenodd" clip-rule="evenodd" d="M57.3114 82.3846L57.2773 82.1959L88.9218 76.5176L88.9559 76.7062L57.3114 82.3846Z" fill="#6150DC"/>
<path fill-rule="evenodd" clip-rule="evenodd" d="M57.288 82.2587L57.2539 82.069L88.8994 76.3906L88.9325 76.5803L57.288 82.2587Z" fill="#6150DC"/>
<path fill-rule="evenodd" clip-rule="evenodd" d="M57.2655 82.1326L57.2324 81.944L88.8758 76.2656L88.9099 76.4553L57.2655 82.1326Z" fill="#6150DC"/>
<path fill-rule="evenodd" clip-rule="evenodd" d="M57.2431 82.0076L57.209 81.819L88.8534 76.1406L88.8876 76.3293L57.2431 82.0076Z" fill="#6150DC"/>
<path fill-rule="evenodd" clip-rule="evenodd" d="M57.2206 81.8807L57.1865 81.692L88.831 76.0137L88.8651 76.2023L57.2206 81.8807Z" fill="#6150DC"/>
<path fill-rule="evenodd" clip-rule="evenodd" d="M57.1981 81.7548L57.165 81.5651L88.8095 75.8867L88.8425 76.0764L57.1981 81.7548Z" fill="#6150DC"/>
<path fill-rule="evenodd" clip-rule="evenodd" d="M57.1756 81.6287L57.1426 81.4401L88.787 75.7617L88.8201 75.9514L57.1756 81.6287Z" fill="#6150DC"/>
<path fill-rule="evenodd" clip-rule="evenodd" d="M57.1532 81.5037L57.1201 81.3151L88.7635 75.6367L88.7976 75.8254L57.1532 81.5037Z" fill="#6150DC"/>
<path fill-rule="evenodd" clip-rule="evenodd" d="M57.1308 81.3768L57.0967 81.1871L88.7411 75.5098L88.7752 75.6984L57.1308 81.3768Z" fill="#6150DC"/>
<path fill-rule="evenodd" clip-rule="evenodd" d="M57.1083 81.2509L57.0742 81.0612L88.7187 75.3828L88.7528 75.5725L57.1083 81.2509Z" fill="#6150DC"/>
<path fill-rule="evenodd" clip-rule="evenodd" d="M57.0848 81.1248L57.0518 80.9362L88.6962 75.2578L88.7293 75.4475L57.0848 81.1248Z" fill="#6150DC"/>
<path fill-rule="evenodd" clip-rule="evenodd" d="M57.0623 80.9979L57.0293 80.8092L88.6727 75.1309L88.7068 75.3195L57.0623 80.9979Z" fill="#6150DC"/>
<path fill-rule="evenodd" clip-rule="evenodd" d="M57.04 80.8729L57.0059 80.6832L88.6503 75.0059L88.6844 75.1945L57.04 80.8729Z" fill="#6150DC"/>
<path fill-rule="evenodd" clip-rule="evenodd" d="M57.0175 80.747L56.9834 80.5573L88.6279 74.8789L88.662 75.0686L57.0175 80.747Z" fill="#6150DC"/>
<path fill-rule="evenodd" clip-rule="evenodd" d="M56.994 80.6209L56.9609 80.4323L88.6054 74.7539L88.6384 74.9425L56.994 80.6209Z" fill="#6150DC"/>
<path fill-rule="evenodd" clip-rule="evenodd" d="M56.9715 80.4939L56.9385 80.3042L88.5819 74.627L88.617 74.8156L56.9715 80.4939Z" fill="#6150DC"/>
<path fill-rule="evenodd" clip-rule="evenodd" d="M56.9491 80.3681L56.915 80.1784L88.5595 74.5L88.5936 74.6897L56.9491 80.3681Z" fill="#6150DC"/>
<path fill-rule="evenodd" clip-rule="evenodd" d="M56.9267 80.2431L56.8926 80.0534L88.537 74.375L88.5711 74.5647L56.9267 80.2431Z" fill="#6150DC"/>
<path fill-rule="evenodd" clip-rule="evenodd" d="M56.9042 80.117L56.8701 79.9284L88.5146 74.25L88.5476 74.4386L56.9042 80.117Z" fill="#6150DC"/>
<path fill-rule="evenodd" clip-rule="evenodd" d="M56.8807 79.99L56.8477 79.8003L88.4921 74.123L88.5252 74.3117L56.8807 79.99Z" fill="#6150DC"/>
<path fill-rule="evenodd" clip-rule="evenodd" d="M56.8592 79.8642L56.8262 79.6744L88.4696 73.9961L88.5047 74.1858L56.8592 79.8642Z" fill="#6150DC"/>
<path fill-rule="evenodd" clip-rule="evenodd" d="M56.8368 79.7381L56.8027 79.5494L88.4472 73.8711L88.4813 74.0608L56.8368 79.7381Z" fill="#6150DC"/>
<path fill-rule="evenodd" clip-rule="evenodd" d="M56.8144 79.6131L56.7803 79.4244L88.4247 73.7461L88.4578 73.9347L56.8144 79.6131Z" fill="#6150DC"/>
<path fill-rule="evenodd" clip-rule="evenodd" d="M56.7909 79.4861L56.7578 79.2964L88.4023 73.6191L88.4353 73.8078L56.7909 79.4861Z" fill="#6150DC"/>
<path fill-rule="evenodd" clip-rule="evenodd" d="M56.7684 79.3602L56.7354 79.1705L88.3798 73.4922L88.4129 73.6819L56.7684 79.3602Z" fill="#6150DC"/>
<path fill-rule="evenodd" clip-rule="evenodd" d="M56.746 79.2342L56.7119 79.0455L88.3564 73.3672L88.3905 73.5569L56.746 79.2342Z" fill="#6150DC"/>
<path fill-rule="evenodd" clip-rule="evenodd" d="M56.7236 79.1072L56.6895 78.9175L88.3339 73.2402L88.368 73.4289L56.7236 79.1072Z" fill="#6150DC"/>
<path fill-rule="evenodd" clip-rule="evenodd" d="M56.7011 78.9833L56.667 78.7936L88.3115 73.1152L88.3445 73.3049L56.7011 78.9833Z" fill="#6150DC"/>
<path fill-rule="evenodd" clip-rule="evenodd" d="M56.6776 78.8563L56.6445 78.6666L88.289 72.9883L88.322 73.178L56.6776 78.8563Z" fill="#6150DC"/>
<path fill-rule="evenodd" clip-rule="evenodd" d="M56.6551 78.7303L56.6221 78.5416L88.2655 72.8633L88.3006 73.0519L56.6551 78.7303Z" fill="#6150DC"/>
<path fill-rule="evenodd" clip-rule="evenodd" d="M56.6327 78.6033L56.5986 78.4136L88.2431 72.7363L88.2772 72.925L56.6327 78.6033Z" fill="#6150DC"/>
<path fill-rule="evenodd" clip-rule="evenodd" d="M56.6103 78.4774L56.5762 78.2877L88.2206 72.6094L88.2537 72.7991L56.6103 78.4774Z" fill="#6150DC"/>
<path fill-rule="evenodd" clip-rule="evenodd" d="M56.5867 78.3514L56.5537 78.1627L88.1982 72.4844L88.2323 72.6741L56.5867 78.3514Z" fill="#6150DC"/>
<path fill-rule="evenodd" clip-rule="evenodd" d="M56.5643 78.2264L56.5312 78.0377L88.1757 72.3594L88.2088 72.548L56.5643 78.2264Z" fill="#6150DC"/>
<path fill-rule="evenodd" clip-rule="evenodd" d="M56.5419 78.0994L56.5078 77.9097L88.1523 72.2324L88.1864 72.4211L56.5419 78.0994Z" fill="#6150DC"/>
<path fill-rule="evenodd" clip-rule="evenodd" d="M56.5195 77.9735L56.4854 77.7838L88.1298 72.1055L88.1639 72.2952L56.5195 77.9735Z" fill="#6150DC"/>
<path fill-rule="evenodd" clip-rule="evenodd" d="M56.497 77.8475L56.4629 77.6588L88.1074 71.9805L88.1404 72.1691L56.497 77.8475Z" fill="#6150DC"/>
<path fill-rule="evenodd" clip-rule="evenodd" d="M56.4744 77.7225L56.4414 77.5338L88.0859 71.8555L88.1189 72.0441L56.4744 77.7225Z" fill="#6150DC"/>
<path fill-rule="evenodd" clip-rule="evenodd" d="M56.452 77.5966L56.4189 77.4069L88.0634 71.7285L88.0965 71.9182L56.452 77.5966Z" fill="#6150DC"/>
<path fill-rule="evenodd" clip-rule="evenodd" d="M56.4296 77.4696L56.3955 77.2799L88.04 71.6016L88.0741 71.7913L56.4296 77.4696Z" fill="#6150DC"/>
<path fill-rule="evenodd" clip-rule="evenodd" d="M56.4072 77.3436L56.373 77.1549L88.0175 71.4766L88.0516 71.6652L56.4072 77.3436Z" fill="#6150DC"/>
<path fill-rule="evenodd" clip-rule="evenodd" d="M56.3836 77.2177L56.3506 77.028L87.995 71.3496L88.0292 71.5393L56.3836 77.2177Z" fill="#6150DC"/>
<path fill-rule="evenodd" clip-rule="evenodd" d="M56.3612 77.0927L56.3281 76.903L87.9726 71.2246L88.0056 71.4143L56.3612 77.0927Z" fill="#6150DC"/>
<path fill-rule="evenodd" clip-rule="evenodd" d="M56.3388 76.9646L56.3047 76.776L87.9492 71.0977L87.9833 71.2874L56.3388 76.9646Z" fill="#6150DC"/>
<path fill-rule="evenodd" clip-rule="evenodd" d="M56.3163 76.8397L56.2822 76.651L87.9267 70.9727L87.9608 71.1613L56.3163 76.8397Z" fill="#6150DC"/>
<path fill-rule="evenodd" clip-rule="evenodd" d="M56.2939 76.7138L56.2598 76.5241L87.9042 70.8457L87.9373 71.0354L56.2939 76.7138Z" fill="#6150DC"/>
<path fill-rule="evenodd" clip-rule="evenodd" d="M56.2703 76.5868L56.2373 76.3971L87.8818 70.7188L87.9148 70.9085L56.2703 76.5868Z" fill="#6150DC"/>
<path fill-rule="evenodd" clip-rule="evenodd" d="M56.2479 76.4607L56.2148 76.2721L87.8582 70.5938L87.8923 70.7824L56.2479 76.4607Z" fill="#6150DC"/>
<path fill-rule="evenodd" clip-rule="evenodd" d="M56.2255 76.3357L56.1914 76.1471L87.8359 70.4688L87.87 70.6574L56.2255 76.3357Z" fill="#6150DC"/>
<path fill-rule="evenodd" clip-rule="evenodd" d="M56.203 76.2099L56.1689 76.0202L87.8134 70.3418L87.8475 70.5315L56.203 76.2099Z" fill="#6150DC"/>
<path fill-rule="evenodd" clip-rule="evenodd" d="M56.1806 76.0829L56.1465 75.8932L87.7909 70.2148L87.824 70.4045L56.1806 76.0829Z" fill="#6150DC"/>
<path fill-rule="evenodd" clip-rule="evenodd" d="M56.1571 75.9568L56.124 75.7682L87.7685 70.0898L87.8015 70.2785L56.1571 75.9568Z" fill="#6150DC"/>
<path fill-rule="evenodd" clip-rule="evenodd" d="M56.1347 75.8318L56.1006 75.6421L87.745 69.9648L87.7792 70.1535L56.1347 75.8318Z" fill="#6150DC"/>
<path fill-rule="evenodd" clip-rule="evenodd" d="M56.1132 75.706L56.0791 75.5162L87.7236 69.8379L87.7577 70.0276L56.1132 75.706Z" fill="#6150DC"/>
<path fill-rule="evenodd" clip-rule="evenodd" d="M56.0907 75.5779L56.0566 75.3893L87.7011 69.7109L87.7341 69.8996L56.0907 75.5779Z" fill="#6150DC"/>
<path fill-rule="evenodd" clip-rule="evenodd" d="M56.0672 75.4529L56.0342 75.2643L87.6786 69.5859L87.7117 69.7746L56.0672 75.4529Z" fill="#6150DC"/>
<path fill-rule="evenodd" clip-rule="evenodd" d="M56.0448 75.327L56.0107 75.1373L87.6552 69.459L87.6893 69.6487L56.0448 75.327Z" fill="#6150DC"/>
<path fill-rule="evenodd" clip-rule="evenodd" d="M56.0224 75.2001L55.9883 75.0104L87.6327 69.332L87.6669 69.5217L56.0224 75.2001Z" fill="#6150DC"/>
<path fill-rule="evenodd" clip-rule="evenodd" d="M55.9999 75.074L55.9658 74.8854L87.6103 69.207L87.6433 69.3957L55.9999 75.074Z" fill="#6150DC"/>
<path fill-rule="evenodd" clip-rule="evenodd" d="M55.9775 74.949L55.9434 74.7604L87.5878 69.082L87.6209 69.2707L55.9775 74.949Z" fill="#6150DC"/>
<path fill-rule="evenodd" clip-rule="evenodd" d="M55.9539 74.8231L55.9209 74.6334L87.5654 68.9551L87.5984 69.1448L55.9539 74.8231Z" fill="#6150DC"/>
<path fill-rule="evenodd" clip-rule="evenodd" d="M55.9316 74.6951L55.8975 74.5065L87.5419 68.8281L87.576 69.0178L55.9316 74.6951Z" fill="#6150DC"/>
<path fill-rule="evenodd" clip-rule="evenodd" d="M55.9091 74.5701L55.875 74.3815L87.5195 68.7031L87.5536 68.8918L55.9091 74.5701Z" fill="#6150DC"/>
<path fill-rule="evenodd" clip-rule="evenodd" d="M55.8866 74.4451L55.8525 74.2554L87.497 68.5781L87.53 68.7668L55.8866 74.4451Z" fill="#6150DC"/>
<path fill-rule="evenodd" clip-rule="evenodd" d="M55.8631 74.3192L55.8301 74.1295L87.4745 68.4512L87.5086 68.6409L55.8631 74.3192Z" fill="#6150DC"/>
<path fill-rule="evenodd" clip-rule="evenodd" d="M55.8407 74.1912L55.8066 74.0026L87.4511 68.3242L87.4852 68.5129L55.8407 74.1912Z" fill="#6150DC"/>
<path fill-rule="evenodd" clip-rule="evenodd" d="M55.8183 74.0662L55.7842 73.8776L87.4286 68.1992L87.4627 68.3879L55.8183 74.0662Z" fill="#6150DC"/>
<path fill-rule="evenodd" clip-rule="evenodd" d="M55.7958 73.9403L55.7617 73.7506L87.4062 68.0723L87.4403 68.262L55.7958 73.9403Z" fill="#6150DC"/>
<path fill-rule="evenodd" clip-rule="evenodd" d="M55.7734 73.8153L55.7393 73.6256L87.3837 67.9473L87.4168 68.137L55.7734 73.8153Z" fill="#6150DC"/>
<path fill-rule="evenodd" clip-rule="evenodd" d="M55.7508 73.6873L55.7178 73.4987L87.3612 67.8203L87.3953 68.009L55.7508 73.6873Z" fill="#6150DC"/>
<path fill-rule="evenodd" clip-rule="evenodd" d="M55.7284 73.5623L55.6943 73.3737L87.3388 67.6953L87.3729 67.884L55.7284 73.5623Z" fill="#6150DC"/>
<path fill-rule="evenodd" clip-rule="evenodd" d="M55.706 73.4364L55.6719 73.2467L87.3163 67.5684L87.3504 67.7581L55.706 73.4364Z" fill="#6150DC"/>
<path fill-rule="evenodd" clip-rule="evenodd" d="M55.6835 73.3084L55.6494 73.1198L87.2939 67.4414L87.3269 67.6311L55.6835 73.3084Z" fill="#6150DC"/>
<path fill-rule="evenodd" clip-rule="evenodd" d="M55.66 73.1834L55.627 72.9948L87.2714 67.3164L87.3055 67.505L55.66 73.1834Z" fill="#6150DC"/>
<path fill-rule="evenodd" clip-rule="evenodd" d="M55.6375 73.0575L55.6045 72.8678L87.2479 67.1895L87.282 67.3792L55.6375 73.0575Z" fill="#6150DC"/>
<path fill-rule="evenodd" clip-rule="evenodd" d="M55.6152 72.9325L55.5811 72.7428L87.2255 67.0645L87.2596 67.2542L55.6152 72.9325Z" fill="#6150DC"/>
<path fill-rule="evenodd" clip-rule="evenodd" d="M55.5927 72.8045L55.5586 72.6159L87.2031 66.9375L87.2372 67.1272L55.5927 72.8045Z" fill="#6150DC"/>
<path fill-rule="evenodd" clip-rule="evenodd" d="M55.5692 72.6795L55.5361 72.4909L87.1806 66.8125L87.2136 67.0011L55.5692 72.6795Z" fill="#6150DC"/>
<path fill-rule="evenodd" clip-rule="evenodd" d="M55.5467 72.5536L55.5137 72.3639L87.1571 66.6855L87.1912 66.8753L55.5467 72.5536Z" fill="#6150DC"/>
<path fill-rule="evenodd" clip-rule="evenodd" d="M55.5243 72.4286L55.4902 72.2389L87.1347 66.5605L87.1688 66.7503L55.5243 72.4286Z" fill="#6150DC"/>
<path fill-rule="evenodd" clip-rule="evenodd" d="M55.5019 72.3006L55.4678 72.1119L87.1122 66.4336L87.1463 66.6222L55.5019 72.3006Z" fill="#6150DC"/>
<path fill-rule="evenodd" clip-rule="evenodd" d="M55.4794 72.1756L55.4453 71.9859L87.0898 66.3086L87.1239 66.4972L55.4794 72.1756Z" fill="#6150DC"/>
<path fill-rule="evenodd" clip-rule="evenodd" d="M55.4559 72.0497L55.4229 71.86L87.0673 66.1816L87.1004 66.3713L55.4559 72.0497Z" fill="#6150DC"/>
<path fill-rule="evenodd" clip-rule="evenodd" d="M55.4334 71.9236L55.4004 71.735L87.0438 66.0566L87.0779 66.2463L55.4334 71.9236Z" fill="#6150DC"/>
<path fill-rule="evenodd" clip-rule="evenodd" d="M55.4111 71.7967L55.377 71.608L87.0214 65.9297L87.0555 66.1183L55.4111 71.7967Z" fill="#6150DC"/>
<path fill-rule="evenodd" clip-rule="evenodd" d="M55.3886 71.6717L55.3545 71.482L86.999 65.8047L87.0331 65.9933L55.3886 71.6717Z" fill="#6150DC"/>
<path fill-rule="evenodd" clip-rule="evenodd" d="M55.366 71.5458L55.333 71.3561L86.9775 65.6777L87.0105 65.8674L55.366 71.5458Z" fill="#6150DC"/>
<path fill-rule="evenodd" clip-rule="evenodd" d="M55.3436 71.4178L55.3105 71.2291L86.9539 65.5508L86.988 65.7405L55.3436 71.4178Z" fill="#6150DC"/>
<path fill-rule="evenodd" clip-rule="evenodd" d="M55.3212 71.2928L55.2871 71.1041L86.9316 65.4258L86.9657 65.6144L55.3212 71.2928Z" fill="#6150DC"/>
<path fill-rule="evenodd" clip-rule="evenodd" d="M55.2988 71.1669L55.2646 70.9772L86.9091 65.2988L86.9432 65.4885L55.2988 71.1669Z" fill="#6150DC"/>
<path fill-rule="evenodd" clip-rule="evenodd" d="M55.2763 71.0419L55.2422 70.8522L86.8867 65.1738L86.9197 65.3635L55.2763 71.0419Z" fill="#6150DC"/>
<path fill-rule="evenodd" clip-rule="evenodd" d="M55.2528 70.9139L55.2197 70.7252L86.8642 65.0469L86.8972 65.2355L55.2528 70.9139Z" fill="#6150DC"/>
<path fill-rule="evenodd" clip-rule="evenodd" d="M55.2303 70.7889L55.1973 70.5992L86.8407 64.9219L86.8748 65.1105L55.2303 70.7889Z" fill="#6150DC"/>
<path fill-rule="evenodd" clip-rule="evenodd" d="M55.2079 70.663L55.1738 70.4733L86.8183 64.7949L86.8524 64.9846L55.2079 70.663Z" fill="#6150DC"/>
<path fill-rule="evenodd" clip-rule="evenodd" d="M55.1855 70.5369L55.1514 70.3483L86.7958 64.6699L86.8299 64.8596L55.1855 70.5369Z" fill="#6150DC"/>
<path fill-rule="evenodd" clip-rule="evenodd" d="M55.1619 70.41L55.1289 70.2213L86.7734 64.543L86.8064 64.7316L55.1619 70.41Z" fill="#6150DC"/>
<path fill-rule="evenodd" clip-rule="evenodd" d="M55.1395 70.285L55.1064 70.0953L86.7498 64.418L86.785 64.6066L55.1395 70.285Z" fill="#6150DC"/>
<path fill-rule="evenodd" clip-rule="evenodd" d="M55.117 70.1591L55.084 69.9694L86.7274 64.291L86.7615 64.4807L55.117 70.1591Z" fill="#6150DC"/>
<path fill-rule="evenodd" clip-rule="evenodd" d="M55.0947 70.033L55.0605 69.8444L86.705 64.166L86.7391 64.3547L55.0947 70.033Z" fill="#6150DC"/>
<path fill-rule="evenodd" clip-rule="evenodd" d="M55.0711 69.9061L55.0381 69.7174L86.6825 64.0391L86.7167 64.2277L55.0711 69.9061Z" fill="#6150DC"/>
<path fill-rule="evenodd" clip-rule="evenodd" d="M55.0487 69.7802L55.0156 69.5905L86.6601 63.9121L86.6931 64.1018L55.0487 69.7802Z" fill="#6150DC"/>
<path fill-rule="evenodd" clip-rule="evenodd" d="M55.0272 69.6552L54.9941 69.4655L86.6375 63.7871L86.6716 63.9768L55.0272 69.6552Z" fill="#6150DC"/>
<path fill-rule="evenodd" clip-rule="evenodd" d="M55.0048 69.5271L54.9707 69.3385L86.6152 63.6602L86.6493 63.8488L55.0048 69.5271Z" fill="#6150DC"/>
<path fill-rule="evenodd" clip-rule="evenodd" d="M54.9823 69.4022L54.9482 69.2124L86.5927 63.5352L86.6268 63.7238L54.9823 69.4022Z" fill="#6150DC"/>
<path fill-rule="evenodd" clip-rule="evenodd" d="M54.9588 69.2763L54.9258 69.0866L86.5702 63.4082L86.6044 63.5979L54.9588 69.2763Z" fill="#6150DC"/>
<path fill-rule="evenodd" clip-rule="evenodd" d="M54.9364 69.1502L54.9033 68.9616L86.5467 63.2832L86.5819 63.4729L54.9364 69.1502Z" fill="#6150DC"/>
<path fill-rule="evenodd" clip-rule="evenodd" d="M54.914 69.0232L54.8799 68.8346L86.5243 63.1562L86.5585 63.3449L54.914 69.0232Z" fill="#6150DC"/>
<path fill-rule="evenodd" clip-rule="evenodd" d="M54.8915 68.8982L54.8574 68.7085L86.5019 63.0312L86.536 63.2199L54.8915 68.8982Z" fill="#6150DC"/>
<path fill-rule="evenodd" clip-rule="evenodd" d="M54.868 68.7724L54.835 68.5827L86.4794 62.9043L86.5135 63.094L54.868 68.7724Z" fill="#6150DC"/>
<path fill-rule="evenodd" clip-rule="evenodd" d="M54.8455 68.6463L54.8125 68.4577L86.457 62.7793L86.49 62.969L54.8455 68.6463Z" fill="#6150DC"/>
<path fill-rule="evenodd" clip-rule="evenodd" d="M54.8231 68.5193L54.79 68.3307L86.4334 62.6523L86.4675 62.841L54.8231 68.5193Z" fill="#6150DC"/>
<path fill-rule="evenodd" clip-rule="evenodd" d="M54.8007 68.3943L54.7666 68.2046L86.4111 62.5273L86.4452 62.716L54.8007 68.3943Z" fill="#6150DC"/>
<path fill-rule="evenodd" clip-rule="evenodd" d="M54.7782 68.2685L54.7441 68.0787L86.3886 62.4004L86.4227 62.5901L54.7782 68.2685Z" fill="#6150DC"/>
<path fill-rule="evenodd" clip-rule="evenodd" d="M54.7547 68.1424L54.7217 67.9537L86.3661 62.2754L86.4002 62.464L54.7547 68.1424Z" fill="#6150DC"/>
<path fill-rule="evenodd" clip-rule="evenodd" d="M54.7323 68.0154L54.6992 67.8268L86.3437 62.1484L86.3767 62.3371L54.7323 68.0154Z" fill="#6150DC"/>
<path fill-rule="evenodd" clip-rule="evenodd" d="M54.7099 67.8895L54.6758 67.6998L86.3202 62.0215L86.3543 62.2112L54.7099 67.8895Z" fill="#6150DC"/>
<path fill-rule="evenodd" clip-rule="evenodd" d="M54.6874 67.7635L54.6533 67.5748L86.2978 61.8965L86.3319 62.0862L54.6874 67.7635Z" fill="#6150DC"/>
<path fill-rule="evenodd" clip-rule="evenodd" d="M54.6651 67.6365L54.6299 67.4479L86.2754 61.7695L86.3085 61.9582L54.6651 67.6365Z" fill="#6150DC"/>
<path fill-rule="evenodd" clip-rule="evenodd" d="M54.6424 67.5115L54.6094 67.3218L86.2538 61.6445L86.2869 61.8332L54.6424 67.5115Z" fill="#6150DC"/>
<path fill-rule="evenodd" clip-rule="evenodd" d="M54.62 67.3856L54.5869 67.1959L86.2303 61.5176L86.2644 61.7073L54.62 67.3856Z" fill="#6150DC"/>
<path fill-rule="evenodd" clip-rule="evenodd" d="M54.5976 67.2596L54.5635 67.0709L86.2079 61.3926L86.242 61.5823L54.5976 67.2596Z" fill="#6150DC"/>
<path fill-rule="evenodd" clip-rule="evenodd" d="M54.5751 67.1326L54.541 66.944L86.1855 61.2656L86.2185 61.4543L54.5751 67.1326Z" fill="#6150DC"/>
<path fill-rule="evenodd" clip-rule="evenodd" d="M54.5516 67.0067L54.5186 66.817L86.163 61.1387L86.1961 61.3284L54.5516 67.0067Z" fill="#6150DC"/>
<path fill-rule="evenodd" clip-rule="evenodd" d="M54.5291 66.8817L54.4961 66.692L86.1406 61.0137L86.1736 61.2034L54.5291 66.8817Z" fill="#6150DC"/>
<path fill-rule="evenodd" clip-rule="evenodd" d="M54.5068 66.7557L54.4727 66.567L86.1171 60.8887L86.1512 61.0773L54.5068 66.7557Z" fill="#6150DC"/>
<path fill-rule="evenodd" clip-rule="evenodd" d="M54.4843 66.6287L54.4502 66.4401L86.0947 60.7617L86.1288 60.9504L54.4843 66.6287Z" fill="#6150DC"/>
<path fill-rule="evenodd" clip-rule="evenodd" d="M54.4618 66.5028L54.4277 66.3131L86.0722 60.6348L86.1052 60.8245L54.4618 66.5028Z" fill="#6150DC"/>
<path fill-rule="evenodd" clip-rule="evenodd" d="M54.4383 66.3778L54.4053 66.1881L86.0497 60.5098L86.0828 60.6995L54.4383 66.3778Z" fill="#6150DC"/>
<path fill-rule="evenodd" clip-rule="evenodd" d="M54.4159 66.2518L54.3818 66.0631L86.0263 60.3848L86.0604 60.5734L54.4159 66.2518Z" fill="#6150DC"/>
<path fill-rule="evenodd" clip-rule="evenodd" d="M54.3935 66.1248L54.3594 65.9351L86.0038 60.2578L86.0379 60.4465L54.3935 66.1248Z" fill="#6150DC"/>
<path fill-rule="evenodd" clip-rule="evenodd" d="M54.371 65.9989L54.3369 65.8092L85.9814 60.1309L86.0144 60.3206L54.371 65.9989Z" fill="#6150DC"/>
<path fill-rule="evenodd" clip-rule="evenodd" d="M54.3475 65.8729L54.3145 65.6842L85.9589 60.0059L85.993 60.1956L54.3475 65.8729Z" fill="#6150DC"/>
<path fill-rule="evenodd" clip-rule="evenodd" d="M54.325 65.7459L54.292 65.5573L85.9354 59.8789L85.9695 60.0675L54.325 65.7459Z" fill="#6150DC"/>
<path fill-rule="evenodd" clip-rule="evenodd" d="M54.3027 65.62L54.2686 65.4303L85.913 59.752L85.9471 59.9417L54.3027 65.62Z" fill="#6150DC"/>
<path fill-rule="evenodd" clip-rule="evenodd" d="M54.2802 65.495L54.2461 65.3053L85.8906 59.627L85.9247 59.8167L54.2802 65.495Z" fill="#6150DC"/>
<path fill-rule="evenodd" clip-rule="evenodd" d="M54.2587 65.3689L54.2246 65.1803L85.8691 59.502L85.9021 59.6906L54.2587 65.3689Z" fill="#6150DC"/>
<path fill-rule="evenodd" clip-rule="evenodd" d="M54.2352 65.242L54.2021 65.0534L85.8466 59.375L85.8797 59.5636L54.2352 65.242Z" fill="#6150DC"/>
<path fill-rule="evenodd" clip-rule="evenodd" d="M54.2128 65.1161L54.1787 64.9264L85.8232 59.248L85.8573 59.4378L54.2128 65.1161Z" fill="#6150DC"/>
<path fill-rule="evenodd" clip-rule="evenodd" d="M54.1904 64.9911L54.1562 64.8014L85.8007 59.123L85.8348 59.3128L54.1904 64.9911Z" fill="#6150DC"/>
<path fill-rule="evenodd" clip-rule="evenodd" d="M54.1679 64.865L54.1338 64.6764L85.7783 58.998L85.8113 59.1867L54.1679 64.865Z" fill="#6150DC"/>
<path fill-rule="evenodd" clip-rule="evenodd" d="M54.1444 64.7381L54.1113 64.5484L85.7558 58.8711L85.7899 59.0597L54.1444 64.7381Z" fill="#6150DC"/>
<path fill-rule="evenodd" clip-rule="evenodd" d="M54.1219 64.6122L54.0889 64.4225L85.7323 58.7441L85.7664 58.9338L54.1219 64.6122Z" fill="#6150DC"/>
<path fill-rule="evenodd" clip-rule="evenodd" d="M54.0995 64.4861L54.0654 64.2975L85.7099 58.6191L85.744 58.8078L54.0995 64.4861Z" fill="#6150DC"/>
<path fill-rule="evenodd" clip-rule="evenodd" d="M54.0771 64.3611L54.043 64.1725L85.6874 58.4941L85.7215 58.6828L54.0771 64.3611Z" fill="#6150DC"/>
<path fill-rule="evenodd" clip-rule="evenodd" d="M54.0546 64.2352L54.0205 64.0455L85.665 58.3672L85.698 58.5569L54.0546 64.2352Z" fill="#6150DC"/>
<path fill-rule="evenodd" clip-rule="evenodd" d="M54.0311 64.1083L53.998 63.9186L85.6414 58.2402L85.6766 58.4299L54.0311 64.1083Z" fill="#6150DC"/>
<path fill-rule="evenodd" clip-rule="evenodd" d="M54.0086 63.9822L53.9756 63.7936L85.619 58.1152L85.6531 58.3039L54.0086 63.9822Z" fill="#6150DC"/>
<path fill-rule="evenodd" clip-rule="evenodd" d="M53.9863 63.8553L53.9521 63.6666L85.5966 57.9883L85.6307 58.1769L53.9863 63.8553Z" fill="#6150DC"/>
<path fill-rule="evenodd" clip-rule="evenodd" d="M53.9638 63.7294L53.9297 63.5397L85.5742 57.8613L85.6072 58.051L53.9638 63.7294Z" fill="#6150DC"/>
<path fill-rule="evenodd" clip-rule="evenodd" d="M53.9414 63.6033L53.9062 63.4147L85.5518 57.7363L85.5848 57.926L53.9414 63.6033Z" fill="#6150DC"/>
<path fill-rule="evenodd" clip-rule="evenodd" d="M53.9188 63.4783L53.8857 63.2897L85.5291 57.6113L85.5632 57.8L53.9188 63.4783Z" fill="#6150DC"/>
<path fill-rule="evenodd" clip-rule="evenodd" d="M53.8964 63.3514L53.8623 63.1617L85.5068 57.4844L85.5409 57.673L53.8964 63.3514Z" fill="#6150DC"/>
<path fill-rule="evenodd" clip-rule="evenodd" d="M53.8739 63.2255L53.8398 63.0358L85.4843 57.3574L85.5184 57.5471L53.8739 63.2255Z" fill="#6150DC"/>
<path fill-rule="evenodd" clip-rule="evenodd" d="M53.8515 63.0994L53.8174 62.9108L85.4618 57.2324L85.4949 57.4221L53.8515 63.0994Z" fill="#6150DC"/>
<path fill-rule="evenodd" clip-rule="evenodd" d="M53.828 62.9744L53.7949 62.7858L85.4394 57.1074L85.4724 57.2961L53.828 62.9744Z" fill="#6150DC"/>
<path fill-rule="evenodd" clip-rule="evenodd" d="M53.8055 62.8485L53.7725 62.6588L85.4159 56.9805L85.45 57.1702L53.8055 62.8485Z" fill="#6150DC"/>
<path fill-rule="evenodd" clip-rule="evenodd" d="M53.7831 62.7216L53.749 62.5319L85.3935 56.8535L85.4276 57.0432L53.7831 62.7216Z" fill="#6150DC"/>
<path fill-rule="evenodd" clip-rule="evenodd" d="M53.7607 62.5955L53.7266 62.4069L85.371 56.7285L85.4051 56.9172L53.7607 62.5955Z" fill="#6150DC"/>
<path fill-rule="evenodd" clip-rule="evenodd" d="M53.7382 62.4686L53.7041 62.2799L85.3486 56.6016L85.3816 56.7902L53.7382 62.4686Z" fill="#6150DC"/>
<path fill-rule="evenodd" clip-rule="evenodd" d="M53.7147 62.3446L53.6816 62.1549L85.325 56.4766L85.3591 56.6663L53.7147 62.3446Z" fill="#6150DC"/>
<path fill-rule="evenodd" clip-rule="evenodd" d="M53.6923 62.2166L53.6582 62.028L85.3027 56.3496L85.3368 56.5393L53.6923 62.2166Z" fill="#6150DC"/>
<path fill-rule="evenodd" clip-rule="evenodd" d="M53.6698 62.0916L53.6357 61.903L85.2802 56.2246L85.3143 56.4132L53.6698 62.0916Z" fill="#6150DC"/>
<path fill-rule="evenodd" clip-rule="evenodd" d="M53.6474 61.9646L53.6133 61.7749L85.2577 56.0977L85.2908 56.2863L53.6474 61.9646Z" fill="#6150DC"/>
<path fill-rule="evenodd" clip-rule="evenodd" d="M53.6239 61.8388L53.5908 61.6491L85.2353 55.9707L85.2694 56.1604L53.6239 61.8388Z" fill="#6150DC"/>
<path fill-rule="evenodd" clip-rule="evenodd" d="M53.6014 61.7127L53.5684 61.5241L85.2118 55.8457L85.2459 56.0354L53.6014 61.7127Z" fill="#6150DC"/>
<path fill-rule="evenodd" clip-rule="evenodd" d="M53.579 61.5877L53.5449 61.3991L85.1894 55.7207L85.2235 55.9093L53.579 61.5877Z" fill="#6150DC"/>
<path fill-rule="evenodd" clip-rule="evenodd" d="M53.5566 61.4618L53.5225 61.2721L85.1669 55.5938L85.201 55.7835L53.5566 61.4618Z" fill="#6150DC"/>
<path fill-rule="evenodd" clip-rule="evenodd" d="M53.534 61.3349L53.501 61.1452L85.1454 55.4668L85.1785 55.6565L53.534 61.3349Z" fill="#6150DC"/>
<path fill-rule="evenodd" clip-rule="evenodd" d="M53.5116 61.2088L53.4785 61.0202L85.1219 55.3418L85.1571 55.5304L53.5116 61.2088Z" fill="#6150DC"/>
<path fill-rule="evenodd" clip-rule="evenodd" d="M53.4892 61.0838L53.4551 60.8941L85.0995 55.2168L85.1336 55.4054L53.4892 61.0838Z" fill="#6150DC"/>
<path fill-rule="evenodd" clip-rule="evenodd" d="M53.4667 60.9579L53.4326 60.7682L85.0771 55.0898L85.1112 55.2795L53.4667 60.9579Z" fill="#6150DC"/>
<path fill-rule="evenodd" clip-rule="evenodd" d="M53.4443 60.8299L53.4102 60.6412L85.0546 54.9629L85.0877 55.1526L53.4443 60.8299Z" fill="#6150DC"/>
<path fill-rule="evenodd" clip-rule="evenodd" d="M53.4207 60.7049L53.3877 60.5162L85.0322 54.8379L85.0663 55.0265L53.4207 60.7049Z" fill="#6150DC"/>
<path fill-rule="evenodd" clip-rule="evenodd" d="M53.3983 60.5779L53.3652 60.3882L85.0086 54.7109L85.0427 54.8996L53.3983 60.5779Z" fill="#6150DC"/>
<path fill-rule="evenodd" clip-rule="evenodd" d="M53.3759 60.454L53.3418 60.2643L84.9863 54.5859L85.0204 54.7756L53.3759 60.454Z" fill="#6150DC"/>
<path fill-rule="evenodd" clip-rule="evenodd" d="M53.3534 60.326L53.3193 60.1373L84.9638 54.459L84.9979 54.6476L53.3534 60.326Z" fill="#6150DC"/>
<path fill-rule="evenodd" clip-rule="evenodd" d="M53.3299 60.201L53.2969 60.0123L84.9413 54.334L84.9744 54.5226L53.3299 60.201Z" fill="#6150DC"/>
<path fill-rule="evenodd" clip-rule="evenodd" d="M53.3075 60.0751L53.2744 59.8854L84.9178 54.207L84.953 54.3967L53.3075 60.0751Z" fill="#6150DC"/>
<path fill-rule="evenodd" clip-rule="evenodd" d="M53.2851 59.9481L53.251 59.7584L84.8954 54.0801L84.9295 54.2698L53.2851 59.9481Z" fill="#6150DC"/>
<path fill-rule="evenodd" clip-rule="evenodd" d="M53.2626 59.8221L53.2285 59.6334L84.873 53.9551L84.9071 54.1437L53.2626 59.8221Z" fill="#6150DC"/>
<path fill-rule="evenodd" clip-rule="evenodd" d="M53.2391 59.6971L53.2061 59.5074L84.8505 53.8301L84.8846 54.0187L53.2391 59.6971Z" fill="#6150DC"/>
<path fill-rule="evenodd" clip-rule="evenodd" d="M53.2167 59.5712L53.1826 59.3815L84.8281 53.7031L84.8612 53.8928L53.2167 59.5712Z" fill="#6150DC"/>
<path fill-rule="evenodd" clip-rule="evenodd" d="M53.1951 59.4442L53.1621 59.2545L84.8055 53.5762L84.8396 53.7659L53.1951 59.4442Z" fill="#6150DC"/>
<path fill-rule="evenodd" clip-rule="evenodd" d="M53.1728 59.3182L53.1387 59.1295L84.7831 53.4512L84.8172 53.6398L53.1728 59.3182Z" fill="#6150DC"/>
<path fill-rule="evenodd" clip-rule="evenodd" d="M53.1503 59.1932L53.1162 59.0035L84.7607 53.3262L84.7948 53.5148L53.1503 59.1932Z" fill="#6150DC"/>
<path fill-rule="evenodd" clip-rule="evenodd" d="M53.1268 59.0673L53.0938 58.8776L84.7382 53.1992L84.7713 53.3889L53.1268 59.0673Z" fill="#6150DC"/>
<path fill-rule="evenodd" clip-rule="evenodd" d="M53.1043 58.9393L53.0713 58.7506L84.7147 53.0723L84.7488 53.2609L53.1043 58.9393Z" fill="#6150DC"/>
<path fill-rule="evenodd" clip-rule="evenodd" d="M53.082 58.8143L53.0479 58.6256L84.6923 52.9473L84.7264 53.1359L53.082 58.8143Z" fill="#6150DC"/>
<path fill-rule="evenodd" clip-rule="evenodd" d="M53.0595 58.6884L53.0254 58.4987L84.6699 52.8203L84.704 53.01L53.0595 58.6884Z" fill="#6150DC"/>
<path fill-rule="evenodd" clip-rule="evenodd" d="M53.036 58.5634L53.0029 58.3737L84.6474 52.6953L84.6815 52.885L53.036 58.5634Z" fill="#6150DC"/>
<path fill-rule="evenodd" clip-rule="evenodd" d="M53.0135 58.4354L52.9805 58.2467L84.6249 52.5684L84.658 52.757L53.0135 58.4354Z" fill="#6150DC"/>
<path fill-rule="evenodd" clip-rule="evenodd" d="M52.9911 58.3104L52.957 58.1206L84.6015 52.4434L84.6356 52.632L52.9911 58.3104Z" fill="#6150DC"/>
<path fill-rule="evenodd" clip-rule="evenodd" d="M52.9687 58.1845L52.9346 57.9948L84.579 52.3164L84.6131 52.5061L52.9687 58.1845Z" fill="#6150DC"/>
<path fill-rule="evenodd" clip-rule="evenodd" d="M52.9462 58.0564L52.9121 57.8678L84.5566 52.1895L84.5896 52.3792L52.9462 58.0564Z" fill="#6150DC"/>
<path fill-rule="evenodd" clip-rule="evenodd" d="M52.9227 57.9314L52.8896 57.7428L84.5341 52.0645L84.5672 52.2531L52.9227 57.9314Z" fill="#6150DC"/>
<path fill-rule="evenodd" clip-rule="evenodd" d="M52.9002 57.8064L52.8672 57.6167L84.5106 51.9395L84.5458 52.1281L52.9002 57.8064Z" fill="#6150DC"/>
<path fill-rule="evenodd" clip-rule="evenodd" d="M52.8779 57.6806L52.8438 57.4909L84.4882 51.8125L84.5223 52.0022L52.8779 57.6806Z" fill="#6150DC"/>
<path fill-rule="evenodd" clip-rule="evenodd" d="M52.8554 57.5525L52.8213 57.3639L84.4658 51.6855L84.4988 51.8742L52.8554 57.5525Z" fill="#6150DC"/>
<path fill-rule="evenodd" clip-rule="evenodd" d="M52.8329 57.4275L52.7988 57.2389L84.4433 51.5605L84.4763 51.7492L52.8329 57.4275Z" fill="#6150DC"/>
<path fill-rule="evenodd" clip-rule="evenodd" d="M52.8104 57.3017L52.7773 57.1119L84.4218 51.4336L84.4548 51.6233L52.8104 57.3017Z" fill="#6150DC"/>
<path fill-rule="evenodd" clip-rule="evenodd" d="M52.788 57.1767L52.7539 56.9869L84.3984 51.3086L84.4325 51.4983L52.788 57.1767Z" fill="#6150DC"/>
<path fill-rule="evenodd" clip-rule="evenodd" d="M52.7656 57.0486L52.7314 56.86L84.3759 51.1816L84.41 51.3703L52.7656 57.0486Z" fill="#6150DC"/>
<path fill-rule="evenodd" clip-rule="evenodd" d="M52.7431 56.9236L52.709 56.7339L84.3534 51.0566L84.3865 51.2453L52.7431 56.9236Z" fill="#6150DC"/>
<path fill-rule="evenodd" clip-rule="evenodd" d="M52.7196 56.7977L52.6865 56.608L84.331 50.9297L84.364 51.1194L52.7196 56.7977Z" fill="#6150DC"/>
<path fill-rule="evenodd" clip-rule="evenodd" d="M52.6971 56.6717L52.6641 56.483L84.3075 50.8047L84.3426 50.9944L52.6971 56.6717Z" fill="#6150DC"/>
<path fill-rule="evenodd" clip-rule="evenodd" d="M52.6747 56.5447L52.6406 56.3561L84.2851 50.6777L84.3192 50.8664L52.6747 56.5447Z" fill="#6150DC"/>
<path fill-rule="evenodd" clip-rule="evenodd" d="M52.6523 56.4197L52.6182 56.23L84.2626 50.5527L84.2957 50.7414L52.6523 56.4197Z" fill="#6150DC"/>
<path fill-rule="evenodd" clip-rule="evenodd" d="M52.6287 56.2938L52.5957 56.1041L84.2402 50.4258L84.2743 50.6155L52.6287 56.2938Z" fill="#6150DC"/>
<path fill-rule="evenodd" clip-rule="evenodd" d="M52.6063 56.1658L52.5732 55.9772L84.2177 50.2988L84.2507 50.4885L52.6063 56.1658Z" fill="#6150DC"/>
<path fill-rule="evenodd" clip-rule="evenodd" d="M52.5839 56.0408L52.5498 55.8522L84.1943 50.1738L84.2284 50.3625L52.5839 56.0408Z" fill="#6150DC"/>
<path fill-rule="evenodd" clip-rule="evenodd" d="M52.5614 55.9149L52.5273 55.7252L84.1718 50.0469L84.2059 50.2366L52.5614 55.9149Z" fill="#6150DC"/>
<path fill-rule="evenodd" clip-rule="evenodd" d="M52.539 55.7889L52.5049 55.6002L84.1493 49.9219L84.1824 50.1116L52.539 55.7889Z" fill="#6150DC"/>
<path fill-rule="evenodd" clip-rule="evenodd" d="M52.5155 55.6619L52.4824 55.4733L84.1269 49.7949L84.1599 49.9836L52.5155 55.6619Z" fill="#6150DC"/>
<path fill-rule="evenodd" clip-rule="evenodd" d="M52.493 55.5369L52.46 55.3472L84.1034 49.6699L84.1375 49.8586L52.493 55.5369Z" fill="#6150DC"/>
<path fill-rule="evenodd" clip-rule="evenodd" d="M52.4706 55.411L52.4365 55.2213L84.081 49.543L84.1151 49.7327L52.4706 55.411Z" fill="#6150DC"/>
<path fill-rule="evenodd" clip-rule="evenodd" d="M52.4482 55.285L52.4141 55.0963L84.0585 49.418L84.0916 49.6077L52.4482 55.285Z" fill="#6150DC"/>
<path fill-rule="evenodd" clip-rule="evenodd" d="M52.4256 55.158L52.3926 54.9694L84.037 49.291L84.0711 49.4797L52.4256 55.158Z" fill="#6150DC"/>
<path fill-rule="evenodd" clip-rule="evenodd" d="M52.4032 55.033L52.3701 54.8433L84.0146 49.166L84.0476 49.3547L52.4032 55.033Z" fill="#6150DC"/>
<path fill-rule="evenodd" clip-rule="evenodd" d="M52.3808 54.9071L52.3467 54.7174L83.9911 49.0391L84.0252 49.2288L52.3808 54.9071Z" fill="#6150DC"/>
<path fill-rule="evenodd" clip-rule="evenodd" d="M52.3583 54.7811L52.3242 54.5924L83.9687 48.9141L84.0028 49.1038L52.3583 54.7811Z" fill="#6150DC"/>
<path fill-rule="evenodd" clip-rule="evenodd" d="M52.3359 54.6541L52.3018 54.4655L83.9462 48.7871L83.9793 48.9757L52.3359 54.6541Z" fill="#6150DC"/>
<path fill-rule="evenodd" clip-rule="evenodd" d="M52.3123 54.5282L52.2793 54.3385L83.9238 48.6602L83.9579 48.8499L52.3123 54.5282Z" fill="#6150DC"/>
<path fill-rule="evenodd" clip-rule="evenodd" d="M52.2899 54.4032L52.2568 54.2135L83.9002 48.5352L83.9343 48.7249L52.2899 54.4032Z" fill="#6150DC"/>
<path fill-rule="evenodd" clip-rule="evenodd" d="M52.2675 54.2752L52.2334 54.0866L83.8779 48.4082L83.912 48.5968L52.2675 54.2752Z" fill="#6150DC"/>
<path fill-rule="evenodd" clip-rule="evenodd" d="M52.245 54.1502L52.2109 53.9616L83.8554 48.2832L83.8895 48.4718L52.245 54.1502Z" fill="#6150DC"/>
<path fill-rule="evenodd" clip-rule="evenodd" d="M52.2226 54.0243L52.1885 53.8346L83.8329 48.1562L83.866 48.346L52.2226 54.0243Z" fill="#6150DC"/>
<path fill-rule="evenodd" clip-rule="evenodd" d="M52.1991 53.8982L52.166 53.7096L83.8105 48.0312L83.8435 48.221L52.1991 53.8982Z" fill="#6150DC"/>
<path fill-rule="evenodd" clip-rule="evenodd" d="M52.1767 53.7713L52.1426 53.5827L83.787 47.9043L83.8211 48.0929L52.1767 53.7713Z" fill="#6150DC"/>
<path fill-rule="evenodd" clip-rule="evenodd" d="M52.1542 53.6454L52.1201 53.4557L83.7646 47.7773L83.7987 47.967L52.1542 53.6454Z" fill="#6150DC"/>
<path fill-rule="evenodd" clip-rule="evenodd" d="M52.1318 53.5204L52.0977 53.3307L83.7421 47.6523L83.7752 47.842L52.1318 53.5204Z" fill="#6150DC"/>
<path fill-rule="evenodd" clip-rule="evenodd" d="M52.1082 53.3943L52.0752 53.2057L83.7197 47.5273L83.7538 47.717L52.1082 53.3943Z" fill="#6150DC"/>
<path fill-rule="evenodd" clip-rule="evenodd" d="M52.0867 53.2674L52.0537 53.0787L83.6971 47.4004L83.7312 47.589L52.0867 53.2674Z" fill="#6150DC"/>
<path fill-rule="evenodd" clip-rule="evenodd" d="M52.0644 53.1415L52.0303 52.9518L83.6747 47.2734L83.7088 47.4631L52.0644 53.1415Z" fill="#6150DC"/>
<path fill-rule="evenodd" clip-rule="evenodd" d="M52.0419 53.0165L52.0078 52.8268L83.6523 47.1484L83.6864 47.3381L52.0419 53.0165Z" fill="#6150DC"/>
<path fill-rule="evenodd" clip-rule="evenodd" d="M52.0195 52.8885L51.9854 52.6998L83.6298 47.0215L83.6629 47.2101L52.0195 52.8885Z" fill="#6150DC"/>
<path fill-rule="evenodd" clip-rule="evenodd" d="M51.9959 52.7635L51.9629 52.5738L83.6074 46.8965L83.6404 47.0851L51.9959 52.7635Z" fill="#6150DC"/>
<path fill-rule="evenodd" clip-rule="evenodd" d="M51.9736 52.6376L51.9395 52.4479L83.5839 46.7695L83.618 46.9592L51.9736 52.6376Z" fill="#6150DC"/>
<path fill-rule="evenodd" clip-rule="evenodd" d="M51.9511 52.5115L51.917 52.3229L83.5615 46.6445L83.5956 46.8342L51.9511 52.5115Z" fill="#6150DC"/>
<path fill-rule="evenodd" clip-rule="evenodd" d="M51.9286 52.3846L51.8945 52.1959L83.539 46.5176L83.572 46.7062L51.9286 52.3846Z" fill="#6150DC"/>
<path fill-rule="evenodd" clip-rule="evenodd" d="M51.9051 52.2596L51.8721 52.0699L83.5165 46.3926L83.5506 46.5812L51.9051 52.2596Z" fill="#6150DC"/>
<path fill-rule="evenodd" clip-rule="evenodd" d="M51.8827 52.1335L51.8721 52.0748L83.5176 46.3965L83.5272 46.4551L51.8827 52.1335Z" fill="#6150DC"/>
</g>
<path d="M53.8301 53.761C53.8301 56.939 56.4305 59.5395 59.6086 59.5395C62.7867 59.5395 65.3871 56.9401 65.3871 53.761C65.3871 50.5818 62.7867 47.9824 59.6086 47.9824C56.4305 47.9824 53.8301 50.5829 53.8301 53.761Z" fill="#6150DC"/>
<mask id="mask1_1879_3927" style="mask-type:luminance" maskUnits="userSpaceOnUse" x="53" y="47" width="13" height="13">
<path d="M53.8301 53.761C53.8301 56.939 56.4305 59.5395 59.6086 59.5395C62.7867 59.5395 65.3871 56.9401 65.3871 53.761C65.3871 50.5818 62.7867 47.9824 59.6086 47.9824C56.4305 47.9824 53.8301 50.5829 53.8301 53.761Z" fill="white"/>
</mask>
<g mask="url(#mask1_1879_3927)">
<path fill-rule="evenodd" clip-rule="evenodd" d="M54.5625 61.0158L54.5689 61.0531L66.8699 58.8459L66.8635 58.8086L54.5625 61.0158Z" fill="#6150DC"/>
<path fill-rule="evenodd" clip-rule="evenodd" d="M54.58 61.1156L54.5459 60.9259L66.8469 58.7188L66.881 58.9085L54.58 61.1156Z" fill="#6150DC"/>
<path fill-rule="evenodd" clip-rule="evenodd" d="M54.5565 60.9906L54.5234 60.8009L66.8233 58.5938L66.8574 58.7835L54.5565 60.9906Z" fill="#6150DC"/>
<path fill-rule="evenodd" clip-rule="evenodd" d="M54.534 60.8646L54.501 60.6759L66.8009 58.4688L66.835 58.6574L54.534 60.8646Z" fill="#6150DC"/>
<path fill-rule="evenodd" clip-rule="evenodd" d="M54.5116 60.7376L54.4775 60.5479L66.7785 58.3418L66.8115 58.5304L54.5116 60.7376Z" fill="#6150DC"/>
<path fill-rule="evenodd" clip-rule="evenodd" d="M54.4892 60.6117L54.4551 60.422L66.756 58.2148L66.7902 58.4045L54.4892 60.6117Z" fill="#6150DC"/>
<path fill-rule="evenodd" clip-rule="evenodd" d="M54.4677 60.4857L54.4336 60.297L66.7346 58.0898L66.7676 58.2785L54.4677 60.4857Z" fill="#6150DC"/>
<path fill-rule="evenodd" clip-rule="evenodd" d="M54.4442 60.3607L54.4111 60.172L66.711 57.9648L66.7451 58.1535L54.4442 60.3607Z" fill="#6150DC"/>
<path fill-rule="evenodd" clip-rule="evenodd" d="M54.4217 60.2337L54.3887 60.044L66.6886 57.8379L66.7227 58.0265L54.4217 60.2337Z" fill="#6150DC"/>
<path fill-rule="evenodd" clip-rule="evenodd" d="M54.3993 60.1078L54.3652 59.9181L66.6662 57.7109L66.6992 57.9006L54.3993 60.1078Z" fill="#6150DC"/>
<path fill-rule="evenodd" clip-rule="evenodd" d="M54.3769 59.9818L54.3428 59.7931L66.6437 57.5859L66.6778 57.7756L54.3769 59.9818Z" fill="#6150DC"/>
<path fill-rule="evenodd" clip-rule="evenodd" d="M54.3544 59.8568L54.3203 59.6681L66.6213 57.4609L66.6543 57.6496L54.3544 59.8568Z" fill="#6150DC"/>
<path fill-rule="evenodd" clip-rule="evenodd" d="M54.3309 59.7298L54.2979 59.5401L66.5978 57.334L66.6319 57.5226L54.3309 59.7298Z" fill="#6150DC"/>
<path fill-rule="evenodd" clip-rule="evenodd" d="M54.3085 59.6029L54.2744 59.4142L66.5754 57.207L66.6095 57.3967L54.3085 59.6029Z" fill="#6150DC"/>
<path fill-rule="evenodd" clip-rule="evenodd" d="M54.2861 59.4779L54.252 59.2892L66.5529 57.082L66.586 57.2707L54.2861 59.4779Z" fill="#6150DC"/>
<path fill-rule="evenodd" clip-rule="evenodd" d="M54.2636 59.3509L54.2295 59.1612L66.5305 56.9551L66.5635 57.1437L54.2636 59.3509Z" fill="#6150DC"/>
<path fill-rule="evenodd" clip-rule="evenodd" d="M54.2401 59.225L54.207 59.0353L66.5069 56.8281L66.541 57.0178L54.2401 59.225Z" fill="#6150DC"/>
<path fill-rule="evenodd" clip-rule="evenodd" d="M54.2176 59.0989L54.1846 58.9103L66.4845 56.7031L66.5186 56.8918L54.2176 59.0989Z" fill="#6150DC"/>
<path fill-rule="evenodd" clip-rule="evenodd" d="M54.1952 58.9739L54.1611 58.7853L66.4621 56.5781L66.4951 56.7668L54.1952 58.9739Z" fill="#6150DC"/>
<path fill-rule="evenodd" clip-rule="evenodd" d="M54.1728 58.847L54.1387 58.6573L66.4396 56.4512L66.4727 56.6398L54.1728 58.847Z" fill="#6150DC"/>
<path fill-rule="evenodd" clip-rule="evenodd" d="M54.1503 58.7211L54.1162 58.5314L66.4172 56.3242L66.4502 56.5139L54.1503 58.7211Z" fill="#6150DC"/>
<path fill-rule="evenodd" clip-rule="evenodd" d="M54.1268 58.595L54.0938 58.4064L66.3937 56.1992L66.4278 56.3889L54.1268 58.595Z" fill="#6150DC"/>
<path fill-rule="evenodd" clip-rule="evenodd" d="M54.1044 58.47L54.0703 58.2814L66.3713 56.0742L66.4054 56.2629L54.1044 58.47Z" fill="#6150DC"/>
<path fill-rule="evenodd" clip-rule="evenodd" d="M54.0829 58.3442L54.0488 58.1544L66.3498 55.9473L66.3828 56.137L54.0829 58.3442Z" fill="#6150DC"/>
<path fill-rule="evenodd" clip-rule="evenodd" d="M54.0605 58.2161L54.0264 58.0275L66.3273 55.8203L66.3604 56.01L54.0605 58.2161Z" fill="#6150DC"/>
<path fill-rule="evenodd" clip-rule="evenodd" d="M54.0369 58.0911L54.0039 57.9025L66.3038 55.6953L66.3379 55.884L54.0369 58.0911Z" fill="#6150DC"/>
<path fill-rule="evenodd" clip-rule="evenodd" d="M54.0145 57.9661L53.9814 57.7764L66.2813 55.5703L66.3155 55.759L54.0145 57.9661Z" fill="#6150DC"/>
<path fill-rule="evenodd" clip-rule="evenodd" d="M53.9921 57.8402L53.958 57.6505L66.259 55.4434L66.292 55.6331L53.9921 57.8402Z" fill="#6150DC"/>
<path fill-rule="evenodd" clip-rule="evenodd" d="M53.9697 57.7122L53.9355 57.5236L66.2365 55.3164L66.2696 55.5061L53.9697 57.7122Z" fill="#6150DC"/>
<path fill-rule="evenodd" clip-rule="evenodd" d="M53.9472 57.5872L53.9131 57.3986L66.213 55.1914L66.2471 55.38L53.9472 57.5872Z" fill="#6150DC"/>
<path fill-rule="evenodd" clip-rule="evenodd" d="M53.9237 57.4603L53.8906 57.2706L66.1905 55.0645L66.2246 55.2531L53.9237 57.4603Z" fill="#6150DC"/>
<path fill-rule="evenodd" clip-rule="evenodd" d="M53.9012 57.3344L53.8682 57.1447L66.1681 54.9375L66.2022 55.1272L53.9012 57.3344Z" fill="#6150DC"/>
<path fill-rule="evenodd" clip-rule="evenodd" d="M53.8788 57.2083L53.8447 57.0197L66.1457 54.8125L66.1787 55.0022L53.8788 57.2083Z" fill="#6150DC"/>
<path fill-rule="evenodd" clip-rule="evenodd" d="M53.8564 57.0833L53.8223 56.8947L66.1222 54.6875L66.1573 54.8761L53.8564 57.0833Z" fill="#6150DC"/>
<path fill-rule="evenodd" clip-rule="evenodd" d="M53.8328 56.9574L53.7998 56.7677L66.0997 54.5605L66.1338 54.7503L53.8328 56.9574Z" fill="#6150DC"/>
<path fill-rule="evenodd" clip-rule="evenodd" d="M53.8104 56.8294L53.7773 56.6408L66.0772 54.4336L66.1114 54.6233L53.8104 56.8294Z" fill="#6150DC"/>
<path fill-rule="evenodd" clip-rule="evenodd" d="M53.788 56.7044L53.7539 56.5158L66.0549 54.3086L66.089 54.4972L53.788 56.7044Z" fill="#6150DC"/>
<path fill-rule="evenodd" clip-rule="evenodd" d="M53.7656 56.5794L53.7314 56.3897L66.0324 54.1836L66.0665 54.3722L53.7656 56.5794Z" fill="#6150DC"/>
<path fill-rule="evenodd" clip-rule="evenodd" d="M53.743 56.4535L53.71 56.2638L66.0099 54.0566L66.044 54.2463L53.743 56.4535Z" fill="#6150DC"/>
<path fill-rule="evenodd" clip-rule="evenodd" d="M53.7205 56.3255L53.6875 56.1369L65.9874 53.9297L66.0215 54.1194L53.7205 56.3255Z" fill="#6150DC"/>
<path fill-rule="evenodd" clip-rule="evenodd" d="M53.6981 56.2005L53.665 56.0119L65.9649 53.8047L65.999 53.9933L53.6981 56.2005Z" fill="#6150DC"/>
<path fill-rule="evenodd" clip-rule="evenodd" d="M53.6757 56.0736L53.6416 55.8839L65.9426 53.6777L65.9756 53.8664L53.6757 56.0736Z" fill="#6150DC"/>
<path fill-rule="evenodd" clip-rule="evenodd" d="M53.6532 55.9496L53.6191 55.7599L65.919 53.5527L65.9542 53.7424L53.6532 55.9496Z" fill="#6150DC"/>
<path fill-rule="evenodd" clip-rule="evenodd" d="M53.6297 55.8216L53.5967 55.633L65.8966 53.4258L65.9307 53.6155L53.6297 55.8216Z" fill="#6150DC"/>
<path fill-rule="evenodd" clip-rule="evenodd" d="M53.6073 55.6966L53.5742 55.508L65.8741 53.3008L65.9082 53.4894L53.6073 55.6966Z" fill="#6150DC"/>
<path fill-rule="evenodd" clip-rule="evenodd" d="M53.5849 55.5707L53.5508 55.381L65.8518 53.1738L65.8859 53.3635L53.5849 55.5707Z" fill="#6150DC"/>
<path fill-rule="evenodd" clip-rule="evenodd" d="M53.5624 55.4438L53.5283 55.2541L65.8293 53.0469L65.8623 53.2366L53.5624 55.4438Z" fill="#6150DC"/>
<path fill-rule="evenodd" clip-rule="evenodd" d="M53.5389 55.3177L53.5059 55.1291L65.8058 52.9219L65.8399 53.1105L53.5389 55.3177Z" fill="#6150DC"/>
<path fill-rule="evenodd" clip-rule="evenodd" d="M53.5164 55.1927L53.4834 55.003L65.7833 52.7969L65.8174 52.9855L53.5164 55.1927Z" fill="#6150DC"/>
<path fill-rule="evenodd" clip-rule="evenodd" d="M53.494 55.0668L53.4609 54.8771L65.7608 52.6699L65.7949 52.8586L53.494 55.0668Z" fill="#6150DC"/>
<path fill-rule="evenodd" clip-rule="evenodd" d="M53.4716 54.9388L53.4375 54.7502L65.7385 52.543L65.7715 52.7327L53.4716 54.9388Z" fill="#6150DC"/>
<path fill-rule="evenodd" clip-rule="evenodd" d="M53.4491 54.8138L53.415 54.6252L65.7149 52.418L65.7501 52.6066L53.4491 54.8138Z" fill="#6150DC"/>
<path fill-rule="evenodd" clip-rule="evenodd" d="M53.4256 54.6888L53.3926 54.4991L65.6925 52.293L65.7266 52.4805L53.4256 54.6888Z" fill="#6150DC"/>
<path fill-rule="evenodd" clip-rule="evenodd" d="M53.4032 54.5629L53.3701 54.3732L65.67 52.166L65.7041 52.3557L53.4032 54.5629Z" fill="#6150DC"/>
<path fill-rule="evenodd" clip-rule="evenodd" d="M53.3808 54.4349L53.3467 54.2462L65.6476 52.0391L65.6818 52.2288L53.3808 54.4349Z" fill="#6150DC"/>
<path fill-rule="evenodd" clip-rule="evenodd" d="M53.3593 54.3099L53.3252 54.1212L65.6262 51.9141L65.6592 52.1027L53.3593 54.3099Z" fill="#6150DC"/>
<path fill-rule="evenodd" clip-rule="evenodd" d="M53.3358 54.184L53.3027 53.9943L65.6026 51.7871L65.6367 51.9768L53.3358 54.184Z" fill="#6150DC"/>
<path fill-rule="evenodd" clip-rule="evenodd" d="M53.3133 54.059L53.2803 53.8693L65.5802 51.6621L65.6143 51.8518L53.3133 54.059Z" fill="#6150DC"/>
<path fill-rule="evenodd" clip-rule="evenodd" d="M53.2909 53.931L53.2568 53.7423L65.5578 51.5352L65.5919 51.7238L53.2909 53.931Z" fill="#6150DC"/>
<path fill-rule="evenodd" clip-rule="evenodd" d="M53.2685 53.806L53.2344 53.6163L65.5353 51.4102L65.5684 51.5988L53.2685 53.806Z" fill="#6150DC"/>
<path fill-rule="evenodd" clip-rule="evenodd" d="M53.246 53.6801L53.2119 53.4904L65.5129 51.2832L65.5459 51.4729L53.246 53.6801Z" fill="#6150DC"/>
<path fill-rule="evenodd" clip-rule="evenodd" d="M53.2225 53.5521L53.1895 53.3634L65.4894 51.1562L65.5235 51.346L53.2225 53.5521Z" fill="#6150DC"/>
<path fill-rule="evenodd" clip-rule="evenodd" d="M53.2 53.4271L53.167 53.2384L65.4669 51.0312L65.501 51.2199L53.2 53.4271Z" fill="#6150DC"/>
<path fill-rule="evenodd" clip-rule="evenodd" d="M53.1777 53.3021L53.1436 53.1124L65.4445 50.9062L65.4776 51.0949L53.1777 53.3021Z" fill="#6150DC"/>
<path fill-rule="evenodd" clip-rule="evenodd" d="M53.1552 53.1762L53.1211 52.9865L65.4221 50.7793L65.4551 50.969L53.1552 53.1762Z" fill="#6150DC"/>
<path fill-rule="evenodd" clip-rule="evenodd" d="M53.1317 53.0482L53.0986 52.8595L65.3985 50.6523L65.4337 50.842L53.1317 53.0482Z" fill="#6150DC"/>
<path fill-rule="evenodd" clip-rule="evenodd" d="M53.1092 52.9232L53.0762 52.7345L65.3761 50.5273L65.4102 50.716L53.1092 52.9232Z" fill="#6150DC"/>
<path fill-rule="evenodd" clip-rule="evenodd" d="M53.0868 52.7982L53.0527 52.6085L65.3537 50.4023L65.3878 50.591L53.0868 52.7982Z" fill="#6150DC"/>
<path fill-rule="evenodd" clip-rule="evenodd" d="M53.0644 52.6712L53.0303 52.4826L65.3312 50.2754L65.3643 50.4651L53.0644 52.6712Z" fill="#6150DC"/>
<path fill-rule="evenodd" clip-rule="evenodd" d="M53.0409 52.5443L53.0078 52.3556L65.3077 50.1484L65.3429 50.3371L53.0409 52.5443Z" fill="#6150DC"/>
<path fill-rule="evenodd" clip-rule="evenodd" d="M53.0184 52.4193L52.9854 52.2296L65.2853 50.0234L65.3194 50.2121L53.0184 52.4193Z" fill="#6150DC"/>
<path fill-rule="evenodd" clip-rule="evenodd" d="M52.9969 52.2934L52.9639 52.1037L65.2638 49.8965L65.2979 50.0862L52.9969 52.2934Z" fill="#6150DC"/>
<path fill-rule="evenodd" clip-rule="evenodd" d="M52.9745 52.1673L52.9404 51.9787L65.2414 49.7715L65.2744 49.9612L52.9745 52.1673Z" fill="#6150DC"/>
<path fill-rule="evenodd" clip-rule="evenodd" d="M52.9521 52.0404L52.918 51.8517L65.2189 49.6445L65.252 49.8332L52.9521 52.0404Z" fill="#6150DC"/>
<path fill-rule="evenodd" clip-rule="evenodd" d="M52.9285 51.9154L52.8955 51.7256L65.1954 49.5195L65.2295 49.7082L52.9285 51.9154Z" fill="#6150DC"/>
<path fill-rule="evenodd" clip-rule="evenodd" d="M52.9061 51.7895L52.873 51.5998L65.173 49.3926L65.2071 49.5812L52.9061 51.7895Z" fill="#6150DC"/>
<path fill-rule="evenodd" clip-rule="evenodd" d="M52.8837 51.6614L52.8496 51.4728L65.1506 49.2656L65.1847 49.4543L52.8837 51.6614Z" fill="#6150DC"/>
<path fill-rule="evenodd" clip-rule="evenodd" d="M52.8613 51.5364L52.8271 51.3478L65.1281 49.1406L65.1622 49.3293L52.8613 51.5364Z" fill="#6150DC"/>
<path fill-rule="evenodd" clip-rule="evenodd" d="M52.8388 51.4114L52.8047 51.2217L65.1057 49.0156L65.1387 49.2032L52.8388 51.4114Z" fill="#6150DC"/>
<path fill-rule="evenodd" clip-rule="evenodd" d="M52.8153 51.2845L52.7822 51.0959L65.0821 48.8887L65.1162 49.0784L52.8153 51.2845Z" fill="#6150DC"/>
<path fill-rule="evenodd" clip-rule="evenodd" d="M52.7929 51.1575L52.7588 50.9689L65.0598 48.7617L65.0939 48.9504L52.7929 51.1575Z" fill="#6150DC"/>
<path fill-rule="evenodd" clip-rule="evenodd" d="M52.7704 51.0325L52.7363 50.8428L65.0373 48.6367L65.0703 48.8254L52.7704 51.0325Z" fill="#6150DC"/>
<path fill-rule="evenodd" clip-rule="evenodd" d="M52.748 50.9067L52.7139 50.7169L65.0148 48.5098L65.0479 48.6995L52.748 50.9067Z" fill="#6150DC"/>
<path fill-rule="evenodd" clip-rule="evenodd" d="M52.7255 50.7806L52.6914 50.5919L64.9924 48.3848L65.0254 48.5745L52.7255 50.7806Z" fill="#6150DC"/>
<path fill-rule="evenodd" clip-rule="evenodd" d="M52.702 50.6536L52.6689 50.465L64.9689 48.2578L65.003 48.4465L52.702 50.6536Z" fill="#6150DC"/>
<path fill-rule="evenodd" clip-rule="evenodd" d="M52.6796 50.5286L52.6455 50.3389L64.9465 48.1328L64.9795 48.3204L52.6796 50.5286Z" fill="#6150DC"/>
<path fill-rule="evenodd" clip-rule="evenodd" d="M52.6572 50.4027L52.623 50.213L64.924 48.0059L64.9571 48.1956L52.6572 50.4027Z" fill="#6150DC"/>
<path fill-rule="evenodd" clip-rule="evenodd" d="M52.6357 50.2767L52.6016 50.088L64.9025 47.8809L64.9356 48.0695L52.6357 50.2767Z" fill="#6150DC"/>
<path fill-rule="evenodd" clip-rule="evenodd" d="M52.6121 50.1497L52.5791 49.9611L64.879 47.7539L64.9131 47.9425L52.6121 50.1497Z" fill="#6150DC"/>
<path fill-rule="evenodd" clip-rule="evenodd" d="M52.5897 50.0238L52.5566 49.8341L64.8565 47.627L64.8906 47.8167L52.5897 50.0238Z" fill="#6150DC"/>
<path fill-rule="evenodd" clip-rule="evenodd" d="M52.5673 49.8988L52.5332 49.7091L64.8342 47.502L64.8672 47.6917L52.5673 49.8988Z" fill="#6150DC"/>
<path fill-rule="evenodd" clip-rule="evenodd" d="M52.5448 49.7708L52.5107 49.5822L64.8117 47.375L64.8448 47.5636L52.5448 49.7708Z" fill="#6150DC"/>
<path fill-rule="evenodd" clip-rule="evenodd" d="M52.5224 49.6458L52.4883 49.4561L64.7882 47.25L64.8223 47.4386L52.5224 49.6458Z" fill="#6150DC"/>
<path d="M64.6552 46.5082L52.3545 48.7148L52.4988 49.5194L64.7995 47.3128L64.6552 46.5082Z" fill="#6150DC"/>
</g>
</g>
<defs>
<filter id="filter0_d_1879_3927" x="0" y="0.746094" width="138" height="138" filterUnits="userSpaceOnUse" color-interpolation-filters="sRGB">
<feFlood flood-opacity="0" result="BackgroundImageFix"/>
<feColorMatrix in="SourceAlpha" type="matrix" values="0 0 0 0 0 0 0 0 0 0 0 0 0 0 0 0 0 0 127 0" result="hardAlpha"/>
<feOffset dy="4"/>
<feGaussianBlur stdDeviation="9.5"/>
<feComposite in2="hardAlpha" operator="out"/>
<feColorMatrix type="matrix" values="0 0 0 0 0 0 0 0 0 0.0812501 0 0 0 0 0.8125 0 0 0 0.2 0"/>
<feBlend mode="normal" in2="BackgroundImageFix" result="effect1_dropShadow_1879_3927"/>
<feBlend mode="normal" in="SourceGraphic" in2="effect1_dropShadow_1879_3927" result="shape"/>
</filter>
<clipPath id="clip0_1879_3927">
<rect width="60" height="60" fill="white" transform="translate(39 35)"/>
</clipPath>
</defs>
</svg>
