<svg width="138" height="139" viewBox="0 0 138 139" fill="none" xmlns="http://www.w3.org/2000/svg">
<g filter="url(#filter0_d_1879_3927)">
<circle cx="69" cy="65.7461" r="50" fill="white"/>
</g>
<g clip-path="url(#clip0_1879_3927)">
<path d="M98.5729 64.0592C98.5729 65.1738 98.5729 66.29 98.5729 67.4046C98.5515 67.4984 98.5367 67.5939 98.5367 67.691C98.5383 67.9495 98.5169 68.2063 98.4939 68.4648C98.3128 70.4272 97.9391 72.3518 97.3563 74.2319C95.626 79.8195 92.5144 84.5049 88.0694 88.298C85.0582 90.8663 81.6553 92.7513 77.8836 93.9597C75.7055 94.6561 73.4747 95.0957 71.1929 95.2587C70.9921 95.2735 70.7896 95.2751 70.5937 95.3377C69.5433 95.3377 68.493 95.3377 67.441 95.3377C67.2632 95.2768 67.0755 95.2718 66.8911 95.2603C65.9066 95.1994 64.9287 95.071 63.959 94.8981C60.7816 94.3318 57.7771 93.2716 54.9487 91.7174C51.7565 89.9625 48.9742 87.7004 46.6002 84.9379C44.3299 82.2955 42.5683 79.347 41.3303 76.0889C40.2388 73.2276 39.6148 70.2642 39.465 67.207C39.3893 65.6397 39.4255 64.0724 39.605 62.5117C39.8354 60.5147 40.2536 58.5572 40.8874 56.6492C42.3774 52.1498 44.8189 48.2332 48.156 44.8747C49.1372 43.8869 50.1875 42.9781 51.2988 42.1401C54.2012 39.9538 57.3935 38.3388 60.882 37.3181C63.149 36.6546 65.4654 36.2726 67.8229 36.1788C69.3573 36.1179 70.8916 36.1689 72.4194 36.35C73.8336 36.5163 75.2313 36.7715 76.6077 37.1353C79.7538 37.9651 82.681 39.2821 85.3892 41.0832C87.6644 42.5945 89.6893 44.3939 91.4707 46.465C92.926 48.1574 94.1739 49.9914 95.2128 51.9654C96.6961 54.7855 97.7036 57.7654 98.2189 60.9115C98.377 61.8762 98.5169 62.8443 98.5367 63.8238C98.5367 63.9028 98.5581 63.9835 98.5696 64.0625L98.5729 64.0592ZM52.8546 65.7862C52.871 66.3707 52.8941 66.9848 52.9632 67.5939C53.1986 69.6814 53.8028 71.6554 54.8038 73.5042C56.0846 75.8667 57.8462 77.7929 60.0901 79.2696C62.4921 80.8484 65.1427 81.7095 68.0089 81.884C69.3754 81.9663 70.7385 81.8971 72.0869 81.6337C75.666 80.9373 78.6969 79.2597 81.1219 76.5318C83.672 73.6622 84.9858 70.2807 85.1735 66.4563C85.2328 65.243 85.1504 64.0329 84.9331 62.836C84.3783 59.7772 83.0645 57.0887 80.9704 54.7905C79.5546 53.2363 77.8885 52.0131 75.9837 51.1225C73.5834 49.9997 71.0563 49.4992 68.4073 49.6029C67.5085 49.6375 66.6194 49.7297 65.7387 49.9124C62.1678 50.6533 59.16 52.3786 56.7761 55.1395C54.1502 58.1819 52.9023 61.7511 52.8529 65.7862H52.8546Z" fill="#E86F28"/>
<path d="M80.8775 60.4465C80.8758 63.344 78.7982 65.8152 75.9714 66.2992C74.0436 66.6285 72.3726 66.1033 70.9864 64.7171C70.397 64.1277 69.9673 63.4264 69.6315 62.6658C69.2149 61.7224 68.4511 61.2631 67.4567 61.1594C66.7965 61.0902 66.1874 61.24 65.6638 61.6681C65.5255 61.78 65.3872 61.8969 65.3 62.055C64.9954 62.6081 64.4966 62.8551 63.9006 62.9374C63.5895 62.9802 63.2701 62.9851 62.9589 62.9292C61.9119 62.7398 61.1529 61.9743 60.9521 60.9174C60.7018 59.6036 61.5233 58.3261 62.8124 58.0149C63.4512 57.8618 64.0471 57.9622 64.6003 58.3145C64.9082 58.5104 65.1815 58.7492 65.4284 59.0192C65.9602 59.602 66.6269 59.8851 67.4122 59.8752C68.4428 59.8621 69.294 59.2332 69.6265 58.2553C70.3493 56.1282 71.8886 54.9495 74.0502 54.6004C76.1822 54.2564 77.9339 55.0565 79.3579 56.6205C80.1317 57.47 80.6207 58.4709 80.8067 59.6118C80.8544 59.8999 80.889 60.188 80.8791 60.4449L80.8775 60.4465ZM74.8487 64.1606C75.2092 64.1606 75.4825 64.1507 75.7525 64.0948C76.8819 63.8593 77.7363 63.2568 78.2516 62.213C78.6994 61.3043 78.7603 60.3461 78.5035 59.3781C78.1808 58.1647 77.4087 57.3498 76.2151 56.9448C75.5665 56.7258 74.8997 56.6863 74.2296 56.8049C73.0591 57.0123 72.1602 57.6165 71.6285 58.6948C71.1197 59.7254 71.0934 60.7972 71.4753 61.8739C71.775 62.7168 72.3364 63.344 73.1332 63.754C73.6979 64.0454 74.3004 64.1771 74.8487 64.1606Z" fill="#E86F28"/>
<path d="M68.6555 77.9099C66.8149 77.8885 65.1669 77.2332 63.7626 75.9804C62.5591 74.907 61.7607 73.5817 61.3985 72.0045C61.2767 71.476 61.2092 70.9393 61.2223 70.3944C61.2388 69.7622 61.4792 69.2486 62.0817 68.995C62.7221 68.725 63.3527 68.7728 63.8992 69.2403C64.2598 69.5498 64.375 69.9812 64.3833 70.4405C64.3899 70.7648 64.4162 71.0842 64.4837 71.4019C64.864 73.231 66.3786 74.5629 68.239 74.7275C69.263 74.8181 70.2211 74.6386 71.0904 74.0855C72.2099 73.3742 72.8256 72.3338 73.0051 71.0282C73.0363 70.7961 73.0479 70.5623 73.0544 70.3285C73.0791 69.4642 73.6932 68.8617 74.5575 68.8502C74.6859 68.8502 74.8177 68.8502 74.9444 68.8699C75.6293 68.9851 76.0886 69.456 76.1825 70.1458C76.2615 70.722 76.1759 71.2916 76.059 71.853C75.4186 74.9333 72.9211 77.3188 69.8161 77.8275C69.449 77.8885 69.0769 77.895 68.6555 77.9099Z" fill="#E86F28"/>
<path d="M59.7262 60.4598C59.7081 61.1546 59.8563 61.8098 60.2086 62.4107C60.7502 63.3376 61.5618 63.8973 62.6122 64.0916C63.4238 64.2414 64.2223 64.2003 64.9681 63.7903C65.3994 63.5533 65.76 63.2339 66.0497 62.8371C66.1436 62.7087 66.2473 62.6149 66.4103 62.5753C66.5486 62.5408 66.677 62.4634 66.8103 62.4041C67.2449 62.2132 67.6862 62.3136 67.9891 62.6807C68.1883 62.9211 68.3052 63.2042 68.3957 63.5006C68.4319 63.6191 68.3891 63.7179 68.3299 63.82C67.9413 64.5015 67.3256 64.9444 66.6934 65.3659C65.9937 65.8318 65.2331 66.166 64.3985 66.3043C62.7176 66.5825 61.1733 66.2252 59.8299 65.1798C58.1457 63.8694 57.3522 62.1094 57.5086 59.9857C57.6568 57.964 58.6577 56.4181 60.3913 55.3628C61.2194 54.859 62.1265 54.589 63.0979 54.5364C64.4956 54.4606 65.727 54.8607 66.784 55.7843C67.1149 56.074 67.3915 56.4099 67.6368 56.7721C67.7323 56.912 67.8327 57.047 67.9446 57.1754C68.3167 57.6018 68.0879 58.3855 67.5495 58.5534C67.4409 58.588 67.3273 58.5945 67.2153 58.6061C66.9848 58.6308 66.7906 58.5698 66.6243 58.397C66.2983 58.0595 65.9509 57.745 65.5673 57.4734C65.0669 57.1161 64.5236 56.856 63.9079 56.7803C61.5997 56.4988 59.8102 58.0414 59.7262 60.2162C59.7229 60.2968 59.7262 60.3775 59.7262 60.4582V60.4598Z" fill="#E86F28"/>
<path d="M74.9261 62.9639C73.8592 62.9359 73.0641 62.4601 72.6426 61.469C72.2211 60.4828 72.3594 59.5379 73.0888 58.7427C73.8477 57.9146 75.2405 57.5557 76.4127 58.5073C76.6893 58.7328 76.9247 58.9962 77.114 59.3024C77.9125 60.5997 77.2556 62.4963 75.5072 62.9029C75.3179 62.9474 75.1253 62.9639 74.9277 62.9622L74.9261 62.9639Z" fill="#E86F28"/>
</g>
<defs>
<filter id="filter0_d_1879_3927" x="0" y="0.746094" width="138" height="138" filterUnits="userSpaceOnUse" color-interpolation-filters="sRGB">
<feFlood flood-opacity="0" result="BackgroundImageFix"/>
<feColorMatrix in="SourceAlpha" type="matrix" values="0 0 0 0 0 0 0 0 0 0 0 0 0 0 0 0 0 0 127 0" result="hardAlpha"/>
<feOffset dy="4"/>
<feGaussianBlur stdDeviation="9.5"/>
<feComposite in2="hardAlpha" operator="out"/>
<feColorMatrix type="matrix" values="0 0 0 0 0 0 0 0 0 0.0812501 0 0 0 0 0.8125 0 0 0 0.2 0"/>
<feBlend mode="normal" in2="BackgroundImageFix" result="effect1_dropShadow_1879_3927"/>
<feBlend mode="normal" in="SourceGraphic" in2="effect1_dropShadow_1879_3927" result="shape"/>
</filter>
<clipPath id="clip0_1879_3927">
<rect width="59.1457" height="59.1836" fill="white" transform="translate(39.4268 36.1543)"/>
</clipPath>
</defs>
</svg>
