<svg width="106" height="106" viewBox="0 0 106 106" fill="none" xmlns="http://www.w3.org/2000/svg">
<circle cx="52.7676" cy="52.8008" r="52.25" fill="url(#paint0_radial_1920_2439)"/>
<path d="M79.9516 61.5753L67.817 37.4339C67.4594 36.6538 66.9585 35.9219 66.3122 35.279C63.4134 32.3964 58.7169 32.3964 55.8181 35.28C55.174 35.9198 54.6752 36.6484 54.3165 37.4264L52.7653 40.5104L51.2185 37.4339C50.8598 36.6538 50.36 35.9219 49.7136 35.279C46.816 32.3964 42.1183 32.3964 39.2196 35.28C38.5754 35.9198 38.0756 36.6484 37.718 37.4264L25.5823 61.5753C25.0071 62.6233 24.6807 63.8256 24.6807 65.1051C24.6807 66.3846 24.9952 67.5344 25.5457 68.5652C26.793 70.898 29.2598 72.4861 32.1015 72.4861H49.4659L45.5341 64.7504C44.5151 62.7444 45.323 60.297 47.3384 59.2822C49.3549 58.2685 51.8153 59.0721 52.8354 61.0771L58.635 72.485H73.4346C77.5323 72.485 80.8543 69.1803 80.8543 65.103C80.8543 63.8235 80.5269 62.6212 79.9527 61.5732L79.9516 61.5753Z" fill="#0001AE"/>
<path d="M79.9519 61.5753L67.8173 37.4339C67.4597 36.6538 66.9588 35.9219 66.3125 35.279C63.4137 32.3964 58.7171 32.3964 55.8184 35.28C55.1742 35.9198 54.6755 36.6495 54.3168 37.4264L52.7656 40.5114L66.8554 68.5148C68.092 70.8745 70.5728 72.485 73.4327 72.4872C77.5304 72.4872 80.8525 69.1824 80.8525 65.1051C80.8525 63.8256 80.525 62.6233 79.9508 61.5753H79.9519Z" fill="#AFC4F9"/>
<defs>
<radialGradient id="paint0_radial_1920_2439" cx="0" cy="0" r="1" gradientUnits="userSpaceOnUse" gradientTransform="translate(52.7676 52.8008) rotate(90) scale(52.25)">
<stop offset="0.46875" stop-color="white" stop-opacity="0"/>
<stop offset="1" stop-color="#0015CF" stop-opacity="0.2"/>
</radialGradient>
</defs>
</svg>
