<svg width="25" height="25" viewBox="0 0 25 25" fill="none" xmlns="http://www.w3.org/2000/svg">
<g clip-path="url(#clip0_1760_2384)">
<path d="M19.95 0H5.05C2.25938 0 0 2.25938 0 5.05V19.9531C0 22.7406 2.25938 25 5.05 25H19.9531C22.7406 25 25.0031 22.7406 25.0031 19.95V5.05C25 2.25938 22.7406 0 19.95 0Z" fill="url(#paint0_linear_1760_2384)"/>
<path d="M12.3936 5.74367L12.8998 4.86867C13.2123 4.3218 13.9092 4.13742 14.4561 4.44992C15.0029 4.76242 15.1873 5.4593 14.8748 6.00617L9.99668 14.4499H13.5248C14.6686 14.4499 15.3092 15.7937 14.8123 16.7249H4.46855C3.8373 16.7249 3.33105 16.2187 3.33105 15.5874C3.33105 14.9562 3.8373 14.4499 4.46855 14.4499H7.36856L11.0811 8.01555L9.92168 6.00305C9.60918 5.45617 9.79355 4.76555 10.3404 4.4468C10.8873 4.1343 11.5779 4.31867 11.8967 4.86555L12.3936 5.74367ZM8.00605 17.8968L6.9123 19.7937C6.5998 20.3405 5.90293 20.5249 5.35605 20.2124C4.80918 19.8999 4.6248 19.203 4.9373 18.6562L5.7498 17.2499C6.66855 16.9655 7.41543 17.1843 8.00605 17.8968ZM17.4248 14.4562H20.3842C21.0154 14.4562 21.5217 14.9624 21.5217 15.5937C21.5217 16.2249 21.0154 16.7312 20.3842 16.7312H18.7404L19.8498 18.6562C20.1623 19.203 19.9779 19.8937 19.4311 20.2124C18.8842 20.5249 18.1936 20.3405 17.8748 19.7937C16.0061 16.553 14.6029 14.128 13.6717 12.5124C12.7186 10.8687 13.3998 9.21867 14.0717 8.6593C14.8186 9.94055 15.9342 11.8749 17.4248 14.4562Z" fill="white"/>
</g>
<defs>
<linearGradient id="paint0_linear_1760_2384" x1="12.5016" y1="0" x2="12.5016" y2="25" gradientUnits="userSpaceOnUse">
<stop stop-color="#18BFFB"/>
<stop offset="1" stop-color="#2072F3"/>
</linearGradient>
<clipPath id="clip0_1760_2384">
<rect width="25" height="25" fill="white"/>
</clipPath>
</defs>
</svg>
