<svg width="49" height="44" viewBox="0 0 49 44" fill="none" xmlns="http://www.w3.org/2000/svg">
<path d="M24.6164 5.60725C25.5412 5.60725 26.2974 6.36341 26.2974 7.28826C26.2974 8.83549 27.5538 10.0919 29.101 10.0919C30.6482 10.0919 31.9046 8.83549 31.9046 7.28826C31.9046 3.26896 28.6357 0 24.6164 0C20.5971 0 17.3281 3.26896 17.3281 7.28826C17.3281 8.56792 17.6655 9.83014 18.3053 10.9295L26.0764 24.3834C26.2218 24.6393 26.2974 24.9243 26.2974 25.221C26.2974 26.1458 25.5412 26.902 24.6164 26.902C23.6915 26.902 22.9354 26.1458 22.9354 25.221C22.9354 23.6738 21.679 22.4174 20.1317 22.4174C18.5845 22.4174 17.3281 23.6738 17.3281 25.221C17.3281 29.2403 20.5971 32.5093 24.6164 32.5093C28.6357 32.5093 31.9046 29.2403 31.9046 25.221C31.9046 23.9413 31.5673 22.6791 30.9274 21.574L23.1564 8.12004C23.011 7.86411 22.9354 7.58491 22.9354 7.28244C22.9354 6.3576 23.6915 5.60143 24.6164 5.60143V5.60725Z" fill="#00CCCB"/>
<path d="M7.34685 4.48438H2.86222C1.30917 4.48438 0.0585938 5.74077 0.0585938 7.288V25.2265C0.0585938 26.7738 1.31499 28.0302 2.86222 28.0302C4.40945 28.0302 5.66584 26.7738 5.66584 25.2265V19.0609H7.34685C11.3662 19.0609 14.6351 15.7919 14.6351 11.7726C14.6351 7.75333 11.3662 4.48438 7.34685 4.48438ZM7.34685 13.4536H5.66584V10.0916H7.34685C8.2717 10.0916 9.02787 10.8478 9.02787 11.7726C9.02787 12.6975 8.2717 13.4536 7.34685 13.4536Z" fill="#00CCCB"/>
<path d="M46.1957 4.48438H41.7111C40.1639 4.48438 38.9075 5.74077 38.9075 7.288C38.9075 8.83523 40.1639 10.0916 41.7111 10.0916H43.3921V20.7419C43.3921 21.6668 42.636 22.4229 41.7111 22.4229C40.7863 22.4229 40.0301 21.6668 40.0301 20.7419C40.0301 19.1947 38.7737 17.9383 37.2265 17.9383C35.6792 17.9383 34.4229 19.1947 34.4229 20.7419C34.4229 24.7612 37.6918 28.0302 41.7111 28.0302C45.7304 28.0302 48.9994 24.7612 48.9994 20.7419V7.288C48.9994 5.74077 47.743 4.48438 46.1957 4.48438Z" fill="#00CCCB"/>
<path d="M3.24569 41.054C3.12354 41.2692 2.94322 41.4437 2.69311 41.5775C2.44299 41.7113 2.14053 41.7752 1.77408 41.7752H1.09353V43.3864H0V38.896H1.77408C2.13471 38.896 2.43718 38.96 2.68148 39.0821C2.93159 39.2043 3.11191 39.3788 3.23987 39.594C3.36202 39.8092 3.42601 40.0593 3.42601 40.3443C3.42601 40.6061 3.36784 40.8446 3.24569 41.0598V41.054ZM2.15798 40.7573C2.26268 40.6584 2.30921 40.5188 2.30921 40.3443C2.30921 40.1698 2.25686 40.0244 2.15798 39.9314C2.05328 39.8325 1.90204 39.7859 1.69264 39.7859H1.09935V40.9144H1.69264C1.90204 40.9144 2.05909 40.8678 2.15798 40.769V40.7573Z" fill="#2B2B2B"/>
<path d="M6.34617 43.2696C6.08442 43.1649 5.88084 43.0079 5.72379 42.7985C5.56674 42.5891 5.48531 42.339 5.47949 42.0423H6.64282C6.66027 42.211 6.71844 42.3332 6.81732 42.4204C6.9162 42.5077 7.04417 42.5542 7.20122 42.5542C7.35827 42.5542 7.49205 42.5193 7.58512 42.4437C7.67819 42.3681 7.72472 42.2634 7.72472 42.1354C7.72472 42.0249 7.68982 41.9318 7.6142 41.862C7.53859 41.7922 7.44552 41.7282 7.34082 41.6817C7.2303 41.6352 7.07907 41.5828 6.87549 41.5188C6.58466 41.4316 6.34617 41.3385 6.16586 41.2513C5.97972 41.164 5.82267 41.0302 5.69471 40.8557C5.56093 40.6812 5.49694 40.4544 5.49694 40.1694C5.49694 39.7506 5.64817 39.4248 5.95064 39.1864C6.25311 38.9479 6.64864 38.8315 7.13142 38.8315C7.6142 38.8315 8.02718 38.9479 8.32965 39.1864C8.63212 39.4248 8.79498 39.7506 8.81825 40.1752H7.63747C7.62584 40.0298 7.57349 39.9134 7.4746 39.832C7.37572 39.7506 7.25357 39.7099 7.09652 39.7099C6.96274 39.7099 6.85804 39.7448 6.7766 39.8146C6.69517 39.8844 6.65445 39.9832 6.65445 40.117C6.65445 40.2624 6.72425 40.373 6.85804 40.4544C6.99182 40.5358 7.20704 40.6231 7.49787 40.7161C7.7887 40.815 8.02137 40.9081 8.2075 40.9953C8.38782 41.0826 8.54487 41.2164 8.67865 41.3851C8.81243 41.5537 8.87642 41.7748 8.87642 42.0423C8.87642 42.3099 8.81243 42.5309 8.67865 42.7403C8.54487 42.9497 8.35873 43.1126 8.11443 43.2406C7.87013 43.3685 7.57349 43.4267 7.23612 43.4267C6.89875 43.4267 6.61374 43.3743 6.35199 43.2638L6.34617 43.2696Z" fill="#2B2B2B"/>
<path d="M13.9659 38.896V41.9556C13.9659 42.4267 13.8321 42.7932 13.5645 43.0491C13.297 43.305 12.9363 43.433 12.4885 43.433C12.0406 43.433 11.6334 43.2992 11.3484 43.0316C11.0634 42.7641 10.918 42.3802 10.918 41.8858H12.0057C12.0057 42.0719 12.0464 42.2173 12.122 42.3104C12.1976 42.4034 12.3081 42.4558 12.4536 42.4558C12.5873 42.4558 12.6862 42.4151 12.7618 42.3278C12.8316 42.2406 12.8724 42.1184 12.8724 41.9556V38.896H13.9659Z" fill="#2B2B2B"/>
<path d="M19.4445 40.3149C19.3631 40.1636 19.2467 40.0531 19.0955 39.9717C18.9443 39.8903 18.7639 39.8554 18.5604 39.8554C18.2055 39.8554 17.9205 39.9717 17.7111 40.2044C17.4959 40.437 17.3912 40.7453 17.3912 41.135C17.3912 41.548 17.5017 41.8737 17.7286 42.1064C17.9496 42.3391 18.2579 42.4554 18.6534 42.4554C18.921 42.4554 19.1478 42.3856 19.334 42.2518C19.5201 42.118 19.6539 41.9203 19.7411 41.6643H18.351V40.8558H20.73V41.8737C20.6485 42.1471 20.5089 42.4031 20.317 42.6357C20.125 42.8684 19.8749 43.0603 19.5783 43.2057C19.2816 43.3512 18.9443 43.421 18.5662 43.421C18.1241 43.421 17.7286 43.3221 17.3796 43.1301C17.0306 42.9382 16.763 42.6648 16.5652 42.3216C16.3733 41.9784 16.2744 41.5829 16.2744 41.135C16.2744 40.6871 16.3733 40.2974 16.5652 39.9484C16.7572 39.5994 17.0306 39.3319 17.3738 39.1341C17.7169 38.9421 18.1125 38.8433 18.5604 38.8433C19.0955 38.8433 19.5492 38.9712 19.9215 39.233C20.2937 39.4947 20.5322 39.8554 20.6544 40.3149H19.4445Z" fill="#2B2B2B"/>
<path d="M24.0457 42.543H25.4766V43.3864H22.9521V38.896H24.0457V42.543Z" fill="#2B2B2B"/>
<path d="M28.5775 43.1363C28.2285 42.9385 27.9435 42.6652 27.7399 42.3162C27.5305 41.9672 27.4316 41.5658 27.4316 41.1296C27.4316 40.6933 27.5363 40.2978 27.7399 39.943C27.9493 39.594 28.2285 39.3206 28.5775 39.1228C28.9265 38.9251 29.3162 38.8262 29.7409 38.8262C30.1655 38.8262 30.5494 38.9251 30.9042 39.1228C31.2532 39.3206 31.5324 39.594 31.736 39.943C31.9395 40.292 32.0384 40.6875 32.0384 41.1296C32.0384 41.5716 31.9337 41.9672 31.7301 42.3162C31.5266 42.671 31.2474 42.9444 30.8984 43.1363C30.5494 43.3341 30.1596 43.433 29.7409 43.433C29.3221 43.433 28.9323 43.3341 28.5775 43.1363ZM30.6017 42.0719C30.8169 41.8334 30.9274 41.5193 30.9274 41.1237C30.9274 40.7282 30.8169 40.4083 30.6017 40.1756C30.3865 39.9372 30.1015 39.8208 29.7409 39.8208C29.3802 39.8208 29.0894 39.9372 28.8742 40.1698C28.659 40.4025 28.5484 40.7224 28.5484 41.1237C28.5484 41.5251 28.659 41.8392 28.8742 42.0719C29.0894 42.3103 29.3802 42.4267 29.7409 42.4267C30.1015 42.4267 30.3865 42.3045 30.6017 42.066V42.0719Z" fill="#2B2B2B"/>
<path d="M37.6043 41.4728C37.7613 41.6764 37.8428 41.909 37.8428 42.1649C37.8428 42.5372 37.709 42.8397 37.4472 43.0549C37.1855 43.2701 36.819 43.3864 36.3479 43.3864H34.2539V38.896H36.2781C36.7318 38.896 37.0924 39.0007 37.3484 39.2101C37.6043 39.4195 37.7381 39.7045 37.7381 40.0593C37.7381 40.3211 37.6683 40.5421 37.5287 40.7166C37.3891 40.8911 37.2029 41.0133 36.9761 41.0831C37.2378 41.1412 37.4472 41.2692 37.6043 41.4728ZM35.3533 40.7166H36.0687C36.249 40.7166 36.3828 40.6759 36.4817 40.6003C36.5806 40.5247 36.6271 40.4083 36.6271 40.2513C36.6271 40.0942 36.5806 39.9837 36.4817 39.9023C36.3828 39.8208 36.249 39.7801 36.0687 39.7801H35.3533V40.7224V40.7166ZM36.5864 42.386C36.6853 42.3046 36.7376 42.1824 36.7376 42.0254C36.7376 41.8683 36.6853 41.7462 36.5806 41.6531C36.4759 41.56 36.3305 41.5193 36.1501 41.5193H35.3591V42.5139H36.1676C36.3479 42.5139 36.4933 42.4732 36.5922 42.3918L36.5864 42.386Z" fill="#2B2B2B"/>
<path d="M42.8806 42.5954H41.2054L40.9379 43.3864H39.792L41.4148 38.896H42.6829L44.3057 43.3864H43.1482L42.8806 42.5954ZM42.6014 41.752L42.043 40.1059L41.4905 41.752H42.5956H42.6014Z" fill="#2B2B2B"/>
<path d="M47.5037 42.543H48.9346V43.3864H46.4102V38.896H47.5037V42.543Z" fill="#2B2B2B"/>
</svg>
