<svg width="29" height="14" viewBox="0 0 29 14" fill="none" xmlns="http://www.w3.org/2000/svg">
<path d="M21.7513 4.11621C20.1055 4.11621 18.7637 5.41168 18.7637 7.0007C18.7637 8.58971 20.1055 9.88302 21.7513 9.88302C23.3971 9.88302 24.7378 8.58863 24.7378 7.0007C24.7378 5.41277 23.3971 4.11621 21.7513 4.11621Z" fill="#1A428A"/>
<path d="M21.7515 0C18.6506 0 16.0063 1.87822 14.9685 4.52008C14.1091 6.71133 11.0968 7.12944 9.63386 5.26097C9.0875 4.56557 8.22364 4.11605 7.24983 4.11605C5.59839 4.11605 4.26221 5.40611 4.26221 7.00054C4.26221 8.59497 5.59839 9.88286 7.24983 9.88286C8.24944 9.88286 9.13462 9.4106 9.67537 8.68054C11.0609 6.82182 14.1551 7.42948 14.9764 9.49942C16.0186 12.1304 18.6573 13.9989 21.7504 13.9989C25.7544 13.9989 29.0001 10.8653 29.0001 6.99946C29.0001 3.13362 25.7567 0 21.7515 0ZM21.7515 11.5683C19.1375 11.5683 17.0193 9.52325 17.0193 7.00162C17.0193 4.48 19.1375 2.4328 21.7515 2.4328C24.3655 2.4328 26.4814 4.47783 26.4814 7.00162C26.4814 9.52542 24.3633 11.5683 21.7515 11.5683Z" fill="#1A428A"/>
<path d="M12.0447 9.25137C11.6139 9.25137 11.2325 9.46043 11.0058 9.77888C10.1409 10.8664 8.78111 11.5672 7.25196 11.5672C4.63793 11.5672 2.51979 9.52217 2.51979 7.00054C2.51979 4.47892 4.63681 2.4328 7.25084 2.4328C8.77662 2.4328 10.1521 3.14553 11.0182 4.23087C11.0316 4.24928 11.0451 4.26661 11.0597 4.28395C11.0597 4.28395 11.0642 4.29044 11.0664 4.29261C11.2964 4.5634 11.6464 4.73671 12.0369 4.73671C12.7302 4.73671 13.2911 4.19513 13.2911 3.52573C13.2911 3.28526 13.2182 3.06104 13.0926 2.87257C13.0825 2.84983 13.0701 2.82708 13.0544 2.8065C11.7339 1.10267 9.62478 0 7.25084 0C3.24678 0 0 3.13362 0 7.00054C0 10.8675 3.24678 14 7.25084 14C9.60234 14 11.6936 12.919 13.0174 11.2433C13.1969 11.0332 13.3057 10.7635 13.3057 10.4689C13.3057 9.79621 12.7414 9.25137 12.0447 9.25137Z" fill="#1A428A"/>
</svg>
