<svg width="26" height="17" viewBox="0 0 26 17" fill="none" xmlns="http://www.w3.org/2000/svg">
<path d="M12.5905 2.8747C13.0647 2.8747 13.4523 3.26236 13.4523 3.73651C13.4523 4.52974 14.0964 5.17386 14.8897 5.17386C15.6829 5.17386 16.327 4.52974 16.327 3.73651C16.327 1.67591 14.6511 0 12.5905 0C10.5299 0 8.854 1.67591 8.854 3.73651C8.854 4.39256 9.02696 5.03967 9.35499 5.60328L13.339 12.5008C13.4136 12.632 13.4523 12.7781 13.4523 12.9302C13.4523 13.4043 13.0647 13.792 12.5905 13.792C12.1164 13.792 11.7287 13.4043 11.7287 12.9302C11.7287 12.137 11.0846 11.4928 10.2914 11.4928C9.49813 11.4928 8.854 12.137 8.854 12.9302C8.854 14.9908 10.5299 16.6667 12.5905 16.6667C14.6511 16.6667 16.327 14.9908 16.327 12.9302C16.327 12.2741 16.1541 11.627 15.826 11.0604L11.842 4.16294C11.7675 4.03173 11.7287 3.8886 11.7287 3.73353C11.7287 3.25938 12.1164 2.87172 12.5905 2.87172V2.8747Z" fill="#00CCCB"/>
<path d="M3.73651 2.29883H1.43735C0.641141 2.29883 0 2.94295 0 3.73618V12.9328C0 13.7261 0.644123 14.3702 1.43735 14.3702C2.23057 14.3702 2.8747 13.7261 2.8747 12.9328V9.77185H3.73651C5.79711 9.77185 7.47302 8.09594 7.47302 6.03534C7.47302 3.97474 5.79711 2.29883 3.73651 2.29883ZM3.73651 6.89715H2.8747V5.17353H3.73651C4.21066 5.17353 4.59832 5.56119 4.59832 6.03534C4.59832 6.50949 4.21066 6.89715 3.73651 6.89715Z" fill="#00CCCB"/>
<path d="M23.6538 2.29883H21.3547C20.5614 2.29883 19.9173 2.94295 19.9173 3.73618C19.9173 4.5294 20.5614 5.17353 21.3547 5.17353H22.2165V10.6337C22.2165 11.1078 21.8288 11.4955 21.3547 11.4955C20.8805 11.4955 20.4929 11.1078 20.4929 10.6337C20.4929 9.84044 19.8487 9.19631 19.0555 9.19631C18.2623 9.19631 17.6182 9.84044 17.6182 10.6337C17.6182 12.6943 19.2941 14.3702 21.3547 14.3702C23.4153 14.3702 25.0912 12.6943 25.0912 10.6337V3.73618C25.0912 2.94295 24.4471 2.29883 23.6538 2.29883Z" fill="#00CCCB"/>
</svg>
