<svg width="92" height="46" viewBox="0 0 92 46" fill="none" xmlns="http://www.w3.org/2000/svg">
<path d="M69.0043 13.5239C63.7831 13.5239 59.5264 17.7805 59.5264 23.0015C59.5264 28.2226 63.7831 32.472 69.0043 32.472C74.2256 32.472 78.4787 28.219 78.4787 23.0015C78.4787 17.784 74.2256 13.5239 69.0043 13.5239Z" fill="#1A428A"/>
<path d="M69.0043 0C59.1668 0 50.778 6.1713 47.4858 14.8517C44.7595 22.0515 35.2032 23.4253 30.5621 17.286C28.8288 15.0012 26.0883 13.5242 22.999 13.5242C17.7599 13.5242 13.521 17.7629 13.521 23.0018C13.521 28.2406 17.7599 32.4723 22.999 32.4723C26.1701 32.4723 28.9783 30.9205 30.6938 28.5218C35.0893 22.4145 44.9054 24.4111 47.5107 31.2124C50.8171 39.8572 59.1882 45.9964 69.0007 45.9964C81.7033 45.9964 91.9998 35.7003 91.9998 22.9982C91.9998 10.2962 81.7104 0 69.0043 0ZM69.0043 38.0101C60.7115 38.0101 53.9919 31.2907 53.9919 23.0053C53.9919 14.72 60.7115 7.9935 69.0043 7.9935C77.2971 7.9935 84.0096 14.7129 84.0096 23.0053C84.0096 31.2978 77.2899 38.0101 69.0043 38.0101Z" fill="#1A428A"/>
<path d="M38.2108 30.3974C36.8441 30.3974 35.634 31.0843 34.9151 32.1306C32.171 35.7038 27.8573 38.0065 23.0062 38.0065C14.7134 38.0065 7.99381 31.2871 7.99381 23.0018C7.99381 14.7164 14.7099 7.9935 23.0027 7.9935C27.8431 7.9935 32.2066 10.3353 34.9542 13.9014C34.9969 13.9619 35.0396 14.0189 35.0859 14.0758C35.0859 14.0758 35.1001 14.0972 35.1073 14.1043C35.8369 14.994 36.9473 15.5635 38.1859 15.5635C40.3855 15.5635 42.165 13.784 42.165 11.5845C42.165 10.7944 41.9337 10.0577 41.535 9.43845C41.503 9.36371 41.4639 9.28897 41.414 9.22135C37.2249 3.62306 30.5338 0 23.0027 0C10.3001 0 0 10.2962 0 23.0018C0 35.7074 10.3001 46 23.0027 46C30.4626 46 37.0968 42.4481 41.2966 36.9424C41.8661 36.2519 42.2113 35.3657 42.2113 34.3977C42.2113 32.1875 40.421 30.3974 38.2108 30.3974Z" fill="#1A428A"/>
</svg>
