<svg width="27" height="19" viewBox="0 0 27 19" fill="none" xmlns="http://www.w3.org/2000/svg">
<path d="M26.563 13.7332L20.7313 2.08319C20.5592 1.70755 20.3182 1.35308 20.0083 1.04358C18.6153 -0.347859 16.3589 -0.347859 14.9659 1.04358C14.656 1.35308 14.4177 1.70491 14.2455 2.08054L13.5013 3.56986L12.7571 2.08583C12.585 1.7102 12.344 1.35573 12.0341 1.04622C10.6411 -0.345214 8.3847 -0.345214 6.99166 1.04622C6.68181 1.35573 6.4408 1.70755 6.27131 2.08319L0.434331 13.7332C0.156253 14.2411 0 14.8204 0 15.4368C0 16.0399 0.150956 16.6086 0.415792 17.106C1.01432 18.2302 2.20078 18.9974 3.56734 18.9974H11.9123L10.0214 15.2648C9.53144 14.2966 9.92075 13.1168 10.8874 12.6274C11.854 12.138 13.0379 12.5269 13.5278 13.4924L16.3139 18.9974H23.4274C25.3977 18.9974 26.9921 17.4022 26.9921 15.4341C26.9974 14.8204 26.8385 14.2411 26.563 13.7332Z" fill="#0001AE"/>
<path d="M26.5632 13.7332L20.7315 2.08319C20.5593 1.70755 20.3183 1.35308 20.0085 1.04358C18.6154 -0.347859 16.359 -0.347859 14.966 1.04358C14.6561 1.35308 14.4178 1.70491 14.2457 2.08054L13.5015 3.56986L20.2733 17.0821C20.8665 18.2196 22.061 18.9974 23.4355 19C25.4058 19 27.0001 17.4049 27.0001 15.4368C26.9975 14.8204 26.8386 14.2411 26.5632 13.7332Z" fill="#AFC4F9"/>
</svg>
