<svg width="23" height="25" viewBox="0 0 23 25" fill="none" xmlns="http://www.w3.org/2000/svg">
<g clip-path="url(#clip0_1760_2377)">
<path d="M10.7423 11.9414L0.0952148 22.9292C0.217452 23.3448 0.433814 23.7277 0.728011 24.049C1.02221 24.3702 1.38657 24.6216 1.79367 24.7841C2.20077 24.9466 2.63999 25.016 3.07826 24.9871C3.51654 24.9582 3.94244 24.8318 4.32391 24.6172L16.3039 17.8964L10.7423 11.9414Z" fill="#EA4335"/>
<path d="M21.5087 10.0737L16.3279 7.15088L10.4966 12.1915L16.3517 17.8808L21.4928 14.9893C21.8211 14.8212 22.1125 14.5908 22.3502 14.3114C22.5879 14.032 22.7672 13.7091 22.8778 13.3613C22.9884 13.0134 23.0281 12.6474 22.9946 12.2844C22.9612 11.9214 22.8552 11.5685 22.6829 11.2459C22.4139 10.7469 21.9994 10.3386 21.4928 10.0737H21.5087Z" fill="#FBBC04"/>
<path d="M0.0952058 2.07861C0.0318558 2.31317 -0.000149528 2.55487 5.2518e-07 2.79759V22.2099C-0.000149528 22.4526 0.0318558 22.6943 0.0952058 22.9289L11.1073 12.2224L0.0952058 2.07861Z" fill="#4285F4"/>
<path d="M10.8217 12.5039L16.3277 7.15068L4.36358 0.398568C3.91334 0.139254 3.40152 0.00175774 2.87997 5.58935e-06C2.25001 -0.0012241 1.63692 0.200481 1.13416 0.574372C0.631404 0.948264 0.266548 1.47383 0.0952148 2.07097L10.8217 12.5039Z" fill="#34A853"/>
</g>
<defs>
<clipPath id="clip0_1760_2377">
<rect width="23" height="25" fill="white"/>
</clipPath>
</defs>
</svg>
