<svg width="27" height="17" viewBox="0 0 27 17" fill="none" xmlns="http://www.w3.org/2000/svg">
<path d="M26.5072 4.40169C26.3283 2.13502 24.8211 0.779747 22.5966 0.491139C20.3165 0.195781 18.6405 0 13.4068 0C8.173 0 6.47004 0.140084 4.19156 0.491139C2.01435 0.82616 0.47173 2.21688 0.280169 4.40169C0.243038 4.82447 0 6.53755 0 8.30211C0 10.746 0.240506 12.2084 0.280169 12.6684C0.47173 14.8937 2.01435 16.2954 4.19072 16.5797C6.47679 16.8776 8.28776 17 13.4068 17C18.5257 17 20.3181 16.8861 22.5966 16.5797C24.7046 16.2962 26.27 14.87 26.5072 12.6684C26.5544 12.2262 26.7873 10.7924 26.7873 8.51224C26.7873 6.23207 26.5418 4.84135 26.5072 4.40084V4.40169ZM11.5688 11.7865V4.9865L17.4574 8.3865L11.5688 11.7865Z" fill="#FF0000"/>
</svg>
