<svg width="20" height="20" viewBox="0 0 20 20" fill="none" xmlns="http://www.w3.org/2000/svg">
<path d="M14.9359 0.87793H5.06443C2.55805 0.87793 0.507324 2.92438 0.507324 5.42555V15.2764C0.507324 17.7776 2.55805 19.824 5.06443 19.824H14.9358C17.4423 19.824 19.4929 17.7775 19.4929 15.2764V5.42555C19.493 2.92438 17.4423 0.87793 14.9359 0.87793ZM13.4858 5.35228L13.2104 5.3174C12.7366 5.25732 12.3552 5.2269 12.077 5.2269C11.5659 5.2269 11.1274 5.35012 10.7737 5.59307C10.4536 5.81328 10.2843 6.42393 10.2843 7.35911V7.93362H13.3073L12.8836 9.87381H10.2842V17.4284H8.049V9.87381H6.51441V7.93362H8.049V7.6892C8.049 6.1057 8.39859 4.96107 9.08813 4.28712C9.77621 3.61458 10.6795 3.27353 11.7727 3.27353C12.1701 3.27353 12.6762 3.31881 13.2772 3.40819L13.4857 3.43917V5.35222L13.4858 5.35228Z" fill="url(#paint0_linear_1746_2210)"/>
<defs>
<linearGradient id="paint0_linear_1746_2210" x1="-0.0350372" y1="1.57245" x2="20.86" y2="19.9272" gradientUnits="userSpaceOnUse">
<stop stop-color="#29B0FB"/>
<stop offset="1" stop-color="#0F65DC"/>
</linearGradient>
</defs>
</svg>
