<svg width="22" height="22" viewBox="0 0 22 22" fill="none" xmlns="http://www.w3.org/2000/svg">
<path d="M16.4278 0.324707H5.57199C2.7433 0.324707 0.450195 2.61781 0.450195 5.4465V16.3023C0.450195 19.131 2.7433 21.4241 5.57199 21.4241H16.4278C19.2565 21.4241 21.5496 19.131 21.5496 16.3023V5.4465C21.5496 2.61781 19.2565 0.324707 16.4278 0.324707Z" fill="url(#paint0_radial_1746_2223)"/>
<path d="M10.9997 16.5316C7.88024 16.5316 5.34229 13.9936 5.34229 10.8742C5.34229 7.75475 7.88024 5.2168 10.9997 5.2168C14.1191 5.2168 16.6568 7.75475 16.6568 10.8742C16.6568 13.9936 14.1189 16.5316 10.9997 16.5316ZM10.9997 6.95777C8.84006 6.95777 7.08302 8.71481 7.08302 10.8744C7.08302 13.034 8.84006 14.7911 10.9997 14.7911C13.1593 14.7911 14.9163 13.034 14.9163 10.8744C14.9163 8.71481 13.1593 6.95777 10.9997 6.95777Z" fill="white"/>
<path d="M16.8945 6.14749C16.409 6.14749 16.0142 5.75261 16.0142 5.2671C16.0142 4.7816 16.409 4.38672 16.8945 4.38672C17.38 4.38672 17.7749 4.7816 17.7749 5.2671C17.7749 5.75261 17.38 6.14749 16.8945 6.14749Z" fill="white"/>
<defs>
<radialGradient id="paint0_radial_1746_2223" cx="0" cy="0" r="1" gradientUnits="userSpaceOnUse" gradientTransform="translate(10.9575 21.6291) scale(21.6665)">
<stop stop-color="#FEDB6D"/>
<stop offset="0.31" stop-color="#FF4740"/>
<stop offset="0.64" stop-color="#E738AF"/>
<stop offset="0.69" stop-color="#D93AB3"/>
<stop offset="0.79" stop-color="#B440C0"/>
<stop offset="0.92" stop-color="#7949D5"/>
<stop offset="1" stop-color="#5550E2"/>
</radialGradient>
</defs>
</svg>
