<svg width="21" height="22" viewBox="0 0 21 22" fill="none" xmlns="http://www.w3.org/2000/svg">
<path d="M20.9995 16.9895C20.9995 19.2402 19.175 21.0654 16.9224 21.0654H4.69362C2.44293 21.0654 0.617676 19.2404 0.617676 16.9895V4.76043C0.617676 2.50883 2.44293 0.683594 4.69362 0.683594H16.9226C19.1752 0.683594 20.9997 2.50883 20.9997 4.76043V16.9898L20.9995 16.9895Z" fill="#2EB34A"/>
<path d="M19.5351 11.5708C19.5351 13.0986 18.3005 14.3372 16.7786 14.3372H4.83853C3.31592 14.3372 2.08203 13.0986 2.08203 11.5708V5.00855C2.08203 3.48077 3.31592 2.24219 4.83853 2.24219H16.7788C18.301 2.24219 19.5353 3.48077 19.5353 5.00855V11.571L19.5351 11.5708Z" fill="white"/>
<path d="M12.9563 13.864L11.1824 13.7532V13.7068L10.8105 13.7299L10.4345 13.7065V13.7534L8.66064 13.8642L10.3546 16.6221C10.3546 16.6221 10.3697 16.6492 10.4003 16.6872C10.4824 16.8276 10.6337 16.9236 10.8079 16.9236C10.982 16.9236 11.1317 16.829 11.2144 16.69C11.2498 16.6487 11.2618 16.6219 11.2618 16.6219L12.956 13.864H12.9563Z" fill="white"/>
<path d="M5.72253 9.40021C5.34352 9.40021 5.0357 9.09263 5.0357 8.7134C5.0357 8.33416 5.34352 8.02681 5.72253 8.02681C6.10153 8.02681 6.40912 8.33416 6.40912 8.7134C6.40912 9.09263 6.10177 9.40021 5.72253 9.40021ZM5.95776 7.05079C5.95776 7.05079 5.48141 7.05079 5.04937 7.47128V5.77686H3.98071V10.2287H5.06045V9.87986C5.06045 9.87986 5.315 10.3397 5.95776 10.3397C5.95776 10.3397 7.46364 10.2843 7.46364 8.67851C7.46364 8.67851 7.40825 7.05056 5.95776 7.05056V7.05079Z" fill="#F37528"/>
<path d="M7.80737 5.67748V6.70747C7.80737 6.70747 8.29503 6.68532 8.29503 7.59346V10.2288H9.3248V7.34975C9.3248 7.34975 9.36888 5.67725 7.80737 5.67725V5.67748Z" fill="#F37528"/>
<path d="M11.8435 9.40046C11.4642 9.40046 11.1566 9.09287 11.1566 8.71364C11.1566 8.3344 11.4642 8.02705 11.8435 8.02705C12.2227 8.02705 12.53 8.3344 12.53 8.71364C12.53 9.09287 12.2225 9.40046 11.8435 9.40046ZM11.8432 7.06494C11.8432 7.06494 10.0778 7.06518 10.0778 8.71364C10.0778 8.71364 10.0208 10.3402 11.8432 10.3402C11.8432 10.3402 13.6494 10.3376 13.6494 8.71364C13.6494 8.71364 13.7083 7.06494 11.8432 7.06494Z" fill="#F37528"/>
<path d="M15.9586 9.40028C15.5794 9.40028 15.272 9.0927 15.272 8.71346C15.272 8.33422 15.5791 8.02688 15.9586 8.02688C16.3381 8.02688 16.6452 8.33422 16.6452 8.71346C16.6452 9.0927 16.3376 9.40028 15.9586 9.40028ZM16.5973 7.17271V7.47158C16.5973 7.47158 16.2902 7.06476 15.7007 7.06476C15.7007 7.06476 14.189 7.00089 14.189 8.70215C14.189 8.70215 14.1722 10.2872 15.659 10.2872C15.659 10.2872 16.2652 10.312 16.5973 9.88016V10.1298C16.5973 10.1298 16.6725 10.9104 15.9164 10.9104H15.659V11.8569H16.0741C16.0741 11.8569 17.6354 11.8737 17.6354 10.1877V7.17295H16.5971L16.5973 7.17271Z" fill="#F37528"/>
</svg>
