<svg width="24" height="18" viewBox="0 0 24 18" fill="none" xmlns="http://www.w3.org/2000/svg">
<path d="M0.259766 8.72222L1.79613 14.0491L2.9538 13.8521L1.34503 8.27246L0.259766 8.72222Z" fill="#7D8890"/>
<path d="M20.2884 0.446911L17.4265 3.1665L18.1152 3.89126L20.9771 1.17166L20.2884 0.446911Z" fill="#3965E2"/>
<path d="M22.6113 4.47657L18.7903 5.46973L19.0418 6.43738L22.8628 5.44422L22.6113 4.47657Z" fill="#3965E2"/>
<path d="M19.4641 8.07082L19.2976 9.05713L23.1905 9.71417L23.357 8.72786L19.4641 8.07082Z" fill="#3965E2"/>
<path d="M14.4763 0.179199L2.12329 7.98156L3.33044 12.1665L3.7721 13.7002H18.3752L16.8119 8.2793L14.4763 0.179199Z" fill="#0012B0"/>
<path d="M9.662 15.7752C8.52007 16.1044 7.32732 15.5143 6.87756 14.4443H5.5166C5.52515 14.4776 5.53414 14.5109 5.54359 14.5442C6.09589 16.4597 8.10405 17.5688 10.0196 17.0169C11.2915 16.6504 12.2063 15.6416 12.5166 14.4448H11.1547C10.8916 15.069 10.3614 15.5737 9.6611 15.7756L9.662 15.7752Z" fill="#7D8890"/>
</svg>
