<svg width="22" height="19" viewBox="0 0 22 19" fill="none" xmlns="http://www.w3.org/2000/svg">
<path d="M21.6058 2.60846C20.8118 2.96339 19.9588 3.20269 19.0615 3.31079C19.977 2.75931 20.6791 1.88463 21.0094 0.842438C20.1535 1.35359 19.2052 1.72491 18.1957 1.92604C17.3879 1.05943 16.2376 0.51709 14.963 0.51709C12.5157 0.51709 10.532 2.51435 10.532 4.97705C10.532 5.32633 10.5715 5.66674 10.6471 5.99397C6.96461 5.80817 3.70036 4.03085 1.5153 1.33342C1.13554 1.99191 0.91522 2.7585 0.91522 3.57617C0.91522 5.12333 1.6977 6.48791 2.88664 7.28864C2.15998 7.26471 1.47791 7.06439 0.879969 6.73044V6.78717C0.879969 8.94765 2.40647 10.7494 4.43317 11.1606C4.06116 11.2619 3.67045 11.317 3.26666 11.317C2.98144 11.317 2.7029 11.2888 2.43318 11.2369C2.99693 13.0094 4.63186 14.2982 6.57176 14.3336C5.05568 15.5315 3.14488 16.2435 1.06931 16.2435C0.712523 16.2435 0.358939 16.2228 0.0112305 16.182C1.97303 17.4462 4.30151 18.1849 6.80437 18.1849C14.9531 18.1849 19.4084 11.3886 19.4084 5.49492C19.4084 5.30079 19.4031 5.10827 19.3943 4.91709C20.2611 4.28844 21.0116 3.50304 21.6055 2.60819L21.6058 2.60846Z" fill="#63C6F2"/>
</svg>
