<svg width="20" height="14" viewBox="0 0 20 14" fill="none" xmlns="http://www.w3.org/2000/svg">
<path d="M19.6421 4.17789C19.5106 2.51125 18.4024 1.51474 16.7668 1.30253C15.0902 1.08536 13.8579 0.941406 10.0096 0.941406C6.16132 0.941406 4.90916 1.04441 3.23384 1.30253C1.63297 1.54887 0.49871 2.57144 0.357859 4.17789C0.330557 4.48876 0.151855 5.74835 0.151855 7.0458C0.151855 8.84275 0.328696 9.91806 0.357859 10.2562C0.49871 11.8925 1.63297 12.9231 3.23322 13.1322C4.91413 13.3512 6.2457 13.4412 10.0096 13.4412C13.7735 13.4412 15.0914 13.3574 16.7668 13.1322C18.3167 12.9237 19.4678 11.8751 19.6421 10.2562C19.6769 9.93109 19.8481 8.87687 19.8481 7.2003C19.8481 5.52374 19.6676 4.50117 19.6421 4.17727V4.17789ZM8.65817 9.60781V4.60789L12.988 7.10785L8.65817 9.60781Z" fill="#FF0000"/>
</svg>
