<svg width="203" height="70" viewBox="0 0 203 70" fill="none" xmlns="http://www.w3.org/2000/svg">
<rect x="0.5" y="0.5" width="202" height="69" rx="9.5" fill="white" fill-opacity="0.6" stroke="white"/>
<path fill-rule="evenodd" clip-rule="evenodd" d="M67.7335 47.6602L62.9863 39.4402H72.4772L67.7335 47.6602Z" fill="#0E3480"/>
<path fill-rule="evenodd" clip-rule="evenodd" d="M48.7472 31.22L44 23H53.4909L58.2381 31.22H48.7472Z" fill="#E61E66"/>
<path fill-rule="evenodd" clip-rule="evenodd" d="M53.4902 39.44L58.2374 31.22L62.9847 23H72.4755L58.2374 47.66L53.4902 39.44Z" fill="#2FB4A3"/>
<path fill-rule="evenodd" clip-rule="evenodd" d="M67.7334 47.66L72.4771 39.44L81.9715 23L86.7152 31.22L77.2243 47.66H67.7334Z" fill="#2B54A4"/>
<path d="M104.233 24.1542L102.081 32.4202H99.642L98.3251 26.9827L96.9586 32.4167H94.5195L92.4238 24.1506H94.5797L95.7692 30.1652L97.2418 24.1506H99.4544L100.867 30.1652L102.067 24.1506H104.233V24.1542Z" fill="#272828"/>
<path d="M106.782 31.96C106.135 31.5989 105.621 31.0927 105.239 30.4484C104.86 29.8006 104.669 29.0713 104.669 28.2642C104.669 27.457 104.86 26.7313 105.239 26.087C105.621 25.4428 106.135 24.9401 106.782 24.579C107.43 24.2179 108.142 24.0374 108.921 24.0374C109.699 24.0374 110.411 24.2179 111.059 24.579C111.707 24.9401 112.216 25.4428 112.588 26.087C112.96 26.7313 113.147 27.457 113.147 28.2642C113.147 29.0748 112.96 29.8006 112.581 30.4484C112.206 31.0962 111.692 31.5989 111.052 31.96C110.411 32.3211 109.699 32.5016 108.921 32.5016C108.142 32.4981 107.43 32.3211 106.782 31.96ZM110.503 30.0023C110.899 29.5634 111.098 28.9828 111.098 28.2606C111.098 27.5314 110.899 26.9473 110.503 26.5118C110.106 26.0764 109.579 25.8605 108.921 25.8605C108.255 25.8605 107.72 26.0764 107.324 26.5083C106.927 26.9402 106.729 27.5243 106.729 28.2642C106.729 28.9934 106.927 29.5775 107.324 30.013C107.72 30.4484 108.251 30.6679 108.921 30.6679C109.579 30.6643 110.106 30.4413 110.503 30.0023Z" fill="#272828"/>
<path d="M118.712 32.4165L116.992 29.2977H116.51V32.4165H114.496V24.1541H117.873C118.525 24.1541 119.08 24.2673 119.541 24.4974C120.001 24.724 120.344 25.0355 120.571 25.432C120.797 25.8285 120.914 26.271 120.914 26.756C120.914 27.3047 120.758 27.7968 120.45 28.2287C120.139 28.6605 119.682 28.9685 119.08 29.1491L120.989 32.4201H118.712V32.4165ZM116.51 27.8711H117.76C118.128 27.8711 118.404 27.7826 118.592 27.6021C118.776 27.4215 118.868 27.1666 118.868 26.8374C118.868 26.5223 118.776 26.2781 118.592 26.0975C118.408 25.917 118.132 25.825 117.76 25.825H116.51V27.8711Z" fill="#272828"/>
<path d="M124.422 30.8625H127.059V32.4165H122.411V24.1541H124.425V30.8625H124.422Z" fill="#272828"/>
<path d="M133.641 24.6709C134.292 25.0178 134.798 25.5028 135.156 26.1259C135.513 26.7489 135.69 27.4711 135.69 28.2853C135.69 29.096 135.51 29.8111 135.156 30.4412C134.798 31.0678 134.292 31.5563 133.637 31.8997C132.982 32.2466 132.221 32.4165 131.357 32.4165H128.26V24.1541H131.357C132.228 24.1541 132.989 24.324 133.641 24.6709ZM133.007 30.0518C133.432 29.6376 133.644 29.0464 133.644 28.2853C133.644 27.5242 133.432 26.9295 133.007 26.5082C132.582 26.0834 131.991 25.871 131.23 25.871H130.274V30.6748H131.23C131.991 30.6748 132.582 30.466 133.007 30.0518Z" fill="#272828"/>
<path d="M98.0066 45.0829H94.9232L94.4276 46.5414H92.3213L95.3126 38.2754H97.642L100.633 46.5414H98.5022L98.0066 45.0829ZM97.4862 43.5324L96.4631 40.5056L95.4507 43.5324H97.4862Z" fill="#272828"/>
<path d="M105.986 46.5451L104.265 43.4263H103.784V46.5451H101.77V38.2791H105.147C105.798 38.2791 106.354 38.3923 106.814 38.6224C107.274 38.849 107.618 39.1605 107.844 39.557C108.071 39.9535 108.188 40.396 108.188 40.881C108.188 41.4297 108.032 41.9218 107.724 42.3537C107.412 42.7855 106.956 43.0935 106.354 43.2741L108.262 46.5451H105.986ZM103.784 41.9996H105.033C105.402 41.9996 105.678 41.9111 105.865 41.7306C106.049 41.5501 106.141 41.2952 106.141 40.966C106.141 40.6509 106.049 40.4066 105.865 40.2261C105.681 40.0455 105.405 39.9535 105.033 39.9535H103.784V41.9996Z" fill="#272828"/>
<path d="M115.628 38.2791V39.8933H113.437V46.5451H111.423V39.8933H109.231V38.2791H115.628Z" fill="#272828"/>
<path d="M124.519 38.7994C125.17 39.1464 125.676 39.6314 126.034 40.2544C126.391 40.8775 126.568 41.5996 126.568 42.4138C126.568 43.2245 126.388 43.9396 126.034 44.5697C125.676 45.1963 125.17 45.6848 124.515 46.0282C123.86 46.3752 123.099 46.5451 122.235 46.5451H119.138V38.2791H122.235C123.106 38.2791 123.867 38.4525 124.519 38.7994ZM123.881 44.1768C124.306 43.7626 124.519 43.1714 124.519 42.4103C124.519 41.6492 124.306 41.0545 123.881 40.6332C123.457 40.2084 122.865 39.996 122.104 39.996H121.148V44.7998H122.104C122.865 44.8034 123.46 44.5945 123.881 44.1768Z" fill="#272828"/>
<path d="M129.945 39.8933V41.5642H132.642V43.1183H129.945V44.9308H132.993V46.5451H127.931V38.2791H132.993V39.8933H129.945Z" fill="#272828"/>
<path d="M139.599 46.545L137.914 44.0138L136.43 46.545H134.147L136.795 42.3429L134.087 38.2825H136.43L138.091 40.7782L139.549 38.2825H141.833L139.206 42.4491L141.939 46.545H139.599Z" fill="#272828"/>
<path d="M149.161 42.2545C148.941 42.651 148.601 42.9696 148.148 43.2139C147.691 43.4581 147.129 43.5785 146.452 43.5785H145.203V46.5451H143.188V38.2791H146.449C147.107 38.2791 147.667 38.3923 148.12 38.6224C148.576 38.849 148.916 39.1641 149.143 39.5641C149.369 39.9641 149.486 40.4243 149.486 40.9412C149.49 41.4191 149.38 41.858 149.161 42.2545ZM147.157 41.7058C147.344 41.5253 147.44 41.2704 147.44 40.9412C147.44 40.6119 147.344 40.3571 147.157 40.1765C146.969 39.996 146.683 39.9039 146.297 39.9039H145.203V41.9784H146.297C146.683 41.9784 146.969 41.8864 147.157 41.7058Z" fill="#272828"/>
<path d="M152.545 46.0847C151.897 45.7237 151.384 45.2174 151.002 44.5731C150.623 43.9253 150.432 43.1961 150.432 42.3889C150.432 41.5818 150.623 40.8561 151.002 40.2118C151.384 39.5675 151.897 39.0648 152.545 38.7037C153.193 38.3427 153.904 38.1621 154.683 38.1621C155.462 38.1621 156.174 38.3427 156.821 38.7037C157.469 39.0648 157.979 39.5675 158.351 40.2118C158.722 40.8561 158.91 41.5818 158.91 42.3889C158.91 43.1996 158.722 43.9253 158.344 44.5731C157.968 45.221 157.455 45.7237 156.814 46.0847C156.174 46.4458 155.462 46.6264 154.683 46.6264C153.904 46.6264 153.193 46.4458 152.545 46.0847ZM156.266 44.1306C156.662 43.6917 156.86 43.1111 156.86 42.3889C156.86 41.6597 156.662 41.0756 156.266 40.6401C155.869 40.2047 155.342 39.9888 154.683 39.9888C154.018 39.9888 153.483 40.2047 153.087 40.6366C152.69 41.0685 152.492 41.6526 152.492 42.3925C152.492 43.1217 152.69 43.7058 153.087 44.1413C153.483 44.5767 154.014 44.7962 154.683 44.7962C155.338 44.7891 155.869 44.5696 156.266 44.1306Z" fill="#272828"/>
</svg>
