<svg width="115" height="25" viewBox="0 0 115 25" fill="none" xmlns="http://www.w3.org/2000/svg">
<path fill-rule="evenodd" clip-rule="evenodd" d="M23.7335 24.6602L18.9863 16.4402H28.4772L23.7335 24.6602Z" fill="#0E3480"/>
<path fill-rule="evenodd" clip-rule="evenodd" d="M4.74721 8.22L0 0H9.49088L14.2381 8.22H4.74721Z" fill="#E61E66"/>
<path fill-rule="evenodd" clip-rule="evenodd" d="M9.49023 16.44L14.2374 8.22L18.9847 0H28.4755L14.2374 24.66L9.49023 16.44Z" fill="#2FB4A3"/>
<path fill-rule="evenodd" clip-rule="evenodd" d="M23.7334 24.66L28.4771 16.44L37.9715 0L42.7152 8.22L33.2243 24.66H23.7334Z" fill="#2B54A4"/>
<path d="M60.2334 1.15417L58.0811 9.4202H55.642L54.3251 3.98268L52.9586 9.41666H50.5195L48.4238 1.15063H50.5797L51.7692 7.16518L53.2418 1.15063H55.4544L56.8669 7.16518L58.0669 1.15063H60.2334V1.15417Z" fill="#272828"/>
<path d="M62.7824 8.95999C62.1345 8.5989 61.6212 8.09268 61.2389 7.44839C60.8601 6.80056 60.6689 6.07131 60.6689 5.26418C60.6689 4.45704 60.8601 3.73133 61.2389 3.08704C61.6212 2.44275 62.1345 1.94007 62.7824 1.57898C63.4302 1.2179 64.1417 1.03735 64.9205 1.03735C65.6994 1.03735 66.4109 1.2179 67.0587 1.57898C67.7066 1.94007 68.2163 2.44275 68.588 3.08704C68.9597 3.73133 69.1474 4.45704 69.1474 5.26418C69.1474 6.07485 68.9597 6.80056 68.581 7.44839C68.2057 8.09622 67.6924 8.5989 67.0517 8.95999C66.4109 9.32108 65.6994 9.50162 64.9205 9.50162C64.1417 9.49808 63.4302 9.32108 62.7824 8.95999ZM66.5029 7.00234C66.8994 6.56338 67.0977 5.98281 67.0977 5.26064C67.0977 4.53138 66.8994 3.94728 66.5029 3.51185C66.1065 3.07642 65.579 2.86048 64.9205 2.86048C64.255 2.86048 63.7205 3.07642 63.324 3.50831C62.9275 3.9402 62.7293 4.5243 62.7293 5.26418C62.7293 5.99343 62.9275 6.57753 63.324 7.01296C63.7205 7.44839 64.2515 7.66787 64.9205 7.66787C65.579 7.66433 66.1065 7.44131 66.5029 7.00234Z" fill="#272828"/>
<path d="M74.7123 9.41653L72.9918 6.29775H72.5104V9.41653H70.4961V1.15405H73.8733C74.5247 1.15405 75.0805 1.26733 75.5407 1.49744C76.0009 1.724 76.3443 2.03553 76.5708 2.43201C76.7974 2.8285 76.9142 3.271 76.9142 3.75599C76.9142 4.3047 76.7584 4.79677 76.4505 5.22865C76.1389 5.66054 75.6823 5.96852 75.0805 6.14907L76.9885 9.42007H74.7123V9.41653ZM72.5104 4.87111H73.76C74.1282 4.87111 74.4043 4.78261 74.5919 4.60206C74.776 4.42152 74.8681 4.16664 74.8681 3.83741C74.8681 3.52235 74.776 3.27808 74.5919 3.09754C74.4079 2.917 74.1317 2.82496 73.76 2.82496H72.5104V4.87111Z" fill="#272828"/>
<path d="M80.4219 7.86245H83.0592V9.41653H78.4111V1.15405H80.4254V7.86245H80.4219Z" fill="#272828"/>
<path d="M89.6406 1.6709C90.292 2.01783 90.7982 2.50281 91.1558 3.12586C91.5133 3.74891 91.6903 4.47108 91.6903 5.28529C91.6903 6.09597 91.5098 6.81106 91.1558 7.44119C90.7982 8.06777 90.292 8.5563 89.6371 8.89969C88.9822 9.24661 88.2211 9.41653 87.3573 9.41653H84.2598V1.15405H87.3573C88.2282 1.15405 88.9893 1.32398 89.6406 1.6709ZM89.007 7.05178C89.4318 6.63759 89.6442 6.0464 89.6442 5.28529C89.6442 4.52418 89.4318 3.92945 89.007 3.50819C88.5822 3.08338 87.991 2.87098 87.2299 2.87098H86.2741V7.67483H87.2299C87.991 7.67483 88.5822 7.46597 89.007 7.05178Z" fill="#272828"/>
<path d="M54.0066 22.0829H50.9232L50.4276 23.5414H48.3213L51.3126 15.2754H53.642L56.6333 23.5414H54.5022L54.0066 22.0829ZM53.4862 20.5324L52.4631 17.5056L51.4507 20.5324H53.4862Z" fill="#272828"/>
<path d="M61.9857 23.5451L60.2653 20.4263H59.7838V23.5451H57.7695V15.2791H61.1467C61.7981 15.2791 62.3539 15.3923 62.8141 15.6224C63.2743 15.849 63.6177 16.1605 63.8443 16.557C64.0708 16.9535 64.1876 17.396 64.1876 17.881C64.1876 18.4297 64.0319 18.9218 63.7239 19.3537C63.4124 19.7855 62.9557 20.0935 62.3539 20.2741L64.262 23.5451H61.9857ZM59.7838 18.9996H61.0335C61.4016 18.9996 61.6777 18.9111 61.8654 18.7306C62.0495 18.5501 62.1415 18.2952 62.1415 17.966C62.1415 17.6509 62.0495 17.4066 61.8654 17.2261C61.6813 17.0455 61.4052 16.9535 61.0335 16.9535H59.7838V18.9996Z" fill="#272828"/>
<path d="M71.6283 15.2791V16.8933H69.437V23.5451H67.4227V16.8933H65.2314V15.2791H71.6283Z" fill="#272828"/>
<path d="M80.5186 15.7994C81.1699 16.1464 81.6762 16.6314 82.0337 17.2544C82.3913 17.8775 82.5683 18.5996 82.5683 19.4138C82.5683 20.2245 82.3877 20.9396 82.0337 21.5697C81.6762 22.1963 81.1699 22.6848 80.515 23.0282C79.8601 23.3752 79.099 23.5451 78.2352 23.5451H75.1377V15.2791H78.2352C79.1061 15.2791 79.8672 15.4525 80.5186 15.7994ZM79.8814 21.1768C80.3062 20.7626 80.5186 20.1714 80.5186 19.4103C80.5186 18.6492 80.3062 18.0545 79.8814 17.6332C79.4566 17.2084 78.8654 16.996 78.1043 16.996H77.1484V21.7998H78.1043C78.8654 21.8034 79.4601 21.5945 79.8814 21.1768Z" fill="#272828"/>
<path d="M85.945 16.8933V18.5642H88.6425V20.1183H85.945V21.9308H88.9929V23.5451H83.9307V15.2791H88.9929V16.8933H85.945Z" fill="#272828"/>
<path d="M95.5988 23.545L93.9137 21.0138L92.4304 23.545H90.1471L92.7951 19.3429L90.0869 15.2825H92.4304L94.0907 17.7782L95.5492 15.2825H97.8325L95.2058 19.4491L97.9388 23.545H95.5988Z" fill="#272828"/>
<path d="M105.161 19.2545C104.941 19.651 104.601 19.9696 104.148 20.2139C103.691 20.4581 103.129 20.5785 102.452 20.5785H101.203V23.5451H99.1885V15.2791H102.449C103.107 15.2791 103.667 15.3923 104.12 15.6224C104.576 15.849 104.916 16.1641 105.143 16.5641C105.369 16.9641 105.486 17.4243 105.486 17.9412C105.49 18.4191 105.38 18.858 105.161 19.2545ZM103.157 18.7058C103.344 18.5253 103.44 18.2704 103.44 17.9412C103.44 17.6119 103.344 17.3571 103.157 17.1765C102.969 16.996 102.683 16.9039 102.297 16.9039H101.203V18.9784H102.297C102.683 18.9784 102.969 18.8864 103.157 18.7058Z" fill="#272828"/>
<path d="M108.545 23.0847C107.897 22.7237 107.384 22.2174 107.002 21.5731C106.623 20.9253 106.432 20.1961 106.432 19.3889C106.432 18.5818 106.623 17.8561 107.002 17.2118C107.384 16.5675 107.897 16.0648 108.545 15.7037C109.193 15.3427 109.904 15.1621 110.683 15.1621C111.462 15.1621 112.174 15.3427 112.821 15.7037C113.469 16.0648 113.979 16.5675 114.351 17.2118C114.722 17.8561 114.91 18.5818 114.91 19.3889C114.91 20.1996 114.722 20.9253 114.344 21.5731C113.968 22.221 113.455 22.7237 112.814 23.0847C112.174 23.4458 111.462 23.6264 110.683 23.6264C109.904 23.6264 109.193 23.4458 108.545 23.0847ZM112.266 21.1306C112.662 20.6917 112.86 20.1111 112.86 19.3889C112.86 18.6597 112.662 18.0756 112.266 17.6401C111.869 17.2047 111.342 16.9888 110.683 16.9888C110.018 16.9888 109.483 17.2047 109.087 17.6366C108.69 18.0685 108.492 18.6526 108.492 19.3925C108.492 20.1217 108.69 20.7058 109.087 21.1413C109.483 21.5767 110.014 21.7962 110.683 21.7962C111.338 21.7891 111.869 21.5696 112.266 21.1306Z" fill="#272828"/>
</svg>
