<svg width="279" height="279" viewBox="0 0 279 279" fill="none" xmlns="http://www.w3.org/2000/svg">
<g id="Group 38254">
<g id="Group">
<path id="Vector" d="M142.857 105.834C138.958 108.085 137.612 113.108 139.863 117.007C142.114 120.906 147.137 122.252 151.036 120.001C154.935 117.75 156.281 112.727 154.03 108.828C151.779 104.929 146.756 103.583 142.857 105.834Z" fill="#FF7E41"/>
<path id="Vector_2" d="M137.013 95.7246C129.662 99.969 126.015 108.225 127.338 116.152C128.395 122.725 121.853 127.891 115.707 125.288C113.418 124.348 110.712 124.402 108.42 125.725C104.491 127.994 103.175 133 105.426 136.899C107.677 140.798 112.7 142.144 116.599 139.893C118.98 138.518 120.393 136.154 120.672 133.612C121.329 127.122 129.557 124.395 134.43 128.368C140.647 133.43 149.573 134.387 156.924 130.143C166.448 124.644 169.706 112.485 164.208 102.961C158.709 93.4369 146.55 90.1789 137.026 95.6777L137.013 95.7246ZM153.441 124.178C147.22 127.769 139.286 125.643 135.695 119.423C132.103 113.203 134.229 105.269 140.45 101.677C146.67 98.0858 154.604 100.212 158.196 106.432C161.787 112.653 159.661 120.587 153.441 124.178Z" fill="#FF7E41"/>
<path id="Vector_3" d="M127.104 131.787C126.092 132.371 125.461 133.41 125.389 134.523C124.882 138.387 122.635 141.986 119.004 144.083C112.783 147.674 104.849 145.548 101.258 139.328C97.6665 133.107 99.7924 125.173 106.013 121.582C109.644 119.485 113.932 119.351 117.532 120.844C117.579 120.857 117.643 120.899 117.69 120.912C118.604 121.257 119.695 121.223 120.647 120.673C122.284 119.728 122.85 117.615 121.905 115.978C121.561 115.383 121.074 114.95 120.501 114.646C120.467 114.586 120.373 114.561 120.326 114.548C114.748 112.173 108.184 112.352 102.559 115.6C93.0348 121.098 89.7767 133.257 95.2755 142.782C100.774 152.306 112.933 155.564 122.458 150.065C128.053 146.834 131.494 141.316 132.231 135.375C132.355 134.628 132.228 133.789 131.815 133.075C130.853 131.408 128.741 130.842 127.074 131.804L127.104 131.787Z" fill="#FF7E41"/>
</g>
<path id="Vector_4" d="M88.1875 50.915C39.4656 79.0446 22.7855 141.296 50.9151 190.018C79.0447 238.74 141.296 255.42 190.018 227.29C238.74 199.16 255.42 136.909 227.29 88.1874C199.161 39.4655 136.88 22.8026 88.1875 50.915ZM166.768 187.021C140.309 202.297 106.461 193.227 91.1843 166.768C75.9081 140.309 84.9778 106.46 111.437 91.1842C137.896 75.908 171.745 84.9776 187.021 111.437C202.297 137.896 193.228 171.745 166.768 187.021Z" fill="#FF7E41"/>
<path id="Vector_5" d="M167.823 140.649C166.31 138.03 162.994 137.167 160.405 138.662C157.816 140.157 156.923 143.49 158.418 146.079C158.452 146.139 158.486 146.198 158.521 146.258C162.559 153.252 160.156 162.219 153.162 166.257C146.168 170.295 137.201 167.893 133.163 160.898C133.163 160.898 133.094 160.779 133.06 160.72C131.547 158.101 128.231 157.237 125.642 158.732C123.053 160.227 122.159 163.56 123.654 166.15C123.689 166.209 123.723 166.269 123.758 166.328C130.803 178.531 146.436 182.72 158.639 175.675C170.842 168.63 175.031 152.996 167.985 140.794C167.985 140.794 167.917 140.674 167.882 140.615L167.823 140.649Z" fill="#FF7E41"/>
</g>
</svg>
