<svg width="29" height="28" viewBox="0 0 29 28" fill="none" xmlns="http://www.w3.org/2000/svg">
<path d="M28.1643 13.0818C28.1643 13.0517 28.1643 13.0241 28.1643 12.994C28.1643 5.85004 22.0735 0.0585938 14.5602 0.0585938C7.0469 0.0585938 0.956055 5.85004 0.956055 12.994C0.956055 13.0216 0.956055 13.0492 0.956055 13.0768V14.3314C0.956055 21.4754 7.0469 27.2668 14.5602 27.2668C22.0735 27.2668 28.1643 21.4754 28.1643 14.3314V13.0818Z" fill="#B96400"/>
<path fill-rule="evenodd" clip-rule="evenodd" d="M14.5601 23.1966C13.1113 23.1966 11.7047 22.9281 10.3851 22.3961C9.10787 21.8817 7.95989 21.1465 6.9729 20.208C5.98591 19.2695 5.21268 18.178 4.67168 16.9635C4.11221 15.7063 3.82983 14.3714 3.82983 12.9938C3.82983 11.6162 4.11221 10.2787 4.67168 9.0241C5.21268 7.8096 5.98591 6.71806 6.9729 5.77958C7.95989 4.84111 9.10787 4.10588 10.3851 3.59148C11.7073 3.05951 13.1113 2.79102 14.5601 2.79102C16.0089 2.79102 17.4155 3.05951 18.735 3.59148C20.0123 4.10588 21.1603 4.84111 22.1472 5.77958C23.1342 6.71806 23.9075 7.8096 24.4485 9.0241C25.0079 10.2813 25.2903 11.6162 25.2903 12.9938C25.2903 14.3714 25.0079 15.7088 24.4485 16.9635C23.9075 18.178 23.1342 19.2695 22.1472 20.208C21.1603 21.1465 20.0123 21.8817 18.735 22.3961C17.4155 22.9281 16.0115 23.1966 14.5601 23.1966Z" fill="url(#paint0_linear_1385_2459)"/>
<path d="M14.5602 3.2956C15.9378 3.2956 17.2732 3.55155 18.5293 4.05592C19.7433 4.54523 20.8358 5.24281 21.7727 6.13612C22.7095 7.02692 23.4458 8.06576 23.9604 9.22004C24.4909 10.4145 24.76 11.6842 24.76 12.994C24.76 14.3039 24.4909 15.5736 23.9604 16.768C23.4458 17.9223 22.7122 18.9611 21.7727 19.8519C20.8358 20.7427 19.7433 21.4428 18.5293 21.9321C17.2732 22.4365 15.9378 22.6924 14.5602 22.6924C13.1827 22.6924 11.8473 22.4365 10.5912 21.9321C9.37721 21.4428 8.28466 20.7452 7.34781 19.8519C6.41096 18.9611 5.67467 17.9223 5.16007 16.768C4.62962 15.5736 4.36044 14.3039 4.36044 12.994C4.36044 11.6842 4.62962 10.4145 5.16007 9.22004C5.67467 8.06576 6.40832 7.02692 7.34781 6.13612C8.28466 5.24532 9.37721 4.54523 10.5912 4.05592C11.8473 3.55155 13.1827 3.2956 14.5602 3.2956ZM14.5602 2.28687C13.0402 2.28687 11.565 2.57042 10.1768 3.12748C8.83622 3.66698 7.63019 4.43984 6.59569 5.42348C5.5612 6.40712 4.74838 7.55387 4.18099 8.82859C3.59777 10.146 3.29956 11.5487 3.29956 12.994C3.29956 14.4394 3.59777 15.8421 4.18363 17.1619C4.75102 18.4367 5.56384 19.5834 6.59833 20.5671C7.63282 21.5507 8.83885 22.3236 10.1795 22.8631C11.5676 23.4201 13.0402 23.7037 14.5629 23.7037C16.083 23.7037 17.5582 23.4201 18.9463 22.8631C20.2869 22.3236 21.4929 21.5507 22.5274 20.5671C23.5619 19.5834 24.3747 18.4367 24.9421 17.1619C25.528 15.8421 25.8262 14.4419 25.8262 12.994C25.8262 11.5487 25.528 10.146 24.9421 8.82608C24.3747 7.55136 23.5619 6.40461 22.5274 5.42097C21.4929 4.43733 20.2869 3.66447 18.9463 3.12497C17.5555 2.57042 16.083 2.28687 14.5602 2.28687Z" fill="url(#paint1_linear_1385_2459)"/>
<path d="M14.5602 2.28684C16.0803 2.28684 17.5555 2.57039 18.9436 3.12746C20.2842 3.66696 21.4902 4.43982 22.5247 5.42346C23.5592 6.4071 24.372 7.55385 24.9394 8.82857C25.5253 10.1485 25.8235 11.5486 25.8235 12.9965C25.8235 14.4419 25.5253 15.8445 24.9394 17.1644C24.372 18.4392 23.5592 19.5859 22.5247 20.5695C21.4902 21.5532 20.2842 22.326 18.9436 22.8655C17.5555 23.4201 16.0829 23.7037 14.5602 23.7037C13.0401 23.7037 11.5649 23.4201 10.1768 22.863C8.83616 22.3235 7.63013 21.5507 6.59563 20.567C5.56114 19.5834 4.74832 18.4366 4.18093 17.1619C3.59771 15.842 3.2995 14.4419 3.2995 12.994C3.2995 11.5486 3.59771 10.1459 4.18357 8.82606C4.75096 7.55134 5.56378 6.40459 6.59827 5.42095C7.63276 4.43731 8.83879 3.66445 10.1794 3.12495C11.5649 2.57039 13.0401 2.28684 14.5602 2.28684ZM14.5602 0.0585938C7.0469 0.0585938 0.956055 5.85004 0.956055 12.994C0.956055 20.1379 7.0469 25.9294 14.5602 25.9294C22.0735 25.9294 28.1643 20.1379 28.1643 12.994C28.1643 5.85004 22.0735 0.0585938 14.5602 0.0585938Z" fill="url(#paint2_linear_1385_2459)"/>
<path d="M18.0342 9.36572C17.2739 9.36572 16.6545 9.98504 16.6545 10.7453C16.6545 11.5047 17.2739 12.1249 18.0342 12.1249C18.7935 12.1249 19.4138 11.5056 19.4138 10.7453C19.4138 9.98504 18.7944 9.36572 18.0342 9.36572Z" fill="#D57A00"/>
<path d="M18.0342 7.39575C16.602 7.39575 15.3803 8.29419 14.901 9.55821C14.5044 10.6061 13.1126 10.8062 12.4369 9.9125C12.184 9.57982 11.7856 9.36461 11.3354 9.36461C10.5723 9.36461 9.95581 9.98205 9.95581 10.7442C9.95581 11.5064 10.5733 12.1238 11.3354 12.1238C11.7969 12.1238 12.2057 11.8973 12.4556 11.5487C13.0956 10.6587 14.5251 10.95 14.9047 11.9406C15.3859 13.1989 16.6048 14.0927 18.0333 14.0927C19.8828 14.0927 21.3818 12.5937 21.3818 10.7442C21.3827 8.89565 19.8837 7.39575 18.0342 7.39575ZM18.0342 12.9302C16.8266 12.9302 15.8483 11.9518 15.8483 10.7452C15.8483 9.53753 16.8266 8.55921 18.0342 8.55921C19.2409 8.55921 20.2192 9.53753 20.2192 10.7452C20.2192 11.9518 19.2409 12.9302 18.0342 12.9302Z" fill="#D57A00"/>
<path d="M13.5506 11.8223C13.3514 11.8223 13.1756 11.9219 13.0704 12.0751C12.671 12.5958 12.0432 12.9303 11.3365 12.9303C10.1288 12.9303 9.15052 11.952 9.15052 10.7453C9.15052 9.5377 10.1288 8.55938 11.3365 8.55938C12.0413 8.55938 12.6766 8.90052 13.076 9.41929C13.0826 9.42775 13.0882 9.4362 13.0948 9.44466C13.0958 9.44654 13.0967 9.44748 13.0986 9.44842C13.2048 9.57811 13.3664 9.66081 13.5468 9.66081C13.8664 9.66081 14.1267 9.40143 14.1267 9.08096C14.1267 8.96537 14.0929 8.85823 14.0355 8.76801C14.0308 8.75674 14.0252 8.7464 14.0177 8.73606C13.4068 7.92126 12.4332 7.39404 11.3365 7.39404C9.48696 7.39404 7.98706 8.89301 7.98706 10.7435C7.98706 12.593 9.48696 14.0919 11.3365 14.0919C12.4229 14.0919 13.388 13.575 13.9998 12.7734C14.0825 12.6728 14.1333 12.5431 14.1333 12.4031C14.1333 12.0836 13.872 11.8223 13.5506 11.8223Z" fill="#D57A00"/>
<path d="M18.7459 16.5476C18.7459 16.0411 18.3352 15.6304 17.8287 15.6304C17.3221 15.6304 16.9114 16.0411 16.9114 16.5476C16.9114 16.5598 16.9142 16.5702 16.9152 16.5824H16.9114C16.9114 17.9451 15.8072 19.0493 14.4445 19.0493C13.0818 19.0493 11.9775 17.9451 11.9775 16.5824H11.9738C11.9738 16.5711 11.9775 16.5598 11.9775 16.5476C11.9775 16.0411 11.5668 15.6304 11.0603 15.6304C10.5538 15.6304 10.1431 16.0411 10.1431 16.5476C10.1431 16.5598 10.1459 16.5702 10.1468 16.5824H10.1431C10.1431 18.9582 12.0687 20.8838 14.4445 20.8838C16.8203 20.8838 18.7459 18.9582 18.7459 16.5824H18.7421C18.7431 16.5702 18.7459 16.5589 18.7459 16.5476Z" fill="#D57A00"/>
<path d="M17.7856 8.41333C17.0253 8.41333 16.406 9.03265 16.406 9.79294C16.406 10.5523 17.0253 11.1725 17.7856 11.1725C18.545 11.1725 19.1652 10.5532 19.1652 9.79294C19.1652 9.03265 18.5459 8.41333 17.7856 8.41333Z" fill="url(#paint3_linear_1385_2459)"/>
<path d="M17.7857 6.44336C16.3535 6.44336 15.1317 7.3418 14.6524 8.60581C14.2559 9.65368 12.864 9.85385 12.1883 8.96011C11.9355 8.62743 11.537 8.41222 11.0869 8.41222C10.3238 8.41222 9.70728 9.02966 9.70728 9.79183C9.70728 10.554 10.3247 11.1714 11.0869 11.1714C11.5483 11.1714 11.9571 10.9449 12.2071 10.5963C12.8471 9.7063 14.2765 9.99764 14.6562 10.9882C15.1374 12.2466 16.3563 13.1403 17.7848 13.1403C19.6343 13.1403 21.1332 11.6413 21.1332 9.79183C21.1342 7.94326 19.6352 6.44336 17.7857 6.44336ZM17.7857 11.9778C16.5781 11.9778 15.5997 10.9995 15.5997 9.79277C15.5997 8.58514 16.5781 7.60682 17.7857 7.60682C18.9924 7.60682 19.9707 8.58514 19.9707 9.79277C19.9707 10.9995 18.9924 11.9778 17.7857 11.9778Z" fill="url(#paint4_linear_1385_2459)"/>
<path d="M13.3021 10.8699C13.1028 10.8699 12.9271 10.9696 12.8218 11.1227C12.4224 11.6434 11.7947 11.9779 11.0879 11.9779C9.8803 11.9779 8.90198 10.9996 8.90198 9.79294C8.90198 8.58531 9.8803 7.60699 11.0879 7.60699C11.7928 7.60699 12.4281 7.94813 12.8275 8.46689C12.8341 8.47535 12.8397 8.48381 12.8463 8.49227C12.8472 8.49415 12.8482 8.49509 12.85 8.49603C12.9562 8.62572 13.1179 8.70842 13.2983 8.70842C13.6178 8.70842 13.8782 8.44904 13.8782 8.12857C13.8782 8.01298 13.8443 7.90584 13.787 7.81562C13.7823 7.80434 13.7767 7.79401 13.7691 7.78367C13.1583 6.96887 12.1847 6.44165 11.0879 6.44165C9.23843 6.44165 7.73853 7.94061 7.73853 9.79106C7.73853 11.6406 9.23843 13.1395 11.0879 13.1395C12.1743 13.1395 13.1395 12.6226 13.7513 11.821C13.834 11.7204 13.8847 11.5908 13.8847 11.4507C13.8847 11.1312 13.6235 10.8699 13.3021 10.8699Z" fill="url(#paint5_linear_1385_2459)"/>
<path d="M18.4974 15.5952C18.4974 15.0887 18.0867 14.678 17.5801 14.678C17.0736 14.678 16.6629 15.0887 16.6629 15.5952C16.6629 15.6074 16.6657 15.6178 16.6666 15.63H16.6629C16.6629 16.9927 15.5586 18.0969 14.1959 18.0969C12.8333 18.0969 11.729 16.9927 11.729 15.63H11.7252C11.7252 15.6187 11.729 15.6074 11.729 15.5952C11.729 15.0887 11.3183 14.678 10.8118 14.678C10.3052 14.678 9.89453 15.0887 9.89453 15.5952C9.89453 15.6074 9.89735 15.6178 9.89829 15.63H9.89453C9.89453 18.0058 11.8202 19.9314 14.1959 19.9314C16.5717 19.9314 18.4974 18.0058 18.4974 15.63H18.4936C18.4945 15.6178 18.4974 15.6065 18.4974 15.5952Z" fill="url(#paint6_linear_1385_2459)"/>
<defs>
<linearGradient id="paint0_linear_1385_2459" x1="14.5606" y1="24.2972" x2="14.5606" y2="3.89009" gradientUnits="userSpaceOnUse">
<stop stop-color="#F0B100"/>
<stop offset="0.9876" stop-color="#EBA700"/>
</linearGradient>
<linearGradient id="paint1_linear_1385_2459" x1="14.5607" y1="2.54878" x2="14.5607" y2="23.9649" gradientUnits="userSpaceOnUse">
<stop stop-color="#C96D00"/>
<stop offset="0.5383" stop-color="#F3AC00"/>
<stop offset="0.9876" stop-color="#FFFF00"/>
</linearGradient>
<linearGradient id="paint2_linear_1385_2459" x1="14.5607" y1="26.1925" x2="14.5607" y2="0.320829" gradientUnits="userSpaceOnUse">
<stop offset="8e-08" stop-color="#FFC100"/>
<stop offset="0.2951" stop-color="#FFD100"/>
<stop offset="0.6566" stop-color="#FFDF00"/>
<stop offset="0.9876" stop-color="#FFE300"/>
</linearGradient>
<linearGradient id="paint3_linear_1385_2459" x1="17.7851" y1="11.1723" x2="17.7851" y2="8.41261" gradientUnits="userSpaceOnUse">
<stop stop-color="#FFC100"/>
<stop offset="0.9876" stop-color="#FFE300"/>
</linearGradient>
<linearGradient id="paint4_linear_1385_2459" x1="15.4181" y1="13.1398" x2="15.4181" y2="6.44162" gradientUnits="userSpaceOnUse">
<stop stop-color="#FFC100"/>
<stop offset="0.9876" stop-color="#FFE300"/>
</linearGradient>
<linearGradient id="paint5_linear_1385_2459" x1="10.8105" y1="13.139" x2="10.8105" y2="6.43991" gradientUnits="userSpaceOnUse">
<stop stop-color="#FFC100"/>
<stop offset="0.9876" stop-color="#FFE300"/>
</linearGradient>
<linearGradient id="paint6_linear_1385_2459" x1="14.1943" y1="19.931" x2="14.1943" y2="14.6766" gradientUnits="userSpaceOnUse">
<stop stop-color="#FFC100"/>
<stop offset="0.9876" stop-color="#FFE300"/>
</linearGradient>
</defs>
</svg>
