<svg width="101" height="101" viewBox="0 0 101 101" fill="none" xmlns="http://www.w3.org/2000/svg">
<circle cx="50.4521" cy="50.6528" r="50" fill="#000079"/>
<path d="M72.6065 44.6176V67.3822C72.6065 69.3748 70.9456 70.9893 68.8957 70.9893H32.0094C29.9596 70.9893 28.2979 69.3748 28.2979 67.3822V44.6176H72.6065Z" fill="#E6E6E6"/>
<path d="M72.6065 43.7587V66.5233C72.6065 68.5159 70.9456 70.1305 68.8957 70.1305H32.0094C29.9596 70.1305 28.2979 68.5159 28.2979 66.5233V43.7587H72.6065Z" fill="white"/>
<path d="M68.6523 46.9219H63.585V51.8477H68.6523V46.9219Z" fill="#FE0101"/>
<path d="M60.8298 46.9219H55.7625V51.8477H60.8298V46.9219Z" fill="#E6E6E6"/>
<path d="M53.0075 46.9219H47.9402V51.8477H53.0075V46.9219Z" fill="#E6E6E6"/>
<path d="M45.1855 46.9219H40.1182V51.8477H45.1855V46.9219Z" fill="#E6E6E6"/>
<path d="M37.3632 46.9219H32.2959V51.8477H37.3632V46.9219Z" fill="#E6E6E6"/>
<path d="M68.6523 54.202H63.585V59.1278H68.6523V54.202Z" fill="#FE0101"/>
<path d="M60.8298 54.202H55.7625V59.1278H60.8298V54.202Z" fill="#E6E6E6"/>
<path d="M53.0075 54.202H47.9402V59.1278H53.0075V54.202Z" fill="#E6E6E6"/>
<path d="M45.1855 54.202H40.1182V59.1278H45.1855V54.202Z" fill="#E6E6E6"/>
<path d="M37.3632 54.202H32.2959V59.1278H37.3632V54.202Z" fill="#E6E6E6"/>
<path d="M68.6523 61.4819H63.585V66.4077H68.6523V61.4819Z" fill="#FE0101"/>
<path d="M60.8298 61.4819H55.7625V66.4077H60.8298V61.4819Z" fill="#E6E6E6"/>
<path d="M53.0075 61.4819H47.9402V66.4077H53.0075V61.4819Z" fill="#E6E6E6"/>
<path d="M45.1855 61.4819H40.1182V66.4077H45.1855V61.4819Z" fill="#E6E6E6"/>
<path d="M37.3632 61.4819H32.2959V66.4077H37.3632V61.4819Z" fill="#E6E6E6"/>
<path d="M71.5806 33.6952H29.3237C28.5662 33.6952 27.9521 34.2921 27.9521 35.0285V43.7587H72.9521V35.0285C72.9521 34.2921 72.3381 33.6952 71.5806 33.6952Z" fill="url(#paint0_linear_1229_2301)"/>
<path d="M63.3628 30.3162C61.99 30.3162 60.8777 31.3986 60.8777 32.733V37.4172C60.8777 38.7516 61.99 39.834 63.3628 39.834C64.7367 39.834 65.8491 38.7516 65.8491 37.4172V32.7334C65.8491 31.399 64.7367 30.3162 63.3628 30.3162Z" fill="#000079"/>
<path d="M50.4755 30.3162H50.4743C49.1016 30.3173 47.9893 31.3986 47.9893 32.733V37.4172C47.9893 38.7516 49.1016 39.8329 50.4743 39.834H50.4755C51.8483 39.834 52.9618 38.7516 52.9618 37.4172V32.7334C52.9622 31.399 51.8483 30.3162 50.4755 30.3162Z" fill="#000079"/>
<path d="M37.5874 30.3162C36.2146 30.3162 35.1011 31.3986 35.1011 32.733V37.4172C35.1011 38.7516 36.2146 39.834 37.5874 39.834C38.9613 39.834 40.0736 38.7516 40.0736 37.4172V32.7334C40.0736 31.399 38.9609 30.3162 37.5874 30.3162Z" fill="#000079"/>
<path d="M72.6065 43.7587H28.2979V44.6176H72.6065V43.7587Z" fill="#0012B0"/>
<defs>
<linearGradient id="paint0_linear_1229_2301" x1="42.3856" y1="36.5423" x2="75.3435" y2="45.5418" gradientUnits="userSpaceOnUse">
<stop stop-color="#D7E0FF"/>
<stop offset="1" stop-color="white"/>
</linearGradient>
</defs>
</svg>
