<svg width="101" height="101" viewBox="0 0 101 101" fill="none" xmlns="http://www.w3.org/2000/svg">
<circle cx="50.936" cy="50.6528" r="50" fill="#000079"/>
<rect x="28.3599" y="28.0767" width="45.1523" height="45.1523" rx="10" fill="white"/>
<g clip-path="url(#clip0_1229_2298)">
<path d="M65.3256 55.2982L58.9464 42.4509C58.7289 42.0154 58.5114 41.6525 58.149 41.2896C56.6267 39.7653 54.0895 39.7653 52.5672 41.2896C52.2047 41.6525 51.9873 42.0154 51.7698 42.4509L50.9724 44.1203L50.175 42.4509C49.9575 42.0154 49.7401 41.6525 49.3776 41.2896C47.8553 39.7653 45.3181 39.7653 43.7958 41.2896C43.4334 41.6525 43.2159 42.0154 42.9984 42.4509L36.5467 55.2982C36.1843 55.8789 36.0393 56.5322 36.0393 57.1854C36.0393 57.8387 36.1843 58.4919 36.4743 59C37.1267 60.3065 38.504 61.1775 39.9538 61.1775H49.1601L47.0579 57.0403C46.5505 55.9515 46.9129 54.645 48.0003 54.1369C49.0876 53.6288 50.3925 53.9917 50.8999 55.0805L53.9445 61.1775H61.7735C63.9482 61.1775 65.688 59.4355 65.688 57.258C65.833 56.5322 65.688 55.8789 65.3256 55.2982Z" fill="#0001AE"/>
<path d="M65.3256 55.2982L58.9464 42.4509C58.7289 42.0154 58.5114 41.6525 58.149 41.2896C56.6267 39.7653 54.0895 39.7653 52.5672 41.2896C52.2048 41.6525 51.9873 42.0154 51.7698 42.4509L50.9724 44.1203L58.439 59C59.0914 60.2339 60.3962 61.1049 61.9185 61.1049C64.0932 61.1049 65.833 59.3629 65.833 57.1854C65.833 56.5322 65.688 55.8789 65.3256 55.2982Z" fill="#AFC4F9"/>
</g>
<defs>
<clipPath id="clip0_1229_2298">
<rect width="29.7937" height="21.0493" fill="white" transform="translate(36.0393 40.1282)"/>
</clipPath>
</defs>
</svg>
