<svg width="161" height="161" viewBox="0 0 161 161" fill="none" xmlns="http://www.w3.org/2000/svg">
<circle cx="80.7577" cy="80.6528" r="80.0084" fill="white" fill-opacity="0.13"/>
<circle cx="80.7578" cy="80.6528" r="65.5912" fill="#000079"/>
<path fill-rule="evenodd" clip-rule="evenodd" d="M80.7586 56.799C74.1671 56.799 68.2002 59.4687 63.8814 63.785C63.4646 64.2016 63.0638 64.6328 62.6788 65.0788L56.3791 57.0477C56.5041 56.919 56.6298 56.7904 56.7567 56.6636C62.8995 50.5248 71.3856 46.7273 80.7586 46.7273C90.1316 46.7273 98.6177 50.5248 104.76 56.6642C110.9 62.8006 114.699 71.2752 114.703 80.6369H122.702L116.045 89.125L109.387 97.6125L102.729 89.125L96.0709 80.6369H104.626C104.622 74.0558 101.951 68.0983 97.6364 63.785C93.317 59.4687 87.3501 56.799 80.7586 56.799ZM52.129 63.6717L45.4707 72.1592L38.813 80.6467H46.8142V80.6528C46.8142 90.0206 50.6138 98.502 56.7567 104.641C62.8995 110.781 71.3856 114.578 80.7586 114.578C90.1316 114.578 98.6177 110.781 104.76 104.641C104.889 104.513 105.016 104.384 105.142 104.253L98.842 96.2219C98.4558 96.6697 98.0531 97.1028 97.6351 97.5206C93.317 101.838 87.3501 104.507 80.7586 104.507C74.1671 104.507 68.2002 101.838 63.8814 97.5212C59.5627 93.2049 56.8915 87.2407 56.8915 80.6528V80.6467H65.445L58.7867 72.1592L52.129 63.6717Z" fill="url(#paint0_linear_1229_2299)"/>
<path d="M107.107 79.5276C107.107 79.4692 107.107 79.4158 107.107 79.3575C107.107 65.5204 95.3101 54.303 80.7577 54.303C66.2053 54.303 54.408 65.5204 54.408 79.3575C54.408 79.4109 54.408 79.4644 54.408 79.5178V81.948C54.408 95.785 66.2053 107.002 80.7577 107.002C95.3101 107.002 107.107 95.785 107.107 81.948V79.5276Z" fill="#B96400"/>
<path fill-rule="evenodd" clip-rule="evenodd" d="M80.7574 99.1191C77.9512 99.1191 75.2268 98.599 72.6711 97.5687C70.1971 96.5723 67.9736 95.1483 66.0619 93.3305C64.1502 91.5128 62.6525 89.3986 61.6047 87.0463C60.5211 84.6113 59.9741 82.0257 59.9741 79.3574C59.9741 76.6891 60.5211 74.0986 61.6047 71.6685C62.6525 69.3162 64.1502 67.202 66.0619 65.3842C67.9736 63.5665 70.1971 62.1425 72.6711 61.1461C75.2319 60.1157 77.9512 59.5957 80.7574 59.5957C83.5637 59.5957 86.2881 60.1157 88.8438 61.1461C91.3178 62.1425 93.5413 63.5665 95.453 65.3842C97.3647 67.202 98.8623 69.3162 99.9102 71.6685C100.994 74.1035 101.541 76.6891 101.541 79.3574C101.541 82.0257 100.994 84.6162 99.9102 87.0463C98.8623 89.3986 97.3647 91.5128 95.453 93.3305C93.5413 95.1483 91.3178 96.5723 88.8438 97.5687C86.2881 98.599 83.5688 99.1191 80.7574 99.1191Z" fill="url(#paint1_linear_1229_2299)"/>
<path d="M80.758 60.5728C83.4262 60.5728 86.0126 61.0686 88.4457 62.0455C90.797 62.9932 92.9131 64.3444 94.7277 66.0746C96.5423 67.8 97.9684 69.8121 98.9651 72.0478C99.9925 74.3613 100.514 76.8206 100.514 79.3576C100.514 81.8947 99.9925 84.3539 98.9651 86.6674C97.9684 88.9031 96.5474 90.9152 94.7277 92.6406C92.9131 94.366 90.797 95.722 88.4457 96.6698C86.0126 97.6467 83.4262 98.1424 80.758 98.1424C78.0898 98.1424 75.5034 97.6467 73.0703 96.6698C70.719 95.722 68.6029 94.3709 66.7883 92.6406C64.9737 90.9152 63.5476 88.9031 62.5509 86.6674C61.5235 84.3539 61.0021 81.8947 61.0021 79.3576C61.0021 76.8206 61.5235 74.3613 62.5509 72.0478C63.5476 69.8121 64.9686 67.8 66.7883 66.0746C68.6029 64.3492 70.719 62.9932 73.0703 62.0455C75.5034 61.0686 78.0898 60.5728 80.758 60.5728ZM80.758 58.619C77.8138 58.619 74.9565 59.1682 72.2678 60.2472C69.6712 61.2921 67.3352 62.7891 65.3315 64.6943C63.3278 66.5995 61.7535 68.8206 60.6545 71.2896C59.5249 73.8413 58.9473 76.5581 58.9473 79.3576C58.9473 82.1571 59.5249 84.874 60.6596 87.4305C61.7586 89.8995 63.3329 92.1206 65.3366 94.0258C67.3403 95.931 69.6763 97.4279 72.2729 98.4729C74.9616 99.5519 77.8138 100.101 80.7631 100.101C83.7073 100.101 86.5646 99.5519 89.2533 98.4729C91.8499 97.4279 94.1859 95.931 96.1896 94.0258C98.1933 92.1206 99.7676 89.8995 100.867 87.4305C102.001 84.874 102.579 82.162 102.579 79.3576C102.579 76.5581 102.001 73.8413 100.867 71.2848C99.7676 68.8158 98.1933 66.5947 96.1896 64.6894C94.1859 62.7842 91.8499 61.2873 89.2533 60.2423C86.5595 59.1682 83.7073 58.619 80.758 58.619Z" fill="url(#paint2_linear_1229_2299)"/>
<path d="M80.7577 58.6189C83.7019 58.6189 86.5592 59.1681 89.2479 60.247C91.8445 61.292 94.1805 62.7889 96.1842 64.6941C98.1879 66.5994 99.7622 68.8205 100.861 71.2895C101.996 73.846 102.574 76.558 102.574 79.3623C102.574 82.1618 101.996 84.8787 100.861 87.4352C99.7622 89.9042 98.1879 92.1253 96.1842 94.0305C94.1805 95.9357 91.8445 97.4326 89.2479 98.4776C86.5592 99.5517 83.707 100.101 80.7577 100.101C77.8135 100.101 74.9562 99.5517 72.2675 98.4727C69.6709 97.4278 67.3349 95.9308 65.3312 94.0256C63.3275 92.1204 61.7532 89.8993 60.6542 87.4303C59.5246 84.8738 58.947 82.1618 58.947 79.3575C58.947 76.558 59.5246 73.8411 60.6593 71.2846C61.7583 68.8156 63.3326 66.5945 65.3363 64.6893C67.34 62.7841 69.676 61.2871 72.2726 60.2422C74.9562 59.1681 77.8135 58.6189 80.7577 58.6189ZM80.7577 54.303C66.2053 54.303 54.408 65.5204 54.408 79.3575C54.408 93.1945 66.2053 104.412 80.7577 104.412C95.3101 104.412 107.107 93.1945 107.107 79.3575C107.107 65.5204 95.3101 54.303 80.7577 54.303Z" fill="url(#paint3_linear_1229_2299)"/>
<path d="M87.4866 72.3298C86.014 72.3298 84.8145 73.5294 84.8145 75.002C84.8145 76.4728 86.014 77.6741 87.4866 77.6741C88.9574 77.6741 90.1588 76.4746 90.1588 75.002C90.1588 73.5294 88.9592 72.3298 87.4866 72.3298Z" fill="#D57A00"/>
<path d="M87.4866 68.5144C84.7125 68.5144 82.3462 70.2546 81.4179 72.7028C80.6497 74.7324 77.9539 75.1202 76.6451 73.3891C76.1555 72.7447 75.3837 72.3279 74.5118 72.3279C73.0337 72.3279 71.8396 73.5238 71.8396 75C71.8396 76.4763 73.0355 77.6722 74.5118 77.6722C75.4055 77.6722 76.1973 77.2335 76.6815 76.5582C77.9211 74.8344 80.6897 75.3987 81.4251 77.3172C82.3571 79.7546 84.718 81.4856 87.4848 81.4856C91.0671 81.4856 93.9704 78.5823 93.9704 75C93.9723 71.4196 91.0689 68.5144 87.4866 68.5144ZM87.4866 79.234C85.1476 79.234 83.2527 77.3391 83.2527 75.0018C83.2527 72.6628 85.1476 70.7679 87.4866 70.7679C89.8239 70.7679 91.7188 72.6628 91.7188 75.0018C91.7188 77.3391 89.8239 79.234 87.4866 79.234Z" fill="#D57A00"/>
<path d="M78.8024 77.088C78.4165 77.088 78.0761 77.2809 77.8722 77.5776C77.0986 78.5861 75.8827 79.2341 74.5138 79.2341C72.1748 79.2341 70.2799 77.3392 70.2799 75.0019C70.2799 72.6629 72.1748 70.768 74.5138 70.768C75.879 70.768 77.1095 71.4288 77.8831 72.4335C77.8959 72.4499 77.9068 72.4663 77.9195 72.4827C77.9214 72.4863 77.9232 72.4882 77.9268 72.49C78.1325 72.7412 78.4456 72.9014 78.7951 72.9014C79.414 72.9014 79.9182 72.399 79.9182 71.7782C79.9182 71.5544 79.8527 71.3468 79.7416 71.1721C79.7325 71.1503 79.7216 71.1302 79.707 71.1102C78.5239 69.532 76.6381 68.5109 74.5138 68.5109C70.9315 68.5109 68.0264 71.4142 68.0264 74.9983C68.0264 78.5806 70.9315 81.4839 74.5138 81.4839C76.618 81.4839 78.4875 80.4828 79.6725 78.9301C79.8326 78.7353 79.9309 78.4841 79.9309 78.2129C79.9309 77.594 79.4249 77.088 78.8024 77.088Z" fill="#D57A00"/>
<path d="M88.8649 86.2403C88.8649 85.2592 88.0694 84.4637 87.0883 84.4637C86.1072 84.4637 85.3117 85.2592 85.3117 86.2403C85.3117 86.264 85.3172 86.284 85.319 86.3077H85.3117C85.3117 88.9471 83.1729 91.0859 80.5335 91.0859C77.8941 91.0859 75.7553 88.9471 75.7553 86.3077H75.748C75.748 86.2858 75.7553 86.264 75.7553 86.2403C75.7553 85.2592 74.9599 84.4637 73.9787 84.4637C72.9976 84.4637 72.2021 85.2592 72.2021 86.2403C72.2021 86.264 72.2076 86.284 72.2094 86.3077H72.2021C72.2021 90.9093 75.9319 94.6391 80.5335 94.6391C85.1352 94.6391 88.8649 90.9093 88.8649 86.3077H88.8576C88.8594 86.284 88.8649 86.2622 88.8649 86.2403Z" fill="#D57A00"/>
<path d="M87.0052 70.4852C85.5326 70.4852 84.333 71.6848 84.333 73.1574C84.333 74.6282 85.5326 75.8295 87.0052 75.8295C88.4759 75.8295 89.6773 74.63 89.6773 73.1574C89.6773 71.6848 88.4778 70.4852 87.0052 70.4852Z" fill="url(#paint4_linear_1229_2299)"/>
<path d="M87.0054 66.6698C84.2313 66.6698 81.865 68.41 80.9367 70.8582C80.1685 72.8878 77.4727 73.2756 76.1639 71.5445C75.6743 70.9001 74.9025 70.4833 74.0306 70.4833C72.5525 70.4833 71.3584 71.6792 71.3584 73.1554C71.3584 74.6317 72.5543 75.8276 74.0306 75.8276C74.9243 75.8276 75.7161 75.3889 76.2003 74.7136C77.4399 72.9898 80.2085 73.5541 80.9439 75.4726C81.8759 77.91 84.2368 79.641 87.0036 79.641C90.5859 79.641 93.4892 76.7377 93.4892 73.1554C93.4911 69.5749 90.5877 66.6698 87.0054 66.6698ZM87.0054 77.3894C84.6664 77.3894 82.7715 75.4945 82.7715 73.1572C82.7715 70.8182 84.6664 68.9233 87.0054 68.9233C89.3427 68.9233 91.2376 70.8182 91.2376 73.1572C91.2376 75.4945 89.3427 77.3894 87.0054 77.3894Z" fill="url(#paint5_linear_1229_2299)"/>
<path d="M78.3209 75.2434C77.935 75.2434 77.5946 75.4363 77.3908 75.733C76.6171 76.7415 75.4012 77.3895 74.0324 77.3895C71.6933 77.3895 69.7984 75.4946 69.7984 73.1573C69.7984 70.8183 71.6933 68.9234 74.0324 68.9234C75.3976 68.9234 76.6281 69.5842 77.4017 70.5889C77.4144 70.6053 77.4253 70.6217 77.4381 70.6381C77.4399 70.6417 77.4417 70.6436 77.4454 70.6454C77.6511 70.8966 77.9641 71.0568 78.3136 71.0568C78.9325 71.0568 79.4367 70.5544 79.4367 69.9336C79.4367 69.7098 79.3712 69.5022 79.2602 69.3275C79.2511 69.3057 79.2402 69.2856 79.2256 69.2656C78.0424 67.6874 76.1566 66.6663 74.0324 66.6663C70.4501 66.6663 67.5449 69.5696 67.5449 73.1537C67.5449 76.736 70.4501 79.6393 74.0324 79.6393C76.1366 79.6393 78.006 78.6382 79.191 77.0855C79.3512 76.8907 79.4495 76.6395 79.4495 76.3683C79.4495 75.7494 78.9435 75.2434 78.3209 75.2434Z" fill="url(#paint6_linear_1229_2299)"/>
<path d="M88.3835 84.3956C88.3835 83.4145 87.588 82.619 86.6069 82.619C85.6257 82.619 84.8303 83.4145 84.8303 84.3956C84.8303 84.4193 84.8357 84.4393 84.8376 84.4629H84.8303C84.8303 87.1023 82.6915 89.2412 80.0521 89.2412C77.4127 89.2412 75.2739 87.1023 75.2739 84.4629H75.2666C75.2666 84.4411 75.2739 84.4193 75.2739 84.3956C75.2739 83.4145 74.4784 82.619 73.4973 82.619C72.5162 82.619 71.7207 83.4145 71.7207 84.3956C71.7207 84.4193 71.7262 84.4393 71.728 84.4629H71.7207C71.7207 89.0646 75.4504 92.7943 80.0521 92.7943C84.6537 92.7943 88.3835 89.0646 88.3835 84.4629H88.3762C88.378 84.4393 88.3835 84.4174 88.3835 84.3956Z" fill="url(#paint7_linear_1229_2299)"/>
<defs>
<linearGradient id="paint0_linear_1229_2299" x1="59.5805" y1="61.0579" x2="138.556" y2="124.414" gradientUnits="userSpaceOnUse">
<stop stop-color="#C7D0FF"/>
<stop offset="1" stop-color="white"/>
</linearGradient>
<linearGradient id="paint1_linear_1229_2299" x1="80.7584" y1="101.251" x2="80.7584" y2="61.7245" gradientUnits="userSpaceOnUse">
<stop stop-color="#F0B100"/>
<stop offset="0.9876" stop-color="#EBA700"/>
</linearGradient>
<linearGradient id="paint2_linear_1229_2299" x1="80.7589" y1="59.1263" x2="80.7589" y2="100.607" gradientUnits="userSpaceOnUse">
<stop stop-color="#C96D00"/>
<stop offset="0.5383" stop-color="#F3AC00"/>
<stop offset="0.9876" stop-color="#FFFF00"/>
</linearGradient>
<linearGradient id="paint3_linear_1229_2299" x1="80.7586" y1="104.922" x2="80.7586" y2="54.8109" gradientUnits="userSpaceOnUse">
<stop offset="8e-08" stop-color="#FFC100"/>
<stop offset="0.2951" stop-color="#FFD100"/>
<stop offset="0.6566" stop-color="#FFDF00"/>
<stop offset="0.9876" stop-color="#FFE300"/>
</linearGradient>
<linearGradient id="paint4_linear_1229_2299" x1="87.0042" y1="75.8291" x2="87.0042" y2="70.4838" gradientUnits="userSpaceOnUse">
<stop stop-color="#FFC100"/>
<stop offset="0.9876" stop-color="#FFE300"/>
</linearGradient>
<linearGradient id="paint5_linear_1229_2299" x1="82.4197" y1="79.64" x2="82.4197" y2="66.6664" gradientUnits="userSpaceOnUse">
<stop stop-color="#FFC100"/>
<stop offset="0.9876" stop-color="#FFE300"/>
</linearGradient>
<linearGradient id="paint6_linear_1229_2299" x1="73.495" y1="79.6383" x2="73.495" y2="66.6629" gradientUnits="userSpaceOnUse">
<stop stop-color="#FFC100"/>
<stop offset="0.9876" stop-color="#FFE300"/>
</linearGradient>
<linearGradient id="paint7_linear_1229_2299" x1="80.049" y1="92.7935" x2="80.049" y2="82.6164" gradientUnits="userSpaceOnUse">
<stop stop-color="#FFC100"/>
<stop offset="0.9876" stop-color="#FFE300"/>
</linearGradient>
</defs>
</svg>
